<svg width="4000" height="2000" viewBox="-0.025 -0.025 2.05 1.05" xmlns="http://www.w3.org/2000/svg">
  <style>
    path {
      fill: none;
      stroke-linecap: round;
      stroke-opacity: 0.4;
    }

    text {
      text-anchor: middle;
      alignment-baseline: hanging;
    }
  </style>
  <g opacity="0.4">
<path d="M0.768 0.548 Q1.130 0.686 1.479 0.540" stroke="hsl(0.0,100%,35%)" stroke-width="0.00120"></path>
<path d="M0.768 0.548 Q0.665 0.610 0.763 0.674" stroke="hsl(0.0,100%,35%)" stroke-width="0.01138"></path>
<path d="M0.768 0.548 Q1.334 0.542 1.446 0.265" stroke="hsl(0.0,100%,35%)" stroke-width="0.00120"></path>
<path d="M0.768 0.548 Q0.905 0.919 1.658 0.933" stroke="hsl(0.0,100%,35%)" stroke-width="0.02216"></path>
<path d="M0.768 0.548 Q0.307 0.585 0.277 0.818" stroke="hsl(0.0,100%,35%)" stroke-width="0.00060"></path>
<path d="M0.768 0.548 Q1.080 0.752 1.545 0.644" stroke="hsl(0.0,100%,35%)" stroke-width="0.00060"></path>
<path d="M0.768 0.548 Q0.726 0.919 1.440 1.020" stroke="hsl(0.0,100%,35%)" stroke-width="0.00838"></path>
<path d="M0.768 0.548 Q0.749 0.775 1.188 0.834" stroke="hsl(0.0,100%,35%)" stroke-width="0.00240"></path>
<path d="M1.479 0.540 Q1.253 0.773 1.658 0.933" stroke="hsl(0.0,100%,35%)" stroke-width="0.01737"></path>
<path d="M1.479 0.540 Q1.075 0.772 1.440 1.020" stroke="hsl(0.0,100%,35%)" stroke-width="0.00539"></path>
<path d="M1.479 0.540 Q1.683 0.396 1.446 0.265" stroke="hsl(0.0,100%,35%)" stroke-width="0.00359"></path>
<path d="M1.479 0.540 Q1.429 0.605 1.545 0.644" stroke="hsl(0.0,100%,35%)" stroke-width="0.00599"></path>
<path d="M1.479 0.540 Q1.117 0.402 0.768 0.548" stroke="hsl(0.0,100%,35%)" stroke-width="0.00359"></path>
<path d="M1.479 0.540 Q0.882 0.554 0.779 0.848" stroke="hsl(0.0,100%,35%)" stroke-width="0.00060"></path>
<path d="M1.479 0.540 Q1.013 0.464 0.763 0.674" stroke="hsl(0.0,100%,35%)" stroke-width="0.00838"></path>
<path d="M1.479 0.540 Q1.571 0.283 1.090 0.182" stroke="hsl(0.0,100%,35%)" stroke-width="0.00060"></path>
<path d="M0.763 0.674 Q0.824 0.983 1.440 1.020" stroke="hsl(0.0,100%,35%)" stroke-width="0.00120"></path>
<path d="M0.763 0.674 Q1.432 0.606 1.446 0.265" stroke="hsl(0.0,100%,35%)" stroke-width="0.00120"></path>
<path d="M0.763 0.674 Q1.228 0.750 1.479 0.540" stroke="hsl(0.0,100%,35%)" stroke-width="0.00779"></path>
<path d="M0.763 0.674 Q1.003 0.983 1.658 0.933" stroke="hsl(0.0,100%,35%)" stroke-width="0.00120"></path>
<path d="M0.763 0.674 Q0.866 0.612 0.768 0.548" stroke="hsl(0.0,100%,35%)" stroke-width="0.00060"></path>
<path d="M0.763 0.674 Q0.622 0.612 0.471 0.667" stroke="hsl(0.0,100%,35%)" stroke-width="0.00419"></path>
<path d="M1.446 0.265 Q0.839 0.641 1.440 1.020" stroke="hsl(0.0,100%,35%)" stroke-width="0.00060"></path>
<path d="M1.446 0.265 Q1.017 0.641 1.658 0.933" stroke="hsl(0.0,100%,35%)" stroke-width="0.00299"></path>
<path d="M1.446 0.265 Q0.861 0.498 1.188 0.834" stroke="hsl(0.0,100%,35%)" stroke-width="0.00299"></path>
<path d="M1.446 0.265 Q1.444 0.109 1.140 0.076" stroke="hsl(0.0,100%,35%)" stroke-width="0.00659"></path>
<path d="M1.446 0.265 Q1.334 0.152 1.090 0.182" stroke="hsl(0.0,100%,35%)" stroke-width="0.00180"></path>
<path d="M1.446 0.265 Q0.777 0.333 0.763 0.674" stroke="hsl(0.0,100%,35%)" stroke-width="0.00359"></path>
<path d="M1.446 0.265 Q1.242 0.409 1.479 0.540" stroke="hsl(0.0,100%,35%)" stroke-width="0.00299"></path>
<path d="M1.446 0.265 Q1.192 0.474 1.545 0.644" stroke="hsl(0.0,100%,35%)" stroke-width="0.00120"></path>
<path d="M1.446 0.265 Q0.880 0.271 0.768 0.548" stroke="hsl(0.0,100%,35%)" stroke-width="0.00060"></path>
<path d="M1.658 0.933 Q1.521 0.563 0.768 0.548" stroke="hsl(0.0,100%,35%)" stroke-width="0.01198"></path>
<path d="M1.658 0.933 Q1.480 0.933 1.440 1.020" stroke="hsl(0.0,100%,35%)" stroke-width="0.01917"></path>
<path d="M1.658 0.933 Q1.833 0.766 1.545 0.644" stroke="hsl(0.0,100%,35%)" stroke-width="0.01737"></path>
<path d="M1.658 0.933 Q2.087 0.557 1.446 0.265" stroke="hsl(0.0,100%,35%)" stroke-width="0.00599"></path>
<path d="M1.658 0.933 Q1.502 0.790 1.188 0.834" stroke="hsl(0.0,100%,35%)" stroke-width="0.01617"></path>
<path d="M1.658 0.933 Q1.883 0.701 1.479 0.540" stroke="hsl(0.0,100%,35%)" stroke-width="0.00599"></path>
<path d="M1.658 0.933 Q1.683 0.827 1.482 0.792" stroke="hsl(0.0,100%,35%)" stroke-width="0.00359"></path>
<path d="M1.658 0.933 Q1.438 0.856 1.240 0.947" stroke="hsl(0.0,100%,35%)" stroke-width="0.00060"></path>
<path d="M1.658 0.933 Q1.418 0.625 0.763 0.674" stroke="hsl(0.0,100%,35%)" stroke-width="0.00120"></path>
<path d="M1.658 0.933 Q1.428 0.693 0.908 0.752" stroke="hsl(0.0,100%,35%)" stroke-width="0.00060"></path>
<path d="M1.658 0.933 Q1.286 0.715 0.779 0.848" stroke="hsl(0.0,100%,35%)" stroke-width="0.00060"></path>
<path d="M1.658 0.933 Q1.844 0.870 1.760 0.765" stroke="hsl(0.0,100%,35%)" stroke-width="0.00180"></path>
<path d="M1.658 0.933 Q1.659 0.785 1.371 0.752" stroke="hsl(0.0,100%,35%)" stroke-width="0.00060"></path>
<path d="M0.277 0.818 Q1.100 0.919 1.479 0.540" stroke="hsl(0.0,100%,35%)" stroke-width="0.00120"></path>
<path d="M0.277 0.818 Q0.875 1.152 1.658 0.933" stroke="hsl(0.0,100%,35%)" stroke-width="0.00240"></path>
<path d="M0.277 0.818 Q0.635 0.843 0.763 0.674" stroke="hsl(0.0,100%,35%)" stroke-width="0.00060"></path>
<path d="M0.277 0.818 Q0.225 0.884 0.342 0.923" stroke="hsl(0.0,100%,35%)" stroke-width="0.00060"></path>
<path d="M1.545 0.644 Q1.234 0.441 0.768 0.548" stroke="hsl(0.0,100%,35%)" stroke-width="0.00419"></path>
<path d="M1.545 0.644 Q1.192 0.811 1.440 1.020" stroke="hsl(0.0,100%,35%)" stroke-width="0.00359"></path>
<path d="M1.545 0.644 Q1.799 0.435 1.446 0.265" stroke="hsl(0.0,100%,35%)" stroke-width="0.00060"></path>
<path d="M1.545 0.644 Q1.370 0.811 1.658 0.933" stroke="hsl(0.0,100%,35%)" stroke-width="0.00359"></path>
<path d="M1.545 0.644 Q1.688 0.322 1.090 0.182" stroke="hsl(0.0,100%,35%)" stroke-width="0.00060"></path>
<path d="M1.545 0.644 Q1.595 0.579 1.479 0.540" stroke="hsl(0.0,100%,35%)" stroke-width="0.00120"></path>
<path d="M1.545 0.644 Q1.130 0.503 0.763 0.674" stroke="hsl(0.0,100%,35%)" stroke-width="0.00120"></path>
<path d="M1.440 1.020 Q1.482 0.650 0.768 0.548" stroke="hsl(0.0,100%,35%)" stroke-width="0.01976"></path>
<path d="M1.440 1.020 Q1.619 1.020 1.658 0.933" stroke="hsl(0.0,100%,35%)" stroke-width="0.04552"></path>
<path d="M1.440 1.020 Q2.048 0.644 1.446 0.265" stroke="hsl(0.0,100%,35%)" stroke-width="0.00120"></path>
<path d="M1.440 1.020 Q1.379 0.712 0.763 0.674" stroke="hsl(0.0,100%,35%)" stroke-width="0.00120"></path>
<path d="M1.440 1.020 Q1.463 0.877 1.188 0.834" stroke="hsl(0.0,100%,35%)" stroke-width="0.00120"></path>
<path d="M1.440 1.020 Q1.844 0.788 1.479 0.540" stroke="hsl(0.0,100%,35%)" stroke-width="0.00240"></path>
<path d="M1.440 1.020 Q1.794 0.853 1.545 0.644" stroke="hsl(0.0,100%,35%)" stroke-width="0.01737"></path>
<path d="M1.440 1.020 Q1.388 0.945 1.229 0.954" stroke="hsl(0.0,100%,35%)" stroke-width="0.00060"></path>
<path d="M1.440 1.020 Q1.451 1.169 1.743 1.196" stroke="hsl(0.0,100%,35%)" stroke-width="0.00060"></path>
<path d="M1.188 0.834 Q1.343 0.978 1.658 0.933" stroke="hsl(180.0,100%,35%)" stroke-width="0.02755"></path>
<path d="M1.188 0.834 Q0.960 0.928 1.093 1.060" stroke="hsl(180.0,100%,35%)" stroke-width="0.00180"></path>
<path d="M1.188 0.834 Q1.425 0.809 1.427 0.688" stroke="hsl(180.0,100%,35%)" stroke-width="0.00419"></path>
<path d="M1.188 0.834 Q1.325 0.732 1.155 0.642" stroke="hsl(180.0,100%,35%)" stroke-width="0.00479"></path>
<path d="M1.188 0.834 Q1.103 0.669 0.763 0.674" stroke="hsl(180.0,100%,35%)" stroke-width="0.00240"></path>
<path d="M1.188 0.834 Q1.773 0.601 1.446 0.265" stroke="hsl(180.0,100%,35%)" stroke-width="0.00180"></path>
<path d="M1.188 0.834 Q1.207 0.607 0.768 0.548" stroke="hsl(180.0,100%,35%)" stroke-width="0.00180"></path>
<path d="M1.188 0.834 Q1.519 0.811 1.545 0.644" stroke="hsl(180.0,100%,35%)" stroke-width="0.00120"></path>
<path d="M1.188 0.834 Q1.569 0.745 1.479 0.540" stroke="hsl(180.0,100%,35%)" stroke-width="0.00060"></path>
<path d="M1.188 0.834 Q1.221 0.718 1.001 0.676" stroke="hsl(180.0,100%,35%)" stroke-width="0.00060"></path>
<path d="M1.188 0.834 Q1.516 0.630 1.190 0.426" stroke="hsl(180.0,100%,35%)" stroke-width="0.00060"></path>
<path d="M1.188 0.834 Q1.114 0.737 0.908 0.752" stroke="hsl(180.0,100%,35%)" stroke-width="0.00060"></path>
<path d="M1.188 0.834 Q1.089 0.713 0.830 0.735" stroke="hsl(180.0,100%,35%)" stroke-width="0.00120"></path>
<path d="M1.188 0.834 Q1.156 0.739 0.963 0.733" stroke="hsl(180.0,100%,35%)" stroke-width="0.00060"></path>
<path d="M1.188 0.834 Q1.357 0.662 1.057 0.541" stroke="hsl(180.0,100%,35%)" stroke-width="0.00060"></path>
<path d="M0.471 0.667 Q0.611 0.729 0.763 0.674" stroke="hsl(0.0,100%,35%)" stroke-width="0.00958"></path>
<path d="M0.471 0.667 Q1.280 0.661 1.446 0.265" stroke="hsl(0.0,100%,35%)" stroke-width="0.00060"></path>
<path d="M0.471 0.667 Q0.851 1.038 1.658 0.933" stroke="hsl(0.0,100%,35%)" stroke-width="0.00060"></path>
<path d="M0.471 0.667 Q0.696 0.894 1.188 0.834" stroke="hsl(0.0,100%,35%)" stroke-width="0.00060"></path>
<path d="M1.263 0.482 Q1.324 0.554 1.479 0.540" stroke="hsl(0.0,100%,35%)" stroke-width="0.00180"></path>
<path d="M1.263 0.482 Q1.099 0.787 1.658 0.933" stroke="hsl(0.0,100%,35%)" stroke-width="0.00060"></path>
<path d="M1.263 0.482 Q1.528 0.410 1.446 0.265" stroke="hsl(0.0,100%,35%)" stroke-width="0.00060"></path>
<path d="M1.177 0.598 Q0.994 0.718 1.188 0.834" stroke="hsl(180.0,100%,35%)" stroke-width="0.00180"></path>
<path d="M1.177 0.598 Q0.920 0.621 0.908 0.752" stroke="hsl(180.0,100%,35%)" stroke-width="0.00060"></path>
<path d="M1.177 0.598 Q1.149 0.862 1.658 0.933" stroke="hsl(180.0,100%,35%)" stroke-width="0.00060"></path>
<path d="M1.177 0.598 Q0.778 0.644 0.779 0.848" stroke="hsl(180.0,100%,35%)" stroke-width="0.00120"></path>
<path d="M0.908 0.752 Q0.766 0.774 0.779 0.848" stroke="hsl(180.0,100%,35%)" stroke-width="0.00539"></path>
<path d="M0.908 0.752 Q0.982 0.849 1.188 0.834" stroke="hsl(180.0,100%,35%)" stroke-width="0.00719"></path>
<path d="M0.908 0.752 Q0.754 0.943 1.093 1.060" stroke="hsl(180.0,100%,35%)" stroke-width="0.00060"></path>
<path d="M1.721 0.619 Q1.663 0.531 1.479 0.540" stroke="hsl(0.0,100%,35%)" stroke-width="0.00060"></path>
<path d="M1.721 0.619 Q1.613 0.596 1.545 0.644" stroke="hsl(0.0,100%,35%)" stroke-width="0.00060"></path>
<path d="M1.721 0.619 Q1.438 0.763 1.658 0.933" stroke="hsl(0.0,100%,35%)" stroke-width="0.00060"></path>
<path d="M1.889 0.944 Q1.781 0.892 1.658 0.933" stroke="hsl(0.0,100%,35%)" stroke-width="0.01018"></path>
<path d="M1.889 0.944 Q1.603 0.892 1.440 1.020" stroke="hsl(0.0,100%,35%)" stroke-width="0.00659"></path>
<path d="M1.889 0.944 Q1.626 0.749 1.188 0.834" stroke="hsl(0.0,100%,35%)" stroke-width="0.00060"></path>
<path d="M1.093 1.060 Q1.477 1.110 1.658 0.933" stroke="hsl(180.0,100%,35%)" stroke-width="0.01976"></path>
<path d="M1.093 1.060 Q1.321 0.966 1.188 0.834" stroke="hsl(180.0,100%,35%)" stroke-width="0.02755"></path>
<path d="M1.093 1.060 Q0.980 0.928 0.698 0.954" stroke="hsl(180.0,100%,35%)" stroke-width="0.01378"></path>
<path d="M1.093 1.060 Q1.105 0.891 0.779 0.848" stroke="hsl(180.0,100%,35%)" stroke-width="0.00898"></path>
<path d="M1.093 1.060 Q1.247 0.869 0.908 0.752" stroke="hsl(180.0,100%,35%)" stroke-width="0.00359"></path>
<path d="M1.093 1.060 Q1.298 1.110 1.440 1.020" stroke="hsl(180.0,100%,35%)" stroke-width="0.00060"></path>
<path d="M1.427 0.688 Q1.328 0.611 1.155 0.642" stroke="hsl(180.0,100%,35%)" stroke-width="0.00419"></path>
<path d="M1.427 0.688 Q1.346 0.857 1.658 0.933" stroke="hsl(180.0,100%,35%)" stroke-width="0.00599"></path>
<path d="M1.427 0.688 Q1.190 0.713 1.188 0.834" stroke="hsl(180.0,100%,35%)" stroke-width="0.00539"></path>
<path d="M1.155 0.642 Q1.018 0.745 1.188 0.834" stroke="hsl(180.0,100%,35%)" stroke-width="0.00419"></path>
<path d="M1.155 0.642 Q1.255 0.719 1.427 0.688" stroke="hsl(180.0,100%,35%)" stroke-width="0.00599"></path>
<path d="M1.155 0.642 Q1.174 0.888 1.658 0.933" stroke="hsl(180.0,100%,35%)" stroke-width="0.00539"></path>
<path d="M1.367 0.928 Q1.372 0.618 0.768 0.548" stroke="hsl(0.0,100%,35%)" stroke-width="0.00060"></path>
<path d="M1.367 0.928 Q1.508 0.989 1.658 0.933" stroke="hsl(0.0,100%,35%)" stroke-width="0.00120"></path>
<path d="M1.367 0.928 Q1.937 0.612 1.446 0.265" stroke="hsl(0.0,100%,35%)" stroke-width="0.00060"></path>
<path d="M1.367 0.928 Q1.330 0.989 1.440 1.020" stroke="hsl(0.0,100%,35%)" stroke-width="0.00060"></path>
<path d="M1.367 0.928 Q1.683 0.822 1.545 0.644" stroke="hsl(0.0,100%,35%)" stroke-width="0.00060"></path>
<path d="M0.989 0.638 Q1.087 0.919 1.658 0.933" stroke="hsl(180.0,100%,35%)" stroke-width="0.00120"></path>
<path d="M0.989 0.638 Q0.931 0.776 1.188 0.834" stroke="hsl(180.0,100%,35%)" stroke-width="0.00060"></path>
<path d="M0.989 0.638 Q1.168 0.750 1.427 0.688" stroke="hsl(180.0,100%,35%)" stroke-width="0.00060"></path>
<path d="M1.760 0.765 Q1.418 0.685 1.188 0.834" stroke="hsl(0.0,100%,35%)" stroke-width="0.00060"></path>
<path d="M1.760 0.765 Q1.574 0.829 1.658 0.933" stroke="hsl(0.0,100%,35%)" stroke-width="0.01497"></path>
<path d="M1.760 0.765 Q1.396 0.828 1.440 1.020" stroke="hsl(0.0,100%,35%)" stroke-width="0.00779"></path>
<path d="M1.760 0.765 Q1.599 0.722 1.482 0.792" stroke="hsl(0.0,100%,35%)" stroke-width="0.00180"></path>
<path d="M1.760 0.765 Q1.799 0.596 1.479 0.540" stroke="hsl(0.0,100%,35%)" stroke-width="0.00060"></path>
<path d="M1.760 0.765 Q1.438 0.458 0.768 0.548" stroke="hsl(0.0,100%,35%)" stroke-width="0.00120"></path>
<path d="M1.482 0.792 Q1.456 0.898 1.658 0.933" stroke="hsl(0.0,100%,35%)" stroke-width="0.02036"></path>
<path d="M1.482 0.792 Q1.278 0.898 1.440 1.020" stroke="hsl(0.0,100%,35%)" stroke-width="0.00958"></path>
<path d="M1.482 0.792 Q1.216 0.589 0.763 0.674" stroke="hsl(0.0,100%,35%)" stroke-width="0.00060"></path>
<path d="M1.482 0.792 Q1.631 0.731 1.545 0.644" stroke="hsl(0.0,100%,35%)" stroke-width="0.00060"></path>
<path d="M0.698 0.954 Q0.823 0.918 0.779 0.848" stroke="hsl(180.0,100%,35%)" stroke-width="0.00180"></path>
<path d="M0.698 0.954 Q0.965 0.895 0.908 0.752" stroke="hsl(180.0,100%,35%)" stroke-width="0.00120"></path>
<path d="M0.698 0.954 Q1.195 1.136 1.658 0.933" stroke="hsl(180.0,100%,35%)" stroke-width="0.00060"></path>
<path d="M0.698 0.954 Q1.039 0.992 1.188 0.834" stroke="hsl(180.0,100%,35%)" stroke-width="0.00838"></path>
<path d="M0.698 0.954 Q0.811 1.086 1.093 1.060" stroke="hsl(180.0,100%,35%)" stroke-width="0.00539"></path>
<path d="M0.559 0.845 Q0.666 0.891 0.779 0.848" stroke="hsl(180.0,100%,35%)" stroke-width="0.00060"></path>
<path d="M0.559 0.845 Q0.541 0.928 0.698 0.954" stroke="hsl(180.0,100%,35%)" stroke-width="0.00120"></path>
<path d="M0.559 0.845 Q1.038 1.109 1.658 0.933" stroke="hsl(180.0,100%,35%)" stroke-width="0.00120"></path>
<path d="M0.939 0.717 Q1.126 0.969 1.658 0.933" stroke="hsl(180.0,100%,35%)" stroke-width="0.00120"></path>
<path d="M0.939 0.717 Q0.629 0.788 0.698 0.954" stroke="hsl(180.0,100%,35%)" stroke-width="0.00240"></path>
<path d="M0.939 0.717 Q0.970 0.826 1.188 0.834" stroke="hsl(180.0,100%,35%)" stroke-width="0.00120"></path>
<path d="M1.090 0.182 Q0.947 0.504 1.545 0.644" stroke="hsl(0.0,100%,35%)" stroke-width="0.00180"></path>
<path d="M1.090 0.182 Q0.772 0.671 1.658 0.933" stroke="hsl(0.0,100%,35%)" stroke-width="0.00120"></path>
<path d="M1.090 0.182 Q1.201 0.294 1.446 0.265" stroke="hsl(0.0,100%,35%)" stroke-width="0.00060"></path>
<path d="M0.135 0.668 Q0.684 1.105 1.658 0.933" stroke="hsl(0.0,100%,35%)" stroke-width="0.00060"></path>
<path d="M0.135 0.668 Q0.237 0.624 0.172 0.564" stroke="hsl(0.0,100%,35%)" stroke-width="0.00060"></path>
<path d="M0.135 0.668 Q1.114 0.729 1.446 0.265" stroke="hsl(0.0,100%,35%)" stroke-width="0.00060"></path>
<path d="M1.371 0.752 Q1.369 0.900 1.658 0.933" stroke="hsl(0.0,100%,35%)" stroke-width="0.00180"></path>
<path d="M1.371 0.752 Q0.998 0.682 0.779 0.848" stroke="hsl(0.0,100%,35%)" stroke-width="0.00060"></path>
<path d="M1.371 0.752 Q1.233 0.530 0.768 0.548" stroke="hsl(0.0,100%,35%)" stroke-width="0.00060"></path>
</g>
<text x="0.768" y="0.521" font-size="0.054181" fill="hsl(0.0,100%,20%)">abdolrashidi</text>
<text x="1.479" y="0.516" font-size="0.047673" fill="hsl(0.0,100%,20%)">romanl</text>
<text x="0.763" y="0.653" font-size="0.042194" fill="hsl(0.0,100%,20%)">cnorthrop</text>
<text x="1.446" y="0.246" font-size="0.036411" fill="hsl(0.0,100%,20%)">ynovikov</text>
<text x="1.658" y="0.885" font-size="0.096825" fill="hsl(0.0,100%,20%)">syoussefi</text>
<text x="0.277" y="0.811" font-size="0.013056" fill="hsl(0.0,100%,20%)">zzyiwei</text>
<text x="1.545" y="0.622" font-size="0.044381" fill="hsl(0.0,100%,20%)">yuxinhu</text>
<text x="1.440" y="0.986" font-size="0.069631" fill="hsl(0.0,100%,20%)">cclao</text>
<text x="1.188" y="0.802" font-size="0.064403" fill="hsl(180.0,100%,20%)">geofflang</text>
<text x="1.229" y="0.951" font-size="0.004352" fill="hsl(0.0,100%,20%)">gregschlom</text>
<text x="1.743" y="1.194" font-size="0.004352" fill="hsl(0.0,100%,20%)">slumpwuffle</text>
<text x="0.471" y="0.656" font-size="0.022191" fill="hsl(0.0,100%,20%)">mark</text>
<text x="1.263" y="0.477" font-size="0.009731" fill="hsl(0.0,100%,20%)">dextero</text>
<text x="1.177" y="0.592" font-size="0.011514" fill="hsl(180.0,100%,20%)">djg</text>
<text x="0.908" y="0.739" font-size="0.025000" fill="hsl(180.0,100%,20%)">lehoangquyen</text>
<text x="0.779" y="0.836" font-size="0.025000" fill="hsl(180.0,100%,20%)">kbr</text>
<text x="1.721" y="0.615" font-size="0.007538" fill="hsl(0.0,100%,20%)">dloehr</text>
<text x="1.889" y="0.932" font-size="0.023436" fill="hsl(0.0,100%,20%)">g.tammana</text>
<text x="1.093" y="1.034" font-size="0.050938" fill="hsl(180.0,100%,20%)">lexa.knyazev</text>
<text x="1.427" y="0.673" font-size="0.028868" fill="hsl(180.0,100%,20%)">mpdenton</text>
<text x="1.155" y="0.628" font-size="0.027866" fill="hsl(180.0,100%,20%)">liza</text>
<text x="1.001" y="0.674" font-size="0.004352" fill="hsl(180.0,100%,20%)">johnstiles</text>
<text x="1.190" y="0.423" font-size="0.004352" fill="hsl(180.0,100%,20%)">vasilyt</text>
<text x="0.830" y="0.731" font-size="0.006155" fill="hsl(180.0,100%,20%)">zmo</text>
<text x="0.963" y="0.731" font-size="0.004352" fill="hsl(180.0,100%,20%)">dsinclair</text>
<text x="1.057" y="0.539" font-size="0.004352" fill="hsl(180.0,100%,20%)">cwallez</text>
<text x="1.367" y="0.923" font-size="0.010660" fill="hsl(0.0,100%,20%)">hailinzhang</text>
<text x="0.989" y="0.633" font-size="0.008704" fill="hsl(180.0,100%,20%)">hocheung</text>
<text x="1.760" y="0.750" font-size="0.030151" fill="hsl(0.0,100%,20%)">i.nazarov</text>
<text x="1.482" y="0.775" font-size="0.033990" fill="hsl(0.0,100%,20%)">m.maiya</text>
<text x="0.698" y="0.938" font-size="0.033143" fill="hsl(180.0,100%,20%)">kkinnunen</text>
<text x="0.559" y="0.840" font-size="0.009731" fill="hsl(180.0,100%,20%)">lerica</text>
<text x="0.939" y="0.711" font-size="0.012309" fill="hsl(180.0,100%,20%)">mscott</text>
<text x="1.090" y="0.174" font-size="0.014434" fill="hsl(0.0,100%,20%)">solti</text>
<text x="0.135" y="0.665" font-size="0.007538" fill="hsl(0.0,100%,20%)">sokcevic</text>
<text x="0.172" y="0.562" font-size="0.004352" fill="hsl(0.0,100%,20%)">jwata</text>
<text x="1.371" y="0.747" font-size="0.010660" fill="hsl(0.0,100%,20%)">steven</text>
<text x="1.240" y="0.944" font-size="0.004352" fill="hsl(0.0,100%,20%)">a.annestrand</text>
<text x="1.140" y="0.069" font-size="0.014434" fill="hsl(0.0,100%,20%)">bsheedy</text>
<text x="0.342" y="0.921" font-size="0.004352" fill="hsl(0.0,100%,20%)">lepton</text>
</svg>
