<svg width="4000" height="2000" viewBox="-0.025 -0.025 2.05 1.05" xmlns="http://www.w3.org/2000/svg">
  <style>
    path {
      fill: none;
      stroke-linecap: round;
      stroke-opacity: 0.4;
    }

    text {
      text-anchor: middle;
      alignment-baseline: hanging;
    }
  </style>
  <g opacity="0.4">
<path d="M1.896 0.519 Q1.375 0.601 1.421 0.873" stroke="hsl(0.0,100%,35%)" stroke-width="0.01002"></path>
<path d="M1.896 0.519 Q1.695 0.528 1.670 0.628" stroke="hsl(0.0,100%,35%)" stroke-width="0.01225"></path>
<path d="M1.896 0.519 Q0.773 0.421 0.337 0.948" stroke="hsl(0.0,100%,35%)" stroke-width="0.00111"></path>
<path d="M1.896 0.519 Q1.509 0.312 1.021 0.455" stroke="hsl(0.0,100%,35%)" stroke-width="0.00223"></path>
<path d="M1.421 0.873 Q1.741 0.800 1.670 0.628" stroke="hsl(0.0,100%,35%)" stroke-width="0.02783"></path>
<path d="M1.421 0.873 Q1.941 0.791 1.896 0.519" stroke="hsl(0.0,100%,35%)" stroke-width="0.00557"></path>
<path d="M1.421 0.873 Q1.726 0.691 1.439 0.502" stroke="hsl(0.0,100%,35%)" stroke-width="0.02227"></path>
<path d="M1.421 0.873 Q1.829 0.609 1.404 0.352" stroke="hsl(0.0,100%,35%)" stroke-width="0.00111"></path>
<path d="M1.421 0.873 Q1.879 0.712 1.667 0.454" stroke="hsl(0.0,100%,35%)" stroke-width="0.00111"></path>
<path d="M1.421 0.873 Q0.931 0.768 0.620 0.984" stroke="hsl(0.0,100%,35%)" stroke-width="0.00111"></path>
<path d="M1.670 0.628 Q1.870 0.619 1.896 0.519" stroke="hsl(0.0,100%,35%)" stroke-width="0.01225"></path>
<path d="M1.670 0.628 Q1.350 0.701 1.421 0.873" stroke="hsl(0.0,100%,35%)" stroke-width="0.01781"></path>
<path d="M1.670 0.628 Q0.931 0.371 0.268 0.675" stroke="hsl(0.0,100%,35%)" stroke-width="0.00445"></path>
<path d="M1.670 0.628 Q1.655 0.519 1.439 0.502" stroke="hsl(0.0,100%,35%)" stroke-width="0.01002"></path>
<path d="M1.670 0.628 Q1.726 0.701 1.880 0.690" stroke="hsl(0.0,100%,35%)" stroke-width="0.00223"></path>
<path d="M1.670 0.628 Q1.483 0.412 1.021 0.455" stroke="hsl(0.0,100%,35%)" stroke-width="0.01113"></path>
<path d="M1.670 0.628 Q1.856 0.497 1.640 0.377" stroke="hsl(0.0,100%,35%)" stroke-width="0.00111"></path>
<path d="M1.670 0.628 Q1.642 0.440 1.269 0.412" stroke="hsl(0.0,100%,35%)" stroke-width="0.00111"></path>
<path d="M1.670 0.628 Q1.635 0.711 1.790 0.747" stroke="hsl(0.0,100%,35%)" stroke-width="0.00334"></path>
<path d="M1.670 0.628 Q0.860 0.596 0.620 0.984" stroke="hsl(0.0,100%,35%)" stroke-width="0.00111"></path>
<path d="M1.670 0.628 Q1.523 0.712 1.654 0.801" stroke="hsl(0.0,100%,35%)" stroke-width="0.00111"></path>
<path d="M0.337 0.948 Q0.697 0.865 0.616 0.672" stroke="hsl(0.0,100%,35%)" stroke-width="0.00668"></path>
<path d="M0.337 0.948 Q0.449 1.022 0.620 0.984" stroke="hsl(0.0,100%,35%)" stroke-width="0.01113"></path>
<path d="M0.337 0.948 Q1.259 1.054 1.670 0.628" stroke="hsl(0.0,100%,35%)" stroke-width="0.00111"></path>
<path d="M1.021 0.455 Q1.207 0.671 1.670 0.628" stroke="hsl(180.0,100%,35%)" stroke-width="0.02449"></path>
<path d="M1.021 0.455 Q1.408 0.662 1.896 0.519" stroke="hsl(180.0,100%,35%)" stroke-width="0.00111"></path>
<path d="M1.021 0.455 Q0.397 0.639 0.620 0.984" stroke="hsl(180.0,100%,35%)" stroke-width="0.00111"></path>
<path d="M1.021 0.455 Q1.182 0.336 0.985 0.231" stroke="hsl(180.0,100%,35%)" stroke-width="0.00668"></path>
<path d="M1.021 0.455 Q1.081 0.356 0.900 0.304" stroke="hsl(180.0,100%,35%)" stroke-width="0.00111"></path>
<path d="M1.021 0.455 Q0.920 0.471 0.929 0.524" stroke="hsl(180.0,100%,35%)" stroke-width="0.00111"></path>
<path d="M1.021 0.455 Q1.393 0.540 1.640 0.377" stroke="hsl(180.0,100%,35%)" stroke-width="0.00111"></path>
<path d="M1.021 0.455 Q0.469 0.415 0.268 0.675" stroke="hsl(180.0,100%,35%)" stroke-width="0.00111"></path>
<path d="M1.021 0.455 Q1.192 0.563 1.439 0.502" stroke="hsl(180.0,100%,35%)" stroke-width="0.00111"></path>
<path d="M1.021 0.455 Q1.225 0.427 1.215 0.321" stroke="hsl(180.0,100%,35%)" stroke-width="0.00223"></path>
<path d="M1.021 0.455 Q1.268 0.382 1.179 0.245" stroke="hsl(180.0,100%,35%)" stroke-width="0.00445"></path>
<path d="M1.021 0.455 Q1.061 0.310 0.786 0.259" stroke="hsl(180.0,100%,35%)" stroke-width="0.00111"></path>
<path d="M1.021 0.455 Q0.766 0.375 0.553 0.482" stroke="hsl(180.0,100%,35%)" stroke-width="0.00111"></path>
<path d="M1.439 0.502 Q1.654 0.602 1.896 0.519" stroke="hsl(0.0,100%,35%)" stroke-width="0.00445"></path>
<path d="M1.439 0.502 Q1.134 0.684 1.421 0.873" stroke="hsl(0.0,100%,35%)" stroke-width="0.00445"></path>
<path d="M1.439 0.502 Q1.454 0.611 1.670 0.628" stroke="hsl(0.0,100%,35%)" stroke-width="0.00445"></path>
<path d="M1.439 0.502 Q0.575 0.364 0.115 0.754" stroke="hsl(0.0,100%,35%)" stroke-width="0.00111"></path>
<path d="M1.439 0.502 Q0.644 0.579 0.620 0.984" stroke="hsl(0.0,100%,35%)" stroke-width="0.00223"></path>
<path d="M1.439 0.502 Q0.532 0.505 0.337 0.948" stroke="hsl(0.0,100%,35%)" stroke-width="0.00223"></path>
<path d="M0.620 0.984 Q1.429 1.016 1.670 0.628" stroke="hsl(0.0,100%,35%)" stroke-width="0.01002"></path>
<path d="M0.620 0.984 Q0.551 0.768 0.115 0.754" stroke="hsl(0.0,100%,35%)" stroke-width="0.00111"></path>
<path d="M0.620 0.984 Q0.691 0.759 0.268 0.675" stroke="hsl(0.0,100%,35%)" stroke-width="0.00223"></path>
<path d="M0.620 0.984 Q1.415 0.907 1.439 0.502" stroke="hsl(0.0,100%,35%)" stroke-width="0.01002"></path>
<path d="M0.620 0.984 Q1.630 1.006 1.896 0.519" stroke="hsl(0.0,100%,35%)" stroke-width="0.00445"></path>
<path d="M0.620 0.984 Q0.507 0.909 0.337 0.948" stroke="hsl(0.0,100%,35%)" stroke-width="0.01225"></path>
<path d="M0.620 0.984 Q1.109 1.088 1.421 0.873" stroke="hsl(0.0,100%,35%)" stroke-width="0.00111"></path>
<path d="M0.952 0.994 Q0.794 0.923 0.620 0.984" stroke="hsl(0.0,100%,35%)" stroke-width="0.00334"></path>
<path d="M0.952 0.994 Q1.604 0.955 1.670 0.628" stroke="hsl(0.0,100%,35%)" stroke-width="0.00111"></path>
<path d="M0.952 0.994 Q0.865 0.698 0.268 0.675" stroke="hsl(0.0,100%,35%)" stroke-width="0.00111"></path>
<path d="M0.268 0.675 Q0.234 0.720 0.315 0.747" stroke="hsl(0.0,100%,35%)" stroke-width="0.00668"></path>
<path d="M0.268 0.675 Q0.197 0.900 0.620 0.984" stroke="hsl(0.0,100%,35%)" stroke-width="0.00111"></path>
<path d="M0.268 0.675 Q0.085 0.825 0.337 0.948" stroke="hsl(0.0,100%,35%)" stroke-width="0.00557"></path>
<path d="M0.268 0.675 Q1.007 0.932 1.670 0.628" stroke="hsl(0.0,100%,35%)" stroke-width="0.00111"></path>
<path d="M0.268 0.675 Q0.820 0.716 1.021 0.455" stroke="hsl(0.0,100%,35%)" stroke-width="0.00111"></path>
<path d="M0.268 0.675 Q0.128 0.684 0.115 0.754" stroke="hsl(0.0,100%,35%)" stroke-width="0.00223"></path>
<path d="M0.268 0.675 Q0.992 0.823 1.439 0.502" stroke="hsl(0.0,100%,35%)" stroke-width="0.00111"></path>
<path d="M1.507 0.202 Q1.434 0.316 1.640 0.377" stroke="hsl(180.0,100%,35%)" stroke-width="0.00111"></path>
<path d="M1.507 0.202 Q1.248 0.448 1.670 0.628" stroke="hsl(180.0,100%,35%)" stroke-width="0.00111"></path>
<path d="M1.507 0.202 Q1.062 0.232 1.021 0.455" stroke="hsl(180.0,100%,35%)" stroke-width="0.00223"></path>
<path d="M1.507 0.202 Q1.220 0.260 1.269 0.412" stroke="hsl(180.0,100%,35%)" stroke-width="0.00223"></path>
<path d="M1.640 0.377 Q1.268 0.292 1.021 0.455" stroke="hsl(180.0,100%,35%)" stroke-width="0.00779"></path>
<path d="M1.640 0.377 Q1.426 0.320 1.269 0.412" stroke="hsl(180.0,100%,35%)" stroke-width="0.00557"></path>
<path d="M1.640 0.377 Q1.137 0.408 1.086 0.660" stroke="hsl(180.0,100%,35%)" stroke-width="0.00111"></path>
<path d="M0.799 0.821 Q0.579 0.867 0.620 0.984" stroke="hsl(0.0,100%,35%)" stroke-width="0.00111"></path>
<path d="M0.799 0.821 Q1.374 0.790 1.439 0.502" stroke="hsl(0.0,100%,35%)" stroke-width="0.00111"></path>
<path d="M0.799 0.821 Q1.389 0.899 1.670 0.628" stroke="hsl(0.0,100%,35%)" stroke-width="0.00111"></path>
<path d="M1.350 0.560 Q1.135 0.731 1.421 0.873" stroke="hsl(0.0,100%,35%)" stroke-width="0.01225"></path>
<path d="M1.350 0.560 Q1.455 0.658 1.670 0.628" stroke="hsl(0.0,100%,35%)" stroke-width="0.01670"></path>
<path d="M1.350 0.560 Q1.269 0.442 1.021 0.455" stroke="hsl(0.0,100%,35%)" stroke-width="0.00111"></path>
<path d="M0.985 0.231 Q0.823 0.350 1.021 0.455" stroke="hsl(180.0,100%,35%)" stroke-width="0.00445"></path>
<path d="M0.985 0.231 Q1.010 0.567 1.670 0.628" stroke="hsl(180.0,100%,35%)" stroke-width="0.00445"></path>
<path d="M0.985 0.231 Q1.070 0.277 1.179 0.245" stroke="hsl(180.0,100%,35%)" stroke-width="0.00445"></path>
<path d="M1.179 0.245 Q0.932 0.319 1.021 0.455" stroke="hsl(180.0,100%,35%)" stroke-width="0.00557"></path>
<path d="M1.179 0.245 Q1.118 0.535 1.670 0.628" stroke="hsl(180.0,100%,35%)" stroke-width="0.00223"></path>
<path d="M1.179 0.245 Q1.093 0.199 0.985 0.231" stroke="hsl(180.0,100%,35%)" stroke-width="0.00223"></path>
<path d="M1.639 0.448 Q1.711 0.535 1.896 0.519" stroke="hsl(0.0,100%,35%)" stroke-width="0.00111"></path>
<path d="M1.639 0.448 Q1.511 0.544 1.670 0.628" stroke="hsl(0.0,100%,35%)" stroke-width="0.00223"></path>
<path d="M1.639 0.448 Q0.772 0.287 0.268 0.675" stroke="hsl(0.0,100%,35%)" stroke-width="0.00111"></path>
<path d="M1.639 0.448 Q1.191 0.617 1.421 0.873" stroke="hsl(0.0,100%,35%)" stroke-width="0.00111"></path>
<path d="M1.639 0.448 Q1.496 0.435 1.439 0.502" stroke="hsl(0.0,100%,35%)" stroke-width="0.00111"></path>
<path d="M0.761 0.449 Q0.885 0.504 1.021 0.455" stroke="hsl(180.0,100%,35%)" stroke-width="0.00111"></path>
<path d="M0.761 0.449 Q1.132 0.431 1.179 0.245" stroke="hsl(180.0,100%,35%)" stroke-width="0.00111"></path>
<path d="M0.761 0.449 Q1.072 0.720 1.670 0.628" stroke="hsl(180.0,100%,35%)" stroke-width="0.00111"></path>
<path d="M1.790 0.747 Q1.505 0.736 1.421 0.873" stroke="hsl(0.0,100%,35%)" stroke-width="0.01002"></path>
<path d="M1.790 0.747 Q1.825 0.663 1.670 0.628" stroke="hsl(0.0,100%,35%)" stroke-width="0.01893"></path>
<path d="M1.790 0.747 Q1.015 0.631 0.620 0.984" stroke="hsl(0.0,100%,35%)" stroke-width="0.00111"></path>
<path d="M1.790 0.747 Q1.881 0.736 1.880 0.690" stroke="hsl(0.0,100%,35%)" stroke-width="0.00111"></path>
<path d="M1.790 0.747 Q2.025 0.654 1.896 0.519" stroke="hsl(0.0,100%,35%)" stroke-width="0.00223"></path>
<path d="M1.880 0.690 Q1.824 0.617 1.670 0.628" stroke="hsl(0.0,100%,35%)" stroke-width="0.00891"></path>
<path d="M1.880 0.690 Q1.810 0.508 1.439 0.502" stroke="hsl(0.0,100%,35%)" stroke-width="0.00111"></path>
<path d="M1.880 0.690 Q1.504 0.689 1.421 0.873" stroke="hsl(0.0,100%,35%)" stroke-width="0.00334"></path>
<path d="M0.893 0.713 Q1.536 0.695 1.640 0.377" stroke="hsl(180.0,100%,35%)" stroke-width="0.00223"></path>
<path d="M0.893 0.713 Q1.322 0.638 1.269 0.412" stroke="hsl(180.0,100%,35%)" stroke-width="0.00223"></path>
<path d="M0.893 0.713 Q1.350 0.826 1.670 0.628" stroke="hsl(180.0,100%,35%)" stroke-width="0.00111"></path>
<path d="M0.893 0.713 Q1.163 0.610 1.021 0.455" stroke="hsl(180.0,100%,35%)" stroke-width="0.01559"></path>
<path d="M0.893 0.713 Q1.032 0.725 1.086 0.660" stroke="hsl(180.0,100%,35%)" stroke-width="0.01002"></path>
<path d="M1.086 0.660 Q1.403 0.761 1.670 0.628" stroke="hsl(180.0,100%,35%)" stroke-width="0.02004"></path>
<path d="M1.086 0.660 Q1.217 0.544 1.021 0.455" stroke="hsl(180.0,100%,35%)" stroke-width="0.04564"></path>
<path d="M1.086 0.660 Q1.375 0.573 1.269 0.412" stroke="hsl(180.0,100%,35%)" stroke-width="0.01002"></path>
<path d="M1.086 0.660 Q1.589 0.629 1.640 0.377" stroke="hsl(180.0,100%,35%)" stroke-width="0.00223"></path>
<path d="M1.086 0.660 Q0.946 0.648 0.893 0.713" stroke="hsl(180.0,100%,35%)" stroke-width="0.02449"></path>
<path d="M1.654 0.801 Q1.772 0.530 1.269 0.412" stroke="hsl(0.0,100%,35%)" stroke-width="0.00111"></path>
<path d="M1.654 0.801 Q1.800 0.718 1.670 0.628" stroke="hsl(0.0,100%,35%)" stroke-width="0.00223"></path>
<path d="M1.654 0.801 Q2.001 0.708 1.896 0.519" stroke="hsl(0.0,100%,35%)" stroke-width="0.00111"></path>
</g>
<text x="1.896" y="0.496" font-size="0.044894" fill="hsl(0.0,100%,20%)">abdolrashidi</text>
<text x="1.421" y="0.840" font-size="0.064399" fill="hsl(0.0,100%,20%)">cclao</text>
<text x="1.670" y="0.583" font-size="0.089139" fill="hsl(0.0,100%,20%)">syoussefi</text>
<text x="0.337" y="0.929" font-size="0.037354" fill="hsl(0.0,100%,20%)">cnorthrop</text>
<text x="1.021" y="0.420" font-size="0.071257" fill="hsl(180.0,100%,20%)">geofflang</text>
<text x="1.439" y="0.478" font-size="0.048224" fill="hsl(0.0,100%,20%)">yuxinhu</text>
<text x="1.404" y="0.349" font-size="0.006226" fill="hsl(0.0,100%,20%)">gregschlom</text>
<text x="1.667" y="0.451" font-size="0.006226" fill="hsl(0.0,100%,20%)">slumpwuffle</text>
<text x="0.620" y="0.960" font-size="0.047414" fill="hsl(0.0,100%,20%)">romanl</text>
<text x="0.616" y="0.664" font-size="0.015250" fill="hsl(0.0,100%,20%)">mark</text>
<text x="0.952" y="0.987" font-size="0.013921" fill="hsl(0.0,100%,20%)">dextero</text>
<text x="0.268" y="0.659" font-size="0.031745" fill="hsl(0.0,100%,20%)">ynovikov</text>
<text x="1.507" y="0.195" font-size="0.015250" fill="hsl(180.0,100%,20%)">djg</text>
<text x="1.640" y="0.363" font-size="0.027842" fill="hsl(180.0,100%,20%)">lehoangquyen</text>
<text x="1.269" y="0.398" font-size="0.027842" fill="hsl(180.0,100%,20%)">kbr</text>
<text x="0.799" y="0.816" font-size="0.010783" fill="hsl(0.0,100%,20%)">dloehr</text>
<text x="1.350" y="0.544" font-size="0.032350" fill="hsl(0.0,100%,20%)">g.tammana</text>
<text x="0.985" y="0.217" font-size="0.027842" fill="hsl(180.0,100%,20%)">liza</text>
<text x="0.900" y="0.301" font-size="0.006226" fill="hsl(180.0,100%,20%)">johnstiles</text>
<text x="0.929" y="0.521" font-size="0.006226" fill="hsl(180.0,100%,20%)">vasilyt</text>
<text x="1.215" y="0.317" font-size="0.008805" fill="hsl(180.0,100%,20%)">zmo</text>
<text x="1.179" y="0.232" font-size="0.026414" fill="hsl(180.0,100%,20%)">mpdenton</text>
<text x="0.786" y="0.256" font-size="0.006226" fill="hsl(180.0,100%,20%)">dsinclair</text>
<text x="0.553" y="0.479" font-size="0.006226" fill="hsl(180.0,100%,20%)">cwallez</text>
<text x="1.639" y="0.441" font-size="0.015250" fill="hsl(0.0,100%,20%)">hailinzhang</text>
<text x="0.761" y="0.443" font-size="0.010783" fill="hsl(180.0,100%,20%)">hocheung</text>
<text x="1.790" y="0.729" font-size="0.035764" fill="hsl(0.0,100%,20%)">i.nazarov</text>
<text x="1.880" y="0.678" font-size="0.024112" fill="hsl(0.0,100%,20%)">m.maiya</text>
<text x="0.893" y="0.691" font-size="0.044023" fill="hsl(180.0,100%,20%)">kkinnunen</text>
<text x="1.086" y="0.628" font-size="0.062877" fill="hsl(180.0,100%,20%)">lexa.knyazev</text>
<text x="0.115" y="0.748" font-size="0.012451" fill="hsl(0.0,100%,20%)">solti</text>
<text x="1.654" y="0.794" font-size="0.013921" fill="hsl(0.0,100%,20%)">steven</text>
<text x="0.315" y="0.739" font-size="0.015250" fill="hsl(0.0,100%,20%)">bsheedy</text>
</svg>
