<svg width="4000" height="2000" viewBox="-0.025 -0.025 2.05 1.05" xmlns="http://www.w3.org/2000/svg">
  <style>
    path {
      fill: none;
      stroke-linecap: round;
      stroke-opacity: 0.4;
    }

    text {
      text-anchor: middle;
      alignment-baseline: hanging;
    }
  </style>
  <g opacity="0.4">
<path d="M0.564 0.941 Q1.288 0.754 1.082 0.360" stroke="hsl(0.0,100%,35%)" stroke-width="0.00342"></path>
<path d="M0.564 0.941 Q0.866 0.923 0.897 0.772" stroke="hsl(0.0,100%,35%)" stroke-width="0.02054"></path>
<path d="M0.564 0.941 Q0.581 0.849 0.406 0.821" stroke="hsl(0.0,100%,35%)" stroke-width="0.02739"></path>
<path d="M0.564 0.941 Q1.499 0.687 1.208 0.175" stroke="hsl(0.0,100%,35%)" stroke-width="0.00685"></path>
<path d="M0.897 0.772 Q0.613 0.698 0.406 0.821" stroke="hsl(0.0,100%,35%)" stroke-width="0.01369"></path>
<path d="M0.897 0.772 Q0.730 0.629 0.415 0.679" stroke="hsl(0.0,100%,35%)" stroke-width="0.01369"></path>
<path d="M0.897 0.772 Q0.596 0.790 0.564 0.941" stroke="hsl(0.0,100%,35%)" stroke-width="0.00685"></path>
<path d="M0.897 0.772 Q1.294 0.693 1.227 0.481" stroke="hsl(0.0,100%,35%)" stroke-width="0.00342"></path>
<path d="M0.406 0.821 Q0.690 0.895 0.897 0.772" stroke="hsl(0.0,100%,35%)" stroke-width="0.01369"></path>
<path d="M0.406 0.821 Q0.810 0.830 0.917 0.635" stroke="hsl(0.0,100%,35%)" stroke-width="0.00342"></path>
<path d="M0.406 0.821 Q0.524 0.752 0.415 0.679" stroke="hsl(0.0,100%,35%)" stroke-width="0.02054"></path>
<path d="M0.406 0.821 Q1.323 0.658 1.208 0.175" stroke="hsl(0.0,100%,35%)" stroke-width="0.01369"></path>
<path d="M0.406 0.821 Q1.088 0.815 1.227 0.481" stroke="hsl(0.0,100%,35%)" stroke-width="0.00342"></path>
<path d="M0.406 0.821 Q0.475 0.871 0.590 0.849" stroke="hsl(0.0,100%,35%)" stroke-width="0.00342"></path>
<path d="M0.406 0.821 Q0.944 0.574 0.580 0.257" stroke="hsl(0.0,100%,35%)" stroke-width="0.00342"></path>
<path d="M0.406 0.821 Q0.389 0.913 0.564 0.941" stroke="hsl(0.0,100%,35%)" stroke-width="0.00342"></path>
<path d="M0.406 0.821 Q0.570 0.882 0.726 0.815" stroke="hsl(0.0,100%,35%)" stroke-width="0.00342"></path>
<path d="M1.208 0.175 Q0.291 0.338 0.406 0.821" stroke="hsl(180.0,100%,35%)" stroke-width="0.01027"></path>
<path d="M1.208 0.175 Q0.682 0.108 0.434 0.350" stroke="hsl(180.0,100%,35%)" stroke-width="0.00342"></path>
<path d="M1.208 0.175 Q0.925 0.015 0.550 0.118" stroke="hsl(180.0,100%,35%)" stroke-width="0.00685"></path>
<path d="M1.208 0.175 Q1.310 0.401 1.773 0.401" stroke="hsl(180.0,100%,35%)" stroke-width="0.00342"></path>
<path d="M1.208 0.175 Q1.484 0.358 1.902 0.264" stroke="hsl(180.0,100%,35%)" stroke-width="0.00342"></path>
<path d="M0.415 0.679 Q1.004 0.653 1.082 0.360" stroke="hsl(0.0,100%,35%)" stroke-width="0.00685"></path>
<path d="M0.415 0.679 Q0.280 0.840 0.564 0.941" stroke="hsl(0.0,100%,35%)" stroke-width="0.00342"></path>
<path d="M0.415 0.679 Q0.581 0.822 0.897 0.772" stroke="hsl(0.0,100%,35%)" stroke-width="0.00342"></path>
<path d="M0.415 0.679 Q0.297 0.748 0.406 0.821" stroke="hsl(0.0,100%,35%)" stroke-width="0.00342"></path>
<path d="M1.227 0.481 Q1.252 0.392 1.082 0.360" stroke="hsl(0.0,100%,35%)" stroke-width="0.03081"></path>
<path d="M1.227 0.481 Q0.663 0.418 0.415 0.679" stroke="hsl(0.0,100%,35%)" stroke-width="0.01369"></path>
<path d="M1.227 0.481 Q1.083 0.240 0.580 0.257" stroke="hsl(0.0,100%,35%)" stroke-width="0.00342"></path>
<path d="M1.227 0.481 Q0.545 0.487 0.406 0.821" stroke="hsl(0.0,100%,35%)" stroke-width="0.00342"></path>
<path d="M1.227 0.481 Q0.829 0.561 0.897 0.772" stroke="hsl(0.0,100%,35%)" stroke-width="0.00342"></path>
<path d="M0.175 0.424 Q-0.027 0.669 0.406 0.821" stroke="hsl(180.0,100%,35%)" stroke-width="0.00342"></path>
<path d="M0.175 0.424 Q0.890 0.507 1.208 0.175" stroke="hsl(180.0,100%,35%)" stroke-width="0.00685"></path>
<path d="M0.175 0.424 Q0.042 0.501 0.163 0.583" stroke="hsl(180.0,100%,35%)" stroke-width="0.00685"></path>
<path d="M0.434 0.350 Q0.961 0.417 1.208 0.175" stroke="hsl(180.0,100%,35%)" stroke-width="0.00685"></path>
<path d="M0.434 0.350 Q0.678 0.257 0.550 0.118" stroke="hsl(180.0,100%,35%)" stroke-width="0.00685"></path>
<path d="M0.434 0.350 Q0.043 0.580 0.406 0.821" stroke="hsl(180.0,100%,35%)" stroke-width="0.00342"></path>
<path d="M0.550 0.118 Q0.833 0.278 1.208 0.175" stroke="hsl(180.0,100%,35%)" stroke-width="0.01369"></path>
<path d="M0.550 0.118 Q-0.084 0.441 0.406 0.821" stroke="hsl(180.0,100%,35%)" stroke-width="0.00342"></path>
<path d="M0.550 0.118 Q0.307 0.211 0.434 0.350" stroke="hsl(180.0,100%,35%)" stroke-width="0.00685"></path>
<path d="M0.761 0.492 Q0.605 0.659 0.897 0.772" stroke="hsl(0.0,100%,35%)" stroke-width="0.00342"></path>
<path d="M0.761 0.492 Q0.439 0.516 0.415 0.679" stroke="hsl(0.0,100%,35%)" stroke-width="0.00342"></path>
<path d="M0.761 0.492 Q0.321 0.585 0.406 0.821" stroke="hsl(0.0,100%,35%)" stroke-width="0.00342"></path>
<path d="M0.917 0.635 Q0.798 0.700 0.897 0.772" stroke="hsl(0.0,100%,35%)" stroke-width="0.01712"></path>
<path d="M0.917 0.635 Q0.513 0.626 0.406 0.821" stroke="hsl(0.0,100%,35%)" stroke-width="0.02397"></path>
<path d="M0.917 0.635 Q0.496 0.718 0.564 0.941" stroke="hsl(0.0,100%,35%)" stroke-width="0.00685"></path>
<path d="M1.364 0.324 Q1.405 0.218 1.208 0.175" stroke="hsl(180.0,100%,35%)" stroke-width="0.05478"></path>
<path d="M1.364 0.324 Q1.347 0.110 0.927 0.072" stroke="hsl(180.0,100%,35%)" stroke-width="0.00342"></path>
<path d="M1.364 0.324 Q0.487 0.381 0.406 0.821" stroke="hsl(180.0,100%,35%)" stroke-width="0.02054"></path>
<path d="M0.580 0.257 Q0.386 0.204 0.241 0.287" stroke="hsl(0.0,100%,35%)" stroke-width="0.00342"></path>
<path d="M0.580 0.257 Q0.539 0.337 0.687 0.375" stroke="hsl(0.0,100%,35%)" stroke-width="0.00342"></path>
<path d="M0.580 0.257 Q0.749 0.409 1.082 0.360" stroke="hsl(0.0,100%,35%)" stroke-width="0.00342"></path>
</g>
<text x="0.564" y="0.912" font-size="0.057945" fill="hsl(0.0,100%,20%)">abdolrashidi</text>
<text x="1.082" y="0.338" font-size="0.043564" fill="hsl(0.0,100%,20%)">cnorthrop</text>
<text x="0.897" y="0.740" font-size="0.065066" fill="hsl(0.0,100%,20%)">cclao</text>
<text x="0.406" y="0.776" font-size="0.088787" fill="hsl(0.0,100%,20%)">syoussefi</text>
<text x="1.208" y="0.138" font-size="0.074481" fill="hsl(180.0,100%,20%)">geofflang</text>
<text x="0.415" y="0.652" font-size="0.054034" fill="hsl(0.0,100%,20%)">yuxinhu</text>
<text x="1.227" y="0.456" font-size="0.051261" fill="hsl(0.0,100%,20%)">romanl</text>
<text x="0.175" y="0.411" font-size="0.027017" fill="hsl(180.0,100%,20%)">djg</text>
<text x="0.163" y="0.575" font-size="0.017087" fill="hsl(180.0,100%,20%)">kbr</text>
<text x="0.434" y="0.333" font-size="0.034174" fill="hsl(180.0,100%,20%)">liza</text>
<text x="0.550" y="0.098" font-size="0.040073" fill="hsl(180.0,100%,20%)">mpdenton</text>
<text x="1.773" y="0.395" font-size="0.012082" fill="hsl(180.0,100%,20%)">dsinclair</text>
<text x="1.902" y="0.258" font-size="0.012082" fill="hsl(180.0,100%,20%)">cwallez</text>
<text x="0.761" y="0.482" font-size="0.020927" fill="hsl(0.0,100%,20%)">hailinzhang</text>
<text x="0.917" y="0.612" font-size="0.046795" fill="hsl(0.0,100%,20%)">i.nazarov</text>
<text x="1.364" y="0.295" font-size="0.057945" fill="hsl(180.0,100%,20%)">lexa.knyazev</text>
<text x="0.927" y="0.066" font-size="0.012082" fill="hsl(180.0,100%,20%)">kkinnunen</text>
<text x="0.580" y="0.243" font-size="0.027017" fill="hsl(0.0,100%,20%)">ynovikov</text>
<text x="0.590" y="0.843" font-size="0.012082" fill="hsl(0.0,100%,20%)">steven</text>
<text x="0.726" y="0.809" font-size="0.012082" fill="hsl(0.0,100%,20%)">m.maiya</text>
<text x="0.241" y="0.281" font-size="0.012082" fill="hsl(0.0,100%,20%)">solti</text>
<text x="0.687" y="0.369" font-size="0.012082" fill="hsl(0.0,100%,20%)">bsheedy</text>
</svg>
