<svg width="4000" height="2000" viewBox="-0.025 -0.025 2.05 1.05" xmlns="http://www.w3.org/2000/svg">
  <style>
    path {
      fill: none;
      stroke-linecap: round;
      stroke-opacity: 0.4;
    }

    text {
      text-anchor: middle;
      alignment-baseline: hanging;
    }
  </style>
  <g opacity="0.4">
<path d="M0.979 0.212 Q0.584 0.209 0.492 0.402" stroke="hsl(0.0,100%,35%)" stroke-width="0.00302"></path>
<path d="M0.979 0.212 Q0.403 0.188 0.230 0.464" stroke="hsl(0.0,100%,35%)" stroke-width="0.00060"></path>
<path d="M0.979 0.212 Q0.225 0.416 0.457 0.829" stroke="hsl(0.0,100%,35%)" stroke-width="0.00030"></path>
<path d="M0.979 0.212 Q1.059 0.224 1.101 0.188" stroke="hsl(0.0,100%,35%)" stroke-width="0.00181"></path>
<path d="M0.492 0.402 Q0.541 0.532 0.805 0.536" stroke="hsl(0.0,100%,35%)" stroke-width="0.02050"></path>
<path d="M0.492 0.402 Q0.968 0.417 1.101 0.188" stroke="hsl(0.0,100%,35%)" stroke-width="0.01266"></path>
<path d="M0.492 0.402 Q0.410 0.550 0.681 0.622" stroke="hsl(0.0,100%,35%)" stroke-width="0.00060"></path>
<path d="M0.492 0.402 Q0.685 0.332 0.591 0.223" stroke="hsl(0.0,100%,35%)" stroke-width="0.00090"></path>
<path d="M0.492 0.402 Q0.502 0.316 0.337 0.293" stroke="hsl(0.0,100%,35%)" stroke-width="0.03256"></path>
<path d="M0.492 0.402 Q0.189 0.722 0.748 0.940" stroke="hsl(0.0,100%,35%)" stroke-width="0.01719"></path>
<path d="M0.492 0.402 Q0.440 0.482 0.584 0.524" stroke="hsl(0.0,100%,35%)" stroke-width="0.01749"></path>
<path d="M0.492 0.402 Q0.312 0.380 0.230 0.464" stroke="hsl(0.0,100%,35%)" stroke-width="0.01357"></path>
<path d="M0.492 0.402 Q0.403 0.652 0.873 0.750" stroke="hsl(0.0,100%,35%)" stroke-width="0.00241"></path>
<path d="M0.492 0.402 Q0.133 0.608 0.457 0.829" stroke="hsl(0.0,100%,35%)" stroke-width="0.02503"></path>
<path d="M0.492 0.402 Q0.319 0.458 0.391 0.555" stroke="hsl(0.0,100%,35%)" stroke-width="0.00814"></path>
<path d="M0.492 0.402 Q0.674 0.356 0.625 0.258" stroke="hsl(0.0,100%,35%)" stroke-width="0.00754"></path>
<path d="M0.492 0.402 Q0.241 0.368 0.120 0.483" stroke="hsl(0.0,100%,35%)" stroke-width="0.00181"></path>
<path d="M0.492 0.402 Q0.619 0.383 0.610 0.317" stroke="hsl(0.0,100%,35%)" stroke-width="0.00151"></path>
<path d="M0.492 0.402 Q0.150 0.479 0.227 0.663" stroke="hsl(0.0,100%,35%)" stroke-width="0.00030"></path>
<path d="M0.492 0.402 Q1.069 0.600 1.584 0.362" stroke="hsl(0.0,100%,35%)" stroke-width="0.00121"></path>
<path d="M0.492 0.402 Q0.919 0.299 0.812 0.068" stroke="hsl(0.0,100%,35%)" stroke-width="0.00030"></path>
<path d="M0.492 0.402 Q0.380 0.462 0.471 0.529" stroke="hsl(0.0,100%,35%)" stroke-width="0.00090"></path>
<path d="M0.492 0.402 Q0.887 0.404 0.979 0.212" stroke="hsl(0.0,100%,35%)" stroke-width="0.00030"></path>
<path d="M0.492 0.402 Q0.901 0.401 0.990 0.201" stroke="hsl(0.0,100%,35%)" stroke-width="0.00030"></path>
<path d="M0.492 0.402 Q0.389 0.488 0.535 0.558" stroke="hsl(0.0,100%,35%)" stroke-width="0.00030"></path>
<path d="M0.492 0.402 Q1.267 0.451 1.532 0.083" stroke="hsl(0.0,100%,35%)" stroke-width="0.00030"></path>
<path d="M0.492 0.402 Q0.699 0.553 1.038 0.485" stroke="hsl(0.0,100%,35%)" stroke-width="0.00030"></path>
<path d="M0.230 0.464 Q0.411 0.485 0.492 0.402" stroke="hsl(0.0,100%,35%)" stroke-width="0.03467"></path>
<path d="M0.230 0.464 Q0.052 0.692 0.457 0.829" stroke="hsl(0.0,100%,35%)" stroke-width="0.02080"></path>
<path d="M0.230 0.464 Q0.108 0.805 0.748 0.940" stroke="hsl(0.0,100%,35%)" stroke-width="0.00302"></path>
<path d="M0.230 0.464 Q0.237 0.542 0.391 0.555" stroke="hsl(0.0,100%,35%)" stroke-width="0.00332"></path>
<path d="M0.230 0.464 Q0.322 0.736 0.873 0.750" stroke="hsl(0.0,100%,35%)" stroke-width="0.00211"></path>
<path d="M0.230 0.464 Q0.105 0.617 0.376 0.711" stroke="hsl(0.0,100%,35%)" stroke-width="0.00090"></path>
<path d="M0.230 0.464 Q0.359 0.565 0.584 0.524" stroke="hsl(0.0,100%,35%)" stroke-width="0.00784"></path>
<path d="M0.230 0.464 Q0.886 0.500 1.101 0.188" stroke="hsl(0.0,100%,35%)" stroke-width="0.00181"></path>
<path d="M0.230 0.464 Q0.397 0.591 0.681 0.537" stroke="hsl(0.0,100%,35%)" stroke-width="0.00030"></path>
<path d="M0.230 0.464 Q0.459 0.615 0.805 0.536" stroke="hsl(0.0,100%,35%)" stroke-width="0.00181"></path>
<path d="M0.230 0.464 Q0.298 0.545 0.471 0.529" stroke="hsl(0.0,100%,35%)" stroke-width="0.00090"></path>
<path d="M0.230 0.464 Q0.988 0.684 1.584 0.362" stroke="hsl(0.0,100%,35%)" stroke-width="0.00060"></path>
<path d="M0.230 0.464 Q0.160 0.451 0.120 0.483" stroke="hsl(0.0,100%,35%)" stroke-width="0.00151"></path>
<path d="M0.230 0.464 Q0.069 0.563 0.227 0.663" stroke="hsl(0.0,100%,35%)" stroke-width="0.00030"></path>
<path d="M0.230 0.464 Q0.593 0.440 0.625 0.258" stroke="hsl(0.0,100%,35%)" stroke-width="0.00211"></path>
<path d="M0.230 0.464 Q0.420 0.400 0.337 0.293" stroke="hsl(0.0,100%,35%)" stroke-width="0.00603"></path>
<path d="M0.230 0.464 Q0.537 0.466 0.610 0.317" stroke="hsl(0.0,100%,35%)" stroke-width="0.00060"></path>
<path d="M0.230 0.464 Q0.806 0.488 0.979 0.212" stroke="hsl(0.0,100%,35%)" stroke-width="0.00030"></path>
<path d="M0.230 0.464 Q0.142 0.530 0.251 0.587" stroke="hsl(0.0,100%,35%)" stroke-width="0.00151"></path>
<path d="M0.230 0.464 Q0.180 0.476 0.192 0.503" stroke="hsl(0.0,100%,35%)" stroke-width="0.00030"></path>
<path d="M0.230 0.464 Q0.729 0.643 1.188 0.439" stroke="hsl(0.0,100%,35%)" stroke-width="0.00030"></path>
<path d="M0.230 0.464 Q0.063 0.504 0.104 0.594" stroke="hsl(0.0,100%,35%)" stroke-width="0.00030"></path>
<path d="M0.230 0.464 Q0.521 0.356 0.376 0.191" stroke="hsl(0.0,100%,35%)" stroke-width="0.00030"></path>
<path d="M0.230 0.464 Q0.205 0.473 0.218 0.488" stroke="hsl(0.0,100%,35%)" stroke-width="0.00030"></path>
<path d="M0.457 0.829 Q0.514 0.943 0.748 0.940" stroke="hsl(0.0,100%,35%)" stroke-width="0.00935"></path>
<path d="M0.457 0.829 Q0.816 0.622 0.492 0.402" stroke="hsl(0.0,100%,35%)" stroke-width="0.01719"></path>
<path d="M0.457 0.829 Q0.643 0.679 0.391 0.555" stroke="hsl(0.0,100%,35%)" stroke-width="0.00513"></path>
<path d="M0.457 0.829 Q0.727 0.873 0.873 0.750" stroke="hsl(0.0,100%,35%)" stroke-width="0.00060"></path>
<path d="M0.457 0.829 Q0.636 0.601 0.230 0.464" stroke="hsl(0.0,100%,35%)" stroke-width="0.00663"></path>
<path d="M0.457 0.829 Q1.292 0.637 1.101 0.188" stroke="hsl(0.0,100%,35%)" stroke-width="0.00452"></path>
<path d="M0.457 0.829 Q0.865 0.752 0.805 0.536" stroke="hsl(0.0,100%,35%)" stroke-width="0.00030"></path>
<path d="M0.457 0.829 Q0.998 0.577 0.625 0.258" stroke="hsl(0.0,100%,35%)" stroke-width="0.00151"></path>
<path d="M0.457 0.829 Q1.209 0.686 1.096 0.288" stroke="hsl(0.0,100%,35%)" stroke-width="0.00030"></path>
<path d="M0.457 0.829 Q0.826 0.537 0.337 0.293" stroke="hsl(0.0,100%,35%)" stroke-width="0.00151"></path>
<path d="M1.101 0.188 Q0.626 0.173 0.492 0.402" stroke="hsl(0.0,100%,35%)" stroke-width="0.00905"></path>
<path d="M1.101 0.188 Q0.445 0.152 0.230 0.464" stroke="hsl(0.0,100%,35%)" stroke-width="0.00060"></path>
<path d="M1.101 0.188 Q0.323 0.493 0.748 0.940" stroke="hsl(0.0,100%,35%)" stroke-width="0.00181"></path>
<path d="M1.101 0.188 Q0.267 0.379 0.457 0.829" stroke="hsl(0.0,100%,35%)" stroke-width="0.00814"></path>
<path d="M1.101 0.188 Q0.574 0.253 0.584 0.524" stroke="hsl(0.0,100%,35%)" stroke-width="0.00633"></path>
<path d="M1.101 0.188 Q0.944 0.331 1.188 0.439" stroke="hsl(0.0,100%,35%)" stroke-width="0.00060"></path>
<path d="M1.101 0.188 Q1.330 0.190 1.384 0.079" stroke="hsl(0.0,100%,35%)" stroke-width="0.00030"></path>
<path d="M1.101 0.188 Q0.734 0.439 1.143 0.673" stroke="hsl(0.0,100%,35%)" stroke-width="0.00060"></path>
<path d="M1.101 0.188 Q0.635 0.088 0.337 0.293" stroke="hsl(0.0,100%,35%)" stroke-width="0.00030"></path>
<path d="M1.101 0.188 Q0.681 0.312 0.831 0.545" stroke="hsl(0.0,100%,35%)" stroke-width="0.00030"></path>
<path d="M1.101 0.188 Q1.291 0.303 1.558 0.236" stroke="hsl(0.0,100%,35%)" stroke-width="0.00060"></path>
<path d="M1.101 0.188 Q0.674 0.303 0.805 0.536" stroke="hsl(0.0,100%,35%)" stroke-width="0.00030"></path>
<path d="M1.101 0.188 Q1.035 0.172 0.990 0.201" stroke="hsl(0.0,100%,35%)" stroke-width="0.00030"></path>
<path d="M1.101 0.188 Q1.219 0.276 1.417 0.238" stroke="hsl(0.0,100%,35%)" stroke-width="0.00030"></path>
<path d="M0.137 0.511 Q0.401 0.527 0.492 0.402" stroke="hsl(0.0,100%,35%)" stroke-width="0.00181"></path>
<path d="M0.137 0.511 Q0.221 0.506 0.230 0.464" stroke="hsl(0.0,100%,35%)" stroke-width="0.00151"></path>
<path d="M0.137 0.511 Q0.313 0.778 0.873 0.750" stroke="hsl(0.0,100%,35%)" stroke-width="0.00030"></path>
<path d="M0.137 0.511 Q0.583 0.482 0.625 0.258" stroke="hsl(0.0,100%,35%)" stroke-width="0.00030"></path>
<path d="M0.137 0.511 Q0.877 0.542 1.101 0.188" stroke="hsl(0.0,100%,35%)" stroke-width="0.00060"></path>
<path d="M0.873 0.750 Q0.659 0.820 0.748 0.940" stroke="hsl(0.0,100%,35%)" stroke-width="0.00754"></path>
<path d="M0.873 0.750 Q0.961 0.500 0.492 0.402" stroke="hsl(0.0,100%,35%)" stroke-width="0.00663"></path>
<path d="M0.873 0.750 Q0.781 0.479 0.230 0.464" stroke="hsl(0.0,100%,35%)" stroke-width="0.00693"></path>
<path d="M0.873 0.750 Q0.602 0.706 0.457 0.829" stroke="hsl(0.0,100%,35%)" stroke-width="0.00211"></path>
<path d="M0.873 0.750 Q0.788 0.557 0.391 0.555" stroke="hsl(0.0,100%,35%)" stroke-width="0.00241"></path>
<path d="M0.873 0.750 Q0.971 0.415 0.337 0.293" stroke="hsl(0.0,100%,35%)" stroke-width="0.00452"></path>
<path d="M0.873 0.750 Q1.143 0.455 0.625 0.258" stroke="hsl(0.0,100%,35%)" stroke-width="0.00090"></path>
<path d="M0.873 0.750 Q1.437 0.515 1.101 0.188" stroke="hsl(0.0,100%,35%)" stroke-width="0.00151"></path>
<path d="M0.873 0.750 Q1.010 0.630 0.805 0.536" stroke="hsl(0.0,100%,35%)" stroke-width="0.00030"></path>
<path d="M0.625 0.258 Q0.141 0.623 0.748 0.940" stroke="hsl(0.0,100%,35%)" stroke-width="0.00633"></path>
<path d="M0.625 0.258 Q0.919 0.318 1.101 0.188" stroke="hsl(0.0,100%,35%)" stroke-width="0.00060"></path>
<path d="M0.625 0.258 Q0.085 0.510 0.457 0.829" stroke="hsl(0.0,100%,35%)" stroke-width="0.00422"></path>
<path d="M0.625 0.258 Q0.443 0.303 0.492 0.402" stroke="hsl(0.0,100%,35%)" stroke-width="0.01266"></path>
<path d="M0.625 0.258 Q0.263 0.282 0.230 0.464" stroke="hsl(0.0,100%,35%)" stroke-width="0.00241"></path>
<path d="M0.625 0.258 Q0.453 0.218 0.337 0.293" stroke="hsl(0.0,100%,35%)" stroke-width="0.00090"></path>
<path d="M0.625 0.258 Q0.193 0.269 0.120 0.483" stroke="hsl(0.0,100%,35%)" stroke-width="0.00060"></path>
<path d="M0.625 0.258 Q0.270 0.360 0.391 0.555" stroke="hsl(0.0,100%,35%)" stroke-width="0.00302"></path>
<path d="M0.625 0.258 Q0.355 0.554 0.873 0.750" stroke="hsl(0.0,100%,35%)" stroke-width="0.00090"></path>
<path d="M0.625 0.258 Q0.492 0.433 0.805 0.536" stroke="hsl(0.0,100%,35%)" stroke-width="0.00030"></path>
<path d="M0.625 0.258 Q0.392 0.383 0.584 0.524" stroke="hsl(0.0,100%,35%)" stroke-width="0.00060"></path>
<path d="M0.625 0.258 Q0.761 0.461 1.188 0.439" stroke="hsl(0.0,100%,35%)" stroke-width="0.00030"></path>
<path d="M0.053 0.531 Q0.431 0.693 0.831 0.545" stroke="hsl(0.0,100%,35%)" stroke-width="0.00060"></path>
<path d="M0.053 0.531 Q0.195 0.533 0.230 0.464" stroke="hsl(0.0,100%,35%)" stroke-width="0.00060"></path>
<path d="M0.053 0.531 Q0.851 0.569 1.101 0.188" stroke="hsl(0.0,100%,35%)" stroke-width="0.00030"></path>
<path d="M0.831 0.545 Q0.776 0.406 0.492 0.402" stroke="hsl(0.0,100%,35%)" stroke-width="0.00181"></path>
<path d="M0.831 0.545 Q0.417 0.612 0.457 0.829" stroke="hsl(0.0,100%,35%)" stroke-width="0.00060"></path>
<path d="M0.831 0.545 Q1.252 0.421 1.101 0.188" stroke="hsl(0.0,100%,35%)" stroke-width="0.00090"></path>
<path d="M0.192 0.503 Q0.423 0.512 0.492 0.402" stroke="hsl(0.0,100%,35%)" stroke-width="0.00452"></path>
<path d="M0.192 0.503 Q0.243 0.491 0.230 0.464" stroke="hsl(0.0,100%,35%)" stroke-width="0.00241"></path>
<path d="M0.192 0.503 Q0.250 0.569 0.391 0.555" stroke="hsl(0.0,100%,35%)" stroke-width="0.00060"></path>
<path d="M0.192 0.503 Q0.064 0.719 0.457 0.829" stroke="hsl(0.0,100%,35%)" stroke-width="0.00090"></path>
<path d="M0.192 0.503 Q0.433 0.427 0.337 0.293" stroke="hsl(0.0,100%,35%)" stroke-width="0.00090"></path>
<path d="M0.192 0.503 Q0.172 0.479 0.120 0.483" stroke="hsl(0.0,100%,35%)" stroke-width="0.00030"></path>
<path d="M0.192 0.503 Q0.605 0.467 0.625 0.258" stroke="hsl(0.0,100%,35%)" stroke-width="0.00060"></path>
<path d="M0.391 0.555 Q0.476 0.749 0.873 0.750" stroke="hsl(0.0,100%,35%)" stroke-width="0.00121"></path>
<path d="M0.391 0.555 Q0.384 0.477 0.230 0.464" stroke="hsl(0.0,100%,35%)" stroke-width="0.00693"></path>
<path d="M0.391 0.555 Q0.564 0.499 0.492 0.402" stroke="hsl(0.0,100%,35%)" stroke-width="0.01387"></path>
<path d="M0.391 0.555 Q0.314 0.465 0.120 0.483" stroke="hsl(0.0,100%,35%)" stroke-width="0.00030"></path>
<path d="M0.391 0.555 Q0.206 0.705 0.457 0.829" stroke="hsl(0.0,100%,35%)" stroke-width="0.00905"></path>
<path d="M0.391 0.555 Q0.262 0.819 0.748 0.940" stroke="hsl(0.0,100%,35%)" stroke-width="0.00573"></path>
<path d="M0.391 0.555 Q1.040 0.514 1.101 0.188" stroke="hsl(0.0,100%,35%)" stroke-width="0.00030"></path>
<path d="M0.391 0.555 Q0.259 0.630 0.376 0.711" stroke="hsl(0.0,100%,35%)" stroke-width="0.00030"></path>
<path d="M0.391 0.555 Q0.746 0.453 0.625 0.258" stroke="hsl(0.0,100%,35%)" stroke-width="0.00090"></path>
<path d="M0.337 0.293 Q0.328 0.378 0.492 0.402" stroke="hsl(0.0,100%,35%)" stroke-width="0.02261"></path>
<path d="M0.337 0.293 Q-0.031 0.585 0.457 0.829" stroke="hsl(0.0,100%,35%)" stroke-width="0.00181"></path>
<path d="M0.337 0.293 Q0.077 0.345 0.120 0.483" stroke="hsl(0.0,100%,35%)" stroke-width="0.00030"></path>
<path d="M0.337 0.293 Q0.454 0.360 0.610 0.317" stroke="hsl(0.0,100%,35%)" stroke-width="0.00422"></path>
<path d="M0.337 0.293 Q0.239 0.629 0.873 0.750" stroke="hsl(0.0,100%,35%)" stroke-width="0.00060"></path>
<path d="M0.337 0.293 Q0.025 0.699 0.748 0.940" stroke="hsl(0.0,100%,35%)" stroke-width="0.00874"></path>
<path d="M0.337 0.293 Q0.803 0.393 1.101 0.188" stroke="hsl(0.0,100%,35%)" stroke-width="0.00030"></path>
<path d="M0.337 0.293 Q0.147 0.357 0.230 0.464" stroke="hsl(0.0,100%,35%)" stroke-width="0.00060"></path>
<path d="M0.337 0.293 Q0.376 0.508 0.805 0.536" stroke="hsl(0.0,100%,35%)" stroke-width="0.00030"></path>
<path d="M0.337 0.293 Q0.510 0.333 0.625 0.258" stroke="hsl(0.0,100%,35%)" stroke-width="0.00030"></path>
<path d="M0.120 0.483 Q0.371 0.517 0.492 0.402" stroke="hsl(0.0,100%,35%)" stroke-width="0.01206"></path>
<path d="M0.120 0.483 Q0.191 0.495 0.230 0.464" stroke="hsl(0.0,100%,35%)" stroke-width="0.00754"></path>
<path d="M0.120 0.483 Q0.381 0.431 0.337 0.293" stroke="hsl(0.0,100%,35%)" stroke-width="0.00151"></path>
<path d="M0.120 0.483 Q0.069 0.837 0.748 0.940" stroke="hsl(0.0,100%,35%)" stroke-width="0.00241"></path>
<path d="M0.120 0.483 Q0.847 0.532 1.101 0.188" stroke="hsl(0.0,100%,35%)" stroke-width="0.00241"></path>
<path d="M0.120 0.483 Q0.012 0.723 0.457 0.829" stroke="hsl(0.0,100%,35%)" stroke-width="0.00121"></path>
<path d="M0.120 0.483 Q0.283 0.767 0.873 0.750" stroke="hsl(0.0,100%,35%)" stroke-width="0.00030"></path>
<path d="M0.120 0.483 Q0.553 0.471 0.625 0.258" stroke="hsl(0.0,100%,35%)" stroke-width="0.00121"></path>
<path d="M1.203 0.447 Q1.293 0.281 0.990 0.201" stroke="hsl(0.0,100%,35%)" stroke-width="0.00030"></path>
<path d="M1.203 0.447 Q1.359 0.297 1.101 0.188" stroke="hsl(0.0,100%,35%)" stroke-width="0.00030"></path>
<path d="M1.203 0.447 Q1.090 0.433 1.038 0.485" stroke="hsl(0.0,100%,35%)" stroke-width="0.00030"></path>
<path d="M0.990 0.201 Q0.400 0.181 0.230 0.464" stroke="hsl(0.0,100%,35%)" stroke-width="0.00030"></path>
<path d="M0.990 0.201 Q1.056 0.217 1.101 0.188" stroke="hsl(0.0,100%,35%)" stroke-width="0.00090"></path>
<path d="M0.990 0.201 Q0.529 0.282 0.584 0.524" stroke="hsl(0.0,100%,35%)" stroke-width="0.00060"></path>
<path d="M0.990 0.201 Q0.581 0.202 0.492 0.402" stroke="hsl(0.0,100%,35%)" stroke-width="0.00030"></path>
<path d="M0.748 0.940 Q0.877 0.676 0.391 0.555" stroke="hsl(0.0,100%,35%)" stroke-width="0.00090"></path>
<path d="M0.748 0.940 Q1.051 0.620 0.492 0.402" stroke="hsl(0.0,100%,35%)" stroke-width="0.00844"></path>
<path d="M0.748 0.940 Q0.870 0.598 0.230 0.464" stroke="hsl(0.0,100%,35%)" stroke-width="0.00452"></path>
<path d="M0.748 0.940 Q0.692 0.826 0.457 0.829" stroke="hsl(0.0,100%,35%)" stroke-width="0.00302"></path>
<path d="M0.748 0.940 Q1.526 0.635 1.101 0.188" stroke="hsl(0.0,100%,35%)" stroke-width="0.00392"></path>
<path d="M0.748 0.940 Q0.962 0.870 0.873 0.750" stroke="hsl(0.0,100%,35%)" stroke-width="0.00271"></path>
<path d="M0.748 0.940 Q1.233 0.574 0.625 0.258" stroke="hsl(0.0,100%,35%)" stroke-width="0.00332"></path>
<path d="M0.748 0.940 Q1.060 0.534 0.337 0.293" stroke="hsl(0.0,100%,35%)" stroke-width="0.00332"></path>
<path d="M0.610 0.317 Q0.493 0.251 0.337 0.293" stroke="hsl(0.0,100%,35%)" stroke-width="0.00874"></path>
<path d="M0.610 0.317 Q0.483 0.336 0.492 0.402" stroke="hsl(0.0,100%,35%)" stroke-width="0.01146"></path>
<path d="M0.610 0.317 Q0.303 0.314 0.230 0.464" stroke="hsl(0.0,100%,35%)" stroke-width="0.00151"></path>
<path d="M0.610 0.317 Q0.125 0.542 0.457 0.829" stroke="hsl(0.0,100%,35%)" stroke-width="0.00030"></path>
<path d="M0.805 0.536 Q0.756 0.406 0.492 0.402" stroke="hsl(0.0,100%,35%)" stroke-width="0.00754"></path>
<path d="M0.805 0.536 Q0.704 0.486 0.584 0.524" stroke="hsl(0.0,100%,35%)" stroke-width="0.00030"></path>
<path d="M0.805 0.536 Q1.232 0.422 1.101 0.188" stroke="hsl(0.0,100%,35%)" stroke-width="0.00060"></path>
<path d="M0.805 0.536 Q0.453 0.727 0.748 0.940" stroke="hsl(0.0,100%,35%)" stroke-width="0.00030"></path>
<path d="M0.805 0.536 Q0.576 0.385 0.230 0.464" stroke="hsl(0.0,100%,35%)" stroke-width="0.00030"></path>
<path d="M0.584 0.524 Q0.456 0.423 0.230 0.464" stroke="hsl(0.0,100%,35%)" stroke-width="0.00302"></path>
<path d="M0.584 0.524 Q0.685 0.574 0.805 0.536" stroke="hsl(0.0,100%,35%)" stroke-width="0.00030"></path>
<path d="M0.584 0.524 Q0.636 0.445 0.492 0.402" stroke="hsl(0.0,100%,35%)" stroke-width="0.00784"></path>
<path d="M0.584 0.524 Q1.112 0.460 1.101 0.188" stroke="hsl(0.0,100%,35%)" stroke-width="0.00603"></path>
<path d="M0.584 0.524 Q0.277 0.651 0.457 0.829" stroke="hsl(0.0,100%,35%)" stroke-width="0.00090"></path>
<path d="M0.584 0.524 Q1.046 0.444 0.990 0.201" stroke="hsl(0.0,100%,35%)" stroke-width="0.00090"></path>
<path d="M0.584 0.524 Q1.214 0.643 1.584 0.362" stroke="hsl(0.0,100%,35%)" stroke-width="0.00090"></path>
<path d="M0.584 0.524 Q0.818 0.399 0.625 0.258" stroke="hsl(0.0,100%,35%)" stroke-width="0.00060"></path>
<path d="M0.883 0.615 Q0.770 0.681 0.873 0.750" stroke="hsl(0.0,100%,35%)" stroke-width="0.00030"></path>
<path d="M0.883 0.615 Q0.859 0.430 0.492 0.402" stroke="hsl(0.0,100%,35%)" stroke-width="0.00030"></path>
<path d="M0.883 0.615 Q1.334 0.445 1.101 0.188" stroke="hsl(0.0,100%,35%)" stroke-width="0.00030"></path>
<path d="M0.613 0.620 Q0.727 0.486 0.492 0.402" stroke="hsl(0.0,100%,35%)" stroke-width="0.00060"></path>
<path d="M0.613 0.620 Q0.638 0.737 0.873 0.750" stroke="hsl(0.0,100%,35%)" stroke-width="0.00030"></path>
<path d="M0.613 0.620 Q0.547 0.465 0.230 0.464" stroke="hsl(0.0,100%,35%)" stroke-width="0.00121"></path>
<path d="M0.535 0.558 Q0.638 0.471 0.492 0.402" stroke="hsl(0.0,100%,35%)" stroke-width="0.00362"></path>
<path d="M0.535 0.558 Q0.458 0.450 0.230 0.464" stroke="hsl(0.0,100%,35%)" stroke-width="0.00090"></path>
<path d="M0.535 0.558 Q0.465 0.528 0.391 0.555" stroke="hsl(0.0,100%,35%)" stroke-width="0.00030"></path>
<path d="M0.535 0.558 Q1.114 0.486 1.101 0.188" stroke="hsl(0.0,100%,35%)" stroke-width="0.00030"></path>
<path d="M1.188 0.439 Q1.346 0.296 1.101 0.188" stroke="hsl(0.0,100%,35%)" stroke-width="0.00452"></path>
<path d="M1.188 0.439 Q0.870 0.281 0.492 0.402" stroke="hsl(0.0,100%,35%)" stroke-width="0.00482"></path>
<path d="M1.188 0.439 Q0.690 0.260 0.230 0.464" stroke="hsl(0.0,100%,35%)" stroke-width="0.00060"></path>
<path d="M1.188 0.439 Q1.052 0.236 0.625 0.258" stroke="hsl(0.0,100%,35%)" stroke-width="0.00030"></path>
<path d="M1.384 0.079 Q0.628 0.142 0.584 0.524" stroke="hsl(0.0,100%,35%)" stroke-width="0.00241"></path>
<path d="M1.384 0.079 Q1.455 0.111 1.532 0.083" stroke="hsl(0.0,100%,35%)" stroke-width="0.00060"></path>
<path d="M1.384 0.079 Q1.155 0.077 1.101 0.188" stroke="hsl(0.0,100%,35%)" stroke-width="0.00392"></path>
<path d="M1.384 0.079 Q0.680 0.062 0.492 0.402" stroke="hsl(0.0,100%,35%)" stroke-width="0.00482"></path>
<path d="M1.384 0.079 Q1.257 0.261 1.584 0.362" stroke="hsl(0.0,100%,35%)" stroke-width="0.00060"></path>
<path d="M1.384 0.079 Q0.499 0.041 0.230 0.464" stroke="hsl(0.0,100%,35%)" stroke-width="0.00030"></path>
<path d="M1.558 0.236 Q1.368 0.121 1.101 0.188" stroke="hsl(0.0,100%,35%)" stroke-width="0.00271"></path>
<path d="M1.558 0.236 Q1.469 0.304 1.584 0.362" stroke="hsl(0.0,100%,35%)" stroke-width="0.00271"></path>
<path d="M1.558 0.236 Q0.840 0.185 0.584 0.524" stroke="hsl(0.0,100%,35%)" stroke-width="0.00211"></path>
<path d="M1.558 0.236 Q1.285 0.169 1.096 0.288" stroke="hsl(0.0,100%,35%)" stroke-width="0.00030"></path>
<path d="M1.558 0.236 Q0.892 0.106 0.492 0.402" stroke="hsl(0.0,100%,35%)" stroke-width="0.00181"></path>
<path d="M1.558 0.236 Q0.712 0.084 0.230 0.464" stroke="hsl(0.0,100%,35%)" stroke-width="0.00060"></path>
<path d="M0.218 0.488 Q0.424 0.500 0.492 0.402" stroke="hsl(0.0,100%,35%)" stroke-width="0.00151"></path>
<path d="M0.218 0.488 Q0.606 0.454 0.625 0.258" stroke="hsl(0.0,100%,35%)" stroke-width="0.00030"></path>
<path d="M0.218 0.488 Q0.434 0.414 0.337 0.293" stroke="hsl(0.0,100%,35%)" stroke-width="0.00030"></path>
<path d="M0.218 0.488 Q0.173 0.466 0.120 0.483" stroke="hsl(0.0,100%,35%)" stroke-width="0.00030"></path>
<path d="M0.218 0.488 Q0.244 0.478 0.230 0.464" stroke="hsl(0.0,100%,35%)" stroke-width="0.00030"></path>
<path d="M0.394 0.080 Q0.186 0.261 0.492 0.402" stroke="hsl(0.0,100%,35%)" stroke-width="0.00332"></path>
<path d="M0.394 0.080 Q0.006 0.239 0.230 0.464" stroke="hsl(0.0,100%,35%)" stroke-width="0.00090"></path>
<path d="M0.394 0.080 Q-0.117 0.581 0.748 0.940" stroke="hsl(0.0,100%,35%)" stroke-width="0.00030"></path>
<path d="M0.394 0.080 Q-0.065 0.227 0.120 0.483" stroke="hsl(0.0,100%,35%)" stroke-width="0.00030"></path>
<path d="M1.584 0.362 Q1.006 0.164 0.492 0.402" stroke="hsl(0.0,100%,35%)" stroke-width="0.00181"></path>
<path d="M1.584 0.362 Q0.954 0.243 0.584 0.524" stroke="hsl(0.0,100%,35%)" stroke-width="0.00302"></path>
<path d="M1.584 0.362 Q1.482 0.179 1.101 0.188" stroke="hsl(0.0,100%,35%)" stroke-width="0.00362"></path>
<path d="M1.584 0.362 Q1.055 0.293 0.805 0.536" stroke="hsl(0.0,100%,35%)" stroke-width="0.00030"></path>
<path d="M1.584 0.362 Q0.826 0.142 0.230 0.464" stroke="hsl(0.0,100%,35%)" stroke-width="0.00090"></path>
<path d="M1.584 0.362 Q1.672 0.294 1.558 0.236" stroke="hsl(0.0,100%,35%)" stroke-width="0.00060"></path>
<path d="M1.584 0.362 Q1.514 0.434 1.638 0.484" stroke="hsl(0.0,100%,35%)" stroke-width="0.00030"></path>
<path d="M1.096 0.288 Q0.522 0.203 0.230 0.464" stroke="hsl(0.0,100%,35%)" stroke-width="0.00030"></path>
<path d="M1.096 0.288 Q1.178 0.239 1.101 0.188" stroke="hsl(0.0,100%,35%)" stroke-width="0.00362"></path>
<path d="M1.096 0.288 Q0.702 0.224 0.492 0.402" stroke="hsl(0.0,100%,35%)" stroke-width="0.00181"></path>
<path d="M1.096 0.288 Q0.651 0.304 0.584 0.524" stroke="hsl(0.0,100%,35%)" stroke-width="0.00030"></path>
<path d="M1.096 0.288 Q1.368 0.354 1.558 0.236" stroke="hsl(0.0,100%,35%)" stroke-width="0.00030"></path>
<path d="M1.096 0.288 Q1.280 0.423 1.584 0.362" stroke="hsl(0.0,100%,35%)" stroke-width="0.00090"></path>
<path d="M0.883 0.202 Q1.003 0.239 1.101 0.188" stroke="hsl(0.0,100%,35%)" stroke-width="0.00090"></path>
<path d="M0.883 0.202 Q0.476 0.303 0.584 0.524" stroke="hsl(0.0,100%,35%)" stroke-width="0.00030"></path>
<path d="M0.883 0.202 Q0.528 0.224 0.492 0.402" stroke="hsl(0.0,100%,35%)" stroke-width="0.00090"></path>
<path d="M0.251 0.587 Q0.996 0.558 1.101 0.188" stroke="hsl(0.0,100%,35%)" stroke-width="0.00151"></path>
<path d="M0.251 0.587 Q0.468 0.623 0.584 0.524" stroke="hsl(0.0,100%,35%)" stroke-width="0.00060"></path>
<path d="M0.251 0.587 Q1.098 0.741 1.584 0.362" stroke="hsl(0.0,100%,35%)" stroke-width="0.00030"></path>
<path d="M0.251 0.587 Q0.520 0.543 0.492 0.402" stroke="hsl(0.0,100%,35%)" stroke-width="0.00060"></path>
<path d="M1.280 0.291 Q1.273 0.204 1.101 0.188" stroke="hsl(0.0,100%,35%)" stroke-width="0.00060"></path>
<path d="M1.280 0.291 Q0.528 0.233 0.251 0.587" stroke="hsl(0.0,100%,35%)" stroke-width="0.00030"></path>
<path d="M1.280 0.291 Q0.745 0.268 0.584 0.524" stroke="hsl(0.0,100%,35%)" stroke-width="0.00030"></path>
<path d="M1.280 0.291 Q0.797 0.189 0.492 0.402" stroke="hsl(0.0,100%,35%)" stroke-width="0.00030"></path>
<path d="M0.720 0.535 Q0.712 0.423 0.492 0.402" stroke="hsl(0.0,100%,35%)" stroke-width="0.00121"></path>
<path d="M0.720 0.535 Q0.661 0.503 0.584 0.524" stroke="hsl(0.0,100%,35%)" stroke-width="0.00030"></path>
<path d="M0.720 0.535 Q1.188 0.438 1.101 0.188" stroke="hsl(0.0,100%,35%)" stroke-width="0.00030"></path>
<path d="M0.812 0.068 Q0.333 0.251 0.584 0.524" stroke="hsl(0.0,100%,35%)" stroke-width="0.00060"></path>
<path d="M0.812 0.068 Q0.434 0.301 0.805 0.536" stroke="hsl(0.0,100%,35%)" stroke-width="0.00030"></path>
<path d="M0.812 0.068 Q0.861 0.186 1.101 0.188" stroke="hsl(0.0,100%,35%)" stroke-width="0.00030"></path>
<path d="M0.812 0.068 Q0.385 0.171 0.492 0.402" stroke="hsl(0.0,100%,35%)" stroke-width="0.00090"></path>
<path d="M0.471 0.529 Q0.584 0.470 0.492 0.402" stroke="hsl(0.0,100%,35%)" stroke-width="0.00935"></path>
<path d="M0.471 0.529 Q0.281 0.790 0.748 0.940" stroke="hsl(0.0,100%,35%)" stroke-width="0.00030"></path>
<path d="M0.471 0.529 Q1.059 0.485 1.101 0.188" stroke="hsl(0.0,100%,35%)" stroke-width="0.00332"></path>
<path d="M0.471 0.529 Q0.495 0.720 0.873 0.750" stroke="hsl(0.0,100%,35%)" stroke-width="0.00030"></path>
<path d="M0.471 0.529 Q0.403 0.448 0.230 0.464" stroke="hsl(0.0,100%,35%)" stroke-width="0.00151"></path>
<path d="M0.471 0.529 Q0.225 0.676 0.457 0.829" stroke="hsl(0.0,100%,35%)" stroke-width="0.00030"></path>
<path d="M1.186 0.592 Q1.467 0.373 1.101 0.188" stroke="hsl(0.0,100%,35%)" stroke-width="0.00060"></path>
<path d="M1.186 0.592 Q0.991 0.358 0.492 0.402" stroke="hsl(0.0,100%,35%)" stroke-width="0.00030"></path>
<path d="M1.186 0.592 Q1.569 0.557 1.584 0.362" stroke="hsl(0.0,100%,35%)" stroke-width="0.00030"></path>
<path d="M1.186 0.592 Q0.811 0.337 0.230 0.464" stroke="hsl(0.0,100%,35%)" stroke-width="0.00030"></path>
<path d="M1.186 0.592 Q1.100 0.624 1.143 0.673" stroke="hsl(0.0,100%,35%)" stroke-width="0.00030"></path>
<path d="M0.193 0.230 Q0.205 0.375 0.492 0.402" stroke="hsl(0.0,100%,35%)" stroke-width="0.01839"></path>
<path d="M0.193 0.230 Q0.153 0.455 0.584 0.524" stroke="hsl(0.0,100%,35%)" stroke-width="0.01266"></path>
<path d="M0.193 0.230 Q0.680 0.390 1.101 0.188" stroke="hsl(0.0,100%,35%)" stroke-width="0.00211"></path>
<path d="M0.193 0.230 Q0.116 0.626 0.873 0.750" stroke="hsl(0.0,100%,35%)" stroke-width="0.00030"></path>
<path d="M0.193 0.230 Q0.024 0.354 0.230 0.464" stroke="hsl(0.0,100%,35%)" stroke-width="0.00060"></path>
<path d="M0.193 0.230 Q0.614 0.375 0.990 0.201" stroke="hsl(0.0,100%,35%)" stroke-width="0.00060"></path>
<path d="M1.206 0.276 Q1.224 0.211 1.101 0.188" stroke="hsl(0.0,100%,35%)" stroke-width="0.00090"></path>
<path d="M1.206 0.276 Q0.803 0.335 0.831 0.545" stroke="hsl(0.0,100%,35%)" stroke-width="0.00030"></path>
<path d="M1.206 0.276 Q0.748 0.196 0.492 0.402" stroke="hsl(0.0,100%,35%)" stroke-width="0.00090"></path>
<path d="M1.196 0.023 Q0.361 0.050 0.230 0.464" stroke="hsl(0.0,100%,35%)" stroke-width="0.00030"></path>
<path d="M1.196 0.023 Q1.017 0.086 1.101 0.188" stroke="hsl(0.0,100%,35%)" stroke-width="0.00151"></path>
<path d="M1.196 0.023 Q0.429 0.131 0.471 0.529" stroke="hsl(0.0,100%,35%)" stroke-width="0.00060"></path>
<path d="M0.543 0.468 Q0.571 0.425 0.492 0.402" stroke="hsl(0.0,100%,35%)" stroke-width="0.00060"></path>
<path d="M0.543 0.468 Q0.391 0.403 0.230 0.464" stroke="hsl(0.0,100%,35%)" stroke-width="0.00060"></path>
<path d="M0.543 0.468 Q0.459 0.484 0.471 0.529" stroke="hsl(0.0,100%,35%)" stroke-width="0.00030"></path>
<path d="M0.811 0.216 Q0.502 0.245 0.492 0.402" stroke="hsl(0.0,100%,35%)" stroke-width="0.00060"></path>
<path d="M0.811 0.216 Q0.144 0.452 0.457 0.829" stroke="hsl(0.0,100%,35%)" stroke-width="0.00030"></path>
<path d="M0.811 0.216 Q0.322 0.224 0.230 0.464" stroke="hsl(0.0,100%,35%)" stroke-width="0.00030"></path>
<path d="M0.649 -0.022 Q0.231 0.158 0.492 0.402" stroke="hsl(0.0,100%,35%)" stroke-width="0.00030"></path>
<path d="M0.649 -0.022 Q0.384 0.006 0.380 0.141" stroke="hsl(0.0,100%,35%)" stroke-width="0.00030"></path>
<path d="M0.649 -0.022 Q0.280 0.288 0.805 0.536" stroke="hsl(0.0,100%,35%)" stroke-width="0.00030"></path>
<path d="M0.380 0.141 Q0.227 0.294 0.492 0.402" stroke="hsl(0.0,100%,35%)" stroke-width="0.00151"></path>
<path d="M0.380 0.141 Q-0.075 0.614 0.748 0.940" stroke="hsl(0.0,100%,35%)" stroke-width="0.00030"></path>
<path d="M0.380 0.141 Q-0.132 0.500 0.457 0.829" stroke="hsl(0.0,100%,35%)" stroke-width="0.00030"></path>
<path d="M0.273 0.556 Q0.516 0.438 0.337 0.293" stroke="hsl(0.0,100%,35%)" stroke-width="0.00030"></path>
<path d="M0.273 0.556 Q0.506 0.523 0.492 0.402" stroke="hsl(0.0,100%,35%)" stroke-width="0.00060"></path>
<path d="M0.273 0.556 Q0.326 0.502 0.230 0.464" stroke="hsl(0.0,100%,35%)" stroke-width="0.00030"></path>
<path d="M0.046 0.147 Q-0.115 0.342 0.230 0.464" stroke="hsl(0.0,100%,35%)" stroke-width="0.00060"></path>
<path d="M0.046 0.147 Q0.541 0.379 1.101 0.188" stroke="hsl(0.0,100%,35%)" stroke-width="0.00030"></path>
<path d="M0.046 0.147 Q0.066 0.364 0.492 0.402" stroke="hsl(0.0,100%,35%)" stroke-width="0.00030"></path>
<path d="M0.376 0.191 Q0.265 0.320 0.492 0.402" stroke="hsl(0.0,100%,35%)" stroke-width="0.00392"></path>
<path d="M0.376 0.191 Q0.085 0.298 0.230 0.464" stroke="hsl(0.0,100%,35%)" stroke-width="0.00151"></path>
<path d="M0.376 0.191 Q0.741 0.335 1.101 0.188" stroke="hsl(0.0,100%,35%)" stroke-width="0.00030"></path>
<path d="M0.376 0.191 Q0.275 0.234 0.337 0.293" stroke="hsl(0.0,100%,35%)" stroke-width="0.00060"></path>
<path d="M0.376 0.191 Q0.177 0.570 0.873 0.750" stroke="hsl(0.0,100%,35%)" stroke-width="0.00121"></path>
<path d="M0.533 0.235 Q0.199 0.289 0.230 0.464" stroke="hsl(0.0,100%,35%)" stroke-width="0.00060"></path>
<path d="M0.533 0.235 Q0.588 0.130 0.394 0.080" stroke="hsl(0.0,100%,35%)" stroke-width="0.00030"></path>
<path d="M0.533 0.235 Q0.379 0.310 0.492 0.402" stroke="hsl(0.0,100%,35%)" stroke-width="0.00241"></path>
<path d="M0.533 0.235 Q0.855 0.325 1.101 0.188" stroke="hsl(0.0,100%,35%)" stroke-width="0.00090"></path>
<path d="M0.795 0.231 Q0.238 0.300 0.251 0.587" stroke="hsl(0.0,100%,35%)" stroke-width="0.00090"></path>
<path d="M0.795 0.231 Q0.507 0.256 0.492 0.402" stroke="hsl(0.0,100%,35%)" stroke-width="0.00121"></path>
<path d="M0.795 0.231 Q0.983 0.271 1.101 0.188" stroke="hsl(0.0,100%,35%)" stroke-width="0.00030"></path>
<path d="M0.795 0.231 Q1.085 0.454 1.584 0.362" stroke="hsl(0.0,100%,35%)" stroke-width="0.00090"></path>
<path d="M0.795 0.231 Q0.327 0.234 0.230 0.464" stroke="hsl(0.0,100%,35%)" stroke-width="0.00060"></path>
</g>
<text x="0.979" y="0.206" font-size="0.012786" fill="hsl(0.0,100%,20%)">amaiorano</text>
<text x="0.492" y="0.350" font-size="0.102935" fill="hsl(0.0,100%,20%)">jmadill</text>
<text x="0.230" y="0.431" font-size="0.065317" fill="hsl(0.0,100%,20%)">syoussefi</text>
<text x="0.457" y="0.800" font-size="0.057114" fill="hsl(0.0,100%,20%)">timvp</text>
<text x="1.101" y="0.162" font-size="0.051297" fill="hsl(0.0,100%,20%)">geofflang</text>
<text x="0.137" y="0.505" font-size="0.010806" fill="hsl(0.0,100%,20%)">amy.liu</text>
<text x="0.873" y="0.733" font-size="0.034625" fill="hsl(0.0,100%,20%)">ianelliott</text>
<text x="0.625" y="0.239" font-size="0.036911" fill="hsl(0.0,100%,20%)">tobine</text>
<text x="0.053" y="0.527" font-size="0.006239" fill="hsl(0.0,100%,20%)">artyom</text>
<text x="0.831" y="0.540" font-size="0.010806" fill="hsl(0.0,100%,20%)">rafael.cintron</text>
<text x="0.192" y="0.495" font-size="0.016507" fill="hsl(0.0,100%,20%)">b.schade</text>
<text x="0.391" y="0.535" font-size="0.040144" fill="hsl(0.0,100%,20%)">cclao</text>
<text x="0.337" y="0.267" font-size="0.051145" fill="hsl(0.0,100%,20%)">cnorthrop</text>
<text x="0.120" y="0.468" font-size="0.029660" fill="hsl(0.0,100%,20%)">m.maiya</text>
<text x="1.203" y="0.444" font-size="0.004833" fill="hsl(0.0,100%,20%)">ccameron</text>
<text x="0.990" y="0.196" font-size="0.010806" fill="hsl(0.0,100%,20%)">cwallez</text>
<text x="1.038" y="0.483" font-size="0.003946" fill="hsl(0.0,100%,20%)">lfy</text>
<text x="0.748" y="0.915" font-size="0.049126" fill="hsl(0.0,100%,20%)">courtneygo</text>
<text x="0.376" y="0.708" font-size="0.005580" fill="hsl(0.0,100%,20%)">sunny.sun</text>
<text x="0.610" y="0.304" font-size="0.027052" fill="hsl(0.0,100%,20%)">nguyenmh</text>
<text x="0.805" y="0.521" font-size="0.029660" fill="hsl(0.0,100%,20%)">ynovikov</text>
<text x="0.584" y="0.502" font-size="0.044381" fill="hsl(0.0,100%,20%)">jonahr</text>
<text x="0.883" y="0.613" font-size="0.004833" fill="hsl(0.0,100%,20%)">davidben</text>
<text x="0.613" y="0.616" font-size="0.007382" fill="hsl(0.0,100%,20%)">ericbinet</text>
<text x="0.535" y="0.552" font-size="0.011838" fill="hsl(0.0,100%,20%)">flibitijibibo</text>
<text x="1.188" y="0.431" font-size="0.017200" fill="hsl(0.0,100%,20%)">sugoi</text>
<text x="1.384" y="0.070" font-size="0.018296" fill="hsl(0.0,100%,20%)">lexa.knyazev</text>
<text x="1.143" y="0.670" font-size="0.004833" fill="hsl(0.0,100%,20%)">zmo</text>
<text x="1.558" y="0.227" font-size="0.017425" fill="hsl(0.0,100%,20%)">jdarpinian</text>
<text x="1.417" y="0.236" font-size="0.002790" fill="hsl(0.0,100%,20%)">brianosman</text>
<text x="0.218" y="0.484" font-size="0.008823" fill="hsl(0.0,100%,20%)">hckim.kim</text>
<text x="0.394" y="0.075" font-size="0.011504" fill="hsl(0.0,100%,20%)">j.vigil</text>
<text x="1.584" y="0.351" font-size="0.022146" fill="hsl(0.0,100%,20%)">kbr</text>
<text x="1.096" y="0.280" font-size="0.014227" fill="hsl(0.0,100%,20%)">shrekshao</text>
<text x="0.883" y="0.198" font-size="0.007382" fill="hsl(0.0,100%,20%)">jgilbert</text>
<text x="0.251" y="0.581" font-size="0.012162" fill="hsl(0.0,100%,20%)">jiajia.qin</text>
<text x="1.280" y="0.288" font-size="0.006239" fill="hsl(0.0,100%,20%)">jiawei.shao</text>
<text x="0.720" y="0.532" font-size="0.006835" fill="hsl(0.0,100%,20%)">jie.a.chen</text>
<text x="0.681" y="0.620" font-size="0.003946" fill="hsl(0.0,100%,20%)">dpranke</text>
<text x="0.591" y="0.220" font-size="0.004833" fill="hsl(0.0,100%,20%)">bsheedy</text>
<text x="0.227" y="0.661" font-size="0.003946" fill="hsl(0.0,100%,20%)">nicolascapens</text>
<text x="0.812" y="0.064" font-size="0.007892" fill="hsl(0.0,100%,20%)">julien.isorce</text>
<text x="0.471" y="0.519" font-size="0.021432" fill="hsl(0.0,100%,20%)">spang</text>
<text x="1.532" y="0.081" font-size="0.004833" fill="hsl(0.0,100%,20%)">le.hoang.q</text>
<text x="1.638" y="0.482" font-size="0.002790" fill="hsl(0.0,100%,20%)">kainino</text>
<text x="1.186" y="0.589" font-size="0.006835" fill="hsl(0.0,100%,20%)">khushalsagar</text>
<text x="0.193" y="0.215" font-size="0.029921" fill="hsl(0.0,100%,20%)">lehoangq</text>
<text x="1.206" y="0.272" font-size="0.007382" fill="hsl(0.0,100%,20%)">mihu</text>
<text x="1.196" y="0.019" font-size="0.007892" fill="hsl(0.0,100%,20%)">msisov</text>
<text x="0.543" y="0.465" font-size="0.006239" fill="hsl(0.0,100%,20%)">penghuang</text>
<text x="0.811" y="0.213" font-size="0.005580" fill="hsl(0.0,100%,20%)">reveman</text>
<text x="0.649" y="-0.025" font-size="0.004833" fill="hsl(0.0,100%,20%)">sdefresne</text>
<text x="0.380" y="0.137" font-size="0.007892" fill="hsl(0.0,100%,20%)">thakis</text>
<text x="0.273" y="0.553" font-size="0.005580" fill="hsl(0.0,100%,20%)">shabbyx</text>
<text x="0.046" y="0.145" font-size="0.005580" fill="hsl(0.0,100%,20%)">shaobo.yan</text>
<text x="0.681" y="0.536" font-size="0.002790" fill="hsl(0.0,100%,20%)">capn</text>
<text x="0.104" y="0.593" font-size="0.002790" fill="hsl(0.0,100%,20%)">jaedon1.lee</text>
<text x="0.376" y="0.184" font-size="0.014227" fill="hsl(0.0,100%,20%)">xinyi.he</text>
<text x="0.533" y="0.230" font-size="0.010440" fill="hsl(0.0,100%,20%)">xiaoxuan.liu</text>
<text x="0.795" y="0.226" font-size="0.010060" fill="hsl(0.0,100%,20%)">xinghua.cao</text>
</svg>
