<svg width="4000" height="2000" viewBox="-0.025 -0.025 2.05 1.05" xmlns="http://www.w3.org/2000/svg">
  <style>
    path {
      fill: none;
      stroke-linecap: round;
      stroke-opacity: 0.4;
    }

    text {
      text-anchor: middle;
      alignment-baseline: hanging;
    }
  </style>
  <g opacity="0.4">
<path d="M1.041 0.556 Q1.151 0.661 1.380 0.630" stroke="hsl(0.0,100%,35%)" stroke-width="0.00982"></path>
<path d="M1.041 0.556 Q0.900 0.714 1.179 0.818" stroke="hsl(0.0,100%,35%)" stroke-width="0.02081"></path>
<path d="M1.041 0.556 Q0.908 0.850 1.452 0.980" stroke="hsl(0.0,100%,35%)" stroke-width="0.00118"></path>
<path d="M1.041 0.556 Q1.388 0.632 1.613 0.479" stroke="hsl(0.0,100%,35%)" stroke-width="0.00785"></path>
<path d="M1.041 0.556 Q0.337 0.518 0.108 0.853" stroke="hsl(0.0,100%,35%)" stroke-width="0.00079"></path>
<path d="M1.041 0.556 Q0.981 0.360 0.587 0.347" stroke="hsl(0.0,100%,35%)" stroke-width="0.00039"></path>
<path d="M1.041 0.556 Q0.737 0.679 0.911 0.855" stroke="hsl(0.0,100%,35%)" stroke-width="0.00039"></path>
<path d="M1.041 0.556 Q0.547 0.682 0.685 0.951" stroke="hsl(0.0,100%,35%)" stroke-width="0.00157"></path>
<path d="M1.380 0.630 Q1.129 0.684 1.179 0.818" stroke="hsl(0.0,100%,35%)" stroke-width="0.04162"></path>
<path d="M1.380 0.630 Q0.973 0.670 0.960 0.877" stroke="hsl(0.0,100%,35%)" stroke-width="0.00118"></path>
<path d="M1.380 0.630 Q1.270 0.525 1.041 0.556" stroke="hsl(0.0,100%,35%)" stroke-width="0.01374"></path>
<path d="M1.380 0.630 Q1.262 0.615 1.206 0.669" stroke="hsl(0.0,100%,35%)" stroke-width="0.00824"></path>
<path d="M1.380 0.630 Q0.966 0.649 0.911 0.855" stroke="hsl(0.0,100%,35%)" stroke-width="0.01335"></path>
<path d="M1.380 0.630 Q1.137 0.820 1.452 0.980" stroke="hsl(0.0,100%,35%)" stroke-width="0.00196"></path>
<path d="M1.380 0.630 Q1.282 0.780 1.552 0.860" stroke="hsl(0.0,100%,35%)" stroke-width="0.00118"></path>
<path d="M1.380 0.630 Q0.566 0.488 0.108 0.853" stroke="hsl(0.0,100%,35%)" stroke-width="0.00079"></path>
<path d="M1.380 0.630 Q1.617 0.602 1.613 0.479" stroke="hsl(0.0,100%,35%)" stroke-width="0.00079"></path>
<path d="M1.380 0.630 Q0.776 0.652 0.685 0.951" stroke="hsl(0.0,100%,35%)" stroke-width="0.00079"></path>
<path d="M1.380 0.630 Q1.491 0.703 1.656 0.665" stroke="hsl(0.0,100%,35%)" stroke-width="0.00039"></path>
<path d="M1.380 0.630 Q1.430 0.716 1.609 0.711" stroke="hsl(0.0,100%,35%)" stroke-width="0.00039"></path>
<path d="M1.179 0.818 Q1.320 0.659 1.041 0.556" stroke="hsl(0.0,100%,35%)" stroke-width="0.01217"></path>
<path d="M1.179 0.818 Q1.430 0.764 1.380 0.630" stroke="hsl(0.0,100%,35%)" stroke-width="0.03102"></path>
<path d="M1.179 0.818 Q1.016 0.783 0.911 0.855" stroke="hsl(0.0,100%,35%)" stroke-width="0.02277"></path>
<path d="M1.179 0.818 Q0.825 0.786 0.685 0.951" stroke="hsl(0.0,100%,35%)" stroke-width="0.02356"></path>
<path d="M1.179 0.818 Q1.023 0.804 0.960 0.877" stroke="hsl(0.0,100%,35%)" stroke-width="0.00432"></path>
<path d="M1.179 0.818 Q0.615 0.622 0.108 0.853" stroke="hsl(0.0,100%,35%)" stroke-width="0.00510"></path>
<path d="M1.179 0.818 Q1.888 0.480 1.383 0.060" stroke="hsl(0.0,100%,35%)" stroke-width="0.00079"></path>
<path d="M1.179 0.818 Q1.402 0.571 0.968 0.408" stroke="hsl(0.0,100%,35%)" stroke-width="0.00118"></path>
<path d="M1.179 0.818 Q1.667 0.736 1.613 0.479" stroke="hsl(0.0,100%,35%)" stroke-width="0.00275"></path>
<path d="M1.179 0.818 Q1.260 0.464 0.587 0.347" stroke="hsl(0.0,100%,35%)" stroke-width="0.00039"></path>
<path d="M1.179 0.818 Q1.439 0.990 1.832 0.901" stroke="hsl(0.0,100%,35%)" stroke-width="0.00039"></path>
<path d="M1.179 0.818 Q1.187 0.954 1.452 0.980" stroke="hsl(0.0,100%,35%)" stroke-width="0.00982"></path>
<path d="M1.179 0.818 Q0.968 0.789 0.865 0.885" stroke="hsl(0.0,100%,35%)" stroke-width="0.00079"></path>
<path d="M1.179 0.818 Q0.703 0.709 0.385 0.917" stroke="hsl(0.0,100%,35%)" stroke-width="0.00079"></path>
<path d="M1.179 0.818 Q1.168 0.704 0.943 0.684" stroke="hsl(0.0,100%,35%)" stroke-width="0.00157"></path>
<path d="M1.179 0.818 Q1.257 0.706 1.055 0.643" stroke="hsl(0.0,100%,35%)" stroke-width="0.00039"></path>
<path d="M1.452 0.980 Q1.445 0.844 1.179 0.818" stroke="hsl(0.0,100%,35%)" stroke-width="0.02277"></path>
<path d="M1.452 0.980 Q0.881 0.648 0.108 0.853" stroke="hsl(0.0,100%,35%)" stroke-width="0.00432"></path>
<path d="M1.452 0.980 Q1.586 0.685 1.041 0.556" stroke="hsl(0.0,100%,35%)" stroke-width="0.00589"></path>
<path d="M1.452 0.980 Q1.933 0.762 1.613 0.479" stroke="hsl(0.0,100%,35%)" stroke-width="0.01178"></path>
<path d="M1.452 0.980 Q1.282 0.809 0.911 0.855" stroke="hsl(0.0,100%,35%)" stroke-width="0.00589"></path>
<path d="M1.452 0.980 Q1.091 0.812 0.685 0.951" stroke="hsl(0.0,100%,35%)" stroke-width="0.00079"></path>
<path d="M1.452 0.980 Q1.695 0.790 1.380 0.630" stroke="hsl(0.0,100%,35%)" stroke-width="0.00471"></path>
<path d="M1.452 0.980 Q1.600 0.963 1.600 0.888" stroke="hsl(0.0,100%,35%)" stroke-width="0.00039"></path>
<path d="M1.452 0.980 Q1.668 0.597 0.968 0.408" stroke="hsl(0.0,100%,35%)" stroke-width="0.00039"></path>
<path d="M1.452 0.980 Q1.034 0.581 0.165 0.698" stroke="hsl(0.0,100%,35%)" stroke-width="0.00039"></path>
<path d="M1.613 0.479 Q1.528 0.336 1.230 0.346" stroke="hsl(0.0,100%,35%)" stroke-width="0.00393"></path>
<path d="M1.613 0.479 Q1.486 0.443 1.387 0.497" stroke="hsl(0.0,100%,35%)" stroke-width="0.00196"></path>
<path d="M1.613 0.479 Q1.133 0.697 1.452 0.980" stroke="hsl(0.0,100%,35%)" stroke-width="0.00785"></path>
<path d="M1.613 0.479 Q1.125 0.562 1.179 0.818" stroke="hsl(0.0,100%,35%)" stroke-width="0.00196"></path>
<path d="M1.613 0.479 Q0.561 0.366 0.108 0.853" stroke="hsl(0.0,100%,35%)" stroke-width="0.00157"></path>
<path d="M1.613 0.479 Q1.749 0.486 1.791 0.421" stroke="hsl(0.0,100%,35%)" stroke-width="0.00079"></path>
<path d="M1.613 0.479 Q1.206 0.208 0.587 0.347" stroke="hsl(0.0,100%,35%)" stroke-width="0.00039"></path>
<path d="M1.613 0.479 Q1.375 0.508 1.380 0.630" stroke="hsl(0.0,100%,35%)" stroke-width="0.00079"></path>
<path d="M1.613 0.479 Q1.266 0.403 1.041 0.556" stroke="hsl(0.0,100%,35%)" stroke-width="0.00039"></path>
<path d="M0.108 0.853 Q0.672 1.050 1.179 0.818" stroke="hsl(0.0,100%,35%)" stroke-width="0.00314"></path>
<path d="M0.108 0.853 Q0.318 1.018 0.685 0.951" stroke="hsl(0.0,100%,35%)" stroke-width="0.00236"></path>
<path d="M0.108 0.853 Q0.103 0.940 0.270 0.961" stroke="hsl(0.0,100%,35%)" stroke-width="0.00589"></path>
<path d="M0.108 0.853 Q0.261 0.787 0.165 0.698" stroke="hsl(0.0,100%,35%)" stroke-width="0.00196"></path>
<path d="M0.108 0.853 Q0.509 1.014 0.911 0.855" stroke="hsl(0.0,100%,35%)" stroke-width="0.00157"></path>
<path d="M0.108 0.853 Q0.680 1.185 1.452 0.980" stroke="hsl(0.0,100%,35%)" stroke-width="0.00432"></path>
<path d="M0.108 0.853 Q1.160 0.967 1.613 0.479" stroke="hsl(0.0,100%,35%)" stroke-width="0.00275"></path>
<path d="M0.108 0.853 Q0.922 0.996 1.380 0.630" stroke="hsl(0.0,100%,35%)" stroke-width="0.00039"></path>
<path d="M0.108 0.853 Q0.813 0.891 1.041 0.556" stroke="hsl(0.0,100%,35%)" stroke-width="0.00039"></path>
<path d="M0.587 0.347 Q0.506 0.701 1.179 0.818" stroke="hsl(0.0,100%,35%)" stroke-width="0.00432"></path>
<path d="M0.587 0.347 Q0.757 0.647 1.380 0.630" stroke="hsl(0.0,100%,35%)" stroke-width="0.00079"></path>
<path d="M0.587 0.347 Q0.994 0.618 1.613 0.479" stroke="hsl(0.0,100%,35%)" stroke-width="0.00118"></path>
<path d="M0.587 0.347 Q0.514 0.836 1.452 0.980" stroke="hsl(0.0,100%,35%)" stroke-width="0.00079"></path>
<path d="M0.587 0.347 Q0.695 0.320 0.666 0.262" stroke="hsl(0.0,100%,35%)" stroke-width="0.00039"></path>
<path d="M0.911 0.855 Q1.215 0.731 1.041 0.556" stroke="hsl(0.0,100%,35%)" stroke-width="0.00471"></path>
<path d="M0.911 0.855 Q1.074 0.890 1.179 0.818" stroke="hsl(0.0,100%,35%)" stroke-width="0.00510"></path>
<path d="M0.911 0.855 Q1.698 0.814 1.791 0.421" stroke="hsl(0.0,100%,35%)" stroke-width="0.00039"></path>
<path d="M0.911 0.855 Q0.510 0.694 0.108 0.853" stroke="hsl(0.0,100%,35%)" stroke-width="0.00118"></path>
<path d="M0.911 0.855 Q1.081 1.025 1.452 0.980" stroke="hsl(0.0,100%,35%)" stroke-width="0.00236"></path>
<path d="M0.911 0.855 Q1.324 0.836 1.380 0.630" stroke="hsl(0.0,100%,35%)" stroke-width="0.00275"></path>
<path d="M0.911 0.855 Q0.663 0.627 0.165 0.698" stroke="hsl(0.0,100%,35%)" stroke-width="0.00039"></path>
<path d="M0.911 0.855 Q1.562 0.807 1.613 0.479" stroke="hsl(0.0,100%,35%)" stroke-width="0.00079"></path>
<path d="M0.685 0.951 Q1.038 0.984 1.179 0.818" stroke="hsl(0.0,100%,35%)" stroke-width="0.02748"></path>
<path d="M0.685 0.951 Q1.298 1.156 1.832 0.901" stroke="hsl(0.0,100%,35%)" stroke-width="0.00432"></path>
<path d="M0.685 0.951 Q1.268 1.099 1.684 0.847" stroke="hsl(0.0,100%,35%)" stroke-width="0.00353"></path>
<path d="M0.685 0.951 Q1.046 1.119 1.452 0.980" stroke="hsl(0.0,100%,35%)" stroke-width="0.00118"></path>
<path d="M0.685 0.951 Q1.261 0.737 0.968 0.408" stroke="hsl(0.0,100%,35%)" stroke-width="0.00079"></path>
<path d="M0.685 0.951 Q1.100 0.724 0.747 0.472" stroke="hsl(0.0,100%,35%)" stroke-width="0.00039"></path>
<path d="M0.685 0.951 Q0.562 0.874 0.385 0.917" stroke="hsl(0.0,100%,35%)" stroke-width="0.00196"></path>
<path d="M0.685 0.951 Q1.289 0.930 1.380 0.630" stroke="hsl(0.0,100%,35%)" stroke-width="0.00039"></path>
<path d="M0.685 0.951 Q0.475 0.787 0.108 0.853" stroke="hsl(0.0,100%,35%)" stroke-width="0.00314"></path>
<path d="M0.685 0.951 Q1.042 0.764 0.755 0.549" stroke="hsl(0.0,100%,35%)" stroke-width="0.00039"></path>
<path d="M0.685 0.951 Q0.875 0.948 0.911 0.855" stroke="hsl(0.0,100%,35%)" stroke-width="0.00118"></path>
<path d="M0.685 0.951 Q1.526 0.901 1.613 0.479" stroke="hsl(0.0,100%,35%)" stroke-width="0.00157"></path>
<path d="M0.685 0.951 Q1.180 0.825 1.041 0.556" stroke="hsl(0.0,100%,35%)" stroke-width="0.00118"></path>
<path d="M0.685 0.951 Q0.597 1.013 0.699 1.070" stroke="hsl(0.0,100%,35%)" stroke-width="0.00039"></path>
<path d="M0.685 0.951 Q0.653 1.011 0.763 1.040" stroke="hsl(0.0,100%,35%)" stroke-width="0.00039"></path>
<path d="M0.685 0.951 Q0.828 0.954 0.865 0.885" stroke="hsl(0.0,100%,35%)" stroke-width="0.00039"></path>
<path d="M0.685 0.951 Q0.675 0.962 0.694 0.969" stroke="hsl(0.0,100%,35%)" stroke-width="0.00079"></path>
<path d="M0.685 0.951 Q0.496 1.091 0.727 1.214" stroke="hsl(0.0,100%,35%)" stroke-width="0.00039"></path>
<path d="M0.685 0.951 Q1.503 0.395 0.598 -0.126" stroke="hsl(0.0,100%,35%)" stroke-width="0.00039"></path>
<path d="M1.416 0.395 Q0.396 0.363 0.108 0.853" stroke="hsl(0.0,100%,35%)" stroke-width="0.00039"></path>
<path d="M1.416 0.395 Q1.447 0.477 1.613 0.479" stroke="hsl(0.0,100%,35%)" stroke-width="0.00079"></path>
<path d="M1.416 0.395 Q0.967 0.695 1.452 0.980" stroke="hsl(0.0,100%,35%)" stroke-width="0.00039"></path>
<path d="M0.270 0.961 Q0.276 0.875 0.108 0.853" stroke="hsl(0.0,100%,35%)" stroke-width="0.00275"></path>
<path d="M0.270 0.961 Q0.486 1.039 0.685 0.951" stroke="hsl(0.0,100%,35%)" stroke-width="0.00039"></path>
<path d="M0.270 0.961 Q0.532 0.789 0.253 0.623" stroke="hsl(0.0,100%,35%)" stroke-width="0.00039"></path>
<path d="M0.960 0.877 Q1.116 0.891 1.179 0.818" stroke="hsl(0.0,100%,35%)" stroke-width="0.02866"></path>
<path d="M0.960 0.877 Q1.367 0.837 1.380 0.630" stroke="hsl(0.0,100%,35%)" stroke-width="0.00942"></path>
<path d="M0.960 0.877 Q1.258 0.732 1.041 0.556" stroke="hsl(0.0,100%,35%)" stroke-width="0.00039"></path>
<path d="M0.960 0.877 Q0.953 0.856 0.911 0.855" stroke="hsl(0.0,100%,35%)" stroke-width="0.00079"></path>
<path d="M0.960 0.877 Q0.763 0.859 0.685 0.951" stroke="hsl(0.0,100%,35%)" stroke-width="0.00118"></path>
<path d="M0.960 0.877 Q1.604 0.809 1.613 0.479" stroke="hsl(0.0,100%,35%)" stroke-width="0.00039"></path>
<path d="M1.206 0.669 Q1.324 0.684 1.380 0.630" stroke="hsl(0.0,100%,35%)" stroke-width="0.00275"></path>
<path d="M1.206 0.669 Q1.561 0.656 1.613 0.479" stroke="hsl(0.0,100%,35%)" stroke-width="0.00079"></path>
<path d="M1.206 0.669 Q1.073 0.738 1.179 0.818" stroke="hsl(0.0,100%,35%)" stroke-width="0.00118"></path>
<path d="M1.552 0.860 Q1.540 0.606 1.041 0.556" stroke="hsl(0.0,100%,35%)" stroke-width="0.00196"></path>
<path d="M1.552 0.860 Q1.650 0.711 1.380 0.630" stroke="hsl(0.0,100%,35%)" stroke-width="0.00393"></path>
<path d="M1.552 0.860 Q1.399 0.765 1.179 0.818" stroke="hsl(0.0,100%,35%)" stroke-width="0.00236"></path>
<path d="M1.552 0.860 Q0.836 0.568 0.108 0.853" stroke="hsl(0.0,100%,35%)" stroke-width="0.00039"></path>
<path d="M1.552 0.860 Q1.236 0.729 0.911 0.855" stroke="hsl(0.0,100%,35%)" stroke-width="0.00039"></path>
<path d="M1.230 0.346 Q1.315 0.489 1.613 0.479" stroke="hsl(0.0,100%,35%)" stroke-width="0.01178"></path>
<path d="M1.230 0.346 Q0.827 0.572 1.179 0.818" stroke="hsl(0.0,100%,35%)" stroke-width="0.00157"></path>
<path d="M1.230 0.346 Q0.264 0.375 0.108 0.853" stroke="hsl(0.0,100%,35%)" stroke-width="0.00039"></path>
<path d="M1.230 0.346 Q0.474 0.540 0.685 0.951" stroke="hsl(0.0,100%,35%)" stroke-width="0.00039"></path>
<path d="M1.387 0.497 Q1.514 0.533 1.613 0.479" stroke="hsl(0.0,100%,35%)" stroke-width="0.00196"></path>
<path d="M1.387 0.497 Q1.034 0.751 1.452 0.980" stroke="hsl(0.0,100%,35%)" stroke-width="0.00079"></path>
<path d="M1.387 0.497 Q1.430 0.390 1.230 0.346" stroke="hsl(0.0,100%,35%)" stroke-width="0.00039"></path>
<path d="M1.166 0.993 Q1.320 1.044 1.452 0.980" stroke="hsl(0.0,100%,35%)" stroke-width="0.00118"></path>
<path d="M1.166 0.993 Q1.313 0.908 1.179 0.818" stroke="hsl(0.0,100%,35%)" stroke-width="0.00039"></path>
<path d="M1.166 0.993 Q0.749 0.712 0.108 0.853" stroke="hsl(0.0,100%,35%)" stroke-width="0.00039"></path>
<path d="M0.521 0.728 Q0.778 0.904 1.179 0.818" stroke="hsl(0.0,100%,35%)" stroke-width="0.00118"></path>
<path d="M0.521 0.728 Q0.567 0.875 0.865 0.885" stroke="hsl(0.0,100%,35%)" stroke-width="0.00079"></path>
<path d="M0.521 0.728 Q0.214 0.708 0.108 0.853" stroke="hsl(0.0,100%,35%)" stroke-width="0.00039"></path>
<path d="M0.521 0.728 Q1.000 0.657 0.968 0.408" stroke="hsl(0.0,100%,35%)" stroke-width="0.00118"></path>
<path d="M0.521 0.728 Q0.424 0.872 0.685 0.951" stroke="hsl(0.0,100%,35%)" stroke-width="0.00118"></path>
<path d="M0.865 0.885 Q0.722 0.882 0.685 0.951" stroke="hsl(0.0,100%,35%)" stroke-width="0.00707"></path>
<path d="M0.865 0.885 Q1.298 0.667 0.968 0.408" stroke="hsl(0.0,100%,35%)" stroke-width="0.00471"></path>
<path d="M0.865 0.885 Q0.599 0.805 0.385 0.917" stroke="hsl(0.0,100%,35%)" stroke-width="0.00039"></path>
<path d="M1.063 0.648 Q0.992 0.892 1.452 0.980" stroke="hsl(0.0,100%,35%)" stroke-width="0.00039"></path>
<path d="M1.063 0.648 Q0.821 0.721 0.911 0.855" stroke="hsl(0.0,100%,35%)" stroke-width="0.00039"></path>
<path d="M1.063 0.648 Q0.984 0.756 1.179 0.818" stroke="hsl(0.0,100%,35%)" stroke-width="0.00039"></path>
<path d="M1.019 0.736 Q1.033 0.809 1.179 0.818" stroke="hsl(0.0,100%,35%)" stroke-width="0.01139"></path>
<path d="M1.019 0.736 Q0.679 0.777 0.685 0.951" stroke="hsl(0.0,100%,35%)" stroke-width="0.00079"></path>
<path d="M1.019 0.736 Q1.284 0.755 1.380 0.630" stroke="hsl(0.0,100%,35%)" stroke-width="0.00432"></path>
<path d="M1.832 0.901 Q1.801 0.845 1.684 0.847" stroke="hsl(0.0,100%,35%)" stroke-width="0.00628"></path>
<path d="M1.832 0.901 Q1.572 0.729 1.179 0.818" stroke="hsl(0.0,100%,35%)" stroke-width="0.00903"></path>
<path d="M1.832 0.901 Q1.218 0.697 0.685 0.951" stroke="hsl(0.0,100%,35%)" stroke-width="0.00471"></path>
<path d="M1.832 0.901 Q1.579 0.865 1.452 0.980" stroke="hsl(0.0,100%,35%)" stroke-width="0.00039"></path>
<path d="M1.832 0.901 Q1.401 0.554 0.628 0.688" stroke="hsl(0.0,100%,35%)" stroke-width="0.00039"></path>
<path d="M1.684 0.847 Q1.715 0.904 1.832 0.901" stroke="hsl(0.0,100%,35%)" stroke-width="0.00393"></path>
<path d="M1.684 0.847 Q1.455 0.732 1.179 0.818" stroke="hsl(0.0,100%,35%)" stroke-width="0.00510"></path>
<path d="M1.684 0.847 Q1.101 0.700 0.685 0.951" stroke="hsl(0.0,100%,35%)" stroke-width="0.00353"></path>
<path d="M0.385 0.917 Q1.084 0.779 0.968 0.408" stroke="hsl(0.0,100%,35%)" stroke-width="0.01256"></path>
<path d="M0.385 0.917 Q0.861 1.027 1.179 0.818" stroke="hsl(0.0,100%,35%)" stroke-width="0.02473"></path>
<path d="M0.385 0.917 Q0.651 0.997 0.865 0.885" stroke="hsl(0.0,100%,35%)" stroke-width="0.00393"></path>
<path d="M0.385 0.917 Q0.837 0.820 0.745 0.578" stroke="hsl(0.0,100%,35%)" stroke-width="0.01060"></path>
<path d="M0.385 0.917 Q0.508 0.994 0.685 0.951" stroke="hsl(0.0,100%,35%)" stroke-width="0.02670"></path>
<path d="M0.385 0.917 Q0.298 0.830 0.108 0.853" stroke="hsl(0.0,100%,35%)" stroke-width="0.00039"></path>
<path d="M0.385 0.917 Q1.112 0.973 1.380 0.630" stroke="hsl(0.0,100%,35%)" stroke-width="0.00039"></path>
<path d="M0.957 0.279 Q0.283 0.561 0.685 0.951" stroke="hsl(0.0,100%,35%)" stroke-width="0.00039"></path>
<path d="M0.957 0.279 Q0.859 0.346 0.968 0.408" stroke="hsl(0.0,100%,35%)" stroke-width="0.00039"></path>
<path d="M0.957 0.279 Q0.426 0.564 0.865 0.885" stroke="hsl(0.0,100%,35%)" stroke-width="0.00039"></path>
<path d="M0.661 0.693 Q0.820 0.859 1.179 0.818" stroke="hsl(0.0,100%,35%)" stroke-width="0.00079"></path>
<path d="M0.661 0.693 Q0.466 0.827 0.685 0.951" stroke="hsl(0.0,100%,35%)" stroke-width="0.00039"></path>
<path d="M0.661 0.693 Q1.049 0.975 1.684 0.847" stroke="hsl(0.0,100%,35%)" stroke-width="0.00039"></path>
<path d="M0.943 0.684 Q1.204 0.745 1.380 0.630" stroke="hsl(0.0,100%,35%)" stroke-width="0.00628"></path>
<path d="M0.943 0.684 Q0.954 0.798 1.179 0.818" stroke="hsl(0.0,100%,35%)" stroke-width="0.01099"></path>
<path d="M0.943 0.684 Q0.600 0.766 0.685 0.951" stroke="hsl(0.0,100%,35%)" stroke-width="0.00039"></path>
<path d="M0.943 0.684 Q0.798 0.784 0.960 0.877" stroke="hsl(0.0,100%,35%)" stroke-width="0.00118"></path>
<path d="M0.943 0.684 Q0.961 0.934 1.452 0.980" stroke="hsl(0.0,100%,35%)" stroke-width="0.00039"></path>
<path d="M0.943 0.684 Q1.095 0.640 1.041 0.556" stroke="hsl(0.0,100%,35%)" stroke-width="0.00079"></path>
<path d="M0.745 0.578 Q0.416 0.753 0.685 0.951" stroke="hsl(0.0,100%,35%)" stroke-width="0.00667"></path>
<path d="M0.745 0.578 Q0.770 0.785 1.179 0.818" stroke="hsl(0.0,100%,35%)" stroke-width="0.00707"></path>
<path d="M0.745 0.578 Q0.992 0.538 0.968 0.408" stroke="hsl(0.0,100%,35%)" stroke-width="0.00667"></path>
<path d="M0.745 0.578 Q0.293 0.676 0.385 0.917" stroke="hsl(0.0,100%,35%)" stroke-width="0.00432"></path>
<path d="M0.745 0.578 Q0.559 0.755 0.865 0.885" stroke="hsl(0.0,100%,35%)" stroke-width="0.00118"></path>
<path d="M0.745 0.578 Q0.621 0.536 0.513 0.587" stroke="hsl(0.0,100%,35%)" stroke-width="0.00039"></path>
<path d="M0.832 0.662 Q1.103 0.562 0.968 0.408" stroke="hsl(0.0,100%,35%)" stroke-width="0.00079"></path>
<path d="M0.832 0.662 Q0.404 0.700 0.385 0.917" stroke="hsl(0.0,100%,35%)" stroke-width="0.00039"></path>
<path d="M0.832 0.662 Q0.881 0.810 1.179 0.818" stroke="hsl(0.0,100%,35%)" stroke-width="0.00118"></path>
<path d="M0.832 0.662 Q0.856 0.603 0.745 0.578" stroke="hsl(0.0,100%,35%)" stroke-width="0.00079"></path>
<path d="M0.628 0.688 Q0.636 0.828 0.911 0.855" stroke="hsl(0.0,100%,35%)" stroke-width="0.00039"></path>
<path d="M0.628 0.688 Q0.799 0.863 1.179 0.818" stroke="hsl(0.0,100%,35%)" stroke-width="0.00039"></path>
<path d="M0.628 0.688 Q0.864 0.610 0.764 0.478" stroke="hsl(0.0,100%,35%)" stroke-width="0.00039"></path>
<path d="M0.628 0.688 Q0.236 0.667 0.108 0.853" stroke="hsl(0.0,100%,35%)" stroke-width="0.00039"></path>
<path d="M0.740 0.467 Q0.679 0.730 1.179 0.818" stroke="hsl(0.0,100%,35%)" stroke-width="0.00079"></path>
<path d="M0.740 0.467 Q0.654 0.523 0.745 0.578" stroke="hsl(0.0,100%,35%)" stroke-width="0.00157"></path>
<path d="M0.740 0.467 Q0.325 0.698 0.685 0.951" stroke="hsl(0.0,100%,35%)" stroke-width="0.00079"></path>
<path d="M0.165 0.698 Q0.413 0.925 0.911 0.855" stroke="hsl(0.0,100%,35%)" stroke-width="0.00236"></path>
<path d="M0.165 0.698 Q0.012 0.764 0.108 0.853" stroke="hsl(0.0,100%,35%)" stroke-width="0.00079"></path>
<path d="M0.165 0.698 Q0.576 0.961 1.179 0.818" stroke="hsl(0.0,100%,35%)" stroke-width="0.00118"></path>
<path d="M0.165 0.698 Q1.064 0.878 1.613 0.479" stroke="hsl(0.0,100%,35%)" stroke-width="0.00039"></path>
<path d="M1.055 0.643 Q0.977 0.756 1.179 0.818" stroke="hsl(0.0,100%,35%)" stroke-width="0.00196"></path>
<path d="M1.055 0.643 Q0.413 0.559 0.108 0.853" stroke="hsl(0.0,100%,35%)" stroke-width="0.00039"></path>
<path d="M1.055 0.643 Q1.199 0.508 0.968 0.408" stroke="hsl(0.0,100%,35%)" stroke-width="0.00039"></path>
<path d="M1.055 0.643 Q1.118 0.597 1.041 0.556" stroke="hsl(0.0,100%,35%)" stroke-width="0.00039"></path>
<path d="M0.339 0.865 Q0.804 1.145 1.452 0.980" stroke="hsl(0.0,100%,35%)" stroke-width="0.00039"></path>
<path d="M0.339 0.865 Q0.233 0.813 0.108 0.853" stroke="hsl(0.0,100%,35%)" stroke-width="0.00236"></path>
<path d="M0.339 0.865 Q1.019 0.763 0.968 0.408" stroke="hsl(0.0,100%,35%)" stroke-width="0.00039"></path>
</g>
<text x="1.041" y="0.531" font-size="0.048733" fill="hsl(0.0,100%,20%)">abdolrashidi</text>
<text x="1.380" y="0.597" font-size="0.067387" fill="hsl(0.0,100%,20%)">cclao</text>
<text x="1.179" y="0.768" font-size="0.099752" fill="hsl(0.0,100%,20%)">syoussefi</text>
<text x="1.452" y="0.954" font-size="0.050397" fill="hsl(0.0,100%,20%)">romanl</text>
<text x="1.613" y="0.458" font-size="0.042722" fill="hsl(0.0,100%,20%)">cnorthrop</text>
<text x="0.108" y="0.835" font-size="0.036924" fill="hsl(0.0,100%,20%)">ynovikov</text>
<text x="0.587" y="0.339" font-size="0.015553" fill="hsl(0.0,100%,20%)">zzyiwei</text>
<text x="0.911" y="0.833" font-size="0.043361" fill="hsl(0.0,100%,20%)">yuxinhu</text>
<text x="0.685" y="0.921" font-size="0.061232" fill="hsl(0.0,100%,20%)">geofflang</text>
<text x="1.416" y="0.392" font-size="0.006632" fill="hsl(0.0,100%,20%)">banisingh</text>
<text x="0.270" y="0.953" font-size="0.016244" fill="hsl(0.0,100%,20%)">bsheedy</text>
<text x="0.253" y="0.622" font-size="0.003316" fill="hsl(0.0,100%,20%)">chanli</text>
<text x="0.960" y="0.858" font-size="0.036475" fill="hsl(0.0,100%,20%)">m.maiya</text>
<text x="1.206" y="0.660" font-size="0.019048" fill="hsl(0.0,100%,20%)">chrisforbes</text>
<text x="1.552" y="0.852" font-size="0.016908" fill="hsl(0.0,100%,20%)">hailinzhang</text>
<text x="1.656" y="0.663" font-size="0.003316" fill="hsl(0.0,100%,20%)">gregschlom</text>
<text x="1.609" y="0.709" font-size="0.003316" fill="hsl(0.0,100%,20%)">slumpwuffle</text>
<text x="1.230" y="0.335" font-size="0.022733" fill="hsl(0.0,100%,20%)">mark</text>
<text x="1.387" y="0.491" font-size="0.011956" fill="hsl(0.0,100%,20%)">mikes</text>
<text x="1.791" y="0.418" font-size="0.005743" fill="hsl(0.0,100%,20%)">lpy</text>
<text x="1.166" y="0.989" font-size="0.007415" fill="hsl(0.0,100%,20%)">dextero</text>
<text x="0.521" y="0.722" font-size="0.011487" fill="hsl(0.0,100%,20%)">djg</text>
<text x="0.865" y="0.873" font-size="0.023447" fill="hsl(0.0,100%,20%)">lehoangquyen</text>
<text x="0.968" y="0.394" font-size="0.028716" fill="hsl(0.0,100%,20%)">kbr</text>
<text x="1.063" y="0.645" font-size="0.005743" fill="hsl(0.0,100%,20%)">dloehr</text>
<text x="1.019" y="0.725" font-size="0.021489" fill="hsl(0.0,100%,20%)">g.tammana</text>
<text x="1.832" y="0.887" font-size="0.028716" fill="hsl(0.0,100%,20%)">liza</text>
<text x="1.684" y="0.835" font-size="0.025253" fill="hsl(0.0,100%,20%)">mpdenton</text>
<text x="0.747" y="0.470" font-size="0.003316" fill="hsl(0.0,100%,20%)">penghuang</text>
<text x="0.385" y="0.893" font-size="0.049405" fill="hsl(0.0,100%,20%)">lexa.knyazev</text>
<text x="0.755" y="0.547" font-size="0.003316" fill="hsl(0.0,100%,20%)">jamesgk</text>
<text x="0.699" y="1.068" font-size="0.003316" fill="hsl(0.0,100%,20%)">johnstiles</text>
<text x="0.763" y="1.039" font-size="0.003316" fill="hsl(0.0,100%,20%)">vasilyt</text>
<text x="0.694" y="0.967" font-size="0.004689" fill="hsl(0.0,100%,20%)">zmo</text>
<text x="0.727" y="1.212" font-size="0.003316" fill="hsl(0.0,100%,20%)">dsinclair</text>
<text x="0.598" y="-0.128" font-size="0.003316" fill="hsl(0.0,100%,20%)">cwallez</text>
<text x="0.957" y="0.276" font-size="0.005743" fill="hsl(0.0,100%,20%)">gman</text>
<text x="0.661" y="0.690" font-size="0.006632" fill="hsl(0.0,100%,20%)">hocheung</text>
<text x="0.943" y="0.672" font-size="0.024591" fill="hsl(0.0,100%,20%)">i.nazarov</text>
<text x="0.745" y="0.561" font-size="0.033159" fill="hsl(0.0,100%,20%)">kkinnunen</text>
<text x="0.513" y="0.585" font-size="0.003316" fill="hsl(0.0,100%,20%)">kpiddington</text>
<text x="0.832" y="0.657" font-size="0.009379" fill="hsl(0.0,100%,20%)">lerica</text>
<text x="0.628" y="0.684" font-size="0.007415" fill="hsl(0.0,100%,20%)">sokcevic</text>
<text x="0.740" y="0.463" font-size="0.009379" fill="hsl(0.0,100%,20%)">mscott</text>
<text x="1.600" y="0.886" font-size="0.003316" fill="hsl(0.0,100%,20%)">zijiehe</text>
<text x="0.165" y="0.691" font-size="0.014454" fill="hsl(0.0,100%,20%)">solti</text>
<text x="0.764" y="0.477" font-size="0.003316" fill="hsl(0.0,100%,20%)">jwata</text>
<text x="1.055" y="0.638" font-size="0.009948" fill="hsl(0.0,100%,20%)">steven</text>
<text x="1.383" y="0.057" font-size="0.004689" fill="hsl(0.0,100%,20%)">a.annestrand</text>
<text x="0.339" y="0.861" font-size="0.009379" fill="hsl(0.0,100%,20%)">tikuta</text>
<text x="0.666" y="0.260" font-size="0.003316" fill="hsl(0.0,100%,20%)">lepton</text>
</svg>
