<svg width="4000" height="2000" viewBox="-0.025 -0.025 2.05 1.05" xmlns="http://www.w3.org/2000/svg">
  <style>
    path {
      fill: none;
      stroke-linecap: round;
      stroke-opacity: 0.4;
    }

    text {
      text-anchor: middle;
      alignment-baseline: hanging;
    }
  </style>
  <g opacity="0.4">
<path d="M1.213 0.804 Q1.324 0.825 1.389 0.775" stroke="hsl(0.0,100%,35%)" stroke-width="0.01262"></path>
<path d="M1.213 0.804 Q1.171 0.866 1.283 0.900" stroke="hsl(0.0,100%,35%)" stroke-width="0.00841"></path>
<path d="M1.213 0.804 Q1.140 0.849 1.210 0.894" stroke="hsl(0.0,100%,35%)" stroke-width="0.00421"></path>
<path d="M1.213 0.804 Q1.587 0.429 0.936 0.165" stroke="hsl(0.0,100%,35%)" stroke-width="0.00421"></path>
<path d="M1.213 0.804 Q1.145 0.732 0.989 0.750" stroke="hsl(0.0,100%,35%)" stroke-width="0.00421"></path>
<path d="M1.213 0.804 Q1.103 0.728 0.931 0.766" stroke="hsl(0.0,100%,35%)" stroke-width="0.00421"></path>
<path d="M1.213 0.804 Q1.332 0.856 1.458 0.809" stroke="hsl(0.0,100%,35%)" stroke-width="0.00421"></path>
<path d="M1.213 0.804 Q1.397 0.319 0.490 0.123" stroke="hsl(0.0,100%,35%)" stroke-width="0.00421"></path>
<path d="M0.959 0.250 Q0.754 0.599 1.389 0.775" stroke="hsl(90.0,100%,35%)" stroke-width="0.00421"></path>
<path d="M0.959 0.250 Q1.121 0.275 1.206 0.202" stroke="hsl(90.0,100%,35%)" stroke-width="0.00421"></path>
<path d="M0.959 0.250 Q1.473 0.339 1.759 0.107" stroke="hsl(90.0,100%,35%)" stroke-width="0.00421"></path>
<path d="M0.959 0.250 Q0.805 0.127 0.532 0.176" stroke="hsl(90.0,100%,35%)" stroke-width="0.00421"></path>
<path d="M0.959 0.250 Q1.049 0.245 1.058 0.199" stroke="hsl(90.0,100%,35%)" stroke-width="0.00421"></path>
<path d="M0.358 0.245 Q-0.112 0.387 0.062 0.648" stroke="hsl(180.0,100%,35%)" stroke-width="0.00421"></path>
<path d="M0.358 0.245 Q0.376 0.605 1.082 0.675" stroke="hsl(180.0,100%,35%)" stroke-width="0.00841"></path>
<path d="M0.358 0.245 Q0.229 0.189 0.090 0.239" stroke="hsl(180.0,100%,35%)" stroke-width="0.00421"></path>
<path d="M0.358 0.245 Q0.315 0.149 0.118 0.149" stroke="hsl(180.0,100%,35%)" stroke-width="0.00421"></path>
<path d="M0.358 0.245 Q0.679 0.810 1.850 0.777" stroke="hsl(180.0,100%,35%)" stroke-width="0.00421"></path>
<path d="M0.358 0.245 Q0.265 0.740 1.210 0.894" stroke="hsl(180.0,100%,35%)" stroke-width="0.00421"></path>
<path d="M0.358 0.245 Q0.459 0.292 0.571 0.253" stroke="hsl(180.0,100%,35%)" stroke-width="0.00421"></path>
<path d="M0.358 0.245 Q1.060 0.618 1.942 0.357" stroke="hsl(180.0,100%,35%)" stroke-width="0.00421"></path>
<path d="M0.358 0.245 Q0.600 0.305 0.770 0.200" stroke="hsl(180.0,100%,35%)" stroke-width="0.00421"></path>
<path d="M0.358 0.245 Q0.422 0.163 0.276 0.114" stroke="hsl(180.0,100%,35%)" stroke-width="0.00421"></path>
<path d="M0.358 0.245 Q0.407 0.848 1.594 0.956" stroke="hsl(180.0,100%,35%)" stroke-width="0.00421"></path>
<path d="M0.358 0.245 Q-0.199 0.460 0.097 0.779" stroke="hsl(180.0,100%,35%)" stroke-width="0.00421"></path>
<path d="M0.358 0.245 Q0.443 0.236 0.444 0.193" stroke="hsl(180.0,100%,35%)" stroke-width="0.00421"></path>
<path d="M0.358 0.245 Q0.500 0.245 0.532 0.176" stroke="hsl(180.0,100%,35%)" stroke-width="0.00421"></path>
<path d="M0.358 0.245 Q0.180 0.226 0.104 0.309" stroke="hsl(180.0,100%,35%)" stroke-width="0.00421"></path>
<path d="M0.358 0.245 Q0.292 0.803 1.365 0.957" stroke="hsl(180.0,100%,35%)" stroke-width="0.00421"></path>
<path d="M0.358 0.245 Q0.261 0.239 0.228 0.286" stroke="hsl(180.0,100%,35%)" stroke-width="0.00421"></path>
<path d="M0.358 0.245 Q0.205 0.221 0.124 0.290" stroke="hsl(180.0,100%,35%)" stroke-width="0.00421"></path>
<path d="M0.062 0.648 Q0.196 0.688 0.304 0.632" stroke="hsl(90.0,100%,35%)" stroke-width="0.01683"></path>
<path d="M0.062 0.648 Q0.108 0.704 0.228 0.694" stroke="hsl(90.0,100%,35%)" stroke-width="0.00421"></path>
<path d="M0.062 0.648 Q0.366 0.627 0.391 0.474" stroke="hsl(90.0,100%,35%)" stroke-width="0.00421"></path>
<path d="M1.082 0.675 Q1.012 0.373 0.406 0.340" stroke="hsl(180.0,100%,35%)" stroke-width="0.00421"></path>
<path d="M1.082 0.675 Q1.196 0.667 1.205 0.610" stroke="hsl(180.0,100%,35%)" stroke-width="0.00421"></path>
<path d="M1.082 0.675 Q1.582 0.357 1.069 0.043" stroke="hsl(180.0,100%,35%)" stroke-width="0.00421"></path>
<path d="M1.082 0.675 Q0.959 0.694 0.969 0.758" stroke="hsl(180.0,100%,35%)" stroke-width="0.00421"></path>
<path d="M1.942 0.357 Q1.701 0.256 1.451 0.351" stroke="hsl(0.0,100%,35%)" stroke-width="0.00421"></path>
<path d="M1.942 0.357 Q1.488 0.471 1.610 0.718" stroke="hsl(0.0,100%,35%)" stroke-width="0.00421"></path>
<path d="M1.942 0.357 Q1.946 0.257 1.751 0.233" stroke="hsl(0.0,100%,35%)" stroke-width="0.01262"></path>
<path d="M1.942 0.357 Q1.994 0.315 1.923 0.280" stroke="hsl(0.0,100%,35%)" stroke-width="0.00421"></path>
<path d="M1.942 0.357 Q1.864 0.289 1.713 0.312" stroke="hsl(0.0,100%,35%)" stroke-width="0.00421"></path>
<path d="M1.942 0.357 Q1.245 0.244 0.871 0.559" stroke="hsl(0.0,100%,35%)" stroke-width="0.00421"></path>
<path d="M1.942 0.357 Q1.831 0.293 1.681 0.333" stroke="hsl(0.0,100%,35%)" stroke-width="0.00841"></path>
<path d="M1.594 0.956 Q1.678 0.915 1.616 0.865" stroke="hsl(0.0,100%,35%)" stroke-width="0.00421"></path>
<path d="M1.594 0.956 Q1.595 0.893 1.471 0.878" stroke="hsl(0.0,100%,35%)" stroke-width="0.00841"></path>
<path d="M1.594 0.956 Q1.479 0.911 1.365 0.957" stroke="hsl(0.0,100%,35%)" stroke-width="0.00841"></path>
<path d="M0.097 0.779 Q0.902 1.051 1.610 0.718" stroke="hsl(0.0,100%,35%)" stroke-width="0.00421"></path>
<path d="M0.097 0.779 Q1.102 0.947 1.651 0.493" stroke="hsl(0.0,100%,35%)" stroke-width="0.00841"></path>
<path d="M0.097 0.779 Q0.020 0.856 0.155 0.911" stroke="hsl(0.0,100%,35%)" stroke-width="0.00841"></path>
<path d="M0.097 0.779 Q0.131 0.824 0.225 0.817" stroke="hsl(0.0,100%,35%)" stroke-width="0.00841"></path>
<path d="M0.866 0.031 Q0.959 0.078 1.069 0.043" stroke="hsl(0.0,100%,35%)" stroke-width="0.00421"></path>
<path d="M0.866 0.031 Q0.605 0.002 0.490 0.123" stroke="hsl(0.0,100%,35%)" stroke-width="0.00421"></path>
<path d="M0.866 0.031 Q0.630 0.148 0.807 0.289" stroke="hsl(0.0,100%,35%)" stroke-width="0.00421"></path>
<path d="M0.866 0.031 Q0.857 0.057 0.905 0.068" stroke="hsl(0.0,100%,35%)" stroke-width="0.00421"></path>
<path d="M0.866 0.031 Q0.689 0.523 1.610 0.718" stroke="hsl(0.0,100%,35%)" stroke-width="0.00841"></path>
<path d="M0.866 0.031 Q0.793 0.019 0.753 0.052" stroke="hsl(0.0,100%,35%)" stroke-width="0.00421"></path>
<path d="M0.866 0.031 Q0.978 0.114 1.163 0.077" stroke="hsl(0.0,100%,35%)" stroke-width="0.00421"></path>
<path d="M0.669 0.279 Q0.070 0.342 0.062 0.648" stroke="hsl(0.0,100%,35%)" stroke-width="0.00421"></path>
<path d="M0.669 0.279 Q0.630 0.268 0.599 0.284" stroke="hsl(0.0,100%,35%)" stroke-width="0.00421"></path>
<path d="M0.669 0.279 Q0.571 0.272 0.535 0.318" stroke="hsl(0.0,100%,35%)" stroke-width="0.00421"></path>
<path d="M0.669 0.279 Q0.675 0.313 0.743 0.318" stroke="hsl(0.0,100%,35%)" stroke-width="0.00841"></path>
<path d="M0.669 0.279 Q0.674 0.228 0.576 0.215" stroke="hsl(0.0,100%,35%)" stroke-width="0.00421"></path>
<path d="M0.669 0.279 Q0.729 0.312 0.807 0.289" stroke="hsl(0.0,100%,35%)" stroke-width="0.00421"></path>
<path d="M1.156 0.394 Q0.992 0.352 0.875 0.423" stroke="hsl(90.0,100%,35%)" stroke-width="0.02945"></path>
<path d="M1.156 0.394 Q0.710 0.281 0.391 0.474" stroke="hsl(90.0,100%,35%)" stroke-width="0.00421"></path>
<path d="M1.156 0.394 Q1.230 0.235 0.936 0.165" stroke="hsl(90.0,100%,35%)" stroke-width="0.00421"></path>
<path d="M1.156 0.394 Q1.031 0.444 1.100 0.516" stroke="hsl(90.0,100%,35%)" stroke-width="0.04207"></path>
<path d="M0.391 0.474 Q0.248 0.464 0.197 0.531" stroke="hsl(90.0,100%,35%)" stroke-width="0.00841"></path>
<path d="M0.391 0.474 Q0.264 0.407 0.107 0.455" stroke="hsl(90.0,100%,35%)" stroke-width="0.00421"></path>
<path d="M0.391 0.474 Q0.674 0.545 0.875 0.423" stroke="hsl(90.0,100%,35%)" stroke-width="0.00421"></path>
<path d="M0.107 0.455 Q0.234 0.521 0.391 0.474" stroke="hsl(90.0,100%,35%)" stroke-width="0.00841"></path>
<path d="M0.107 0.455 Q0.516 0.593 0.875 0.423" stroke="hsl(90.0,100%,35%)" stroke-width="0.00841"></path>
<path d="M0.107 0.455 Q0.848 0.783 1.651 0.493" stroke="hsl(90.0,100%,35%)" stroke-width="0.00421"></path>
<path d="M0.107 0.455 Q1.146 0.540 1.541 0.052" stroke="hsl(90.0,100%,35%)" stroke-width="0.00421"></path>
<path d="M1.432 0.249 Q1.604 0.305 1.751 0.233" stroke="hsl(0.0,100%,35%)" stroke-width="0.00841"></path>
<path d="M1.432 0.249 Q0.787 0.210 0.568 0.516" stroke="hsl(0.0,100%,35%)" stroke-width="0.00421"></path>
<path d="M1.432 0.249 Q1.608 0.249 1.646 0.164" stroke="hsl(0.0,100%,35%)" stroke-width="0.00421"></path>
<path d="M1.432 0.249 Q1.404 0.139 1.181 0.128" stroke="hsl(0.0,100%,35%)" stroke-width="0.00421"></path>
<path d="M1.432 0.249 Q1.335 0.259 1.332 0.308" stroke="hsl(0.0,100%,35%)" stroke-width="0.00841"></path>
<path d="M1.432 0.249 Q1.329 0.184 1.178 0.220" stroke="hsl(0.0,100%,35%)" stroke-width="0.01262"></path>
<path d="M1.432 0.249 Q0.264 0.324 0.155 0.911" stroke="hsl(0.0,100%,35%)" stroke-width="0.00421"></path>
<path d="M1.432 0.249 Q1.442 0.161 1.271 0.137" stroke="hsl(0.0,100%,35%)" stroke-width="0.00421"></path>
<path d="M1.751 0.233 Q1.754 0.177 1.646 0.164" stroke="hsl(0.0,100%,35%)" stroke-width="0.00841"></path>
<path d="M1.751 0.233 Q1.856 0.172 1.759 0.107" stroke="hsl(0.0,100%,35%)" stroke-width="0.00421"></path>
<path d="M1.751 0.233 Q1.690 0.229 1.669 0.258" stroke="hsl(0.0,100%,35%)" stroke-width="0.00421"></path>
<path d="M1.751 0.233 Q1.568 0.219 1.500 0.305" stroke="hsl(0.0,100%,35%)" stroke-width="0.00421"></path>
<path d="M1.651 0.493 Q1.519 0.528 1.559 0.600" stroke="hsl(0.0,100%,35%)" stroke-width="0.08413"></path>
<path d="M1.651 0.493 Q1.451 0.598 1.610 0.718" stroke="hsl(0.0,100%,35%)" stroke-width="0.00841"></path>
<path d="M1.651 0.493 Q1.234 0.182 0.535 0.318" stroke="hsl(0.0,100%,35%)" stroke-width="0.00421"></path>
<path d="M1.651 0.493 Q1.810 0.478 1.815 0.397" stroke="hsl(0.0,100%,35%)" stroke-width="0.00421"></path>
<path d="M1.917 0.725 Q1.778 0.757 1.810 0.831" stroke="hsl(0.0,100%,35%)" stroke-width="0.03365"></path>
<path d="M1.917 0.725 Q1.909 0.639 1.740 0.624" stroke="hsl(0.0,100%,35%)" stroke-width="0.00421"></path>
<path d="M1.917 0.725 Q2.227 0.446 1.751 0.233" stroke="hsl(0.0,100%,35%)" stroke-width="0.00841"></path>
<path d="M1.917 0.725 Q1.455 0.730 1.365 0.957" stroke="hsl(0.0,100%,35%)" stroke-width="0.00841"></path>
<path d="M1.917 0.725 Q1.769 0.660 1.610 0.718" stroke="hsl(0.0,100%,35%)" stroke-width="0.01262"></path>
<path d="M1.917 0.725 Q2.035 0.661 1.936 0.589" stroke="hsl(0.0,100%,35%)" stroke-width="0.00421"></path>
<path d="M1.917 0.725 Q1.889 0.660 1.758 0.660" stroke="hsl(0.0,100%,35%)" stroke-width="0.00421"></path>
<path d="M1.917 0.725 Q1.842 0.737 1.850 0.777" stroke="hsl(0.0,100%,35%)" stroke-width="0.00421"></path>
<path d="M1.917 0.725 Q1.838 0.591 1.559 0.600" stroke="hsl(0.0,100%,35%)" stroke-width="0.00841"></path>
<path d="M1.917 0.725 Q1.969 0.556 1.651 0.493" stroke="hsl(0.0,100%,35%)" stroke-width="0.00421"></path>
<path d="M1.917 0.725 Q1.304 0.466 0.664 0.708" stroke="hsl(0.0,100%,35%)" stroke-width="0.00421"></path>
<path d="M0.664 0.708 Q0.785 0.668 0.733 0.600" stroke="hsl(180.0,100%,35%)" stroke-width="0.01262"></path>
<path d="M0.664 0.708 Q0.887 0.675 0.871 0.559" stroke="hsl(180.0,100%,35%)" stroke-width="0.02945"></path>
<path d="M0.664 0.708 Q0.515 0.688 0.443 0.756" stroke="hsl(180.0,100%,35%)" stroke-width="0.03786"></path>
<path d="M0.733 0.600 Q0.354 0.688 0.442 0.892" stroke="hsl(180.0,100%,35%)" stroke-width="0.00421"></path>
<path d="M0.733 0.600 Q0.815 0.658 0.947 0.630" stroke="hsl(180.0,100%,35%)" stroke-width="0.00421"></path>
<path d="M0.733 0.600 Q0.835 0.607 0.871 0.559" stroke="hsl(180.0,100%,35%)" stroke-width="0.02103"></path>
<path d="M0.733 0.600 Q0.612 0.640 0.664 0.708" stroke="hsl(180.0,100%,35%)" stroke-width="0.00421"></path>
<path d="M1.541 0.052 Q1.043 0.399 1.610 0.718" stroke="hsl(90.0,100%,35%)" stroke-width="0.00421"></path>
<path d="M1.541 0.052 Q1.511 0.093 1.585 0.117" stroke="hsl(90.0,100%,35%)" stroke-width="0.00421"></path>
<path d="M1.541 0.052 Q1.615 0.092 1.710 0.065" stroke="hsl(90.0,100%,35%)" stroke-width="0.00421"></path>
<path d="M1.541 0.052 Q1.438 0.051 1.413 0.101" stroke="hsl(90.0,100%,35%)" stroke-width="0.00421"></path>
<path d="M0.442 0.892 Q0.345 0.914 0.367 0.965" stroke="hsl(180.0,100%,35%)" stroke-width="0.00421"></path>
<path d="M0.442 0.892 Q1.562 0.820 1.669 0.258" stroke="hsl(180.0,100%,35%)" stroke-width="0.00421"></path>
<path d="M0.442 0.892 Q0.699 0.844 0.664 0.708" stroke="hsl(180.0,100%,35%)" stroke-width="0.00421"></path>
<path d="M0.442 0.892 Q0.596 0.906 0.658 0.834" stroke="hsl(180.0,100%,35%)" stroke-width="0.00421"></path>
<path d="M0.658 0.834 Q0.585 0.867 0.634 0.910" stroke="hsl(180.0,100%,35%)" stroke-width="0.00421"></path>
<path d="M0.658 0.834 Q0.504 0.819 0.442 0.892" stroke="hsl(180.0,100%,35%)" stroke-width="0.00421"></path>
<path d="M0.658 0.834 Q0.613 0.752 0.443 0.756" stroke="hsl(180.0,100%,35%)" stroke-width="0.01683"></path>
<path d="M0.658 0.834 Q0.985 0.739 0.871 0.559" stroke="hsl(180.0,100%,35%)" stroke-width="0.00421"></path>
<path d="M0.954 0.870 Q0.841 0.903 0.880 0.965" stroke="hsl(90.0,100%,35%)" stroke-width="0.00421"></path>
<path d="M0.954 0.870 Q1.045 0.801 0.931 0.742" stroke="hsl(90.0,100%,35%)" stroke-width="0.00421"></path>
<path d="M0.954 0.870 Q1.045 0.615 0.568 0.516" stroke="hsl(90.0,100%,35%)" stroke-width="0.00421"></path>
<path d="M0.406 0.340 Q0.286 0.309 0.198 0.360" stroke="hsl(180.0,100%,35%)" stroke-width="0.00421"></path>
<path d="M0.406 0.340 Q0.458 0.283 0.358 0.245" stroke="hsl(180.0,100%,35%)" stroke-width="0.00841"></path>
<path d="M0.406 0.340 Q0.402 0.372 0.464 0.381" stroke="hsl(180.0,100%,35%)" stroke-width="0.00421"></path>
<path d="M0.406 0.340 Q0.476 0.643 1.082 0.675" stroke="hsl(180.0,100%,35%)" stroke-width="0.00421"></path>
<path d="M0.406 0.340 Q0.511 0.368 0.589 0.323" stroke="hsl(180.0,100%,35%)" stroke-width="0.00421"></path>
<path d="M0.406 0.340 Q0.137 0.638 0.658 0.834" stroke="hsl(180.0,100%,35%)" stroke-width="0.00421"></path>
<path d="M1.292 0.653 Q1.296 0.685 1.360 0.690" stroke="hsl(270.0,100%,35%)" stroke-width="0.00421"></path>
<path d="M1.292 0.653 Q1.366 0.586 1.251 0.535" stroke="hsl(270.0,100%,35%)" stroke-width="0.00421"></path>
<path d="M1.292 0.653 Q1.285 0.638 1.255 0.638" stroke="hsl(270.0,100%,35%)" stroke-width="0.00421"></path>
<path d="M0.730 0.144 Q0.755 0.192 0.853 0.190" stroke="hsl(90.0,100%,35%)" stroke-width="0.00421"></path>
<path d="M0.730 0.144 Q0.850 0.237 1.058 0.199" stroke="hsl(90.0,100%,35%)" stroke-width="0.00421"></path>
<path d="M0.730 0.144 Q0.627 0.085 0.490 0.123" stroke="hsl(90.0,100%,35%)" stroke-width="0.00841"></path>
<path d="M0.730 0.144 Q0.638 0.127 0.584 0.168" stroke="hsl(90.0,100%,35%)" stroke-width="0.00841"></path>
<path d="M0.730 0.144 Q0.817 0.196 0.936 0.165" stroke="hsl(90.0,100%,35%)" stroke-width="0.00421"></path>
<path d="M0.730 0.144 Q0.729 0.195 0.828 0.207" stroke="hsl(90.0,100%,35%)" stroke-width="0.00421"></path>
<path d="M0.730 0.144 Q0.352 0.298 0.568 0.516" stroke="hsl(90.0,100%,35%)" stroke-width="0.00421"></path>
<path d="M0.602 0.399 Q0.436 0.394 0.391 0.474" stroke="hsl(90.0,100%,35%)" stroke-width="0.00841"></path>
<path d="M0.602 0.399 Q0.293 0.384 0.197 0.531" stroke="hsl(90.0,100%,35%)" stroke-width="0.00421"></path>
<path d="M0.602 0.399 Q0.620 0.430 0.684 0.428" stroke="hsl(90.0,100%,35%)" stroke-width="0.00421"></path>
<path d="M0.602 0.399 Q0.589 0.429 0.645 0.442" stroke="hsl(90.0,100%,35%)" stroke-width="0.00421"></path>
<path d="M1.355 0.629 Q1.480 0.655 1.559 0.600" stroke="hsl(0.0,100%,35%)" stroke-width="0.00421"></path>
<path d="M1.355 0.629 Q1.424 0.566 1.317 0.518" stroke="hsl(0.0,100%,35%)" stroke-width="0.00421"></path>
<path d="M1.355 0.629 Q1.428 0.594 1.377 0.551" stroke="hsl(0.0,100%,35%)" stroke-width="0.00421"></path>
<path d="M1.377 0.445 Q1.033 0.401 0.871 0.559" stroke="hsl(180.0,100%,35%)" stroke-width="0.00421"></path>
<path d="M1.377 0.445 Q1.326 0.463 1.348 0.491" stroke="hsl(180.0,100%,35%)" stroke-width="0.00421"></path>
<path d="M1.377 0.445 Q1.389 0.429 1.359 0.420" stroke="hsl(180.0,100%,35%)" stroke-width="0.00421"></path>
<path d="M0.490 0.611 Q0.505 0.623 0.533 0.619" stroke="hsl(90.0,100%,35%)" stroke-width="0.00841"></path>
<path d="M0.490 0.611 Q0.605 0.579 0.568 0.516" stroke="hsl(90.0,100%,35%)" stroke-width="0.00841"></path>
<path d="M0.490 0.611 Q0.531 0.588 0.495 0.563" stroke="hsl(90.0,100%,35%)" stroke-width="0.00841"></path>
<path d="M1.232 0.028 Q0.813 -0.133 0.408 0.036" stroke="hsl(0.0,100%,35%)" stroke-width="0.00421"></path>
<path d="M1.232 0.028 Q1.069 0.344 1.651 0.493" stroke="hsl(0.0,100%,35%)" stroke-width="0.00421"></path>
<path d="M1.232 0.028 Q1.238 0.075 1.333 0.083" stroke="hsl(0.0,100%,35%)" stroke-width="0.00421"></path>
<path d="M0.259 0.070 Q0.360 0.083 0.408 0.036" stroke="hsl(0.0,100%,35%)" stroke-width="0.00421"></path>
<path d="M0.259 0.070 Q0.188 0.089 0.210 0.128" stroke="hsl(0.0,100%,35%)" stroke-width="0.00421"></path>
<path d="M0.259 0.070 Q0.383 0.097 0.462 0.042" stroke="hsl(0.0,100%,35%)" stroke-width="0.00421"></path>
<path d="M0.569 0.989 Q0.501 0.789 0.097 0.779" stroke="hsl(0.0,100%,35%)" stroke-width="0.00421"></path>
<path d="M0.569 0.989 Q0.723 0.995 0.770 0.921" stroke="hsl(0.0,100%,35%)" stroke-width="0.00841"></path>
<path d="M0.569 0.989 Q1.306 1.061 1.610 0.718" stroke="hsl(0.0,100%,35%)" stroke-width="0.00421"></path>
<path d="M1.631 0.366 Q1.793 0.424 1.942 0.357" stroke="hsl(0.0,100%,35%)" stroke-width="0.00841"></path>
<path d="M1.631 0.366 Q1.523 0.346 1.460 0.395" stroke="hsl(0.0,100%,35%)" stroke-width="0.00421"></path>
<path d="M1.631 0.366 Q1.797 0.323 1.751 0.233" stroke="hsl(0.0,100%,35%)" stroke-width="0.00421"></path>
</g>
<text x="1.213" y="0.790" font-size="0.028545" fill="hsl(0.0,100%,20%)">a.m.elwasefi</text>
<text x="1.389" y="0.767" font-size="0.017213" fill="hsl(90.0,100%,20%)">aleventhal</text>
<text x="1.283" y="0.894" font-size="0.012172" fill="hsl(0.0,100%,20%)">altimin</text>
<text x="1.210" y="0.888" font-size="0.012172" fill="hsl(0.0,100%,20%)">dom</text>
<text x="0.936" y="0.157" font-size="0.014907" fill="hsl(0.0,100%,20%)">haraken</text>
<text x="0.989" y="0.745" font-size="0.008607" fill="hsl(0.0,100%,20%)">dtseng</text>
<text x="0.931" y="0.761" font-size="0.008607" fill="hsl(0.0,100%,20%)">ellyjones</text>
<text x="1.458" y="0.805" font-size="0.008607" fill="hsl(0.0,100%,20%)">erikchen</text>
<text x="0.490" y="0.114" font-size="0.017213" fill="hsl(90.0,100%,20%)">rakina</text>
<text x="0.959" y="0.241" font-size="0.019245" fill="hsl(90.0,100%,20%)">adithyas</text>
<text x="1.206" y="0.197" font-size="0.008607" fill="hsl(90.0,100%,20%)">danakj</text>
<text x="1.759" y="0.101" font-size="0.012172" fill="hsl(90.0,100%,20%)">vmpstr</text>
<text x="0.532" y="0.170" font-size="0.012172" fill="hsl(90.0,100%,20%)">isaboori</text>
<text x="1.058" y="0.193" font-size="0.012172" fill="hsl(90.0,100%,20%)">jbroman</text>
<text x="0.358" y="0.225" font-size="0.039441" fill="hsl(180.0,100%,20%)">ansung</text>
<text x="0.062" y="0.636" font-size="0.024343" fill="hsl(90.0,100%,20%)">ccameron</text>
<text x="1.082" y="0.664" font-size="0.022771" fill="hsl(180.0,100%,20%)">weizhong</text>
<text x="0.090" y="0.235" font-size="0.008607" fill="hsl(180.0,100%,20%)">csharrison</text>
<text x="0.118" y="0.145" font-size="0.008607" fill="hsl(180.0,100%,20%)">tanzachary</text>
<text x="1.850" y="0.771" font-size="0.012172" fill="hsl(180.0,100%,20%)">kouhei</text>
<text x="0.571" y="0.249" font-size="0.008607" fill="hsl(180.0,100%,20%)">ahaas</text>
<text x="1.942" y="0.342" font-size="0.031032" fill="hsl(0.0,100%,20%)">masonf</text>
<text x="0.770" y="0.196" font-size="0.008607" fill="hsl(180.0,100%,20%)">nhiroki</text>
<text x="0.276" y="0.109" font-size="0.008607" fill="hsl(180.0,100%,20%)">chikamune</text>
<text x="1.594" y="0.946" font-size="0.021082" fill="hsl(0.0,100%,20%)">yaoxia</text>
<text x="0.097" y="0.766" font-size="0.025820" fill="hsl(0.0,100%,20%)">mmenke</text>
<text x="0.444" y="0.189" font-size="0.008607" fill="hsl(180.0,100%,20%)">asully</text>
<text x="0.104" y="0.305" font-size="0.008607" fill="hsl(180.0,100%,20%)">gastonr</text>
<text x="1.365" y="0.948" font-size="0.019245" fill="hsl(0.0,100%,20%)">pdr</text>
<text x="0.228" y="0.281" font-size="0.008607" fill="hsl(180.0,100%,20%)">syg</text>
<text x="0.124" y="0.286" font-size="0.008607" fill="hsl(180.0,100%,20%)">alexmt</text>
<text x="0.866" y="0.019" font-size="0.024343" fill="hsl(0.0,100%,20%)">arichiv</text>
<text x="1.069" y="0.037" font-size="0.012172" fill="hsl(180.0,100%,20%)">kvitekp</text>
<text x="0.807" y="0.283" font-size="0.012172" fill="hsl(0.0,100%,20%)">yoavweiss</text>
<text x="0.905" y="0.063" font-size="0.008607" fill="hsl(0.0,100%,20%)">rbyers</text>
<text x="1.610" y="0.704" font-size="0.028545" fill="hsl(0.0,100%,20%)">dcheng</text>
<text x="0.753" y="0.048" font-size="0.008607" fill="hsl(0.0,100%,20%)">dsv</text>
<text x="1.163" y="0.073" font-size="0.008607" fill="hsl(0.0,100%,20%)">guidou</text>
<text x="0.669" y="0.268" font-size="0.022771" fill="hsl(0.0,100%,20%)">beaufort.francois</text>
<text x="0.599" y="0.280" font-size="0.008607" fill="hsl(0.0,100%,20%)">cwallez</text>
<text x="0.535" y="0.312" font-size="0.012172" fill="hsl(0.0,100%,20%)">bajones</text>
<text x="0.743" y="0.312" font-size="0.012172" fill="hsl(0.0,100%,20%)">kainino</text>
<text x="0.576" y="0.210" font-size="0.008607" fill="hsl(0.0,100%,20%)">mattreynolds</text>
<text x="1.156" y="0.375" font-size="0.037515" fill="hsl(90.0,100%,20%)">blundell</text>
<text x="0.875" y="0.410" font-size="0.027217" fill="hsl(90.0,100%,20%)">vasilyt</text>
<text x="0.391" y="0.460" font-size="0.027217" fill="hsl(90.0,100%,20%)">dalecurtis</text>
<text x="1.100" y="0.502" font-size="0.027217" fill="hsl(90.0,100%,20%)">jpgravel</text>
<text x="0.304" y="0.623" font-size="0.017213" fill="hsl(90.0,100%,20%)">fserb</text>
<text x="0.228" y="0.690" font-size="0.008607" fill="hsl(90.0,100%,20%)">khushalsagar</text>
<text x="0.197" y="0.524" font-size="0.014907" fill="hsl(90.0,100%,20%)">tguilbert</text>
<text x="0.107" y="0.443" font-size="0.022771" fill="hsl(90.0,100%,20%)">hitawala</text>
<text x="1.432" y="0.234" font-size="0.029814" fill="hsl(0.0,100%,20%)">danielrsmith</text>
<text x="1.751" y="0.218" font-size="0.031032" fill="hsl(0.0,100%,20%)">jarhar</text>
<text x="0.568" y="0.506" font-size="0.019245" fill="hsl(90.0,100%,20%)">toyoshim</text>
<text x="1.646" y="0.156" font-size="0.014907" fill="hsl(0.0,100%,20%)">npm</text>
<text x="1.181" y="0.124" font-size="0.008607" fill="hsl(0.0,100%,20%)">daniec</text>
<text x="1.332" y="0.302" font-size="0.012172" fill="hsl(0.0,100%,20%)">sajos</text>
<text x="1.178" y="0.213" font-size="0.014907" fill="hsl(0.0,100%,20%)">thakis</text>
<text x="0.155" y="0.903" font-size="0.014907" fill="hsl(0.0,100%,20%)">ricea</text>
<text x="1.271" y="0.133" font-size="0.008607" fill="hsl(0.0,100%,20%)">snianu</text>
<text x="1.651" y="0.470" font-size="0.046348" fill="hsl(0.0,100%,20%)">dtapuska</text>
<text x="1.559" y="0.580" font-size="0.041276" fill="hsl(0.0,100%,20%)">japhet</text>
<text x="1.815" y="0.393" font-size="0.008607" fill="hsl(0.0,100%,20%)">yukishiino</text>
<text x="1.917" y="0.704" font-size="0.041276" fill="hsl(0.0,100%,20%)">fs</text>
<text x="1.810" y="0.819" font-size="0.024343" fill="hsl(0.0,100%,20%)">tkent</text>
<text x="1.740" y="0.620" font-size="0.008607" fill="hsl(0.0,100%,20%)">mek</text>
<text x="1.936" y="0.585" font-size="0.008607" fill="hsl(0.0,100%,20%)">estade</text>
<text x="1.758" y="0.655" font-size="0.008607" fill="hsl(0.0,100%,20%)">dbertoni</text>
<text x="0.664" y="0.688" font-size="0.040369" fill="hsl(180.0,100%,20%)">futhark</text>
<text x="0.733" y="0.586" font-size="0.028545" fill="hsl(180.0,100%,20%)">sesse</text>
<text x="0.871" y="0.542" font-size="0.033333" fill="hsl(180.0,100%,20%)">andruud</text>
<text x="0.443" y="0.740" font-size="0.031032" fill="hsl(180.0,100%,20%)">sakhapov</text>
<text x="1.541" y="0.042" font-size="0.019245" fill="hsl(90.0,100%,20%)">joenotcharles</text>
<text x="0.442" y="0.881" font-size="0.021082" fill="hsl(180.0,100%,20%)">ikilpatrick</text>
<text x="0.367" y="0.961" font-size="0.008607" fill="hsl(180.0,100%,20%)">dgrogan</text>
<text x="1.669" y="0.252" font-size="0.012172" fill="hsl(180.0,100%,20%)">dbaron</text>
<text x="0.658" y="0.821" font-size="0.025820" fill="hsl(180.0,100%,20%)">mstensho</text>
<text x="1.500" y="0.300" font-size="0.008607" fill="hsl(0.0,100%,20%)">chromium</text>
<text x="0.954" y="0.862" font-size="0.014907" fill="hsl(90.0,100%,20%)">joelhockey</text>
<text x="0.880" y="0.961" font-size="0.008607" fill="hsl(90.0,100%,20%)">alexmos</text>
<text x="0.931" y="0.738" font-size="0.008607" fill="hsl(90.0,100%,20%)">ntfschr</text>
<text x="1.585" y="0.112" font-size="0.008607" fill="hsl(90.0,100%,20%)">nasko</text>
<text x="1.710" y="0.061" font-size="0.008607" fill="hsl(90.0,100%,20%)">olivierli</text>
<text x="1.413" y="0.096" font-size="0.008607" fill="hsl(90.0,100%,20%)">rkaplow</text>
<text x="0.406" y="0.328" font-size="0.024343" fill="hsl(180.0,100%,20%)">jonathanjlee</text>
<text x="0.198" y="0.356" font-size="0.008607" fill="hsl(180.0,100%,20%)">nrosenthal</text>
<text x="0.464" y="0.377" font-size="0.008607" fill="hsl(180.0,100%,20%)">siliu</text>
<text x="0.589" y="0.319" font-size="0.008607" fill="hsl(180.0,100%,20%)">finnur</text>
<text x="1.292" y="0.646" font-size="0.014907" fill="hsl(270.0,100%,20%)">leese</text>
<text x="1.360" y="0.686" font-size="0.008607" fill="hsl(270.0,100%,20%)">pfaffe</text>
<text x="1.251" y="0.531" font-size="0.008607" fill="hsl(270.0,100%,20%)">szuend</text>
<text x="1.255" y="0.634" font-size="0.008607" fill="hsl(270.0,100%,20%)">kprokopenko</text>
<text x="0.730" y="0.131" font-size="0.025820" fill="hsl(90.0,100%,20%)">leimy</text>
<text x="0.853" y="0.186" font-size="0.008607" fill="hsl(90.0,100%,20%)">fergal</text>
<text x="0.584" y="0.162" font-size="0.012172" fill="hsl(90.0,100%,20%)">rdevlin.cronin</text>
<text x="0.828" y="0.202" font-size="0.008607" fill="hsl(90.0,100%,20%)">kelvinjiang</text>
<text x="0.602" y="0.389" font-size="0.019245" fill="hsl(90.0,100%,20%)">lowkey</text>
<text x="0.684" y="0.423" font-size="0.008607" fill="hsl(90.0,100%,20%)">afakhry</text>
<text x="0.645" y="0.438" font-size="0.008607" fill="hsl(90.0,100%,20%)">handellm</text>
<text x="1.451" y="0.347" font-size="0.008607" fill="hsl(0.0,100%,20%)">battre</text>
<text x="1.923" y="0.276" font-size="0.008607" fill="hsl(0.0,100%,20%)">schwering</text>
<text x="1.713" y="0.308" font-size="0.008607" fill="hsl(0.0,100%,20%)">sreejakshetty</text>
<text x="1.681" y="0.327" font-size="0.012172" fill="hsl(0.0,100%,20%)">chrishtr</text>
<text x="0.225" y="0.811" font-size="0.012172" fill="hsl(0.0,100%,20%)">rushans</text>
<text x="0.634" y="0.906" font-size="0.008607" fill="hsl(180.0,100%,20%)">bratell.d</text>
<text x="1.355" y="0.621" font-size="0.014907" fill="hsl(0.0,100%,20%)">pbirk</text>
<text x="1.317" y="0.514" font-size="0.008607" fill="hsl(0.0,100%,20%)">johnidel</text>
<text x="1.377" y="0.547" font-size="0.008607" fill="hsl(0.0,100%,20%)">kinuko</text>
<text x="1.377" y="0.438" font-size="0.014907" fill="hsl(180.0,100%,20%)">piotrkotynia</text>
<text x="1.348" y="0.487" font-size="0.008607" fill="hsl(180.0,100%,20%)">smcgruer</text>
<text x="1.359" y="0.415" font-size="0.008607" fill="hsl(180.0,100%,20%)">sygiet</text>
<text x="0.947" y="0.626" font-size="0.008607" fill="hsl(180.0,100%,20%)">sky</text>
<text x="0.490" y="0.600" font-size="0.021082" fill="hsl(90.0,100%,20%)">suzukikeita</text>
<text x="0.533" y="0.613" font-size="0.012172" fill="hsl(90.0,100%,20%)">sisidovski</text>
<text x="0.495" y="0.557" font-size="0.012172" fill="hsl(90.0,100%,20%)">yyanagisawa</text>
<text x="1.205" y="0.605" font-size="0.008607" fill="hsl(180.0,100%,20%)">behamilton</text>
<text x="0.969" y="0.754" font-size="0.008607" fill="hsl(180.0,100%,20%)">liberato</text>
<text x="1.232" y="0.020" font-size="0.014907" fill="hsl(0.0,100%,20%)">xiaobincui</text>
<text x="0.408" y="0.030" font-size="0.012172" fill="hsl(0.0,100%,20%)">avi</text>
<text x="1.333" y="0.079" font-size="0.008607" fill="hsl(0.0,100%,20%)">jkim</text>
<text x="0.259" y="0.062" font-size="0.014907" fill="hsl(0.0,100%,20%)">xiaochenzh</text>
<text x="0.210" y="0.124" font-size="0.008607" fill="hsl(0.0,100%,20%)">dgozman</text>
<text x="0.462" y="0.038" font-size="0.008607" fill="hsl(0.0,100%,20%)">lbrady</text>
<text x="1.616" y="0.861" font-size="0.008607" fill="hsl(0.0,100%,20%)">cammie</text>
<text x="1.471" y="0.872" font-size="0.012172" fill="hsl(0.0,100%,20%)">abigailkatcoff</text>
<text x="0.569" y="0.980" font-size="0.017213" fill="hsl(0.0,100%,20%)">ybourouphael</text>
<text x="0.770" y="0.915" font-size="0.012172" fill="hsl(0.0,100%,20%)">orrb</text>
<text x="1.631" y="0.357" font-size="0.017213" fill="hsl(0.0,100%,20%)">zhoupeng.1996</text>
<text x="1.460" y="0.390" font-size="0.008607" fill="hsl(0.0,100%,20%)">tcaptan</text>
</svg>
