<svg width="4000" height="2000" viewBox="-0.025 -0.025 2.05 1.05" xmlns="http://www.w3.org/2000/svg">
  <style>
    path {
      fill: none;
      stroke-linecap: round;
      stroke-opacity: 0.4;
    }

    text {
      text-anchor: middle;
      alignment-baseline: hanging;
    }
  </style>
  <g opacity="0.4">
<path d="M0.246 0.510 Q0.513 0.783 1.104 0.713" stroke="hsl(0.0,100%,35%)" stroke-width="0.00927"></path>
<path d="M0.246 0.510 Q0.359 0.770 0.890 0.772" stroke="hsl(0.0,100%,35%)" stroke-width="0.00927"></path>
<path d="M0.246 0.510 Q0.395 0.445 0.300 0.358" stroke="hsl(0.0,100%,35%)" stroke-width="0.00927"></path>
<path d="M0.890 0.772 Q1.045 0.785 1.104 0.713" stroke="hsl(0.0,100%,35%)" stroke-width="0.01853"></path>
<path d="M0.890 0.772 Q0.741 0.732 0.629 0.795" stroke="hsl(0.0,100%,35%)" stroke-width="0.01853"></path>
<path d="M0.890 0.772 Q0.927 0.447 0.300 0.358" stroke="hsl(0.0,100%,35%)" stroke-width="0.00927"></path>
<path d="M1.523 0.964 Q1.874 0.735 1.505 0.514" stroke="hsl(51.0,100%,35%)" stroke-width="0.02780"></path>
<path d="M1.523 0.964 Q1.344 0.898 1.175 0.971" stroke="hsl(51.0,100%,35%)" stroke-width="0.02780"></path>
<path d="M1.523 0.964 Q1.749 0.981 1.832 0.874" stroke="hsl(51.0,100%,35%)" stroke-width="0.02780"></path>
<path d="M1.155 0.853 Q0.985 0.848 0.939 0.930" stroke="hsl(102.0,100%,35%)" stroke-width="0.02780"></path>
<path d="M1.155 0.853 Q1.370 0.889 1.487 0.792" stroke="hsl(102.0,100%,35%)" stroke-width="0.00927"></path>
<path d="M1.155 0.853 Q1.504 0.842 1.560 0.669" stroke="hsl(102.0,100%,35%)" stroke-width="0.00927"></path>
<path d="M0.574 0.384 Q0.333 0.482 0.472 0.621" stroke="hsl(154.0,100%,35%)" stroke-width="0.00927"></path>
<path d="M0.574 0.384 Q0.515 0.445 0.622 0.488" stroke="hsl(154.0,100%,35%)" stroke-width="0.00927"></path>
<path d="M0.574 0.384 Q0.642 0.426 0.739 0.402" stroke="hsl(154.0,100%,35%)" stroke-width="0.00927"></path>
<path d="M0.798 0.167 Q0.761 0.073 0.570 0.070" stroke="hsl(205.0,100%,35%)" stroke-width="0.04633"></path>
<path d="M0.798 0.167 Q0.796 0.269 0.995 0.293" stroke="hsl(205.0,100%,35%)" stroke-width="0.10192"></path>
<path d="M0.798 0.167 Q0.514 0.501 1.104 0.713" stroke="hsl(205.0,100%,35%)" stroke-width="0.00927"></path>
<path d="M0.798 0.167 Q0.643 0.162 0.600 0.237" stroke="hsl(205.0,100%,35%)" stroke-width="0.00927"></path>
<path d="M0.798 0.167 Q0.674 0.236 0.781 0.311" stroke="hsl(205.0,100%,35%)" stroke-width="0.00927"></path>
<path d="M0.434 0.849 Q0.376 0.928 0.517 0.973" stroke="hsl(257.0,100%,35%)" stroke-width="0.00927"></path>
<path d="M0.434 0.849 Q0.353 0.718 0.080 0.729" stroke="hsl(257.0,100%,35%)" stroke-width="0.00927"></path>
<path d="M0.434 0.849 Q0.320 0.848 0.295 0.904" stroke="hsl(257.0,100%,35%)" stroke-width="0.00927"></path>
<path d="M1.204 0.555 Q1.388 0.595 1.505 0.514" stroke="hsl(51.0,100%,35%)" stroke-width="0.03706"></path>
<path d="M1.204 0.555 Q1.133 0.463 0.937 0.478" stroke="hsl(51.0,100%,35%)" stroke-width="0.03706"></path>
<path d="M1.204 0.555 Q1.372 0.483 1.268 0.386" stroke="hsl(51.0,100%,35%)" stroke-width="0.02780"></path>
<path d="M0.915 0.654 Q1.214 0.590 1.154 0.430" stroke="hsl(308.0,100%,35%)" stroke-width="0.00927"></path>
<path d="M0.915 0.654 Q0.771 0.615 0.662 0.676" stroke="hsl(308.0,100%,35%)" stroke-width="0.01853"></path>
<path d="M0.915 0.654 Q0.917 0.588 0.788 0.573" stroke="hsl(308.0,100%,35%)" stroke-width="0.00927"></path>
</g>
<text x="0.246" y="0.495" font-size="0.031109" fill="hsl(0.0,100%,20%)">druth</text>
<text x="1.104" y="0.695" font-size="0.035921" fill="hsl(0.0,100%,20%)">andrzejo</text>
<text x="0.890" y="0.750" font-size="0.043994" fill="hsl(0.0,100%,20%)">jintaolin</text>
<text x="0.300" y="0.345" font-size="0.025400" fill="hsl(0.0,100%,20%)">matthewmwang</text>
<text x="1.523" y="0.937" font-size="0.053882" fill="hsl(51.0,100%,20%)">erisawada</text>
<text x="1.505" y="0.490" font-size="0.047519" fill="hsl(51.0,100%,20%)">dtor</text>
<text x="1.175" y="0.955" font-size="0.031109" fill="hsl(51.0,100%,20%)">kalutes</text>
<text x="1.832" y="0.859" font-size="0.031109" fill="hsl(51.0,100%,20%)">kawasin</text>
<text x="1.155" y="0.833" font-size="0.040161" fill="hsl(102.0,100%,20%)">jadmanski</text>
<text x="0.939" y="0.915" font-size="0.031109" fill="hsl(102.0,100%,20%)">hardikgoyal</text>
<text x="1.487" y="0.783" font-size="0.017961" fill="hsl(102.0,100%,20%)">lziest</text>
<text x="1.560" y="0.660" font-size="0.017961" fill="hsl(102.0,100%,20%)">betuls</text>
<text x="0.574" y="0.368" font-size="0.031109" fill="hsl(154.0,100%,20%)">jettrink</text>
<text x="0.472" y="0.612" font-size="0.017961" fill="hsl(154.0,100%,20%)">mruthven</text>
<text x="0.622" y="0.479" font-size="0.017961" fill="hsl(154.0,100%,20%)">apronin</text>
<text x="0.739" y="0.393" font-size="0.017961" fill="hsl(154.0,100%,20%)">yich</text>
<text x="0.798" y="0.127" font-size="0.078288" fill="hsl(205.0,100%,20%)">jiejiang</text>
<text x="0.570" y="0.050" font-size="0.040161" fill="hsl(205.0,100%,20%)">taoyl</text>
<text x="0.995" y="0.263" font-size="0.059568" fill="hsl(205.0,100%,20%)">hugobenichi</text>
<text x="0.600" y="0.228" font-size="0.017961" fill="hsl(205.0,100%,20%)">ejcaruso</text>
<text x="0.781" y="0.302" font-size="0.017961" fill="hsl(205.0,100%,20%)">andrewlassalle</text>
<text x="0.629" y="0.783" font-size="0.025400" fill="hsl(0.0,100%,20%)">kglund</text>
<text x="0.434" y="0.833" font-size="0.031109" fill="hsl(257.0,100%,20%)">kimjae</text>
<text x="0.517" y="0.964" font-size="0.017961" fill="hsl(257.0,100%,20%)">mqg</text>
<text x="0.080" y="0.720" font-size="0.017961" fill="hsl(257.0,100%,20%)">sammc</text>
<text x="0.295" y="0.895" font-size="0.017961" fill="hsl(257.0,100%,20%)">yuanpengni</text>
<text x="1.204" y="0.525" font-size="0.059568" fill="hsl(51.0,100%,20%)">spadhi</text>
<text x="0.937" y="0.460" font-size="0.035921" fill="hsl(51.0,100%,20%)">zihanchen</text>
<text x="1.268" y="0.370" font-size="0.031109" fill="hsl(51.0,100%,20%)">dverkamp</text>
<text x="0.915" y="0.637" font-size="0.035921" fill="hsl(308.0,100%,20%)">tbrandston</text>
<text x="1.154" y="0.421" font-size="0.017961" fill="hsl(308.0,100%,20%)">allenwebb</text>
<text x="0.662" y="0.663" font-size="0.025400" fill="hsl(308.0,100%,20%)">skend</text>
<text x="0.788" y="0.564" font-size="0.017961" fill="hsl(308.0,100%,20%)">josephsussman</text>
</svg>
