<svg width="4000" height="2000" viewBox="-0.025 -0.025 2.05 1.05" xmlns="http://www.w3.org/2000/svg">
  <style>
    path {
      fill: none;
      stroke-linecap: round;
      stroke-opacity: 0.4;
    }

    text {
      text-anchor: middle;
      alignment-baseline: hanging;
    }
  </style>
  <g opacity="0.4">
<path d="M1.390 0.375 Q1.410 0.420 1.501 0.421" stroke="hsl(0.0,100%,35%)" stroke-width="0.00931"></path>
<path d="M1.390 0.375 Q1.554 0.398 1.633 0.323" stroke="hsl(0.0,100%,35%)" stroke-width="0.00310"></path>
<path d="M1.390 0.375 Q1.382 0.316 1.264 0.307" stroke="hsl(0.0,100%,35%)" stroke-width="0.01241"></path>
<path d="M0.625 0.697 Q0.568 0.630 0.424 0.643" stroke="hsl(72.0,100%,35%)" stroke-width="0.00931"></path>
<path d="M0.625 0.697 Q0.483 0.747 0.549 0.827" stroke="hsl(72.0,100%,35%)" stroke-width="0.00310"></path>
<path d="M0.625 0.697 Q0.520 0.756 0.612 0.820" stroke="hsl(72.0,100%,35%)" stroke-width="0.00310"></path>
<path d="M1.091 0.069 Q0.886 0.107 0.916 0.216" stroke="hsl(144.0,100%,35%)" stroke-width="0.00310"></path>
<path d="M1.091 0.069 Q1.062 0.034 0.987 0.040" stroke="hsl(144.0,100%,35%)" stroke-width="0.00931"></path>
<path d="M1.091 0.069 Q0.975 0.112 1.034 0.179" stroke="hsl(144.0,100%,35%)" stroke-width="0.00621"></path>
<path d="M1.091 0.069 Q1.016 0.047 0.957 0.080" stroke="hsl(144.0,100%,35%)" stroke-width="0.00310"></path>
<path d="M1.091 0.069 Q1.457 0.219 1.831 0.074" stroke="hsl(144.0,100%,35%)" stroke-width="0.00310"></path>
<path d="M0.916 0.216 Q1.004 0.221 1.034 0.179" stroke="hsl(144.0,100%,35%)" stroke-width="0.00310"></path>
<path d="M0.916 0.216 Q1.045 0.156 0.957 0.080" stroke="hsl(144.0,100%,35%)" stroke-width="0.00310"></path>
<path d="M0.916 0.216 Q0.954 0.215 0.962 0.196" stroke="hsl(144.0,100%,35%)" stroke-width="0.00310"></path>
<path d="M0.916 0.216 Q1.092 0.142 0.987 0.040" stroke="hsl(144.0,100%,35%)" stroke-width="0.00310"></path>
<path d="M1.034 0.179 Q0.945 0.174 0.916 0.216" stroke="hsl(144.0,100%,35%)" stroke-width="0.00931"></path>
<path d="M1.034 0.179 Q1.121 0.100 0.987 0.040" stroke="hsl(144.0,100%,35%)" stroke-width="0.01241"></path>
<path d="M1.034 0.179 Q1.150 0.135 1.091 0.069" stroke="hsl(144.0,100%,35%)" stroke-width="0.00310"></path>
<path d="M0.799 0.848 Q0.886 0.938 1.081 0.916" stroke="hsl(216.0,100%,35%)" stroke-width="0.00310"></path>
<path d="M0.799 0.848 Q0.864 0.795 0.775 0.751" stroke="hsl(216.0,100%,35%)" stroke-width="0.01862"></path>
<path d="M0.799 0.848 Q0.824 0.742 0.623 0.707" stroke="hsl(216.0,100%,35%)" stroke-width="0.00310"></path>
<path d="M0.799 0.848 Q0.973 0.855 1.025 0.772" stroke="hsl(216.0,100%,35%)" stroke-width="0.00310"></path>
<path d="M1.081 0.916 Q1.168 0.833 1.025 0.772" stroke="hsl(216.0,100%,35%)" stroke-width="0.04655"></path>
<path d="M1.081 0.916 Q1.358 0.723 1.043 0.545" stroke="hsl(216.0,100%,35%)" stroke-width="0.00310"></path>
<path d="M1.081 0.916 Q0.994 0.825 0.799 0.848" stroke="hsl(216.0,100%,35%)" stroke-width="0.00621"></path>
<path d="M1.081 0.916 Q1.059 0.772 0.775 0.751" stroke="hsl(216.0,100%,35%)" stroke-width="0.02172"></path>
<path d="M1.081 0.916 Q1.000 0.927 1.004 0.969" stroke="hsl(216.0,100%,35%)" stroke-width="0.00310"></path>
<path d="M1.081 0.916 Q1.956 0.582 1.496 0.082" stroke="hsl(216.0,100%,35%)" stroke-width="0.00310"></path>
<path d="M1.081 0.916 Q1.647 0.538 1.034 0.179" stroke="hsl(216.0,100%,35%)" stroke-width="0.00310"></path>
<path d="M1.081 0.916 Q1.763 0.494 1.091 0.069" stroke="hsl(216.0,100%,35%)" stroke-width="0.00310"></path>
<path d="M0.775 0.751 Q0.883 0.812 1.025 0.772" stroke="hsl(216.0,100%,35%)" stroke-width="0.03103"></path>
<path d="M0.775 0.751 Q0.796 0.895 1.081 0.916" stroke="hsl(216.0,100%,35%)" stroke-width="0.01241"></path>
<path d="M0.775 0.751 Q0.734 0.699 0.623 0.707" stroke="hsl(216.0,100%,35%)" stroke-width="0.00310"></path>
<path d="M0.775 0.751 Q0.709 0.804 0.799 0.848" stroke="hsl(216.0,100%,35%)" stroke-width="0.00621"></path>
<path d="M0.568 0.371 Q0.463 0.301 0.304 0.336" stroke="hsl(72.0,100%,35%)" stroke-width="0.01552"></path>
<path d="M0.568 0.371 Q0.747 0.344 0.734 0.250" stroke="hsl(72.0,100%,35%)" stroke-width="0.00931"></path>
<path d="M0.568 0.371 Q0.720 0.494 0.995 0.447" stroke="hsl(72.0,100%,35%)" stroke-width="0.00310"></path>
<path d="M0.304 0.336 Q0.211 0.398 0.312 0.457" stroke="hsl(72.0,100%,35%)" stroke-width="0.00310"></path>
<path d="M0.304 0.336 Q0.587 0.379 0.734 0.250" stroke="hsl(72.0,100%,35%)" stroke-width="0.02172"></path>
<path d="M0.304 0.336 Q0.795 0.404 1.034 0.179" stroke="hsl(72.0,100%,35%)" stroke-width="0.00310"></path>
<path d="M0.304 0.336 Q0.451 0.373 0.554 0.308" stroke="hsl(72.0,100%,35%)" stroke-width="0.01552"></path>
<path d="M0.304 0.336 Q0.408 0.406 0.568 0.371" stroke="hsl(72.0,100%,35%)" stroke-width="0.00310"></path>
<path d="M0.953 0.344 Q0.907 0.314 0.838 0.330" stroke="hsl(72.0,100%,35%)" stroke-width="0.00310"></path>
<path d="M0.953 0.344 Q0.837 0.463 1.043 0.545" stroke="hsl(72.0,100%,35%)" stroke-width="0.00310"></path>
<path d="M0.953 0.344 Q0.892 0.404 0.995 0.447" stroke="hsl(72.0,100%,35%)" stroke-width="0.00310"></path>
<path d="M0.953 0.344 Q1.043 0.349 1.073 0.306" stroke="hsl(72.0,100%,35%)" stroke-width="0.00310"></path>
<path d="M1.043 0.545 Q1.124 0.336 0.734 0.250" stroke="hsl(72.0,100%,35%)" stroke-width="0.00931"></path>
<path d="M1.043 0.545 Q1.165 0.539 1.178 0.478" stroke="hsl(72.0,100%,35%)" stroke-width="0.00310"></path>
<path d="M1.043 0.545 Q1.097 0.487 0.995 0.447" stroke="hsl(72.0,100%,35%)" stroke-width="0.00310"></path>
<path d="M1.343 0.116 Q1.447 0.130 1.496 0.082" stroke="hsl(216.0,100%,35%)" stroke-width="0.00310"></path>
<path d="M1.343 0.116 Q1.385 0.217 1.591 0.219" stroke="hsl(216.0,100%,35%)" stroke-width="0.00310"></path>
<path d="M1.343 0.116 Q1.274 0.233 1.487 0.293" stroke="hsl(216.0,100%,35%)" stroke-width="0.00310"></path>
<path d="M1.591 0.219 Q1.481 0.235 1.487 0.293" stroke="hsl(216.0,100%,35%)" stroke-width="0.00931"></path>
<path d="M1.591 0.219 Q1.671 0.271 1.790 0.244" stroke="hsl(216.0,100%,35%)" stroke-width="0.01241"></path>
<path d="M1.591 0.219 Q1.653 0.132 1.496 0.082" stroke="hsl(216.0,100%,35%)" stroke-width="0.00621"></path>
<path d="M0.345 0.197 Q0.028 0.436 0.424 0.643" stroke="hsl(144.0,100%,35%)" stroke-width="0.00310"></path>
<path d="M0.345 0.197 Q-0.069 0.669 0.762 0.975" stroke="hsl(144.0,100%,35%)" stroke-width="0.00310"></path>
<path d="M0.345 0.197 Q0.469 0.190 0.484 0.128" stroke="hsl(144.0,100%,35%)" stroke-width="0.00310"></path>
<path d="M0.345 0.197 Q0.472 0.118 0.346 0.039" stroke="hsl(144.0,100%,35%)" stroke-width="0.00310"></path>
<path d="M0.762 0.975 Q0.784 0.995 0.829 0.989" stroke="hsl(72.0,100%,35%)" stroke-width="0.00310"></path>
<path d="M0.762 0.975 Q0.672 0.938 0.580 0.973" stroke="hsl(72.0,100%,35%)" stroke-width="0.00310"></path>
<path d="M0.762 0.975 Q0.772 0.953 0.732 0.943" stroke="hsl(72.0,100%,35%)" stroke-width="0.00310"></path>
<path d="M0.762 0.975 Q0.718 0.930 0.622 0.942" stroke="hsl(72.0,100%,35%)" stroke-width="0.00310"></path>
<path d="M0.288 0.815 Q0.331 0.734 0.183 0.696" stroke="hsl(144.0,100%,35%)" stroke-width="0.02793"></path>
<path d="M0.288 0.815 Q0.811 0.517 0.345 0.197" stroke="hsl(144.0,100%,35%)" stroke-width="0.00310"></path>
<path d="M0.288 0.815 Q0.420 0.843 0.505 0.785" stroke="hsl(144.0,100%,35%)" stroke-width="0.02483"></path>
<path d="M0.288 0.815 Q0.275 0.879 0.399 0.900" stroke="hsl(144.0,100%,35%)" stroke-width="0.02483"></path>
<path d="M0.193 0.485 Q0.183 0.610 0.424 0.643" stroke="hsl(72.0,100%,35%)" stroke-width="0.00621"></path>
<path d="M0.193 0.485 Q1.185 0.684 1.790 0.244" stroke="hsl(72.0,100%,35%)" stroke-width="0.00310"></path>
<path d="M0.193 0.485 Q0.167 0.539 0.265 0.563" stroke="hsl(72.0,100%,35%)" stroke-width="0.00310"></path>
<path d="M1.790 0.244 Q0.985 0.355 1.025 0.772" stroke="hsl(216.0,100%,35%)" stroke-width="0.00310"></path>
<path d="M1.790 0.244 Q1.710 0.192 1.591 0.219" stroke="hsl(216.0,100%,35%)" stroke-width="0.00931"></path>
<path d="M1.790 0.244 Q1.600 0.208 1.487 0.293" stroke="hsl(216.0,100%,35%)" stroke-width="0.00621"></path>
<path d="M1.790 0.244 Q1.773 0.104 1.496 0.082" stroke="hsl(216.0,100%,35%)" stroke-width="0.00310"></path>
<path d="M1.695 0.438 Q1.473 0.530 1.605 0.659" stroke="hsl(72.0,100%,35%)" stroke-width="0.00310"></path>
<path d="M1.695 0.438 Q1.581 0.421 1.523 0.473" stroke="hsl(72.0,100%,35%)" stroke-width="0.00310"></path>
<path d="M1.695 0.438 Q1.796 0.435 1.813 0.385" stroke="hsl(72.0,100%,35%)" stroke-width="0.00931"></path>
<path d="M0.554 0.308 Q0.407 0.272 0.304 0.336" stroke="hsl(72.0,100%,35%)" stroke-width="0.03724"></path>
<path d="M0.554 0.308 Q0.691 0.315 0.734 0.250" stroke="hsl(72.0,100%,35%)" stroke-width="0.00621"></path>
<path d="M0.554 0.308 Q0.588 0.276 0.533 0.253" stroke="hsl(72.0,100%,35%)" stroke-width="0.00310"></path>
<path d="M0.224 0.922 Q0.382 0.996 0.562 0.935" stroke="hsl(72.0,100%,35%)" stroke-width="0.00931"></path>
<path d="M0.224 0.922 Q0.344 1.018 0.557 0.980" stroke="hsl(72.0,100%,35%)" stroke-width="0.00310"></path>
<path d="M0.224 0.922 Q1.206 1.021 1.614 0.564" stroke="hsl(72.0,100%,35%)" stroke-width="0.00310"></path>
<path d="M1.282 0.236 Q1.357 0.233 1.368 0.196" stroke="hsl(72.0,100%,35%)" stroke-width="0.00310"></path>
<path d="M1.282 0.236 Q1.106 0.512 1.605 0.659" stroke="hsl(72.0,100%,35%)" stroke-width="0.00310"></path>
<path d="M1.282 0.236 Q0.997 0.133 0.734 0.250" stroke="hsl(72.0,100%,35%)" stroke-width="0.00310"></path>
<path d="M0.581 0.658 Q0.754 0.694 0.862 0.617" stroke="hsl(72.0,100%,35%)" stroke-width="0.00310"></path>
<path d="M0.581 0.658 Q0.616 0.661 0.631 0.645" stroke="hsl(72.0,100%,35%)" stroke-width="0.00310"></path>
<path d="M0.581 0.658 Q0.831 1.012 1.578 0.968" stroke="hsl(72.0,100%,35%)" stroke-width="0.00310"></path>
<path d="M0.581 0.658 Q0.427 0.831 0.732 0.943" stroke="hsl(72.0,100%,35%)" stroke-width="0.00310"></path>
<path d="M0.581 0.658 Q0.606 0.637 0.573 0.620" stroke="hsl(72.0,100%,35%)" stroke-width="0.00310"></path>
<path d="M1.161 0.427 Q1.474 0.587 1.856 0.470" stroke="hsl(72.0,100%,35%)" stroke-width="0.00310"></path>
<path d="M1.161 0.427 Q1.175 0.403 1.132 0.392" stroke="hsl(72.0,100%,35%)" stroke-width="0.00310"></path>
<path d="M1.161 0.427 Q1.185 0.483 1.299 0.484" stroke="hsl(72.0,100%,35%)" stroke-width="0.00310"></path>
<path d="M1.161 0.427 Q1.162 0.532 1.366 0.554" stroke="hsl(72.0,100%,35%)" stroke-width="0.00310"></path>
<path d="M1.256 0.712 Q1.398 0.674 1.355 0.597" stroke="hsl(144.0,100%,35%)" stroke-width="0.00310"></path>
<path d="M1.256 0.712 Q1.283 0.586 1.043 0.545" stroke="hsl(144.0,100%,35%)" stroke-width="0.00931"></path>
<path d="M1.256 0.712 Q1.382 0.645 1.278 0.569" stroke="hsl(144.0,100%,35%)" stroke-width="0.00310"></path>
<path d="M1.256 0.712 Q1.425 0.606 1.254 0.500" stroke="hsl(144.0,100%,35%)" stroke-width="0.00310"></path>
<path d="M1.256 0.712 Q1.572 0.401 1.034 0.179" stroke="hsl(144.0,100%,35%)" stroke-width="0.00931"></path>
<path d="M1.256 0.712 Q1.220 0.646 1.083 0.649" stroke="hsl(144.0,100%,35%)" stroke-width="0.00310"></path>
<path d="M1.256 0.712 Q1.365 0.377 0.734 0.250" stroke="hsl(144.0,100%,35%)" stroke-width="0.00310"></path>
<path d="M1.256 0.712 Q1.228 0.370 0.554 0.308" stroke="hsl(144.0,100%,35%)" stroke-width="0.00310"></path>
<path d="M1.256 0.712 Q1.474 0.755 1.605 0.659" stroke="hsl(144.0,100%,35%)" stroke-width="0.00931"></path>
<path d="M1.256 0.712 Q1.277 0.813 1.478 0.824" stroke="hsl(144.0,100%,35%)" stroke-width="0.00310"></path>
<path d="M1.256 0.712 Q1.217 0.766 1.314 0.797" stroke="hsl(144.0,100%,35%)" stroke-width="0.00931"></path>
<path d="M1.256 0.712 Q1.366 0.807 1.574 0.774" stroke="hsl(144.0,100%,35%)" stroke-width="0.00310"></path>
<path d="M1.256 0.712 Q1.502 0.696 1.524 0.573" stroke="hsl(144.0,100%,35%)" stroke-width="0.00931"></path>
<path d="M1.256 0.712 Q1.438 0.655 1.366 0.554" stroke="hsl(144.0,100%,35%)" stroke-width="0.00931"></path>
<path d="M1.256 0.712 Q1.356 0.766 1.483 0.729" stroke="hsl(144.0,100%,35%)" stroke-width="0.00310"></path>
<path d="M1.256 0.712 Q1.112 0.749 1.151 0.827" stroke="hsl(144.0,100%,35%)" stroke-width="0.00310"></path>
<path d="M1.256 0.712 Q1.389 0.731 1.455 0.670" stroke="hsl(144.0,100%,35%)" stroke-width="0.00310"></path>
<path d="M1.256 0.712 Q1.281 0.800 1.458 0.807" stroke="hsl(144.0,100%,35%)" stroke-width="0.00310"></path>
<path d="M1.256 0.712 Q1.093 0.696 1.025 0.772" stroke="hsl(144.0,100%,35%)" stroke-width="0.00931"></path>
<path d="M1.256 0.712 Q1.708 0.549 1.487 0.293" stroke="hsl(144.0,100%,35%)" stroke-width="0.00310"></path>
<path d="M1.256 0.712 Q1.402 0.624 1.262 0.533" stroke="hsl(144.0,100%,35%)" stroke-width="0.00310"></path>
<path d="M1.256 0.712 Q1.454 0.621 1.318 0.504" stroke="hsl(144.0,100%,35%)" stroke-width="0.00310"></path>
<path d="M1.256 0.712 Q1.438 0.716 1.485 0.628" stroke="hsl(144.0,100%,35%)" stroke-width="0.00310"></path>
<path d="M1.256 0.712 Q1.196 0.808 1.369 0.858" stroke="hsl(144.0,100%,35%)" stroke-width="0.00310"></path>
<path d="M1.256 0.712 Q1.301 0.648 1.186 0.612" stroke="hsl(144.0,100%,35%)" stroke-width="0.00310"></path>
<path d="M1.256 0.712 Q1.242 0.755 1.321 0.770" stroke="hsl(144.0,100%,35%)" stroke-width="0.00310"></path>
<path d="M1.256 0.712 Q1.407 0.716 1.447 0.643" stroke="hsl(144.0,100%,35%)" stroke-width="0.00310"></path>
<path d="M1.256 0.712 Q1.497 0.632 1.393 0.497" stroke="hsl(144.0,100%,35%)" stroke-width="0.00310"></path>
<path d="M1.256 0.712 Q1.067 0.490 0.592 0.534" stroke="hsl(144.0,100%,35%)" stroke-width="0.00310"></path>
<path d="M1.256 0.712 Q1.303 0.785 1.455 0.778" stroke="hsl(144.0,100%,35%)" stroke-width="0.00310"></path>
<path d="M1.256 0.712 Q1.355 0.645 1.246 0.582" stroke="hsl(144.0,100%,35%)" stroke-width="0.00310"></path>
<path d="M1.256 0.712 Q1.353 0.773 1.492 0.739" stroke="hsl(144.0,100%,35%)" stroke-width="0.00310"></path>
<path d="M1.256 0.712 Q1.889 0.676 1.957 0.359" stroke="hsl(144.0,100%,35%)" stroke-width="0.00310"></path>
<path d="M1.256 0.712 Q1.381 0.761 1.504 0.711" stroke="hsl(144.0,100%,35%)" stroke-width="0.00310"></path>
<path d="M1.256 0.712 Q1.584 0.679 1.591 0.512" stroke="hsl(144.0,100%,35%)" stroke-width="0.00310"></path>
<path d="M1.256 0.712 Q1.359 0.772 1.497 0.734" stroke="hsl(144.0,100%,35%)" stroke-width="0.00310"></path>
<path d="M1.256 0.712 Q1.196 0.747 1.252 0.784" stroke="hsl(144.0,100%,35%)" stroke-width="0.00310"></path>
<path d="M1.256 0.712 Q1.392 0.627 1.255 0.541" stroke="hsl(144.0,100%,35%)" stroke-width="0.00310"></path>
<path d="M1.256 0.712 Q1.370 0.766 1.500 0.722" stroke="hsl(144.0,100%,35%)" stroke-width="0.00310"></path>
<path d="M1.256 0.712 Q0.896 0.511 0.424 0.643" stroke="hsl(144.0,100%,35%)" stroke-width="0.00310"></path>
<path d="M1.256 0.712 Q1.141 0.633 0.960 0.672" stroke="hsl(144.0,100%,35%)" stroke-width="0.00310"></path>
<path d="M1.256 0.712 Q1.397 0.794 1.587 0.743" stroke="hsl(144.0,100%,35%)" stroke-width="0.00310"></path>
<path d="M1.256 0.712 Q0.733 0.489 0.183 0.696" stroke="hsl(144.0,100%,35%)" stroke-width="0.00310"></path>
<path d="M1.256 0.712 Q1.346 0.611 1.168 0.545" stroke="hsl(144.0,100%,35%)" stroke-width="0.00310"></path>
<path d="M0.789 0.124 Q0.868 0.200 1.034 0.179" stroke="hsl(72.0,100%,35%)" stroke-width="0.00310"></path>
<path d="M0.789 0.124 Q0.729 0.073 0.616 0.091" stroke="hsl(72.0,100%,35%)" stroke-width="0.00621"></path>
<path d="M0.789 0.124 Q0.698 0.037 0.508 0.062" stroke="hsl(72.0,100%,35%)" stroke-width="0.00310"></path>
<path d="M0.789 0.124 Q0.637 0.090 0.535 0.156" stroke="hsl(72.0,100%,35%)" stroke-width="0.01552"></path>
<path d="M0.789 0.124 Q0.661 0.176 0.734 0.250" stroke="hsl(72.0,100%,35%)" stroke-width="0.02172"></path>
<path d="M1.893 0.571 Q1.955 0.513 1.856 0.470" stroke="hsl(72.0,100%,35%)" stroke-width="0.00621"></path>
<path d="M1.893 0.571 Q1.789 0.481 1.591 0.512" stroke="hsl(72.0,100%,35%)" stroke-width="0.00310"></path>
<path d="M1.893 0.571 Q1.975 0.530 1.914 0.482" stroke="hsl(72.0,100%,35%)" stroke-width="0.00310"></path>
<path d="M1.893 0.571 Q1.760 0.634 1.855 0.714" stroke="hsl(72.0,100%,35%)" stroke-width="0.00931"></path>
<path d="M1.893 0.571 Q1.004 0.546 0.762 0.975" stroke="hsl(72.0,100%,35%)" stroke-width="0.00310"></path>
<path d="M1.893 0.571 Q1.759 0.511 1.614 0.564" stroke="hsl(72.0,100%,35%)" stroke-width="0.00310"></path>
<path d="M0.168 0.112 Q-0.291 0.407 0.183 0.696" stroke="hsl(144.0,100%,35%)" stroke-width="0.01862"></path>
<path d="M0.168 0.112 Q0.188 0.190 0.345 0.197" stroke="hsl(144.0,100%,35%)" stroke-width="0.01552"></path>
<path d="M0.168 0.112 Q0.316 0.111 0.346 0.039" stroke="hsl(144.0,100%,35%)" stroke-width="0.01552"></path>
<path d="M1.782 0.946 Q1.663 0.916 1.578 0.968" stroke="hsl(72.0,100%,35%)" stroke-width="0.04345"></path>
<path d="M1.782 0.946 Q1.346 0.523 0.424 0.643" stroke="hsl(72.0,100%,35%)" stroke-width="0.00310"></path>
<path d="M1.782 0.946 Q1.968 0.916 1.949 0.819" stroke="hsl(72.0,100%,35%)" stroke-width="0.00621"></path>
<path d="M1.782 0.946 Q1.856 0.880 1.742 0.829" stroke="hsl(72.0,100%,35%)" stroke-width="0.00310"></path>
<path d="M1.967 0.430 Q2.019 0.393 1.957 0.359" stroke="hsl(72.0,100%,35%)" stroke-width="0.00310"></path>
<path d="M1.967 0.430 Q1.342 0.621 1.578 0.968" stroke="hsl(72.0,100%,35%)" stroke-width="0.00310"></path>
<path d="M1.967 0.430 Q1.026 0.228 0.424 0.643" stroke="hsl(72.0,100%,35%)" stroke-width="0.00310"></path>
<path d="M1.750 0.053 Q1.661 0.059 1.653 0.103" stroke="hsl(144.0,100%,35%)" stroke-width="0.00621"></path>
<path d="M1.750 0.053 Q0.542 0.170 0.505 0.785" stroke="hsl(144.0,100%,35%)" stroke-width="0.00310"></path>
<path d="M1.750 0.053 Q0.397 0.206 0.399 0.900" stroke="hsl(144.0,100%,35%)" stroke-width="0.00310"></path>
<path d="M1.750 0.053 Q1.748 0.120 1.878 0.135" stroke="hsl(144.0,100%,35%)" stroke-width="0.00310"></path>
<path d="M1.750 0.053 Q1.774 0.080 1.831 0.074" stroke="hsl(144.0,100%,35%)" stroke-width="0.00310"></path>
<path d="M1.750 0.053 Q1.700 0.172 1.922 0.223" stroke="hsl(144.0,100%,35%)" stroke-width="0.00310"></path>
<path d="M0.797 0.581 Q0.732 0.517 0.592 0.534" stroke="hsl(288.0,100%,35%)" stroke-width="0.02172"></path>
<path d="M0.797 0.581 Q0.664 0.550 0.574 0.609" stroke="hsl(288.0,100%,35%)" stroke-width="0.00310"></path>
<path d="M0.797 0.581 Q0.873 0.518 0.766 0.467" stroke="hsl(288.0,100%,35%)" stroke-width="0.02483"></path>
<path d="M0.797 0.581 Q0.653 0.458 0.381 0.501" stroke="hsl(288.0,100%,35%)" stroke-width="0.00931"></path>
<path d="M0.797 0.581 Q0.773 0.463 0.536 0.449" stroke="hsl(288.0,100%,35%)" stroke-width="0.00621"></path>
<path d="M1.016 0.617 Q1.087 0.587 1.043 0.545" stroke="hsl(72.0,100%,35%)" stroke-width="0.00310"></path>
<path d="M1.016 0.617 Q0.513 0.708 0.580 0.973" stroke="hsl(72.0,100%,35%)" stroke-width="0.00310"></path>
<path d="M1.016 0.617 Q0.603 0.745 0.762 0.975" stroke="hsl(72.0,100%,35%)" stroke-width="0.00310"></path>
</g>
<text x="1.390" y="0.365" font-size="0.020908" fill="hsl(0.0,100%,20%)">aaronmassey</text>
<text x="1.501" y="0.414" font-size="0.012804" fill="hsl(0.0,100%,20%)">bryancain</text>
<text x="1.633" y="0.319" font-size="0.007392" fill="hsl(0.0,100%,20%)">pmoy</text>
<text x="1.264" y="0.300" font-size="0.014784" fill="hsl(0.0,100%,20%)">nmuggli</text>
<text x="0.625" y="0.689" font-size="0.016529" fill="hsl(72.0,100%,20%)">adrian.ratiu</text>
<text x="0.424" y="0.631" font-size="0.022177" fill="hsl(144.0,100%,20%)">allenwebb</text>
<text x="0.549" y="0.823" font-size="0.007392" fill="hsl(72.0,100%,20%)">julianachang</text>
<text x="0.612" y="0.816" font-size="0.007392" fill="hsl(72.0,100%,20%)">okuji</text>
<text x="1.091" y="0.057" font-size="0.023376" fill="hsl(144.0,100%,20%)">andrewlassalle</text>
<text x="0.916" y="0.205" font-size="0.020908" fill="hsl(144.0,100%,20%)">rmao</text>
<text x="0.987" y="0.030" font-size="0.020908" fill="hsl(144.0,100%,20%)">ujjwalpande</text>
<text x="1.034" y="0.164" font-size="0.030479" fill="hsl(144.0,100%,20%)">ejcaruso</text>
<text x="0.957" y="0.074" font-size="0.010454" fill="hsl(144.0,100%,20%)">michamazur</text>
<text x="1.831" y="0.069" font-size="0.010454" fill="hsl(144.0,100%,20%)">andrewbregger</text>
<text x="0.799" y="0.835" font-size="0.026653" fill="hsl(216.0,100%,20%)">chenzikai</text>
<text x="1.081" y="0.894" font-size="0.043104" fill="hsl(216.0,100%,20%)">jiejiang</text>
<text x="0.775" y="0.731" font-size="0.040489" fill="hsl(216.0,100%,20%)">taoyl</text>
<text x="0.623" y="0.702" font-size="0.010454" fill="hsl(216.0,100%,20%)">akahuang</text>
<text x="1.025" y="0.752" font-size="0.040489" fill="hsl(216.0,100%,20%)">hugobenichi</text>
<text x="0.568" y="0.359" font-size="0.023376" fill="hsl(72.0,100%,20%)">cylee</text>
<text x="0.304" y="0.315" font-size="0.041817" fill="hsl(72.0,100%,20%)">hcyang</text>
<text x="0.734" y="0.232" font-size="0.036214" fill="hsl(72.0,100%,20%)">yich</text>
<text x="0.995" y="0.441" font-size="0.012804" fill="hsl(72.0,100%,20%)">xiyuan</text>
<text x="0.953" y="0.337" font-size="0.014784" fill="hsl(72.0,100%,20%)">diwux</text>
<text x="0.838" y="0.326" font-size="0.007392" fill="hsl(72.0,100%,20%)">elkurin</text>
<text x="1.043" y="0.533" font-size="0.024517" fill="hsl(72.0,100%,20%)">hidehiko</text>
<text x="1.073" y="0.302" font-size="0.007392" fill="hsl(72.0,100%,20%)">yichenz</text>
<text x="1.343" y="0.110" font-size="0.012804" fill="hsl(216.0,100%,20%)">druth</text>
<text x="1.496" y="0.074" font-size="0.016529" fill="hsl(216.0,100%,20%)">andrzejo</text>
<text x="1.591" y="0.206" font-size="0.026653" fill="hsl(216.0,100%,20%)">jintaolin</text>
<text x="1.487" y="0.283" font-size="0.019558" fill="hsl(216.0,100%,20%)">matthewmwang</text>
<text x="0.345" y="0.185" font-size="0.023376" fill="hsl(144.0,100%,20%)">dverkamp</text>
<text x="0.762" y="0.965" font-size="0.019558" fill="hsl(72.0,100%,20%)">uekawa</text>
<text x="0.484" y="0.124" font-size="0.007392" fill="hsl(72.0,100%,20%)">drmasquatch</text>
<text x="0.346" y="0.030" font-size="0.018107" fill="hsl(144.0,100%,20%)">zihanchen</text>
<text x="0.288" y="0.796" font-size="0.037693" fill="hsl(144.0,100%,20%)">erisawada</text>
<text x="0.183" y="0.681" font-size="0.029569" fill="hsl(144.0,100%,20%)">dtor</text>
<text x="0.505" y="0.774" font-size="0.022177" fill="hsl(144.0,100%,20%)">kalutes</text>
<text x="0.399" y="0.889" font-size="0.022177" fill="hsl(144.0,100%,20%)">kawasin</text>
<text x="0.193" y="0.478" font-size="0.014784" fill="hsl(72.0,100%,20%)">gbiv</text>
<text x="1.790" y="0.231" font-size="0.025607" fill="hsl(216.0,100%,20%)">kglund</text>
<text x="0.265" y="0.560" font-size="0.007392" fill="hsl(72.0,100%,20%)">norvez</text>
<text x="1.695" y="0.430" font-size="0.016529" fill="hsl(72.0,100%,20%)">gwendal</text>
<text x="1.605" y="0.650" font-size="0.016529" fill="hsl(144.0,100%,20%)">apronin</text>
<text x="1.523" y="0.469" font-size="0.007392" fill="hsl(72.0,100%,20%)">ndureus</text>
<text x="1.813" y="0.378" font-size="0.012804" fill="hsl(72.0,100%,20%)">chenghaoyang</text>
<text x="0.312" y="0.453" font-size="0.007392" fill="hsl(72.0,100%,20%)">chenyian</text>
<text x="0.554" y="0.292" font-size="0.033875" fill="hsl(72.0,100%,20%)">zuan</text>
<text x="1.178" y="0.474" font-size="0.007392" fill="hsl(72.0,100%,20%)">aashay</text>
<text x="0.224" y="0.914" font-size="0.016529" fill="hsl(72.0,100%,20%)">jadmanski</text>
<text x="0.562" y="0.929" font-size="0.012804" fill="hsl(72.0,100%,20%)">hardikgoyal</text>
<text x="0.557" y="0.977" font-size="0.007392" fill="hsl(72.0,100%,20%)">lziest</text>
<text x="1.614" y="0.559" font-size="0.010454" fill="hsl(72.0,100%,20%)">betuls</text>
<text x="1.282" y="0.230" font-size="0.012804" fill="hsl(72.0,100%,20%)">jettrink</text>
<text x="1.368" y="0.192" font-size="0.007392" fill="hsl(72.0,100%,20%)">mruthven</text>
<text x="0.581" y="0.649" font-size="0.016529" fill="hsl(72.0,100%,20%)">jiaozhou</text>
<text x="0.862" y="0.613" font-size="0.007392" fill="hsl(72.0,100%,20%)">lepton</text>
<text x="0.631" y="0.641" font-size="0.007392" fill="hsl(72.0,100%,20%)">linben</text>
<text x="1.578" y="0.953" font-size="0.029569" fill="hsl(72.0,100%,20%)">nicholasbishop</text>
<text x="0.732" y="0.938" font-size="0.010454" fill="hsl(72.0,100%,20%)">niwa</text>
<text x="0.573" y="0.616" font-size="0.007392" fill="hsl(144.0,100%,20%)">rrangel</text>
<text x="1.004" y="0.965" font-size="0.007392" fill="hsl(216.0,100%,20%)">jasongustaman</text>
<text x="1.161" y="0.419" font-size="0.014784" fill="hsl(72.0,100%,20%)">kimjae</text>
<text x="1.856" y="0.464" font-size="0.012804" fill="hsl(72.0,100%,20%)">mqg</text>
<text x="1.132" y="0.388" font-size="0.007392" fill="hsl(72.0,100%,20%)">sammc</text>
<text x="1.299" y="0.480" font-size="0.007392" fill="hsl(72.0,100%,20%)">jrosenth</text>
<text x="1.366" y="0.547" font-size="0.014784" fill="hsl(144.0,100%,20%)">yuanpengni</text>
<text x="1.256" y="0.684" font-size="0.056297" fill="hsl(144.0,100%,20%)">neis</text>
<text x="1.355" y="0.593" font-size="0.007392" fill="hsl(144.0,100%,20%)">yoshiki</text>
<text x="1.278" y="0.565" font-size="0.007392" fill="hsl(144.0,100%,20%)">tbain</text>
<text x="1.254" y="0.496" font-size="0.007392" fill="hsl(144.0,100%,20%)">josienordrum</text>
<text x="1.083" y="0.646" font-size="0.007392" fill="hsl(144.0,100%,20%)">slutskii</text>
<text x="1.478" y="0.821" font-size="0.007392" fill="hsl(144.0,100%,20%)">dcjansen</text>
<text x="1.314" y="0.790" font-size="0.012804" fill="hsl(144.0,100%,20%)">hashimoto</text>
<text x="1.574" y="0.770" font-size="0.007392" fill="hsl(144.0,100%,20%)">bszpila</text>
<text x="1.524" y="0.566" font-size="0.012804" fill="hsl(144.0,100%,20%)">fdegros</text>
<text x="1.483" y="0.725" font-size="0.007392" fill="hsl(144.0,100%,20%)">amandadeacon</text>
<text x="1.151" y="0.823" font-size="0.007392" fill="hsl(144.0,100%,20%)">sarthakkukreti</text>
<text x="1.455" y="0.666" font-size="0.007392" fill="hsl(144.0,100%,20%)">jasonling</text>
<text x="1.458" y="0.804" font-size="0.007392" fill="hsl(144.0,100%,20%)">bmgordon</text>
<text x="1.262" y="0.529" font-size="0.007392" fill="hsl(144.0,100%,20%)">seobrien</text>
<text x="1.318" y="0.500" font-size="0.007392" fill="hsl(144.0,100%,20%)">tbarzic</text>
<text x="1.485" y="0.625" font-size="0.007392" fill="hsl(144.0,100%,20%)">wyuang</text>
<text x="1.369" y="0.855" font-size="0.007392" fill="hsl(144.0,100%,20%)">chensa</text>
<text x="1.186" y="0.609" font-size="0.007392" fill="hsl(144.0,100%,20%)">dlunev</text>
<text x="1.321" y="0.767" font-size="0.007392" fill="hsl(144.0,100%,20%)">phoenixshen</text>
<text x="1.447" y="0.639" font-size="0.007392" fill="hsl(144.0,100%,20%)">hiroh</text>
<text x="1.393" y="0.493" font-size="0.007392" fill="hsl(144.0,100%,20%)">chingkang</text>
<text x="0.592" y="0.524" font-size="0.020908" fill="hsl(288.0,100%,20%)">kerker</text>
<text x="1.455" y="0.774" font-size="0.007392" fill="hsl(144.0,100%,20%)">sfrolov</text>
<text x="1.246" y="0.578" font-size="0.007392" fill="hsl(144.0,100%,20%)">jkardatzke</text>
<text x="1.492" y="0.735" font-size="0.007392" fill="hsl(144.0,100%,20%)">eunicesun</text>
<text x="1.957" y="0.354" font-size="0.010454" fill="hsl(72.0,100%,20%)">khmel</text>
<text x="1.504" y="0.707" font-size="0.007392" fill="hsl(144.0,100%,20%)">dennyh</text>
<text x="1.591" y="0.507" font-size="0.010454" fill="hsl(144.0,100%,20%)">puthik</text>
<text x="1.497" y="0.731" font-size="0.007392" fill="hsl(144.0,100%,20%)">xiangdongkong</text>
<text x="1.252" y="0.780" font-size="0.007392" fill="hsl(144.0,100%,20%)">kamesan</text>
<text x="1.255" y="0.538" font-size="0.007392" fill="hsl(144.0,100%,20%)">bleung</text>
<text x="1.500" y="0.718" font-size="0.007392" fill="hsl(144.0,100%,20%)">kevinptt</text>
<text x="0.960" y="0.668" font-size="0.007392" fill="hsl(144.0,100%,20%)">jthies</text>
<text x="1.587" y="0.740" font-size="0.007392" fill="hsl(144.0,100%,20%)">poromov</text>
<text x="1.168" y="0.541" font-size="0.007392" fill="hsl(144.0,100%,20%)">rbock</text>
<text x="0.789" y="0.110" font-size="0.029569" fill="hsl(72.0,100%,20%)">nurlitadf</text>
<text x="0.616" y="0.086" font-size="0.010454" fill="hsl(72.0,100%,20%)">jmpollock</text>
<text x="0.508" y="0.058" font-size="0.007392" fill="hsl(72.0,100%,20%)">elisecheng</text>
<text x="0.535" y="0.148" font-size="0.016529" fill="hsl(72.0,100%,20%)">fairuzi</text>
<text x="0.962" y="0.193" font-size="0.007392" fill="hsl(144.0,100%,20%)">aleksandermj</text>
<text x="1.893" y="0.560" font-size="0.022177" fill="hsl(72.0,100%,20%)">soichirof</text>
<text x="1.914" y="0.478" font-size="0.007392" fill="hsl(72.0,100%,20%)">skardach</text>
<text x="1.855" y="0.707" font-size="0.012804" fill="hsl(72.0,100%,20%)">takayas</text>
<text x="0.168" y="0.097" font-size="0.029569" fill="hsl(144.0,100%,20%)">spadhi</text>
<text x="1.782" y="0.931" font-size="0.031363" fill="hsl(72.0,100%,20%)">tbrandston</text>
<text x="1.949" y="0.813" font-size="0.010454" fill="hsl(72.0,100%,20%)">skend</text>
<text x="1.742" y="0.825" font-size="0.007392" fill="hsl(72.0,100%,20%)">josephsussman</text>
<text x="1.967" y="0.424" font-size="0.012804" fill="hsl(72.0,100%,20%)">tinghaolin</text>
<text x="0.829" y="0.985" font-size="0.007392" fill="hsl(72.0,100%,20%)">richardfung</text>
<text x="0.580" y="0.968" font-size="0.010454" fill="hsl(72.0,100%,20%)">keiichiw</text>
<text x="0.622" y="0.938" font-size="0.007392" fill="hsl(72.0,100%,20%)">chibar</text>
<text x="1.750" y="0.043" font-size="0.019558" fill="hsl(144.0,100%,20%)">vovoy</text>
<text x="1.653" y="0.098" font-size="0.010454" fill="hsl(144.0,100%,20%)">stevensd</text>
<text x="1.878" y="0.132" font-size="0.007392" fill="hsl(144.0,100%,20%)">shahadath</text>
<text x="1.922" y="0.219" font-size="0.007392" fill="hsl(144.0,100%,20%)">bgeffon</text>
<text x="0.797" y="0.564" font-size="0.033875" fill="hsl(288.0,100%,20%)">weiluanwang</text>
<text x="0.574" y="0.605" font-size="0.007392" fill="hsl(288.0,100%,20%)">chungsheng</text>
<text x="0.766" y="0.456" font-size="0.020908" fill="hsl(288.0,100%,20%)">yycheng</text>
<text x="0.381" y="0.495" font-size="0.012804" fill="hsl(288.0,100%,20%)">byronlee</text>
<text x="0.536" y="0.444" font-size="0.010454" fill="hsl(288.0,100%,20%)">tomhughes</text>
<text x="1.016" y="0.611" font-size="0.012804" fill="hsl(72.0,100%,20%)">yuanyaogoog</text>
<text x="0.533" y="0.249" font-size="0.007392" fill="hsl(72.0,100%,20%)">vraheja</text>
</svg>
