<svg width="4000" height="2000" viewBox="-0.025 -0.025 2.05 1.05" xmlns="http://www.w3.org/2000/svg">
  <style>
    path {
      fill: none;
      stroke-linecap: round;
      stroke-opacity: 0.4;
    }

    text {
      text-anchor: middle;
      alignment-baseline: hanging;
    }
  </style>
  <g opacity="0.4">
<path d="M1.332 0.292 Q1.448 0.171 1.238 0.088" stroke="hsl(0.0,100%,35%)" stroke-width="0.00315"></path>
<path d="M1.332 0.292 Q1.311 0.195 1.116 0.184" stroke="hsl(0.0,100%,35%)" stroke-width="0.00335"></path>
<path d="M1.332 0.292 Q1.511 0.318 1.600 0.236" stroke="hsl(0.0,100%,35%)" stroke-width="0.00020"></path>
<path d="M1.332 0.292 Q0.443 0.276 0.216 0.706" stroke="hsl(0.0,100%,35%)" stroke-width="0.00039"></path>
<path d="M1.238 0.088 Q0.854 0.153 0.897 0.354" stroke="hsl(0.0,100%,35%)" stroke-width="0.02246"></path>
<path d="M1.238 0.088 Q0.372 0.403 0.796 0.894" stroke="hsl(0.0,100%,35%)" stroke-width="0.04097"></path>
<path d="M1.238 0.088 Q1.301 0.234 1.600 0.236" stroke="hsl(0.0,100%,35%)" stroke-width="0.03999"></path>
<path d="M1.238 0.088 Q0.903 0.222 1.091 0.415" stroke="hsl(0.0,100%,35%)" stroke-width="0.01280"></path>
<path d="M1.238 0.088 Q1.091 0.066 1.016 0.132" stroke="hsl(0.0,100%,35%)" stroke-width="0.03841"></path>
<path d="M1.238 0.088 Q0.933 0.022 0.737 0.156" stroke="hsl(0.0,100%,35%)" stroke-width="0.00020"></path>
<path d="M1.238 0.088 Q1.100 0.112 1.116 0.184" stroke="hsl(0.0,100%,35%)" stroke-width="0.00630"></path>
<path d="M1.238 0.088 Q0.232 0.193 0.216 0.706" stroke="hsl(0.0,100%,35%)" stroke-width="0.00039"></path>
<path d="M1.238 0.088 Q1.148 0.139 1.228 0.193" stroke="hsl(0.0,100%,35%)" stroke-width="0.00118"></path>
<path d="M1.238 0.088 Q0.829 0.291 1.134 0.534" stroke="hsl(0.0,100%,35%)" stroke-width="0.00020"></path>
<path d="M1.238 0.088 Q0.395 0.139 0.308 0.561" stroke="hsl(0.0,100%,35%)" stroke-width="0.00020"></path>
<path d="M1.238 0.088 Q0.721 0.217 0.859 0.497" stroke="hsl(0.0,100%,35%)" stroke-width="0.00020"></path>
<path d="M1.238 0.088 Q0.479 0.481 1.079 0.938" stroke="hsl(0.0,100%,35%)" stroke-width="0.00039"></path>
<path d="M1.238 0.088 Q1.329 0.188 1.544 0.166" stroke="hsl(0.0,100%,35%)" stroke-width="0.05043"></path>
<path d="M1.116 0.184 Q1.317 0.307 1.600 0.236" stroke="hsl(0.0,100%,35%)" stroke-width="0.00079"></path>
<path d="M1.116 0.184 Q1.254 0.160 1.238 0.088" stroke="hsl(0.0,100%,35%)" stroke-width="0.01182"></path>
<path d="M1.116 0.184 Q0.388 0.475 0.796 0.894" stroke="hsl(0.0,100%,35%)" stroke-width="0.00236"></path>
<path d="M1.116 0.184 Q1.137 0.281 1.332 0.292" stroke="hsl(0.0,100%,35%)" stroke-width="0.00020"></path>
<path d="M1.116 0.184 Q1.107 0.138 1.016 0.132" stroke="hsl(0.0,100%,35%)" stroke-width="0.00276"></path>
<path d="M1.116 0.184 Q0.870 0.225 0.897 0.354" stroke="hsl(0.0,100%,35%)" stroke-width="0.00689"></path>
<path d="M1.116 0.184 Q0.919 0.294 1.091 0.415" stroke="hsl(0.0,100%,35%)" stroke-width="0.00768"></path>
<path d="M1.116 0.184 Q1.107 0.094 0.930 0.079" stroke="hsl(0.0,100%,35%)" stroke-width="0.00059"></path>
<path d="M1.116 0.184 Q1.345 0.260 1.544 0.166" stroke="hsl(0.0,100%,35%)" stroke-width="0.00788"></path>
<path d="M1.116 0.184 Q1.165 0.211 1.228 0.193" stroke="hsl(0.0,100%,35%)" stroke-width="0.00020"></path>
<path d="M1.116 0.184 Q0.845 0.363 1.134 0.534" stroke="hsl(0.0,100%,35%)" stroke-width="0.00020"></path>
<path d="M1.600 0.236 Q1.537 0.089 1.238 0.088" stroke="hsl(0.0,100%,35%)" stroke-width="0.02128"></path>
<path d="M1.600 0.236 Q0.671 0.404 0.796 0.894" stroke="hsl(0.0,100%,35%)" stroke-width="0.00256"></path>
<path d="M1.600 0.236 Q1.153 0.155 0.897 0.354" stroke="hsl(0.0,100%,35%)" stroke-width="0.00098"></path>
<path d="M1.600 0.236 Q1.203 0.223 1.091 0.415" stroke="hsl(0.0,100%,35%)" stroke-width="0.00039"></path>
<path d="M1.600 0.236 Q1.390 0.067 1.016 0.132" stroke="hsl(0.0,100%,35%)" stroke-width="0.00158"></path>
<path d="M0.216 0.706 Q1.084 0.625 1.116 0.184" stroke="hsl(0.0,100%,35%)" stroke-width="0.00079"></path>
<path d="M0.216 0.706 Q1.221 0.602 1.238 0.088" stroke="hsl(0.0,100%,35%)" stroke-width="0.00118"></path>
<path d="M0.216 0.706 Q1.105 0.722 1.332 0.292" stroke="hsl(0.0,100%,35%)" stroke-width="0.00039"></path>
<path d="M0.216 0.706 Q0.378 0.652 0.308 0.561" stroke="hsl(0.0,100%,35%)" stroke-width="0.00039"></path>
<path d="M0.216 0.706 Q0.356 0.916 0.796 0.894" stroke="hsl(0.0,100%,35%)" stroke-width="0.00039"></path>
<path d="M0.216 0.706 Q1.313 0.702 1.544 0.166" stroke="hsl(0.0,100%,35%)" stroke-width="0.00059"></path>
<path d="M1.145 0.734 Q1.324 0.494 0.897 0.354" stroke="hsl(180.0,100%,35%)" stroke-width="0.00020"></path>
<path d="M1.145 0.734 Q1.373 0.563 1.091 0.415" stroke="hsl(180.0,100%,35%)" stroke-width="0.00039"></path>
<path d="M1.145 0.734 Q1.708 0.429 1.238 0.088" stroke="hsl(180.0,100%,35%)" stroke-width="0.00020"></path>
<path d="M0.897 0.354 Q1.064 0.487 1.358 0.434" stroke="hsl(180.0,100%,35%)" stroke-width="0.00532"></path>
<path d="M0.897 0.354 Q0.946 0.423 1.091 0.415" stroke="hsl(180.0,100%,35%)" stroke-width="0.03329"></path>
<path d="M0.897 0.354 Q1.280 0.289 1.238 0.088" stroke="hsl(180.0,100%,35%)" stroke-width="0.01221"></path>
<path d="M0.897 0.354 Q0.956 0.498 1.249 0.500" stroke="hsl(180.0,100%,35%)" stroke-width="0.00020"></path>
<path d="M0.897 0.354 Q0.976 0.223 0.737 0.156" stroke="hsl(180.0,100%,35%)" stroke-width="0.01556"></path>
<path d="M0.897 0.354 Q0.808 0.358 0.796 0.402" stroke="hsl(180.0,100%,35%)" stroke-width="0.00020"></path>
<path d="M0.897 0.354 Q0.658 0.469 0.829 0.610" stroke="hsl(180.0,100%,35%)" stroke-width="0.00020"></path>
<path d="M0.897 0.354 Q0.612 0.448 0.732 0.608" stroke="hsl(180.0,100%,35%)" stroke-width="0.00315"></path>
<path d="M0.897 0.354 Q0.871 0.492 1.134 0.534" stroke="hsl(180.0,100%,35%)" stroke-width="0.00118"></path>
<path d="M0.897 0.354 Q1.143 0.313 1.116 0.184" stroke="hsl(180.0,100%,35%)" stroke-width="0.00138"></path>
<path d="M0.897 0.354 Q0.578 0.488 0.770 0.673" stroke="hsl(180.0,100%,35%)" stroke-width="0.00020"></path>
<path d="M0.897 0.354 Q0.260 0.323 0.060 0.627" stroke="hsl(180.0,100%,35%)" stroke-width="0.00020"></path>
<path d="M0.897 0.354 Q0.415 0.604 0.796 0.894" stroke="hsl(180.0,100%,35%)" stroke-width="0.00138"></path>
<path d="M0.897 0.354 Q1.134 0.223 0.930 0.079" stroke="hsl(180.0,100%,35%)" stroke-width="0.00020"></path>
<path d="M0.897 0.354 Q0.604 0.319 0.471 0.455" stroke="hsl(180.0,100%,35%)" stroke-width="0.00039"></path>
<path d="M0.897 0.354 Q0.760 0.455 0.927 0.544" stroke="hsl(180.0,100%,35%)" stroke-width="0.00020"></path>
<path d="M0.897 0.354 Q0.663 0.497 0.891 0.643" stroke="hsl(180.0,100%,35%)" stroke-width="0.00020"></path>
<path d="M0.897 0.354 Q1.371 0.390 1.544 0.166" stroke="hsl(180.0,100%,35%)" stroke-width="0.00177"></path>
<path d="M0.897 0.354 Q0.783 0.303 0.658 0.347" stroke="hsl(180.0,100%,35%)" stroke-width="0.00039"></path>
<path d="M0.897 0.354 Q0.649 0.319 0.526 0.432" stroke="hsl(180.0,100%,35%)" stroke-width="0.00020"></path>
<path d="M0.897 0.354 Q1.343 0.436 1.600 0.236" stroke="hsl(180.0,100%,35%)" stroke-width="0.00020"></path>
<path d="M1.091 0.415 Q1.426 0.281 1.238 0.088" stroke="hsl(180.0,100%,35%)" stroke-width="0.00512"></path>
<path d="M1.091 0.415 Q1.042 0.346 0.897 0.354" stroke="hsl(180.0,100%,35%)" stroke-width="0.02147"></path>
<path d="M1.091 0.415 Q1.017 0.483 1.134 0.534" stroke="hsl(180.0,100%,35%)" stroke-width="0.00295"></path>
<path d="M1.091 0.415 Q1.209 0.478 1.358 0.434" stroke="hsl(180.0,100%,35%)" stroke-width="0.00098"></path>
<path d="M1.091 0.415 Q0.560 0.595 0.796 0.894" stroke="hsl(180.0,100%,35%)" stroke-width="0.00020"></path>
<path d="M1.091 0.415 Q1.279 0.258 1.016 0.132" stroke="hsl(180.0,100%,35%)" stroke-width="0.00059"></path>
<path d="M1.091 0.415 Q0.757 0.439 0.732 0.608" stroke="hsl(180.0,100%,35%)" stroke-width="0.00473"></path>
<path d="M1.091 0.415 Q1.121 0.214 0.737 0.156" stroke="hsl(180.0,100%,35%)" stroke-width="0.00867"></path>
<path d="M1.091 0.415 Q0.887 0.383 0.780 0.476" stroke="hsl(180.0,100%,35%)" stroke-width="0.00059"></path>
<path d="M1.091 0.415 Q1.089 0.529 1.310 0.555" stroke="hsl(180.0,100%,35%)" stroke-width="0.00020"></path>
<path d="M1.091 0.415 Q0.906 0.447 0.927 0.544" stroke="hsl(180.0,100%,35%)" stroke-width="0.00020"></path>
<path d="M1.091 0.415 Q1.288 0.304 1.116 0.184" stroke="hsl(180.0,100%,35%)" stroke-width="0.00020"></path>
<path d="M1.091 0.415 Q1.111 0.484 1.251 0.490" stroke="hsl(180.0,100%,35%)" stroke-width="0.00098"></path>
<path d="M1.091 0.415 Q1.517 0.381 1.544 0.166" stroke="hsl(180.0,100%,35%)" stroke-width="0.00256"></path>
<path d="M0.796 0.894 Q1.515 0.557 1.016 0.132" stroke="hsl(0.0,100%,35%)" stroke-width="0.00906"></path>
<path d="M0.796 0.894 Q1.662 0.579 1.238 0.088" stroke="hsl(0.0,100%,35%)" stroke-width="0.01931"></path>
<path d="M0.796 0.894 Q1.725 0.726 1.600 0.236" stroke="hsl(0.0,100%,35%)" stroke-width="0.00138"></path>
<path d="M0.796 0.894 Q0.903 0.973 1.079 0.938" stroke="hsl(0.0,100%,35%)" stroke-width="0.00768"></path>
<path d="M0.796 0.894 Q1.278 0.644 0.897 0.354" stroke="hsl(0.0,100%,35%)" stroke-width="0.00039"></path>
<path d="M0.796 0.894 Q1.524 0.603 1.116 0.184" stroke="hsl(0.0,100%,35%)" stroke-width="0.00276"></path>
<path d="M0.796 0.894 Q1.753 0.680 1.544 0.166" stroke="hsl(0.0,100%,35%)" stroke-width="0.01300"></path>
<path d="M1.016 0.132 Q1.162 0.155 1.238 0.088" stroke="hsl(0.0,100%,35%)" stroke-width="0.03526"></path>
<path d="M1.016 0.132 Q0.828 0.289 1.091 0.415" stroke="hsl(0.0,100%,35%)" stroke-width="0.00138"></path>
<path d="M1.016 0.132 Q1.225 0.301 1.600 0.236" stroke="hsl(0.0,100%,35%)" stroke-width="0.00177"></path>
<path d="M1.016 0.132 Q1.073 0.205 1.228 0.193" stroke="hsl(0.0,100%,35%)" stroke-width="0.00039"></path>
<path d="M1.016 0.132 Q1.025 0.178 1.116 0.184" stroke="hsl(0.0,100%,35%)" stroke-width="0.00098"></path>
<path d="M1.016 0.132 Q0.296 0.469 0.796 0.894" stroke="hsl(0.0,100%,35%)" stroke-width="0.00118"></path>
<path d="M1.016 0.132 Q0.778 0.220 0.897 0.354" stroke="hsl(0.0,100%,35%)" stroke-width="0.00256"></path>
<path d="M1.016 0.132 Q0.945 0.352 1.358 0.434" stroke="hsl(0.0,100%,35%)" stroke-width="0.00020"></path>
<path d="M1.016 0.132 Q1.253 0.255 1.544 0.166" stroke="hsl(0.0,100%,35%)" stroke-width="0.00355"></path>
<path d="M1.358 0.434 Q1.240 0.371 1.091 0.415" stroke="hsl(180.0,100%,35%)" stroke-width="0.00433"></path>
<path d="M1.358 0.434 Q1.166 0.440 1.134 0.534" stroke="hsl(180.0,100%,35%)" stroke-width="0.00335"></path>
<path d="M1.358 0.434 Q1.191 0.302 0.897 0.354" stroke="hsl(180.0,100%,35%)" stroke-width="0.00433"></path>
<path d="M1.358 0.434 Q1.428 0.215 1.016 0.132" stroke="hsl(180.0,100%,35%)" stroke-width="0.00020"></path>
<path d="M1.358 0.434 Q1.575 0.237 1.238 0.088" stroke="hsl(180.0,100%,35%)" stroke-width="0.00020"></path>
<path d="M1.358 0.434 Q1.479 0.481 1.598 0.432" stroke="hsl(180.0,100%,35%)" stroke-width="0.00020"></path>
<path d="M1.134 0.534 Q1.159 0.397 0.897 0.354" stroke="hsl(180.0,100%,35%)" stroke-width="0.00177"></path>
<path d="M1.134 0.534 Q1.209 0.466 1.091 0.415" stroke="hsl(180.0,100%,35%)" stroke-width="0.00217"></path>
<path d="M1.134 0.534 Q1.088 0.525 1.059 0.545" stroke="hsl(180.0,100%,35%)" stroke-width="0.00020"></path>
<path d="M1.134 0.534 Q1.326 0.529 1.358 0.434" stroke="hsl(180.0,100%,35%)" stroke-width="0.00020"></path>
<path d="M1.134 0.534 Q0.677 0.647 0.796 0.894" stroke="hsl(180.0,100%,35%)" stroke-width="0.00020"></path>
<path d="M0.737 0.156 Q0.658 0.287 0.897 0.354" stroke="hsl(180.0,100%,35%)" stroke-width="0.00886"></path>
<path d="M0.737 0.156 Q0.707 0.356 1.091 0.415" stroke="hsl(180.0,100%,35%)" stroke-width="0.01103"></path>
<path d="M0.737 0.156 Q0.633 0.425 1.134 0.534" stroke="hsl(180.0,100%,35%)" stroke-width="0.00059"></path>
<path d="M1.228 0.193 Q1.317 0.143 1.238 0.088" stroke="hsl(0.0,100%,35%)" stroke-width="0.00670"></path>
<path d="M1.228 0.193 Q1.380 0.289 1.600 0.236" stroke="hsl(0.0,100%,35%)" stroke-width="0.00295"></path>
<path d="M1.228 0.193 Q1.171 0.120 1.016 0.132" stroke="hsl(0.0,100%,35%)" stroke-width="0.00138"></path>
<path d="M1.228 0.193 Q0.908 0.345 1.134 0.534" stroke="hsl(0.0,100%,35%)" stroke-width="0.00039"></path>
<path d="M1.228 0.193 Q1.408 0.243 1.544 0.166" stroke="hsl(0.0,100%,35%)" stroke-width="0.00158"></path>
<path d="M1.228 0.193 Q0.451 0.457 0.796 0.894" stroke="hsl(0.0,100%,35%)" stroke-width="0.00039"></path>
<path d="M1.228 0.193 Q1.180 0.166 1.116 0.184" stroke="hsl(0.0,100%,35%)" stroke-width="0.00020"></path>
<path d="M0.859 0.497 Q1.041 0.503 1.091 0.415" stroke="hsl(180.0,100%,35%)" stroke-width="0.00236"></path>
<path d="M0.859 0.497 Q0.992 0.434 0.897 0.354" stroke="hsl(180.0,100%,35%)" stroke-width="0.00256"></path>
<path d="M0.859 0.497 Q1.376 0.369 1.238 0.088" stroke="hsl(180.0,100%,35%)" stroke-width="0.00138"></path>
<path d="M0.859 0.497 Q1.238 0.392 1.116 0.184" stroke="hsl(180.0,100%,35%)" stroke-width="0.00020"></path>
<path d="M0.859 0.497 Q0.510 0.683 0.796 0.894" stroke="hsl(180.0,100%,35%)" stroke-width="0.00020"></path>
<path d="M0.859 0.497 Q0.759 0.577 0.891 0.643" stroke="hsl(180.0,100%,35%)" stroke-width="0.00039"></path>
<path d="M1.544 0.166 Q1.453 0.066 1.238 0.088" stroke="hsl(0.0,100%,35%)" stroke-width="0.00965"></path>
<path d="M1.544 0.166 Q1.315 0.089 1.116 0.184" stroke="hsl(0.0,100%,35%)" stroke-width="0.00847"></path>
<path d="M1.544 0.166 Q1.119 0.200 1.091 0.415" stroke="hsl(0.0,100%,35%)" stroke-width="0.00098"></path>
<path d="M1.544 0.166 Q1.069 0.131 0.897 0.354" stroke="hsl(0.0,100%,35%)" stroke-width="0.00276"></path>
<path d="M1.544 0.166 Q1.364 0.116 1.228 0.193" stroke="hsl(0.0,100%,35%)" stroke-width="0.00158"></path>
<path d="M1.544 0.166 Q0.587 0.380 0.796 0.894" stroke="hsl(0.0,100%,35%)" stroke-width="0.00630"></path>
<path d="M1.544 0.166 Q1.044 0.268 1.134 0.534" stroke="hsl(0.0,100%,35%)" stroke-width="0.00059"></path>
<path d="M0.780 0.476 Q0.985 0.507 1.091 0.415" stroke="hsl(180.0,100%,35%)" stroke-width="0.00335"></path>
<path d="M0.780 0.476 Q0.935 0.438 0.897 0.354" stroke="hsl(180.0,100%,35%)" stroke-width="0.00276"></path>
<path d="M0.780 0.476 Q0.702 0.581 0.891 0.643" stroke="hsl(180.0,100%,35%)" stroke-width="0.00039"></path>
<path d="M0.667 0.439 Q0.850 0.443 0.897 0.354" stroke="hsl(180.0,100%,35%)" stroke-width="0.00138"></path>
<path d="M0.667 0.439 Q0.899 0.512 1.091 0.415" stroke="hsl(180.0,100%,35%)" stroke-width="0.00059"></path>
<path d="M0.667 0.439 Q0.616 0.586 0.891 0.643" stroke="hsl(180.0,100%,35%)" stroke-width="0.00020"></path>
<path d="M1.249 0.500 Q1.239 0.426 1.091 0.415" stroke="hsl(180.0,100%,35%)" stroke-width="0.00098"></path>
<path d="M1.249 0.500 Q1.189 0.357 0.897 0.354" stroke="hsl(180.0,100%,35%)" stroke-width="0.00059"></path>
<path d="M1.249 0.500 Q1.436 0.316 1.116 0.184" stroke="hsl(180.0,100%,35%)" stroke-width="0.00020"></path>
<path d="M1.249 0.500 Q1.573 0.292 1.238 0.088" stroke="hsl(180.0,100%,35%)" stroke-width="0.00039"></path>
<path d="M1.249 0.500 Q0.707 0.607 0.796 0.894" stroke="hsl(180.0,100%,35%)" stroke-width="0.00020"></path>
<path d="M0.829 0.610 Q1.117 0.565 1.091 0.415" stroke="hsl(180.0,100%,35%)" stroke-width="0.00315"></path>
<path d="M0.829 0.610 Q1.067 0.496 0.897 0.354" stroke="hsl(180.0,100%,35%)" stroke-width="0.00138"></path>
<path d="M0.829 0.610 Q1.314 0.455 1.116 0.184" stroke="hsl(180.0,100%,35%)" stroke-width="0.00020"></path>
<path d="M0.829 0.610 Q1.042 0.633 1.134 0.534" stroke="hsl(180.0,100%,35%)" stroke-width="0.00079"></path>
<path d="M0.732 0.608 Q1.017 0.514 0.897 0.354" stroke="hsl(180.0,100%,35%)" stroke-width="0.00946"></path>
<path d="M0.732 0.608 Q1.096 0.383 0.737 0.156" stroke="hsl(180.0,100%,35%)" stroke-width="0.00039"></path>
<path d="M0.732 0.608 Q1.067 0.583 1.091 0.415" stroke="hsl(180.0,100%,35%)" stroke-width="0.00946"></path>
<path d="M0.732 0.608 Q0.992 0.652 1.134 0.534" stroke="hsl(180.0,100%,35%)" stroke-width="0.00039"></path>
<path d="M0.732 0.608 Q1.401 0.449 1.238 0.088" stroke="hsl(180.0,100%,35%)" stroke-width="0.00020"></path>
<path d="M0.732 0.608 Q1.263 0.473 1.116 0.184" stroke="hsl(180.0,100%,35%)" stroke-width="0.00039"></path>
<path d="M0.732 0.608 Q0.862 0.551 0.780 0.476" stroke="hsl(180.0,100%,35%)" stroke-width="0.00020"></path>
<path d="M0.732 0.608 Q0.884 0.578 0.859 0.497" stroke="hsl(180.0,100%,35%)" stroke-width="0.00020"></path>
<path d="M0.770 0.673 Q1.137 0.608 1.091 0.415" stroke="hsl(180.0,100%,35%)" stroke-width="0.00079"></path>
<path d="M0.770 0.673 Q0.803 0.633 0.732 0.608" stroke="hsl(180.0,100%,35%)" stroke-width="0.00059"></path>
<path d="M0.770 0.673 Q1.088 0.539 0.897 0.354" stroke="hsl(180.0,100%,35%)" stroke-width="0.00039"></path>
<path d="M0.770 0.673 Q0.855 0.682 0.891 0.643" stroke="hsl(180.0,100%,35%)" stroke-width="0.00039"></path>
<path d="M0.927 0.544 Q1.113 0.512 1.091 0.415" stroke="hsl(180.0,100%,35%)" stroke-width="0.00374"></path>
<path d="M0.927 0.544 Q1.064 0.443 0.897 0.354" stroke="hsl(180.0,100%,35%)" stroke-width="0.00532"></path>
<path d="M0.927 0.544 Q0.779 0.537 0.732 0.608" stroke="hsl(180.0,100%,35%)" stroke-width="0.00138"></path>
<path d="M0.944 0.500 Q1.086 0.487 1.091 0.415" stroke="hsl(180.0,100%,35%)" stroke-width="0.00039"></path>
<path d="M0.944 0.500 Q1.511 0.453 1.544 0.166" stroke="hsl(180.0,100%,35%)" stroke-width="0.00020"></path>
<path d="M0.944 0.500 Q1.037 0.418 0.897 0.354" stroke="hsl(180.0,100%,35%)" stroke-width="0.00079"></path>
<path d="M0.944 0.500 Q1.011 0.555 1.134 0.534" stroke="hsl(180.0,100%,35%)" stroke-width="0.00020"></path>
<path d="M1.337 0.268 Q1.431 0.158 1.238 0.088" stroke="hsl(0.0,100%,35%)" stroke-width="0.00020"></path>
<path d="M1.337 0.268 Q1.294 0.182 1.116 0.184" stroke="hsl(0.0,100%,35%)" stroke-width="0.00118"></path>
<path d="M1.337 0.268 Q1.048 0.223 0.897 0.354" stroke="hsl(0.0,100%,35%)" stroke-width="0.00039"></path>
<path d="M1.337 0.268 Q1.342 0.209 1.228 0.193" stroke="hsl(0.0,100%,35%)" stroke-width="0.00079"></path>
<path d="M1.337 0.268 Q0.566 0.473 0.796 0.894" stroke="hsl(0.0,100%,35%)" stroke-width="0.00059"></path>
<path d="M1.251 0.490 Q1.182 0.351 0.897 0.354" stroke="hsl(180.0,100%,35%)" stroke-width="0.00591"></path>
<path d="M1.251 0.490 Q1.232 0.420 1.091 0.415" stroke="hsl(180.0,100%,35%)" stroke-width="0.00571"></path>
<path d="M1.251 0.490 Q1.157 0.489 1.134 0.534" stroke="hsl(180.0,100%,35%)" stroke-width="0.00098"></path>
<path d="M1.251 0.490 Q0.897 0.445 0.732 0.608" stroke="hsl(180.0,100%,35%)" stroke-width="0.00118"></path>
<path d="M0.272 0.444 Q0.706 0.593 1.091 0.415" stroke="hsl(180.0,100%,35%)" stroke-width="0.00059"></path>
<path d="M0.272 0.444 Q1.131 0.559 1.544 0.166" stroke="hsl(180.0,100%,35%)" stroke-width="0.00020"></path>
<path d="M0.272 0.444 Q0.501 0.562 0.780 0.476" stroke="hsl(180.0,100%,35%)" stroke-width="0.00020"></path>
<path d="M0.272 0.444 Q0.656 0.524 0.897 0.354" stroke="hsl(180.0,100%,35%)" stroke-width="0.00020"></path>
<path d="M0.272 0.444 Q0.902 0.483 1.116 0.184" stroke="hsl(180.0,100%,35%)" stroke-width="0.00020"></path>
<path d="M0.109 0.500 Q0.619 0.585 0.897 0.354" stroke="hsl(180.0,100%,35%)" stroke-width="0.00020"></path>
<path d="M0.109 0.500 Q0.229 0.421 0.101 0.345" stroke="hsl(180.0,100%,35%)" stroke-width="0.00020"></path>
<path d="M0.109 0.500 Q-0.017 0.554 0.060 0.627" stroke="hsl(180.0,100%,35%)" stroke-width="0.00020"></path>
<path d="M1.226 0.529 Q1.201 0.376 0.897 0.354" stroke="hsl(180.0,100%,35%)" stroke-width="0.00020"></path>
<path d="M1.226 0.529 Q0.916 0.470 0.732 0.608" stroke="hsl(180.0,100%,35%)" stroke-width="0.00020"></path>
<path d="M1.226 0.529 Q1.250 0.445 1.091 0.415" stroke="hsl(180.0,100%,35%)" stroke-width="0.00039"></path>
<path d="M1.059 0.545 Q1.131 0.417 0.897 0.354" stroke="hsl(180.0,100%,35%)" stroke-width="0.00039"></path>
<path d="M1.059 0.545 Q1.180 0.486 1.091 0.415" stroke="hsl(180.0,100%,35%)" stroke-width="0.00020"></path>
<path d="M1.059 0.545 Q1.105 0.555 1.134 0.534" stroke="hsl(180.0,100%,35%)" stroke-width="0.00020"></path>
<path d="M0.425 0.248 Q0.550 0.533 1.134 0.534" stroke="hsl(180.0,100%,35%)" stroke-width="0.00020"></path>
<path d="M0.425 0.248 Q0.625 0.464 1.091 0.415" stroke="hsl(180.0,100%,35%)" stroke-width="0.00020"></path>
<path d="M0.425 0.248 Q0.576 0.395 0.897 0.354" stroke="hsl(180.0,100%,35%)" stroke-width="0.00020"></path>
<path d="M0.790 0.225 Q0.740 0.311 0.897 0.354" stroke="hsl(180.0,100%,35%)" stroke-width="0.00118"></path>
<path d="M0.790 0.225 Q0.789 0.380 1.091 0.415" stroke="hsl(180.0,100%,35%)" stroke-width="0.00020"></path>
<path d="M0.790 0.225 Q0.715 0.449 1.134 0.534" stroke="hsl(180.0,100%,35%)" stroke-width="0.00020"></path>
<path d="M1.117 0.583 Q1.189 0.425 0.897 0.354" stroke="hsl(180.0,100%,35%)" stroke-width="0.00118"></path>
<path d="M1.117 0.583 Q1.238 0.494 1.091 0.415" stroke="hsl(180.0,100%,35%)" stroke-width="0.00079"></path>
<path d="M1.117 0.583 Q1.164 0.562 1.134 0.534" stroke="hsl(180.0,100%,35%)" stroke-width="0.00020"></path>
<path d="M0.592 0.552 Q0.903 0.514 0.897 0.354" stroke="hsl(180.0,100%,35%)" stroke-width="0.00020"></path>
<path d="M0.592 0.552 Q0.766 0.615 0.927 0.544" stroke="hsl(180.0,100%,35%)" stroke-width="0.00020"></path>
<path d="M0.592 0.552 Q0.618 0.608 0.732 0.608" stroke="hsl(180.0,100%,35%)" stroke-width="0.00020"></path>
<path d="M0.925 0.614 Q1.118 0.478 0.897 0.354" stroke="hsl(180.0,100%,35%)" stroke-width="0.00039"></path>
<path d="M0.925 0.614 Q1.167 0.547 1.091 0.415" stroke="hsl(180.0,100%,35%)" stroke-width="0.00020"></path>
<path d="M0.925 0.614 Q0.833 0.572 0.732 0.608" stroke="hsl(180.0,100%,35%)" stroke-width="0.00039"></path>
<path d="M1.034 0.608 Q1.168 0.454 0.897 0.354" stroke="hsl(180.0,100%,35%)" stroke-width="0.00197"></path>
<path d="M1.034 0.608 Q1.218 0.523 1.091 0.415" stroke="hsl(180.0,100%,35%)" stroke-width="0.00158"></path>
<path d="M1.034 0.608 Q0.883 0.548 0.732 0.608" stroke="hsl(180.0,100%,35%)" stroke-width="0.00039"></path>
<path d="M1.034 0.608 Q1.552 0.389 1.238 0.088" stroke="hsl(180.0,100%,35%)" stroke-width="0.00020"></path>
</g>
<text x="1.332" y="0.285" font-size="0.014892" fill="hsl(0.0,100%,20%)">afdx</text>
<text x="1.238" y="0.038" font-size="0.099444" fill="hsl(0.0,100%,20%)">bclayton</text>
<text x="1.116" y="0.162" font-size="0.044357" fill="hsl(0.0,100%,20%)">rharrison</text>
<text x="1.600" y="0.213" font-size="0.046241" fill="hsl(0.0,100%,20%)">amaiorano</text>
<text x="0.216" y="0.701" font-size="0.011436" fill="hsl(0.0,100%,20%)">vasniktel</text>
<text x="1.145" y="0.731" font-size="0.004769" fill="hsl(180.0,100%,20%)">aleksi.sapon</text>
<text x="0.897" y="0.318" font-size="0.073617" fill="hsl(180.0,100%,20%)">cwallez</text>
<text x="1.091" y="0.381" font-size="0.067659" fill="hsl(180.0,100%,20%)">enga</text>
<text x="0.796" y="0.866" font-size="0.056482" fill="hsl(0.0,100%,20%)">dneto</text>
<text x="1.016" y="0.105" font-size="0.054064" fill="hsl(0.0,100%,20%)">jrprice</text>
<text x="1.358" y="0.422" font-size="0.023607" fill="hsl(180.0,100%,20%)">bajones</text>
<text x="1.134" y="0.523" font-size="0.022243" fill="hsl(180.0,100%,20%)">kainino</text>
<text x="1.598" y="0.431" font-size="0.002385" fill="hsl(180.0,100%,20%)">headlessclayton</text>
<text x="0.737" y="0.138" font-size="0.036165" fill="hsl(180.0,100%,20%)">senorblanco</text>
<text x="1.228" y="0.182" font-size="0.022623" fill="hsl(0.0,100%,20%)">sarahmashay</text>
<text x="0.308" y="0.559" font-size="0.004130" fill="hsl(0.0,100%,20%)">allydonaldson</text>
<text x="0.859" y="0.490" font-size="0.014700" fill="hsl(180.0,100%,20%)">brandon1.jones</text>
<text x="1.079" y="0.930" font-size="0.015269" fill="hsl(0.0,100%,20%)">alanbaker</text>
<text x="1.544" y="0.137" font-size="0.056883" fill="hsl(0.0,100%,20%)">dsinclair</text>
<text x="0.891" y="0.639" font-size="0.006745" fill="hsl(180.0,100%,20%)">rafael.cintron</text>
<text x="0.780" y="0.468" font-size="0.014700" fill="hsl(180.0,100%,20%)">bryan.bernhart</text>
<text x="0.667" y="0.435" font-size="0.007909" fill="hsl(180.0,100%,20%)">cjj19970505</text>
<text x="1.249" y="0.496" font-size="0.008598" fill="hsl(180.0,100%,20%)">rockot</text>
<text x="0.796" y="0.401" font-size="0.002385" fill="hsl(180.0,100%,20%)">beaufort.francois</text>
<text x="0.829" y="0.604" font-size="0.012842" fill="hsl(180.0,100%,20%)">shrekshao</text>
<text x="0.732" y="0.593" font-size="0.030817" fill="hsl(180.0,100%,20%)">jiawei.shao</text>
<text x="0.770" y="0.669" font-size="0.008261" fill="hsl(180.0,100%,20%)">jiajia.qin</text>
<text x="0.060" y="0.625" font-size="0.003372" fill="hsl(180.0,100%,20%)">thakis</text>
<text x="0.930" y="0.076" font-size="0.004769" fill="hsl(0.0,100%,20%)">jmadill</text>
<text x="0.471" y="0.453" font-size="0.003372" fill="hsl(180.0,100%,20%)">penghuang</text>
<text x="0.927" y="0.535" font-size="0.017845" fill="hsl(180.0,100%,20%)">hao.x.li</text>
<text x="0.658" y="0.345" font-size="0.003372" fill="hsl(180.0,100%,20%)">shaobo.yan</text>
<text x="0.526" y="0.431" font-size="0.002385" fill="hsl(180.0,100%,20%)">johnstiles</text>
<text x="0.944" y="0.496" font-size="0.006745" fill="hsl(180.0,100%,20%)">cwoffenden</text>
<text x="1.337" y="0.263" font-size="0.009539" fill="hsl(0.0,100%,20%)">dj2</text>
<text x="1.310" y="0.554" font-size="0.002385" fill="hsl(180.0,100%,20%)">hob</text>
<text x="1.251" y="0.480" font-size="0.020652" fill="hsl(180.0,100%,20%)">yunchao.he</text>
<text x="0.272" y="0.441" font-size="0.006309" fill="hsl(180.0,100%,20%)">enrico.galli</text>
<text x="0.109" y="0.498" font-size="0.004130" fill="hsl(180.0,100%,20%)">hans</text>
<text x="0.101" y="0.343" font-size="0.002385" fill="hsl(180.0,100%,20%)">hwennborg</text>
<text x="1.226" y="0.527" font-size="0.004769" fill="hsl(180.0,100%,20%)">jie.a.chen</text>
<text x="1.059" y="0.543" font-size="0.005332" fill="hsl(180.0,100%,20%)">lokokung</text>
<text x="0.425" y="0.246" font-size="0.004130" fill="hsl(180.0,100%,20%)">pkasting</text>
<text x="0.790" y="0.222" font-size="0.006745" fill="hsl(180.0,100%,20%)">stha09</text>
<text x="1.117" y="0.579" font-size="0.007909" fill="hsl(180.0,100%,20%)">tangm</text>
<text x="0.592" y="0.550" font-size="0.004130" fill="hsl(180.0,100%,20%)">xinghua.cao</text>
<text x="0.925" y="0.611" font-size="0.005332" fill="hsl(180.0,100%,20%)">yang.gu</text>
<text x="1.034" y="0.602" font-size="0.010928" fill="hsl(180.0,100%,20%)">zhaoming.jiang</text>
</svg>
