<svg width="4000" height="2000" viewBox="-0.025 -0.025 2.05 1.05" xmlns="http://www.w3.org/2000/svg">
  <style>
    path {
      fill: none;
      stroke-linecap: round;
      stroke-opacity: 0.4;
    }

    text {
      text-anchor: middle;
      alignment-baseline: hanging;
    }
  </style>
  <g opacity="0.4">
<path d="M0.449 0.570 Q1.236 0.756 1.773 0.414" stroke="hsl(0.0,100%,35%)" stroke-width="0.00105"></path>
<path d="M0.449 0.570 Q1.043 0.809 1.641 0.571" stroke="hsl(0.0,100%,35%)" stroke-width="0.00210"></path>
<path d="M0.449 0.570 Q0.232 0.607 0.257 0.721" stroke="hsl(0.0,100%,35%)" stroke-width="0.00105"></path>
<path d="M0.449 0.570 Q0.108 0.771 0.425 0.981" stroke="hsl(0.0,100%,35%)" stroke-width="0.00175"></path>
<path d="M0.449 0.570 Q0.238 0.831 0.702 0.992" stroke="hsl(0.0,100%,35%)" stroke-width="0.00035"></path>
<path d="M0.449 0.570 Q0.850 0.476 0.755 0.260" stroke="hsl(0.0,100%,35%)" stroke-width="0.00105"></path>
<path d="M0.449 0.570 Q0.643 0.485 0.519 0.371" stroke="hsl(0.0,100%,35%)" stroke-width="0.00419"></path>
<path d="M0.449 0.570 Q0.430 0.447 0.187 0.429" stroke="hsl(0.0,100%,35%)" stroke-width="0.01084"></path>
<path d="M0.449 0.570 Q0.581 0.314 0.111 0.193" stroke="hsl(0.0,100%,35%)" stroke-width="0.00035"></path>
<path d="M0.449 0.570 Q0.418 0.628 0.525 0.656" stroke="hsl(0.0,100%,35%)" stroke-width="0.00035"></path>
<path d="M1.773 0.414 Q0.986 0.227 0.449 0.570" stroke="hsl(0.0,100%,35%)" stroke-width="0.00140"></path>
<path d="M1.773 0.414 Q0.770 0.264 0.257 0.721" stroke="hsl(0.0,100%,35%)" stroke-width="0.00315"></path>
<path d="M1.773 0.414 Q1.146 0.274 0.736 0.549" stroke="hsl(0.0,100%,35%)" stroke-width="0.00105"></path>
<path d="M1.773 0.414 Q0.968 0.104 0.187 0.429" stroke="hsl(0.0,100%,35%)" stroke-width="0.02936"></path>
<path d="M1.773 0.414 Q0.775 0.488 0.702 0.992" stroke="hsl(0.0,100%,35%)" stroke-width="0.00035"></path>
<path d="M1.773 0.414 Q1.180 0.142 0.519 0.371" stroke="hsl(0.0,100%,35%)" stroke-width="0.00245"></path>
<path d="M1.773 0.414 Q1.581 0.466 1.641 0.571" stroke="hsl(0.0,100%,35%)" stroke-width="0.01119"></path>
<path d="M1.641 0.571 Q1.240 0.247 0.519 0.371" stroke="hsl(0.0,100%,35%)" stroke-width="0.01084"></path>
<path d="M1.641 0.571 Q1.028 0.209 0.187 0.429" stroke="hsl(0.0,100%,35%)" stroke-width="0.01468"></path>
<path d="M1.641 0.571 Q1.833 0.519 1.773 0.414" stroke="hsl(0.0,100%,35%)" stroke-width="0.00210"></path>
<path d="M1.641 0.571 Q0.835 0.594 0.702 0.992" stroke="hsl(0.0,100%,35%)" stroke-width="0.00035"></path>
<path d="M1.641 0.571 Q1.206 0.379 0.736 0.549" stroke="hsl(0.0,100%,35%)" stroke-width="0.00070"></path>
<path d="M1.641 0.571 Q1.293 0.448 0.976 0.591" stroke="hsl(0.0,100%,35%)" stroke-width="0.00035"></path>
<path d="M1.641 0.571 Q1.046 0.332 0.449 0.570" stroke="hsl(0.0,100%,35%)" stroke-width="0.00035"></path>
<path d="M0.257 0.721 Q0.133 0.885 0.425 0.981" stroke="hsl(180.0,100%,35%)" stroke-width="0.02517"></path>
<path d="M0.257 0.721 Q1.261 0.870 1.773 0.414" stroke="hsl(180.0,100%,35%)" stroke-width="0.00384"></path>
<path d="M0.257 0.721 Q0.348 0.898 0.714 0.893" stroke="hsl(180.0,100%,35%)" stroke-width="0.00944"></path>
<path d="M0.257 0.721 Q0.216 0.810 0.381 0.850" stroke="hsl(180.0,100%,35%)" stroke-width="0.01957"></path>
<path d="M0.257 0.721 Q0.540 0.809 0.773 0.690" stroke="hsl(180.0,100%,35%)" stroke-width="0.00070"></path>
<path d="M0.257 0.721 Q0.086 0.761 0.127 0.854" stroke="hsl(180.0,100%,35%)" stroke-width="0.00070"></path>
<path d="M0.257 0.721 Q0.455 0.561 0.187 0.429" stroke="hsl(180.0,100%,35%)" stroke-width="0.00070"></path>
<path d="M0.257 0.721 Q0.326 0.870 0.633 0.869" stroke="hsl(180.0,100%,35%)" stroke-width="0.00035"></path>
<path d="M0.257 0.721 Q0.170 0.801 0.307 0.861" stroke="hsl(180.0,100%,35%)" stroke-width="0.00454"></path>
<path d="M0.257 0.721 Q0.668 0.598 0.519 0.371" stroke="hsl(180.0,100%,35%)" stroke-width="0.00070"></path>
<path d="M0.257 0.721 Q0.393 0.946 0.863 0.929" stroke="hsl(180.0,100%,35%)" stroke-width="0.00035"></path>
<path d="M0.257 0.721 Q0.333 0.640 0.192 0.585" stroke="hsl(180.0,100%,35%)" stroke-width="0.00140"></path>
<path d="M0.257 0.721 Q0.663 0.977 1.253 0.835" stroke="hsl(180.0,100%,35%)" stroke-width="0.00315"></path>
<path d="M0.257 0.721 Q0.815 0.998 1.479 0.787" stroke="hsl(180.0,100%,35%)" stroke-width="0.00245"></path>
<path d="M0.257 0.721 Q0.468 0.835 0.738 0.758" stroke="hsl(180.0,100%,35%)" stroke-width="0.00035"></path>
<path d="M0.257 0.721 Q0.633 0.731 0.736 0.549" stroke="hsl(180.0,100%,35%)" stroke-width="0.00035"></path>
<path d="M0.257 0.721 Q0.876 0.827 1.220 0.549" stroke="hsl(180.0,100%,35%)" stroke-width="0.00175"></path>
<path d="M0.257 0.721 Q0.427 0.730 0.483 0.649" stroke="hsl(180.0,100%,35%)" stroke-width="0.00245"></path>
<path d="M0.257 0.721 Q0.162 0.993 0.673 1.099" stroke="hsl(180.0,100%,35%)" stroke-width="0.00035"></path>
<path d="M0.257 0.721 Q0.404 0.731 0.456 0.661" stroke="hsl(180.0,100%,35%)" stroke-width="0.00035"></path>
<path d="M0.257 0.721 Q0.474 0.683 0.449 0.570" stroke="hsl(180.0,100%,35%)" stroke-width="0.00035"></path>
<path d="M0.425 0.981 Q0.508 0.907 0.381 0.850" stroke="hsl(180.0,100%,35%)" stroke-width="0.01363"></path>
<path d="M0.425 0.981 Q1.169 0.924 1.220 0.549" stroke="hsl(180.0,100%,35%)" stroke-width="0.00070"></path>
<path d="M0.425 0.981 Q0.550 0.817 0.257 0.721" stroke="hsl(180.0,100%,35%)" stroke-width="0.00489"></path>
<path d="M0.425 0.981 Q0.640 0.995 0.714 0.893" stroke="hsl(180.0,100%,35%)" stroke-width="0.00699"></path>
<path d="M0.425 0.981 Q0.713 1.084 0.976 0.966" stroke="hsl(180.0,100%,35%)" stroke-width="0.00035"></path>
<path d="M0.425 0.981 Q0.416 0.839 0.136 0.812" stroke="hsl(180.0,100%,35%)" stroke-width="0.00105"></path>
<path d="M0.425 0.981 Q0.463 0.897 0.307 0.861" stroke="hsl(180.0,100%,35%)" stroke-width="0.00035"></path>
<path d="M0.425 0.981 Q0.632 0.925 0.567 0.812" stroke="hsl(180.0,100%,35%)" stroke-width="0.00035"></path>
<path d="M0.425 0.981 Q1.553 0.967 1.773 0.414" stroke="hsl(180.0,100%,35%)" stroke-width="0.00070"></path>
<path d="M0.425 0.981 Q0.766 0.780 0.449 0.570" stroke="hsl(180.0,100%,35%)" stroke-width="0.00070"></path>
<path d="M0.425 0.981 Q0.555 1.042 0.702 0.992" stroke="hsl(180.0,100%,35%)" stroke-width="0.00070"></path>
<path d="M0.425 0.981 Q0.686 1.042 0.863 0.929" stroke="hsl(180.0,100%,35%)" stroke-width="0.00035"></path>
<path d="M0.702 0.992 Q0.572 0.931 0.425 0.981" stroke="hsl(180.0,100%,35%)" stroke-width="0.00909"></path>
<path d="M0.702 0.992 Q1.700 0.917 1.773 0.414" stroke="hsl(180.0,100%,35%)" stroke-width="0.00105"></path>
<path d="M0.702 0.992 Q1.107 0.645 0.519 0.371" stroke="hsl(180.0,100%,35%)" stroke-width="0.00350"></path>
<path d="M0.702 0.992 Q0.765 0.916 0.633 0.869" stroke="hsl(180.0,100%,35%)" stroke-width="0.00035"></path>
<path d="M0.702 0.992 Q0.787 0.945 0.714 0.893" stroke="hsl(180.0,100%,35%)" stroke-width="0.00140"></path>
<path d="M0.702 0.992 Q0.983 1.049 1.157 0.925" stroke="hsl(180.0,100%,35%)" stroke-width="0.00035"></path>
<path d="M0.702 0.992 Q1.073 0.777 0.736 0.549" stroke="hsl(180.0,100%,35%)" stroke-width="0.00070"></path>
<path d="M0.755 0.260 Q0.949 0.593 1.641 0.571" stroke="hsl(0.0,100%,35%)" stroke-width="0.00105"></path>
<path d="M0.755 0.260 Q1.141 0.540 1.773 0.414" stroke="hsl(0.0,100%,35%)" stroke-width="0.00035"></path>
<path d="M0.755 0.260 Q0.354 0.353 0.449 0.570" stroke="hsl(0.0,100%,35%)" stroke-width="0.00175"></path>
<path d="M0.755 0.260 Q0.336 0.231 0.187 0.429" stroke="hsl(0.0,100%,35%)" stroke-width="0.00280"></path>
<path d="M0.755 0.260 Q0.548 0.268 0.519 0.371" stroke="hsl(0.0,100%,35%)" stroke-width="0.00734"></path>
<path d="M0.755 0.260 Q0.514 0.401 0.736 0.549" stroke="hsl(0.0,100%,35%)" stroke-width="0.00035"></path>
<path d="M0.755 0.260 Q0.137 0.391 0.257 0.721" stroke="hsl(0.0,100%,35%)" stroke-width="0.00035"></path>
<path d="M0.519 0.371 Q0.307 0.334 0.187 0.429" stroke="hsl(0.0,100%,35%)" stroke-width="0.09962"></path>
<path d="M0.519 0.371 Q0.109 0.493 0.257 0.721" stroke="hsl(0.0,100%,35%)" stroke-width="0.00489"></path>
<path d="M0.519 0.371 Q0.727 0.363 0.755 0.260" stroke="hsl(0.0,100%,35%)" stroke-width="0.00035"></path>
<path d="M0.519 0.371 Q0.022 0.573 0.307 0.861" stroke="hsl(0.0,100%,35%)" stroke-width="0.00210"></path>
<path d="M0.519 0.371 Q0.325 0.456 0.449 0.570" stroke="hsl(0.0,100%,35%)" stroke-width="0.00384"></path>
<path d="M0.519 0.371 Q0.264 0.564 0.584 0.731" stroke="hsl(0.0,100%,35%)" stroke-width="0.00035"></path>
<path d="M0.519 0.371 Q0.478 0.262 0.257 0.258" stroke="hsl(0.0,100%,35%)" stroke-width="0.00035"></path>
<path d="M0.519 0.371 Q-0.016 0.657 0.425 0.981" stroke="hsl(0.0,100%,35%)" stroke-width="0.00035"></path>
<path d="M0.519 0.371 Q0.920 0.696 1.641 0.571" stroke="hsl(0.0,100%,35%)" stroke-width="0.00070"></path>
<path d="M0.519 0.371 Q0.199 0.671 0.714 0.893" stroke="hsl(0.0,100%,35%)" stroke-width="0.00070"></path>
<path d="M0.519 0.371 Q0.458 0.201 0.111 0.193" stroke="hsl(0.0,100%,35%)" stroke-width="0.00035"></path>
<path d="M0.187 0.429 Q0.992 0.739 1.773 0.414" stroke="hsl(0.0,100%,35%)" stroke-width="0.01363"></path>
<path d="M0.187 0.429 Q-0.011 0.589 0.257 0.721" stroke="hsl(0.0,100%,35%)" stroke-width="0.00210"></path>
<path d="M0.187 0.429 Q0.399 0.467 0.519 0.371" stroke="hsl(0.0,100%,35%)" stroke-width="0.05802"></path>
<path d="M0.187 0.429 Q-0.136 0.753 0.425 0.981" stroke="hsl(0.0,100%,35%)" stroke-width="0.00210"></path>
<path d="M0.187 0.429 Q0.205 0.552 0.449 0.570" stroke="hsl(0.0,100%,35%)" stroke-width="0.00489"></path>
<path d="M0.187 0.429 Q0.800 0.791 1.641 0.571" stroke="hsl(0.0,100%,35%)" stroke-width="0.00280"></path>
<path d="M0.187 0.429 Q0.606 0.458 0.755 0.260" stroke="hsl(0.0,100%,35%)" stroke-width="0.00105"></path>
<path d="M0.187 0.429 Q0.443 0.566 0.766 0.471" stroke="hsl(0.0,100%,35%)" stroke-width="0.00035"></path>
<path d="M0.187 0.429 Q0.365 0.599 0.736 0.549" stroke="hsl(0.0,100%,35%)" stroke-width="0.00245"></path>
<path d="M0.187 0.429 Q0.279 0.496 0.430 0.466" stroke="hsl(0.0,100%,35%)" stroke-width="0.00035"></path>
<path d="M0.187 0.429 Q-0.052 0.678 0.381 0.850" stroke="hsl(0.0,100%,35%)" stroke-width="0.00035"></path>
<path d="M0.674 1.091 Q1.381 0.929 1.220 0.549" stroke="hsl(180.0,100%,35%)" stroke-width="0.00035"></path>
<path d="M0.674 1.091 Q0.762 0.823 0.257 0.721" stroke="hsl(180.0,100%,35%)" stroke-width="0.00035"></path>
<path d="M0.674 1.091 Q0.917 0.893 0.584 0.731" stroke="hsl(180.0,100%,35%)" stroke-width="0.00035"></path>
<path d="M1.220 0.549 Q0.692 0.619 0.714 0.893" stroke="hsl(180.0,100%,35%)" stroke-width="0.00070"></path>
<path d="M1.220 0.549 Q0.560 0.531 0.381 0.850" stroke="hsl(180.0,100%,35%)" stroke-width="0.00070"></path>
<path d="M1.220 0.549 Q0.477 0.606 0.425 0.981" stroke="hsl(180.0,100%,35%)" stroke-width="0.00070"></path>
<path d="M1.220 0.549 Q0.601 0.442 0.257 0.721" stroke="hsl(180.0,100%,35%)" stroke-width="0.00035"></path>
<path d="M1.220 0.549 Q1.055 0.419 0.766 0.471" stroke="hsl(180.0,100%,35%)" stroke-width="0.00035"></path>
<path d="M0.584 0.731 Q0.429 0.661 0.257 0.721" stroke="hsl(180.0,100%,35%)" stroke-width="0.01188"></path>
<path d="M0.584 0.731 Q0.840 0.538 0.519 0.371" stroke="hsl(180.0,100%,35%)" stroke-width="0.00699"></path>
<path d="M0.584 0.731 Q0.836 0.917 1.253 0.835" stroke="hsl(180.0,100%,35%)" stroke-width="0.00140"></path>
<path d="M0.584 0.731 Q0.388 0.750 0.381 0.850" stroke="hsl(180.0,100%,35%)" stroke-width="0.00105"></path>
<path d="M0.584 0.731 Q1.039 0.861 1.393 0.668" stroke="hsl(180.0,100%,35%)" stroke-width="0.00035"></path>
<path d="M0.584 0.731 Q0.806 0.671 0.736 0.549" stroke="hsl(180.0,100%,35%)" stroke-width="0.00035"></path>
<path d="M0.584 0.731 Q0.296 0.682 0.136 0.812" stroke="hsl(180.0,100%,35%)" stroke-width="0.00035"></path>
<path d="M0.584 0.731 Q0.305 0.825 0.425 0.981" stroke="hsl(180.0,100%,35%)" stroke-width="0.00035"></path>
<path d="M0.714 0.893 Q0.629 0.940 0.702 0.992" stroke="hsl(180.0,100%,35%)" stroke-width="0.00210"></path>
<path d="M0.714 0.893 Q0.499 0.879 0.425 0.981" stroke="hsl(180.0,100%,35%)" stroke-width="0.00350"></path>
<path d="M0.714 0.893 Q0.582 0.805 0.381 0.850" stroke="hsl(180.0,100%,35%)" stroke-width="0.00280"></path>
<path d="M0.714 0.893 Q1.627 0.865 1.773 0.414" stroke="hsl(180.0,100%,35%)" stroke-width="0.00035"></path>
<path d="M0.714 0.893 Q0.905 0.888 0.938 0.794" stroke="hsl(180.0,100%,35%)" stroke-width="0.00035"></path>
<path d="M0.714 0.893 Q1.034 0.593 0.519 0.371" stroke="hsl(180.0,100%,35%)" stroke-width="0.00175"></path>
<path d="M0.714 0.893 Q0.623 0.715 0.257 0.721" stroke="hsl(180.0,100%,35%)" stroke-width="0.00105"></path>
<path d="M0.381 0.850 Q0.298 0.924 0.425 0.981" stroke="hsl(180.0,100%,35%)" stroke-width="0.01258"></path>
<path d="M0.381 0.850 Q0.422 0.760 0.257 0.721" stroke="hsl(180.0,100%,35%)" stroke-width="0.00384"></path>
<path d="M0.381 0.850 Q0.513 0.938 0.714 0.893" stroke="hsl(180.0,100%,35%)" stroke-width="0.00839"></path>
<path d="M0.381 0.850 Q0.289 0.782 0.136 0.812" stroke="hsl(180.0,100%,35%)" stroke-width="0.00384"></path>
<path d="M0.381 0.850 Q0.621 0.600 0.187 0.429" stroke="hsl(180.0,100%,35%)" stroke-width="0.00035"></path>
<path d="M0.381 0.850 Q0.833 0.638 0.519 0.371" stroke="hsl(180.0,100%,35%)" stroke-width="0.00035"></path>
<path d="M0.381 0.850 Q1.041 0.867 1.220 0.549" stroke="hsl(180.0,100%,35%)" stroke-width="0.00035"></path>
<path d="M0.766 0.471 Q0.312 0.494 0.257 0.721" stroke="hsl(0.0,100%,35%)" stroke-width="0.00070"></path>
<path d="M0.766 0.471 Q1.315 0.644 1.773 0.414" stroke="hsl(0.0,100%,35%)" stroke-width="0.00035"></path>
<path d="M0.766 0.471 Q0.510 0.334 0.187 0.429" stroke="hsl(0.0,100%,35%)" stroke-width="0.00175"></path>
<path d="M0.766 0.471 Q0.722 0.372 0.519 0.371" stroke="hsl(0.0,100%,35%)" stroke-width="0.00105"></path>
<path d="M0.766 0.471 Q0.225 0.574 0.307 0.861" stroke="hsl(0.0,100%,35%)" stroke-width="0.00035"></path>
<path d="M0.766 0.471 Q0.688 0.504 0.736 0.549" stroke="hsl(0.0,100%,35%)" stroke-width="0.00035"></path>
<path d="M0.766 0.471 Q0.187 0.658 0.425 0.981" stroke="hsl(0.0,100%,35%)" stroke-width="0.00035"></path>
<path d="M0.736 0.549 Q0.235 0.703 0.425 0.981" stroke="hsl(0.0,100%,35%)" stroke-width="0.00175"></path>
<path d="M0.736 0.549 Q0.359 0.539 0.257 0.721" stroke="hsl(0.0,100%,35%)" stroke-width="0.00070"></path>
<path d="M0.736 0.549 Q1.363 0.689 1.773 0.414" stroke="hsl(0.0,100%,35%)" stroke-width="0.00070"></path>
<path d="M0.736 0.549 Q0.558 0.379 0.187 0.429" stroke="hsl(0.0,100%,35%)" stroke-width="0.00629"></path>
<path d="M0.736 0.549 Q1.171 0.741 1.641 0.571" stroke="hsl(0.0,100%,35%)" stroke-width="0.00035"></path>
<path d="M0.736 0.549 Q0.823 0.618 0.976 0.591" stroke="hsl(0.0,100%,35%)" stroke-width="0.00070"></path>
<path d="M0.736 0.549 Q0.770 0.417 0.519 0.371" stroke="hsl(0.0,100%,35%)" stroke-width="0.00350"></path>
<path d="M0.736 0.549 Q0.977 0.408 0.755 0.260" stroke="hsl(0.0,100%,35%)" stroke-width="0.00035"></path>
<path d="M0.736 0.549 Q0.576 0.502 0.449 0.570" stroke="hsl(0.0,100%,35%)" stroke-width="0.00035"></path>
<path d="M0.938 0.794 Q0.747 0.798 0.714 0.893" stroke="hsl(180.0,100%,35%)" stroke-width="0.00210"></path>
<path d="M0.938 0.794 Q0.656 0.621 0.257 0.721" stroke="hsl(180.0,100%,35%)" stroke-width="0.00210"></path>
<path d="M0.938 0.794 Q0.532 0.785 0.425 0.981" stroke="hsl(180.0,100%,35%)" stroke-width="0.00070"></path>
<path d="M1.393 0.668 Q1.340 0.745 1.479 0.787" stroke="hsl(180.0,100%,35%)" stroke-width="0.00105"></path>
<path d="M1.393 0.668 Q1.189 0.724 1.253 0.835" stroke="hsl(180.0,100%,35%)" stroke-width="0.00210"></path>
<path d="M1.393 0.668 Q0.783 0.467 0.257 0.721" stroke="hsl(180.0,100%,35%)" stroke-width="0.00105"></path>
<path d="M1.393 0.668 Q1.193 0.345 0.519 0.371" stroke="hsl(180.0,100%,35%)" stroke-width="0.00035"></path>
<path d="M1.253 0.835 Q0.847 0.579 0.257 0.721" stroke="hsl(180.0,100%,35%)" stroke-width="0.01188"></path>
<path d="M1.253 0.835 Q1.404 0.856 1.479 0.787" stroke="hsl(180.0,100%,35%)" stroke-width="0.00245"></path>
<path d="M1.253 0.835 Q1.417 0.932 1.643 0.873" stroke="hsl(180.0,100%,35%)" stroke-width="0.00035"></path>
<path d="M1.253 0.835 Q1.228 0.935 1.418 0.969" stroke="hsl(180.0,100%,35%)" stroke-width="0.00035"></path>
<path d="M1.253 0.835 Q1.457 0.780 1.393 0.668" stroke="hsl(180.0,100%,35%)" stroke-width="0.00245"></path>
<path d="M1.253 0.835 Q0.722 0.743 0.425 0.981" stroke="hsl(180.0,100%,35%)" stroke-width="0.00070"></path>
<path d="M1.253 0.835 Q1.257 0.457 0.519 0.371" stroke="hsl(180.0,100%,35%)" stroke-width="0.00245"></path>
<path d="M1.253 0.835 Q0.805 0.668 0.381 0.850" stroke="hsl(180.0,100%,35%)" stroke-width="0.00035"></path>
<path d="M1.253 0.835 Q1.001 0.650 0.584 0.731" stroke="hsl(180.0,100%,35%)" stroke-width="0.00035"></path>
<path d="M0.738 0.758 Q0.527 0.643 0.257 0.721" stroke="hsl(180.0,100%,35%)" stroke-width="0.00210"></path>
<path d="M0.738 0.758 Q0.403 0.807 0.425 0.981" stroke="hsl(180.0,100%,35%)" stroke-width="0.00210"></path>
<path d="M0.738 0.758 Q0.486 0.732 0.381 0.850" stroke="hsl(180.0,100%,35%)" stroke-width="0.00070"></path>
<path d="M0.633 0.869 Q0.439 0.884 0.425 0.981" stroke="hsl(180.0,100%,35%)" stroke-width="0.00210"></path>
<path d="M0.633 0.869 Q0.477 0.800 0.307 0.861" stroke="hsl(180.0,100%,35%)" stroke-width="0.00105"></path>
<path d="M0.633 0.869 Q0.564 0.720 0.257 0.721" stroke="hsl(180.0,100%,35%)" stroke-width="0.00070"></path>
<path d="M0.633 0.869 Q0.430 0.741 0.136 0.812" stroke="hsl(180.0,100%,35%)" stroke-width="0.00035"></path>
<path d="M0.633 0.869 Q0.640 0.639 0.192 0.585" stroke="hsl(180.0,100%,35%)" stroke-width="0.00035"></path>
<path d="M0.633 0.869 Q0.762 0.560 0.187 0.429" stroke="hsl(180.0,100%,35%)" stroke-width="0.00035"></path>
<path d="M0.633 0.869 Q0.749 0.741 0.525 0.656" stroke="hsl(180.0,100%,35%)" stroke-width="0.00035"></path>
<path d="M0.633 0.869 Q0.974 0.598 0.519 0.371" stroke="hsl(180.0,100%,35%)" stroke-width="0.00035"></path>
<path d="M0.127 0.854 Q0.174 0.977 0.425 0.981" stroke="hsl(180.0,100%,35%)" stroke-width="0.00035"></path>
<path d="M0.127 0.854 Q0.298 0.813 0.257 0.721" stroke="hsl(180.0,100%,35%)" stroke-width="0.00105"></path>
<path d="M0.127 0.854 Q0.374 0.732 0.192 0.585" stroke="hsl(180.0,100%,35%)" stroke-width="0.00070"></path>
<path d="M0.307 0.861 Q0.270 0.945 0.425 0.981" stroke="hsl(180.0,100%,35%)" stroke-width="0.00629"></path>
<path d="M0.307 0.861 Q0.394 0.781 0.257 0.721" stroke="hsl(180.0,100%,35%)" stroke-width="0.00105"></path>
<path d="M0.307 0.861 Q0.805 0.658 0.519 0.371" stroke="hsl(180.0,100%,35%)" stroke-width="0.00280"></path>
<path d="M0.307 0.861 Q0.592 0.621 0.187 0.429" stroke="hsl(180.0,100%,35%)" stroke-width="0.00140"></path>
<path d="M0.307 0.861 Q0.848 0.758 0.766 0.471" stroke="hsl(180.0,100%,35%)" stroke-width="0.00035"></path>
<path d="M0.863 0.929 Q0.602 0.867 0.425 0.981" stroke="hsl(180.0,100%,35%)" stroke-width="0.00699"></path>
<path d="M0.863 0.929 Q0.925 0.544 0.187 0.429" stroke="hsl(180.0,100%,35%)" stroke-width="0.00315"></path>
<path d="M0.863 0.929 Q0.726 0.703 0.257 0.721" stroke="hsl(180.0,100%,35%)" stroke-width="0.00664"></path>
<path d="M0.863 0.929 Q1.730 0.853 1.773 0.414" stroke="hsl(180.0,100%,35%)" stroke-width="0.00035"></path>
<path d="M0.863 0.929 Q1.137 0.581 0.519 0.371" stroke="hsl(180.0,100%,35%)" stroke-width="0.00140"></path>
<path d="M0.863 0.929 Q0.593 0.725 0.136 0.812" stroke="hsl(180.0,100%,35%)" stroke-width="0.00070"></path>
<path d="M0.192 0.585 Q0.116 0.666 0.257 0.721" stroke="hsl(180.0,100%,35%)" stroke-width="0.01818"></path>
<path d="M0.192 0.585 Q-0.008 0.830 0.425 0.981" stroke="hsl(180.0,100%,35%)" stroke-width="0.01223"></path>
<path d="M0.192 0.585 Q0.207 0.843 0.714 0.893" stroke="hsl(180.0,100%,35%)" stroke-width="0.00070"></path>
<path d="M0.192 0.585 Q0.075 0.755 0.381 0.850" stroke="hsl(180.0,100%,35%)" stroke-width="0.00350"></path>
<path d="M0.192 0.585 Q0.928 0.868 1.641 0.571" stroke="hsl(180.0,100%,35%)" stroke-width="0.00070"></path>
<path d="M0.192 0.585 Q1.120 0.816 1.773 0.414" stroke="hsl(180.0,100%,35%)" stroke-width="0.00035"></path>
<path d="M0.192 0.585 Q0.315 0.506 0.187 0.429" stroke="hsl(180.0,100%,35%)" stroke-width="0.00734"></path>
<path d="M0.192 0.585 Q0.527 0.544 0.519 0.371" stroke="hsl(180.0,100%,35%)" stroke-width="0.00140"></path>
<path d="M0.192 0.585 Q0.333 0.629 0.449 0.570" stroke="hsl(180.0,100%,35%)" stroke-width="0.00070"></path>
<path d="M0.192 0.585 Q0.570 0.643 0.766 0.471" stroke="hsl(180.0,100%,35%)" stroke-width="0.00070"></path>
<path d="M0.483 0.649 Q0.188 0.803 0.425 0.981" stroke="hsl(180.0,100%,35%)" stroke-width="0.00105"></path>
<path d="M0.483 0.649 Q0.312 0.639 0.257 0.721" stroke="hsl(180.0,100%,35%)" stroke-width="0.00105"></path>
<path d="M0.483 0.649 Q0.271 0.729 0.381 0.850" stroke="hsl(180.0,100%,35%)" stroke-width="0.00070"></path>
<path d="M1.019 0.771 Q0.554 0.757 0.425 0.981" stroke="hsl(180.0,100%,35%)" stroke-width="0.00035"></path>
<path d="M1.019 0.771 Q0.769 0.771 0.714 0.893" stroke="hsl(180.0,100%,35%)" stroke-width="0.00035"></path>
<path d="M1.019 0.771 Q0.678 0.593 0.257 0.721" stroke="hsl(180.0,100%,35%)" stroke-width="0.00035"></path>
<path d="M0.976 0.966 Q0.813 0.700 0.257 0.721" stroke="hsl(180.0,100%,35%)" stroke-width="0.00280"></path>
<path d="M0.976 0.966 Q0.593 0.785 0.157 0.932" stroke="hsl(180.0,100%,35%)" stroke-width="0.00105"></path>
<path d="M0.976 0.966 Q0.688 0.864 0.425 0.981" stroke="hsl(180.0,100%,35%)" stroke-width="0.00140"></path>
<path d="M0.976 0.966 Q0.949 0.925 0.863 0.929" stroke="hsl(180.0,100%,35%)" stroke-width="0.00070"></path>
<path d="M0.976 0.966 Q0.772 0.789 0.381 0.850" stroke="hsl(180.0,100%,35%)" stroke-width="0.00035"></path>
<path d="M0.136 0.812 Q0.681 0.668 0.519 0.371" stroke="hsl(180.0,100%,35%)" stroke-width="0.00105"></path>
<path d="M0.136 0.812 Q0.146 0.954 0.425 0.981" stroke="hsl(180.0,100%,35%)" stroke-width="0.00315"></path>
<path d="M0.136 0.812 Q0.229 0.880 0.381 0.850" stroke="hsl(180.0,100%,35%)" stroke-width="0.00140"></path>
<path d="M0.136 0.812 Q0.183 0.871 0.307 0.861" stroke="hsl(180.0,100%,35%)" stroke-width="0.00350"></path>
<path d="M0.136 0.812 Q0.270 0.791 0.257 0.721" stroke="hsl(180.0,100%,35%)" stroke-width="0.00035"></path>
<path d="M0.136 0.812 Q0.889 0.897 1.220 0.549" stroke="hsl(180.0,100%,35%)" stroke-width="0.00035"></path>
<path d="M0.136 0.812 Q0.724 0.768 0.766 0.471" stroke="hsl(180.0,100%,35%)" stroke-width="0.00070"></path>
<path d="M0.136 0.812 Q0.468 0.631 0.187 0.429" stroke="hsl(180.0,100%,35%)" stroke-width="0.00070"></path>
<path d="M0.136 0.812 Q0.346 0.710 0.192 0.585" stroke="hsl(180.0,100%,35%)" stroke-width="0.00035"></path>
<path d="M0.136 0.812 Q0.276 1.015 0.702 0.992" stroke="hsl(180.0,100%,35%)" stroke-width="0.00035"></path>
<path d="M0.567 0.812 Q0.361 0.868 0.425 0.981" stroke="hsl(180.0,100%,35%)" stroke-width="0.00245"></path>
<path d="M0.567 0.812 Q0.266 0.790 0.157 0.932" stroke="hsl(180.0,100%,35%)" stroke-width="0.00035"></path>
<path d="M0.567 0.812 Q0.485 0.704 0.257 0.721" stroke="hsl(180.0,100%,35%)" stroke-width="0.00070"></path>
<path d="M0.567 0.812 Q0.896 0.582 0.519 0.371" stroke="hsl(180.0,100%,35%)" stroke-width="0.00035"></path>
<path d="M0.567 0.812 Q0.444 0.793 0.381 0.850" stroke="hsl(180.0,100%,35%)" stroke-width="0.00070"></path>
<path d="M0.567 0.812 Q1.104 0.811 1.220 0.549" stroke="hsl(180.0,100%,35%)" stroke-width="0.00140"></path>
<path d="M0.567 0.812 Q0.561 0.623 0.192 0.585" stroke="hsl(180.0,100%,35%)" stroke-width="0.00035"></path>
<path d="M0.734 0.772 Q0.537 0.651 0.257 0.721" stroke="hsl(180.0,100%,35%)" stroke-width="0.00210"></path>
<path d="M0.734 0.772 Q0.412 0.815 0.425 0.981" stroke="hsl(180.0,100%,35%)" stroke-width="0.00140"></path>
<path d="M0.734 0.772 Q0.613 0.570 0.192 0.585" stroke="hsl(180.0,100%,35%)" stroke-width="0.00070"></path>
<path d="M0.963 0.890 Q0.622 0.828 0.425 0.981" stroke="hsl(180.0,100%,35%)" stroke-width="0.00140"></path>
<path d="M0.963 0.890 Q0.837 0.842 0.714 0.893" stroke="hsl(180.0,100%,35%)" stroke-width="0.00070"></path>
<path d="M0.963 0.890 Q1.157 0.542 0.519 0.371" stroke="hsl(180.0,100%,35%)" stroke-width="0.00035"></path>
<path d="M0.963 0.890 Q0.822 0.584 0.192 0.585" stroke="hsl(180.0,100%,35%)" stroke-width="0.00035"></path>
<path d="M0.157 0.932 Q0.252 1.010 0.425 0.981" stroke="hsl(180.0,100%,35%)" stroke-width="0.00384"></path>
<path d="M0.157 0.932 Q0.376 0.846 0.257 0.721" stroke="hsl(180.0,100%,35%)" stroke-width="0.00140"></path>
<path d="M0.157 0.932 Q0.335 0.936 0.381 0.850" stroke="hsl(180.0,100%,35%)" stroke-width="0.00175"></path>
<path d="M0.157 0.932 Q0.452 0.766 0.192 0.585" stroke="hsl(180.0,100%,35%)" stroke-width="0.00035"></path>
<path d="M0.157 0.932 Q1.187 1.049 1.641 0.571" stroke="hsl(180.0,100%,35%)" stroke-width="0.00035"></path>
<path d="M1.067 0.056 Q0.540 0.104 0.519 0.371" stroke="hsl(0.0,100%,35%)" stroke-width="0.00035"></path>
<path d="M1.067 0.056 Q1.179 0.124 1.337 0.084" stroke="hsl(0.0,100%,35%)" stroke-width="0.00035"></path>
<path d="M1.067 0.056 Q0.328 0.066 0.187 0.429" stroke="hsl(0.0,100%,35%)" stroke-width="0.00035"></path>
<path d="M1.203 0.420 Q0.489 0.381 0.257 0.721" stroke="hsl(180.0,100%,35%)" stroke-width="0.00070"></path>
<path d="M1.203 0.420 Q0.365 0.545 0.425 0.981" stroke="hsl(180.0,100%,35%)" stroke-width="0.00070"></path>
<path d="M1.203 0.420 Q1.108 0.488 1.220 0.549" stroke="hsl(180.0,100%,35%)" stroke-width="0.00070"></path>
<path d="M1.203 0.420 Q0.900 0.259 0.519 0.371" stroke="hsl(180.0,100%,35%)" stroke-width="0.00070"></path>
<path d="M0.642 0.615 Q0.240 0.755 0.425 0.981" stroke="hsl(180.0,100%,35%)" stroke-width="0.00140"></path>
<path d="M0.642 0.615 Q0.741 0.601 0.736 0.549" stroke="hsl(180.0,100%,35%)" stroke-width="0.00035"></path>
<path d="M0.642 0.615 Q0.364 0.591 0.257 0.721" stroke="hsl(180.0,100%,35%)" stroke-width="0.00070"></path>
<path d="M0.642 0.615 Q0.323 0.680 0.381 0.850" stroke="hsl(180.0,100%,35%)" stroke-width="0.00035"></path>
<path d="M0.642 0.615 Q0.455 0.768 0.714 0.893" stroke="hsl(180.0,100%,35%)" stroke-width="0.00035"></path>
<path d="M0.905 0.648 Q0.987 0.634 0.976 0.591" stroke="hsl(180.0,100%,35%)" stroke-width="0.00140"></path>
<path d="M0.905 0.648 Q0.722 0.395 0.187 0.429" stroke="hsl(180.0,100%,35%)" stroke-width="0.00035"></path>
<path d="M0.905 0.648 Q0.900 0.565 0.736 0.549" stroke="hsl(180.0,100%,35%)" stroke-width="0.00035"></path>
<path d="M0.905 0.648 Q0.399 0.719 0.425 0.981" stroke="hsl(180.0,100%,35%)" stroke-width="0.00140"></path>
<path d="M0.905 0.648 Q0.523 0.555 0.257 0.721" stroke="hsl(180.0,100%,35%)" stroke-width="0.00245"></path>
</g>
<text x="0.449" y="0.553" font-size="0.032524" fill="hsl(0.0,100%,20%)">amaiorano</text>
<text x="1.773" y="0.391" font-size="0.045673" fill="hsl(0.0,100%,20%)">bclayton</text>
<text x="1.641" y="0.553" font-size="0.037070" fill="hsl(0.0,100%,20%)">rharrison</text>
<text x="0.257" y="0.686" font-size="0.069672" fill="hsl(180.0,100%,20%)">cwallez</text>
<text x="0.425" y="0.950" font-size="0.062570" fill="hsl(180.0,100%,20%)">enga</text>
<text x="0.702" y="0.980" font-size="0.024151" fill="hsl(180.0,100%,20%)">bsheedy</text>
<text x="0.755" y="0.249" font-size="0.021784" fill="hsl(0.0,100%,20%)">chouinard</text>
<text x="0.519" y="0.331" font-size="0.079916" fill="hsl(0.0,100%,20%)">dsinclair</text>
<text x="0.187" y="0.385" font-size="0.087079" fill="hsl(0.0,100%,20%)">jrprice</text>
<text x="0.111" y="0.191" font-size="0.004447" fill="hsl(0.0,100%,20%)">kbr</text>
<text x="0.525" y="0.654" font-size="0.004447" fill="hsl(0.0,100%,20%)">petermcneeley</text>
<text x="0.674" y="1.089" font-size="0.005446" fill="hsl(180.0,100%,20%)">amir</text>
<text x="1.220" y="0.541" font-size="0.015404" fill="hsl(180.0,100%,20%)">bajones</text>
<text x="0.584" y="0.719" font-size="0.025928" fill="hsl(180.0,100%,20%)">jaswant.panchumarti</text>
<text x="0.714" y="0.875" font-size="0.035154" fill="hsl(180.0,100%,20%)">kainino</text>
<text x="0.381" y="0.826" font-size="0.046848" fill="hsl(180.0,100%,20%)">lokokung</text>
<text x="0.766" y="0.464" font-size="0.014409" fill="hsl(0.0,100%,20%)">gman</text>
<text x="0.736" y="0.537" font-size="0.024758" fill="hsl(0.0,100%,20%)">dneto</text>
<text x="0.938" y="0.788" font-size="0.012178" fill="hsl(180.0,100%,20%)">beaufort.francois</text>
<text x="1.393" y="0.661" font-size="0.014409" fill="hsl(180.0,100%,20%)">bentonian</text>
<text x="1.479" y="0.781" font-size="0.012964" fill="hsl(180.0,100%,20%)">nexa</text>
<text x="1.253" y="0.821" font-size="0.028123" fill="hsl(180.0,100%,20%)">jimblackler</text>
<text x="0.738" y="0.752" font-size="0.012178" fill="hsl(180.0,100%,20%)">blundell</text>
<text x="0.633" y="0.862" font-size="0.013340" fill="hsl(180.0,100%,20%)">ynovikov</text>
<text x="1.157" y="0.923" font-size="0.003144" fill="hsl(180.0,100%,20%)">chanli</text>
<text x="0.773" y="0.688" font-size="0.004447" fill="hsl(180.0,100%,20%)">fbeaufort</text>
<text x="0.127" y="0.849" font-size="0.008893" fill="hsl(180.0,100%,20%)">shaobo.yan</text>
<text x="0.307" y="0.848" font-size="0.025928" fill="hsl(180.0,100%,20%)">senorblanco</text>
<text x="0.863" y="0.917" font-size="0.024151" fill="hsl(180.0,100%,20%)">lehoangquyen</text>
<text x="0.192" y="0.566" font-size="0.037731" fill="hsl(180.0,100%,20%)">jiawei.shao</text>
<text x="0.483" y="0.643" font-size="0.012178" fill="hsl(180.0,100%,20%)">geofflang</text>
<text x="0.673" y="1.098" font-size="0.003144" fill="hsl(180.0,100%,20%)">tiszka</text>
<text x="0.456" y="0.659" font-size="0.003144" fill="hsl(180.0,100%,20%)">arthursonzogni</text>
<text x="0.976" y="0.587" font-size="0.008319" fill="hsl(180.0,100%,20%)">alanbaker</text>
<text x="0.257" y="0.257" font-size="0.003144" fill="hsl(0.0,100%,20%)">ddoman</text>
<text x="1.019" y="0.768" font-size="0.005446" fill="hsl(180.0,100%,20%)">elie.michel.fr</text>
<text x="0.976" y="0.959" font-size="0.013705" fill="hsl(180.0,100%,20%)">jie.a.chen</text>
<text x="0.136" y="0.801" font-size="0.022674" fill="hsl(180.0,100%,20%)">shrekshao</text>
<text x="0.567" y="0.805" font-size="0.013705" fill="hsl(180.0,100%,20%)">sunnyps</text>
<text x="0.734" y="0.766" font-size="0.010892" fill="hsl(180.0,100%,20%)">hao.x.li</text>
<text x="0.963" y="0.886" font-size="0.008893" fill="hsl(180.0,100%,20%)">hocheung</text>
<text x="0.157" y="0.924" font-size="0.016033" fill="hsl(180.0,100%,20%)">penghuang</text>
<text x="1.643" y="0.872" font-size="0.003144" fill="hsl(180.0,100%,20%)">artyompp</text>
<text x="1.418" y="0.967" font-size="0.003144" fill="hsl(180.0,100%,20%)">vantablack</text>
<text x="1.067" y="0.053" font-size="0.005446" fill="hsl(0.0,100%,20%)">jojwang</text>
<text x="1.337" y="0.083" font-size="0.003144" fill="hsl(0.0,100%,20%)">gavinmak</text>
<text x="0.430" y="0.465" font-size="0.003144" fill="hsl(0.0,100%,20%)">johnstiles</text>
<text x="1.203" y="0.415" font-size="0.008893" fill="hsl(180.0,100%,20%)">rafael.cintron</text>
<text x="0.642" y="0.610" font-size="0.009433" fill="hsl(180.0,100%,20%)">srijan.dhungana6</text>
<text x="0.905" y="0.642" font-size="0.012964" fill="hsl(180.0,100%,20%)">zhaoming.jiang</text>
</svg>
