<svg width="4000" height="2000" viewBox="-0.025 -0.025 2.05 1.05" xmlns="http://www.w3.org/2000/svg">
  <style>
    path {
      fill: none;
      stroke-linecap: round;
      stroke-opacity: 0.4;
    }

    text {
      text-anchor: middle;
      alignment-baseline: hanging;
    }
  </style>
  <g opacity="0.4">
<path d="M0.836 0.465 Q0.795 0.267 0.399 0.243" stroke="hsl(0.0,100%,35%)" stroke-width="0.03478"></path>
<path d="M0.836 0.465 Q1.435 0.634 1.897 0.379" stroke="hsl(0.0,100%,35%)" stroke-width="0.00205"></path>
<path d="M0.836 0.465 Q0.583 0.399 0.400 0.509" stroke="hsl(0.0,100%,35%)" stroke-width="0.00205"></path>
<path d="M0.836 0.465 Q0.560 0.271 0.120 0.363" stroke="hsl(0.0,100%,35%)" stroke-width="0.00409"></path>
<path d="M0.399 0.243 Q0.163 0.247 0.120 0.363" stroke="hsl(0.0,100%,35%)" stroke-width="0.04910"></path>
<path d="M0.399 0.243 Q1.039 0.611 1.897 0.379" stroke="hsl(0.0,100%,35%)" stroke-width="0.00818"></path>
<path d="M0.399 0.243 Q0.440 0.442 0.836 0.465" stroke="hsl(0.0,100%,35%)" stroke-width="0.01227"></path>
<path d="M0.399 0.243 Q0.522 0.192 0.449 0.121" stroke="hsl(0.0,100%,35%)" stroke-width="0.00205"></path>
<path d="M0.399 0.243 Q0.766 0.626 1.594 0.532" stroke="hsl(0.0,100%,35%)" stroke-width="0.00205"></path>
<path d="M1.897 0.379 Q2.044 0.291 1.903 0.199" stroke="hsl(180.0,100%,35%)" stroke-width="0.02660"></path>
<path d="M1.897 0.379 Q2.050 0.215 1.762 0.105" stroke="hsl(180.0,100%,35%)" stroke-width="0.01432"></path>
<path d="M1.897 0.379 Q1.624 0.395 1.594 0.532" stroke="hsl(180.0,100%,35%)" stroke-width="0.03273"></path>
<path d="M1.897 0.379 Q1.922 0.282 1.738 0.249" stroke="hsl(180.0,100%,35%)" stroke-width="0.00409"></path>
<path d="M1.897 0.379 Q1.907 0.133 1.427 0.074" stroke="hsl(180.0,100%,35%)" stroke-width="0.00205"></path>
<path d="M1.897 0.379 Q1.726 0.266 1.467 0.325" stroke="hsl(180.0,100%,35%)" stroke-width="0.00614"></path>
<path d="M1.897 0.379 Q1.257 0.012 0.399 0.243" stroke="hsl(180.0,100%,35%)" stroke-width="0.00205"></path>
<path d="M1.897 0.379 Q1.798 0.413 1.842 0.469" stroke="hsl(180.0,100%,35%)" stroke-width="0.00205"></path>
<path d="M1.897 0.379 Q1.298 0.210 0.836 0.465" stroke="hsl(180.0,100%,35%)" stroke-width="0.00205"></path>
<path d="M0.120 0.363 Q0.355 0.359 0.399 0.243" stroke="hsl(0.0,100%,35%)" stroke-width="0.14116"></path>
<path d="M0.120 0.363 Q1.142 0.638 1.903 0.199" stroke="hsl(0.0,100%,35%)" stroke-width="0.00409"></path>
<path d="M0.120 0.363 Q0.995 0.727 1.897 0.379" stroke="hsl(0.0,100%,35%)" stroke-width="0.00409"></path>
<path d="M0.120 0.363 Q0.341 0.262 0.193 0.132" stroke="hsl(0.0,100%,35%)" stroke-width="0.00205"></path>
<path d="M0.120 0.363 Q0.723 0.431 0.988 0.152" stroke="hsl(0.0,100%,35%)" stroke-width="0.00205"></path>
<path d="M1.903 0.199 Q1.756 0.288 1.897 0.379" stroke="hsl(180.0,100%,35%)" stroke-width="0.00409"></path>
<path d="M1.903 0.199 Q1.483 0.304 1.594 0.532" stroke="hsl(180.0,100%,35%)" stroke-width="0.00818"></path>
<path d="M1.903 0.199 Q1.674 0.091 1.412 0.179" stroke="hsl(180.0,100%,35%)" stroke-width="0.00205"></path>
<path d="M1.903 0.199 Q0.880 -0.075 0.120 0.363" stroke="hsl(180.0,100%,35%)" stroke-width="0.00205"></path>
<path d="M1.467 0.325 Q1.039 0.269 0.836 0.465" stroke="hsl(180.0,100%,35%)" stroke-width="0.00205"></path>
<path d="M1.467 0.325 Q0.998 0.070 0.399 0.243" stroke="hsl(180.0,100%,35%)" stroke-width="0.00205"></path>
<path d="M1.467 0.325 Q1.638 0.438 1.897 0.379" stroke="hsl(180.0,100%,35%)" stroke-width="0.02046"></path>
<path d="M1.467 0.325 Q1.190 0.328 1.136 0.464" stroke="hsl(180.0,100%,35%)" stroke-width="0.00409"></path>
<path d="M1.467 0.325 Q1.365 0.453 1.594 0.532" stroke="hsl(180.0,100%,35%)" stroke-width="0.00818"></path>
<path d="M1.467 0.325 Q1.785 0.349 1.903 0.199" stroke="hsl(180.0,100%,35%)" stroke-width="0.00205"></path>
<path d="M1.591 0.141 Q1.553 0.321 1.897 0.379" stroke="hsl(180.0,100%,35%)" stroke-width="0.00614"></path>
<path d="M1.591 0.141 Q1.054 0.289 1.226 0.583" stroke="hsl(180.0,100%,35%)" stroke-width="0.00205"></path>
<path d="M1.591 0.141 Q1.280 0.337 1.594 0.532" stroke="hsl(180.0,100%,35%)" stroke-width="0.00205"></path>
<path d="M0.662 0.283 Q0.327 0.214 0.120 0.363" stroke="hsl(0.0,100%,35%)" stroke-width="0.00818"></path>
<path d="M0.662 0.283 Q0.562 0.210 0.399 0.243" stroke="hsl(0.0,100%,35%)" stroke-width="0.01023"></path>
<path d="M0.662 0.283 Q0.604 0.409 0.836 0.465" stroke="hsl(0.0,100%,35%)" stroke-width="0.00205"></path>
<path d="M1.103 0.379 Q1.329 0.425 1.467 0.325" stroke="hsl(0.0,100%,35%)" stroke-width="0.00205"></path>
<path d="M1.103 0.379 Q0.860 0.170 0.399 0.243" stroke="hsl(0.0,100%,35%)" stroke-width="0.00205"></path>
<path d="M1.103 0.379 Q0.648 0.303 0.400 0.509" stroke="hsl(0.0,100%,35%)" stroke-width="0.00205"></path>
<path d="M1.103 0.379 Q0.624 0.174 0.120 0.363" stroke="hsl(0.0,100%,35%)" stroke-width="0.00205"></path>
<path d="M1.103 0.379 Q1.227 0.243 0.988 0.152" stroke="hsl(0.0,100%,35%)" stroke-width="0.00205"></path>
</g>
<text x="0.836" y="0.439" font-size="0.051755" fill="hsl(0.0,100%,20%)">amaiorano</text>
<text x="0.399" y="0.189" font-size="0.107736" fill="hsl(0.0,100%,20%)">jrprice</text>
<text x="1.897" y="0.341" font-size="0.077344" fill="hsl(180.0,100%,20%)">cwallez</text>
<text x="0.400" y="0.502" font-size="0.013363" fill="hsl(0.0,100%,20%)">petermcneeley</text>
<text x="0.120" y="0.314" font-size="0.097742" fill="hsl(0.0,100%,20%)">dsinclair</text>
<text x="1.903" y="0.176" font-size="0.046291" fill="hsl(180.0,100%,20%)">kainino</text>
<text x="1.762" y="0.092" font-size="0.025000" fill="hsl(180.0,100%,20%)">geofflang</text>
<text x="1.594" y="0.507" font-size="0.048181" fill="hsl(180.0,100%,20%)">lokokung</text>
<text x="1.738" y="0.243" font-size="0.013363" fill="hsl(180.0,100%,20%)">bajones</text>
<text x="1.427" y="0.069" font-size="0.009449" fill="hsl(180.0,100%,20%)">tiszka</text>
<text x="1.467" y="0.302" font-size="0.045316" fill="hsl(180.0,100%,20%)">jiawei.shao</text>
<text x="1.842" y="0.464" font-size="0.009449" fill="hsl(180.0,100%,20%)">arthursonzogni</text>
<text x="0.193" y="0.128" font-size="0.009449" fill="hsl(0.0,100%,20%)">kbr</text>
<text x="0.988" y="0.146" font-size="0.013363" fill="hsl(0.0,100%,20%)">senorblanco</text>
<text x="1.136" y="0.457" font-size="0.013363" fill="hsl(180.0,100%,20%)">gman</text>
<text x="1.591" y="0.130" font-size="0.021129" fill="hsl(180.0,100%,20%)">jie.a.chen</text>
<text x="1.226" y="0.578" font-size="0.009449" fill="hsl(180.0,100%,20%)">lehoangquyen</text>
<text x="0.449" y="0.116" font-size="0.009449" fill="hsl(0.0,100%,20%)">dneto</text>
<text x="1.412" y="0.174" font-size="0.009449" fill="hsl(180.0,100%,20%)">bsheedy</text>
<text x="0.662" y="0.268" font-size="0.029881" fill="hsl(0.0,100%,20%)">rharrison</text>
<text x="1.103" y="0.368" font-size="0.021129" fill="hsl(0.0,100%,20%)">ynovikov</text>
</svg>
