<svg width="4000" height="2000" viewBox="-0.025 -0.025 2.05 1.05" xmlns="http://www.w3.org/2000/svg">
  <style>
    path {
      fill: none;
      stroke-linecap: round;
      stroke-opacity: 0.4;
    }

    text {
      text-anchor: middle;
      alignment-baseline: hanging;
    }
  </style>
  <g opacity="0.4">
<path d="M0.598 0.235 Q0.586 0.678 1.448 0.781" stroke="hsl(0.0,100%,35%)" stroke-width="0.00036"></path>
<path d="M0.598 0.235 Q0.541 0.365 0.781 0.421" stroke="hsl(0.0,100%,35%)" stroke-width="0.00144"></path>
<path d="M0.598 0.235 Q0.656 0.247 0.693 0.221" stroke="hsl(0.0,100%,35%)" stroke-width="0.00036"></path>
<path d="M0.598 0.235 Q0.439 0.288 0.507 0.377" stroke="hsl(0.0,100%,35%)" stroke-width="0.00036"></path>
<path d="M1.448 0.781 Q1.264 0.820 1.300 0.918" stroke="hsl(0.0,100%,35%)" stroke-width="0.00686"></path>
<path d="M1.448 0.781 Q1.618 0.748 1.590 0.658" stroke="hsl(0.0,100%,35%)" stroke-width="0.00217"></path>
<path d="M1.448 0.781 Q1.395 0.677 1.180 0.680" stroke="hsl(0.0,100%,35%)" stroke-width="0.02129"></path>
<path d="M1.448 0.781 Q1.403 0.468 0.781 0.421" stroke="hsl(0.0,100%,35%)" stroke-width="0.00686"></path>
<path d="M1.448 0.781 Q1.588 0.798 1.651 0.733" stroke="hsl(0.0,100%,35%)" stroke-width="0.01155"></path>
<path d="M1.448 0.781 Q1.229 0.648 0.920 0.725" stroke="hsl(0.0,100%,35%)" stroke-width="0.00108"></path>
<path d="M1.448 0.781 Q1.798 0.831 1.972 0.671" stroke="hsl(0.0,100%,35%)" stroke-width="0.00072"></path>
<path d="M1.448 0.781 Q1.301 0.391 0.507 0.377" stroke="hsl(0.0,100%,35%)" stroke-width="0.00217"></path>
<path d="M1.448 0.781 Q1.271 0.540 0.761 0.573" stroke="hsl(0.0,100%,35%)" stroke-width="0.00253"></path>
<path d="M1.448 0.781 Q1.746 0.531 1.322 0.330" stroke="hsl(0.0,100%,35%)" stroke-width="0.00108"></path>
<path d="M1.448 0.781 Q1.124 0.721 0.935 0.865" stroke="hsl(0.0,100%,35%)" stroke-width="0.00036"></path>
<path d="M0.781 0.421 Q0.826 0.734 1.448 0.781" stroke="hsl(0.0,100%,35%)" stroke-width="0.01552"></path>
<path d="M0.781 0.421 Q0.996 0.701 1.590 0.658" stroke="hsl(0.0,100%,35%)" stroke-width="0.00180"></path>
<path d="M0.781 0.421 Q0.643 0.773 1.300 0.918" stroke="hsl(0.0,100%,35%)" stroke-width="0.00217"></path>
<path d="M0.781 0.421 Q0.679 0.344 0.507 0.377" stroke="hsl(0.0,100%,35%)" stroke-width="0.00289"></path>
<path d="M0.781 0.421 Q0.774 0.630 1.180 0.680" stroke="hsl(0.0,100%,35%)" stroke-width="0.00433"></path>
<path d="M0.781 0.421 Q0.967 0.751 1.651 0.733" stroke="hsl(0.0,100%,35%)" stroke-width="0.00072"></path>
<path d="M0.781 0.421 Q0.782 0.580 1.093 0.615" stroke="hsl(0.0,100%,35%)" stroke-width="0.00036"></path>
<path d="M0.781 0.421 Q0.649 0.493 0.761 0.573" stroke="hsl(0.0,100%,35%)" stroke-width="0.00938"></path>
<path d="M0.781 0.421 Q1.125 0.484 1.322 0.330" stroke="hsl(0.0,100%,35%)" stroke-width="0.00036"></path>
<path d="M0.781 0.421 Q0.832 0.526 1.049 0.524" stroke="hsl(0.0,100%,35%)" stroke-width="0.00902"></path>
<path d="M0.781 0.421 Q1.262 0.598 1.714 0.403" stroke="hsl(0.0,100%,35%)" stroke-width="0.00144"></path>
<path d="M0.781 0.421 Q0.807 0.484 0.936 0.485" stroke="hsl(0.0,100%,35%)" stroke-width="0.00036"></path>
<path d="M0.507 0.377 Q0.609 0.454 0.781 0.421" stroke="hsl(0.0,100%,35%)" stroke-width="0.00686"></path>
<path d="M0.507 0.377 Q0.470 0.806 1.300 0.918" stroke="hsl(0.0,100%,35%)" stroke-width="0.00072"></path>
<path d="M0.507 0.377 Q0.824 0.734 1.590 0.658" stroke="hsl(0.0,100%,35%)" stroke-width="0.00469"></path>
<path d="M0.507 0.377 Q1.004 0.817 1.972 0.671" stroke="hsl(0.0,100%,35%)" stroke-width="0.00144"></path>
<path d="M0.507 0.377 Q0.977 0.675 1.661 0.511" stroke="hsl(0.0,100%,35%)" stroke-width="0.00036"></path>
<path d="M0.507 0.377 Q0.654 0.767 1.448 0.781" stroke="hsl(0.0,100%,35%)" stroke-width="0.00108"></path>
<path d="M0.507 0.377 Q0.610 0.613 1.093 0.615" stroke="hsl(0.0,100%,35%)" stroke-width="0.00036"></path>
<path d="M0.507 0.377 Q0.602 0.663 1.180 0.680" stroke="hsl(0.0,100%,35%)" stroke-width="0.00253"></path>
<path d="M0.507 0.377 Q0.293 0.590 0.661 0.741" stroke="hsl(0.0,100%,35%)" stroke-width="0.00036"></path>
<path d="M0.507 0.377 Q0.435 0.633 0.920 0.725" stroke="hsl(0.0,100%,35%)" stroke-width="0.00036"></path>
<path d="M0.507 0.377 Q0.477 0.526 0.761 0.573" stroke="hsl(0.0,100%,35%)" stroke-width="0.01299"></path>
<path d="M0.507 0.377 Q0.660 0.559 1.049 0.524" stroke="hsl(0.0,100%,35%)" stroke-width="0.00541"></path>
<path d="M0.507 0.377 Q0.795 0.784 1.651 0.733" stroke="hsl(0.0,100%,35%)" stroke-width="0.00144"></path>
<path d="M0.507 0.377 Q0.952 0.516 1.322 0.330" stroke="hsl(0.0,100%,35%)" stroke-width="0.00036"></path>
<path d="M0.597 0.635 Q0.687 0.745 0.920 0.725" stroke="hsl(180.0,100%,35%)" stroke-width="0.00577"></path>
<path d="M0.597 0.635 Q0.722 0.918 1.300 0.918" stroke="hsl(180.0,100%,35%)" stroke-width="0.00036"></path>
<path d="M0.597 0.635 Q1.082 0.533 0.988 0.273" stroke="hsl(180.0,100%,35%)" stroke-width="0.00289"></path>
<path d="M0.597 0.635 Q0.482 0.734 0.649 0.811" stroke="hsl(180.0,100%,35%)" stroke-width="0.00180"></path>
<path d="M0.597 0.635 Q1.080 0.440 0.804 0.161" stroke="hsl(180.0,100%,35%)" stroke-width="0.00469"></path>
<path d="M0.920 0.725 Q1.094 0.704 1.093 0.615" stroke="hsl(180.0,100%,35%)" stroke-width="0.03862"></path>
<path d="M0.920 0.725 Q0.715 0.714 0.649 0.811" stroke="hsl(180.0,100%,35%)" stroke-width="0.01732"></path>
<path d="M0.920 0.725 Q0.777 0.681 0.661 0.741" stroke="hsl(180.0,100%,35%)" stroke-width="0.01408"></path>
<path d="M0.920 0.725 Q1.138 0.859 1.448 0.781" stroke="hsl(180.0,100%,35%)" stroke-width="0.00289"></path>
<path d="M0.920 0.725 Q1.315 0.513 0.988 0.273" stroke="hsl(180.0,100%,35%)" stroke-width="0.00686"></path>
<path d="M0.920 0.725 Q0.962 0.617 0.761 0.573" stroke="hsl(180.0,100%,35%)" stroke-width="0.00108"></path>
<path d="M0.920 0.725 Q0.992 0.468 0.507 0.377" stroke="hsl(180.0,100%,35%)" stroke-width="0.00072"></path>
<path d="M0.920 0.725 Q1.086 0.754 1.180 0.680" stroke="hsl(180.0,100%,35%)" stroke-width="0.00253"></path>
<path d="M0.920 0.725 Q1.309 0.825 1.590 0.658" stroke="hsl(180.0,100%,35%)" stroke-width="0.00253"></path>
<path d="M0.920 0.725 Q1.093 0.720 1.122 0.635" stroke="hsl(180.0,100%,35%)" stroke-width="0.00108"></path>
<path d="M0.920 0.725 Q0.955 0.898 1.300 0.918" stroke="hsl(180.0,100%,35%)" stroke-width="0.00036"></path>
<path d="M0.920 0.725 Q1.279 0.875 1.651 0.733" stroke="hsl(180.0,100%,35%)" stroke-width="0.00072"></path>
<path d="M0.920 0.725 Q1.094 0.545 0.781 0.421" stroke="hsl(180.0,100%,35%)" stroke-width="0.00108"></path>
<path d="M0.920 0.725 Q1.313 0.420 0.804 0.161" stroke="hsl(180.0,100%,35%)" stroke-width="0.00253"></path>
<path d="M0.920 0.725 Q1.489 0.908 1.972 0.671" stroke="hsl(180.0,100%,35%)" stroke-width="0.00072"></path>
<path d="M0.920 0.725 Q0.830 0.615 0.597 0.635" stroke="hsl(180.0,100%,35%)" stroke-width="0.00072"></path>
<path d="M0.920 0.725 Q1.262 0.568 1.031 0.366" stroke="hsl(180.0,100%,35%)" stroke-width="0.00036"></path>
<path d="M0.920 0.725 Q1.145 0.650 1.049 0.524" stroke="hsl(180.0,100%,35%)" stroke-width="0.00036"></path>
<path d="M1.300 0.918 Q1.431 0.775 1.180 0.680" stroke="hsl(0.0,100%,35%)" stroke-width="0.00289"></path>
<path d="M1.300 0.918 Q1.483 0.879 1.448 0.781" stroke="hsl(0.0,100%,35%)" stroke-width="0.00974"></path>
<path d="M1.300 0.918 Q1.151 0.917 1.117 0.989" stroke="hsl(0.0,100%,35%)" stroke-width="0.00036"></path>
<path d="M1.300 0.918 Q1.624 0.896 1.651 0.733" stroke="hsl(0.0,100%,35%)" stroke-width="0.00217"></path>
<path d="M1.300 0.918 Q1.215 0.847 1.057 0.873" stroke="hsl(0.0,100%,35%)" stroke-width="0.00217"></path>
<path d="M1.300 0.918 Q1.653 0.846 1.590 0.658" stroke="hsl(0.0,100%,35%)" stroke-width="0.00577"></path>
<path d="M1.300 0.918 Q1.438 0.566 0.781 0.421" stroke="hsl(0.0,100%,35%)" stroke-width="0.00253"></path>
<path d="M1.300 0.918 Q1.834 0.929 1.972 0.671" stroke="hsl(0.0,100%,35%)" stroke-width="0.00541"></path>
<path d="M1.300 0.918 Q1.265 0.746 0.920 0.725" stroke="hsl(0.0,100%,35%)" stroke-width="0.00036"></path>
<path d="M1.300 0.918 Q1.337 0.489 0.507 0.377" stroke="hsl(0.0,100%,35%)" stroke-width="0.00072"></path>
<path d="M1.300 0.918 Q1.160 0.819 0.935 0.865" stroke="hsl(0.0,100%,35%)" stroke-width="0.00433"></path>
<path d="M1.300 0.918 Q1.306 0.638 0.761 0.573" stroke="hsl(0.0,100%,35%)" stroke-width="0.00144"></path>
<path d="M1.300 0.918 Q1.489 0.671 1.049 0.524" stroke="hsl(0.0,100%,35%)" stroke-width="0.00108"></path>
<path d="M1.300 0.918 Q1.919 0.744 1.714 0.403" stroke="hsl(0.0,100%,35%)" stroke-width="0.00144"></path>
<path d="M1.300 0.918 Q1.806 0.787 1.661 0.511" stroke="hsl(0.0,100%,35%)" stroke-width="0.00036"></path>
<path d="M1.300 0.918 Q1.438 0.741 1.122 0.635" stroke="hsl(0.0,100%,35%)" stroke-width="0.00036"></path>
<path d="M1.300 0.918 Q1.660 0.533 0.988 0.273" stroke="hsl(0.0,100%,35%)" stroke-width="0.00036"></path>
<path d="M1.300 0.918 Q1.932 0.866 1.969 0.545" stroke="hsl(0.0,100%,35%)" stroke-width="0.00036"></path>
<path d="M0.988 0.273 Q0.634 0.378 0.761 0.573" stroke="hsl(180.0,100%,35%)" stroke-width="0.00036"></path>
<path d="M0.988 0.273 Q0.811 0.619 1.448 0.781" stroke="hsl(180.0,100%,35%)" stroke-width="0.00072"></path>
<path d="M0.988 0.273 Q0.592 0.485 0.920 0.725" stroke="hsl(180.0,100%,35%)" stroke-width="0.00866"></path>
<path d="M0.988 0.273 Q0.767 0.465 1.093 0.615" stroke="hsl(180.0,100%,35%)" stroke-width="0.00108"></path>
<path d="M0.988 0.273 Q1.103 0.251 1.085 0.190" stroke="hsl(180.0,100%,35%)" stroke-width="0.00036"></path>
<path d="M0.988 0.273 Q0.985 0.180 0.804 0.161" stroke="hsl(180.0,100%,35%)" stroke-width="0.00217"></path>
<path d="M0.988 0.273 Q0.450 0.442 0.661 0.741" stroke="hsl(180.0,100%,35%)" stroke-width="0.00072"></path>
<path d="M0.988 0.273 Q0.502 0.376 0.597 0.635" stroke="hsl(180.0,100%,35%)" stroke-width="0.00072"></path>
<path d="M0.988 0.273 Q0.935 0.328 1.031 0.366" stroke="hsl(180.0,100%,35%)" stroke-width="0.00144"></path>
<path d="M0.988 0.273 Q1.260 0.605 1.969 0.545" stroke="hsl(180.0,100%,35%)" stroke-width="0.00036"></path>
<path d="M0.649 0.811 Q0.853 0.822 0.920 0.725" stroke="hsl(180.0,100%,35%)" stroke-width="0.01805"></path>
<path d="M0.649 0.811 Q1.028 0.802 1.093 0.615" stroke="hsl(180.0,100%,35%)" stroke-width="0.00253"></path>
<path d="M0.649 0.811 Q0.710 0.779 0.661 0.741" stroke="hsl(180.0,100%,35%)" stroke-width="0.00289"></path>
<path d="M0.804 0.161 Q0.806 0.254 0.988 0.273" stroke="hsl(180.0,100%,35%)" stroke-width="0.01660"></path>
<path d="M0.804 0.161 Q0.753 0.309 1.031 0.366" stroke="hsl(180.0,100%,35%)" stroke-width="0.00397"></path>
<path d="M0.804 0.161 Q0.411 0.466 0.920 0.725" stroke="hsl(180.0,100%,35%)" stroke-width="0.00866"></path>
<path d="M0.804 0.161 Q0.306 0.539 0.935 0.865" stroke="hsl(180.0,100%,35%)" stroke-width="0.00036"></path>
<path d="M0.804 0.161 Q0.585 0.446 1.093 0.615" stroke="hsl(180.0,100%,35%)" stroke-width="0.00144"></path>
<path d="M0.804 0.161 Q0.879 0.668 1.885 0.742" stroke="hsl(180.0,100%,35%)" stroke-width="0.00072"></path>
<path d="M0.804 0.161 Q0.799 0.567 1.590 0.658" stroke="hsl(180.0,100%,35%)" stroke-width="0.00072"></path>
<path d="M0.804 0.161 Q0.980 0.650 1.972 0.671" stroke="hsl(180.0,100%,35%)" stroke-width="0.00036"></path>
<path d="M0.804 0.161 Q0.770 0.616 1.651 0.733" stroke="hsl(180.0,100%,35%)" stroke-width="0.00072"></path>
<path d="M0.804 0.161 Q0.446 0.639 1.300 0.918" stroke="hsl(180.0,100%,35%)" stroke-width="0.00072"></path>
<path d="M0.804 0.161 Q0.268 0.423 0.661 0.741" stroke="hsl(180.0,100%,35%)" stroke-width="0.00072"></path>
<path d="M0.804 0.161 Q1.065 0.540 1.863 0.496" stroke="hsl(180.0,100%,35%)" stroke-width="0.00036"></path>
<path d="M0.804 0.161 Q0.584 0.286 0.781 0.421" stroke="hsl(180.0,100%,35%)" stroke-width="0.00072"></path>
<path d="M0.804 0.161 Q0.629 0.600 1.448 0.781" stroke="hsl(180.0,100%,35%)" stroke-width="0.00144"></path>
<path d="M0.804 0.161 Q0.320 0.357 0.597 0.635" stroke="hsl(180.0,100%,35%)" stroke-width="0.00253"></path>
<path d="M1.590 0.658 Q1.669 0.759 1.885 0.742" stroke="hsl(0.0,100%,35%)" stroke-width="0.00217"></path>
<path d="M1.590 0.658 Q1.236 0.730 1.300 0.918" stroke="hsl(0.0,100%,35%)" stroke-width="0.00541"></path>
<path d="M1.590 0.658 Q1.375 0.378 0.781 0.421" stroke="hsl(0.0,100%,35%)" stroke-width="0.00361"></path>
<path d="M1.590 0.658 Q1.597 0.345 0.988 0.273" stroke="hsl(0.0,100%,35%)" stroke-width="0.00036"></path>
<path d="M1.590 0.658 Q1.368 0.587 1.180 0.680" stroke="hsl(0.0,100%,35%)" stroke-width="0.00505"></path>
<path d="M1.590 0.658 Q1.273 0.301 0.507 0.377" stroke="hsl(0.0,100%,35%)" stroke-width="0.00505"></path>
<path d="M1.590 0.658 Q1.243 0.450 0.761 0.573" stroke="hsl(0.0,100%,35%)" stroke-width="0.00469"></path>
<path d="M1.590 0.658 Q1.097 0.630 0.935 0.865" stroke="hsl(0.0,100%,35%)" stroke-width="0.00108"></path>
<path d="M1.590 0.658 Q1.420 0.691 1.448 0.781" stroke="hsl(0.0,100%,35%)" stroke-width="0.01119"></path>
<path d="M1.590 0.658 Q1.855 0.555 1.714 0.403" stroke="hsl(0.0,100%,35%)" stroke-width="0.00036"></path>
<path d="M1.590 0.658 Q1.718 0.440 1.322 0.330" stroke="hsl(0.0,100%,35%)" stroke-width="0.00036"></path>
<path d="M1.590 0.658 Q1.426 0.483 1.049 0.524" stroke="hsl(0.0,100%,35%)" stroke-width="0.00036"></path>
<path d="M1.590 0.658 Q1.376 0.537 1.093 0.615" stroke="hsl(0.0,100%,35%)" stroke-width="0.00108"></path>
<path d="M1.590 0.658 Q1.201 0.557 0.920 0.725" stroke="hsl(0.0,100%,35%)" stroke-width="0.00289"></path>
<path d="M1.590 0.658 Q1.770 0.741 1.972 0.671" stroke="hsl(0.0,100%,35%)" stroke-width="0.00072"></path>
<path d="M1.590 0.658 Q1.560 0.707 1.651 0.733" stroke="hsl(0.0,100%,35%)" stroke-width="0.00144"></path>
<path d="M1.180 0.680 Q1.056 0.543 0.761 0.573" stroke="hsl(0.0,100%,35%)" stroke-width="0.00614"></path>
<path d="M1.180 0.680 Q1.014 0.650 0.920 0.725" stroke="hsl(0.0,100%,35%)" stroke-width="0.00289"></path>
<path d="M1.180 0.680 Q1.232 0.784 1.448 0.781" stroke="hsl(0.0,100%,35%)" stroke-width="0.01119"></path>
<path d="M1.180 0.680 Q1.531 0.533 1.322 0.330" stroke="hsl(0.0,100%,35%)" stroke-width="0.00072"></path>
<path d="M1.180 0.680 Q1.373 0.800 1.651 0.733" stroke="hsl(0.0,100%,35%)" stroke-width="0.00036"></path>
<path d="M1.180 0.680 Q1.668 0.724 1.863 0.496" stroke="hsl(0.0,100%,35%)" stroke-width="0.00180"></path>
<path d="M1.180 0.680 Q1.403 0.750 1.590 0.658" stroke="hsl(0.0,100%,35%)" stroke-width="0.00180"></path>
<path d="M1.180 0.680 Q0.987 0.728 1.040 0.833" stroke="hsl(0.0,100%,35%)" stroke-width="0.00036"></path>
<path d="M1.180 0.680 Q1.409 0.438 0.988 0.273" stroke="hsl(0.0,100%,35%)" stroke-width="0.00036"></path>
<path d="M1.180 0.680 Q1.583 0.833 1.972 0.671" stroke="hsl(0.0,100%,35%)" stroke-width="0.00036"></path>
<path d="M1.180 0.680 Q1.482 0.852 1.885 0.742" stroke="hsl(0.0,100%,35%)" stroke-width="0.00108"></path>
<path d="M1.180 0.680 Q1.188 0.470 0.781 0.421" stroke="hsl(0.0,100%,35%)" stroke-width="0.00036"></path>
<path d="M1.651 0.733 Q1.680 0.683 1.590 0.658" stroke="hsl(0.0,100%,35%)" stroke-width="0.00180"></path>
<path d="M1.651 0.733 Q1.465 0.403 0.781 0.421" stroke="hsl(0.0,100%,35%)" stroke-width="0.00072"></path>
<path d="M1.651 0.733 Q1.466 0.562 1.093 0.615" stroke="hsl(0.0,100%,35%)" stroke-width="0.00108"></path>
<path d="M1.651 0.733 Q1.510 0.716 1.448 0.781" stroke="hsl(0.0,100%,35%)" stroke-width="0.00289"></path>
<path d="M1.651 0.733 Q1.861 0.766 1.972 0.671" stroke="hsl(0.0,100%,35%)" stroke-width="0.00469"></path>
<path d="M1.651 0.733 Q1.327 0.755 1.300 0.918" stroke="hsl(0.0,100%,35%)" stroke-width="0.00072"></path>
<path d="M1.651 0.733 Q1.333 0.475 0.761 0.573" stroke="hsl(0.0,100%,35%)" stroke-width="0.00144"></path>
<path d="M1.651 0.733 Q1.458 0.612 1.180 0.680" stroke="hsl(0.0,100%,35%)" stroke-width="0.00108"></path>
<path d="M1.651 0.733 Q1.760 0.784 1.885 0.742" stroke="hsl(0.0,100%,35%)" stroke-width="0.00180"></path>
<path d="M1.651 0.733 Q1.364 0.326 0.507 0.377" stroke="hsl(0.0,100%,35%)" stroke-width="0.00036"></path>
<path d="M1.651 0.733 Q1.292 0.582 0.920 0.725" stroke="hsl(0.0,100%,35%)" stroke-width="0.00036"></path>
<path d="M1.651 0.733 Q1.685 0.277 0.804 0.161" stroke="hsl(0.0,100%,35%)" stroke-width="0.00036"></path>
<path d="M1.651 0.733 Q1.242 0.684 1.057 0.873" stroke="hsl(0.0,100%,35%)" stroke-width="0.00036"></path>
<path d="M1.093 0.615 Q1.314 0.423 0.988 0.273" stroke="hsl(180.0,100%,35%)" stroke-width="0.00144"></path>
<path d="M1.093 0.615 Q0.775 0.592 0.661 0.741" stroke="hsl(180.0,100%,35%)" stroke-width="0.00289"></path>
<path d="M1.093 0.615 Q1.085 0.665 1.180 0.680" stroke="hsl(180.0,100%,35%)" stroke-width="0.00072"></path>
<path d="M1.093 0.615 Q0.953 0.808 1.300 0.918" stroke="hsl(180.0,100%,35%)" stroke-width="0.00036"></path>
<path d="M1.093 0.615 Q0.814 0.708 0.935 0.865" stroke="hsl(180.0,100%,35%)" stroke-width="0.00036"></path>
<path d="M1.093 0.615 Q0.918 0.635 0.920 0.725" stroke="hsl(180.0,100%,35%)" stroke-width="0.00974"></path>
<path d="M1.093 0.615 Q1.092 0.455 0.781 0.421" stroke="hsl(180.0,100%,35%)" stroke-width="0.00072"></path>
<path d="M1.093 0.615 Q1.573 0.709 1.863 0.496" stroke="hsl(180.0,100%,35%)" stroke-width="0.00036"></path>
<path d="M1.093 0.615 Q1.307 0.736 1.590 0.658" stroke="hsl(180.0,100%,35%)" stroke-width="0.00036"></path>
<path d="M1.093 0.615 Q1.137 0.769 1.448 0.781" stroke="hsl(180.0,100%,35%)" stroke-width="0.00036"></path>
<path d="M1.093 0.615 Q1.572 0.633 1.714 0.403" stroke="hsl(180.0,100%,35%)" stroke-width="0.00036"></path>
<path d="M1.093 0.615 Q0.714 0.624 0.649 0.811" stroke="hsl(180.0,100%,35%)" stroke-width="0.00217"></path>
<path d="M1.093 0.615 Q1.261 0.478 1.031 0.366" stroke="hsl(180.0,100%,35%)" stroke-width="0.00036"></path>
<path d="M0.761 0.573 Q0.577 0.637 0.661 0.741" stroke="hsl(0.0,100%,35%)" stroke-width="0.00036"></path>
<path d="M0.761 0.573 Q0.886 0.710 1.180 0.680" stroke="hsl(0.0,100%,35%)" stroke-width="0.00253"></path>
<path d="M0.761 0.573 Q1.108 0.781 1.590 0.658" stroke="hsl(0.0,100%,35%)" stroke-width="0.00144"></path>
<path d="M0.761 0.573 Q1.188 0.883 1.885 0.742" stroke="hsl(0.0,100%,35%)" stroke-width="0.00253"></path>
<path d="M0.761 0.573 Q0.893 0.501 0.781 0.421" stroke="hsl(0.0,100%,35%)" stroke-width="0.01588"></path>
<path d="M0.761 0.573 Q0.754 0.854 1.300 0.918" stroke="hsl(0.0,100%,35%)" stroke-width="0.00072"></path>
<path d="M0.761 0.573 Q0.938 0.815 1.448 0.781" stroke="hsl(0.0,100%,35%)" stroke-width="0.00180"></path>
<path d="M0.761 0.573 Q0.944 0.606 1.049 0.524" stroke="hsl(0.0,100%,35%)" stroke-width="0.01335"></path>
<path d="M0.761 0.573 Q1.079 0.831 1.651 0.733" stroke="hsl(0.0,100%,35%)" stroke-width="0.00036"></path>
<path d="M0.761 0.573 Q0.791 0.424 0.507 0.377" stroke="hsl(0.0,100%,35%)" stroke-width="0.00036"></path>
<path d="M0.761 0.573 Q1.374 0.679 1.714 0.403" stroke="hsl(0.0,100%,35%)" stroke-width="0.00036"></path>
<path d="M0.761 0.573 Q1.289 0.864 1.972 0.671" stroke="hsl(0.0,100%,35%)" stroke-width="0.00108"></path>
<path d="M0.761 0.573 Q0.919 0.564 0.936 0.485" stroke="hsl(0.0,100%,35%)" stroke-width="0.00036"></path>
<path d="M1.322 0.330 Q1.024 0.581 1.448 0.781" stroke="hsl(0.0,100%,35%)" stroke-width="0.00144"></path>
<path d="M1.322 0.330 Q0.980 0.426 1.093 0.615" stroke="hsl(0.0,100%,35%)" stroke-width="0.00036"></path>
<path d="M1.322 0.330 Q0.840 0.620 1.300 0.918" stroke="hsl(0.0,100%,35%)" stroke-width="0.00036"></path>
<path d="M1.322 0.330 Q1.459 0.445 1.714 0.403" stroke="hsl(0.0,100%,35%)" stroke-width="0.00036"></path>
<path d="M1.322 0.330 Q0.877 0.190 0.507 0.377" stroke="hsl(0.0,100%,35%)" stroke-width="0.00036"></path>
<path d="M1.322 0.330 Q0.972 0.476 1.180 0.680" stroke="hsl(0.0,100%,35%)" stroke-width="0.00072"></path>
<path d="M1.322 0.330 Q1.194 0.547 1.590 0.658" stroke="hsl(0.0,100%,35%)" stroke-width="0.00036"></path>
<path d="M1.322 0.330 Q0.805 0.447 0.920 0.725" stroke="hsl(0.0,100%,35%)" stroke-width="0.00036"></path>
<path d="M1.322 0.330 Q1.274 0.649 1.885 0.742" stroke="hsl(0.0,100%,35%)" stroke-width="0.00036"></path>
<path d="M1.049 0.524 Q0.619 0.588 0.649 0.811" stroke="hsl(0.0,100%,35%)" stroke-width="0.00072"></path>
<path d="M1.049 0.524 Q0.866 0.491 0.761 0.573" stroke="hsl(0.0,100%,35%)" stroke-width="0.02563"></path>
<path d="M1.049 0.524 Q0.998 0.419 0.781 0.421" stroke="hsl(0.0,100%,35%)" stroke-width="0.01227"></path>
<path d="M1.049 0.524 Q0.896 0.342 0.507 0.377" stroke="hsl(0.0,100%,35%)" stroke-width="0.00253"></path>
<path d="M1.049 0.524 Q0.990 0.628 1.180 0.680" stroke="hsl(0.0,100%,35%)" stroke-width="0.00036"></path>
<path d="M1.049 0.524 Q1.183 0.749 1.651 0.733" stroke="hsl(0.0,100%,35%)" stroke-width="0.00036"></path>
<path d="M1.049 0.524 Q0.859 0.772 1.300 0.918" stroke="hsl(0.0,100%,35%)" stroke-width="0.00036"></path>
<path d="M1.049 0.524 Q1.393 0.782 1.972 0.671" stroke="hsl(0.0,100%,35%)" stroke-width="0.00036"></path>
<path d="M1.049 0.524 Q0.824 0.599 0.920 0.725" stroke="hsl(0.0,100%,35%)" stroke-width="0.00036"></path>
<path d="M1.049 0.524 Q1.024 0.482 0.936 0.485" stroke="hsl(0.0,100%,35%)" stroke-width="0.00072"></path>
<path d="M1.714 0.403 Q1.448 0.506 1.590 0.658" stroke="hsl(0.0,100%,35%)" stroke-width="0.00036"></path>
<path d="M1.714 0.403 Q1.233 0.226 0.781 0.421" stroke="hsl(0.0,100%,35%)" stroke-width="0.00036"></path>
<path d="M1.714 0.403 Q1.232 0.401 1.122 0.635" stroke="hsl(0.0,100%,35%)" stroke-width="0.00036"></path>
<path d="M1.714 0.403 Q0.955 0.478 0.935 0.865" stroke="hsl(0.0,100%,35%)" stroke-width="0.00036"></path>
<path d="M0.936 0.485 Q0.910 0.422 0.781 0.421" stroke="hsl(0.0,100%,35%)" stroke-width="0.00108"></path>
<path d="M0.936 0.485 Q0.778 0.494 0.761 0.573" stroke="hsl(0.0,100%,35%)" stroke-width="0.00758"></path>
<path d="M0.936 0.485 Q1.095 0.752 1.651 0.733" stroke="hsl(0.0,100%,35%)" stroke-width="0.00036"></path>
<path d="M0.936 0.485 Q0.961 0.527 1.049 0.524" stroke="hsl(0.0,100%,35%)" stroke-width="0.00144"></path>
<path d="M0.936 0.485 Q0.808 0.345 0.507 0.377" stroke="hsl(0.0,100%,35%)" stroke-width="0.00036"></path>
<path d="M1.174 0.075 Q1.182 0.423 1.863 0.496" stroke="hsl(0.0,100%,35%)" stroke-width="0.00072"></path>
<path d="M1.174 0.075 Q1.112 0.137 1.219 0.181" stroke="hsl(0.0,100%,35%)" stroke-width="0.00108"></path>
<path d="M1.174 0.075 Q0.887 0.499 1.651 0.733" stroke="hsl(0.0,100%,35%)" stroke-width="0.00072"></path>
<path d="M1.174 0.075 Q0.562 0.522 1.300 0.918" stroke="hsl(0.0,100%,35%)" stroke-width="0.00036"></path>
<path d="M1.863 0.496 Q1.383 0.401 1.093 0.615" stroke="hsl(0.0,100%,35%)" stroke-width="0.00180"></path>
<path d="M1.863 0.496 Q1.597 0.522 1.590 0.658" stroke="hsl(0.0,100%,35%)" stroke-width="0.00072"></path>
<path d="M1.863 0.496 Q1.209 0.422 0.920 0.725" stroke="hsl(0.0,100%,35%)" stroke-width="0.00072"></path>
<path d="M1.863 0.496 Q1.427 0.556 1.448 0.781" stroke="hsl(0.0,100%,35%)" stroke-width="0.00144"></path>
<path d="M1.863 0.496 Q1.568 0.572 1.651 0.733" stroke="hsl(0.0,100%,35%)" stroke-width="0.00036"></path>
<path d="M1.863 0.496 Q1.863 0.420 1.714 0.403" stroke="hsl(0.0,100%,35%)" stroke-width="0.00217"></path>
<path d="M1.863 0.496 Q1.375 0.451 1.180 0.680" stroke="hsl(0.0,100%,35%)" stroke-width="0.00108"></path>
<path d="M1.863 0.496 Q1.382 0.242 0.781 0.421" stroke="hsl(0.0,100%,35%)" stroke-width="0.00072"></path>
<path d="M1.863 0.496 Q1.244 0.595 1.300 0.918" stroke="hsl(0.0,100%,35%)" stroke-width="0.00036"></path>
<path d="M1.863 0.496 Q1.793 0.210 1.219 0.181" stroke="hsl(0.0,100%,35%)" stroke-width="0.00072"></path>
<path d="M0.661 0.741 Q0.978 0.764 1.093 0.615" stroke="hsl(180.0,100%,35%)" stroke-width="0.00289"></path>
<path d="M0.661 0.741 Q0.804 0.785 0.920 0.725" stroke="hsl(180.0,100%,35%)" stroke-width="0.01263"></path>
<path d="M0.661 0.741 Q0.845 0.677 0.761 0.573" stroke="hsl(180.0,100%,35%)" stroke-width="0.00036"></path>
<path d="M0.661 0.741 Q0.599 0.774 0.649 0.811" stroke="hsl(180.0,100%,35%)" stroke-width="0.00577"></path>
<path d="M0.661 0.741 Q0.977 0.605 0.781 0.421" stroke="hsl(180.0,100%,35%)" stroke-width="0.00036"></path>
<path d="M0.935 0.865 Q1.214 0.612 0.781 0.421" stroke="hsl(0.0,100%,35%)" stroke-width="0.00036"></path>
<path d="M0.935 0.865 Q1.428 0.892 1.590 0.658" stroke="hsl(0.0,100%,35%)" stroke-width="0.00144"></path>
<path d="M0.935 0.865 Q1.112 0.535 0.507 0.377" stroke="hsl(0.0,100%,35%)" stroke-width="0.00072"></path>
<path d="M0.935 0.865 Q1.399 0.942 1.651 0.733" stroke="hsl(0.0,100%,35%)" stroke-width="0.00072"></path>
<path d="M0.935 0.865 Q1.708 0.912 1.969 0.545" stroke="hsl(0.0,100%,35%)" stroke-width="0.00036"></path>
<path d="M0.935 0.865 Q1.557 0.675 1.322 0.330" stroke="hsl(0.0,100%,35%)" stroke-width="0.00036"></path>
<path d="M0.935 0.865 Q1.609 0.975 1.972 0.671" stroke="hsl(0.0,100%,35%)" stroke-width="0.00036"></path>
<path d="M1.031 0.366 Q1.084 0.311 0.988 0.273" stroke="hsl(180.0,100%,35%)" stroke-width="0.01624"></path>
<path d="M1.031 0.366 Q0.688 0.523 0.920 0.725" stroke="hsl(180.0,100%,35%)" stroke-width="0.00361"></path>
<path d="M1.031 0.366 Q1.081 0.218 0.804 0.161" stroke="hsl(180.0,100%,35%)" stroke-width="0.00686"></path>
<path d="M1.031 0.366 Q0.863 0.503 1.093 0.615" stroke="hsl(180.0,100%,35%)" stroke-width="0.00108"></path>
<path d="M1.031 0.366 Q0.907 0.657 1.448 0.781" stroke="hsl(180.0,100%,35%)" stroke-width="0.00072"></path>
<path d="M1.031 0.366 Q0.598 0.414 0.597 0.635" stroke="hsl(180.0,100%,35%)" stroke-width="0.00072"></path>
<path d="M1.031 0.366 Q0.723 0.696 1.300 0.918" stroke="hsl(180.0,100%,35%)" stroke-width="0.00036"></path>
<path d="M1.885 0.742 Q1.583 0.570 1.180 0.680" stroke="hsl(0.0,100%,35%)" stroke-width="0.00289"></path>
<path d="M1.885 0.742 Q1.458 0.433 0.761 0.573" stroke="hsl(0.0,100%,35%)" stroke-width="0.00144"></path>
<path d="M1.885 0.742 Q1.635 0.674 1.448 0.781" stroke="hsl(0.0,100%,35%)" stroke-width="0.00072"></path>
<path d="M1.885 0.742 Q1.805 0.641 1.590 0.658" stroke="hsl(0.0,100%,35%)" stroke-width="0.00144"></path>
<path d="M1.885 0.742 Q1.986 0.724 1.972 0.671" stroke="hsl(0.0,100%,35%)" stroke-width="0.00036"></path>
<path d="M1.885 0.742 Q1.416 0.541 0.920 0.725" stroke="hsl(0.0,100%,35%)" stroke-width="0.00036"></path>
<path d="M1.885 0.742 Q1.776 0.691 1.651 0.733" stroke="hsl(0.0,100%,35%)" stroke-width="0.00036"></path>
<path d="M1.885 0.742 Q1.590 0.361 0.781 0.421" stroke="hsl(0.0,100%,35%)" stroke-width="0.00036"></path>
<path d="M1.885 0.742 Q1.958 0.582 1.661 0.511" stroke="hsl(0.0,100%,35%)" stroke-width="0.00036"></path>
<path d="M1.972 0.671 Q1.577 0.308 0.781 0.421" stroke="hsl(0.0,100%,35%)" stroke-width="0.00108"></path>
<path d="M1.972 0.671 Q1.577 0.467 1.093 0.615" stroke="hsl(0.0,100%,35%)" stroke-width="0.00036"></path>
<path d="M1.972 0.671 Q1.871 0.689 1.885 0.742" stroke="hsl(0.0,100%,35%)" stroke-width="0.00650"></path>
<path d="M1.972 0.671 Q1.444 0.380 0.761 0.573" stroke="hsl(0.0,100%,35%)" stroke-width="0.00072"></path>
<path d="M1.972 0.671 Q1.475 0.231 0.507 0.377" stroke="hsl(0.0,100%,35%)" stroke-width="0.00108"></path>
<path d="M1.972 0.671 Q1.762 0.637 1.651 0.733" stroke="hsl(0.0,100%,35%)" stroke-width="0.00289"></path>
<path d="M1.972 0.671 Q1.438 0.660 1.300 0.918" stroke="hsl(0.0,100%,35%)" stroke-width="0.00505"></path>
<path d="M1.972 0.671 Q1.260 0.444 0.661 0.741" stroke="hsl(0.0,100%,35%)" stroke-width="0.00036"></path>
<path d="M1.972 0.671 Q1.628 0.413 1.049 0.524" stroke="hsl(0.0,100%,35%)" stroke-width="0.00036"></path>
<path d="M1.972 0.671 Q2.071 0.607 1.969 0.545" stroke="hsl(0.0,100%,35%)" stroke-width="0.00072"></path>
<path d="M1.741 0.842 Q1.643 0.753 1.448 0.781" stroke="hsl(0.0,100%,35%)" stroke-width="0.00036"></path>
<path d="M1.741 0.842 Q1.496 0.363 0.507 0.377" stroke="hsl(0.0,100%,35%)" stroke-width="0.00036"></path>
<path d="M1.741 0.842 Q1.813 0.720 1.590 0.658" stroke="hsl(0.0,100%,35%)" stroke-width="0.00036"></path>
<path d="M1.741 0.842 Q1.714 0.322 0.693 0.221" stroke="hsl(0.0,100%,35%)" stroke-width="0.00036"></path>
<path d="M1.057 0.873 Q1.142 0.944 1.300 0.918" stroke="hsl(0.0,100%,35%)" stroke-width="0.00036"></path>
<path d="M1.057 0.873 Q1.676 0.955 1.972 0.671" stroke="hsl(0.0,100%,35%)" stroke-width="0.00072"></path>
<path d="M1.057 0.873 Q0.964 0.728 0.661 0.741" stroke="hsl(0.0,100%,35%)" stroke-width="0.00036"></path>
<path d="M1.057 0.873 Q1.466 0.922 1.651 0.733" stroke="hsl(0.0,100%,35%)" stroke-width="0.00072"></path>
<path d="M1.794 0.341 Q1.439 0.458 1.590 0.658" stroke="hsl(0.0,100%,35%)" stroke-width="0.00144"></path>
<path d="M1.794 0.341 Q1.627 0.253 1.419 0.315" stroke="hsl(0.0,100%,35%)" stroke-width="0.00108"></path>
<path d="M1.794 0.341 Q1.601 0.330 1.537 0.422" stroke="hsl(0.0,100%,35%)" stroke-width="0.00072"></path>
<path d="M1.794 0.341 Q1.224 0.178 0.781 0.421" stroke="hsl(0.0,100%,35%)" stroke-width="0.00036"></path>
<path d="M1.794 0.341 Q1.085 0.531 1.300 0.918" stroke="hsl(0.0,100%,35%)" stroke-width="0.00036"></path>
<path d="M1.794 0.341 Q1.122 0.101 0.507 0.377" stroke="hsl(0.0,100%,35%)" stroke-width="0.00036"></path>
<path d="M1.759 0.530 Q1.256 0.203 0.507 0.377" stroke="hsl(0.0,100%,35%)" stroke-width="0.00036"></path>
<path d="M1.759 0.530 Q1.652 0.662 1.885 0.742" stroke="hsl(0.0,100%,35%)" stroke-width="0.00036"></path>
<path d="M1.759 0.530 Q1.184 0.460 0.920 0.725" stroke="hsl(0.0,100%,35%)" stroke-width="0.00036"></path>
<path d="M0.224 0.375 Q0.466 0.509 0.781 0.421" stroke="hsl(0.0,100%,35%)" stroke-width="0.00036"></path>
<path d="M0.224 0.375 Q0.364 0.433 0.507 0.377" stroke="hsl(0.0,100%,35%)" stroke-width="0.00036"></path>
<path d="M0.224 0.375 Q0.510 0.823 1.448 0.781" stroke="hsl(0.0,100%,35%)" stroke-width="0.00036"></path>
<path d="M1.185 0.299 Q1.107 0.246 0.988 0.273" stroke="hsl(180.0,100%,35%)" stroke-width="0.00036"></path>
<path d="M1.185 0.299 Q1.055 0.302 1.031 0.366" stroke="hsl(180.0,100%,35%)" stroke-width="0.00036"></path>
<path d="M1.185 0.299 Q0.712 0.459 0.920 0.725" stroke="hsl(180.0,100%,35%)" stroke-width="0.00036"></path>
<path d="M0.440 0.516 Q0.555 0.609 0.761 0.573" stroke="hsl(0.0,100%,35%)" stroke-width="0.00217"></path>
<path d="M0.440 0.516 Q0.680 0.746 1.180 0.680" stroke="hsl(0.0,100%,35%)" stroke-width="0.00217"></path>
<path d="M0.440 0.516 Q1.031 0.600 1.322 0.330" stroke="hsl(0.0,100%,35%)" stroke-width="0.00072"></path>
<path d="M0.440 0.516 Q0.585 0.460 0.507 0.377" stroke="hsl(0.0,100%,35%)" stroke-width="0.00072"></path>
<path d="M1.358 0.420 Q0.895 0.485 0.920 0.725" stroke="hsl(180.0,100%,35%)" stroke-width="0.00036"></path>
<path d="M1.358 0.420 Q1.290 0.273 0.988 0.273" stroke="hsl(180.0,100%,35%)" stroke-width="0.00072"></path>
<path d="M1.358 0.420 Q1.238 0.328 1.031 0.366" stroke="hsl(180.0,100%,35%)" stroke-width="0.00072"></path>
<path d="M1.358 0.420 Q0.805 0.376 0.597 0.635" stroke="hsl(180.0,100%,35%)" stroke-width="0.00036"></path>
<path d="M0.839 0.898 Q1.018 0.828 0.920 0.725" stroke="hsl(180.0,100%,35%)" stroke-width="0.00180"></path>
<path d="M0.839 0.898 Q1.413 0.615 0.988 0.273" stroke="hsl(180.0,100%,35%)" stroke-width="0.00144"></path>
<path d="M0.839 0.898 Q1.053 1.000 1.300 0.918" stroke="hsl(180.0,100%,35%)" stroke-width="0.00036"></path>
<path d="M0.839 0.898 Q1.236 0.962 1.448 0.781" stroke="hsl(180.0,100%,35%)" stroke-width="0.00036"></path>
<path d="M0.839 0.898 Q1.587 1.011 1.972 0.671" stroke="hsl(180.0,100%,35%)" stroke-width="0.00072"></path>
<path d="M0.839 0.898 Q0.968 0.929 1.057 0.873" stroke="hsl(180.0,100%,35%)" stroke-width="0.00036"></path>
<path d="M0.502 0.063 Q0.637 0.097 0.732 0.038" stroke="hsl(0.0,100%,35%)" stroke-width="0.00180"></path>
<path d="M0.502 0.063 Q0.253 0.221 0.507 0.377" stroke="hsl(0.0,100%,35%)" stroke-width="0.00108"></path>
<path d="M0.502 0.063 Q0.570 0.578 1.590 0.658" stroke="hsl(0.0,100%,35%)" stroke-width="0.00072"></path>
<path d="M0.502 0.063 Q0.216 0.650 1.300 0.918" stroke="hsl(0.0,100%,35%)" stroke-width="0.00036"></path>
<path d="M1.406 0.544 Q1.536 0.420 1.322 0.330" stroke="hsl(0.0,100%,35%)" stroke-width="0.00036"></path>
<path d="M1.406 0.544 Q1.237 0.671 1.448 0.781" stroke="hsl(0.0,100%,35%)" stroke-width="0.00072"></path>
<path d="M1.406 0.544 Q1.019 0.537 0.920 0.725" stroke="hsl(0.0,100%,35%)" stroke-width="0.00036"></path>
<path d="M1.406 0.544 Q1.054 0.710 1.300 0.918" stroke="hsl(0.0,100%,35%)" stroke-width="0.00036"></path>
<path d="M1.537 0.186 Q0.972 0.152 0.781 0.421" stroke="hsl(0.0,100%,35%)" stroke-width="0.00072"></path>
<path d="M1.537 0.186 Q1.637 0.124 1.538 0.062" stroke="hsl(0.0,100%,35%)" stroke-width="0.00036"></path>
<path d="M1.537 0.186 Q1.641 0.233 1.754 0.192" stroke="hsl(0.0,100%,35%)" stroke-width="0.00036"></path>
<path d="M1.351 0.612 Q1.405 0.732 1.651 0.733" stroke="hsl(0.0,100%,35%)" stroke-width="0.00036"></path>
<path d="M1.351 0.612 Q1.046 0.582 0.920 0.725" stroke="hsl(0.0,100%,35%)" stroke-width="0.00036"></path>
<path d="M1.351 0.612 Q1.212 0.612 1.180 0.680" stroke="hsl(0.0,100%,35%)" stroke-width="0.00036"></path>
<path d="M1.351 0.612 Q1.264 0.716 1.448 0.781" stroke="hsl(0.0,100%,35%)" stroke-width="0.00072"></path>
</g>
<text x="0.598" y="0.231" font-size="0.008371" fill="hsl(0.0,100%,20%)">adithyas</text>
<text x="1.448" y="0.752" font-size="0.058339" fill="hsl(0.0,100%,20%)">szuend</text>
<text x="0.781" y="0.394" font-size="0.054525" fill="hsl(0.0,100%,20%)">alexrudenko</text>
<text x="0.693" y="0.219" font-size="0.004474" fill="hsl(0.0,100%,20%)">kenoss</text>
<text x="0.507" y="0.357" font-size="0.040763" fill="hsl(0.0,100%,20%)">wolfi</text>
<text x="0.597" y="0.623" font-size="0.023887" fill="hsl(180.0,100%,20%)">aixba</text>
<text x="0.920" y="0.690" font-size="0.069677" fill="hsl(180.0,100%,20%)">jacktfranklin</text>
<text x="1.300" y="0.897" font-size="0.043725" fill="hsl(0.0,100%,20%)">bmeurer</text>
<text x="0.988" y="0.252" font-size="0.042211" fill="hsl(180.0,100%,20%)">paulirish</text>
<text x="0.649" y="0.792" font-size="0.037702" fill="hsl(180.0,100%,20%)">alinavarkki</text>
<text x="0.804" y="0.141" font-size="0.039643" fill="hsl(180.0,100%,20%)">asraine</text>
<text x="1.590" y="0.635" font-size="0.045849" fill="hsl(0.0,100%,20%)">dsv</text>
<text x="1.180" y="0.656" font-size="0.046499" fill="hsl(0.0,100%,20%)">pfaffe</text>
<text x="1.651" y="0.715" font-size="0.034946" fill="hsl(0.0,100%,20%)">kimanh</text>
<text x="1.093" y="0.592" font-size="0.045078" fill="hsl(180.0,100%,20%)">andoli</text>
<text x="0.761" y="0.545" font-size="0.057474" fill="hsl(0.0,100%,20%)">ergunsh</text>
<text x="1.322" y="0.322" font-size="0.015819" fill="hsl(0.0,100%,20%)">leese</text>
<text x="1.049" y="0.502" font-size="0.045630" fill="hsl(0.0,100%,20%)">nvitkov</text>
<text x="1.714" y="0.396" font-size="0.014840" fill="hsl(0.0,100%,20%)">mathias</text>
<text x="0.936" y="0.476" font-size="0.018448" fill="hsl(0.0,100%,20%)">samiyac</text>
<text x="1.174" y="0.071" font-size="0.008949" fill="hsl(0.0,100%,20%)">alexschulze</text>
<text x="1.863" y="0.487" font-size="0.019245" fill="hsl(0.0,100%,20%)">liviurau</text>
<text x="1.219" y="0.177" font-size="0.007075" fill="hsl(0.0,100%,20%)">machenbach</text>
<text x="0.661" y="0.724" font-size="0.035231" fill="hsl(180.0,100%,20%)">nancyly</text>
<text x="0.935" y="0.856" font-size="0.017616" fill="hsl(0.0,100%,20%)">yangguo</text>
<text x="1.031" y="0.350" font-size="0.031953" fill="hsl(180.0,100%,20%)">cjamcl</text>
<text x="1.885" y="0.730" font-size="0.025703" fill="hsl(0.0,100%,20%)">changhaohan</text>
<text x="1.972" y="0.655" font-size="0.032110" fill="hsl(0.0,100%,20%)">kprokopenko</text>
<text x="1.741" y="0.839" font-size="0.006328" fill="hsl(0.0,100%,20%)">barrypollard</text>
<text x="1.117" y="0.988" font-size="0.003164" fill="hsl(0.0,100%,20%)">almuthanna</text>
<text x="1.057" y="0.867" font-size="0.011838" fill="hsl(0.0,100%,20%)">petermueller</text>
<text x="1.661" y="0.509" font-size="0.005480" fill="hsl(0.0,100%,20%)">jec</text>
<text x="1.122" y="0.631" font-size="0.007075" fill="hsl(180.0,100%,20%)">victorporof</text>
<text x="1.969" y="0.542" font-size="0.007075" fill="hsl(0.0,100%,20%)">semel</text>
<text x="1.794" y="0.335" font-size="0.010960" fill="hsl(0.0,100%,20%)">brunobraga</text>
<text x="1.419" y="0.313" font-size="0.005480" fill="hsl(0.0,100%,20%)">vizcay</text>
<text x="1.537" y="0.419" font-size="0.004474" fill="hsl(0.0,100%,20%)">battre</text>
<text x="1.759" y="0.528" font-size="0.005480" fill="hsl(0.0,100%,20%)">chrche</text>
<text x="0.224" y="0.372" font-size="0.005480" fill="hsl(0.0,100%,20%)">elormcoch</text>
<text x="1.185" y="0.296" font-size="0.005480" fill="hsl(180.0,100%,20%)">gux</text>
<text x="0.440" y="0.510" font-size="0.012655" fill="hsl(0.0,100%,20%)">ionutvoicila</text>
<text x="1.358" y="0.416" font-size="0.007750" fill="hsl(180.0,100%,20%)">jasmineyan</text>
<text x="0.839" y="0.892" font-size="0.011838" fill="hsl(180.0,100%,20%)">jaysonchen</text>
<text x="0.502" y="0.058" font-size="0.010493" fill="hsl(0.0,100%,20%)">masnoble</text>
<text x="0.732" y="0.035" font-size="0.007075" fill="hsl(0.0,100%,20%)">shuuran</text>
<text x="1.085" y="0.188" font-size="0.003164" fill="hsl(180.0,100%,20%)">guangyue.xu</text>
<text x="1.040" y="0.832" font-size="0.003164" fill="hsl(0.0,100%,20%)">caseq</text>
<text x="1.406" y="0.541" font-size="0.007075" fill="hsl(0.0,100%,20%)">rop</text>
<text x="1.537" y="0.183" font-size="0.006328" fill="hsl(0.0,100%,20%)">suzukikeita</text>
<text x="1.538" y="0.060" font-size="0.003164" fill="hsl(0.0,100%,20%)">sisidovski</text>
<text x="1.754" y="0.191" font-size="0.003164" fill="hsl(0.0,100%,20%)">yyanagisawa</text>
<text x="1.351" y="0.609" font-size="0.007075" fill="hsl(0.0,100%,20%)">tikuta</text>
</svg>
