<svg width="4000" height="2000" viewBox="-0.025 -0.025 2.05 1.05" xmlns="http://www.w3.org/2000/svg">
  <style>
    path {
      fill: none;
      stroke-linecap: round;
      stroke-opacity: 0.4;
    }

    text {
      text-anchor: middle;
      alignment-baseline: hanging;
    }
  </style>
  <g opacity="0.4">
<path d="M1.431 0.855 Q1.244 0.316 0.151 0.289" stroke="hsl(0.0,100%,35%)" stroke-width="0.00548"></path>
<path d="M1.431 0.855 Q1.307 0.871 1.311 0.935" stroke="hsl(0.0,100%,35%)" stroke-width="0.00658"></path>
<path d="M1.431 0.855 Q1.420 0.432 0.592 0.345" stroke="hsl(0.0,100%,35%)" stroke-width="0.00329"></path>
<path d="M0.151 0.289 Q0.203 0.639 0.898 0.691" stroke="hsl(0.0,100%,35%)" stroke-width="0.00110"></path>
<path d="M0.151 0.289 Q0.939 0.671 1.857 0.370" stroke="hsl(0.0,100%,35%)" stroke-width="0.00219"></path>
<path d="M0.151 0.289 Q0.396 0.254 0.382 0.127" stroke="hsl(0.0,100%,35%)" stroke-width="0.02630"></path>
<path d="M0.151 0.289 Q0.643 0.684 1.521 0.530" stroke="hsl(0.0,100%,35%)" stroke-width="0.00329"></path>
<path d="M0.151 0.289 Q-0.053 0.381 0.080 0.500" stroke="hsl(0.0,100%,35%)" stroke-width="0.00877"></path>
<path d="M0.151 0.289 Q0.181 0.359 0.323 0.359" stroke="hsl(0.0,100%,35%)" stroke-width="0.01534"></path>
<path d="M0.151 0.289 Q0.214 0.844 1.311 0.935" stroke="hsl(0.0,100%,35%)" stroke-width="0.00110"></path>
<path d="M0.151 0.289 Q0.494 0.773 1.512 0.712" stroke="hsl(0.0,100%,35%)" stroke-width="0.00110"></path>
<path d="M0.151 0.289 Q0.338 0.828 1.431 0.855" stroke="hsl(0.0,100%,35%)" stroke-width="0.00219"></path>
<path d="M0.151 0.289 Q0.327 0.405 0.592 0.345" stroke="hsl(0.0,100%,35%)" stroke-width="0.00329"></path>
<path d="M0.151 0.289 Q0.127 0.515 0.563 0.576" stroke="hsl(0.0,100%,35%)" stroke-width="0.00110"></path>
<path d="M0.151 0.289 Q0.256 0.733 1.145 0.780" stroke="hsl(0.0,100%,35%)" stroke-width="0.00110"></path>
<path d="M0.151 0.289 Q0.020 0.723 0.838 0.882" stroke="hsl(0.0,100%,35%)" stroke-width="0.00110"></path>
<path d="M1.311 0.935 Q1.435 0.919 1.431 0.855" stroke="hsl(0.0,100%,35%)" stroke-width="0.00767"></path>
<path d="M1.311 0.935 Q1.043 0.472 0.080 0.500" stroke="hsl(0.0,100%,35%)" stroke-width="0.00110"></path>
<path d="M1.311 0.935 Q1.424 0.496 0.592 0.345" stroke="hsl(0.0,100%,35%)" stroke-width="0.01096"></path>
<path d="M1.311 0.935 Q1.224 0.606 0.563 0.576" stroke="hsl(0.0,100%,35%)" stroke-width="0.00110"></path>
<path d="M1.311 0.935 Q1.248 0.380 0.151 0.289" stroke="hsl(0.0,100%,35%)" stroke-width="0.00329"></path>
<path d="M0.592 0.345 Q0.416 0.229 0.151 0.289" stroke="hsl(0.0,100%,35%)" stroke-width="0.00986"></path>
<path d="M0.592 0.345 Q0.604 0.768 1.431 0.855" stroke="hsl(0.0,100%,35%)" stroke-width="0.00219"></path>
<path d="M0.592 0.345 Q0.479 0.784 1.311 0.935" stroke="hsl(0.0,100%,35%)" stroke-width="0.00548"></path>
<path d="M0.592 0.345 Q0.392 0.455 0.563 0.576" stroke="hsl(0.0,100%,35%)" stroke-width="0.00438"></path>
<path d="M0.592 0.345 Q0.446 0.298 0.323 0.359" stroke="hsl(0.0,100%,35%)" stroke-width="0.00110"></path>
<path d="M0.592 0.345 Q1.106 0.449 1.421 0.221" stroke="hsl(0.0,100%,35%)" stroke-width="0.00110"></path>
<path d="M0.592 0.345 Q0.908 0.623 1.521 0.530" stroke="hsl(0.0,100%,35%)" stroke-width="0.00110"></path>
<path d="M1.512 0.712 Q1.275 0.672 1.145 0.780" stroke="hsl(180.0,100%,35%)" stroke-width="0.00438"></path>
<path d="M1.512 0.712 Q1.222 0.578 0.898 0.691" stroke="hsl(180.0,100%,35%)" stroke-width="0.00877"></path>
<path d="M1.512 0.712 Q1.661 0.623 1.521 0.530" stroke="hsl(180.0,100%,35%)" stroke-width="0.01096"></path>
<path d="M1.512 0.712 Q1.740 0.360 1.104 0.172" stroke="hsl(180.0,100%,35%)" stroke-width="0.00219"></path>
<path d="M1.512 0.712 Q0.884 0.410 0.159 0.651" stroke="hsl(180.0,100%,35%)" stroke-width="0.00219"></path>
<path d="M1.512 0.712 Q1.039 0.662 0.838 0.882" stroke="hsl(180.0,100%,35%)" stroke-width="0.00110"></path>
<path d="M1.512 0.712 Q1.958 0.610 1.857 0.370" stroke="hsl(180.0,100%,35%)" stroke-width="0.00219"></path>
<path d="M1.512 0.712 Q1.372 0.469 0.868 0.485" stroke="hsl(180.0,100%,35%)" stroke-width="0.00110"></path>
<path d="M1.145 0.780 Q1.093 0.686 0.898 0.691" stroke="hsl(180.0,100%,35%)" stroke-width="0.04165"></path>
<path d="M1.145 0.780 Q1.383 0.819 1.512 0.712" stroke="hsl(180.0,100%,35%)" stroke-width="0.00767"></path>
<path d="M1.145 0.780 Q0.910 0.769 0.838 0.882" stroke="hsl(180.0,100%,35%)" stroke-width="0.00329"></path>
<path d="M1.145 0.780 Q1.287 0.704 1.171 0.618" stroke="hsl(180.0,100%,35%)" stroke-width="0.00110"></path>
<path d="M1.145 0.780 Q1.611 0.467 1.104 0.172" stroke="hsl(180.0,100%,35%)" stroke-width="0.00110"></path>
<path d="M1.145 0.780 Q1.694 0.397 1.067 0.045" stroke="hsl(180.0,100%,35%)" stroke-width="0.00110"></path>
<path d="M1.145 0.780 Q1.041 0.335 0.151 0.289" stroke="hsl(180.0,100%,35%)" stroke-width="0.00110"></path>
<path d="M1.145 0.780 Q1.242 0.577 0.868 0.485" stroke="hsl(180.0,100%,35%)" stroke-width="0.00219"></path>
<path d="M0.898 0.691 Q1.188 0.824 1.512 0.712" stroke="hsl(180.0,100%,35%)" stroke-width="0.01754"></path>
<path d="M0.898 0.691 Q0.950 0.785 1.145 0.780" stroke="hsl(180.0,100%,35%)" stroke-width="0.03726"></path>
<path d="M0.898 0.691 Q1.499 0.402 1.067 0.045" stroke="hsl(180.0,100%,35%)" stroke-width="0.00329"></path>
<path d="M0.898 0.691 Q1.047 0.582 0.868 0.485" stroke="hsl(180.0,100%,35%)" stroke-width="0.00110"></path>
<path d="M0.898 0.691 Q1.337 0.735 1.521 0.530" stroke="hsl(180.0,100%,35%)" stroke-width="0.00110"></path>
<path d="M1.521 0.530 Q1.817 0.517 1.857 0.370" stroke="hsl(180.0,100%,35%)" stroke-width="0.00767"></path>
<path d="M1.521 0.530 Q1.372 0.619 1.512 0.712" stroke="hsl(180.0,100%,35%)" stroke-width="0.00548"></path>
<path d="M1.521 0.530 Q1.276 0.504 1.171 0.618" stroke="hsl(180.0,100%,35%)" stroke-width="0.00438"></path>
<path d="M1.521 0.530 Q1.599 0.268 1.104 0.172" stroke="hsl(180.0,100%,35%)" stroke-width="0.00438"></path>
<path d="M1.521 0.530 Q1.505 0.336 1.122 0.300" stroke="hsl(180.0,100%,35%)" stroke-width="0.00110"></path>
<path d="M1.104 0.172 Q1.025 0.435 1.521 0.530" stroke="hsl(180.0,100%,35%)" stroke-width="0.00658"></path>
<path d="M1.104 0.172 Q1.187 0.101 1.067 0.045" stroke="hsl(180.0,100%,35%)" stroke-width="0.00986"></path>
<path d="M1.104 0.172 Q1.010 0.240 1.122 0.300" stroke="hsl(180.0,100%,35%)" stroke-width="0.00767"></path>
<path d="M1.104 0.172 Q0.885 0.240 0.970 0.362" stroke="hsl(180.0,100%,35%)" stroke-width="0.00986"></path>
<path d="M1.104 0.172 Q0.821 0.255 0.921 0.411" stroke="hsl(180.0,100%,35%)" stroke-width="0.00110"></path>
<path d="M1.104 0.172 Q1.322 0.422 1.857 0.370" stroke="hsl(180.0,100%,35%)" stroke-width="0.00110"></path>
<path d="M1.104 0.172 Q1.153 0.261 1.337 0.256" stroke="hsl(180.0,100%,35%)" stroke-width="0.00110"></path>
<path d="M1.104 0.172 Q0.781 0.408 1.171 0.618" stroke="hsl(180.0,100%,35%)" stroke-width="0.00110"></path>
<path d="M1.104 0.172 Q0.877 0.524 1.512 0.712" stroke="hsl(180.0,100%,35%)" stroke-width="0.00110"></path>
<path d="M1.104 0.172 Q0.710 0.156 0.592 0.345" stroke="hsl(180.0,100%,35%)" stroke-width="0.00110"></path>
<path d="M1.104 0.172 Q1.223 0.260 1.421 0.221" stroke="hsl(180.0,100%,35%)" stroke-width="0.00110"></path>
<path d="M0.838 0.882 Q1.021 0.798 0.898 0.691" stroke="hsl(180.0,100%,35%)" stroke-width="0.02082"></path>
<path d="M0.838 0.882 Q1.622 0.509 1.067 0.045" stroke="hsl(180.0,100%,35%)" stroke-width="0.00110"></path>
<path d="M0.838 0.882 Q0.833 0.731 0.537 0.700" stroke="hsl(180.0,100%,35%)" stroke-width="0.00110"></path>
<path d="M0.838 0.882 Q1.757 0.830 1.857 0.370" stroke="hsl(180.0,100%,35%)" stroke-width="0.00438"></path>
<path d="M0.838 0.882 Q1.312 0.932 1.512 0.712" stroke="hsl(180.0,100%,35%)" stroke-width="0.00219"></path>
<path d="M0.838 0.882 Q1.074 0.892 1.145 0.780" stroke="hsl(180.0,100%,35%)" stroke-width="0.01315"></path>
<path d="M1.857 0.370 Q1.121 0.338 0.898 0.691" stroke="hsl(180.0,100%,35%)" stroke-width="0.00219"></path>
<path d="M1.857 0.370 Q0.933 0.271 0.537 0.700" stroke="hsl(180.0,100%,35%)" stroke-width="0.00110"></path>
<path d="M1.857 0.370 Q1.560 0.383 1.521 0.530" stroke="hsl(180.0,100%,35%)" stroke-width="0.00110"></path>
<path d="M1.857 0.370 Q1.481 0.316 1.294 0.488" stroke="hsl(180.0,100%,35%)" stroke-width="0.00110"></path>
<path d="M0.868 0.485 Q0.718 0.594 0.898 0.691" stroke="hsl(180.0,100%,35%)" stroke-width="0.02082"></path>
<path d="M0.868 0.485 Q0.912 0.612 1.171 0.618" stroke="hsl(180.0,100%,35%)" stroke-width="0.00110"></path>
<path d="M0.868 0.485 Q0.771 0.688 1.145 0.780" stroke="hsl(180.0,100%,35%)" stroke-width="0.00438"></path>
<path d="M0.868 0.485 Q1.008 0.727 1.512 0.712" stroke="hsl(180.0,100%,35%)" stroke-width="0.00219"></path>
<path d="M0.868 0.485 Q0.535 0.677 0.838 0.882" stroke="hsl(180.0,100%,35%)" stroke-width="0.00110"></path>
<path d="M0.080 0.500 Q0.285 0.409 0.151 0.289" stroke="hsl(0.0,100%,35%)" stroke-width="0.00438"></path>
<path d="M0.080 0.500 Q0.315 0.478 0.323 0.359" stroke="hsl(0.0,100%,35%)" stroke-width="0.00110"></path>
<path d="M0.080 0.500 Q0.261 0.635 0.563 0.576" stroke="hsl(0.0,100%,35%)" stroke-width="0.00110"></path>
<path d="M0.563 0.576 Q0.650 0.905 1.311 0.935" stroke="hsl(0.0,100%,35%)" stroke-width="0.00767"></path>
<path d="M0.563 0.576 Q0.763 0.467 0.592 0.345" stroke="hsl(0.0,100%,35%)" stroke-width="0.03288"></path>
<path d="M0.563 0.576 Q0.587 0.350 0.151 0.289" stroke="hsl(0.0,100%,35%)" stroke-width="0.00767"></path>
<path d="M0.563 0.576 Q0.774 0.889 1.431 0.855" stroke="hsl(0.0,100%,35%)" stroke-width="0.00219"></path>
<path d="M0.563 0.576 Q1.157 0.482 1.104 0.172" stroke="hsl(0.0,100%,35%)" stroke-width="0.00110"></path>
<path d="M1.067 0.045 Q0.283 0.418 0.838 0.882" stroke="hsl(180.0,100%,35%)" stroke-width="0.00110"></path>
<path d="M1.067 0.045 Q0.984 0.116 1.104 0.172" stroke="hsl(180.0,100%,35%)" stroke-width="0.00877"></path>
<path d="M1.067 0.045 Q0.519 0.428 1.145 0.780" stroke="hsl(180.0,100%,35%)" stroke-width="0.00110"></path>
<path d="M1.067 0.045 Q1.103 0.204 1.421 0.221" stroke="hsl(180.0,100%,35%)" stroke-width="0.00219"></path>
<path d="M1.067 0.045 Q0.660 0.352 1.171 0.618" stroke="hsl(180.0,100%,35%)" stroke-width="0.00438"></path>
<path d="M1.171 0.618 Q0.976 0.600 0.898 0.691" stroke="hsl(180.0,100%,35%)" stroke-width="0.00110"></path>
<path d="M1.171 0.618 Q1.416 0.644 1.521 0.530" stroke="hsl(180.0,100%,35%)" stroke-width="0.00219"></path>
<path d="M1.171 0.618 Q1.577 0.311 1.067 0.045" stroke="hsl(180.0,100%,35%)" stroke-width="0.00329"></path>
<path d="M1.171 0.618 Q1.211 0.465 0.921 0.411" stroke="hsl(180.0,100%,35%)" stroke-width="0.00110"></path>
<path d="M1.171 0.618 Q1.336 0.577 1.294 0.488" stroke="hsl(180.0,100%,35%)" stroke-width="0.00219"></path>
<path d="M1.171 0.618 Q1.712 0.631 1.857 0.370" stroke="hsl(180.0,100%,35%)" stroke-width="0.00110"></path>
<path d="M0.643 0.439 Q0.692 0.382 0.592 0.345" stroke="hsl(0.0,100%,35%)" stroke-width="0.00110"></path>
<path d="M0.643 0.439 Q0.492 0.492 0.563 0.576" stroke="hsl(0.0,100%,35%)" stroke-width="0.00110"></path>
<path d="M0.643 0.439 Q0.517 0.266 0.151 0.289" stroke="hsl(0.0,100%,35%)" stroke-width="0.00110"></path>
<path d="M0.430 0.856 Q0.609 0.799 0.537 0.700" stroke="hsl(180.0,100%,35%)" stroke-width="0.00219"></path>
<path d="M0.430 0.856 Q0.614 0.951 0.838 0.882" stroke="hsl(180.0,100%,35%)" stroke-width="0.00219"></path>
<path d="M0.430 0.856 Q0.796 0.867 0.898 0.691" stroke="hsl(180.0,100%,35%)" stroke-width="0.00438"></path>
<path d="M0.430 0.856 Q1.532 0.898 1.857 0.370" stroke="hsl(180.0,100%,35%)" stroke-width="0.00438"></path>
<path d="M0.537 0.700 Q1.243 0.549 1.104 0.172" stroke="hsl(180.0,100%,35%)" stroke-width="0.00110"></path>
<path d="M0.537 0.700 Q0.387 0.600 0.159 0.651" stroke="hsl(180.0,100%,35%)" stroke-width="0.00110"></path>
<path d="M0.537 0.700 Q0.542 0.851 0.838 0.882" stroke="hsl(180.0,100%,35%)" stroke-width="0.00110"></path>
<path d="M0.537 0.700 Q1.024 0.617 0.970 0.362" stroke="hsl(180.0,100%,35%)" stroke-width="0.00110"></path>
<path d="M0.537 0.700 Q0.673 0.417 0.151 0.289" stroke="hsl(180.0,100%,35%)" stroke-width="0.00110"></path>
<path d="M0.537 0.700 Q1.085 0.745 1.294 0.488" stroke="hsl(180.0,100%,35%)" stroke-width="0.00110"></path>
<path d="M0.537 0.700 Q1.461 0.799 1.857 0.370" stroke="hsl(180.0,100%,35%)" stroke-width="0.00110"></path>
<path d="M1.338 0.188 Q0.664 0.001 0.151 0.289" stroke="hsl(180.0,100%,35%)" stroke-width="0.00219"></path>
<path d="M1.338 0.188 Q1.317 0.063 1.067 0.045" stroke="hsl(180.0,100%,35%)" stroke-width="0.00219"></path>
<path d="M1.338 0.188 Q0.840 0.118 0.592 0.345" stroke="hsl(180.0,100%,35%)" stroke-width="0.00110"></path>
<path d="M1.338 0.188 Q0.951 0.216 0.921 0.411" stroke="hsl(180.0,100%,35%)" stroke-width="0.00110"></path>
<path d="M1.094 0.501 Q1.406 0.510 1.493 0.360" stroke="hsl(180.0,100%,35%)" stroke-width="0.00548"></path>
<path d="M1.094 0.501 Q0.661 0.640 0.838 0.882" stroke="hsl(180.0,100%,35%)" stroke-width="0.00329"></path>
<path d="M1.094 0.501 Q1.143 0.407 0.970 0.362" stroke="hsl(180.0,100%,35%)" stroke-width="0.00219"></path>
<path d="M1.094 0.501 Q1.362 0.338 1.104 0.172" stroke="hsl(180.0,100%,35%)" stroke-width="0.00110"></path>
</g>
<text x="1.431" y="0.839" font-size="0.032604" fill="hsl(0.0,100%,20%)">aixba</text>
<text x="0.151" y="0.259" font-size="0.061157" fill="hsl(0.0,100%,20%)">jacktfranklin</text>
<text x="1.311" y="0.915" font-size="0.040177" fill="hsl(0.0,100%,20%)">asraine</text>
<text x="0.592" y="0.318" font-size="0.053241" fill="hsl(0.0,100%,20%)">paulirish</text>
<text x="1.512" y="0.686" font-size="0.050196" fill="hsl(180.0,100%,20%)">alexrudenko</text>
<text x="1.145" y="0.747" font-size="0.065808" fill="hsl(180.0,100%,20%)">nvitkov</text>
<text x="0.898" y="0.653" font-size="0.076075" fill="hsl(180.0,100%,20%)">ergunsh</text>
<text x="1.521" y="0.509" font-size="0.042091" fill="hsl(180.0,100%,20%)">szuend</text>
<text x="1.104" y="0.149" font-size="0.046954" fill="hsl(180.0,100%,20%)">bmeurer</text>
<text x="0.159" y="0.645" font-size="0.010868" fill="hsl(180.0,100%,20%)">mathias</text>
<text x="0.838" y="0.859" font-size="0.045246" fill="hsl(180.0,100%,20%)">wolfi</text>
<text x="1.857" y="0.354" font-size="0.032604" fill="hsl(180.0,100%,20%)">pfaffe</text>
<text x="0.868" y="0.467" font-size="0.034935" fill="hsl(180.0,100%,20%)">samiyac</text>
<text x="0.080" y="0.488" font-size="0.024301" fill="hsl(0.0,100%,20%)">andoli</text>
<text x="0.323" y="0.347" font-size="0.025098" fill="hsl(0.0,100%,20%)">nancyly</text>
<text x="0.563" y="0.553" font-size="0.046533" fill="hsl(0.0,100%,20%)">cjamcl</text>
<text x="1.067" y="0.026" font-size="0.037121" fill="hsl(180.0,100%,20%)">kprokopenko</text>
<text x="1.122" y="0.292" font-size="0.017747" fill="hsl(180.0,100%,20%)">yangguo</text>
<text x="0.970" y="0.351" font-size="0.021736" fill="hsl(180.0,100%,20%)">dsv</text>
<text x="0.921" y="0.406" font-size="0.010868" fill="hsl(180.0,100%,20%)">petermueller</text>
<text x="1.337" y="0.253" font-size="0.006275" fill="hsl(180.0,100%,20%)">victorporof</text>
<text x="1.171" y="0.604" font-size="0.028754" fill="hsl(180.0,100%,20%)">kimanh</text>
<text x="1.421" y="0.215" font-size="0.012549" fill="hsl(180.0,100%,20%)">semel</text>
<text x="0.643" y="0.433" font-size="0.010868" fill="hsl(0.0,100%,20%)">gux</text>
<text x="0.430" y="0.845" font-size="0.021736" fill="hsl(180.0,100%,20%)">ionutvoicila</text>
<text x="0.537" y="0.689" font-size="0.020810" fill="hsl(180.0,100%,20%)">leese</text>
<text x="0.382" y="0.112" font-size="0.030739" fill="hsl(0.0,100%,20%)">alinavarkki</text>
<text x="1.338" y="0.181" font-size="0.015369" fill="hsl(180.0,100%,20%)">jaysonchen</text>
<text x="1.294" y="0.481" font-size="0.012549" fill="hsl(180.0,100%,20%)">changhaohan</text>
<text x="1.094" y="0.490" font-size="0.020810" fill="hsl(180.0,100%,20%)">masnoble</text>
<text x="1.493" y="0.353" font-size="0.014030" fill="hsl(180.0,100%,20%)">shuuran</text>
</svg>
