<svg width="4000" height="2000" viewBox="-0.025 -0.025 2.05 1.05" xmlns="http://www.w3.org/2000/svg">
  <style>
    path {
      fill: none;
      stroke-linecap: round;
      stroke-opacity: 0.4;
    }

    text {
      text-anchor: middle;
      alignment-baseline: hanging;
    }
  </style>
  <g opacity="0.4">
<path d="M1.391 0.692 Q1.303 0.538 0.984 0.547" stroke="hsl(0.0,100%,35%)" stroke-width="0.01495"></path>
<path d="M1.391 0.692 Q1.513 0.798 1.746 0.762" stroke="hsl(0.0,100%,35%)" stroke-width="0.01495"></path>
<path d="M1.391 0.692 Q1.315 0.749 1.409 0.798" stroke="hsl(0.0,100%,35%)" stroke-width="0.01495"></path>
<path d="M0.776 0.246 Q0.124 0.428 0.337 0.786" stroke="hsl(90.0,100%,35%)" stroke-width="0.01495"></path>
<path d="M0.776 0.246 Q0.642 0.272 0.665 0.344" stroke="hsl(90.0,100%,35%)" stroke-width="0.01495"></path>
<path d="M0.776 0.246 Q0.661 0.174 0.496 0.215" stroke="hsl(90.0,100%,35%)" stroke-width="0.01495"></path>
<path d="M0.337 0.786 Q1.017 0.812 1.217 0.486" stroke="hsl(90.0,100%,35%)" stroke-width="0.01495"></path>
<path d="M0.337 0.786 Q0.492 0.789 0.532 0.714" stroke="hsl(90.0,100%,35%)" stroke-width="0.01495"></path>
<path d="M0.337 0.786 Q0.153 0.795 0.129 0.887" stroke="hsl(90.0,100%,35%)" stroke-width="0.02990"></path>
<path d="M1.217 0.486 Q1.051 0.470 0.984 0.547" stroke="hsl(90.0,100%,35%)" stroke-width="0.01495"></path>
<path d="M1.217 0.486 Q1.111 0.521 1.157 0.580" stroke="hsl(90.0,100%,35%)" stroke-width="0.01495"></path>
<path d="M1.217 0.486 Q1.264 0.398 1.102 0.356" stroke="hsl(90.0,100%,35%)" stroke-width="0.01495"></path>
<path d="M1.217 0.486 Q1.321 0.486 1.343 0.435" stroke="hsl(90.0,100%,35%)" stroke-width="0.01495"></path>
<path d="M0.674 0.525 Q0.620 0.446 0.455 0.455" stroke="hsl(0.0,100%,35%)" stroke-width="0.01495"></path>
<path d="M0.674 0.525 Q0.877 0.518 0.908 0.418" stroke="hsl(0.0,100%,35%)" stroke-width="0.02990"></path>
<path d="M0.674 0.525 Q0.382 0.445 0.161 0.570" stroke="hsl(0.0,100%,35%)" stroke-width="0.01495"></path>
<path d="M0.674 0.525 Q0.596 0.579 0.685 0.629" stroke="hsl(0.0,100%,35%)" stroke-width="0.01495"></path>
<path d="M0.674 0.525 Q0.899 0.752 1.391 0.692" stroke="hsl(0.0,100%,35%)" stroke-width="0.01495"></path>
<path d="M0.674 0.525 Q0.488 0.510 0.419 0.598" stroke="hsl(0.0,100%,35%)" stroke-width="0.01495"></path>
<path d="M0.667 0.867 Q0.756 0.933 0.905 0.904" stroke="hsl(180.0,100%,35%)" stroke-width="0.01495"></path>
<path d="M0.667 0.867 Q1.483 0.837 1.605 0.433" stroke="hsl(180.0,100%,35%)" stroke-width="0.01495"></path>
<path d="M0.667 0.867 Q0.509 0.848 0.437 0.920" stroke="hsl(180.0,100%,35%)" stroke-width="0.01495"></path>
<path d="M0.667 0.867 Q1.647 0.708 1.553 0.195" stroke="hsl(180.0,100%,35%)" stroke-width="0.01495"></path>
<path d="M1.605 0.433 Q0.878 0.529 0.905 0.904" stroke="hsl(180.0,100%,35%)" stroke-width="0.01495"></path>
<path d="M1.605 0.433 Q0.631 0.443 0.437 0.920" stroke="hsl(180.0,100%,35%)" stroke-width="0.01495"></path>
<path d="M1.605 0.433 Q1.769 0.303 1.553 0.195" stroke="hsl(180.0,100%,35%)" stroke-width="0.01495"></path>
<path d="M1.148 0.276 Q1.195 0.183 1.025 0.140" stroke="hsl(270.0,100%,35%)" stroke-width="0.01495"></path>
<path d="M1.148 0.276 Q1.376 0.227 1.331 0.105" stroke="hsl(270.0,100%,35%)" stroke-width="0.01495"></path>
<path d="M1.148 0.276 Q1.221 0.136 0.964 0.070" stroke="hsl(270.0,100%,35%)" stroke-width="0.01495"></path>
<path d="M1.382 0.306 Q1.332 0.344 1.395 0.376" stroke="hsl(180.0,100%,35%)" stroke-width="0.01495"></path>
<path d="M1.382 0.306 Q1.444 0.214 1.279 0.164" stroke="hsl(180.0,100%,35%)" stroke-width="0.01495"></path>
<path d="M1.382 0.306 Q1.392 0.414 1.605 0.433" stroke="hsl(180.0,100%,35%)" stroke-width="0.01495"></path>
<path d="M1.907 0.226 Q1.590 0.269 1.605 0.433" stroke="hsl(180.0,100%,35%)" stroke-width="0.02990"></path>
<path d="M1.907 0.226 Q1.755 0.140 1.553 0.195" stroke="hsl(180.0,100%,35%)" stroke-width="0.01495"></path>
<path d="M1.907 0.226 Q0.863 0.365 0.905 0.904" stroke="hsl(180.0,100%,35%)" stroke-width="0.01495"></path>
<path d="M1.907 0.226 Q1.711 0.343 1.896 0.464" stroke="hsl(180.0,100%,35%)" stroke-width="0.01495"></path>
</g>
<text x="1.391" y="0.670" font-size="0.045291" fill="hsl(0.0,100%,20%)">beaufort.francois</text>
<text x="0.984" y="0.531" font-size="0.032026" fill="hsl(0.0,100%,20%)">arthursonzogni</text>
<text x="1.746" y="0.751" font-size="0.022646" fill="hsl(0.0,100%,20%)">mattreynolds</text>
<text x="1.409" y="0.787" font-size="0.022646" fill="hsl(0.0,100%,20%)">yoavweiss</text>
<text x="0.776" y="0.226" font-size="0.039223" fill="hsl(90.0,100%,20%)">behamilton</text>
<text x="0.337" y="0.760" font-size="0.050637" fill="hsl(90.0,100%,20%)">dom</text>
<text x="0.665" y="0.332" font-size="0.022646" fill="hsl(90.0,100%,20%)">fmalita</text>
<text x="0.496" y="0.203" font-size="0.022646" fill="hsl(90.0,100%,20%)">morlovich</text>
<text x="1.217" y="0.461" font-size="0.050637" fill="hsl(90.0,100%,20%)">nrosenthal</text>
<text x="0.532" y="0.703" font-size="0.022646" fill="hsl(90.0,100%,20%)">japhet</text>
<text x="0.129" y="0.871" font-size="0.032026" fill="hsl(90.0,100%,20%)">masonf</text>
<text x="0.674" y="0.495" font-size="0.059914" fill="hsl(0.0,100%,20%)">jonathanjlee</text>
<text x="0.455" y="0.444" font-size="0.022646" fill="hsl(0.0,100%,20%)">finnur</text>
<text x="0.908" y="0.402" font-size="0.032026" fill="hsl(0.0,100%,20%)">mstensho</text>
<text x="0.161" y="0.558" font-size="0.022646" fill="hsl(0.0,100%,20%)">arichiv</text>
<text x="0.685" y="0.618" font-size="0.022646" fill="hsl(0.0,100%,20%)">chengweih</text>
<text x="0.419" y="0.586" font-size="0.022646" fill="hsl(0.0,100%,20%)">pdr</text>
<text x="0.667" y="0.844" font-size="0.045291" fill="hsl(180.0,100%,20%)">mingming1.xu</text>
<text x="0.905" y="0.885" font-size="0.039223" fill="hsl(180.0,100%,20%)">ajgo</text>
<text x="1.605" y="0.403" font-size="0.059914" fill="hsl(180.0,100%,20%)">ningxin.hu</text>
<text x="0.437" y="0.904" font-size="0.032026" fill="hsl(180.0,100%,20%)">rafael.cintron</text>
<text x="1.553" y="0.175" font-size="0.039223" fill="hsl(180.0,100%,20%)">weizhong</text>
<text x="1.157" y="0.569" font-size="0.022646" fill="hsl(90.0,100%,20%)">haraken</text>
<text x="1.102" y="0.345" font-size="0.022646" fill="hsl(90.0,100%,20%)">khushalsagar</text>
<text x="1.343" y="0.424" font-size="0.022646" fill="hsl(90.0,100%,20%)">vmpstr</text>
<text x="1.148" y="0.256" font-size="0.039223" fill="hsl(270.0,100%,20%)">pkotwicz</text>
<text x="1.025" y="0.129" font-size="0.022646" fill="hsl(270.0,100%,20%)">kenrb</text>
<text x="1.331" y="0.093" font-size="0.022646" fill="hsl(270.0,100%,20%)">nsatragno</text>
<text x="0.964" y="0.059" font-size="0.022646" fill="hsl(270.0,100%,20%)">cbiesinger</text>
<text x="1.382" y="0.286" font-size="0.039223" fill="hsl(180.0,100%,20%)">shanxing.mei</text>
<text x="1.395" y="0.365" font-size="0.022646" fill="hsl(180.0,100%,20%)">asully</text>
<text x="1.279" y="0.152" font-size="0.022646" fill="hsl(180.0,100%,20%)">dbaron</text>
<text x="1.907" y="0.201" font-size="0.050637" fill="hsl(180.0,100%,20%)">shiyi.zou</text>
<text x="1.896" y="0.453" font-size="0.022646" fill="hsl(180.0,100%,20%)">kojii</text>
</svg>
