<svg width="4000" height="2000" viewBox="-0.025 -0.025 2.05 1.05" xmlns="http://www.w3.org/2000/svg">
  <style>
    path {
      fill: none;
      stroke-linecap: round;
      stroke-opacity: 0.4;
    }

    text {
      text-anchor: middle;
      alignment-baseline: hanging;
    }
  </style>
  <g opacity="0.4">
<path d="M0.249 0.936 Q0.433 0.857 0.319 0.751" stroke="hsl(0.0,100%,35%)" stroke-width="0.01641"></path>
<path d="M0.249 0.936 Q0.304 0.876 0.197 0.835" stroke="hsl(0.0,100%,35%)" stroke-width="0.01641"></path>
<path d="M0.249 0.936 Q0.444 0.950 0.513 0.858" stroke="hsl(0.0,100%,35%)" stroke-width="0.01641"></path>
<path d="M0.955 0.362 Q0.533 0.438 0.589 0.661" stroke="hsl(90.0,100%,35%)" stroke-width="0.01641"></path>
<path d="M0.955 0.362 Q0.622 0.353 0.531 0.513" stroke="hsl(90.0,100%,35%)" stroke-width="0.01641"></path>
<path d="M0.955 0.362 Q1.003 0.434 1.154 0.426" stroke="hsl(90.0,100%,35%)" stroke-width="0.01641"></path>
<path d="M0.589 0.661 Q0.352 0.823 0.616 0.974" stroke="hsl(90.0,100%,35%)" stroke-width="0.01641"></path>
<path d="M0.589 0.661 Q0.719 0.721 0.865 0.672" stroke="hsl(90.0,100%,35%)" stroke-width="0.01641"></path>
<path d="M0.589 0.661 Q0.488 0.559 0.267 0.587" stroke="hsl(90.0,100%,35%)" stroke-width="0.03283"></path>
<path d="M0.616 0.974 Q0.646 0.803 0.319 0.751" stroke="hsl(90.0,100%,35%)" stroke-width="0.01641"></path>
<path d="M0.616 0.974 Q0.811 0.934 0.776 0.830" stroke="hsl(90.0,100%,35%)" stroke-width="0.01641"></path>
<path d="M0.616 0.974 Q0.695 0.874 0.518 0.813" stroke="hsl(90.0,100%,35%)" stroke-width="0.01641"></path>
<path d="M0.616 0.974 Q0.728 1.028 0.858 0.985" stroke="hsl(90.0,100%,35%)" stroke-width="0.01641"></path>
<path d="M1.410 0.329 Q1.638 0.285 1.602 0.164" stroke="hsl(0.0,100%,35%)" stroke-width="0.01641"></path>
<path d="M1.410 0.329 Q1.456 0.443 1.687 0.445" stroke="hsl(0.0,100%,35%)" stroke-width="0.03283"></path>
<path d="M1.410 0.329 Q1.605 0.204 1.402 0.081" stroke="hsl(0.0,100%,35%)" stroke-width="0.01641"></path>
<path d="M1.410 0.329 Q1.317 0.242 1.126 0.268" stroke="hsl(0.0,100%,35%)" stroke-width="0.01641"></path>
<path d="M1.410 0.329 Q0.344 0.401 0.249 0.936" stroke="hsl(0.0,100%,35%)" stroke-width="0.01641"></path>
<path d="M1.410 0.329 Q1.282 0.399 1.389 0.477" stroke="hsl(0.0,100%,35%)" stroke-width="0.01641"></path>
<path d="M0.393 0.397 Q0.509 0.479 0.694 0.441" stroke="hsl(180.0,100%,35%)" stroke-width="0.01641"></path>
<path d="M0.393 0.397 Q0.343 0.449 0.432 0.485" stroke="hsl(180.0,100%,35%)" stroke-width="0.01641"></path>
<path d="M0.393 0.397 Q0.570 0.420 0.652 0.338" stroke="hsl(180.0,100%,35%)" stroke-width="0.01641"></path>
<path d="M1.928 0.634 Q1.480 0.561 1.238 0.764" stroke="hsl(270.0,100%,35%)" stroke-width="0.01641"></path>
<path d="M1.928 0.634 Q2.037 0.541 1.877 0.467" stroke="hsl(270.0,100%,35%)" stroke-width="0.01641"></path>
<path d="M1.928 0.634 Q1.630 0.610 1.517 0.750" stroke="hsl(270.0,100%,35%)" stroke-width="0.01641"></path>
<path d="M0.569 0.222 Q0.675 0.290 0.831 0.253" stroke="hsl(180.0,100%,35%)" stroke-width="0.01641"></path>
<path d="M0.569 0.222 Q0.842 0.220 0.898 0.086" stroke="hsl(180.0,100%,35%)" stroke-width="0.01641"></path>
<path d="M0.569 0.222 Q0.341 0.274 0.393 0.397" stroke="hsl(180.0,100%,35%)" stroke-width="0.01641"></path>
<path d="M0.930 0.512 Q0.754 0.348 0.393 0.397" stroke="hsl(180.0,100%,35%)" stroke-width="0.03283"></path>
<path d="M0.930 0.512 Q0.930 0.370 0.652 0.338" stroke="hsl(180.0,100%,35%)" stroke-width="0.01641"></path>
<path d="M0.930 0.512 Q0.869 0.429 0.694 0.441" stroke="hsl(180.0,100%,35%)" stroke-width="0.01641"></path>
<path d="M0.930 0.512 Q0.885 0.627 1.099 0.675" stroke="hsl(180.0,100%,35%)" stroke-width="0.01641"></path>
</g>
<text x="0.249" y="0.913" font-size="0.047809" fill="hsl(0.0,100%,20%)">beaufort.francois</text>
<text x="0.319" y="0.734" font-size="0.033806" fill="hsl(0.0,100%,20%)">arthursonzogni</text>
<text x="0.197" y="0.823" font-size="0.023905" fill="hsl(0.0,100%,20%)">mattreynolds</text>
<text x="0.513" y="0.846" font-size="0.023905" fill="hsl(0.0,100%,20%)">yoavweiss</text>
<text x="0.955" y="0.341" font-size="0.041404" fill="hsl(90.0,100%,20%)">behamilton</text>
<text x="0.589" y="0.634" font-size="0.053452" fill="hsl(90.0,100%,20%)">dom</text>
<text x="0.531" y="0.501" font-size="0.023905" fill="hsl(90.0,100%,20%)">fmalita</text>
<text x="1.154" y="0.414" font-size="0.023905" fill="hsl(90.0,100%,20%)">morlovich</text>
<text x="0.616" y="0.947" font-size="0.053452" fill="hsl(90.0,100%,20%)">nrosenthal</text>
<text x="0.865" y="0.660" font-size="0.023905" fill="hsl(90.0,100%,20%)">japhet</text>
<text x="0.267" y="0.570" font-size="0.033806" fill="hsl(90.0,100%,20%)">masonf</text>
<text x="1.410" y="0.298" font-size="0.063246" fill="hsl(0.0,100%,20%)">jonathanjlee</text>
<text x="1.602" y="0.152" font-size="0.023905" fill="hsl(0.0,100%,20%)">finnur</text>
<text x="1.687" y="0.428" font-size="0.033806" fill="hsl(0.0,100%,20%)">mstensho</text>
<text x="1.402" y="0.069" font-size="0.023905" fill="hsl(0.0,100%,20%)">arichiv</text>
<text x="1.126" y="0.256" font-size="0.023905" fill="hsl(0.0,100%,20%)">chengweih</text>
<text x="1.389" y="0.465" font-size="0.023905" fill="hsl(0.0,100%,20%)">pdr</text>
<text x="0.393" y="0.368" font-size="0.058554" fill="hsl(180.0,100%,20%)">ningxin.hu</text>
<text x="0.694" y="0.424" font-size="0.033806" fill="hsl(180.0,100%,20%)">ajgo</text>
<text x="0.432" y="0.473" font-size="0.023905" fill="hsl(180.0,100%,20%)">rafael.cintron</text>
<text x="0.652" y="0.322" font-size="0.033806" fill="hsl(180.0,100%,20%)">weizhong</text>
<text x="0.776" y="0.818" font-size="0.023905" fill="hsl(90.0,100%,20%)">haraken</text>
<text x="0.518" y="0.801" font-size="0.023905" fill="hsl(90.0,100%,20%)">khushalsagar</text>
<text x="0.858" y="0.973" font-size="0.023905" fill="hsl(90.0,100%,20%)">vmpstr</text>
<text x="1.928" y="0.614" font-size="0.041404" fill="hsl(270.0,100%,20%)">pkotwicz</text>
<text x="1.238" y="0.752" font-size="0.023905" fill="hsl(270.0,100%,20%)">kenrb</text>
<text x="1.877" y="0.455" font-size="0.023905" fill="hsl(270.0,100%,20%)">nsatragno</text>
<text x="1.517" y="0.738" font-size="0.023905" fill="hsl(270.0,100%,20%)">cbiesinger</text>
<text x="0.569" y="0.201" font-size="0.041404" fill="hsl(180.0,100%,20%)">shanxing.mei</text>
<text x="0.831" y="0.241" font-size="0.023905" fill="hsl(180.0,100%,20%)">asully</text>
<text x="0.898" y="0.074" font-size="0.023905" fill="hsl(180.0,100%,20%)">dbaron</text>
<text x="0.930" y="0.486" font-size="0.053452" fill="hsl(180.0,100%,20%)">shiyi.zou</text>
<text x="1.099" y="0.663" font-size="0.023905" fill="hsl(180.0,100%,20%)">kojii</text>
</svg>
