<svg width="4000" height="2000" viewBox="-0.025 -0.025 2.05 1.05" xmlns="http://www.w3.org/2000/svg">
  <style>
    path {
      fill: none;
      stroke-linecap: round;
      stroke-opacity: 0.4;
    }

    text {
      text-anchor: middle;
      alignment-baseline: hanging;
    }
  </style>
  <g opacity="0.4">
<path d="M1.478 0.479 Q1.080 0.356 0.752 0.523" stroke="hsl(0.0,100%,35%)" stroke-width="0.01176"></path>
<path d="M1.478 0.479 Q1.222 0.452 1.113 0.571" stroke="hsl(0.0,100%,35%)" stroke-width="0.00588"></path>
<path d="M1.478 0.479 Q1.504 0.608 1.762 0.624" stroke="hsl(0.0,100%,35%)" stroke-width="0.00588"></path>
<path d="M1.113 0.571 Q1.369 0.598 1.478 0.479" stroke="hsl(0.0,100%,35%)" stroke-width="0.00588"></path>
<path d="M1.113 0.571 Q0.670 0.445 0.327 0.634" stroke="hsl(0.0,100%,35%)" stroke-width="0.00588"></path>
<path d="M1.113 0.571 Q0.971 0.475 0.752 0.523" stroke="hsl(0.0,100%,35%)" stroke-width="0.00588"></path>
<path d="M1.762 0.624 Q1.736 0.495 1.478 0.479" stroke="hsl(0.0,100%,35%)" stroke-width="0.02353"></path>
<path d="M1.762 0.624 Q1.480 0.468 1.113 0.571" stroke="hsl(0.0,100%,35%)" stroke-width="0.00588"></path>
<path d="M1.762 0.624 Q1.338 0.371 0.752 0.523" stroke="hsl(0.0,100%,35%)" stroke-width="0.01176"></path>
<path d="M0.543 0.826 Q0.589 0.686 0.327 0.634" stroke="hsl(0.0,100%,35%)" stroke-width="0.03529"></path>
<path d="M0.543 0.826 Q0.421 0.788 0.321 0.840" stroke="hsl(0.0,100%,35%)" stroke-width="0.01176"></path>
<path d="M0.543 0.826 Q0.890 0.716 0.752 0.523" stroke="hsl(0.0,100%,35%)" stroke-width="0.01176"></path>
<path d="M0.543 0.826 Q1.288 0.839 1.478 0.479" stroke="hsl(0.0,100%,35%)" stroke-width="0.01176"></path>
<path d="M0.327 0.634 Q1.026 0.787 1.478 0.479" stroke="hsl(0.0,100%,35%)" stroke-width="0.02353"></path>
<path d="M0.327 0.634 Q0.159 0.736 0.321 0.840" stroke="hsl(0.0,100%,35%)" stroke-width="0.00588"></path>
<path d="M0.327 0.634 Q0.990 0.624 1.116 0.298" stroke="hsl(0.0,100%,35%)" stroke-width="0.00588"></path>
<path d="M0.327 0.634 Q0.770 0.760 1.113 0.571" stroke="hsl(0.0,100%,35%)" stroke-width="0.02941"></path>
<path d="M0.327 0.634 Q0.628 0.663 0.752 0.523" stroke="hsl(0.0,100%,35%)" stroke-width="0.03529"></path>
<path d="M0.327 0.634 Q1.053 0.916 1.762 0.624" stroke="hsl(0.0,100%,35%)" stroke-width="0.00588"></path>
<path d="M1.347 0.885 Q1.737 0.708 1.478 0.479" stroke="hsl(0.0,100%,35%)" stroke-width="0.02941"></path>
<path d="M1.347 0.885 Q1.481 0.681 1.113 0.571" stroke="hsl(0.0,100%,35%)" stroke-width="0.00588"></path>
<path d="M1.347 0.885 Q1.038 0.555 0.327 0.634" stroke="hsl(0.0,100%,35%)" stroke-width="0.00588"></path>
</g>
<text x="1.478" y="0.435" font-size="0.088561" fill="hsl(0.0,100%,20%)">brettw</text>
<text x="0.752" y="0.487" font-size="0.071401" fill="hsl(0.0,100%,20%)">scottmg</text>
<text x="1.113" y="0.538" font-size="0.065679" fill="hsl(0.0,100%,20%)">dpranke</text>
<text x="1.762" y="0.594" font-size="0.059409" fill="hsl(0.0,100%,20%)">thakis</text>
<text x="0.543" y="0.791" font-size="0.068599" fill="hsl(0.0,100%,20%)">digit</text>
<text x="0.327" y="0.583" font-size="0.100976" fill="hsl(0.0,100%,20%)">phosek</text>
<text x="0.321" y="0.823" font-size="0.034300" fill="hsl(0.0,100%,20%)">sdefresne</text>
<text x="1.116" y="0.288" font-size="0.019803" fill="hsl(0.0,100%,20%)">iannucci</text>
<text x="1.347" y="0.859" font-size="0.052394" fill="hsl(0.0,100%,20%)">rjascani</text>
</svg>
