<svg width="4000" height="2000" viewBox="-0.025 -0.025 2.05 1.05" xmlns="http://www.w3.org/2000/svg">
  <style>
    path {
      fill: none;
      stroke-linecap: round;
      stroke-opacity: 0.4;
    }

    text {
      text-anchor: middle;
      alignment-baseline: hanging;
    }
  </style>
  <g opacity="0.4">
<path d="M1.579 0.052 Q0.645 0.416 1.150 0.951" stroke="hsl(0.0,100%,35%)" stroke-width="0.00098"></path>
<path d="M1.579 0.052 Q0.386 0.171 0.357 0.779" stroke="hsl(0.0,100%,35%)" stroke-width="0.00490"></path>
<path d="M1.579 0.052 Q0.655 0.167 0.677 0.643" stroke="hsl(0.0,100%,35%)" stroke-width="0.00686"></path>
<path d="M1.579 0.052 Q1.500 0.003 1.387 0.030" stroke="hsl(0.0,100%,35%)" stroke-width="0.00098"></path>
<path d="M1.579 0.052 Q1.443 0.034 1.379 0.097" stroke="hsl(0.0,100%,35%)" stroke-width="0.00785"></path>
<path d="M1.579 0.052 Q0.878 0.173 0.962 0.542" stroke="hsl(0.0,100%,35%)" stroke-width="0.00098"></path>
<path d="M1.579 0.052 Q0.468 0.127 0.371 0.685" stroke="hsl(0.0,100%,35%)" stroke-width="0.00196"></path>
<path d="M1.579 0.052 Q0.802 -0.025 0.481 0.337" stroke="hsl(0.0,100%,35%)" stroke-width="0.00490"></path>
<path d="M1.579 0.052 Q1.384 0.091 1.417 0.195" stroke="hsl(0.0,100%,35%)" stroke-width="0.00098"></path>
<path d="M1.579 0.052 Q1.488 0.095 1.553 0.148" stroke="hsl(0.0,100%,35%)" stroke-width="0.00294"></path>
<path d="M1.150 0.951 Q1.160 0.703 0.677 0.643" stroke="hsl(0.0,100%,35%)" stroke-width="0.01079"></path>
<path d="M1.150 0.951 Q1.307 0.510 0.481 0.337" stroke="hsl(0.0,100%,35%)" stroke-width="0.00392"></path>
<path d="M1.150 0.951 Q1.321 0.953 1.363 0.870" stroke="hsl(0.0,100%,35%)" stroke-width="0.00196"></path>
<path d="M1.150 0.951 Q1.383 0.709 0.962 0.542" stroke="hsl(0.0,100%,35%)" stroke-width="0.00196"></path>
<path d="M1.150 0.951 Q1.863 0.810 1.743 0.431" stroke="hsl(0.0,100%,35%)" stroke-width="0.00098"></path>
<path d="M1.150 0.951 Q1.179 0.968 1.218 0.957" stroke="hsl(0.0,100%,35%)" stroke-width="0.00098"></path>
<path d="M1.150 0.951 Q0.973 0.663 0.371 0.685" stroke="hsl(0.0,100%,35%)" stroke-width="0.00196"></path>
<path d="M1.150 0.951 Q1.258 0.620 0.634 0.494" stroke="hsl(0.0,100%,35%)" stroke-width="0.00098"></path>
<path d="M1.150 0.951 Q1.539 0.668 1.072 0.415" stroke="hsl(0.0,100%,35%)" stroke-width="0.00098"></path>
<path d="M0.357 0.779 Q0.615 1.024 1.150 0.951" stroke="hsl(0.0,100%,35%)" stroke-width="0.00686"></path>
<path d="M0.357 0.779 Q0.849 0.781 0.962 0.542" stroke="hsl(0.0,100%,35%)" stroke-width="0.00490"></path>
<path d="M0.357 0.779 Q0.626 0.775 0.677 0.643" stroke="hsl(0.0,100%,35%)" stroke-width="0.01569"></path>
<path d="M0.357 0.779 Q0.772 0.582 0.481 0.337" stroke="hsl(0.0,100%,35%)" stroke-width="0.01373"></path>
<path d="M0.357 0.779 Q0.439 0.735 0.371 0.685" stroke="hsl(0.0,100%,35%)" stroke-width="0.01275"></path>
<path d="M0.357 0.779 Q0.723 0.692 0.634 0.494" stroke="hsl(0.0,100%,35%)" stroke-width="0.00098"></path>
<path d="M0.357 0.779 Q0.254 0.702 0.082 0.736" stroke="hsl(0.0,100%,35%)" stroke-width="0.00196"></path>
<path d="M0.677 0.643 Q0.409 0.647 0.357 0.779" stroke="hsl(0.0,100%,35%)" stroke-width="0.00686"></path>
<path d="M0.677 0.643 Q0.824 0.451 0.481 0.337" stroke="hsl(0.0,100%,35%)" stroke-width="0.00392"></path>
<path d="M0.677 0.643 Q1.057 0.608 1.072 0.415" stroke="hsl(0.0,100%,35%)" stroke-width="0.00392"></path>
<path d="M0.677 0.643 Q0.491 0.603 0.371 0.685" stroke="hsl(0.0,100%,35%)" stroke-width="0.00196"></path>
<path d="M0.677 0.643 Q0.667 0.892 1.150 0.951" stroke="hsl(0.0,100%,35%)" stroke-width="0.00981"></path>
<path d="M0.677 0.643 Q0.775 0.560 0.634 0.494" stroke="hsl(0.0,100%,35%)" stroke-width="0.01765"></path>
<path d="M0.677 0.643 Q0.900 0.649 0.962 0.542" stroke="hsl(0.0,100%,35%)" stroke-width="0.00098"></path>
<path d="M0.677 0.643 Q0.903 0.935 1.523 0.890" stroke="hsl(0.0,100%,35%)" stroke-width="0.00098"></path>
<path d="M0.677 0.643 Q0.762 0.738 0.967 0.718" stroke="hsl(0.0,100%,35%)" stroke-width="0.00294"></path>
<path d="M0.677 0.643 Q1.124 0.507 0.957 0.259" stroke="hsl(0.0,100%,35%)" stroke-width="0.00098"></path>
<path d="M0.677 0.643 Q0.795 0.335 0.220 0.210" stroke="hsl(0.0,100%,35%)" stroke-width="0.00196"></path>
<path d="M0.677 0.643 Q0.772 0.515 0.544 0.441" stroke="hsl(0.0,100%,35%)" stroke-width="0.00196"></path>
<path d="M0.677 0.643 Q0.863 0.749 1.112 0.682" stroke="hsl(0.0,100%,35%)" stroke-width="0.00098"></path>
<path d="M0.677 0.643 Q0.800 0.827 1.185 0.807" stroke="hsl(0.0,100%,35%)" stroke-width="0.00098"></path>
<path d="M1.379 0.097 Q0.591 0.230 0.677 0.643" stroke="hsl(0.0,100%,35%)" stroke-width="0.00098"></path>
<path d="M1.379 0.097 Q1.425 0.157 1.553 0.148" stroke="hsl(0.0,100%,35%)" stroke-width="0.00098"></path>
<path d="M1.379 0.097 Q0.738 0.037 0.481 0.337" stroke="hsl(0.0,100%,35%)" stroke-width="0.00196"></path>
<path d="M1.379 0.097 Q0.323 0.233 0.357 0.779" stroke="hsl(0.0,100%,35%)" stroke-width="0.00196"></path>
<path d="M0.962 0.542 Q0.552 0.496 0.371 0.685" stroke="hsl(0.0,100%,35%)" stroke-width="0.00883"></path>
<path d="M0.962 0.542 Q0.470 0.539 0.357 0.779" stroke="hsl(0.0,100%,35%)" stroke-width="0.00883"></path>
<path d="M0.962 0.542 Q0.739 0.536 0.677 0.643" stroke="hsl(0.0,100%,35%)" stroke-width="0.05296"></path>
<path d="M0.962 0.542 Q1.088 0.559 1.149 0.501" stroke="hsl(0.0,100%,35%)" stroke-width="0.00196"></path>
<path d="M0.962 0.542 Q0.886 0.343 0.481 0.337" stroke="hsl(0.0,100%,35%)" stroke-width="0.00392"></path>
<path d="M0.962 0.542 Q1.118 0.501 1.072 0.415" stroke="hsl(0.0,100%,35%)" stroke-width="0.00588"></path>
<path d="M0.962 0.542 Q0.728 0.784 1.150 0.951" stroke="hsl(0.0,100%,35%)" stroke-width="0.00098"></path>
<path d="M0.962 0.542 Q1.105 0.563 1.177 0.498" stroke="hsl(0.0,100%,35%)" stroke-width="0.00294"></path>
<path d="M0.962 0.542 Q0.880 0.694 1.160 0.768" stroke="hsl(0.0,100%,35%)" stroke-width="0.00098"></path>
<path d="M0.371 0.685 Q0.548 0.974 1.150 0.951" stroke="hsl(0.0,100%,35%)" stroke-width="0.00392"></path>
<path d="M0.371 0.685 Q0.289 0.729 0.357 0.779" stroke="hsl(0.0,100%,35%)" stroke-width="0.02844"></path>
<path d="M0.371 0.685 Q0.558 0.725 0.677 0.643" stroke="hsl(0.0,100%,35%)" stroke-width="0.03530"></path>
<path d="M0.371 0.685 Q0.781 0.732 0.962 0.542" stroke="hsl(0.0,100%,35%)" stroke-width="0.01667"></path>
<path d="M0.371 0.685 Q0.705 0.533 0.481 0.337" stroke="hsl(0.0,100%,35%)" stroke-width="0.01079"></path>
<path d="M0.371 0.685 Q0.536 0.786 0.770 0.728" stroke="hsl(0.0,100%,35%)" stroke-width="0.00196"></path>
<path d="M0.371 0.685 Q0.937 0.690 1.072 0.415" stroke="hsl(0.0,100%,35%)" stroke-width="0.00098"></path>
<path d="M0.371 0.685 Q0.655 0.642 0.634 0.494" stroke="hsl(0.0,100%,35%)" stroke-width="0.00785"></path>
<path d="M0.371 0.685 Q1.391 0.653 1.553 0.148" stroke="hsl(0.0,100%,35%)" stroke-width="0.00098"></path>
<path d="M0.481 0.337 Q0.334 0.529 0.677 0.643" stroke="hsl(0.0,100%,35%)" stroke-width="0.03530"></path>
<path d="M0.481 0.337 Q0.324 0.778 1.150 0.951" stroke="hsl(0.0,100%,35%)" stroke-width="0.00883"></path>
<path d="M0.481 0.337 Q0.431 0.446 0.634 0.494" stroke="hsl(0.0,100%,35%)" stroke-width="0.02746"></path>
<path d="M0.481 0.337 Q0.065 0.533 0.357 0.779" stroke="hsl(0.0,100%,35%)" stroke-width="0.00098"></path>
<path d="M0.481 0.337 Q0.557 0.535 0.962 0.542" stroke="hsl(0.0,100%,35%)" stroke-width="0.00098"></path>
<path d="M0.481 0.337 Q0.495 0.780 1.363 0.870" stroke="hsl(0.0,100%,35%)" stroke-width="0.00098"></path>
<path d="M0.481 0.337 Q0.713 0.494 1.072 0.415" stroke="hsl(0.0,100%,35%)" stroke-width="0.00098"></path>
<path d="M0.481 0.337 Q0.418 0.625 0.967 0.718" stroke="hsl(0.0,100%,35%)" stroke-width="0.00294"></path>
<path d="M0.481 0.337 Q0.781 0.393 0.957 0.259" stroke="hsl(0.0,100%,35%)" stroke-width="0.00098"></path>
<path d="M0.481 0.337 Q0.559 0.822 1.523 0.890" stroke="hsl(0.0,100%,35%)" stroke-width="0.00098"></path>
<path d="M0.481 0.337 Q0.663 0.355 0.738 0.270" stroke="hsl(0.0,100%,35%)" stroke-width="0.00392"></path>
<path d="M0.481 0.337 Q0.727 0.321 0.750 0.197" stroke="hsl(0.0,100%,35%)" stroke-width="0.00196"></path>
<path d="M1.417 0.195 Q0.836 0.078 0.481 0.337" stroke="hsl(0.0,100%,35%)" stroke-width="0.00196"></path>
<path d="M1.417 0.195 Q1.613 0.155 1.579 0.052" stroke="hsl(0.0,100%,35%)" stroke-width="0.00098"></path>
<path d="M1.417 0.195 Q1.476 0.138 1.379 0.097" stroke="hsl(0.0,100%,35%)" stroke-width="0.00098"></path>
<path d="M0.596 0.798 Q0.491 0.740 0.357 0.779" stroke="hsl(0.0,100%,35%)" stroke-width="0.00098"></path>
<path d="M0.596 0.798 Q1.548 0.604 1.379 0.097" stroke="hsl(0.0,100%,35%)" stroke-width="0.00196"></path>
<path d="M0.596 0.798 Q0.760 0.737 0.677 0.643" stroke="hsl(0.0,100%,35%)" stroke-width="0.00981"></path>
<path d="M0.596 0.798 Q0.907 0.544 0.481 0.337" stroke="hsl(0.0,100%,35%)" stroke-width="0.00588"></path>
<path d="M1.052 0.441 Q0.703 0.467 0.677 0.643" stroke="hsl(0.0,100%,35%)" stroke-width="0.00196"></path>
<path d="M1.052 0.441 Q0.926 0.473 0.962 0.542" stroke="hsl(0.0,100%,35%)" stroke-width="0.00098"></path>
<path d="M1.052 0.441 Q1.149 0.331 0.957 0.259" stroke="hsl(0.0,100%,35%)" stroke-width="0.00098"></path>
<path d="M1.052 0.441 Q0.850 0.274 0.481 0.337" stroke="hsl(0.0,100%,35%)" stroke-width="0.00098"></path>
<path d="M0.957 0.259 Q0.657 0.203 0.481 0.337" stroke="hsl(0.0,100%,35%)" stroke-width="0.00196"></path>
<path d="M0.957 0.259 Q0.241 0.399 0.357 0.779" stroke="hsl(0.0,100%,35%)" stroke-width="0.00098"></path>
<path d="M0.957 0.259 Q0.608 0.312 0.634 0.494" stroke="hsl(0.0,100%,35%)" stroke-width="0.00098"></path>
<path d="M0.927 0.913 Q1.008 0.977 1.150 0.951" stroke="hsl(0.0,100%,35%)" stroke-width="0.00098"></path>
<path d="M0.927 0.913 Q0.750 0.732 0.357 0.779" stroke="hsl(0.0,100%,35%)" stroke-width="0.00098"></path>
<path d="M0.927 0.913 Q1.019 0.728 0.677 0.643" stroke="hsl(0.0,100%,35%)" stroke-width="0.00098"></path>
<path d="M0.192 0.686 Q0.692 0.768 0.962 0.542" stroke="hsl(0.0,100%,35%)" stroke-width="0.00098"></path>
<path d="M0.192 0.686 Q0.200 0.765 0.357 0.779" stroke="hsl(0.0,100%,35%)" stroke-width="0.00196"></path>
<path d="M0.192 0.686 Q0.458 1.010 1.150 0.951" stroke="hsl(0.0,100%,35%)" stroke-width="0.00098"></path>
<path d="M1.072 0.415 Q0.424 0.454 0.357 0.779" stroke="hsl(0.0,100%,35%)" stroke-width="0.00196"></path>
<path d="M1.072 0.415 Q0.693 0.450 0.677 0.643" stroke="hsl(0.0,100%,35%)" stroke-width="0.02942"></path>
<path d="M1.072 0.415 Q0.916 0.457 0.962 0.542" stroke="hsl(0.0,100%,35%)" stroke-width="0.00098"></path>
<path d="M1.072 0.415 Q0.682 0.699 1.150 0.951" stroke="hsl(0.0,100%,35%)" stroke-width="0.00392"></path>
<path d="M1.072 0.415 Q0.790 0.367 0.634 0.494" stroke="hsl(0.0,100%,35%)" stroke-width="0.01471"></path>
<path d="M1.072 0.415 Q0.840 0.258 0.481 0.337" stroke="hsl(0.0,100%,35%)" stroke-width="0.00196"></path>
<path d="M0.634 0.494 Q0.537 0.577 0.677 0.643" stroke="hsl(0.0,100%,35%)" stroke-width="0.07551"></path>
<path d="M0.634 0.494 Q0.683 0.385 0.481 0.337" stroke="hsl(0.0,100%,35%)" stroke-width="0.01471"></path>
<path d="M0.634 0.494 Q0.526 0.826 1.150 0.951" stroke="hsl(0.0,100%,35%)" stroke-width="0.00981"></path>
<path d="M0.634 0.494 Q0.916 0.542 1.072 0.415" stroke="hsl(0.0,100%,35%)" stroke-width="0.00883"></path>
<path d="M1.523 0.890 Q1.298 0.597 0.677 0.643" stroke="hsl(0.0,100%,35%)" stroke-width="0.00981"></path>
<path d="M1.523 0.890 Q1.677 0.562 1.072 0.415" stroke="hsl(0.0,100%,35%)" stroke-width="0.00098"></path>
<path d="M1.523 0.890 Q1.287 0.846 1.150 0.951" stroke="hsl(0.0,100%,35%)" stroke-width="0.01765"></path>
<path d="M1.523 0.890 Q1.635 0.834 1.550 0.767" stroke="hsl(0.0,100%,35%)" stroke-width="0.00098"></path>
<path d="M1.523 0.890 Q1.627 0.730 1.338 0.644" stroke="hsl(0.0,100%,35%)" stroke-width="0.00098"></path>
<path d="M0.967 0.718 Q0.882 0.623 0.677 0.643" stroke="hsl(0.0,100%,35%)" stroke-width="0.04413"></path>
<path d="M0.967 0.718 Q1.029 0.430 0.481 0.337" stroke="hsl(0.0,100%,35%)" stroke-width="0.00196"></path>
<path d="M0.967 0.718 Q0.980 0.540 0.634 0.494" stroke="hsl(0.0,100%,35%)" stroke-width="0.00490"></path>
<path d="M0.967 0.718 Q1.108 0.915 1.523 0.890" stroke="hsl(0.0,100%,35%)" stroke-width="0.00098"></path>
<path d="M0.967 0.718 Q0.872 0.871 1.150 0.951" stroke="hsl(0.0,100%,35%)" stroke-width="0.00294"></path>
<path d="M0.967 0.718 Q1.329 0.487 0.957 0.259" stroke="hsl(0.0,100%,35%)" stroke-width="0.00098"></path>
<path d="M1.185 0.807 Q1.063 0.624 0.677 0.643" stroke="hsl(0.0,100%,35%)" stroke-width="0.00392"></path>
<path d="M1.185 0.807 Q1.052 0.872 1.150 0.951" stroke="hsl(0.0,100%,35%)" stroke-width="0.00392"></path>
<path d="M1.185 0.807 Q1.442 0.589 1.072 0.415" stroke="hsl(0.0,100%,35%)" stroke-width="0.00196"></path>
<path d="M1.185 0.807 Q1.181 0.316 0.220 0.210" stroke="hsl(0.0,100%,35%)" stroke-width="0.00098"></path>
<path d="M1.185 0.807 Q1.038 0.761 0.915 0.823" stroke="hsl(0.0,100%,35%)" stroke-width="0.00098"></path>
<path d="M1.185 0.807 Q1.322 0.801 1.338 0.733" stroke="hsl(0.0,100%,35%)" stroke-width="0.00098"></path>
<path d="M1.185 0.807 Q1.458 0.332 0.590 0.094" stroke="hsl(0.0,100%,35%)" stroke-width="0.00098"></path>
<path d="M1.185 0.807 Q1.160 0.541 0.634 0.494" stroke="hsl(0.0,100%,35%)" stroke-width="0.00098"></path>
<path d="M1.185 0.807 Q1.286 0.630 0.962 0.542" stroke="hsl(0.0,100%,35%)" stroke-width="0.00098"></path>
<path d="M1.185 0.807 Q0.794 0.627 0.357 0.779" stroke="hsl(0.0,100%,35%)" stroke-width="0.00098"></path>
<path d="M1.304 0.818 Q1.131 0.605 0.677 0.643" stroke="hsl(0.0,100%,35%)" stroke-width="0.00098"></path>
<path d="M1.304 0.818 Q1.121 0.854 1.150 0.951" stroke="hsl(0.0,100%,35%)" stroke-width="0.00098"></path>
<path d="M0.770 0.728 Q0.792 0.667 0.677 0.643" stroke="hsl(0.0,100%,35%)" stroke-width="0.00686"></path>
<path d="M0.770 0.728 Q0.523 0.671 0.357 0.779" stroke="hsl(0.0,100%,35%)" stroke-width="0.00490"></path>
<path d="M0.770 0.728 Q0.605 0.627 0.371 0.685" stroke="hsl(0.0,100%,35%)" stroke-width="0.00392"></path>
<path d="M0.770 0.728 Q1.579 0.534 1.379 0.097" stroke="hsl(0.0,100%,35%)" stroke-width="0.00392"></path>
<path d="M0.227 0.084 Q-0.006 0.702 1.150 0.951" stroke="hsl(120.0,100%,35%)" stroke-width="0.00098"></path>
<path d="M0.227 0.084 Q0.123 0.146 0.220 0.210" stroke="hsl(120.0,100%,35%)" stroke-width="0.00196"></path>
<path d="M0.227 0.084 Q0.113 0.102 0.124 0.162" stroke="hsl(120.0,100%,35%)" stroke-width="0.00196"></path>
<path d="M0.227 0.084 Q0.319 0.103 0.378 0.063" stroke="hsl(120.0,100%,35%)" stroke-width="0.00098"></path>
<path d="M0.124 0.162 Q0.134 0.205 0.220 0.210" stroke="hsl(120.0,100%,35%)" stroke-width="0.00196"></path>
<path d="M0.124 0.162 Q0.227 0.225 0.372 0.189" stroke="hsl(120.0,100%,35%)" stroke-width="0.00196"></path>
<path d="M0.124 0.162 Q0.006 0.762 1.150 0.951" stroke="hsl(120.0,100%,35%)" stroke-width="0.00098"></path>
<path d="M0.124 0.162 Q0.825 0.656 1.942 0.422" stroke="hsl(120.0,100%,35%)" stroke-width="0.00098"></path>
<path d="M0.885 0.662 Q0.796 0.611 0.677 0.643" stroke="hsl(0.0,100%,35%)" stroke-width="0.00392"></path>
<path d="M0.885 0.662 Q0.880 0.706 0.967 0.718" stroke="hsl(0.0,100%,35%)" stroke-width="0.00196"></path>
<path d="M0.885 0.662 Q0.893 0.528 0.634 0.494" stroke="hsl(0.0,100%,35%)" stroke-width="0.00098"></path>
<path d="M0.847 0.503 Q0.651 0.539 0.677 0.643" stroke="hsl(0.0,100%,35%)" stroke-width="0.00392"></path>
<path d="M0.847 0.503 Q0.640 0.788 1.150 0.951" stroke="hsl(0.0,100%,35%)" stroke-width="0.00098"></path>
<path d="M0.847 0.503 Q0.748 0.456 0.634 0.494" stroke="hsl(0.0,100%,35%)" stroke-width="0.00098"></path>
<path d="M0.849 0.189 Q0.966 0.197 1.006 0.141" stroke="hsl(0.0,100%,35%)" stroke-width="0.00098"></path>
<path d="M0.849 0.189 Q0.378 0.443 0.770 0.728" stroke="hsl(0.0,100%,35%)" stroke-width="0.00098"></path>
<path d="M0.849 0.189 Q0.706 0.125 0.550 0.181" stroke="hsl(0.0,100%,35%)" stroke-width="0.00098"></path>
<path d="M0.382 0.444 Q0.370 0.602 0.677 0.643" stroke="hsl(0.0,100%,35%)" stroke-width="0.00392"></path>
<path d="M0.382 0.444 Q0.468 0.519 0.634 0.494" stroke="hsl(0.0,100%,35%)" stroke-width="0.00392"></path>
<path d="M0.382 0.444 Q0.360 0.851 1.150 0.951" stroke="hsl(0.0,100%,35%)" stroke-width="0.00294"></path>
<path d="M1.934 0.489 Q1.172 0.563 1.150 0.951" stroke="hsl(120.0,100%,35%)" stroke-width="0.00098"></path>
<path d="M1.934 0.489 Q1.729 0.601 1.903 0.725" stroke="hsl(120.0,100%,35%)" stroke-width="0.00098"></path>
<path d="M1.934 0.489 Q1.853 0.532 1.921 0.581" stroke="hsl(120.0,100%,35%)" stroke-width="0.00098"></path>
<path d="M1.934 0.489 Q1.804 0.460 1.719 0.517" stroke="hsl(120.0,100%,35%)" stroke-width="0.00098"></path>
<path d="M0.216 0.907 Q0.287 0.958 0.401 0.935" stroke="hsl(240.0,100%,35%)" stroke-width="0.00294"></path>
<path d="M0.216 0.907 Q0.198 0.865 0.112 0.864" stroke="hsl(240.0,100%,35%)" stroke-width="0.00196"></path>
<path d="M0.216 0.907 Q0.360 0.940 0.455 0.877" stroke="hsl(240.0,100%,35%)" stroke-width="0.00196"></path>
<path d="M0.819 0.496 Q0.631 0.541 0.677 0.643" stroke="hsl(0.0,100%,35%)" stroke-width="0.00490"></path>
<path d="M0.819 0.496 Q0.444 0.501 0.371 0.685" stroke="hsl(0.0,100%,35%)" stroke-width="0.00098"></path>
<path d="M0.819 0.496 Q0.854 0.548 0.962 0.542" stroke="hsl(0.0,100%,35%)" stroke-width="0.00098"></path>
<path d="M0.819 0.496 Q0.362 0.545 0.357 0.779" stroke="hsl(0.0,100%,35%)" stroke-width="0.00098"></path>
<path d="M0.933 0.046 Q0.724 0.001 0.590 0.094" stroke="hsl(0.0,100%,35%)" stroke-width="0.00098"></path>
<path d="M0.933 0.046 Q0.856 0.043 0.832 0.080" stroke="hsl(0.0,100%,35%)" stroke-width="0.00098"></path>
<path d="M0.933 0.046 Q0.425 0.210 0.634 0.494" stroke="hsl(0.0,100%,35%)" stroke-width="0.00098"></path>
<path d="M1.775 0.200 Q0.872 0.202 0.677 0.643" stroke="hsl(120.0,100%,35%)" stroke-width="0.00098"></path>
<path d="M1.775 0.200 Q0.861 0.450 1.150 0.951" stroke="hsl(120.0,100%,35%)" stroke-width="0.00098"></path>
<path d="M1.775 0.200 Q1.818 0.241 1.909 0.229" stroke="hsl(120.0,100%,35%)" stroke-width="0.00098"></path>
<path d="M1.775 0.200 Q1.687 0.308 1.879 0.375" stroke="hsl(120.0,100%,35%)" stroke-width="0.00098"></path>
<path d="M1.775 0.200 Q1.698 0.202 1.685 0.240" stroke="hsl(120.0,100%,35%)" stroke-width="0.00098"></path>
<path d="M1.775 0.200 Q1.625 0.203 1.600 0.277" stroke="hsl(120.0,100%,35%)" stroke-width="0.00098"></path>
<path d="M1.775 0.200 Q1.717 0.158 1.623 0.178" stroke="hsl(120.0,100%,35%)" stroke-width="0.00098"></path>
<path d="M1.336 0.260 Q0.690 0.568 1.150 0.951" stroke="hsl(0.0,100%,35%)" stroke-width="0.00098"></path>
<path d="M1.336 0.260 Q0.700 0.320 0.677 0.643" stroke="hsl(0.0,100%,35%)" stroke-width="0.00098"></path>
<path d="M1.336 0.260 Q0.847 0.127 0.481 0.337" stroke="hsl(0.0,100%,35%)" stroke-width="0.00098"></path>
<path d="M1.358 0.500 Q0.893 0.684 1.150 0.951" stroke="hsl(120.0,100%,35%)" stroke-width="0.00098"></path>
<path d="M1.358 0.500 Q1.391 0.587 1.567 0.590" stroke="hsl(120.0,100%,35%)" stroke-width="0.00098"></path>
<path d="M1.358 0.500 Q1.283 0.401 1.072 0.415" stroke="hsl(120.0,100%,35%)" stroke-width="0.00098"></path>
<path d="M1.553 0.434 Q1.171 0.370 0.962 0.542" stroke="hsl(120.0,100%,35%)" stroke-width="0.00196"></path>
<path d="M1.553 0.434 Q0.938 0.612 1.150 0.951" stroke="hsl(120.0,100%,35%)" stroke-width="0.00098"></path>
<path d="M1.553 0.434 Q1.651 0.471 1.743 0.431" stroke="hsl(120.0,100%,35%)" stroke-width="0.00098"></path>
<path d="M0.772 0.347 Q0.488 0.476 0.677 0.643" stroke="hsl(0.0,100%,35%)" stroke-width="0.00196"></path>
<path d="M0.772 0.347 Q0.867 0.441 1.072 0.415" stroke="hsl(0.0,100%,35%)" stroke-width="0.00098"></path>
<path d="M0.772 0.347 Q0.635 0.284 0.481 0.337" stroke="hsl(0.0,100%,35%)" stroke-width="0.00196"></path>
<path d="M0.110 0.696 Q0.815 0.748 1.072 0.415" stroke="hsl(0.0,100%,35%)" stroke-width="0.00098"></path>
<path d="M0.110 0.696 Q0.533 0.700 0.634 0.494" stroke="hsl(0.0,100%,35%)" stroke-width="0.00098"></path>
<path d="M0.110 0.696 Q0.659 0.789 0.962 0.542" stroke="hsl(0.0,100%,35%)" stroke-width="0.00098"></path>
<path d="M0.110 0.696 Q0.167 0.786 0.357 0.779" stroke="hsl(0.0,100%,35%)" stroke-width="0.00196"></path>
<path d="M0.951 0.778 Q0.922 0.656 0.677 0.643" stroke="hsl(0.0,100%,35%)" stroke-width="0.00588"></path>
<path d="M0.951 0.778 Q0.912 0.905 1.150 0.951" stroke="hsl(0.0,100%,35%)" stroke-width="0.00098"></path>
<path d="M0.951 0.778 Q1.069 0.463 0.481 0.337" stroke="hsl(0.0,100%,35%)" stroke-width="0.00098"></path>
<path d="M1.177 0.498 Q0.800 0.719 1.150 0.951" stroke="hsl(0.0,100%,35%)" stroke-width="0.00098"></path>
<path d="M1.177 0.498 Q0.811 0.470 0.677 0.643" stroke="hsl(0.0,100%,35%)" stroke-width="0.00098"></path>
<path d="M1.177 0.498 Q1.034 0.477 0.962 0.542" stroke="hsl(0.0,100%,35%)" stroke-width="0.00098"></path>
<path d="M1.177 0.498 Q0.908 0.387 0.634 0.494" stroke="hsl(0.0,100%,35%)" stroke-width="0.00098"></path>
<path d="M1.177 0.498 Q1.190 0.436 1.072 0.415" stroke="hsl(0.0,100%,35%)" stroke-width="0.00098"></path>
<path d="M1.146 0.812 Q1.047 0.634 0.677 0.643" stroke="hsl(0.0,100%,35%)" stroke-width="0.00098"></path>
<path d="M1.146 0.812 Q1.169 0.818 1.185 0.807" stroke="hsl(0.0,100%,35%)" stroke-width="0.00098"></path>
<path d="M1.146 0.812 Q1.036 0.882 1.150 0.951" stroke="hsl(0.0,100%,35%)" stroke-width="0.00098"></path>
<path d="M0.732 0.785 Q0.818 0.703 0.677 0.643" stroke="hsl(0.0,100%,35%)" stroke-width="0.00392"></path>
<path d="M0.732 0.785 Q0.631 0.663 0.371 0.685" stroke="hsl(0.0,100%,35%)" stroke-width="0.00098"></path>
<path d="M0.732 0.785 Q0.965 0.511 0.481 0.337" stroke="hsl(0.0,100%,35%)" stroke-width="0.00196"></path>
<path d="M0.732 0.785 Q0.916 0.620 0.634 0.494" stroke="hsl(0.0,100%,35%)" stroke-width="0.00098"></path>
<path d="M1.755 0.362 Q1.807 0.393 1.879 0.375" stroke="hsl(120.0,100%,35%)" stroke-width="0.00098"></path>
<path d="M1.755 0.362 Q1.801 0.429 1.942 0.422" stroke="hsl(120.0,100%,35%)" stroke-width="0.00098"></path>
<path d="M1.755 0.362 Q1.876 0.365 1.910 0.308" stroke="hsl(120.0,100%,35%)" stroke-width="0.00098"></path>
<path d="M0.626 0.923 Q1.023 0.601 0.481 0.337" stroke="hsl(0.0,100%,35%)" stroke-width="0.00098"></path>
<path d="M0.626 0.923 Q0.789 0.875 0.732 0.785" stroke="hsl(0.0,100%,35%)" stroke-width="0.00098"></path>
<path d="M0.626 0.923 Q0.876 0.793 0.677 0.643" stroke="hsl(0.0,100%,35%)" stroke-width="0.00098"></path>
<path d="M0.626 0.923 Q0.960 0.889 0.967 0.718" stroke="hsl(0.0,100%,35%)" stroke-width="0.00098"></path>
<path d="M1.181 0.290 Q0.647 0.366 0.677 0.643" stroke="hsl(0.0,100%,35%)" stroke-width="0.00196"></path>
<path d="M1.181 0.290 Q0.636 0.614 1.150 0.951" stroke="hsl(0.0,100%,35%)" stroke-width="0.00196"></path>
<path d="M1.181 0.290 Q1.282 0.306 1.336 0.260" stroke="hsl(0.0,100%,35%)" stroke-width="0.00196"></path>
<path d="M1.181 0.290 Q1.194 0.652 1.903 0.725" stroke="hsl(0.0,100%,35%)" stroke-width="0.00098"></path>
<path d="M1.181 0.290 Q1.317 0.583 1.921 0.581" stroke="hsl(0.0,100%,35%)" stroke-width="0.00098"></path>
<path d="M1.181 0.290 Q0.741 0.238 0.544 0.441" stroke="hsl(0.0,100%,35%)" stroke-width="0.00098"></path>
<path d="M1.181 0.290 Q1.026 0.331 1.072 0.415" stroke="hsl(0.0,100%,35%)" stroke-width="0.00098"></path>
<path d="M1.609 0.343 Q0.903 0.307 0.677 0.643" stroke="hsl(0.0,100%,35%)" stroke-width="0.00098"></path>
<path d="M1.609 0.343 Q0.893 0.555 1.150 0.951" stroke="hsl(0.0,100%,35%)" stroke-width="0.00098"></path>
<path d="M1.609 0.343 Q1.501 0.323 1.439 0.372" stroke="hsl(0.0,100%,35%)" stroke-width="0.00098"></path>
</g>
<text x="1.579" y="0.038" font-size="0.027450" fill="hsl(0.0,100%,20%)">aaronwood</text>
<text x="1.150" y="0.926" font-size="0.049973" fill="hsl(0.0,100%,20%)">dpranke</text>
<text x="0.357" y="0.752" font-size="0.052289" fill="hsl(0.0,100%,20%)">tikuta</text>
<text x="0.677" y="0.594" font-size="0.097548" fill="hsl(0.0,100%,20%)">brettw</text>
<text x="1.387" y="0.028" font-size="0.004640" fill="hsl(0.0,100%,20%)">computerdruid</text>
<text x="1.379" y="0.086" font-size="0.021263" fill="hsl(0.0,100%,20%)">tmandry</text>
<text x="0.962" y="0.516" font-size="0.051875" fill="hsl(0.0,100%,20%)">sdefresne</text>
<text x="0.371" y="0.657" font-size="0.055485" fill="hsl(0.0,100%,20%)">digit</text>
<text x="0.481" y="0.306" font-size="0.060318" fill="hsl(0.0,100%,20%)">phosek</text>
<text x="1.417" y="0.190" font-size="0.010375" fill="hsl(0.0,100%,20%)">paulfaria</text>
<text x="1.553" y="0.143" font-size="0.010375" fill="hsl(0.0,100%,20%)">bwb</text>
<text x="0.596" y="0.787" font-size="0.020225" fill="hsl(0.0,100%,20%)">adetaylor</text>
<text x="1.052" y="0.435" font-size="0.010375" fill="hsl(0.0,100%,20%)">andrewsavage</text>
<text x="0.957" y="0.253" font-size="0.013124" fill="hsl(0.0,100%,20%)">mcgrathr</text>
<text x="0.927" y="0.909" font-size="0.008037" fill="hsl(0.0,100%,20%)">baghdadi</text>
<text x="0.192" y="0.681" font-size="0.009280" fill="hsl(0.0,100%,20%)">bpastene</text>
<text x="1.072" y="0.394" font-size="0.042525" fill="hsl(0.0,100%,20%)">thakis</text>
<text x="0.634" y="0.461" font-size="0.065454" fill="hsl(0.0,100%,20%)">scottmg</text>
<text x="1.523" y="0.876" font-size="0.027055" fill="hsl(0.0,100%,20%)">thomasanderson</text>
<text x="0.967" y="0.700" font-size="0.037695" fill="hsl(0.0,100%,20%)">juliehockett</text>
<text x="0.220" y="0.204" font-size="0.012276" fill="hsl(120.0,100%,20%)">dcheng</text>
<text x="0.544" y="0.437" font-size="0.008037" fill="hsl(0.0,100%,20%)">wfh</text>
<text x="1.112" y="0.679" font-size="0.004640" fill="hsl(0.0,100%,20%)">rockot</text>
<text x="1.185" y="0.797" font-size="0.020225" fill="hsl(0.0,100%,20%)">brucedawson</text>
<text x="0.915" y="0.821" font-size="0.004640" fill="hsl(120.0,100%,20%)">jam</text>
<text x="1.338" y="0.731" font-size="0.004640" fill="hsl(0.0,100%,20%)">mef</text>
<text x="0.590" y="0.091" font-size="0.006562" fill="hsl(0.0,100%,20%)">sky</text>
<text x="1.304" y="0.815" font-size="0.006562" fill="hsl(0.0,100%,20%)">bungeman</text>
<text x="0.770" y="0.717" font-size="0.022252" fill="hsl(0.0,100%,20%)">danakj</text>
<text x="1.363" y="0.866" font-size="0.008037" fill="hsl(0.0,100%,20%)">iannucci</text>
<text x="1.743" y="0.428" font-size="0.006562" fill="hsl(0.0,100%,20%)">liaoyuke</text>
<text x="1.218" y="0.955" font-size="0.004640" fill="hsl(0.0,100%,20%)">smut</text>
<text x="0.227" y="0.078" font-size="0.011365" fill="hsl(120.0,100%,20%)">erikchen</text>
<text x="0.124" y="0.156" font-size="0.013124" fill="hsl(120.0,100%,20%)">ssid</text>
<text x="0.378" y="0.060" font-size="0.004640" fill="hsl(120.0,100%,20%)">haraken</text>
<text x="0.885" y="0.655" font-size="0.012276" fill="hsl(0.0,100%,20%)">haowei</text>
<text x="0.847" y="0.498" font-size="0.011365" fill="hsl(0.0,100%,20%)">jamesr</text>
<text x="0.849" y="0.185" font-size="0.008037" fill="hsl(0.0,100%,20%)">jbroman</text>
<text x="1.006" y="0.139" font-size="0.004640" fill="hsl(0.0,100%,20%)">dalecurtis</text>
<text x="0.550" y="0.178" font-size="0.004640" fill="hsl(0.0,100%,20%)">tzik</text>
<text x="0.382" y="0.436" font-size="0.015389" fill="hsl(0.0,100%,20%)">joearmstrong334</text>
<text x="1.934" y="0.484" font-size="0.009280" fill="hsl(120.0,100%,20%)">jyan</text>
<text x="1.903" y="0.722" font-size="0.006562" fill="hsl(0.0,100%,20%)">mark</text>
<text x="1.921" y="0.578" font-size="0.006562" fill="hsl(0.0,100%,20%)">palmer</text>
<text x="1.719" y="0.515" font-size="0.004640" fill="hsl(120.0,100%,20%)">scroggo</text>
<text x="0.216" y="0.901" font-size="0.012276" fill="hsl(240.0,100%,20%)">lizeb</text>
<text x="0.401" y="0.931" font-size="0.008037" fill="hsl(240.0,100%,20%)">mattcary</text>
<text x="0.112" y="0.861" font-size="0.006562" fill="hsl(240.0,100%,20%)">agrieve</text>
<text x="0.455" y="0.873" font-size="0.006562" fill="hsl(240.0,100%,20%)">pasko</text>
<text x="0.819" y="0.490" font-size="0.013124" fill="hsl(0.0,100%,20%)">mfarazma</text>
<text x="0.933" y="0.042" font-size="0.008037" fill="hsl(0.0,100%,20%)">michaelpg</text>
<text x="0.832" y="0.077" font-size="0.004640" fill="hsl(0.0,100%,20%)">xhwang</text>
<text x="1.775" y="0.193" font-size="0.012276" fill="hsl(120.0,100%,20%)">msimonides</text>
<text x="1.909" y="0.227" font-size="0.004640" fill="hsl(120.0,100%,20%)">grt</text>
<text x="1.879" y="0.372" font-size="0.006562" fill="hsl(120.0,100%,20%)">jochen</text>
<text x="1.685" y="0.237" font-size="0.004640" fill="hsl(120.0,100%,20%)">pkasting</text>
<text x="1.600" y="0.275" font-size="0.004640" fill="hsl(120.0,100%,20%)">reveman</text>
<text x="1.623" y="0.175" font-size="0.004640" fill="hsl(120.0,100%,20%)">yzshen</text>
<text x="1.336" y="0.255" font-size="0.010375" fill="hsl(0.0,100%,20%)">pcc</text>
<text x="1.358" y="0.496" font-size="0.008037" fill="hsl(120.0,100%,20%)">pennymac</text>
<text x="1.567" y="0.588" font-size="0.004640" fill="hsl(120.0,100%,20%)">mmoroz</text>
<text x="1.553" y="0.430" font-size="0.009280" fill="hsl(120.0,100%,20%)">peterhanspers</text>
<text x="0.738" y="0.265" font-size="0.009280" fill="hsl(0.0,100%,20%)">vadimsh</text>
<text x="0.750" y="0.194" font-size="0.006562" fill="hsl(0.0,100%,20%)">tandrii</text>
<text x="0.772" y="0.342" font-size="0.010375" fill="hsl(0.0,100%,20%)">raphael.kubo.da.costa</text>
<text x="0.110" y="0.690" font-size="0.010375" fill="hsl(0.0,100%,20%)">ribalda</text>
<text x="0.951" y="0.771" font-size="0.013124" fill="hsl(0.0,100%,20%)">rjascani</text>
<text x="1.177" y="0.491" font-size="0.013124" fill="hsl(0.0,100%,20%)">rsesek</text>
<text x="1.146" y="0.808" font-size="0.008037" fill="hsl(0.0,100%,20%)">samogot</text>
<text x="1.149" y="0.498" font-size="0.006562" fill="hsl(0.0,100%,20%)">justincohen</text>
<text x="1.160" y="0.765" font-size="0.004640" fill="hsl(0.0,100%,20%)">noyau</text>
<text x="0.732" y="0.778" font-size="0.013920" fill="hsl(0.0,100%,20%)">shayba</text>
<text x="1.755" y="0.358" font-size="0.008037" fill="hsl(120.0,100%,20%)">skyostil</text>
<text x="1.942" y="0.419" font-size="0.006562" fill="hsl(120.0,100%,20%)">primiano</text>
<text x="1.910" y="0.305" font-size="0.004640" fill="hsl(120.0,100%,20%)">tdresser</text>
<text x="0.372" y="0.186" font-size="0.006562" fill="hsl(120.0,100%,20%)">xunjieli</text>
<text x="1.550" y="0.764" font-size="0.004640" fill="hsl(0.0,100%,20%)">fdoray</text>
<text x="1.338" y="0.642" font-size="0.004640" fill="hsl(0.0,100%,20%)">thestig</text>
<text x="0.082" y="0.732" font-size="0.006562" fill="hsl(0.0,100%,20%)">philwo</text>
<text x="0.626" y="0.918" font-size="0.009280" fill="hsl(0.0,100%,20%)">tsniatowski</text>
<text x="1.181" y="0.282" font-size="0.014673" fill="hsl(0.0,100%,20%)">vtsyrklevich</text>
<text x="1.609" y="0.339" font-size="0.008037" fill="hsl(0.0,100%,20%)">wangqing-hf</text>
<text x="1.439" y="0.369" font-size="0.004640" fill="hsl(0.0,100%,20%)">machenbach</text>
</svg>
