<svg width="4000" height="2000" viewBox="-0.025 -0.025 2.05 1.05" xmlns="http://www.w3.org/2000/svg">
  <style>
    path {
      fill: none;
      stroke-linecap: round;
      stroke-opacity: 0.4;
    }

    text {
      text-anchor: middle;
      alignment-baseline: hanging;
    }
  </style>
  <g opacity="0.4">
<path d="M0.434 0.126 Q0.431 0.590 1.335 0.694" stroke="hsl(0.0,100%,35%)" stroke-width="0.00543"></path>
<path d="M0.434 0.126 Q0.133 0.621 1.034 0.877" stroke="hsl(0.0,100%,35%)" stroke-width="0.02713"></path>
<path d="M0.434 0.126 Q0.492 0.221 0.690 0.213" stroke="hsl(0.0,100%,35%)" stroke-width="0.06512"></path>
<path d="M0.434 0.126 Q0.152 0.139 0.114 0.279" stroke="hsl(0.0,100%,35%)" stroke-width="0.00271"></path>
<path d="M0.434 0.126 Q0.663 0.405 1.258 0.355" stroke="hsl(0.0,100%,35%)" stroke-width="0.01899"></path>
<path d="M0.434 0.126 Q0.451 0.459 1.104 0.523" stroke="hsl(0.0,100%,35%)" stroke-width="0.01899"></path>
<path d="M0.434 0.126 Q0.583 0.518 1.381 0.531" stroke="hsl(0.0,100%,35%)" stroke-width="0.00271"></path>
<path d="M0.434 0.126 Q0.095 0.692 1.124 0.982" stroke="hsl(0.0,100%,35%)" stroke-width="0.00271"></path>
<path d="M0.434 0.126 Q0.313 0.093 0.222 0.144" stroke="hsl(0.0,100%,35%)" stroke-width="0.01085"></path>
<path d="M0.434 0.126 Q0.487 0.741 1.698 0.850" stroke="hsl(0.0,100%,35%)" stroke-width="0.01085"></path>
<path d="M0.434 0.126 Q-0.070 0.441 0.433 0.755" stroke="hsl(0.0,100%,35%)" stroke-width="0.00271"></path>
<path d="M0.434 0.126 Q0.349 0.173 0.422 0.225" stroke="hsl(0.0,100%,35%)" stroke-width="0.00543"></path>
<path d="M1.034 0.877 Q0.831 0.696 0.433 0.755" stroke="hsl(180.0,100%,35%)" stroke-width="0.01357"></path>
<path d="M1.034 0.877 Q0.995 0.947 1.124 0.982" stroke="hsl(180.0,100%,35%)" stroke-width="0.01085"></path>
<path d="M1.034 0.877 Q1.352 0.714 1.104 0.523" stroke="hsl(180.0,100%,35%)" stroke-width="0.01085"></path>
<path d="M1.034 0.877 Q1.331 0.845 1.335 0.694" stroke="hsl(180.0,100%,35%)" stroke-width="0.00271"></path>
<path d="M1.034 0.877 Q1.766 0.580 1.347 0.157" stroke="hsl(180.0,100%,35%)" stroke-width="0.00543"></path>
<path d="M1.034 0.877 Q1.484 0.773 1.381 0.531" stroke="hsl(180.0,100%,35%)" stroke-width="0.00271"></path>
<path d="M1.034 0.877 Q1.563 0.661 1.258 0.355" stroke="hsl(180.0,100%,35%)" stroke-width="0.00543"></path>
<path d="M1.034 0.877 Q1.393 0.476 0.690 0.213" stroke="hsl(180.0,100%,35%)" stroke-width="0.00271"></path>
<path d="M1.034 0.877 Q1.334 0.381 0.434 0.126" stroke="hsl(180.0,100%,35%)" stroke-width="0.00271"></path>
<path d="M0.690 0.213 Q0.629 0.582 1.335 0.694" stroke="hsl(0.0,100%,35%)" stroke-width="0.00271"></path>
<path d="M0.690 0.213 Q0.415 0.304 0.532 0.458" stroke="hsl(0.0,100%,35%)" stroke-width="0.00814"></path>
<path d="M0.690 0.213 Q0.557 0.247 0.593 0.319" stroke="hsl(0.0,100%,35%)" stroke-width="0.00543"></path>
<path d="M0.690 0.213 Q0.729 0.363 1.029 0.376" stroke="hsl(0.0,100%,35%)" stroke-width="0.00543"></path>
<path d="M0.690 0.213 Q0.781 0.510 1.381 0.531" stroke="hsl(0.0,100%,35%)" stroke-width="0.00271"></path>
<path d="M0.690 0.213 Q0.884 0.248 0.993 0.161" stroke="hsl(0.0,100%,35%)" stroke-width="0.00271"></path>
<path d="M0.690 0.213 Q0.842 0.216 0.881 0.143" stroke="hsl(0.0,100%,35%)" stroke-width="0.00271"></path>
<path d="M1.258 0.355 Q0.729 0.571 1.034 0.877" stroke="hsl(180.0,100%,35%)" stroke-width="0.00271"></path>
<path d="M1.258 0.355 Q1.029 0.076 0.434 0.126" stroke="hsl(180.0,100%,35%)" stroke-width="0.00271"></path>
<path d="M1.258 0.355 Q1.047 0.408 1.104 0.523" stroke="hsl(180.0,100%,35%)" stroke-width="0.00814"></path>
<path d="M1.258 0.355 Q0.690 0.641 1.124 0.982" stroke="hsl(180.0,100%,35%)" stroke-width="0.00814"></path>
<path d="M1.258 0.355 Q1.424 0.379 1.508 0.304" stroke="hsl(180.0,100%,35%)" stroke-width="0.02985"></path>
<path d="M1.258 0.355 Q1.232 0.245 1.011 0.233" stroke="hsl(180.0,100%,35%)" stroke-width="0.00271"></path>
<path d="M1.258 0.355 Q1.029 0.310 0.892 0.412" stroke="hsl(180.0,100%,35%)" stroke-width="0.00271"></path>
<path d="M1.104 0.523 Q0.786 0.686 1.034 0.877" stroke="hsl(180.0,100%,35%)" stroke-width="0.01085"></path>
<path d="M1.104 0.523 Q1.316 0.470 1.258 0.355" stroke="hsl(180.0,100%,35%)" stroke-width="0.01357"></path>
<path d="M1.104 0.523 Q0.908 0.528 0.874 0.624" stroke="hsl(180.0,100%,35%)" stroke-width="0.00271"></path>
<path d="M1.104 0.523 Q0.931 0.450 0.750 0.518" stroke="hsl(180.0,100%,35%)" stroke-width="0.00271"></path>
<path d="M1.381 0.531 Q1.456 0.604 1.615 0.583" stroke="hsl(180.0,100%,35%)" stroke-width="0.00271"></path>
<path d="M1.381 0.531 Q0.931 0.634 1.034 0.877" stroke="hsl(180.0,100%,35%)" stroke-width="0.00271"></path>
<path d="M1.381 0.531 Q1.626 0.443 1.508 0.304" stroke="hsl(180.0,100%,35%)" stroke-width="0.01085"></path>
<path d="M1.124 0.982 Q1.163 0.911 1.034 0.877" stroke="hsl(180.0,100%,35%)" stroke-width="0.01357"></path>
<path d="M1.124 0.982 Q1.481 0.748 1.104 0.523" stroke="hsl(180.0,100%,35%)" stroke-width="0.00543"></path>
<path d="M1.124 0.982 Q1.961 0.820 1.829 0.376" stroke="hsl(180.0,100%,35%)" stroke-width="0.00271"></path>
<path d="M1.124 0.982 Q1.895 0.614 1.347 0.157" stroke="hsl(180.0,100%,35%)" stroke-width="0.00271"></path>
<path d="M1.124 0.982 Q1.460 0.880 1.335 0.694" stroke="hsl(180.0,100%,35%)" stroke-width="0.00543"></path>
<path d="M1.124 0.982 Q1.463 0.416 0.434 0.126" stroke="hsl(180.0,100%,35%)" stroke-width="0.00271"></path>
<path d="M1.124 0.982 Q1.227 0.839 0.971 0.757" stroke="hsl(180.0,100%,35%)" stroke-width="0.00271"></path>
<path d="M1.124 0.982 Q1.003 0.925 0.865 0.971" stroke="hsl(180.0,100%,35%)" stroke-width="0.00271"></path>
<path d="M1.124 0.982 Q1.005 0.871 0.762 0.904" stroke="hsl(180.0,100%,35%)" stroke-width="0.00271"></path>
<path d="M1.124 0.982 Q0.881 0.877 0.623 0.973" stroke="hsl(180.0,100%,35%)" stroke-width="0.00271"></path>
<path d="M1.124 0.982 Q0.838 0.850 0.518 0.961" stroke="hsl(180.0,100%,35%)" stroke-width="0.00271"></path>
<path d="M1.124 0.982 Q1.693 0.695 1.258 0.355" stroke="hsl(180.0,100%,35%)" stroke-width="0.00814"></path>
<path d="M1.124 0.982 Q1.858 0.720 1.508 0.304" stroke="hsl(180.0,100%,35%)" stroke-width="0.00543"></path>
<path d="M1.347 0.157 Q0.615 0.454 1.034 0.877" stroke="hsl(180.0,100%,35%)" stroke-width="0.02985"></path>
<path d="M1.347 0.157 Q1.145 0.238 1.258 0.355" stroke="hsl(180.0,100%,35%)" stroke-width="0.03527"></path>
<path d="M1.347 0.157 Q0.933 0.292 1.104 0.523" stroke="hsl(180.0,100%,35%)" stroke-width="0.01899"></path>
<path d="M0.820 0.025 Q0.884 0.074 0.993 0.053" stroke="hsl(180.0,100%,35%)" stroke-width="0.00271"></path>
<path d="M0.820 0.025 Q0.563 0.331 1.104 0.523" stroke="hsl(180.0,100%,35%)" stroke-width="0.00271"></path>
<path d="M0.820 0.025 Q0.834 0.118 1.019 0.131" stroke="hsl(180.0,100%,35%)" stroke-width="0.00271"></path>
<path d="M1.615 0.583 Q1.089 0.614 1.034 0.877" stroke="hsl(180.0,100%,35%)" stroke-width="0.00271"></path>
<path d="M1.615 0.583 Q1.539 0.510 1.381 0.531" stroke="hsl(180.0,100%,35%)" stroke-width="0.00271"></path>
<path d="M1.615 0.583 Q1.443 0.733 1.698 0.850" stroke="hsl(180.0,100%,35%)" stroke-width="0.00271"></path>
<path d="M1.615 0.583 Q1.407 0.451 1.104 0.523" stroke="hsl(180.0,100%,35%)" stroke-width="0.00271"></path>
<path d="M1.508 0.304 Q1.611 0.404 1.829 0.376" stroke="hsl(180.0,100%,35%)" stroke-width="0.00543"></path>
<path d="M1.508 0.304 Q1.453 0.401 1.631 0.450" stroke="hsl(180.0,100%,35%)" stroke-width="0.00271"></path>
<path d="M1.508 0.304 Q1.342 0.280 1.258 0.355" stroke="hsl(180.0,100%,35%)" stroke-width="0.01899"></path>
<path d="M1.508 0.304 Q0.610 0.315 0.433 0.755" stroke="hsl(180.0,100%,35%)" stroke-width="0.00543"></path>
<path d="M1.508 0.304 Q0.774 0.566 1.124 0.982" stroke="hsl(180.0,100%,35%)" stroke-width="0.00543"></path>
<path d="M1.508 0.304 Q1.039 0.128 0.593 0.319" stroke="hsl(180.0,100%,35%)" stroke-width="0.00271"></path>
<path d="M1.404 0.913 Q1.602 0.941 1.698 0.850" stroke="hsl(0.0,100%,35%)" stroke-width="0.00271"></path>
<path d="M1.404 0.913 Q1.549 0.326 0.434 0.126" stroke="hsl(0.0,100%,35%)" stroke-width="0.00271"></path>
<path d="M1.404 0.913 Q1.332 0.511 0.532 0.458" stroke="hsl(0.0,100%,35%)" stroke-width="0.00271"></path>
<path d="M1.404 0.913 Q1.362 0.923 1.372 0.946" stroke="hsl(0.0,100%,35%)" stroke-width="0.00543"></path>
<path d="M1.404 0.913 Q1.544 0.878 1.504 0.801" stroke="hsl(0.0,100%,35%)" stroke-width="0.00543"></path>
<path d="M1.404 0.913 Q1.546 0.790 1.335 0.694" stroke="hsl(0.0,100%,35%)" stroke-width="0.00543"></path>
<path d="M1.404 0.913 Q1.607 0.421 0.690 0.213" stroke="hsl(0.0,100%,35%)" stroke-width="0.00543"></path>
<path d="M0.872 0.353 Q0.852 0.485 1.104 0.523" stroke="hsl(180.0,100%,35%)" stroke-width="0.00271"></path>
<path d="M0.872 0.353 Q0.690 0.740 1.404 0.913" stroke="hsl(180.0,100%,35%)" stroke-width="0.00271"></path>
<path d="M0.872 0.353 Q1.064 0.431 1.258 0.355" stroke="hsl(180.0,100%,35%)" stroke-width="0.00271"></path>
<path d="M1.095 0.002 Q0.083 0.393 0.623 0.973" stroke="hsl(180.0,100%,35%)" stroke-width="0.00271"></path>
<path d="M1.095 0.002 Q1.163 0.336 1.829 0.376" stroke="hsl(180.0,100%,35%)" stroke-width="0.00271"></path>
<path d="M1.095 0.002 Q0.894 0.211 1.258 0.355" stroke="hsl(180.0,100%,35%)" stroke-width="0.00271"></path>
<path d="M1.712 0.715 Q1.597 0.780 1.698 0.850" stroke="hsl(0.0,100%,35%)" stroke-width="0.01085"></path>
<path d="M1.712 0.715 Q1.773 0.444 1.258 0.355" stroke="hsl(0.0,100%,35%)" stroke-width="0.01085"></path>
<path d="M1.712 0.715 Q1.561 0.498 1.104 0.523" stroke="hsl(0.0,100%,35%)" stroke-width="0.00543"></path>
</g>
<text x="0.434" y="0.088" font-size="0.075913" fill="hsl(0.0,100%,20%)">arthursonzogni</text>
<text x="1.335" y="0.681" font-size="0.026038" fill="hsl(0.0,100%,20%)">dcheng</text>
<text x="1.034" y="0.843" font-size="0.067648" fill="hsl(180.0,100%,20%)">bartekn</text>
<text x="0.690" y="0.185" font-size="0.056748" fill="hsl(0.0,100%,20%)">danakj</text>
<text x="0.114" y="0.274" font-size="0.009206" fill="hsl(0.0,100%,20%)">ashleynewson</text>
<text x="1.258" y="0.318" font-size="0.073646" fill="hsl(180.0,100%,20%)">tasak</text>
<text x="1.104" y="0.495" font-size="0.057490" fill="hsl(180.0,100%,20%)">keishi</text>
<text x="1.381" y="0.517" font-size="0.029111" fill="hsl(180.0,100%,20%)">lizeb</text>
<text x="1.124" y="0.956" font-size="0.052076" fill="hsl(180.0,100%,20%)">mikt</text>
<text x="0.222" y="0.135" font-size="0.018411" fill="hsl(0.0,100%,20%)">blundell</text>
<text x="1.698" y="0.836" font-size="0.029111" fill="hsl(0.0,100%,20%)">haraken</text>
<text x="0.433" y="0.742" font-size="0.026038" fill="hsl(180.0,100%,20%)">glazunov</text>
<text x="0.422" y="0.219" font-size="0.013019" fill="hsl(0.0,100%,20%)">wez</text>
<text x="1.347" y="0.130" font-size="0.053678" fill="hsl(180.0,100%,20%)">kdlee</text>
<text x="0.820" y="0.017" font-size="0.015945" fill="hsl(180.0,100%,20%)">bwwilliams</text>
<text x="0.993" y="0.049" font-size="0.009206" fill="hsl(180.0,100%,20%)">ajuma</text>
<text x="1.019" y="0.126" font-size="0.009206" fill="hsl(180.0,100%,20%)">noyau</text>
<text x="0.532" y="0.449" font-size="0.018411" fill="hsl(180.0,100%,20%)">hans</text>
<text x="0.593" y="0.311" font-size="0.015945" fill="hsl(0.0,100%,20%)">mark</text>
<text x="1.029" y="0.370" font-size="0.013019" fill="hsl(0.0,100%,20%)">avi</text>
<text x="0.993" y="0.156" font-size="0.009206" fill="hsl(0.0,100%,20%)">adetaylor</text>
<text x="0.881" y="0.138" font-size="0.009206" fill="hsl(0.0,100%,20%)">lukasza</text>
<text x="0.874" y="0.620" font-size="0.009206" fill="hsl(180.0,100%,20%)">wittman</text>
<text x="0.750" y="0.513" font-size="0.009206" fill="hsl(180.0,100%,20%)">qjw</text>
<text x="1.615" y="0.573" font-size="0.020585" fill="hsl(180.0,100%,20%)">sky</text>
<text x="1.508" y="0.278" font-size="0.052076" fill="hsl(180.0,100%,20%)">yukishiino</text>
<text x="1.829" y="0.367" font-size="0.018411" fill="hsl(180.0,100%,20%)">mpdenton</text>
<text x="0.971" y="0.752" font-size="0.009206" fill="hsl(180.0,100%,20%)">dpranke</text>
<text x="0.865" y="0.966" font-size="0.009206" fill="hsl(180.0,100%,20%)">jwata</text>
<text x="0.762" y="0.900" font-size="0.009206" fill="hsl(180.0,100%,20%)">kouhei</text>
<text x="0.623" y="0.966" font-size="0.013019" fill="hsl(180.0,100%,20%)">mlippautz</text>
<text x="0.518" y="0.956" font-size="0.009206" fill="hsl(180.0,100%,20%)">rogerm</text>
<text x="1.404" y="0.898" font-size="0.031890" fill="hsl(0.0,100%,20%)">pkasting</text>
<text x="1.372" y="0.939" font-size="0.013019" fill="hsl(180.0,100%,20%)">jbroman</text>
<text x="1.504" y="0.795" font-size="0.013019" fill="hsl(180.0,100%,20%)">thestig</text>
<text x="0.872" y="0.345" font-size="0.015945" fill="hsl(180.0,100%,20%)">rsworktech</text>
<text x="1.095" y="-0.006" font-size="0.015945" fill="hsl(180.0,100%,20%)">sroettger</text>
<text x="1.011" y="0.229" font-size="0.009206" fill="hsl(180.0,100%,20%)">thakis</text>
<text x="0.892" y="0.408" font-size="0.009206" fill="hsl(180.0,100%,20%)">ahijazi</text>
<text x="1.712" y="0.700" font-size="0.029111" fill="hsl(0.0,100%,20%)">tpearson</text>
<text x="1.631" y="0.445" font-size="0.009206" fill="hsl(180.0,100%,20%)">wfh</text>
</svg>
