<svg width="4000" height="2000" viewBox="-0.025 -0.025 2.05 1.05" xmlns="http://www.w3.org/2000/svg">
  <style>
    path {
      fill: none;
      stroke-linecap: round;
      stroke-opacity: 0.4;
    }

    text {
      text-anchor: middle;
      alignment-baseline: hanging;
    }
  </style>
  <g opacity="0.4">
<path d="M0.113 0.662 Q0.245 0.656 0.263 0.590" stroke="hsl(0.0,100%,35%)" stroke-width="0.00252"></path>
<path d="M0.113 0.662 Q0.945 0.965 1.720 0.625" stroke="hsl(0.0,100%,35%)" stroke-width="0.00252"></path>
<path d="M0.113 0.662 Q0.173 0.601 0.069 0.559" stroke="hsl(0.0,100%,35%)" stroke-width="0.00252"></path>
<path d="M1.720 0.625 Q1.270 0.640 1.200 0.863" stroke="hsl(0.0,100%,35%)" stroke-width="0.00252"></path>
<path d="M1.720 0.625 Q1.485 0.679 1.538 0.805" stroke="hsl(0.0,100%,35%)" stroke-width="0.00252"></path>
<path d="M1.720 0.625 Q1.429 0.725 1.561 0.889" stroke="hsl(0.0,100%,35%)" stroke-width="0.00252"></path>
<path d="M1.720 0.625 Q1.355 0.056 0.164 0.110" stroke="hsl(0.0,100%,35%)" stroke-width="0.00252"></path>
<path d="M0.244 0.906 Q0.757 1.075 1.200 0.863" stroke="hsl(0.0,100%,35%)" stroke-width="0.05033"></path>
<path d="M0.244 0.906 Q0.351 1.004 0.566 0.973" stroke="hsl(0.0,100%,35%)" stroke-width="0.01258"></path>
<path d="M0.244 0.906 Q0.972 1.114 1.538 0.805" stroke="hsl(0.0,100%,35%)" stroke-width="0.01762"></path>
<path d="M0.244 0.906 Q0.627 0.825 0.555 0.621" stroke="hsl(0.0,100%,35%)" stroke-width="0.00252"></path>
<path d="M0.244 0.906 Q1.152 0.973 1.482 0.545" stroke="hsl(0.0,100%,35%)" stroke-width="0.00252"></path>
<path d="M0.244 0.906 Q0.916 0.994 1.236 0.686" stroke="hsl(0.0,100%,35%)" stroke-width="0.00503"></path>
<path d="M0.566 0.973 Q0.459 0.875 0.244 0.906" stroke="hsl(0.0,100%,35%)" stroke-width="0.04530"></path>
<path d="M0.566 0.973 Q0.972 1.045 1.200 0.863" stroke="hsl(0.0,100%,35%)" stroke-width="0.04530"></path>
<path d="M0.566 0.973 Q0.777 0.978 0.833 0.876" stroke="hsl(0.0,100%,35%)" stroke-width="0.00503"></path>
<path d="M0.566 0.973 Q1.187 1.083 1.538 0.805" stroke="hsl(0.0,100%,35%)" stroke-width="0.02265"></path>
<path d="M1.538 0.805 Q1.323 0.766 1.200 0.863" stroke="hsl(0.0,100%,35%)" stroke-width="0.13085"></path>
<path d="M1.538 0.805 Q1.482 0.851 1.561 0.889" stroke="hsl(0.0,100%,35%)" stroke-width="0.03020"></path>
<path d="M1.538 0.805 Q1.128 0.699 0.833 0.876" stroke="hsl(0.0,100%,35%)" stroke-width="0.00755"></path>
<path d="M1.538 0.805 Q0.810 0.596 0.244 0.906" stroke="hsl(0.0,100%,35%)" stroke-width="0.03271"></path>
<path d="M1.538 0.805 Q0.917 0.695 0.566 0.973" stroke="hsl(0.0,100%,35%)" stroke-width="0.00755"></path>
<path d="M1.538 0.805 Q1.578 0.907 1.785 0.910" stroke="hsl(0.0,100%,35%)" stroke-width="0.00252"></path>
<path d="M1.538 0.805 Q1.238 0.786 1.136 0.929" stroke="hsl(0.0,100%,35%)" stroke-width="0.00503"></path>
<path d="M1.538 0.805 Q1.718 0.663 1.482 0.545" stroke="hsl(0.0,100%,35%)" stroke-width="0.00755"></path>
<path d="M1.538 0.805 Q1.619 0.728 1.487 0.671" stroke="hsl(0.0,100%,35%)" stroke-width="0.00252"></path>
<path d="M1.538 0.805 Q1.482 0.685 1.236 0.686" stroke="hsl(0.0,100%,35%)" stroke-width="0.00503"></path>
<path d="M1.538 0.805 Q1.495 0.705 1.291 0.704" stroke="hsl(0.0,100%,35%)" stroke-width="0.00252"></path>
<path d="M1.235 0.546 Q0.451 0.528 0.244 0.906" stroke="hsl(0.0,100%,35%)" stroke-width="0.00503"></path>
<path d="M1.235 0.546 Q0.964 0.697 1.200 0.863" stroke="hsl(0.0,100%,35%)" stroke-width="0.00755"></path>
<path d="M1.235 0.546 Q1.180 0.736 1.538 0.805" stroke="hsl(0.0,100%,35%)" stroke-width="0.00755"></path>
<path d="M1.235 0.546 Q1.207 0.412 0.941 0.397" stroke="hsl(0.0,100%,35%)" stroke-width="0.00252"></path>
<path d="M0.403 0.760 Q0.590 0.720 0.555 0.621" stroke="hsl(180.0,100%,35%)" stroke-width="0.00252"></path>
<path d="M0.403 0.760 Q0.558 0.808 0.688 0.744" stroke="hsl(180.0,100%,35%)" stroke-width="0.00252"></path>
<path d="M0.403 0.760 Q0.236 0.718 0.118 0.790" stroke="hsl(180.0,100%,35%)" stroke-width="0.00252"></path>
<path d="M1.202 0.930 Q0.742 0.726 0.244 0.906" stroke="hsl(0.0,100%,35%)" stroke-width="0.00755"></path>
<path d="M1.202 0.930 Q1.255 0.896 1.200 0.863" stroke="hsl(0.0,100%,35%)" stroke-width="0.01007"></path>
<path d="M1.202 0.930 Q1.471 0.935 1.538 0.805" stroke="hsl(0.0,100%,35%)" stroke-width="0.00755"></path>
<path d="M0.185 0.269 Q0.303 0.185 0.164 0.110" stroke="hsl(0.0,100%,35%)" stroke-width="0.00503"></path>
<path d="M0.185 0.269 Q0.407 0.340 0.594 0.247" stroke="hsl(0.0,100%,35%)" stroke-width="0.00252"></path>
<path d="M0.185 0.269 Q0.421 0.232 0.401 0.109" stroke="hsl(0.0,100%,35%)" stroke-width="0.00252"></path>
<path d="M0.314 0.411 Q0.396 0.814 1.200 0.863" stroke="hsl(0.0,100%,35%)" stroke-width="0.00252"></path>
<path d="M0.314 0.411 Q0.496 0.441 0.595 0.359" stroke="hsl(0.0,100%,35%)" stroke-width="0.00252"></path>
<path d="M0.314 0.411 Q0.611 0.853 1.538 0.805" stroke="hsl(0.0,100%,35%)" stroke-width="0.00252"></path>
<path d="M0.314 0.411 Q0.555 0.899 1.561 0.889" stroke="hsl(0.0,100%,35%)" stroke-width="0.00252"></path>
<path d="M0.314 0.411 Q0.555 0.733 1.236 0.686" stroke="hsl(0.0,100%,35%)" stroke-width="0.00252"></path>
</g>
<text x="0.113" y="0.654" font-size="0.016744" fill="hsl(0.0,100%,20%)">avi</text>
<text x="0.263" y="0.585" font-size="0.009667" fill="hsl(0.0,100%,20%)">asvitkine</text>
<text x="1.720" y="0.615" font-size="0.021617" fill="hsl(0.0,100%,20%)">mark</text>
<text x="0.069" y="0.554" font-size="0.009667" fill="hsl(0.0,100%,20%)">rsesek</text>
<text x="0.244" y="0.865" font-size="0.082030" fill="hsl(0.0,100%,20%)">bartekn</text>
<text x="1.200" y="0.814" font-size="0.096189" fill="hsl(0.0,100%,20%)">haraken</text>
<text x="0.566" y="0.937" font-size="0.071695" fill="hsl(0.0,100%,20%)">tasak</text>
<text x="1.538" y="0.752" font-size="0.104569" fill="hsl(0.0,100%,20%)">lizeb</text>
<text x="0.555" y="0.614" font-size="0.013672" fill="hsl(0.0,100%,20%)">dcheng</text>
<text x="1.482" y="0.535" font-size="0.019335" fill="hsl(0.0,100%,20%)">pasko</text>
<text x="1.236" y="0.675" font-size="0.021617" fill="hsl(0.0,100%,20%)">tsepez</text>
<text x="1.235" y="0.531" font-size="0.029002" fill="hsl(0.0,100%,20%)">bikineev</text>
<text x="0.941" y="0.392" font-size="0.009667" fill="hsl(0.0,100%,20%)">mlippautz</text>
<text x="0.403" y="0.751" font-size="0.016744" fill="hsl(180.0,100%,20%)">eseckler</text>
<text x="0.688" y="0.739" font-size="0.009667" fill="hsl(180.0,100%,20%)">gab</text>
<text x="0.118" y="0.785" font-size="0.009667" fill="hsl(180.0,100%,20%)">skyostil</text>
<text x="1.202" y="0.915" font-size="0.030571" fill="hsl(0.0,100%,20%)">glazunov</text>
<text x="0.185" y="0.260" font-size="0.019335" fill="hsl(0.0,100%,20%)">hans</text>
<text x="0.164" y="0.101" font-size="0.016744" fill="hsl(0.0,100%,20%)">thakis</text>
<text x="0.594" y="0.243" font-size="0.009667" fill="hsl(0.0,100%,20%)">kylechar</text>
<text x="0.401" y="0.104" font-size="0.009667" fill="hsl(0.0,100%,20%)">mpdenton</text>
<text x="1.561" y="0.871" font-size="0.036172" fill="hsl(0.0,100%,20%)">palmer</text>
<text x="0.833" y="0.865" font-size="0.021617" fill="hsl(0.0,100%,20%)">yukishiino</text>
<text x="1.785" y="0.905" font-size="0.009667" fill="hsl(0.0,100%,20%)">wez</text>
<text x="1.136" y="0.922" font-size="0.013672" fill="hsl(0.0,100%,20%)">wfh</text>
<text x="1.487" y="0.666" font-size="0.009667" fill="hsl(0.0,100%,20%)">alexilin</text>
<text x="1.291" y="0.699" font-size="0.009667" fill="hsl(0.0,100%,20%)">ajwong</text>
<text x="0.314" y="0.400" font-size="0.021617" fill="hsl(0.0,100%,20%)">ulan</text>
<text x="0.595" y="0.354" font-size="0.009667" fill="hsl(0.0,100%,20%)">hpayer</text>
</svg>
