<svg width="4000" height="2000" viewBox="-0.025 -0.025 2.05 1.05" xmlns="http://www.w3.org/2000/svg">
  <style>
    path {
      fill: none;
      stroke-linecap: round;
      stroke-opacity: 0.4;
    }

    text {
      text-anchor: middle;
      alignment-baseline: hanging;
    }
  </style>
  <g opacity="0.4">
<path d="M1.515 0.516 Q0.866 0.561 0.813 0.888" stroke="hsl(0.0,100%,35%)" stroke-width="0.01347"></path>
<path d="M1.515 0.516 Q1.282 0.524 1.249 0.640" stroke="hsl(0.0,100%,35%)" stroke-width="0.00025"></path>
<path d="M1.515 0.516 Q1.385 0.307 0.949 0.325" stroke="hsl(0.0,100%,35%)" stroke-width="0.00025"></path>
<path d="M0.813 0.888 Q1.230 0.851 1.249 0.640" stroke="hsl(0.0,100%,35%)" stroke-width="0.15603"></path>
<path d="M0.813 0.888 Q1.020 0.832 0.956 0.719" stroke="hsl(0.0,100%,35%)" stroke-width="0.00152"></path>
<path d="M0.813 0.888 Q1.415 1.024 1.813 0.760" stroke="hsl(0.0,100%,35%)" stroke-width="0.00661"></path>
<path d="M0.813 0.888 Q1.332 0.633 0.949 0.325" stroke="hsl(0.0,100%,35%)" stroke-width="0.01703"></path>
<path d="M0.813 0.888 Q0.915 0.776 0.720 0.702" stroke="hsl(0.0,100%,35%)" stroke-width="0.00203"></path>
<path d="M1.249 0.640 Q0.832 0.677 0.813 0.888" stroke="hsl(0.0,100%,35%)" stroke-width="0.08539"></path>
<path d="M1.249 0.640 Q1.044 0.463 0.654 0.524" stroke="hsl(0.0,100%,35%)" stroke-width="0.00025"></path>
</g>
<text x="1.515" y="0.500" font-size="0.031438" fill="hsl(0.0,100%,20%)">awscreen</text>
<text x="0.813" y="0.818" font-size="0.141231" fill="hsl(0.0,100%,20%)">thestig</text>
<text x="1.249" y="0.574" font-size="0.130793" fill="hsl(0.0,100%,20%)">tsepez</text>
<text x="0.949" y="0.307" font-size="0.034956" fill="hsl(0.0,100%,20%)">nigi</text>
<text x="0.956" y="0.714" font-size="0.010383" fill="hsl(0.0,100%,20%)">bungeman</text>
<text x="1.813" y="0.750" font-size="0.021615" fill="hsl(0.0,100%,20%)">drott</text>
<text x="0.720" y="0.696" font-size="0.011990" fill="hsl(0.0,100%,20%)">dsinclair</text>
<text x="0.654" y="0.522" font-size="0.004239" fill="hsl(0.0,100%,20%)">thakis</text>
</svg>
