<svg width="4000" height="2000" viewBox="-0.025 -0.025 2.05 1.05" xmlns="http://www.w3.org/2000/svg">
  <style>
    path {
      fill: none;
      stroke-linecap: round;
      stroke-opacity: 0.4;
    }

    text {
      text-anchor: middle;
      alignment-baseline: hanging;
    }
  </style>
  <g opacity="0.4">
<path d="M1.488 0.666 Q1.340 0.780 1.529 0.877" stroke="hsl(0.0,100%,35%)" stroke-width="0.00288"></path>
<path d="M1.488 0.666 Q1.268 0.670 1.229 0.778" stroke="hsl(0.0,100%,35%)" stroke-width="0.00224"></path>
<path d="M1.488 0.666 Q1.325 0.851 1.651 0.971" stroke="hsl(0.0,100%,35%)" stroke-width="0.00032"></path>
<path d="M1.529 0.877 Q1.515 0.948 1.651 0.971" stroke="hsl(0.0,100%,35%)" stroke-width="0.15342"></path>
<path d="M1.529 0.877 Q1.177 0.827 1.002 0.987" stroke="hsl(0.0,100%,35%)" stroke-width="0.00991"></path>
<path d="M1.529 0.877 Q1.458 0.768 1.229 0.778" stroke="hsl(0.0,100%,35%)" stroke-width="0.01950"></path>
<path d="M1.529 0.877 Q1.373 0.893 1.370 0.972" stroke="hsl(0.0,100%,35%)" stroke-width="0.00128"></path>
<path d="M1.529 0.877 Q1.605 0.711 1.298 0.638" stroke="hsl(0.0,100%,35%)" stroke-width="0.00160"></path>
<path d="M1.529 0.877 Q1.410 0.720 1.079 0.744" stroke="hsl(0.0,100%,35%)" stroke-width="0.00032"></path>
<path d="M1.529 0.877 Q1.433 0.674 1.016 0.676" stroke="hsl(0.0,100%,35%)" stroke-width="0.00032"></path>
<path d="M1.529 0.877 Q0.287 1.508 1.246 2.252" stroke="hsl(0.0,100%,35%)" stroke-width="0.00064"></path>
<path d="M1.529 0.877 Q1.290 0.850 1.186 0.960" stroke="hsl(0.0,100%,35%)" stroke-width="0.00032"></path>
<path d="M1.529 0.877 Q1.221 0.906 1.211 1.063" stroke="hsl(0.0,100%,35%)" stroke-width="0.00447"></path>
<path d="M1.529 0.877 Q1.701 0.591 1.180 0.444" stroke="hsl(0.0,100%,35%)" stroke-width="0.00224"></path>
<path d="M1.529 0.877 Q1.778 0.881 1.841 0.761" stroke="hsl(0.0,100%,35%)" stroke-width="0.00064"></path>
<path d="M1.529 0.877 Q1.595 0.741 1.344 0.679" stroke="hsl(0.0,100%,35%)" stroke-width="0.00064"></path>
<path d="M1.529 0.877 Q1.234 0.747 0.915 0.862" stroke="hsl(0.0,100%,35%)" stroke-width="0.00032"></path>
<path d="M1.229 0.778 Q1.300 0.888 1.529 0.877" stroke="hsl(0.0,100%,35%)" stroke-width="0.01470"></path>
<path d="M1.229 0.778 Q1.286 0.959 1.651 0.971" stroke="hsl(0.0,100%,35%)" stroke-width="0.00192"></path>
<path d="M1.229 0.778 Q1.708 0.706 1.673 0.457" stroke="hsl(0.0,100%,35%)" stroke-width="0.00032"></path>
<path d="M1.651 0.971 Q1.666 0.900 1.529 0.877" stroke="hsl(0.0,100%,35%)" stroke-width="0.15661"></path>
<path d="M1.651 0.971 Q1.594 0.790 1.229 0.778" stroke="hsl(0.0,100%,35%)" stroke-width="0.00128"></path>
<path d="M1.651 0.971 Q1.837 0.613 1.180 0.444" stroke="hsl(0.0,100%,35%)" stroke-width="0.00032"></path>
<path d="M1.002 0.987 Q1.354 1.037 1.529 0.877" stroke="hsl(0.0,100%,35%)" stroke-width="0.03548"></path>
<path d="M1.002 0.987 Q1.339 1.109 1.651 0.971" stroke="hsl(0.0,100%,35%)" stroke-width="0.00032"></path>
<path d="M1.002 0.987 Q1.602 1.042 1.841 0.761" stroke="hsl(0.0,100%,35%)" stroke-width="0.00032"></path>
</g>
<text x="1.488" y="0.658" font-size="0.016235" fill="hsl(0.0,100%,20%)">awscreen</text>
<text x="1.529" y="0.807" font-size="0.140210" fill="hsl(0.0,100%,20%)">thestig</text>
<text x="1.229" y="0.756" font-size="0.044023" fill="hsl(0.0,100%,20%)">dhoss</text>
<text x="1.651" y="0.910" font-size="0.123452" fill="hsl(0.0,100%,20%)">tsepez</text>
<text x="1.673" y="0.455" font-size="0.003937" fill="hsl(0.0,100%,20%)">thomasanderson</text>
<text x="1.002" y="0.964" font-size="0.047250" fill="hsl(0.0,100%,20%)">nigi</text>
<text x="1.841" y="0.757" font-size="0.006820" fill="hsl(0.0,100%,20%)">reed</text>
<text x="1.370" y="0.968" font-size="0.007875" fill="hsl(0.0,100%,20%)">bungeman</text>
<text x="1.298" y="0.634" font-size="0.008805" fill="hsl(0.0,100%,20%)">thakis</text>
<text x="1.079" y="0.742" font-size="0.003937" fill="hsl(0.0,100%,20%)">brucedawson</text>
<text x="1.016" y="0.674" font-size="0.003937" fill="hsl(0.0,100%,20%)">drott</text>
<text x="1.246" y="2.250" font-size="0.005568" fill="hsl(0.0,100%,20%)">rbpotter</text>
<text x="1.186" y="0.958" font-size="0.003937" fill="hsl(0.0,100%,20%)">rharrison</text>
<text x="1.211" y="1.056" font-size="0.014733" fill="hsl(0.0,100%,20%)">hnakashima</text>
<text x="1.180" y="0.439" font-size="0.011137" fill="hsl(0.0,100%,20%)">dsinclair</text>
<text x="1.344" y="0.676" font-size="0.005568" fill="hsl(0.0,100%,20%)">palmer</text>
<text x="0.915" y="0.860" font-size="0.003937" fill="hsl(0.0,100%,20%)">npm</text>
</svg>
