<svg width="4000" height="2000" viewBox="-0.025 -0.025 2.05 1.05" xmlns="http://www.w3.org/2000/svg">
  <style>
    path {
      fill: none;
      stroke-linecap: round;
      stroke-opacity: 0.4;
    }

    text {
      text-anchor: middle;
      alignment-baseline: hanging;
    }
  </style>
  <g opacity="0.4">
<path d="M1.292 0.869 Q1.550 0.850 1.569 0.720" stroke="hsl(0.0,100%,35%)" stroke-width="0.00090"></path>
<path d="M1.292 0.869 Q1.464 1.012 1.782 0.960" stroke="hsl(0.0,100%,35%)" stroke-width="0.00239"></path>
<path d="M1.292 0.869 Q1.342 0.823 1.264 0.789" stroke="hsl(0.0,100%,35%)" stroke-width="0.00388"></path>
<path d="M1.292 0.869 Q1.640 0.686 1.361 0.476" stroke="hsl(0.0,100%,35%)" stroke-width="0.00030"></path>
<path d="M1.569 0.720 Q1.483 0.883 1.782 0.960" stroke="hsl(0.0,100%,35%)" stroke-width="0.15827"></path>
<path d="M1.569 0.720 Q1.361 0.694 1.264 0.789" stroke="hsl(0.0,100%,35%)" stroke-width="0.01105"></path>
<path d="M1.569 0.720 Q1.312 0.739 1.292 0.869" stroke="hsl(0.0,100%,35%)" stroke-width="0.01881"></path>
<path d="M1.782 0.960 Q1.610 0.817 1.292 0.869" stroke="hsl(0.0,100%,35%)" stroke-width="0.01224"></path>
<path d="M1.782 0.960 Q1.868 0.798 1.569 0.720" stroke="hsl(0.0,100%,35%)" stroke-width="0.06630"></path>
<path d="M1.782 0.960 Q1.660 0.771 1.264 0.789" stroke="hsl(0.0,100%,35%)" stroke-width="0.02598"></path>
<path d="M1.782 0.960 Q1.480 0.388 0.296 0.410" stroke="hsl(0.0,100%,35%)" stroke-width="0.00060"></path>
<path d="M1.782 0.960 Q1.607 0.910 1.471 0.985" stroke="hsl(0.0,100%,35%)" stroke-width="0.00030"></path>
<path d="M1.264 0.789 Q1.386 0.978 1.782 0.960" stroke="hsl(0.0,100%,35%)" stroke-width="0.01254"></path>
<path d="M1.264 0.789 Q1.563 0.652 1.361 0.476" stroke="hsl(0.0,100%,35%)" stroke-width="0.00030"></path>
<path d="M1.264 0.789 Q1.215 0.835 1.292 0.869" stroke="hsl(0.0,100%,35%)" stroke-width="0.01195"></path>
<path d="M1.264 0.789 Q1.241 0.914 1.478 0.952" stroke="hsl(0.0,100%,35%)" stroke-width="0.00119"></path>
<path d="M1.264 0.789 Q1.472 0.816 1.569 0.720" stroke="hsl(0.0,100%,35%)" stroke-width="0.00090"></path>
<path d="M1.264 0.789 Q1.339 0.637 1.058 0.567" stroke="hsl(0.0,100%,35%)" stroke-width="0.00030"></path>
<path d="M1.806 0.471 Q1.280 0.522 1.264 0.789" stroke="hsl(0.0,100%,35%)" stroke-width="0.00866"></path>
<path d="M1.806 0.471 Q1.402 0.711 1.782 0.960" stroke="hsl(0.0,100%,35%)" stroke-width="0.00119"></path>
<path d="M1.806 0.471 Q1.230 0.567 1.292 0.869" stroke="hsl(0.0,100%,35%)" stroke-width="0.00179"></path>
<path d="M1.806 0.471 Q1.579 0.385 1.361 0.476" stroke="hsl(0.0,100%,35%)" stroke-width="0.00030"></path>
<path d="M1.806 0.471 Q1.488 0.548 1.569 0.720" stroke="hsl(0.0,100%,35%)" stroke-width="0.00030"></path>
<path d="M0.296 0.410 Q0.598 0.982 1.782 0.960" stroke="hsl(0.0,100%,35%)" stroke-width="0.00090"></path>
<path d="M0.296 0.410 Q0.792 0.429 0.939 0.192" stroke="hsl(0.0,100%,35%)" stroke-width="0.00030"></path>
<path d="M0.296 0.410 Q0.684 0.819 1.569 0.720" stroke="hsl(0.0,100%,35%)" stroke-width="0.00030"></path>
<path d="M0.663 0.794 Q1.089 1.101 1.782 0.960" stroke="hsl(0.0,100%,35%)" stroke-width="0.00149"></path>
<path d="M0.663 0.794 Q1.175 0.938 1.569 0.720" stroke="hsl(0.0,100%,35%)" stroke-width="0.00269"></path>
<path d="M0.663 0.794 Q0.918 0.957 1.292 0.869" stroke="hsl(0.0,100%,35%)" stroke-width="0.00030"></path>
</g>
<text x="1.292" y="0.841" font-size="0.055086" fill="hsl(0.0,100%,20%)">dhoss</text>
<text x="1.569" y="0.659" font-size="0.122404" fill="hsl(0.0,100%,20%)">tsepez</text>
<text x="1.782" y="0.897" font-size="0.127644" fill="hsl(0.0,100%,20%)">thestig</text>
<text x="1.264" y="0.756" font-size="0.066566" fill="hsl(0.0,100%,20%)">nigi</text>
<text x="1.361" y="0.473" font-size="0.007192" fill="hsl(0.0,100%,20%)">bungeman</text>
<text x="1.806" y="0.457" font-size="0.026588" fill="hsl(0.0,100%,20%)">kmoon</text>
<text x="1.478" y="0.948" font-size="0.008305" fill="hsl(0.0,100%,20%)">weili</text>
<text x="1.058" y="0.565" font-size="0.004152" fill="hsl(0.0,100%,20%)">dsinclair</text>
<text x="0.296" y="0.404" font-size="0.010986" fill="hsl(0.0,100%,20%)">pkasting</text>
<text x="0.939" y="0.190" font-size="0.004152" fill="hsl(0.0,100%,20%)">npm</text>
<text x="1.471" y="0.983" font-size="0.004152" fill="hsl(0.0,100%,20%)">thomasanderson</text>
<text x="0.663" y="0.786" font-size="0.016082" fill="hsl(0.0,100%,20%)">vmiklos</text>
</svg>
