<svg width="4000" height="2000" viewBox="-0.025 -0.025 2.05 1.05" xmlns="http://www.w3.org/2000/svg">
  <style>
    path {
      fill: none;
      stroke-linecap: round;
      stroke-opacity: 0.4;
    }

    text {
      text-anchor: middle;
      alignment-baseline: hanging;
    }
  </style>
  <g opacity="0.4">
<path d="M0.874 0.746 Q0.535 0.883 0.728 1.078" stroke="hsl(0.0,100%,35%)" stroke-width="0.00529"></path>
<path d="M0.874 0.746 Q0.739 0.894 0.997 0.992" stroke="hsl(0.0,100%,35%)" stroke-width="0.00022"></path>
<path d="M0.874 0.746 Q0.890 0.825 1.048 0.835" stroke="hsl(0.0,100%,35%)" stroke-width="0.00093"></path>
<path d="M0.728 1.078 Q0.932 1.089 0.997 0.992" stroke="hsl(0.0,100%,35%)" stroke-width="0.15258"></path>
<path d="M0.728 1.078 Q0.948 0.978 0.800 0.849" stroke="hsl(0.0,100%,35%)" stroke-width="0.00158"></path>
<path d="M0.728 1.078 Q1.035 1.032 1.012 0.872" stroke="hsl(0.0,100%,35%)" stroke-width="0.00164"></path>
<path d="M0.728 1.078 Q1.083 1.020 1.048 0.835" stroke="hsl(0.0,100%,35%)" stroke-width="0.02958"></path>
<path d="M0.728 1.078 Q1.223 1.134 1.440 0.905" stroke="hsl(0.0,100%,35%)" stroke-width="0.00360"></path>
<path d="M0.728 1.078 Q1.423 0.727 0.890 0.312" stroke="hsl(0.0,100%,35%)" stroke-width="0.00033"></path>
<path d="M0.728 1.078 Q0.897 0.958 0.699 0.849" stroke="hsl(0.0,100%,35%)" stroke-width="0.00087"></path>
<path d="M0.728 1.078 Q1.089 0.967 0.950 0.766" stroke="hsl(0.0,100%,35%)" stroke-width="0.00655"></path>
<path d="M0.728 1.078 Q1.254 0.992 1.202 0.717" stroke="hsl(0.0,100%,35%)" stroke-width="0.00055"></path>
<path d="M0.728 1.078 Q0.914 0.980 0.762 0.868" stroke="hsl(0.0,100%,35%)" stroke-width="0.00033"></path>
<path d="M0.728 1.078 Q1.458 0.608 0.700 0.149" stroke="hsl(0.0,100%,35%)" stroke-width="0.00027"></path>
<path d="M0.728 1.078 Q0.776 0.821 0.285 0.741" stroke="hsl(0.0,100%,35%)" stroke-width="0.00780"></path>
<path d="M0.728 1.078 Q0.957 0.878 0.615 0.722" stroke="hsl(0.0,100%,35%)" stroke-width="0.01424"></path>
<path d="M0.728 1.078 Q0.964 0.808 0.489 0.634" stroke="hsl(0.0,100%,35%)" stroke-width="0.01877"></path>
<path d="M0.728 1.078 Q0.974 1.017 0.908 0.884" stroke="hsl(0.0,100%,35%)" stroke-width="0.00098"></path>
<path d="M0.728 1.078 Q1.062 0.919 0.825 0.721" stroke="hsl(0.0,100%,35%)" stroke-width="0.00065"></path>
<path d="M0.728 1.078 Q0.601 0.837 0.102 0.846" stroke="hsl(0.0,100%,35%)" stroke-width="0.00442"></path>
<path d="M0.728 1.078 Q0.885 0.808 0.390 0.672" stroke="hsl(0.0,100%,35%)" stroke-width="0.00044"></path>
<path d="M0.728 1.078 Q1.201 0.723 0.612 0.415" stroke="hsl(0.0,100%,35%)" stroke-width="0.00022"></path>
<path d="M0.728 1.078 Q0.939 0.713 0.271 0.529" stroke="hsl(0.0,100%,35%)" stroke-width="0.00093"></path>
<path d="M0.997 0.992 Q0.794 0.981 0.728 1.078" stroke="hsl(0.0,100%,35%)" stroke-width="0.17027"></path>
<path d="M0.997 0.992 Q1.148 0.923 1.048 0.835" stroke="hsl(0.0,100%,35%)" stroke-width="0.00278"></path>
<path d="M0.997 0.992 Q1.288 1.037 1.440 0.905" stroke="hsl(0.0,100%,35%)" stroke-width="0.00016"></path>
<path d="M0.997 0.992 Q1.154 0.870 0.950 0.766" stroke="hsl(0.0,100%,35%)" stroke-width="0.00366"></path>
<path d="M0.997 0.992 Q1.029 0.711 0.489 0.634" stroke="hsl(0.0,100%,35%)" stroke-width="0.01615"></path>
<path d="M0.997 0.992 Q1.022 0.781 0.615 0.722" stroke="hsl(0.0,100%,35%)" stroke-width="0.00049"></path>
<path d="M0.997 0.992 Q0.841 0.724 0.285 0.741" stroke="hsl(0.0,100%,35%)" stroke-width="0.00033"></path>
<path d="M0.997 0.992 Q0.666 0.740 0.102 0.846" stroke="hsl(0.0,100%,35%)" stroke-width="0.00071"></path>
<path d="M1.048 0.835 Q0.693 0.893 0.728 1.078" stroke="hsl(0.0,100%,35%)" stroke-width="0.02046"></path>
<path d="M1.048 0.835 Q1.188 0.948 1.440 0.905" stroke="hsl(0.0,100%,35%)" stroke-width="0.00218"></path>
<path d="M1.048 0.835 Q0.897 0.903 0.997 0.992" stroke="hsl(0.0,100%,35%)" stroke-width="0.00027"></path>
<path d="M1.048 0.835 Q1.054 0.781 0.950 0.766" stroke="hsl(0.0,100%,35%)" stroke-width="0.00218"></path>
<path d="M1.048 0.835 Q1.219 0.806 1.202 0.717" stroke="hsl(0.0,100%,35%)" stroke-width="0.00022"></path>
<path d="M0.271 0.529 Q0.061 0.895 0.728 1.078" stroke="hsl(0.0,100%,35%)" stroke-width="0.00153"></path>
<path d="M0.271 0.529 Q0.289 0.695 0.615 0.722" stroke="hsl(0.0,100%,35%)" stroke-width="0.00022"></path>
<path d="M0.271 0.529 Q0.264 0.906 0.997 0.992" stroke="hsl(0.0,100%,35%)" stroke-width="0.00027"></path>
<path d="M0.271 0.529 Q0.297 0.625 0.489 0.634" stroke="hsl(0.0,100%,35%)" stroke-width="0.00475"></path>
<path d="M0.615 0.722 Q0.387 0.923 0.728 1.078" stroke="hsl(0.0,100%,35%)" stroke-width="0.00502"></path>
<path d="M0.615 0.722 Q0.435 0.666 0.285 0.741" stroke="hsl(0.0,100%,35%)" stroke-width="0.00535"></path>
<path d="M0.615 0.722 Q0.591 0.933 0.997 0.992" stroke="hsl(0.0,100%,35%)" stroke-width="0.00262"></path>
<path d="M0.615 0.722 Q0.623 0.653 0.489 0.634" stroke="hsl(0.0,100%,35%)" stroke-width="0.00557"></path>
<path d="M0.615 0.722 Q0.259 0.682 0.102 0.846" stroke="hsl(0.0,100%,35%)" stroke-width="0.00098"></path>
<path d="M0.489 0.634 Q0.253 0.904 0.728 1.078" stroke="hsl(0.0,100%,35%)" stroke-width="0.00246"></path>
<path d="M0.489 0.634 Q0.457 0.915 0.997 0.992" stroke="hsl(0.0,100%,35%)" stroke-width="0.02570"></path>
<path d="M0.489 0.634 Q0.482 0.703 0.615 0.722" stroke="hsl(0.0,100%,35%)" stroke-width="0.01512"></path>
<path d="M0.489 0.634 Q0.301 0.647 0.285 0.741" stroke="hsl(0.0,100%,35%)" stroke-width="0.01332"></path>
<path d="M0.489 0.634 Q0.126 0.663 0.102 0.846" stroke="hsl(0.0,100%,35%)" stroke-width="0.01015"></path>
<path d="M0.489 0.634 Q0.726 0.549 0.612 0.415" stroke="hsl(0.0,100%,35%)" stroke-width="0.00027"></path>
<path d="M0.285 0.741 Q0.465 0.798 0.615 0.722" stroke="hsl(0.0,100%,35%)" stroke-width="0.00568"></path>
<path d="M0.285 0.741 Q0.237 0.999 0.728 1.078" stroke="hsl(0.0,100%,35%)" stroke-width="0.00207"></path>
<path d="M0.285 0.741 Q0.441 1.009 0.997 0.992" stroke="hsl(0.0,100%,35%)" stroke-width="0.00404"></path>
<path d="M0.285 0.741 Q0.473 0.729 0.489 0.634" stroke="hsl(0.0,100%,35%)" stroke-width="0.00568"></path>
<path d="M0.285 0.741 Q0.109 0.757 0.102 0.846" stroke="hsl(0.0,100%,35%)" stroke-width="0.00016"></path>
<path d="M0.653 0.817 Q0.481 0.963 0.728 1.078" stroke="hsl(0.0,100%,35%)" stroke-width="0.00224"></path>
<path d="M0.653 0.817 Q0.685 0.973 0.997 0.992" stroke="hsl(0.0,100%,35%)" stroke-width="0.00038"></path>
<path d="M0.653 0.817 Q0.717 0.693 0.489 0.634" stroke="hsl(0.0,100%,35%)" stroke-width="0.00022"></path>
<path d="M1.294 0.724 Q0.727 0.788 0.728 1.078" stroke="hsl(0.0,100%,35%)" stroke-width="0.00660"></path>
<path d="M1.294 0.724 Q1.082 0.730 1.048 0.835" stroke="hsl(0.0,100%,35%)" stroke-width="0.00491"></path>
<path d="M1.294 0.724 Q1.088 0.676 0.950 0.766" stroke="hsl(0.0,100%,35%)" stroke-width="0.00038"></path>
<path d="M0.950 0.766 Q0.589 0.878 0.728 1.078" stroke="hsl(0.0,100%,35%)" stroke-width="0.00404"></path>
<path d="M0.950 0.766 Q0.793 0.888 0.997 0.992" stroke="hsl(0.0,100%,35%)" stroke-width="0.00071"></path>
<path d="M0.950 0.766 Q0.944 0.820 1.048 0.835" stroke="hsl(0.0,100%,35%)" stroke-width="0.00071"></path>
<path d="M1.574 0.815 Q0.940 0.777 0.728 1.078" stroke="hsl(0.0,100%,35%)" stroke-width="0.00022"></path>
<path d="M1.440 0.905 Q0.946 0.849 0.728 1.078" stroke="hsl(0.0,100%,35%)" stroke-width="0.00611"></path>
<path d="M1.440 0.905 Q1.150 0.860 0.997 0.992" stroke="hsl(0.0,100%,35%)" stroke-width="0.00076"></path>
<path d="M1.440 0.905 Q1.301 0.791 1.048 0.835" stroke="hsl(0.0,100%,35%)" stroke-width="0.00955"></path>
<path d="M1.440 0.905 Q1.165 0.749 0.800 0.849" stroke="hsl(0.0,100%,35%)" stroke-width="0.00022"></path>
<path d="M1.440 0.905 Q1.306 0.738 0.950 0.766" stroke="hsl(0.0,100%,35%)" stroke-width="0.00033"></path>
<path d="M0.762 0.868 Q0.576 0.966 0.728 1.078" stroke="hsl(0.0,100%,35%)" stroke-width="0.00016"></path>
<path d="M0.800 0.849 Q0.580 0.949 0.728 1.078" stroke="hsl(0.0,100%,35%)" stroke-width="0.00044"></path>
<path d="M0.102 0.846 Q0.433 1.098 0.997 0.992" stroke="hsl(0.0,100%,35%)" stroke-width="0.00551"></path>
<path d="M0.102 0.846 Q0.229 1.088 0.728 1.078" stroke="hsl(0.0,100%,35%)" stroke-width="0.00273"></path>
<path d="M0.102 0.846 Q0.458 0.887 0.615 0.722" stroke="hsl(0.0,100%,35%)" stroke-width="0.00065"></path>
<path d="M0.102 0.846 Q0.277 0.830 0.285 0.741" stroke="hsl(0.0,100%,35%)" stroke-width="0.00044"></path>
<path d="M0.102 0.846 Q0.465 0.818 0.489 0.634" stroke="hsl(0.0,100%,35%)" stroke-width="0.00835"></path>
<path d="M0.102 0.846 Q0.702 0.732 0.612 0.415" stroke="hsl(0.0,100%,35%)" stroke-width="0.00016"></path>
<path d="M1.402 0.618 Q0.696 0.713 0.728 1.078" stroke="hsl(0.0,100%,35%)" stroke-width="0.00016"></path>
<path d="M0.390 0.672 Q0.234 0.943 0.728 1.078" stroke="hsl(0.0,100%,35%)" stroke-width="0.00044"></path>
<path d="M0.390 0.672 Q0.463 0.742 0.615 0.722" stroke="hsl(0.0,100%,35%)" stroke-width="0.00016"></path>
<path d="M0.283 0.641 Q0.392 0.679 0.489 0.634" stroke="hsl(0.0,100%,35%)" stroke-width="0.00218"></path>
<path d="M0.283 0.641 Q0.156 0.949 0.728 1.078" stroke="hsl(0.0,100%,35%)" stroke-width="0.00104"></path>
<path d="M0.283 0.641 Q0.028 0.708 0.102 0.846" stroke="hsl(0.0,100%,35%)" stroke-width="0.00016"></path>
<path d="M1.242 0.890 Q1.189 0.823 1.048 0.835" stroke="hsl(0.0,100%,35%)" stroke-width="0.00022"></path>
<path d="M0.900 0.730 Q0.536 0.870 0.728 1.078" stroke="hsl(0.0,100%,35%)" stroke-width="0.00093"></path>
<path d="M0.900 0.730 Q0.891 0.812 1.048 0.835" stroke="hsl(0.0,100%,35%)" stroke-width="0.00027"></path>
<path d="M0.900 0.730 Q0.755 0.769 0.800 0.849" stroke="hsl(0.0,100%,35%)" stroke-width="0.00016"></path>
<path d="M0.699 0.849 Q0.530 0.970 0.728 1.078" stroke="hsl(0.0,100%,35%)" stroke-width="0.00115"></path>
<path d="M0.699 0.849 Q0.734 0.980 0.997 0.992" stroke="hsl(0.0,100%,35%)" stroke-width="0.00038"></path>
<path d="M0.699 0.849 Q0.766 0.700 0.489 0.634" stroke="hsl(0.0,100%,35%)" stroke-width="0.00022"></path>
<path d="M0.564 0.834 Q0.451 0.989 0.728 1.078" stroke="hsl(0.0,100%,35%)" stroke-width="0.00033"></path>
<path d="M0.813 0.789 Q0.539 0.917 0.728 1.078" stroke="hsl(0.0,100%,35%)" stroke-width="0.00136"></path>
<path d="M0.813 0.789 Q0.743 0.927 0.997 0.992" stroke="hsl(0.0,100%,35%)" stroke-width="0.00087"></path>
<path d="M0.813 0.789 Q0.768 0.716 0.615 0.722" stroke="hsl(0.0,100%,35%)" stroke-width="0.00022"></path>
<path d="M0.813 0.789 Q0.411 0.675 0.102 0.846" stroke="hsl(0.0,100%,35%)" stroke-width="0.00038"></path>
<path d="M0.813 0.789 Q0.775 0.647 0.489 0.634" stroke="hsl(0.0,100%,35%)" stroke-width="0.00071"></path>
<path d="M0.287 0.433 Q-0.136 0.602 0.102 0.846" stroke="hsl(0.0,100%,35%)" stroke-width="0.00027"></path>
<path d="M0.287 0.433 Q-0.009 0.844 0.728 1.078" stroke="hsl(0.0,100%,35%)" stroke-width="0.00016"></path>
</g>
<text x="0.874" y="0.739" font-size="0.014014" fill="hsl(0.0,100%,20%)">andyphan</text>
<text x="0.728" y="1.018" font-size="0.121286" fill="hsl(0.0,100%,20%)">thestig</text>
<text x="0.997" y="0.937" font-size="0.109022" fill="hsl(0.0,100%,20%)">tsepez</text>
<text x="1.048" y="0.811" font-size="0.047735" fill="hsl(0.0,100%,20%)">nigi</text>
<text x="0.271" y="0.522" font-size="0.015535" fill="hsl(0.0,100%,20%)">art-snake</text>
<text x="0.615" y="0.701" font-size="0.041465" fill="hsl(0.0,100%,20%)">hnakashima</text>
<text x="0.489" y="0.603" font-size="0.063111" fill="hsl(0.0,100%,20%)">dsinclair</text>
<text x="0.285" y="0.723" font-size="0.037124" fill="hsl(0.0,100%,20%)">rharrison</text>
<text x="1.202" y="0.714" font-size="0.005624" fill="hsl(0.0,100%,20%)">weili</text>
<text x="0.653" y="0.812" font-size="0.009392" fill="hsl(0.0,100%,20%)">asweintraub</text>
<text x="1.294" y="0.714" font-size="0.019136" fill="hsl(0.0,100%,20%)">awscreen</text>
<text x="0.950" y="0.754" font-size="0.023928" fill="hsl(0.0,100%,20%)">dhoss</text>
<text x="0.961" y="0.504" font-size="0.002235" fill="hsl(0.0,100%,20%)">bratell</text>
<text x="1.574" y="0.813" font-size="0.004080" fill="hsl(0.0,100%,20%)">brianosman</text>
<text x="1.440" y="0.892" font-size="0.026503" fill="hsl(0.0,100%,20%)">kmoon</text>
<text x="0.908" y="0.881" font-size="0.005770" fill="hsl(0.0,100%,20%)">reed</text>
<text x="0.762" y="0.865" font-size="0.004652" fill="hsl(0.0,100%,20%)">brucedawson</text>
<text x="0.800" y="0.844" font-size="0.009213" fill="hsl(0.0,100%,20%)">bungeman</text>
<text x="0.612" y="0.412" font-size="0.004827" fill="hsl(0.0,100%,20%)">caryclark</text>
<text x="0.102" y="0.830" font-size="0.032917" fill="hsl(0.0,100%,20%)">npm</text>
<text x="0.107" y="0.506" font-size="0.002235" fill="hsl(0.0,100%,20%)">dalecurtis</text>
<text x="0.890" y="0.310" font-size="0.003413" fill="hsl(0.0,100%,20%)">thomasanderson</text>
<text x="1.012" y="0.869" font-size="0.007741" fill="hsl(0.0,100%,20%)">drott</text>
<text x="0.723" y="0.465" font-size="0.001825" fill="hsl(0.0,100%,20%)">halcanary</text>
<text x="0.700" y="0.147" font-size="0.003160" fill="hsl(0.0,100%,20%)">rbpotter</text>
<text x="1.402" y="0.616" font-size="0.003160" fill="hsl(0.0,100%,20%)">hans</text>
<text x="1.423" y="0.501" font-size="0.001290" fill="hsl(0.0,100%,20%)">hwennborg</text>
<text x="0.390" y="0.669" font-size="0.005912" fill="hsl(0.0,100%,20%)">xlou</text>
<text x="0.283" y="0.636" font-size="0.010321" fill="hsl(0.0,100%,20%)">janeliulwq</text>
<text x="1.242" y="0.888" font-size="0.003160" fill="hsl(0.0,100%,20%)">kimstephanie</text>
<text x="0.900" y="0.727" font-size="0.006704" fill="hsl(0.0,100%,20%)">kjlubick</text>
<text x="0.699" y="0.844" font-size="0.009123" fill="hsl(0.0,100%,20%)">thakis</text>
<text x="0.564" y="0.832" font-size="0.004080" fill="hsl(0.0,100%,20%)">pkasting</text>
<text x="0.825" y="0.719" font-size="0.005161" fill="hsl(0.0,100%,20%)">palmer</text>
<text x="0.930" y="0.605" font-size="0.002235" fill="hsl(0.0,100%,20%)">stephana</text>
<text x="1.031" y="0.593" font-size="0.002235" fill="hsl(0.0,100%,20%)">tandrii</text>
<text x="0.483" y="-6.354" font-size="0.001290" fill="hsl(0.0,100%,20%)">jbudorick</text>
<text x="0.594" y="0.822" font-size="0.001290" fill="hsl(0.0,100%,20%)">ochang</text>
<text x="0.556" y="0.863" font-size="0.001825" fill="hsl(0.0,100%,20%)">jochen</text>
<text x="0.831" y="0.682" font-size="0.001825" fill="hsl(0.0,100%,20%)">dcheng</text>
<text x="0.813" y="0.784" font-size="0.010481" fill="hsl(0.0,100%,20%)">vmiklos</text>
<text x="0.791" y="0.548" font-size="0.002580" fill="hsl(0.0,100%,20%)">vtsyrklevich</text>
<text x="0.287" y="0.431" font-size="0.004080" fill="hsl(0.0,100%,20%)">wileyrr</text>
</svg>
