<svg width="4000" height="2000" viewBox="-0.025 -0.025 2.05 1.05" xmlns="http://www.w3.org/2000/svg">
  <style>
    path {
      fill: none;
      stroke-linecap: round;
      stroke-opacity: 0.4;
    }

    text {
      text-anchor: middle;
      alignment-baseline: hanging;
    }
  </style>
  <g opacity="0.4">
<path d="M0.402 0.348 Q0.649 0.343 0.692 0.221" stroke="hsl(0.0,100%,35%)" stroke-width="0.03333"></path>
<path d="M0.402 0.348 Q0.240 0.392 0.290 0.481" stroke="hsl(0.0,100%,35%)" stroke-width="0.06667"></path>
<path d="M0.402 0.348 Q0.313 0.673 0.927 0.788" stroke="hsl(0.0,100%,35%)" stroke-width="0.01667"></path>
<path d="M0.692 0.221 Q0.283 0.271 0.290 0.481" stroke="hsl(0.0,100%,35%)" stroke-width="0.01667"></path>
<path d="M0.692 0.221 Q0.446 0.227 0.402 0.348" stroke="hsl(0.0,100%,35%)" stroke-width="0.01667"></path>
<path d="M0.692 0.221 Q0.684 0.330 0.894 0.357" stroke="hsl(0.0,100%,35%)" stroke-width="0.01667"></path>
<path d="M0.125 0.271 Q0.202 0.365 0.402 0.348" stroke="hsl(0.0,100%,35%)" stroke-width="0.06667"></path>
<path d="M0.125 0.271 Q0.040 0.409 0.290 0.481" stroke="hsl(0.0,100%,35%)" stroke-width="0.01667"></path>
<path d="M0.962 0.574 Q1.324 0.384 1.033 0.166" stroke="hsl(180.0,100%,35%)" stroke-width="0.01667"></path>
<path d="M0.962 0.574 Q1.075 0.630 1.209 0.587" stroke="hsl(180.0,100%,35%)" stroke-width="0.01667"></path>
<path d="M0.962 0.574 Q0.774 0.674 0.927 0.788" stroke="hsl(180.0,100%,35%)" stroke-width="0.01667"></path>
</g>
<text x="0.402" y="0.290" font-size="0.115470" fill="hsl(0.0,100%,20%)">bungeman</text>
<text x="0.692" y="0.184" font-size="0.074536" fill="hsl(0.0,100%,20%)">fmalita</text>
<text x="0.290" y="0.440" font-size="0.081650" fill="hsl(0.0,100%,20%)">kjlubick</text>
<text x="0.927" y="0.764" font-size="0.047140" fill="hsl(180.0,100%,20%)">jmbetancourt</text>
<text x="0.125" y="0.234" font-size="0.074536" fill="hsl(0.0,100%,20%)">drott</text>
<text x="0.894" y="0.341" font-size="0.033333" fill="hsl(0.0,100%,20%)">hcm</text>
<text x="0.962" y="0.545" font-size="0.057735" fill="hsl(180.0,100%,20%)">michaelludwig</text>
<text x="1.033" y="0.149" font-size="0.033333" fill="hsl(180.0,100%,20%)">jamesgk</text>
<text x="1.209" y="0.570" font-size="0.033333" fill="hsl(180.0,100%,20%)">nicolettep</text>
</svg>
