<svg width="4000" height="2000" viewBox="-0.025 -0.025 2.05 1.05" xmlns="http://www.w3.org/2000/svg">
  <style>
    path {
      fill: none;
      stroke-linecap: round;
      stroke-opacity: 0.4;
    }

    text {
      text-anchor: middle;
      alignment-baseline: hanging;
    }
  </style>
  <g opacity="0.4">
<path d="M1.620 0.645 Q1.620 0.457 1.255 0.416" stroke="hsl(0.0,100%,35%)" stroke-width="0.00345"></path>
<path d="M1.620 0.645 Q1.484 0.333 0.847 0.331" stroke="hsl(0.0,100%,35%)" stroke-width="0.00841"></path>
<path d="M1.620 0.645 Q0.830 0.614 0.598 0.993" stroke="hsl(0.0,100%,35%)" stroke-width="0.00526"></path>
<path d="M1.620 0.645 Q0.998 0.647 0.866 0.951" stroke="hsl(0.0,100%,35%)" stroke-width="0.00030"></path>
<path d="M1.620 0.645 Q1.692 0.543 1.510 0.486" stroke="hsl(0.0,100%,35%)" stroke-width="0.00871"></path>
<path d="M1.620 0.645 Q1.319 0.411 0.796 0.506" stroke="hsl(0.0,100%,35%)" stroke-width="0.00090"></path>
<path d="M1.620 0.645 Q1.621 0.270 0.890 0.187" stroke="hsl(0.0,100%,35%)" stroke-width="0.00090"></path>
<path d="M1.620 0.645 Q1.495 0.187 0.574 0.147" stroke="hsl(0.0,100%,35%)" stroke-width="0.00015"></path>
<path d="M1.620 0.645 Q1.541 0.573 1.384 0.596" stroke="hsl(0.0,100%,35%)" stroke-width="0.00015"></path>
<path d="M1.620 0.645 Q0.946 0.490 0.497 0.785" stroke="hsl(0.0,100%,35%)" stroke-width="0.00045"></path>
<path d="M1.620 0.645 Q1.285 0.491 0.911 0.621" stroke="hsl(0.0,100%,35%)" stroke-width="0.00060"></path>
<path d="M1.255 0.416 Q1.029 0.232 0.619 0.302" stroke="hsl(0.0,100%,35%)" stroke-width="0.00285"></path>
<path d="M1.255 0.416 Q1.119 0.292 0.847 0.331" stroke="hsl(0.0,100%,35%)" stroke-width="0.00406"></path>
<path d="M1.255 0.416 Q1.327 0.502 1.510 0.486" stroke="hsl(0.0,100%,35%)" stroke-width="0.01081"></path>
<path d="M1.255 0.416 Q0.633 0.606 0.866 0.951" stroke="hsl(0.0,100%,35%)" stroke-width="0.00030"></path>
<path d="M1.255 0.416 Q0.465 0.573 0.598 0.993" stroke="hsl(0.0,100%,35%)" stroke-width="0.00270"></path>
<path d="M1.255 0.416 Q1.069 0.430 1.056 0.524" stroke="hsl(0.0,100%,35%)" stroke-width="0.00060"></path>
<path d="M1.255 0.416 Q1.256 0.228 0.890 0.187" stroke="hsl(0.0,100%,35%)" stroke-width="0.00751"></path>
<path d="M1.255 0.416 Q0.954 0.369 0.796 0.506" stroke="hsl(0.0,100%,35%)" stroke-width="0.00180"></path>
<path d="M1.255 0.416 Q0.581 0.449 0.497 0.785" stroke="hsl(0.0,100%,35%)" stroke-width="0.00285"></path>
<path d="M1.255 0.416 Q1.176 0.532 1.384 0.596" stroke="hsl(0.0,100%,35%)" stroke-width="0.00391"></path>
<path d="M1.255 0.416 Q1.130 0.145 0.574 0.147" stroke="hsl(0.0,100%,35%)" stroke-width="0.00015"></path>
<path d="M1.255 0.416 Q1.346 0.153 0.853 0.051" stroke="hsl(0.0,100%,35%)" stroke-width="0.00030"></path>
<path d="M1.255 0.416 Q0.741 0.474 0.742 0.738" stroke="hsl(0.0,100%,35%)" stroke-width="0.00015"></path>
<path d="M1.255 0.416 Q0.974 0.242 0.573 0.341" stroke="hsl(0.0,100%,35%)" stroke-width="0.00030"></path>
<path d="M1.255 0.416 Q1.373 0.674 1.901 0.673" stroke="hsl(0.0,100%,35%)" stroke-width="0.00015"></path>
<path d="M1.255 0.416 Q1.098 0.621 1.463 0.743" stroke="hsl(0.0,100%,35%)" stroke-width="0.00015"></path>
<path d="M1.255 0.416 Q1.060 0.878 1.918 1.074" stroke="hsl(0.0,100%,35%)" stroke-width="0.00015"></path>
<path d="M1.255 0.416 Q1.211 0.165 0.711 0.132" stroke="hsl(0.0,100%,35%)" stroke-width="0.00015"></path>
<path d="M1.255 0.416 Q0.920 0.449 0.911 0.621" stroke="hsl(0.0,100%,35%)" stroke-width="0.00135"></path>
<path d="M1.255 0.416 Q1.039 0.487 1.130 0.609" stroke="hsl(0.0,100%,35%)" stroke-width="0.00030"></path>
<path d="M0.847 0.331 Q0.983 0.455 1.255 0.416" stroke="hsl(0.0,100%,35%)" stroke-width="0.01112"></path>
<path d="M0.847 0.331 Q0.756 0.271 0.619 0.302" stroke="hsl(0.0,100%,35%)" stroke-width="0.01502"></path>
<path d="M0.847 0.331 Q0.681 0.408 0.796 0.506" stroke="hsl(0.0,100%,35%)" stroke-width="0.00150"></path>
<path d="M0.847 0.331 Q0.360 0.645 0.866 0.951" stroke="hsl(0.0,100%,35%)" stroke-width="0.00105"></path>
<path d="M0.847 0.331 Q0.903 0.571 1.384 0.596" stroke="hsl(0.0,100%,35%)" stroke-width="0.00105"></path>
<path d="M0.847 0.331 Q0.308 0.488 0.497 0.785" stroke="hsl(0.0,100%,35%)" stroke-width="0.00015"></path>
<path d="M0.847 0.331 Q1.054 0.541 1.510 0.486" stroke="hsl(0.0,100%,35%)" stroke-width="0.00120"></path>
<path d="M0.847 0.331 Q0.984 0.267 0.890 0.187" stroke="hsl(0.0,100%,35%)" stroke-width="0.00075"></path>
<path d="M0.847 0.331 Q0.702 0.281 0.573 0.341" stroke="hsl(0.0,100%,35%)" stroke-width="0.00045"></path>
<path d="M0.847 0.331 Q0.982 0.642 1.620 0.645" stroke="hsl(0.0,100%,35%)" stroke-width="0.00120"></path>
<path d="M0.847 0.331 Q0.825 0.660 1.463 0.743" stroke="hsl(0.0,100%,35%)" stroke-width="0.00030"></path>
<path d="M0.847 0.331 Q0.193 0.612 0.598 0.993" stroke="hsl(0.0,100%,35%)" stroke-width="0.00391"></path>
<path d="M0.847 0.331 Q0.647 0.489 0.911 0.621" stroke="hsl(0.0,100%,35%)" stroke-width="0.00060"></path>
<path d="M0.598 0.993 Q1.388 1.023 1.620 0.645" stroke="hsl(0.0,100%,35%)" stroke-width="0.00165"></path>
<path d="M0.598 0.993 Q1.459 0.922 1.510 0.486" stroke="hsl(0.0,100%,35%)" stroke-width="0.00135"></path>
<path d="M0.598 0.993 Q0.713 0.869 0.497 0.785" stroke="hsl(0.0,100%,35%)" stroke-width="0.00030"></path>
<path d="M0.598 0.993 Q1.252 0.711 0.847 0.331" stroke="hsl(0.0,100%,35%)" stroke-width="0.00631"></path>
<path d="M0.598 0.993 Q1.161 0.651 0.619 0.302" stroke="hsl(0.0,100%,35%)" stroke-width="0.00766"></path>
<path d="M0.598 0.993 Q1.388 0.836 1.255 0.416" stroke="hsl(0.0,100%,35%)" stroke-width="0.00541"></path>
<path d="M0.598 0.993 Q1.086 0.789 0.796 0.506" stroke="hsl(0.0,100%,35%)" stroke-width="0.00601"></path>
<path d="M0.598 0.993 Q0.874 0.894 0.742 0.738" stroke="hsl(0.0,100%,35%)" stroke-width="0.00015"></path>
<path d="M0.598 0.993 Q1.107 0.662 0.573 0.341" stroke="hsl(0.0,100%,35%)" stroke-width="0.00240"></path>
<path d="M0.598 0.993 Q0.765 1.026 0.866 0.951" stroke="hsl(0.0,100%,35%)" stroke-width="0.00541"></path>
<path d="M0.598 0.993 Q1.230 1.041 1.463 0.743" stroke="hsl(0.0,100%,35%)" stroke-width="0.00075"></path>
<path d="M0.598 0.993 Q1.308 0.952 1.384 0.596" stroke="hsl(0.0,100%,35%)" stroke-width="0.00195"></path>
<path d="M0.598 0.993 Q1.389 0.648 0.890 0.187" stroke="hsl(0.0,100%,35%)" stroke-width="0.00060"></path>
<path d="M0.598 0.993 Q1.492 0.586 0.895 0.061" stroke="hsl(0.0,100%,35%)" stroke-width="0.00030"></path>
<path d="M0.598 0.993 Q1.062 1.037 1.250 0.821" stroke="hsl(0.0,100%,35%)" stroke-width="0.00015"></path>
<path d="M0.598 0.993 Q1.052 0.869 0.911 0.621" stroke="hsl(0.0,100%,35%)" stroke-width="0.00150"></path>
<path d="M0.598 0.993 Q1.568 0.707 1.224 0.171" stroke="hsl(0.0,100%,35%)" stroke-width="0.00015"></path>
<path d="M0.866 0.951 Q1.187 0.715 0.796 0.506" stroke="hsl(0.0,100%,35%)" stroke-width="0.00180"></path>
<path d="M0.866 0.951 Q0.699 0.918 0.598 0.993" stroke="hsl(0.0,100%,35%)" stroke-width="0.00496"></path>
<path d="M0.866 0.951 Q1.409 0.877 1.384 0.596" stroke="hsl(0.0,100%,35%)" stroke-width="0.00015"></path>
<path d="M0.866 0.951 Q1.208 0.587 0.573 0.341" stroke="hsl(0.0,100%,35%)" stroke-width="0.00015"></path>
<path d="M0.866 0.951 Q1.607 1.019 1.901 0.673" stroke="hsl(0.0,100%,35%)" stroke-width="0.00015"></path>
<path d="M0.866 0.951 Q1.560 0.847 1.510 0.486" stroke="hsl(0.0,100%,35%)" stroke-width="0.00135"></path>
<path d="M0.866 0.951 Q1.490 0.574 0.890 0.187" stroke="hsl(0.0,100%,35%)" stroke-width="0.00045"></path>
<path d="M0.866 0.951 Q1.353 0.637 0.847 0.331" stroke="hsl(0.0,100%,35%)" stroke-width="0.00090"></path>
<path d="M0.866 0.951 Q1.262 0.577 0.619 0.302" stroke="hsl(0.0,100%,35%)" stroke-width="0.00105"></path>
<path d="M0.866 0.951 Q1.580 0.498 0.853 0.051" stroke="hsl(0.0,100%,35%)" stroke-width="0.00015"></path>
<path d="M0.866 0.951 Q1.669 0.633 1.224 0.171" stroke="hsl(0.0,100%,35%)" stroke-width="0.00015"></path>
<path d="M1.510 0.486 Q1.212 0.216 0.619 0.302" stroke="hsl(0.0,100%,35%)" stroke-width="0.00210"></path>
<path d="M1.510 0.486 Q1.158 0.226 0.573 0.341" stroke="hsl(0.0,100%,35%)" stroke-width="0.00376"></path>
<path d="M1.510 0.486 Q1.439 0.400 1.255 0.416" stroke="hsl(0.0,100%,35%)" stroke-width="0.08457"></path>
<path d="M1.510 0.486 Q1.137 0.353 0.796 0.506" stroke="hsl(0.0,100%,35%)" stroke-width="0.00345"></path>
<path d="M1.510 0.486 Q1.440 0.212 0.890 0.187" stroke="hsl(0.0,100%,35%)" stroke-width="0.00976"></path>
<path d="M1.510 0.486 Q1.591 0.287 1.221 0.204" stroke="hsl(0.0,100%,35%)" stroke-width="0.00135"></path>
<path d="M1.510 0.486 Q1.438 0.587 1.620 0.645" stroke="hsl(0.0,100%,35%)" stroke-width="0.03380"></path>
<path d="M1.510 0.486 Q0.816 0.590 0.866 0.951" stroke="hsl(0.0,100%,35%)" stroke-width="0.00631"></path>
<path d="M1.510 0.486 Q0.649 0.557 0.598 0.993" stroke="hsl(0.0,100%,35%)" stroke-width="0.00451"></path>
<path d="M1.510 0.486 Q1.543 0.151 0.895 0.061" stroke="hsl(0.0,100%,35%)" stroke-width="0.00075"></path>
<path d="M1.510 0.486 Q1.303 0.276 0.847 0.331" stroke="hsl(0.0,100%,35%)" stroke-width="0.00946"></path>
<path d="M1.510 0.486 Q1.359 0.516 1.384 0.596" stroke="hsl(0.0,100%,35%)" stroke-width="0.00931"></path>
<path d="M1.510 0.486 Q0.764 0.433 0.497 0.785" stroke="hsl(0.0,100%,35%)" stroke-width="0.00135"></path>
<path d="M1.510 0.486 Q1.394 0.149 0.711 0.132" stroke="hsl(0.0,100%,35%)" stroke-width="0.00075"></path>
<path d="M1.510 0.486 Q1.244 0.862 1.918 1.074" stroke="hsl(0.0,100%,35%)" stroke-width="0.00015"></path>
<path d="M1.510 0.486 Q1.281 0.605 1.463 0.743" stroke="hsl(0.0,100%,35%)" stroke-width="0.00075"></path>
<path d="M1.510 0.486 Q1.619 0.271 1.224 0.171" stroke="hsl(0.0,100%,35%)" stroke-width="0.00030"></path>
<path d="M1.510 0.486 Q1.529 0.137 0.853 0.051" stroke="hsl(0.0,100%,35%)" stroke-width="0.00060"></path>
<path d="M1.510 0.486 Q1.313 0.130 0.574 0.147" stroke="hsl(0.0,100%,35%)" stroke-width="0.00015"></path>
<path d="M1.510 0.486 Q1.556 0.658 1.901 0.673" stroke="hsl(0.0,100%,35%)" stroke-width="0.00030"></path>
<path d="M1.510 0.486 Q0.925 0.458 0.742 0.738" stroke="hsl(0.0,100%,35%)" stroke-width="0.00045"></path>
<path d="M1.510 0.486 Q1.112 0.601 1.250 0.821" stroke="hsl(0.0,100%,35%)" stroke-width="0.00015"></path>
<path d="M1.510 0.486 Q1.103 0.434 0.911 0.621" stroke="hsl(0.0,100%,35%)" stroke-width="0.00135"></path>
<path d="M1.510 0.486 Q1.631 0.216 1.132 0.098" stroke="hsl(0.0,100%,35%)" stroke-width="0.00015"></path>
<path d="M1.510 0.486 Q1.445 0.123 0.723 0.075" stroke="hsl(0.0,100%,35%)" stroke-width="0.00015"></path>
<path d="M0.796 0.506 Q0.871 0.369 0.619 0.302" stroke="hsl(0.0,100%,35%)" stroke-width="0.00240"></path>
<path d="M0.796 0.506 Q0.911 0.567 1.056 0.524" stroke="hsl(0.0,100%,35%)" stroke-width="0.00030"></path>
<path d="M0.796 0.506 Q1.169 0.639 1.510 0.486" stroke="hsl(0.0,100%,35%)" stroke-width="0.00015"></path>
<path d="M0.796 0.506 Q0.475 0.743 0.866 0.951" stroke="hsl(0.0,100%,35%)" stroke-width="0.00150"></path>
<path d="M0.796 0.506 Q1.098 0.553 1.255 0.416" stroke="hsl(0.0,100%,35%)" stroke-width="0.00060"></path>
<path d="M0.796 0.506 Q0.817 0.379 0.573 0.341" stroke="hsl(0.0,100%,35%)" stroke-width="0.00045"></path>
<path d="M0.796 0.506 Q0.962 0.429 0.847 0.331" stroke="hsl(0.0,100%,35%)" stroke-width="0.00045"></path>
<path d="M0.796 0.506 Q0.308 0.710 0.598 0.993" stroke="hsl(0.0,100%,35%)" stroke-width="0.00210"></path>
<path d="M0.796 0.506 Q1.099 0.365 0.890 0.187" stroke="hsl(0.0,100%,35%)" stroke-width="0.00015"></path>
<path d="M0.796 0.506 Q0.762 0.586 0.911 0.621" stroke="hsl(0.0,100%,35%)" stroke-width="0.00075"></path>
<path d="M0.890 0.187 Q0.663 0.190 0.619 0.302" stroke="hsl(180.0,100%,35%)" stroke-width="0.00150"></path>
<path d="M0.890 0.187 Q0.214 0.407 0.497 0.785" stroke="hsl(180.0,100%,35%)" stroke-width="0.01592"></path>
<path d="M0.890 0.187 Q0.763 0.104 0.574 0.147" stroke="hsl(180.0,100%,35%)" stroke-width="0.00225"></path>
<path d="M0.890 0.187 Q0.960 0.460 1.510 0.486" stroke="hsl(180.0,100%,35%)" stroke-width="0.00751"></path>
<path d="M0.890 0.187 Q0.889 0.374 1.255 0.416" stroke="hsl(180.0,100%,35%)" stroke-width="0.01938"></path>
<path d="M0.890 0.187 Q0.258 0.251 0.244 0.573" stroke="hsl(180.0,100%,35%)" stroke-width="0.00135"></path>
<path d="M0.890 0.187 Q0.099 0.531 0.598 0.993" stroke="hsl(180.0,100%,35%)" stroke-width="0.00240"></path>
<path d="M0.890 0.187 Q1.082 0.191 1.132 0.098" stroke="hsl(180.0,100%,35%)" stroke-width="0.00075"></path>
<path d="M0.890 0.187 Q0.587 0.328 0.796 0.506" stroke="hsl(180.0,100%,35%)" stroke-width="0.00240"></path>
<path d="M0.890 0.187 Q1.042 0.262 1.221 0.204" stroke="hsl(180.0,100%,35%)" stroke-width="0.00165"></path>
<path d="M0.890 0.187 Q0.753 0.250 0.847 0.331" stroke="hsl(180.0,100%,35%)" stroke-width="0.00976"></path>
<path d="M0.890 0.187 Q0.889 0.562 1.620 0.645" stroke="hsl(180.0,100%,35%)" stroke-width="0.00120"></path>
<path d="M0.890 0.187 Q0.694 0.836 1.918 1.074" stroke="hsl(180.0,100%,35%)" stroke-width="0.00391"></path>
<path d="M0.890 0.187 Q0.809 0.490 1.384 0.596" stroke="hsl(180.0,100%,35%)" stroke-width="0.00721"></path>
<path d="M0.890 0.187 Q1.007 0.632 1.901 0.673" stroke="hsl(180.0,100%,35%)" stroke-width="0.00045"></path>
<path d="M0.890 0.187 Q0.993 0.125 0.895 0.061" stroke="hsl(180.0,100%,35%)" stroke-width="0.00270"></path>
<path d="M0.890 0.187 Q0.375 0.433 0.742 0.738" stroke="hsl(180.0,100%,35%)" stroke-width="0.00090"></path>
<path d="M0.890 0.187 Q0.266 0.564 0.866 0.951" stroke="hsl(180.0,100%,35%)" stroke-width="0.00105"></path>
<path d="M0.890 0.187 Q0.732 0.579 1.463 0.743" stroke="hsl(180.0,100%,35%)" stroke-width="0.00150"></path>
<path d="M0.890 0.187 Q0.845 0.124 0.711 0.132" stroke="hsl(180.0,100%,35%)" stroke-width="0.00135"></path>
<path d="M0.890 0.187 Q0.672 0.446 1.130 0.609" stroke="hsl(180.0,100%,35%)" stroke-width="0.00045"></path>
<path d="M0.890 0.187 Q1.069 0.246 1.224 0.171" stroke="hsl(180.0,100%,35%)" stroke-width="0.00285"></path>
<path d="M0.890 0.187 Q0.980 0.111 0.853 0.051" stroke="hsl(180.0,100%,35%)" stroke-width="0.00105"></path>
<path d="M0.890 0.187 Q0.608 0.200 0.573 0.341" stroke="hsl(180.0,100%,35%)" stroke-width="0.00015"></path>
<path d="M0.890 0.187 Q0.553 0.408 0.911 0.621" stroke="hsl(180.0,100%,35%)" stroke-width="0.00090"></path>
<path d="M0.890 0.187 Q1.258 0.431 1.815 0.305" stroke="hsl(180.0,100%,35%)" stroke-width="0.00015"></path>
<path d="M0.890 0.187 Q0.896 0.098 0.723 0.075" stroke="hsl(180.0,100%,35%)" stroke-width="0.00045"></path>
<path d="M0.574 0.147 Q0.701 0.230 0.890 0.187" stroke="hsl(180.0,100%,35%)" stroke-width="0.00901"></path>
<path d="M0.574 0.147 Q0.771 0.504 1.510 0.486" stroke="hsl(180.0,100%,35%)" stroke-width="0.00090"></path>
<path d="M0.574 0.147 Q-0.090 0.575 0.598 0.993" stroke="hsl(180.0,100%,35%)" stroke-width="0.00015"></path>
<path d="M0.574 0.147 Q0.852 0.305 1.221 0.204" stroke="hsl(180.0,100%,35%)" stroke-width="0.00015"></path>
<path d="M0.574 0.147 Q0.700 0.418 1.255 0.416" stroke="hsl(180.0,100%,35%)" stroke-width="0.00045"></path>
<path d="M0.574 0.147 Q0.419 0.244 0.573 0.341" stroke="hsl(180.0,100%,35%)" stroke-width="0.00015"></path>
<path d="M0.574 0.147 Q0.655 0.167 0.711 0.132" stroke="hsl(180.0,100%,35%)" stroke-width="0.00105"></path>
<path d="M0.574 0.147 Q0.880 0.289 1.224 0.171" stroke="hsl(180.0,100%,35%)" stroke-width="0.00015"></path>
<path d="M0.574 0.147 Q0.804 0.168 0.895 0.061" stroke="hsl(180.0,100%,35%)" stroke-width="0.00015"></path>
<path d="M0.574 0.147 Q0.564 0.294 0.847 0.331" stroke="hsl(180.0,100%,35%)" stroke-width="0.00015"></path>
<path d="M1.384 0.596 Q1.238 0.296 0.619 0.302" stroke="hsl(0.0,100%,35%)" stroke-width="0.01502"></path>
<path d="M1.384 0.596 Q0.674 0.637 0.598 0.993" stroke="hsl(0.0,100%,35%)" stroke-width="0.00391"></path>
<path d="M1.384 0.596 Q1.464 0.480 1.255 0.416" stroke="hsl(0.0,100%,35%)" stroke-width="0.00931"></path>
<path d="M1.384 0.596 Q1.465 0.293 0.890 0.187" stroke="hsl(0.0,100%,35%)" stroke-width="0.00481"></path>
<path d="M1.384 0.596 Q1.535 0.566 1.510 0.486" stroke="hsl(0.0,100%,35%)" stroke-width="0.00856"></path>
<path d="M1.384 0.596 Q1.328 0.356 0.847 0.331" stroke="hsl(0.0,100%,35%)" stroke-width="0.00060"></path>
<path d="M1.384 0.596 Q1.307 0.685 1.463 0.743" stroke="hsl(0.0,100%,35%)" stroke-width="0.00015"></path>
<path d="M1.384 0.596 Q0.789 0.513 0.497 0.785" stroke="hsl(0.0,100%,35%)" stroke-width="0.00120"></path>
<path d="M1.384 0.596 Q1.582 0.738 1.901 0.673" stroke="hsl(0.0,100%,35%)" stroke-width="0.00015"></path>
<path d="M1.384 0.596 Q1.128 0.514 0.911 0.621" stroke="hsl(0.0,100%,35%)" stroke-width="0.00030"></path>
<path d="M1.384 0.596 Q1.568 0.231 0.895 0.061" stroke="hsl(0.0,100%,35%)" stroke-width="0.00015"></path>
<path d="M1.384 0.596 Q1.162 0.434 0.796 0.506" stroke="hsl(0.0,100%,35%)" stroke-width="0.00030"></path>
<path d="M0.497 0.785 Q1.171 0.752 1.255 0.416" stroke="hsl(180.0,100%,35%)" stroke-width="0.00391"></path>
<path d="M0.497 0.785 Q1.172 0.565 0.890 0.187" stroke="hsl(180.0,100%,35%)" stroke-width="0.00421"></path>
<path d="M0.497 0.785 Q0.657 0.811 0.742 0.738" stroke="hsl(180.0,100%,35%)" stroke-width="0.00165"></path>
<path d="M0.497 0.785 Q1.243 0.838 1.510 0.486" stroke="hsl(180.0,100%,35%)" stroke-width="0.00135"></path>
<path d="M0.497 0.785 Q1.046 0.482 0.574 0.147" stroke="hsl(180.0,100%,35%)" stroke-width="0.00015"></path>
<path d="M0.497 0.785 Q1.092 0.868 1.384 0.596" stroke="hsl(180.0,100%,35%)" stroke-width="0.00406"></path>
<path d="M0.497 0.785 Q0.541 0.629 0.244 0.573" stroke="hsl(180.0,100%,35%)" stroke-width="0.00045"></path>
<path d="M0.497 0.785 Q1.014 0.957 1.463 0.743" stroke="hsl(180.0,100%,35%)" stroke-width="0.00045"></path>
<path d="M0.497 0.785 Q0.836 0.786 0.911 0.621" stroke="hsl(180.0,100%,35%)" stroke-width="0.00015"></path>
<path d="M0.497 0.785 Q1.352 0.624 1.224 0.171" stroke="hsl(180.0,100%,35%)" stroke-width="0.00030"></path>
<path d="M0.497 0.785 Q0.870 0.706 0.796 0.506" stroke="hsl(180.0,100%,35%)" stroke-width="0.00045"></path>
<path d="M0.497 0.785 Q0.945 0.568 0.619 0.302" stroke="hsl(180.0,100%,35%)" stroke-width="0.00015"></path>
<path d="M0.497 0.785 Q1.035 0.628 0.847 0.331" stroke="hsl(180.0,100%,35%)" stroke-width="0.00015"></path>
<path d="M0.911 0.621 Q1.089 0.792 1.463 0.743" stroke="hsl(0.0,100%,35%)" stroke-width="0.00150"></path>
<path d="M0.911 0.621 Q1.247 0.587 1.255 0.416" stroke="hsl(0.0,100%,35%)" stroke-width="0.00406"></path>
<path d="M0.911 0.621 Q1.318 0.673 1.510 0.486" stroke="hsl(0.0,100%,35%)" stroke-width="0.00150"></path>
<path d="M0.911 0.621 Q1.111 0.463 0.847 0.331" stroke="hsl(0.0,100%,35%)" stroke-width="0.00030"></path>
<path d="M0.911 0.621 Q1.167 0.703 1.384 0.596" stroke="hsl(0.0,100%,35%)" stroke-width="0.00150"></path>
<path d="M0.911 0.621 Q1.020 0.403 0.619 0.302" stroke="hsl(0.0,100%,35%)" stroke-width="0.00165"></path>
<path d="M0.911 0.621 Q1.052 1.049 1.918 1.074" stroke="hsl(0.0,100%,35%)" stroke-width="0.00045"></path>
<path d="M0.911 0.621 Q0.945 0.540 0.796 0.506" stroke="hsl(0.0,100%,35%)" stroke-width="0.00045"></path>
<path d="M1.245 0.699 Q1.477 0.372 0.890 0.187" stroke="hsl(0.0,100%,35%)" stroke-width="0.00015"></path>
<path d="M1.245 0.699 Q1.340 0.435 0.847 0.331" stroke="hsl(0.0,100%,35%)" stroke-width="0.00015"></path>
<path d="M1.245 0.699 Q1.397 0.675 1.384 0.596" stroke="hsl(0.0,100%,35%)" stroke-width="0.00030"></path>
<path d="M0.793 0.823 Q1.048 0.665 0.796 0.506" stroke="hsl(0.0,100%,35%)" stroke-width="0.00015"></path>
<path d="M0.793 0.823 Q1.123 0.527 0.619 0.302" stroke="hsl(0.0,100%,35%)" stroke-width="0.00015"></path>
<path d="M0.793 0.823 Q0.559 0.869 0.598 0.993" stroke="hsl(0.0,100%,35%)" stroke-width="0.00030"></path>
<path d="M0.619 0.302 Q0.710 0.362 0.847 0.331" stroke="hsl(0.0,100%,35%)" stroke-width="0.00976"></path>
<path d="M0.619 0.302 Q0.544 0.439 0.796 0.506" stroke="hsl(0.0,100%,35%)" stroke-width="0.01036"></path>
<path d="M0.619 0.302 Q0.846 0.486 1.255 0.416" stroke="hsl(0.0,100%,35%)" stroke-width="0.00225"></path>
<path d="M0.619 0.302 Q0.056 0.643 0.598 0.993" stroke="hsl(0.0,100%,35%)" stroke-width="0.00991"></path>
<path d="M0.619 0.302 Q0.651 0.948 1.918 1.074" stroke="hsl(0.0,100%,35%)" stroke-width="0.00045"></path>
<path d="M0.619 0.302 Q0.847 0.298 0.890 0.187" stroke="hsl(0.0,100%,35%)" stroke-width="0.00090"></path>
<path d="M0.619 0.302 Q0.659 0.500 1.056 0.524" stroke="hsl(0.0,100%,35%)" stroke-width="0.00015"></path>
<path d="M0.619 0.302 Q0.688 0.691 1.463 0.743" stroke="hsl(0.0,100%,35%)" stroke-width="0.00045"></path>
<path d="M0.619 0.302 Q0.766 0.602 1.384 0.596" stroke="hsl(0.0,100%,35%)" stroke-width="0.00030"></path>
<path d="M0.619 0.302 Q0.917 0.572 1.510 0.486" stroke="hsl(0.0,100%,35%)" stroke-width="0.00090"></path>
<path d="M0.619 0.302 Q0.565 0.312 0.573 0.341" stroke="hsl(0.0,100%,35%)" stroke-width="0.00360"></path>
<path d="M0.619 0.302 Q0.223 0.676 0.866 0.951" stroke="hsl(0.0,100%,35%)" stroke-width="0.00030"></path>
<path d="M0.619 0.302 Q0.950 0.237 0.895 0.061" stroke="hsl(0.0,100%,35%)" stroke-width="0.00150"></path>
<path d="M0.619 0.302 Q0.510 0.519 0.911 0.621" stroke="hsl(0.0,100%,35%)" stroke-width="0.00045"></path>
<path d="M0.619 0.302 Q1.038 0.302 1.132 0.098" stroke="hsl(0.0,100%,35%)" stroke-width="0.00015"></path>
<path d="M0.895 0.061 Q0.792 0.123 0.890 0.187" stroke="hsl(180.0,100%,35%)" stroke-width="0.00045"></path>
<path d="M0.895 0.061 Q0.791 0.311 1.255 0.416" stroke="hsl(180.0,100%,35%)" stroke-width="0.00015"></path>
<path d="M0.895 0.061 Q0.747 0.060 0.711 0.132" stroke="hsl(180.0,100%,35%)" stroke-width="0.00090"></path>
<path d="M0.711 0.132 Q0.081 0.416 0.497 0.785" stroke="hsl(180.0,100%,35%)" stroke-width="0.00015"></path>
<path d="M0.711 0.132 Q0.630 0.112 0.574 0.147" stroke="hsl(180.0,100%,35%)" stroke-width="0.00015"></path>
<path d="M0.711 0.132 Q0.860 0.133 0.895 0.061" stroke="hsl(180.0,100%,35%)" stroke-width="0.00120"></path>
<path d="M0.711 0.132 Q0.936 0.254 1.224 0.171" stroke="hsl(180.0,100%,35%)" stroke-width="0.00150"></path>
<path d="M0.711 0.132 Q0.454 0.336 0.796 0.506" stroke="hsl(180.0,100%,35%)" stroke-width="0.00015"></path>
<path d="M0.711 0.132 Q0.757 0.195 0.890 0.187" stroke="hsl(180.0,100%,35%)" stroke-width="0.00045"></path>
<path d="M0.711 0.132 Q0.827 0.469 1.510 0.486" stroke="hsl(180.0,100%,35%)" stroke-width="0.00015"></path>
<path d="M0.853 0.051 Q0.536 0.130 0.619 0.302" stroke="hsl(180.0,100%,35%)" stroke-width="0.00015"></path>
<path d="M0.853 0.051 Q0.833 0.400 1.510 0.486" stroke="hsl(180.0,100%,35%)" stroke-width="0.00030"></path>
<path d="M0.853 0.051 Q0.460 0.267 0.796 0.506" stroke="hsl(180.0,100%,35%)" stroke-width="0.00015"></path>
<path d="M0.853 0.051 Q0.567 0.776 1.918 1.074" stroke="hsl(180.0,100%,35%)" stroke-width="0.00090"></path>
<path d="M0.853 0.051 Q1.131 0.370 1.815 0.305" stroke="hsl(180.0,100%,35%)" stroke-width="0.00015"></path>
<path d="M0.853 0.051 Q0.762 0.314 1.255 0.416" stroke="hsl(180.0,100%,35%)" stroke-width="0.00075"></path>
<path d="M0.853 0.051 Q0.087 0.347 0.497 0.785" stroke="hsl(180.0,100%,35%)" stroke-width="0.00015"></path>
<path d="M0.853 0.051 Q0.576 0.328 1.056 0.524" stroke="hsl(180.0,100%,35%)" stroke-width="0.00015"></path>
<path d="M0.853 0.051 Q0.139 0.504 0.866 0.951" stroke="hsl(180.0,100%,35%)" stroke-width="0.00015"></path>
<path d="M0.742 0.738 Q1.257 0.492 0.890 0.187" stroke="hsl(180.0,100%,35%)" stroke-width="0.00105"></path>
<path d="M0.742 0.738 Q1.256 0.680 1.255 0.416" stroke="hsl(180.0,100%,35%)" stroke-width="0.00060"></path>
<path d="M0.742 0.738 Q0.581 0.713 0.497 0.785" stroke="hsl(180.0,100%,35%)" stroke-width="0.00526"></path>
<path d="M0.742 0.738 Q0.633 0.869 0.866 0.951" stroke="hsl(180.0,100%,35%)" stroke-width="0.00015"></path>
<path d="M0.742 0.738 Q1.130 0.409 0.574 0.147" stroke="hsl(180.0,100%,35%)" stroke-width="0.00015"></path>
<path d="M0.742 0.738 Q1.120 0.555 0.847 0.331" stroke="hsl(180.0,100%,35%)" stroke-width="0.00015"></path>
<path d="M0.573 0.341 Q0.627 0.331 0.619 0.302" stroke="hsl(0.0,100%,35%)" stroke-width="0.00225"></path>
<path d="M0.573 0.341 Q0.718 0.391 0.847 0.331" stroke="hsl(0.0,100%,35%)" stroke-width="0.00360"></path>
<path d="M0.573 0.341 Q0.925 0.601 1.510 0.486" stroke="hsl(0.0,100%,35%)" stroke-width="0.00210"></path>
<path d="M0.573 0.341 Q0.552 0.468 0.796 0.506" stroke="hsl(0.0,100%,35%)" stroke-width="0.00195"></path>
<path d="M0.573 0.341 Q0.064 0.672 0.598 0.993" stroke="hsl(0.0,100%,35%)" stroke-width="0.00180"></path>
<path d="M0.573 0.341 Q0.855 0.327 0.890 0.187" stroke="hsl(0.0,100%,35%)" stroke-width="0.00075"></path>
<path d="M0.573 0.341 Q0.854 0.515 1.255 0.416" stroke="hsl(0.0,100%,35%)" stroke-width="0.00075"></path>
<path d="M0.573 0.341 Q1.006 0.402 1.221 0.204" stroke="hsl(0.0,100%,35%)" stroke-width="0.00015"></path>
<path d="M0.573 0.341 Q0.231 0.705 0.866 0.951" stroke="hsl(0.0,100%,35%)" stroke-width="0.00045"></path>
<path d="M0.573 0.341 Q0.659 0.977 1.918 1.074" stroke="hsl(0.0,100%,35%)" stroke-width="0.00015"></path>
<path d="M0.573 0.341 Q0.179 0.548 0.497 0.785" stroke="hsl(0.0,100%,35%)" stroke-width="0.00015"></path>
<path d="M0.573 0.341 Q0.809 0.264 0.711 0.132" stroke="hsl(0.0,100%,35%)" stroke-width="0.00015"></path>
<path d="M1.901 0.673 Q1.784 0.227 0.890 0.187" stroke="hsl(180.0,100%,35%)" stroke-width="0.00180"></path>
<path d="M1.901 0.673 Q1.626 0.620 1.463 0.743" stroke="hsl(180.0,100%,35%)" stroke-width="0.00586"></path>
<path d="M1.901 0.673 Q1.647 0.291 0.847 0.331" stroke="hsl(180.0,100%,35%)" stroke-width="0.00015"></path>
<path d="M1.901 0.673 Q1.557 0.231 0.619 0.302" stroke="hsl(180.0,100%,35%)" stroke-width="0.00015"></path>
<path d="M1.901 0.673 Q1.936 0.302 1.221 0.204" stroke="hsl(180.0,100%,35%)" stroke-width="0.00015"></path>
<path d="M1.901 0.673 Q1.588 0.877 1.918 1.074" stroke="hsl(180.0,100%,35%)" stroke-width="0.00075"></path>
<path d="M1.463 0.743 Q1.738 0.795 1.901 0.673" stroke="hsl(180.0,100%,35%)" stroke-width="0.00466"></path>
<path d="M1.463 0.743 Q0.946 0.571 0.497 0.785" stroke="hsl(180.0,100%,35%)" stroke-width="0.00165"></path>
<path d="M1.463 0.743 Q1.621 0.538 1.255 0.416" stroke="hsl(180.0,100%,35%)" stroke-width="0.00090"></path>
<path d="M1.463 0.743 Q1.621 0.350 0.890 0.187" stroke="hsl(180.0,100%,35%)" stroke-width="0.00165"></path>
<path d="M1.463 0.743 Q0.831 0.695 0.598 0.993" stroke="hsl(180.0,100%,35%)" stroke-width="0.00015"></path>
<path d="M1.463 0.743 Q1.425 0.999 1.918 1.074" stroke="hsl(180.0,100%,35%)" stroke-width="0.00015"></path>
<path d="M1.463 0.743 Q1.541 0.654 1.384 0.596" stroke="hsl(180.0,100%,35%)" stroke-width="0.00030"></path>
<path d="M1.463 0.743 Q1.692 0.624 1.510 0.486" stroke="hsl(180.0,100%,35%)" stroke-width="0.00015"></path>
<path d="M1.463 0.743 Q1.285 0.571 0.911 0.621" stroke="hsl(180.0,100%,35%)" stroke-width="0.00030"></path>
<path d="M1.463 0.743 Q1.576 0.287 0.711 0.132" stroke="hsl(180.0,100%,35%)" stroke-width="0.00015"></path>
<path d="M1.463 0.743 Q1.711 0.275 0.853 0.051" stroke="hsl(180.0,100%,35%)" stroke-width="0.00015"></path>
<path d="M1.463 0.743 Q1.106 0.596 0.742 0.738" stroke="hsl(180.0,100%,35%)" stroke-width="0.00015"></path>
<path d="M1.918 1.074 Q1.438 0.646 0.497 0.785" stroke="hsl(180.0,100%,35%)" stroke-width="0.00030"></path>
<path d="M1.918 1.074 Q2.184 0.699 1.510 0.486" stroke="hsl(180.0,100%,35%)" stroke-width="0.00075"></path>
<path d="M1.918 1.074 Q1.977 0.488 0.847 0.331" stroke="hsl(180.0,100%,35%)" stroke-width="0.00030"></path>
<path d="M1.918 1.074 Q2.482 0.669 1.815 0.305" stroke="hsl(180.0,100%,35%)" stroke-width="0.00090"></path>
<path d="M1.918 1.074 Q2.204 0.350 0.853 0.051" stroke="hsl(180.0,100%,35%)" stroke-width="0.00060"></path>
<path d="M1.918 1.074 Q2.114 0.425 0.890 0.187" stroke="hsl(180.0,100%,35%)" stroke-width="0.00045"></path>
<path d="M1.918 1.074 Q2.113 0.613 1.255 0.416" stroke="hsl(180.0,100%,35%)" stroke-width="0.00015"></path>
<path d="M1.130 0.609 Q1.347 0.538 1.255 0.416" stroke="hsl(0.0,100%,35%)" stroke-width="0.00721"></path>
<path d="M1.130 0.609 Q1.152 0.999 1.918 1.074" stroke="hsl(0.0,100%,35%)" stroke-width="0.00030"></path>
<path d="M1.130 0.609 Q1.161 0.552 1.056 0.524" stroke="hsl(0.0,100%,35%)" stroke-width="0.00030"></path>
<path d="M1.130 0.609 Q1.418 0.624 1.510 0.486" stroke="hsl(0.0,100%,35%)" stroke-width="0.00015"></path>
<path d="M1.130 0.609 Q1.267 0.653 1.384 0.596" stroke="hsl(0.0,100%,35%)" stroke-width="0.00015"></path>
<path d="M1.339 0.100 Q1.115 0.327 1.510 0.486" stroke="hsl(180.0,100%,35%)" stroke-width="0.00015"></path>
<path d="M1.339 0.100 Q1.044 0.241 1.255 0.416" stroke="hsl(180.0,100%,35%)" stroke-width="0.00015"></path>
<path d="M1.339 0.100 Q0.254 0.398 0.598 0.993" stroke="hsl(180.0,100%,35%)" stroke-width="0.00015"></path>
<path d="M1.339 0.100 Q1.045 0.054 0.890 0.187" stroke="hsl(180.0,100%,35%)" stroke-width="0.00045"></path>
<path d="M0.244 0.573 Q0.876 0.509 0.890 0.187" stroke="hsl(180.0,100%,35%)" stroke-width="0.00315"></path>
<path d="M0.244 0.573 Q0.200 0.730 0.497 0.785" stroke="hsl(180.0,100%,35%)" stroke-width="0.00376"></path>
<path d="M0.244 0.573 Q0.718 0.902 1.463 0.743" stroke="hsl(180.0,100%,35%)" stroke-width="0.00015"></path>
<path d="M0.244 0.573 Q1.244 0.753 1.815 0.305" stroke="hsl(180.0,100%,35%)" stroke-width="0.00015"></path>
<path d="M1.224 0.171 Q0.999 0.049 0.711 0.132" stroke="hsl(180.0,100%,35%)" stroke-width="0.00030"></path>
<path d="M1.224 0.171 Q0.918 0.029 0.574 0.147" stroke="hsl(180.0,100%,35%)" stroke-width="0.00015"></path>
<path d="M1.224 0.171 Q1.044 0.112 0.890 0.187" stroke="hsl(180.0,100%,35%)" stroke-width="0.00060"></path>
<path d="M1.224 0.171 Q1.147 0.050 0.895 0.061" stroke="hsl(180.0,100%,35%)" stroke-width="0.00030"></path>
<path d="M1.221 0.204 Q1.070 0.129 0.890 0.187" stroke="hsl(180.0,100%,35%)" stroke-width="0.00541"></path>
<path d="M1.221 0.204 Q0.943 0.046 0.574 0.147" stroke="hsl(180.0,100%,35%)" stroke-width="0.00045"></path>
<path d="M1.221 0.204 Q1.024 0.066 0.711 0.132" stroke="hsl(180.0,100%,35%)" stroke-width="0.00030"></path>
<path d="M1.221 0.204 Q0.279 0.474 0.598 0.993" stroke="hsl(180.0,100%,35%)" stroke-width="0.00075"></path>
<path d="M1.221 0.204 Q0.394 0.350 0.497 0.785" stroke="hsl(180.0,100%,35%)" stroke-width="0.00015"></path>
<path d="M1.221 0.204 Q0.742 0.518 1.250 0.821" stroke="hsl(180.0,100%,35%)" stroke-width="0.00015"></path>
<path d="M1.221 0.204 Q0.621 0.575 1.212 0.949" stroke="hsl(180.0,100%,35%)" stroke-width="0.00030"></path>
<path d="M1.221 0.204 Q1.140 0.403 1.510 0.486" stroke="hsl(180.0,100%,35%)" stroke-width="0.00090"></path>
<path d="M1.221 0.204 Q1.249 0.188 1.224 0.171" stroke="hsl(180.0,100%,35%)" stroke-width="0.00060"></path>
<path d="M1.221 0.204 Q1.173 0.067 0.895 0.061" stroke="hsl(180.0,100%,35%)" stroke-width="0.00015"></path>
<path d="M1.221 0.204 Q1.069 0.317 1.255 0.416" stroke="hsl(180.0,100%,35%)" stroke-width="0.00030"></path>
<path d="M1.221 0.204 Q1.186 0.574 1.901 0.673" stroke="hsl(180.0,100%,35%)" stroke-width="0.00030"></path>
<path d="M1.221 0.204 Q0.842 0.132 0.619 0.302" stroke="hsl(180.0,100%,35%)" stroke-width="0.00015"></path>
<path d="M1.221 0.204 Q0.933 0.192 0.847 0.331" stroke="hsl(180.0,100%,35%)" stroke-width="0.00015"></path>
<path d="M1.221 0.204 Q0.767 0.270 0.796 0.506" stroke="hsl(180.0,100%,35%)" stroke-width="0.00015"></path>
<path d="M1.212 0.949 Q1.813 0.578 1.221 0.204" stroke="hsl(180.0,100%,35%)" stroke-width="0.00090"></path>
<path d="M1.212 0.949 Q1.334 0.892 1.250 0.821" stroke="hsl(180.0,100%,35%)" stroke-width="0.00120"></path>
<path d="M1.212 0.949 Q1.434 0.507 0.619 0.302" stroke="hsl(180.0,100%,35%)" stroke-width="0.00015"></path>
<path d="M1.212 0.949 Q1.764 0.442 0.895 0.061" stroke="hsl(180.0,100%,35%)" stroke-width="0.00030"></path>
<path d="M1.212 0.949 Q1.324 0.725 0.911 0.621" stroke="hsl(180.0,100%,35%)" stroke-width="0.00015"></path>
<path d="M1.212 0.949 Q1.661 0.503 0.890 0.187" stroke="hsl(180.0,100%,35%)" stroke-width="0.00015"></path>
<path d="M0.966 1.165 Q1.710 0.849 1.255 0.416" stroke="hsl(0.0,100%,35%)" stroke-width="0.00015"></path>
<path d="M0.966 1.165 Q1.574 0.724 0.847 0.331" stroke="hsl(0.0,100%,35%)" stroke-width="0.00015"></path>
<path d="M0.966 1.165 Q0.920 1.005 0.598 0.993" stroke="hsl(0.0,100%,35%)" stroke-width="0.00015"></path>
<path d="M0.633 0.615 Q0.589 0.698 0.742 0.738" stroke="hsl(180.0,100%,35%)" stroke-width="0.00015"></path>
<path d="M0.633 0.615 Q1.103 0.640 1.255 0.416" stroke="hsl(180.0,100%,35%)" stroke-width="0.00015"></path>
<path d="M0.633 0.615 Q1.104 0.452 0.890 0.187" stroke="hsl(180.0,100%,35%)" stroke-width="0.00015"></path>
<path d="M0.663 0.632 Q1.133 0.455 0.890 0.187" stroke="hsl(180.0,100%,35%)" stroke-width="0.00015"></path>
<path d="M0.663 0.632 Q0.618 0.701 0.742 0.738" stroke="hsl(180.0,100%,35%)" stroke-width="0.00015"></path>
<path d="M0.663 0.632 Q0.457 0.675 0.497 0.785" stroke="hsl(180.0,100%,35%)" stroke-width="0.00030"></path>
<path d="M1.091 0.064 Q0.377 0.331 0.742 0.738" stroke="hsl(180.0,100%,35%)" stroke-width="0.00075"></path>
<path d="M1.091 0.064 Q0.892 0.085 0.890 0.187" stroke="hsl(180.0,100%,35%)" stroke-width="0.00060"></path>
<path d="M1.091 0.064 Q0.556 0.306 0.911 0.621" stroke="hsl(180.0,100%,35%)" stroke-width="0.00015"></path>
<path d="M1.091 0.064 Q0.963 0.359 1.510 0.486" stroke="hsl(180.0,100%,35%)" stroke-width="0.00015"></path>
<path d="M1.277 0.335 Q1.202 0.371 1.255 0.416" stroke="hsl(0.0,100%,35%)" stroke-width="0.00120"></path>
<path d="M1.277 0.335 Q1.016 0.385 1.056 0.524" stroke="hsl(0.0,100%,35%)" stroke-width="0.00015"></path>
<path d="M1.277 0.335 Q1.007 0.833 1.918 1.074" stroke="hsl(0.0,100%,35%)" stroke-width="0.00015"></path>
<path d="M1.078 0.259 Q0.740 0.326 0.796 0.506" stroke="hsl(0.0,100%,35%)" stroke-width="0.00090"></path>
<path d="M1.078 0.259 Q0.905 0.249 0.847 0.331" stroke="hsl(0.0,100%,35%)" stroke-width="0.00180"></path>
<path d="M1.078 0.259 Q0.251 0.530 0.598 0.993" stroke="hsl(0.0,100%,35%)" stroke-width="0.00015"></path>
<path d="M1.078 0.259 Q0.419 0.563 0.866 0.951" stroke="hsl(0.0,100%,35%)" stroke-width="0.00090"></path>
<path d="M1.510 0.847 Q1.053 0.614 0.497 0.785" stroke="hsl(180.0,100%,35%)" stroke-width="0.00075"></path>
<path d="M1.510 0.847 Q1.728 0.581 1.255 0.416" stroke="hsl(180.0,100%,35%)" stroke-width="0.00075"></path>
<path d="M1.510 0.847 Q1.570 0.786 1.463 0.743" stroke="hsl(180.0,100%,35%)" stroke-width="0.00090"></path>
<path d="M1.510 0.847 Q1.729 0.393 0.890 0.187" stroke="hsl(180.0,100%,35%)" stroke-width="0.00015"></path>
<path d="M1.510 0.847 Q1.426 0.534 0.796 0.506" stroke="hsl(180.0,100%,35%)" stroke-width="0.00015"></path>
<path d="M1.066 0.579 Q0.989 0.488 0.796 0.506" stroke="hsl(0.0,100%,35%)" stroke-width="0.00015"></path>
<path d="M1.066 0.579 Q0.501 0.692 0.598 0.993" stroke="hsl(0.0,100%,35%)" stroke-width="0.00015"></path>
<path d="M1.066 0.579 Q1.362 0.621 1.510 0.486" stroke="hsl(0.0,100%,35%)" stroke-width="0.00015"></path>
<path d="M0.532 0.507 Q0.665 0.559 0.796 0.506" stroke="hsl(0.0,100%,35%)" stroke-width="0.00240"></path>
<path d="M0.532 0.507 Q0.830 0.482 0.847 0.331" stroke="hsl(0.0,100%,35%)" stroke-width="0.00135"></path>
<path d="M0.532 0.507 Q0.966 0.606 1.255 0.416" stroke="hsl(0.0,100%,35%)" stroke-width="0.00060"></path>
<path d="M0.532 0.507 Q0.176 0.763 0.598 0.993" stroke="hsl(0.0,100%,35%)" stroke-width="0.00090"></path>
<path d="M0.532 0.507 Q0.966 0.793 1.620 0.645" stroke="hsl(0.0,100%,35%)" stroke-width="0.00015"></path>
<path d="M1.574 0.569 Q1.609 0.515 1.510 0.486" stroke="hsl(0.0,100%,35%)" stroke-width="0.00015"></path>
<path d="M1.574 0.569 Q1.537 0.429 1.255 0.416" stroke="hsl(0.0,100%,35%)" stroke-width="0.00045"></path>
<path d="M1.574 0.569 Q1.458 0.545 1.384 0.596" stroke="hsl(0.0,100%,35%)" stroke-width="0.00090"></path>
<path d="M0.916 0.515 Q0.374 0.690 0.598 0.993" stroke="hsl(0.0,100%,35%)" stroke-width="0.00075"></path>
<path d="M0.916 0.515 Q1.164 0.533 1.255 0.416" stroke="hsl(0.0,100%,35%)" stroke-width="0.00045"></path>
<path d="M0.916 0.515 Q1.028 0.409 0.847 0.331" stroke="hsl(0.0,100%,35%)" stroke-width="0.00105"></path>
<path d="M0.916 0.515 Q1.085 0.649 1.384 0.596" stroke="hsl(0.0,100%,35%)" stroke-width="0.00015"></path>
<path d="M0.916 0.515 Q1.165 0.346 0.890 0.187" stroke="hsl(0.0,100%,35%)" stroke-width="0.00045"></path>
<path d="M0.916 0.515 Q0.863 0.487 0.796 0.506" stroke="hsl(0.0,100%,35%)" stroke-width="0.00075"></path>
<path d="M0.916 0.515 Q0.542 0.723 0.866 0.951" stroke="hsl(0.0,100%,35%)" stroke-width="0.00015"></path>
</g>
<text x="1.620" y="0.622" font-size="0.044791" fill="hsl(0.0,100%,20%)">armansito</text>
<text x="1.255" y="0.378" font-size="0.077176" fill="hsl(0.0,100%,20%)">brianosman</text>
<text x="0.847" y="0.304" font-size="0.053911" fill="hsl(0.0,100%,20%)">michaelludwig</text>
<text x="0.598" y="0.967" font-size="0.050965" fill="hsl(0.0,100%,20%)">jvanverth</text>
<text x="0.866" y="0.936" font-size="0.029551" fill="hsl(0.0,100%,20%)">nicolettep</text>
<text x="1.510" y="0.445" font-size="0.081933" fill="hsl(0.0,100%,20%)">johnstiles</text>
<text x="0.796" y="0.488" font-size="0.036715" fill="hsl(0.0,100%,20%)">egdaniel</text>
<text x="0.890" y="0.153" font-size="0.066484" fill="hsl(180.0,100%,20%)">kjlubick</text>
<text x="0.574" y="0.136" font-size="0.021890" fill="hsl(180.0,100%,20%)">lovisolo</text>
<text x="1.384" y="0.573" font-size="0.047556" fill="hsl(0.0,100%,20%)">herb</text>
<text x="0.497" y="0.766" font-size="0.039477" fill="hsl(180.0,100%,20%)">bungeman</text>
<text x="0.911" y="0.608" font-size="0.024405" fill="hsl(0.0,100%,20%)">bsalomon</text>
<text x="1.245" y="0.697" font-size="0.004232" fill="hsl(0.0,100%,20%)">ayzhao</text>
<text x="0.793" y="0.820" font-size="0.004232" fill="hsl(0.0,100%,20%)">blundell</text>
<text x="0.619" y="0.275" font-size="0.052905" fill="hsl(0.0,100%,20%)">robertphillips</text>
<text x="0.895" y="0.053" font-size="0.016392" fill="hsl(180.0,100%,20%)">borenet</text>
<text x="0.711" y="0.124" font-size="0.016255" fill="hsl(180.0,100%,20%)">jcgregorio</text>
<text x="1.056" y="0.521" font-size="0.007019" fill="hsl(180.0,100%,20%)">jreck</text>
<text x="0.853" y="0.045" font-size="0.013045" fill="hsl(180.0,100%,20%)">nscobie</text>
<text x="0.742" y="0.728" font-size="0.018809" fill="hsl(180.0,100%,20%)">jlavrova</text>
<text x="0.573" y="0.327" font-size="0.027673" fill="hsl(0.0,100%,20%)">jamesgk</text>
<text x="1.901" y="0.662" font-size="0.021162" fill="hsl(180.0,100%,20%)">jmbetancourt</text>
<text x="1.463" y="0.730" font-size="0.026346" fill="hsl(180.0,100%,20%)">fmalita</text>
<text x="1.918" y="1.065" font-size="0.018081" fill="hsl(180.0,100%,20%)">scroggo</text>
<text x="1.130" y="0.601" font-size="0.016255" fill="hsl(0.0,100%,20%)">ccameron</text>
<text x="1.339" y="0.098" font-size="0.005184" fill="hsl(180.0,100%,20%)">briansalomon</text>
<text x="0.244" y="0.565" font-size="0.016392" fill="hsl(180.0,100%,20%)">drott</text>
<text x="1.224" y="0.163" font-size="0.014813" fill="hsl(180.0,100%,20%)">rmistry</text>
<text x="1.221" y="0.194" font-size="0.020842" fill="hsl(180.0,100%,20%)">cmumford</text>
<text x="1.250" y="0.817" font-size="0.007019" fill="hsl(180.0,100%,20%)">hcm</text>
<text x="1.212" y="0.944" font-size="0.009698" fill="hsl(180.0,100%,20%)">sharaks</text>
<text x="1.815" y="0.301" font-size="0.006349" fill="hsl(180.0,100%,20%)">djsollen</text>
<text x="0.966" y="1.163" font-size="0.003665" fill="hsl(0.0,100%,20%)">hitawala</text>
<text x="0.633" y="0.613" font-size="0.003665" fill="hsl(180.0,100%,20%)">jacksongardner</text>
<text x="0.663" y="0.630" font-size="0.004232" fill="hsl(180.0,100%,20%)">jiulongw</text>
<text x="1.132" y="0.095" font-size="0.005599" fill="hsl(180.0,100%,20%)">tdenniston</text>
<text x="0.723" y="0.073" font-size="0.004232" fill="hsl(180.0,100%,20%)">wrightgeorge</text>
<text x="1.091" y="0.060" font-size="0.007019" fill="hsl(180.0,100%,20%)">jsimmons</text>
<text x="1.277" y="0.332" font-size="0.006692" fill="hsl(0.0,100%,20%)">kyslov</text>
<text x="1.078" y="0.254" font-size="0.010581" fill="hsl(0.0,100%,20%)">lehoangquyen</text>
<text x="1.510" y="0.843" font-size="0.008978" fill="hsl(180.0,100%,20%)">mike</text>
<text x="1.066" y="0.577" font-size="0.003665" fill="hsl(0.0,100%,20%)">nathbappai</text>
<text x="0.532" y="0.501" font-size="0.012697" fill="hsl(0.0,100%,20%)">penghuang</text>
<text x="1.574" y="0.566" font-size="0.006692" fill="hsl(0.0,100%,20%)">sky</text>
<text x="0.916" y="0.510" font-size="0.010581" fill="hsl(0.0,100%,20%)">sunnyps</text>
</svg>
