<svg width="4000" height="2000" viewBox="-0.025 -0.025 2.05 1.05" xmlns="http://www.w3.org/2000/svg">
  <style>
    path {
      fill: none;
      stroke-linecap: round;
      stroke-opacity: 0.4;
    }

    text {
      text-anchor: middle;
      alignment-baseline: hanging;
    }
  </style>
  <g opacity="0.4">
<path d="M0.967 0.062 Q0.827 0.173 1.011 0.266" stroke="hsl(0.0,100%,35%)" stroke-width="0.00219"></path>
<path d="M0.967 0.062 Q0.984 0.171 1.199 0.186" stroke="hsl(0.0,100%,35%)" stroke-width="0.00360"></path>
<path d="M0.967 0.062 Q0.114 0.161 0.120 0.599" stroke="hsl(0.0,100%,35%)" stroke-width="0.00156"></path>
<path d="M0.967 0.062 Q0.585 0.184 0.738 0.397" stroke="hsl(0.0,100%,35%)" stroke-width="0.00016"></path>
<path d="M0.967 0.062 Q0.261 0.096 0.170 0.448" stroke="hsl(0.0,100%,35%)" stroke-width="0.00063"></path>
<path d="M0.967 0.062 Q0.799 0.427 1.473 0.589" stroke="hsl(0.0,100%,35%)" stroke-width="0.00172"></path>
<path d="M0.967 0.062 Q0.260 0.250 0.472 0.636" stroke="hsl(0.0,100%,35%)" stroke-width="0.00094"></path>
<path d="M0.967 0.062 Q0.867 0.295 1.300 0.395" stroke="hsl(0.0,100%,35%)" stroke-width="0.00016"></path>
<path d="M0.967 0.062 Q0.656 0.584 1.605 0.851" stroke="hsl(0.0,100%,35%)" stroke-width="0.00016"></path>
<path d="M0.967 0.062 Q0.715 -0.025 0.489 0.080" stroke="hsl(0.0,100%,35%)" stroke-width="0.00016"></path>
<path d="M0.967 0.062 Q1.047 0.267 1.464 0.273" stroke="hsl(0.0,100%,35%)" stroke-width="0.00016"></path>
<path d="M0.967 0.062 Q0.905 0.287 1.329 0.366" stroke="hsl(0.0,100%,35%)" stroke-width="0.00016"></path>
<path d="M1.011 0.266 Q0.642 0.150 0.335 0.305" stroke="hsl(0.0,100%,35%)" stroke-width="0.00016"></path>
<path d="M1.011 0.266 Q0.984 0.520 1.473 0.589" stroke="hsl(0.0,100%,35%)" stroke-width="0.00250"></path>
<path d="M1.011 0.266 Q0.445 0.343 0.472 0.636" stroke="hsl(0.0,100%,35%)" stroke-width="0.00454"></path>
<path d="M1.011 0.266 Q0.429 0.273 0.316 0.559" stroke="hsl(0.0,100%,35%)" stroke-width="0.00594"></path>
<path d="M1.011 0.266 Q1.169 0.263 1.199 0.186" stroke="hsl(0.0,100%,35%)" stroke-width="0.01079"></path>
<path d="M1.011 0.266 Q0.840 0.677 1.605 0.851" stroke="hsl(0.0,100%,35%)" stroke-width="0.00156"></path>
<path d="M1.011 0.266 Q0.890 0.374 1.074 0.456" stroke="hsl(0.0,100%,35%)" stroke-width="0.00563"></path>
<path d="M1.011 0.266 Q0.299 0.254 0.120 0.599" stroke="hsl(0.0,100%,35%)" stroke-width="0.00235"></path>
<path d="M1.011 0.266 Q0.445 0.188 0.170 0.448" stroke="hsl(0.0,100%,35%)" stroke-width="0.00078"></path>
<path d="M1.011 0.266 Q0.713 0.344 0.800 0.507" stroke="hsl(0.0,100%,35%)" stroke-width="0.00188"></path>
<path d="M1.011 0.266 Q0.899 0.068 0.489 0.080" stroke="hsl(0.0,100%,35%)" stroke-width="0.00047"></path>
<path d="M1.011 0.266 Q1.273 0.392 1.576 0.291" stroke="hsl(0.0,100%,35%)" stroke-width="0.00063"></path>
<path d="M1.011 0.266 Q1.152 0.155 0.967 0.062" stroke="hsl(0.0,100%,35%)" stroke-width="0.00078"></path>
<path d="M1.011 0.266 Q1.375 0.461 1.836 0.326" stroke="hsl(0.0,100%,35%)" stroke-width="0.00078"></path>
<path d="M1.011 0.266 Q0.735 0.016 0.187 0.096" stroke="hsl(0.0,100%,35%)" stroke-width="0.00016"></path>
<path d="M1.011 0.266 Q1.232 0.360 1.464 0.273" stroke="hsl(0.0,100%,35%)" stroke-width="0.00094"></path>
<path d="M1.011 0.266 Q0.777 0.456 1.097 0.612" stroke="hsl(0.0,100%,35%)" stroke-width="0.00016"></path>
<path d="M1.011 0.266 Q0.813 0.545 1.315 0.703" stroke="hsl(0.0,100%,35%)" stroke-width="0.00047"></path>
<path d="M1.011 0.266 Q1.339 0.545 1.956 0.446" stroke="hsl(0.0,100%,35%)" stroke-width="0.00031"></path>
<path d="M1.011 0.266 Q1.089 0.380 1.329 0.366" stroke="hsl(0.0,100%,35%)" stroke-width="0.00094"></path>
<path d="M1.199 0.186 Q0.843 0.468 1.315 0.703" stroke="hsl(0.0,100%,35%)" stroke-width="0.00109"></path>
<path d="M1.199 0.186 Q1.041 0.188 1.011 0.266" stroke="hsl(0.0,100%,35%)" stroke-width="0.08555"></path>
<path d="M1.199 0.186 Q1.182 0.078 0.967 0.062" stroke="hsl(0.0,100%,35%)" stroke-width="0.00954"></path>
<path d="M1.199 0.186 Q1.014 0.442 1.473 0.589" stroke="hsl(0.0,100%,35%)" stroke-width="0.00328"></path>
<path d="M1.199 0.186 Q0.475 0.111 0.170 0.448" stroke="hsl(0.0,100%,35%)" stroke-width="0.00344"></path>
<path d="M1.199 0.186 Q0.459 0.196 0.316 0.559" stroke="hsl(0.0,100%,35%)" stroke-width="0.00626"></path>
<path d="M1.199 0.186 Q0.329 0.176 0.120 0.599" stroke="hsl(0.0,100%,35%)" stroke-width="0.00297"></path>
<path d="M1.199 0.186 Q0.743 0.267 0.800 0.507" stroke="hsl(0.0,100%,35%)" stroke-width="0.00923"></path>
<path d="M1.199 0.186 Q0.815 0.142 0.646 0.320" stroke="hsl(0.0,100%,35%)" stroke-width="0.00047"></path>
<path d="M1.199 0.186 Q0.920 0.296 1.074 0.456" stroke="hsl(0.0,100%,35%)" stroke-width="0.00172"></path>
<path d="M1.199 0.186 Q0.929 -0.009 0.489 0.080" stroke="hsl(0.0,100%,35%)" stroke-width="0.00109"></path>
<path d="M1.199 0.186 Q0.475 0.266 0.472 0.636" stroke="hsl(0.0,100%,35%)" stroke-width="0.00125"></path>
<path d="M1.199 0.186 Q0.800 0.199 0.738 0.397" stroke="hsl(0.0,100%,35%)" stroke-width="0.00078"></path>
<path d="M1.199 0.186 Q0.672 0.072 0.335 0.305" stroke="hsl(0.0,100%,35%)" stroke-width="0.00078"></path>
<path d="M1.199 0.186 Q1.262 0.282 1.464 0.273" stroke="hsl(0.0,100%,35%)" stroke-width="0.01204"></path>
<path d="M1.199 0.186 Q0.765 -0.061 0.187 0.096" stroke="hsl(0.0,100%,35%)" stroke-width="0.00031"></path>
<path d="M1.199 0.186 Q0.870 0.599 1.605 0.851" stroke="hsl(0.0,100%,35%)" stroke-width="0.00328"></path>
<path d="M1.199 0.186 Q1.437 0.168 1.453 0.048" stroke="hsl(0.0,100%,35%)" stroke-width="0.00016"></path>
<path d="M1.199 0.186 Q1.119 0.302 1.329 0.366" stroke="hsl(0.0,100%,35%)" stroke-width="0.00078"></path>
<path d="M1.199 0.186 Q1.303 0.314 1.576 0.291" stroke="hsl(0.0,100%,35%)" stroke-width="0.00172"></path>
<path d="M1.199 0.186 Q0.615 0.177 0.469 0.460" stroke="hsl(0.0,100%,35%)" stroke-width="0.00047"></path>
<path d="M1.199 0.186 Q1.369 0.467 1.956 0.446" stroke="hsl(0.0,100%,35%)" stroke-width="0.00016"></path>
<path d="M1.199 0.186 Q0.683 0.458 1.101 0.770" stroke="hsl(0.0,100%,35%)" stroke-width="0.00031"></path>
<path d="M0.120 0.599 Q0.266 0.533 0.170 0.448" stroke="hsl(180.0,100%,35%)" stroke-width="0.00845"></path>
<path d="M0.120 0.599 Q0.711 0.718 1.074 0.456" stroke="hsl(180.0,100%,35%)" stroke-width="0.00016"></path>
<path d="M0.120 0.599 Q0.990 0.608 1.199 0.186" stroke="hsl(180.0,100%,35%)" stroke-width="0.00016"></path>
<path d="M0.120 0.599 Q0.266 0.688 0.472 0.636" stroke="hsl(180.0,100%,35%)" stroke-width="0.00250"></path>
<path d="M0.120 0.599 Q0.606 0.565 0.646 0.320" stroke="hsl(180.0,100%,35%)" stroke-width="0.00156"></path>
<path d="M0.120 0.599 Q0.250 0.618 0.316 0.559" stroke="hsl(180.0,100%,35%)" stroke-width="0.00563"></path>
<path d="M0.120 0.599 Q0.533 0.689 0.800 0.507" stroke="hsl(180.0,100%,35%)" stroke-width="0.00610"></path>
<path d="M0.120 0.599 Q1.196 0.806 1.836 0.326" stroke="hsl(180.0,100%,35%)" stroke-width="0.00016"></path>
<path d="M0.120 0.599 Q0.590 0.622 0.738 0.397" stroke="hsl(180.0,100%,35%)" stroke-width="0.00031"></path>
<path d="M0.120 0.599 Q0.832 0.611 1.011 0.266" stroke="hsl(180.0,100%,35%)" stroke-width="0.00047"></path>
<path d="M0.120 0.599 Q0.804 0.865 1.473 0.589" stroke="hsl(180.0,100%,35%)" stroke-width="0.00094"></path>
<path d="M0.120 0.599 Q0.634 0.890 1.315 0.703" stroke="hsl(180.0,100%,35%)" stroke-width="0.00031"></path>
<path d="M0.120 0.599 Q0.910 0.724 1.329 0.366" stroke="hsl(180.0,100%,35%)" stroke-width="0.00016"></path>
<path d="M0.120 0.599 Q0.873 0.733 1.300 0.395" stroke="hsl(180.0,100%,35%)" stroke-width="0.00016"></path>
<path d="M0.120 0.599 Q1.094 0.737 1.576 0.291" stroke="hsl(180.0,100%,35%)" stroke-width="0.00016"></path>
<path d="M0.120 0.599 Q0.405 0.599 0.469 0.460" stroke="hsl(180.0,100%,35%)" stroke-width="0.00094"></path>
<path d="M0.120 0.599 Q0.661 1.022 1.605 0.851" stroke="hsl(180.0,100%,35%)" stroke-width="0.00031"></path>
<path d="M0.120 0.599 Q1.052 0.705 1.464 0.273" stroke="hsl(180.0,100%,35%)" stroke-width="0.00016"></path>
<path d="M0.738 0.397 Q0.681 0.464 0.800 0.507" stroke="hsl(180.0,100%,35%)" stroke-width="0.00156"></path>
<path d="M0.738 0.397 Q0.268 0.374 0.120 0.599" stroke="hsl(180.0,100%,35%)" stroke-width="0.00078"></path>
<path d="M0.738 0.397 Q1.138 0.384 1.199 0.186" stroke="hsl(180.0,100%,35%)" stroke-width="0.00078"></path>
<path d="M0.738 0.397 Q0.398 0.393 0.316 0.559" stroke="hsl(180.0,100%,35%)" stroke-width="0.00078"></path>
<path d="M0.738 0.397 Q0.414 0.309 0.170 0.448" stroke="hsl(180.0,100%,35%)" stroke-width="0.00047"></path>
<path d="M0.738 0.397 Q0.952 0.640 1.473 0.589" stroke="hsl(180.0,100%,35%)" stroke-width="0.00047"></path>
<path d="M0.170 0.448 Q0.024 0.513 0.120 0.599" stroke="hsl(180.0,100%,35%)" stroke-width="0.01142"></path>
<path d="M0.170 0.448 Q0.170 0.602 0.472 0.636" stroke="hsl(180.0,100%,35%)" stroke-width="0.00078"></path>
<path d="M0.170 0.448 Q0.438 0.603 0.800 0.507" stroke="hsl(180.0,100%,35%)" stroke-width="0.00657"></path>
<path d="M0.170 0.448 Q0.615 0.633 1.074 0.456" stroke="hsl(180.0,100%,35%)" stroke-width="0.00375"></path>
<path d="M0.170 0.448 Q0.894 0.523 1.199 0.186" stroke="hsl(180.0,100%,35%)" stroke-width="0.00125"></path>
<path d="M0.170 0.448 Q0.736 0.525 1.011 0.266" stroke="hsl(180.0,100%,35%)" stroke-width="0.00156"></path>
<path d="M0.170 0.448 Q0.154 0.532 0.316 0.559" stroke="hsl(180.0,100%,35%)" stroke-width="0.00845"></path>
<path d="M0.170 0.448 Q0.708 0.779 1.473 0.589" stroke="hsl(180.0,100%,35%)" stroke-width="0.00109"></path>
<path d="M0.170 0.448 Q0.814 0.639 1.329 0.366" stroke="hsl(180.0,100%,35%)" stroke-width="0.00016"></path>
<path d="M0.170 0.448 Q0.877 0.414 0.967 0.062" stroke="hsl(180.0,100%,35%)" stroke-width="0.00016"></path>
<path d="M0.170 0.448 Q0.565 0.936 1.605 0.851" stroke="hsl(180.0,100%,35%)" stroke-width="0.00031"></path>
<path d="M0.170 0.448 Q0.378 0.795 1.101 0.770" stroke="hsl(180.0,100%,35%)" stroke-width="0.00031"></path>
<path d="M0.170 0.448 Q0.310 0.514 0.469 0.460" stroke="hsl(180.0,100%,35%)" stroke-width="0.00016"></path>
<path d="M1.473 0.589 Q1.501 0.335 1.011 0.266" stroke="hsl(0.0,100%,35%)" stroke-width="0.01157"></path>
<path d="M1.473 0.589 Q1.330 0.746 1.605 0.851" stroke="hsl(0.0,100%,35%)" stroke-width="0.01298"></path>
<path d="M1.473 0.589 Q1.131 0.219 0.335 0.305" stroke="hsl(0.0,100%,35%)" stroke-width="0.00188"></path>
<path d="M1.473 0.589 Q1.542 0.457 1.300 0.395" stroke="hsl(0.0,100%,35%)" stroke-width="0.00626"></path>
<path d="M1.473 0.589 Q1.303 0.614 1.315 0.703" stroke="hsl(0.0,100%,35%)" stroke-width="0.00563"></path>
<path d="M1.473 0.589 Q1.659 0.333 1.199 0.186" stroke="hsl(0.0,100%,35%)" stroke-width="0.00422"></path>
<path d="M1.473 0.589 Q1.339 0.534 1.202 0.587" stroke="hsl(0.0,100%,35%)" stroke-width="0.00579"></path>
<path d="M1.473 0.589 Q1.379 0.443 1.074 0.456" stroke="hsl(0.0,100%,35%)" stroke-width="0.00172"></path>
<path d="M1.473 0.589 Q0.935 0.258 0.170 0.448" stroke="hsl(0.0,100%,35%)" stroke-width="0.00047"></path>
<path d="M1.473 0.589 Q0.788 0.323 0.120 0.599" stroke="hsl(0.0,100%,35%)" stroke-width="0.00219"></path>
<path d="M1.473 0.589 Q1.579 0.449 1.329 0.366" stroke="hsl(0.0,100%,35%)" stroke-width="0.00047"></path>
<path d="M1.473 0.589 Q1.865 0.530 1.836 0.326" stroke="hsl(0.0,100%,35%)" stroke-width="0.00391"></path>
<path d="M1.473 0.589 Q0.919 0.342 0.316 0.559" stroke="hsl(0.0,100%,35%)" stroke-width="0.00313"></path>
<path d="M1.473 0.589 Q1.763 0.461 1.576 0.291" stroke="hsl(0.0,100%,35%)" stroke-width="0.00203"></path>
<path d="M1.473 0.589 Q1.622 0.528 1.536 0.442" stroke="hsl(0.0,100%,35%)" stroke-width="0.00031"></path>
<path d="M1.473 0.589 Q1.389 0.138 0.489 0.080" stroke="hsl(0.0,100%,35%)" stroke-width="0.00094"></path>
<path d="M1.473 0.589 Q1.224 0.085 0.187 0.096" stroke="hsl(0.0,100%,35%)" stroke-width="0.00391"></path>
<path d="M1.473 0.589 Q1.202 0.413 0.800 0.507" stroke="hsl(0.0,100%,35%)" stroke-width="0.00235"></path>
<path d="M1.473 0.589 Q0.935 0.412 0.472 0.636" stroke="hsl(0.0,100%,35%)" stroke-width="0.00407"></path>
<path d="M1.473 0.589 Q1.142 0.605 1.101 0.770" stroke="hsl(0.0,100%,35%)" stroke-width="0.00078"></path>
<path d="M1.473 0.589 Q1.274 0.289 0.646 0.320" stroke="hsl(0.0,100%,35%)" stroke-width="0.00016"></path>
<path d="M1.473 0.589 Q1.641 0.225 0.967 0.062" stroke="hsl(0.0,100%,35%)" stroke-width="0.00047"></path>
<path d="M1.473 0.589 Q1.828 0.614 1.956 0.446" stroke="hsl(0.0,100%,35%)" stroke-width="0.00047"></path>
<path d="M1.473 0.589 Q1.048 0.151 0.099 0.262" stroke="hsl(0.0,100%,35%)" stroke-width="0.00016"></path>
<path d="M1.473 0.589 Q1.266 0.525 1.097 0.612" stroke="hsl(0.0,100%,35%)" stroke-width="0.00203"></path>
<path d="M1.473 0.589 Q1.642 0.506 1.517 0.406" stroke="hsl(0.0,100%,35%)" stroke-width="0.00031"></path>
<path d="M0.472 0.636 Q1.038 0.559 1.011 0.266" stroke="hsl(180.0,100%,35%)" stroke-width="0.00657"></path>
<path d="M0.472 0.636 Q0.669 0.443 0.335 0.305" stroke="hsl(180.0,100%,35%)" stroke-width="0.00031"></path>
<path d="M0.472 0.636 Q0.326 0.547 0.120 0.599" stroke="hsl(180.0,100%,35%)" stroke-width="0.00688"></path>
<path d="M0.472 0.636 Q0.456 0.566 0.316 0.559" stroke="hsl(180.0,100%,35%)" stroke-width="0.00313"></path>
<path d="M0.472 0.636 Q0.472 0.482 0.170 0.448" stroke="hsl(180.0,100%,35%)" stroke-width="0.00156"></path>
<path d="M0.472 0.636 Q0.739 0.637 0.800 0.507" stroke="hsl(180.0,100%,35%)" stroke-width="0.00297"></path>
<path d="M0.472 0.636 Q1.010 0.813 1.473 0.589" stroke="hsl(180.0,100%,35%)" stroke-width="0.00031"></path>
<path d="M0.472 0.636 Q1.178 0.448 0.967 0.062" stroke="hsl(180.0,100%,35%)" stroke-width="0.00031"></path>
<path d="M0.472 0.636 Q0.867 0.970 1.605 0.851" stroke="hsl(180.0,100%,35%)" stroke-width="0.00063"></path>
<path d="M0.472 0.636 Q1.402 0.754 1.836 0.326" stroke="hsl(180.0,100%,35%)" stroke-width="0.00016"></path>
<path d="M0.472 0.636 Q1.196 0.557 1.199 0.186" stroke="hsl(180.0,100%,35%)" stroke-width="0.00016"></path>
<path d="M0.472 0.636 Q1.116 0.673 1.329 0.366" stroke="hsl(180.0,100%,35%)" stroke-width="0.00016"></path>
<path d="M0.472 0.636 Q1.366 0.838 1.956 0.446" stroke="hsl(180.0,100%,35%)" stroke-width="0.00016"></path>
<path d="M0.472 0.636 Q0.917 0.667 1.074 0.456" stroke="hsl(180.0,100%,35%)" stroke-width="0.00016"></path>
<path d="M0.472 0.636 Q0.611 0.548 0.469 0.460" stroke="hsl(180.0,100%,35%)" stroke-width="0.00016"></path>
<path d="M1.300 0.395 Q1.623 0.468 1.836 0.326" stroke="hsl(0.0,100%,35%)" stroke-width="0.00141"></path>
<path d="M1.300 0.395 Q1.138 0.381 1.074 0.456" stroke="hsl(0.0,100%,35%)" stroke-width="0.00016"></path>
<path d="M1.300 0.395 Q1.061 0.552 1.315 0.703" stroke="hsl(0.0,100%,35%)" stroke-width="0.00156"></path>
<path d="M1.300 0.395 Q0.693 0.350 0.472 0.636" stroke="hsl(0.0,100%,35%)" stroke-width="0.00016"></path>
<path d="M1.300 0.395 Q1.231 0.527 1.473 0.589" stroke="hsl(0.0,100%,35%)" stroke-width="0.00063"></path>
<path d="M1.300 0.395 Q0.961 0.351 0.800 0.507" stroke="hsl(0.0,100%,35%)" stroke-width="0.00047"></path>
<path d="M1.300 0.395 Q0.677 0.280 0.316 0.559" stroke="hsl(0.0,100%,35%)" stroke-width="0.00016"></path>
<path d="M1.300 0.395 Q1.097 0.471 1.202 0.587" stroke="hsl(0.0,100%,35%)" stroke-width="0.00016"></path>
<path d="M1.300 0.395 Q1.259 0.273 1.011 0.266" stroke="hsl(0.0,100%,35%)" stroke-width="0.00016"></path>
<path d="M1.605 0.851 Q1.655 0.547 1.074 0.456" stroke="hsl(0.0,100%,35%)" stroke-width="0.01220"></path>
<path d="M1.605 0.851 Q1.776 0.439 1.011 0.266" stroke="hsl(0.0,100%,35%)" stroke-width="0.00172"></path>
<path d="M1.605 0.851 Q1.407 0.324 0.335 0.305" stroke="hsl(0.0,100%,35%)" stroke-width="0.00125"></path>
<path d="M1.605 0.851 Q1.748 0.693 1.473 0.589" stroke="hsl(0.0,100%,35%)" stroke-width="0.00125"></path>
<path d="M1.605 0.851 Q1.854 0.553 1.329 0.366" stroke="hsl(0.0,100%,35%)" stroke-width="0.00141"></path>
<path d="M1.605 0.851 Q1.934 0.437 1.199 0.186" stroke="hsl(0.0,100%,35%)" stroke-width="0.00047"></path>
<path d="M1.605 0.851 Q1.578 0.719 1.315 0.703" stroke="hsl(0.0,100%,35%)" stroke-width="0.00016"></path>
<path d="M1.605 0.851 Q1.477 0.518 0.800 0.507" stroke="hsl(0.0,100%,35%)" stroke-width="0.00031"></path>
<path d="M1.605 0.851 Q1.210 0.362 0.170 0.448" stroke="hsl(0.0,100%,35%)" stroke-width="0.00016"></path>
<path d="M1.605 0.851 Q1.473 0.797 1.340 0.850" stroke="hsl(0.0,100%,35%)" stroke-width="0.00031"></path>
<path d="M1.605 0.851 Q2.038 0.565 1.576 0.291" stroke="hsl(0.0,100%,35%)" stroke-width="0.00016"></path>
<path d="M1.605 0.851 Q1.194 0.447 0.316 0.559" stroke="hsl(0.0,100%,35%)" stroke-width="0.00031"></path>
<path d="M1.605 0.851 Q1.664 0.242 0.489 0.080" stroke="hsl(0.0,100%,35%)" stroke-width="0.00016"></path>
<path d="M1.605 0.851 Q1.064 0.428 0.120 0.599" stroke="hsl(0.0,100%,35%)" stroke-width="0.00031"></path>
<path d="M0.489 0.080 Q0.574 0.531 1.473 0.589" stroke="hsl(0.0,100%,35%)" stroke-width="0.00031"></path>
<path d="M0.489 0.080 Q0.430 0.688 1.605 0.851" stroke="hsl(0.0,100%,35%)" stroke-width="0.00313"></path>
<path d="M0.489 0.080 Q0.303 0.355 0.800 0.507" stroke="hsl(0.0,100%,35%)" stroke-width="0.00031"></path>
<path d="M0.489 0.080 Q0.035 0.200 0.170 0.448" stroke="hsl(0.0,100%,35%)" stroke-width="0.00016"></path>
<path d="M0.489 0.080 Q0.601 0.277 1.011 0.266" stroke="hsl(0.0,100%,35%)" stroke-width="0.00078"></path>
<path d="M0.489 0.080 Q0.480 0.385 1.074 0.456" stroke="hsl(0.0,100%,35%)" stroke-width="0.00047"></path>
<path d="M0.489 0.080 Q0.679 0.391 1.329 0.366" stroke="hsl(0.0,100%,35%)" stroke-width="0.00016"></path>
<path d="M0.489 0.080 Q0.759 0.275 1.199 0.186" stroke="hsl(0.0,100%,35%)" stroke-width="0.00188"></path>
<path d="M1.464 0.273 Q1.401 0.177 1.199 0.186" stroke="hsl(0.0,100%,35%)" stroke-width="0.01142"></path>
<path d="M1.464 0.273 Q1.384 0.068 0.967 0.062" stroke="hsl(0.0,100%,35%)" stroke-width="0.00031"></path>
<path d="M1.464 0.273 Q1.244 0.179 1.011 0.266" stroke="hsl(0.0,100%,35%)" stroke-width="0.00563"></path>
<path d="M1.464 0.273 Q0.677 0.256 0.472 0.636" stroke="hsl(0.0,100%,35%)" stroke-width="0.00031"></path>
<path d="M1.329 0.366 Q0.538 0.241 0.120 0.599" stroke="hsl(0.0,100%,35%)" stroke-width="0.00031"></path>
<path d="M1.329 0.366 Q1.513 0.379 1.576 0.291" stroke="hsl(0.0,100%,35%)" stroke-width="0.00188"></path>
<path d="M1.329 0.366 Q1.251 0.253 1.011 0.266" stroke="hsl(0.0,100%,35%)" stroke-width="0.00047"></path>
<path d="M1.329 0.366 Q1.408 0.250 1.199 0.186" stroke="hsl(0.0,100%,35%)" stroke-width="0.00016"></path>
<path d="M1.329 0.366 Q1.016 0.443 1.097 0.612" stroke="hsl(0.0,100%,35%)" stroke-width="0.00047"></path>
<path d="M1.329 0.366 Q0.669 0.260 0.316 0.559" stroke="hsl(0.0,100%,35%)" stroke-width="0.00016"></path>
<path d="M1.836 0.326 Q1.444 0.385 1.473 0.589" stroke="hsl(0.0,100%,35%)" stroke-width="0.00031"></path>
<path d="M1.836 0.326 Q1.274 0.410 1.315 0.703" stroke="hsl(0.0,100%,35%)" stroke-width="0.00031"></path>
<path d="M1.836 0.326 Q1.513 0.253 1.300 0.395" stroke="hsl(0.0,100%,35%)" stroke-width="0.00172"></path>
<path d="M1.836 0.326 Q1.800 0.410 1.956 0.446" stroke="hsl(0.0,100%,35%)" stroke-width="0.00016"></path>
<path d="M1.836 0.326 Q1.472 0.131 1.011 0.266" stroke="hsl(0.0,100%,35%)" stroke-width="0.00016"></path>
<path d="M1.836 0.326 Q1.550 0.245 1.329 0.366" stroke="hsl(0.0,100%,35%)" stroke-width="0.00016"></path>
<path d="M1.315 0.703 Q1.513 0.424 1.011 0.266" stroke="hsl(0.0,100%,35%)" stroke-width="0.00031"></path>
<path d="M1.315 0.703 Q1.554 0.546 1.300 0.395" stroke="hsl(0.0,100%,35%)" stroke-width="0.00094"></path>
<path d="M1.315 0.703 Q1.877 0.619 1.836 0.326" stroke="hsl(0.0,100%,35%)" stroke-width="0.00078"></path>
<path d="M1.315 0.703 Q0.801 0.412 0.120 0.599" stroke="hsl(0.0,100%,35%)" stroke-width="0.00094"></path>
<path d="M1.315 0.703 Q1.485 0.678 1.473 0.589" stroke="hsl(0.0,100%,35%)" stroke-width="0.00016"></path>
<path d="M1.315 0.703 Q1.671 0.421 1.199 0.186" stroke="hsl(0.0,100%,35%)" stroke-width="0.00016"></path>
<path d="M1.315 0.703 Q1.342 0.835 1.605 0.851" stroke="hsl(0.0,100%,35%)" stroke-width="0.00047"></path>
<path d="M1.315 0.703 Q1.154 0.694 1.101 0.770" stroke="hsl(0.0,100%,35%)" stroke-width="0.00016"></path>
<path d="M1.956 0.446 Q1.864 0.454 1.859 0.501" stroke="hsl(0.0,100%,35%)" stroke-width="0.00016"></path>
<path d="M1.956 0.446 Q1.992 0.362 1.836 0.326" stroke="hsl(0.0,100%,35%)" stroke-width="0.00078"></path>
<path d="M1.956 0.446 Q1.600 0.421 1.473 0.589" stroke="hsl(0.0,100%,35%)" stroke-width="0.00016"></path>
<path d="M1.956 0.446 Q1.430 0.447 1.315 0.703" stroke="hsl(0.0,100%,35%)" stroke-width="0.00016"></path>
<path d="M0.335 0.305 Q0.138 0.498 0.472 0.636" stroke="hsl(0.0,100%,35%)" stroke-width="0.00078"></path>
<path d="M0.335 0.305 Q0.533 0.832 1.605 0.851" stroke="hsl(0.0,100%,35%)" stroke-width="0.00250"></path>
<path d="M0.335 0.305 Q0.583 0.528 1.074 0.456" stroke="hsl(0.0,100%,35%)" stroke-width="0.00031"></path>
<path d="M0.335 0.305 Q0.428 0.171 0.187 0.096" stroke="hsl(0.0,100%,35%)" stroke-width="0.00360"></path>
<path d="M0.335 0.305 Q0.406 0.499 0.800 0.507" stroke="hsl(0.0,100%,35%)" stroke-width="0.00016"></path>
<path d="M0.335 0.305 Q0.677 0.674 1.473 0.589" stroke="hsl(0.0,100%,35%)" stroke-width="0.00109"></path>
<path d="M0.335 0.305 Q0.122 0.428 0.316 0.559" stroke="hsl(0.0,100%,35%)" stroke-width="0.00031"></path>
<path d="M0.335 0.305 Q0.463 0.432 0.738 0.397" stroke="hsl(0.0,100%,35%)" stroke-width="0.00016"></path>
<path d="M0.335 0.305 Q0.704 0.420 1.011 0.266" stroke="hsl(0.0,100%,35%)" stroke-width="0.00172"></path>
<path d="M0.335 0.305 Q0.862 0.418 1.199 0.186" stroke="hsl(0.0,100%,35%)" stroke-width="0.00016"></path>
<path d="M0.335 0.305 Q0.592 0.223 0.489 0.080" stroke="hsl(0.0,100%,35%)" stroke-width="0.00016"></path>
<path d="M0.335 0.305 Q-0.008 0.409 0.120 0.599" stroke="hsl(0.0,100%,35%)" stroke-width="0.00016"></path>
<path d="M0.335 0.305 Q0.782 0.534 1.329 0.366" stroke="hsl(0.0,100%,35%)" stroke-width="0.00016"></path>
<path d="M0.335 0.305 Q0.251 0.236 0.099 0.262" stroke="hsl(0.0,100%,35%)" stroke-width="0.00016"></path>
<path d="M0.335 0.305 Q0.270 0.255 0.158 0.275" stroke="hsl(0.0,100%,35%)" stroke-width="0.00016"></path>
<path d="M0.335 0.305 Q0.966 0.546 1.576 0.291" stroke="hsl(0.0,100%,35%)" stroke-width="0.00016"></path>
<path d="M0.316 0.559 Q0.332 0.629 0.472 0.636" stroke="hsl(180.0,100%,35%)" stroke-width="0.00141"></path>
<path d="M0.316 0.559 Q0.898 0.551 1.011 0.266" stroke="hsl(180.0,100%,35%)" stroke-width="0.00485"></path>
<path d="M0.316 0.559 Q0.599 0.630 0.800 0.507" stroke="hsl(180.0,100%,35%)" stroke-width="0.01236"></path>
<path d="M0.316 0.559 Q0.332 0.474 0.170 0.448" stroke="hsl(180.0,100%,35%)" stroke-width="0.00954"></path>
<path d="M0.316 0.559 Q0.672 0.505 0.646 0.320" stroke="hsl(180.0,100%,35%)" stroke-width="0.00125"></path>
<path d="M0.316 0.559 Q0.656 0.562 0.738 0.397" stroke="hsl(180.0,100%,35%)" stroke-width="0.00078"></path>
<path d="M0.316 0.559 Q0.186 0.539 0.120 0.599" stroke="hsl(180.0,100%,35%)" stroke-width="0.00735"></path>
<path d="M0.316 0.559 Q1.056 0.549 1.199 0.186" stroke="hsl(180.0,100%,35%)" stroke-width="0.00109"></path>
<path d="M0.316 0.559 Q0.870 0.805 1.473 0.589" stroke="hsl(180.0,100%,35%)" stroke-width="0.00188"></path>
<path d="M0.316 0.559 Q0.529 0.435 0.335 0.305" stroke="hsl(180.0,100%,35%)" stroke-width="0.00016"></path>
<path d="M0.316 0.559 Q1.160 0.677 1.576 0.291" stroke="hsl(180.0,100%,35%)" stroke-width="0.00016"></path>
<path d="M0.316 0.559 Q0.777 0.659 1.074 0.456" stroke="hsl(180.0,100%,35%)" stroke-width="0.00078"></path>
<path d="M0.316 0.559 Q0.939 0.674 1.300 0.395" stroke="hsl(180.0,100%,35%)" stroke-width="0.00016"></path>
<path d="M0.316 0.559 Q0.622 0.302 0.187 0.096" stroke="hsl(180.0,100%,35%)" stroke-width="0.00016"></path>
<path d="M0.316 0.559 Q0.727 0.962 1.605 0.851" stroke="hsl(180.0,100%,35%)" stroke-width="0.00031"></path>
<path d="M0.316 0.559 Q0.471 0.540 0.469 0.460" stroke="hsl(180.0,100%,35%)" stroke-width="0.00235"></path>
<path d="M1.074 0.456 Q1.353 0.346 1.199 0.186" stroke="hsl(180.0,100%,35%)" stroke-width="0.00500"></path>
<path d="M1.074 0.456 Q1.195 0.349 1.011 0.266" stroke="hsl(180.0,100%,35%)" stroke-width="0.00860"></path>
<path d="M1.074 0.456 Q0.629 0.426 0.472 0.636" stroke="hsl(180.0,100%,35%)" stroke-width="0.00078"></path>
<path d="M1.074 0.456 Q0.826 0.233 0.335 0.305" stroke="hsl(180.0,100%,35%)" stroke-width="0.00031"></path>
<path d="M1.074 0.456 Q0.896 0.427 0.800 0.507" stroke="hsl(180.0,100%,35%)" stroke-width="0.03081"></path>
<path d="M1.074 0.456 Q1.024 0.760 1.605 0.851" stroke="hsl(180.0,100%,35%)" stroke-width="0.00688"></path>
<path d="M1.074 0.456 Q0.629 0.271 0.170 0.448" stroke="hsl(180.0,100%,35%)" stroke-width="0.00297"></path>
<path d="M1.074 0.456 Q1.167 0.603 1.473 0.589" stroke="hsl(180.0,100%,35%)" stroke-width="0.00078"></path>
<path d="M1.074 0.456 Q0.483 0.337 0.120 0.599" stroke="hsl(180.0,100%,35%)" stroke-width="0.00156"></path>
<path d="M1.074 0.456 Q1.559 0.544 1.836 0.326" stroke="hsl(180.0,100%,35%)" stroke-width="0.00016"></path>
<path d="M1.074 0.456 Q0.613 0.356 0.316 0.559" stroke="hsl(180.0,100%,35%)" stroke-width="0.00078"></path>
<path d="M1.074 0.456 Q1.336 0.238 0.967 0.062" stroke="hsl(180.0,100%,35%)" stroke-width="0.00016"></path>
<path d="M1.074 0.456 Q1.415 0.443 1.464 0.273" stroke="hsl(180.0,100%,35%)" stroke-width="0.00016"></path>
<path d="M1.074 0.456 Q0.761 0.183 0.158 0.275" stroke="hsl(180.0,100%,35%)" stroke-width="0.00016"></path>
<path d="M1.074 0.456 Q0.768 0.337 0.469 0.460" stroke="hsl(180.0,100%,35%)" stroke-width="0.00016"></path>
<path d="M0.800 0.507 Q0.386 0.417 0.120 0.599" stroke="hsl(180.0,100%,35%)" stroke-width="0.00813"></path>
<path d="M0.800 0.507 Q0.533 0.351 0.170 0.448" stroke="hsl(180.0,100%,35%)" stroke-width="0.00798"></path>
<path d="M0.800 0.507 Q1.099 0.429 1.011 0.266" stroke="hsl(180.0,100%,35%)" stroke-width="0.00328"></path>
<path d="M0.800 0.507 Q0.517 0.436 0.316 0.559" stroke="hsl(180.0,100%,35%)" stroke-width="0.01674"></path>
<path d="M0.800 0.507 Q0.857 0.440 0.738 0.397" stroke="hsl(180.0,100%,35%)" stroke-width="0.00016"></path>
<path d="M0.800 0.507 Q0.872 0.383 0.646 0.320" stroke="hsl(180.0,100%,35%)" stroke-width="0.00016"></path>
<path d="M0.800 0.507 Q1.071 0.683 1.473 0.589" stroke="hsl(180.0,100%,35%)" stroke-width="0.00031"></path>
<path d="M0.800 0.507 Q1.257 0.426 1.199 0.186" stroke="hsl(180.0,100%,35%)" stroke-width="0.00188"></path>
<path d="M0.800 0.507 Q1.463 0.624 1.836 0.326" stroke="hsl(180.0,100%,35%)" stroke-width="0.00078"></path>
<path d="M0.800 0.507 Q0.977 0.536 1.074 0.456" stroke="hsl(180.0,100%,35%)" stroke-width="0.00078"></path>
<path d="M0.800 0.507 Q1.140 0.551 1.300 0.395" stroke="hsl(180.0,100%,35%)" stroke-width="0.00031"></path>
<path d="M0.800 0.507 Q0.672 0.417 0.469 0.460" stroke="hsl(180.0,100%,35%)" stroke-width="0.00016"></path>
<path d="M0.800 0.507 Q0.533 0.506 0.472 0.636" stroke="hsl(180.0,100%,35%)" stroke-width="0.00016"></path>
<path d="M1.576 0.291 Q1.016 0.244 0.800 0.507" stroke="hsl(0.0,100%,35%)" stroke-width="0.00016"></path>
<path d="M1.576 0.291 Q1.392 0.279 1.329 0.366" stroke="hsl(0.0,100%,35%)" stroke-width="0.00172"></path>
<path d="M1.576 0.291 Q0.602 0.154 0.120 0.599" stroke="hsl(0.0,100%,35%)" stroke-width="0.00094"></path>
<path d="M1.576 0.291 Q1.355 0.288 1.300 0.395" stroke="hsl(0.0,100%,35%)" stroke-width="0.00047"></path>
<path d="M1.576 0.291 Q1.314 0.166 1.011 0.266" stroke="hsl(0.0,100%,35%)" stroke-width="0.00047"></path>
<path d="M1.576 0.291 Q1.193 0.273 1.074 0.456" stroke="hsl(0.0,100%,35%)" stroke-width="0.00016"></path>
<path d="M1.576 0.291 Q1.472 0.163 1.199 0.186" stroke="hsl(0.0,100%,35%)" stroke-width="0.00016"></path>
<path d="M1.576 0.291 Q0.748 0.243 0.472 0.636" stroke="hsl(0.0,100%,35%)" stroke-width="0.00016"></path>
<path d="M1.576 0.291 Q1.642 0.445 1.956 0.446" stroke="hsl(0.0,100%,35%)" stroke-width="0.00016"></path>
<path d="M1.576 0.291 Q1.287 0.419 1.473 0.589" stroke="hsl(0.0,100%,35%)" stroke-width="0.00047"></path>
<path d="M0.187 0.096 Q0.094 0.230 0.335 0.305" stroke="hsl(180.0,100%,35%)" stroke-width="0.00407"></path>
<path d="M0.187 0.096 Q0.542 0.460 1.329 0.366" stroke="hsl(180.0,100%,35%)" stroke-width="0.00016"></path>
<path d="M0.187 0.096 Q0.726 0.472 1.576 0.291" stroke="hsl(180.0,100%,35%)" stroke-width="0.00016"></path>
<path d="M0.187 0.096 Q0.436 0.600 1.473 0.589" stroke="hsl(180.0,100%,35%)" stroke-width="0.00109"></path>
<path d="M0.187 0.096 Q0.292 0.757 1.605 0.851" stroke="hsl(180.0,100%,35%)" stroke-width="0.00047"></path>
<path d="M0.187 0.096 Q0.621 0.343 1.199 0.186" stroke="hsl(180.0,100%,35%)" stroke-width="0.00031"></path>
<path d="M0.187 0.096 Q0.464 0.346 1.011 0.266" stroke="hsl(180.0,100%,35%)" stroke-width="0.00031"></path>
<path d="M0.187 0.096 Q-0.103 0.423 0.472 0.636" stroke="hsl(180.0,100%,35%)" stroke-width="0.00031"></path>
<path d="M1.097 0.612 Q1.304 0.676 1.473 0.589" stroke="hsl(0.0,100%,35%)" stroke-width="0.00063"></path>
<path d="M1.097 0.612 Q1.410 0.536 1.329 0.366" stroke="hsl(0.0,100%,35%)" stroke-width="0.00141"></path>
<path d="M1.097 0.612 Q1.332 0.422 1.011 0.266" stroke="hsl(0.0,100%,35%)" stroke-width="0.00016"></path>
<path d="M1.097 0.612 Q1.594 0.548 1.576 0.291" stroke="hsl(0.0,100%,35%)" stroke-width="0.00031"></path>
<path d="M0.469 0.460 Q0.314 0.479 0.316 0.559" stroke="hsl(180.0,100%,35%)" stroke-width="0.00407"></path>
<path d="M0.469 0.460 Q0.183 0.460 0.120 0.599" stroke="hsl(180.0,100%,35%)" stroke-width="0.00360"></path>
<path d="M0.469 0.460 Q0.330 0.394 0.170 0.448" stroke="hsl(180.0,100%,35%)" stroke-width="0.00047"></path>
<path d="M0.469 0.460 Q0.619 0.222 0.187 0.096" stroke="hsl(180.0,100%,35%)" stroke-width="0.00016"></path>
<path d="M0.469 0.460 Q0.597 0.550 0.800 0.507" stroke="hsl(180.0,100%,35%)" stroke-width="0.00063"></path>
<path d="M0.469 0.460 Q0.896 0.471 1.011 0.266" stroke="hsl(180.0,100%,35%)" stroke-width="0.00031"></path>
<path d="M0.469 0.460 Q0.774 0.579 1.074 0.456" stroke="hsl(180.0,100%,35%)" stroke-width="0.00031"></path>
<path d="M0.469 0.460 Q0.330 0.549 0.472 0.636" stroke="hsl(180.0,100%,35%)" stroke-width="0.00031"></path>
<path d="M1.340 0.850 Q1.472 0.903 1.605 0.851" stroke="hsl(0.0,100%,35%)" stroke-width="0.00579"></path>
<path d="M1.340 0.850 Q1.615 0.746 1.473 0.589" stroke="hsl(0.0,100%,35%)" stroke-width="0.00047"></path>
<path d="M1.340 0.850 Q1.077 0.570 0.472 0.636" stroke="hsl(0.0,100%,35%)" stroke-width="0.00031"></path>
<path d="M1.340 0.850 Q1.274 0.376 0.335 0.305" stroke="hsl(0.0,100%,35%)" stroke-width="0.00094"></path>
<path d="M1.340 0.850 Q1.344 0.571 0.800 0.507" stroke="hsl(0.0,100%,35%)" stroke-width="0.00016"></path>
<path d="M1.340 0.850 Q1.721 0.606 1.329 0.366" stroke="hsl(0.0,100%,35%)" stroke-width="0.00031"></path>
<path d="M1.340 0.850 Q1.522 0.600 1.074 0.456" stroke="hsl(0.0,100%,35%)" stroke-width="0.00016"></path>
<path d="M1.898 0.651 Q1.591 0.692 1.605 0.851" stroke="hsl(0.0,100%,35%)" stroke-width="0.00016"></path>
<path d="M1.898 0.651 Q1.050 0.269 0.120 0.599" stroke="hsl(0.0,100%,35%)" stroke-width="0.00016"></path>
<path d="M1.898 0.651 Q1.735 0.535 1.473 0.589" stroke="hsl(0.0,100%,35%)" stroke-width="0.00016"></path>
<path d="M1.898 0.651 Q1.393 0.165 0.335 0.305" stroke="hsl(0.0,100%,35%)" stroke-width="0.00016"></path>
<path d="M1.898 0.651 Q1.650 0.083 0.489 0.080" stroke="hsl(0.0,100%,35%)" stroke-width="0.00016"></path>
<path d="M0.646 0.320 Q0.573 0.444 0.800 0.507" stroke="hsl(180.0,100%,35%)" stroke-width="0.00016"></path>
<path d="M0.646 0.320 Q0.290 0.373 0.316 0.559" stroke="hsl(180.0,100%,35%)" stroke-width="0.00109"></path>
<path d="M0.646 0.320 Q0.160 0.354 0.120 0.599" stroke="hsl(180.0,100%,35%)" stroke-width="0.00109"></path>
<path d="M0.646 0.320 Q0.872 0.366 1.011 0.266" stroke="hsl(180.0,100%,35%)" stroke-width="0.00016"></path>
<path d="M0.646 0.320 Q0.844 0.620 1.473 0.589" stroke="hsl(180.0,100%,35%)" stroke-width="0.00047"></path>
<path d="M0.646 0.320 Q0.596 0.116 0.187 0.096" stroke="hsl(180.0,100%,35%)" stroke-width="0.00016"></path>
<path d="M0.900 0.654 Q1.424 0.480 1.199 0.186" stroke="hsl(180.0,100%,35%)" stroke-width="0.00016"></path>
<path d="M0.900 0.654 Q0.554 0.470 0.120 0.599" stroke="hsl(180.0,100%,35%)" stroke-width="0.00016"></path>
<path d="M0.900 0.654 Q0.968 0.560 0.800 0.507" stroke="hsl(180.0,100%,35%)" stroke-width="0.00016"></path>
<path d="M0.900 0.654 Q0.700 0.559 0.472 0.636" stroke="hsl(180.0,100%,35%)" stroke-width="0.00016"></path>
<path d="M0.900 0.654 Q1.145 0.590 1.074 0.456" stroke="hsl(180.0,100%,35%)" stroke-width="0.00016"></path>
<path d="M1.101 0.770 Q1.432 0.754 1.473 0.589" stroke="hsl(0.0,100%,35%)" stroke-width="0.00047"></path>
<path d="M1.101 0.770 Q0.894 0.423 0.170 0.448" stroke="hsl(0.0,100%,35%)" stroke-width="0.00063"></path>
<path d="M1.101 0.770 Q1.289 0.911 1.605 0.851" stroke="hsl(0.0,100%,35%)" stroke-width="0.00094"></path>
<path d="M1.101 0.770 Q0.747 0.488 0.120 0.599" stroke="hsl(0.0,100%,35%)" stroke-width="0.00016"></path>
<path d="M1.101 0.770 Q1.787 0.779 1.956 0.446" stroke="hsl(0.0,100%,35%)" stroke-width="0.00016"></path>
<path d="M1.101 0.770 Q1.500 0.622 1.300 0.395" stroke="hsl(0.0,100%,35%)" stroke-width="0.00047"></path>
<path d="M1.101 0.770 Q1.262 0.779 1.315 0.703" stroke="hsl(0.0,100%,35%)" stroke-width="0.00047"></path>
<path d="M1.101 0.770 Q1.298 0.699 1.202 0.587" stroke="hsl(0.0,100%,35%)" stroke-width="0.00031"></path>
<path d="M1.202 0.587 Q1.165 0.668 1.315 0.703" stroke="hsl(0.0,100%,35%)" stroke-width="0.00094"></path>
<path d="M1.202 0.587 Q1.336 0.642 1.473 0.589" stroke="hsl(0.0,100%,35%)" stroke-width="0.00109"></path>
<path d="M1.202 0.587 Q0.781 0.396 0.316 0.559" stroke="hsl(0.0,100%,35%)" stroke-width="0.00016"></path>
<path d="M1.202 0.587 Q1.727 0.583 1.836 0.326" stroke="hsl(0.0,100%,35%)" stroke-width="0.00031"></path>
<path d="M1.202 0.587 Q1.364 0.388 1.011 0.266" stroke="hsl(0.0,100%,35%)" stroke-width="0.00016"></path>
<path d="M1.202 0.587 Q1.442 0.502 1.329 0.366" stroke="hsl(0.0,100%,35%)" stroke-width="0.00016"></path>
<path d="M0.727 0.191 Q0.810 0.285 1.011 0.266" stroke="hsl(0.0,100%,35%)" stroke-width="0.00047"></path>
<path d="M0.727 0.191 Q0.638 0.696 1.605 0.851" stroke="hsl(0.0,100%,35%)" stroke-width="0.00016"></path>
<path d="M0.727 0.191 Q0.782 0.539 1.473 0.589" stroke="hsl(0.0,100%,35%)" stroke-width="0.00016"></path>
<path d="M0.566 0.210 Q0.632 0.129 0.489 0.080" stroke="hsl(0.0,100%,35%)" stroke-width="0.00313"></path>
<path d="M0.566 0.210 Q0.716 0.581 1.473 0.589" stroke="hsl(0.0,100%,35%)" stroke-width="0.00031"></path>
<path d="M0.566 0.210 Q0.573 0.738 1.605 0.851" stroke="hsl(0.0,100%,35%)" stroke-width="0.00078"></path>
<path d="M0.846 0.343 Q0.991 0.338 1.011 0.266" stroke="hsl(180.0,100%,35%)" stroke-width="0.00031"></path>
<path d="M0.846 0.343 Q0.820 0.749 1.605 0.851" stroke="hsl(180.0,100%,35%)" stroke-width="0.00016"></path>
<path d="M0.846 0.343 Q0.278 0.326 0.120 0.599" stroke="hsl(180.0,100%,35%)" stroke-width="0.00031"></path>
<path d="M0.294 0.773 Q0.346 0.651 0.120 0.599" stroke="hsl(180.0,100%,35%)" stroke-width="0.00078"></path>
<path d="M0.294 0.773 Q1.099 0.785 1.300 0.395" stroke="hsl(180.0,100%,35%)" stroke-width="0.00016"></path>
<path d="M0.294 0.773 Q0.897 0.862 1.202 0.587" stroke="hsl(180.0,100%,35%)" stroke-width="0.00016"></path>
<path d="M1.800 0.750 Q1.494 0.429 0.800 0.507" stroke="hsl(0.0,100%,35%)" stroke-width="0.00016"></path>
<path d="M1.800 0.750 Q1.871 0.464 1.329 0.366" stroke="hsl(0.0,100%,35%)" stroke-width="0.00031"></path>
<path d="M1.800 0.750 Q1.622 0.761 1.605 0.851" stroke="hsl(0.0,100%,35%)" stroke-width="0.00047"></path>
<path d="M1.800 0.750 Q1.672 0.458 1.074 0.456" stroke="hsl(0.0,100%,35%)" stroke-width="0.00016"></path>
</g>
<text x="0.967" y="0.049" font-size="0.026980" fill="hsl(0.0,100%,20%)">armansito</text>
<text x="1.011" y="0.228" font-size="0.074921" fill="hsl(0.0,100%,20%)">brianosman</text>
<text x="1.199" y="0.147" font-size="0.077137" fill="hsl(0.0,100%,20%)">johnstiles</text>
<text x="0.120" y="0.573" font-size="0.050836" fill="hsl(180.0,100%,20%)">egdaniel</text>
<text x="0.738" y="0.390" font-size="0.014991" fill="hsl(180.0,100%,20%)">jamesgk</text>
<text x="0.170" y="0.424" font-size="0.047968" fill="hsl(180.0,100%,20%)">jvanverth</text>
<text x="1.473" y="0.561" font-size="0.056090" fill="hsl(0.0,100%,20%)">kjlubick</text>
<text x="0.472" y="0.618" font-size="0.036452" fill="hsl(180.0,100%,20%)">bsalomon</text>
<text x="1.300" y="0.384" font-size="0.022102" fill="hsl(0.0,100%,20%)">rmistry</text>
<text x="1.605" y="0.829" font-size="0.043872" fill="hsl(0.0,100%,20%)">bungeman</text>
<text x="0.489" y="0.069" font-size="0.020497" fill="hsl(0.0,100%,20%)">jlavrova</text>
<text x="1.464" y="0.258" font-size="0.031179" fill="hsl(0.0,100%,20%)">ethannicholas</text>
<text x="1.329" y="0.357" font-size="0.019520" fill="hsl(0.0,100%,20%)">djsollen</text>
<text x="1.836" y="0.316" font-size="0.019395" fill="hsl(0.0,100%,20%)">borenet</text>
<text x="1.315" y="0.692" font-size="0.021656" fill="hsl(0.0,100%,20%)">jcgregorio</text>
<text x="1.956" y="0.442" font-size="0.009377" fill="hsl(0.0,100%,20%)">hcm</text>
<text x="0.335" y="0.292" font-size="0.026058" fill="hsl(0.0,100%,20%)">fmalita</text>
<text x="0.316" y="0.530" font-size="0.056350" fill="hsl(180.0,100%,20%)">michaelludwig</text>
<text x="1.074" y="0.430" font-size="0.052444" fill="hsl(180.0,100%,20%)">herb</text>
<text x="0.800" y="0.477" font-size="0.060530" fill="hsl(180.0,100%,20%)">robertphillips</text>
<text x="1.576" y="0.282" font-size="0.019520" fill="hsl(0.0,100%,20%)">scroggo</text>
<text x="0.187" y="0.085" font-size="0.021880" fill="hsl(180.0,100%,20%)">jmbetancourt</text>
<text x="1.097" y="0.606" font-size="0.012697" fill="hsl(0.0,100%,20%)">nifong</text>
<text x="0.469" y="0.450" font-size="0.021084" fill="hsl(180.0,100%,20%)">csmartdalton</text>
<text x="1.340" y="0.842" font-size="0.016242" fill="hsl(0.0,100%,20%)">drott</text>
<text x="1.898" y="0.648" font-size="0.004942" fill="hsl(0.0,100%,20%)">dnfield</text>
<text x="0.646" y="0.313" font-size="0.014494" fill="hsl(180.0,100%,20%)">nicolettep</text>
<text x="0.900" y="0.652" font-size="0.004942" fill="hsl(180.0,100%,20%)">emaxx</text>
<text x="1.101" y="0.764" font-size="0.012697" fill="hsl(0.0,100%,20%)">erikrose</text>
<text x="1.202" y="0.578" font-size="0.016977" fill="hsl(0.0,100%,20%)">lovisolo</text>
<text x="0.099" y="0.260" font-size="0.003126" fill="hsl(0.0,100%,20%)">tdenniston</text>
<text x="0.158" y="0.274" font-size="0.003126" fill="hsl(0.0,100%,20%)">reed</text>
<text x="1.859" y="0.500" font-size="0.002210" fill="hsl(0.0,100%,20%)">sharaks</text>
<text x="0.727" y="0.188" font-size="0.004942" fill="hsl(0.0,100%,20%)">iapres</text>
<text x="1.453" y="0.047" font-size="0.002210" fill="hsl(0.0,100%,20%)">wrightgeorge</text>
<text x="0.566" y="0.204" font-size="0.011485" fill="hsl(0.0,100%,20%)">jsimmons</text>
<text x="1.536" y="0.441" font-size="0.003126" fill="hsl(0.0,100%,20%)">cmumford</text>
<text x="1.517" y="0.404" font-size="0.003126" fill="hsl(0.0,100%,20%)">yjbanov</text>
<text x="0.846" y="0.341" font-size="0.004942" fill="hsl(180.0,100%,20%)">sergeyu</text>
<text x="0.294" y="0.770" font-size="0.005848" fill="hsl(180.0,100%,20%)">shuangshuang.zhou</text>
<text x="1.800" y="0.747" font-size="0.005848" fill="hsl(0.0,100%,20%)">thestig</text>
</svg>
