<svg width="4000" height="2000" viewBox="-0.025 -0.025 2.05 1.05" xmlns="http://www.w3.org/2000/svg">
  <style>
    path {
      fill: none;
      stroke-linecap: round;
      stroke-opacity: 0.4;
    }

    text {
      text-anchor: middle;
      alignment-baseline: hanging;
    }
  </style>
  <g opacity="0.4">
<path d="M0.767 0.468 Q0.733 0.614 1.011 0.663" stroke="hsl(0.0,100%,35%)" stroke-width="0.00083"></path>
<path d="M0.767 0.468 Q0.664 0.272 0.259 0.280" stroke="hsl(0.0,100%,35%)" stroke-width="0.00165"></path>
<path d="M0.767 0.468 Q0.980 0.624 1.331 0.555" stroke="hsl(0.0,100%,35%)" stroke-width="0.00083"></path>
<path d="M1.011 0.663 Q0.728 0.652 0.644 0.788" stroke="hsl(0.0,100%,35%)" stroke-width="0.00413"></path>
<path d="M1.011 0.663 Q1.487 0.697 1.658 0.472" stroke="hsl(0.0,100%,35%)" stroke-width="0.00165"></path>
<path d="M1.011 0.663 Q1.752 0.600 1.791 0.224" stroke="hsl(0.0,100%,35%)" stroke-width="0.00413"></path>
<path d="M1.011 0.663 Q1.358 0.552 1.217 0.357" stroke="hsl(0.0,100%,35%)" stroke-width="0.00413"></path>
<path d="M1.011 0.663 Q0.884 0.581 0.695 0.624" stroke="hsl(0.0,100%,35%)" stroke-width="0.00661"></path>
<path d="M1.011 0.663 Q1.001 0.863 1.388 0.911" stroke="hsl(0.0,100%,35%)" stroke-width="0.00165"></path>
<path d="M1.011 0.663 Q1.258 0.673 1.331 0.555" stroke="hsl(0.0,100%,35%)" stroke-width="0.00331"></path>
<path d="M1.011 0.663 Q0.869 0.722 0.953 0.804" stroke="hsl(0.0,100%,35%)" stroke-width="0.00083"></path>
<path d="M1.011 0.663 Q0.942 0.321 0.259 0.280" stroke="hsl(0.0,100%,35%)" stroke-width="0.00165"></path>
<path d="M1.011 0.663 Q1.179 0.584 1.061 0.485" stroke="hsl(0.0,100%,35%)" stroke-width="0.00083"></path>
<path d="M0.259 0.280 Q0.281 0.379 0.481 0.390" stroke="hsl(0.0,100%,35%)" stroke-width="0.00909"></path>
<path d="M0.259 0.280 Q0.318 0.821 1.388 0.911" stroke="hsl(0.0,100%,35%)" stroke-width="0.00413"></path>
<path d="M0.259 0.280 Q0.328 0.622 1.011 0.663" stroke="hsl(0.0,100%,35%)" stroke-width="0.00827"></path>
<path d="M0.259 0.280 Q0.575 0.632 1.331 0.555" stroke="hsl(0.0,100%,35%)" stroke-width="0.00413"></path>
<path d="M0.259 0.280 Q0.804 0.656 1.658 0.472" stroke="hsl(0.0,100%,35%)" stroke-width="0.00165"></path>
<path d="M0.259 0.280 Q0.201 0.539 0.695 0.624" stroke="hsl(0.0,100%,35%)" stroke-width="0.01240"></path>
<path d="M0.259 0.280 Q1.070 0.558 1.791 0.224" stroke="hsl(0.0,100%,35%)" stroke-width="0.01075"></path>
<path d="M0.259 0.280 Q0.676 0.510 1.217 0.357" stroke="hsl(0.0,100%,35%)" stroke-width="0.00992"></path>
<path d="M0.259 0.280 Q0.424 0.305 0.510 0.230" stroke="hsl(0.0,100%,35%)" stroke-width="0.00248"></path>
<path d="M0.259 0.280 Q0.438 0.242 0.404 0.147" stroke="hsl(0.0,100%,35%)" stroke-width="0.00579"></path>
<path d="M0.259 0.280 Q0.465 0.366 0.679 0.285" stroke="hsl(0.0,100%,35%)" stroke-width="0.00331"></path>
<path d="M0.259 0.280 Q0.262 0.427 0.550 0.457" stroke="hsl(0.0,100%,35%)" stroke-width="0.00083"></path>
<path d="M0.259 0.280 Q0.045 0.611 0.644 0.788" stroke="hsl(0.0,100%,35%)" stroke-width="0.00248"></path>
<path d="M0.259 0.280 Q0.096 0.307 0.113 0.392" stroke="hsl(0.0,100%,35%)" stroke-width="0.00083"></path>
<path d="M0.259 0.280 Q0.186 0.680 0.953 0.804" stroke="hsl(0.0,100%,35%)" stroke-width="0.00083"></path>
<path d="M1.331 0.555 Q1.561 0.579 1.658 0.472" stroke="hsl(180.0,100%,35%)" stroke-width="0.01406"></path>
<path d="M1.331 0.555 Q1.826 0.481 1.791 0.224" stroke="hsl(180.0,100%,35%)" stroke-width="0.00909"></path>
<path d="M1.331 0.555 Q1.432 0.433 1.217 0.357" stroke="hsl(180.0,100%,35%)" stroke-width="0.01406"></path>
<path d="M1.331 0.555 Q1.015 0.203 0.259 0.280" stroke="hsl(180.0,100%,35%)" stroke-width="0.00165"></path>
<path d="M1.331 0.555 Q1.194 0.165 0.404 0.147" stroke="hsl(180.0,100%,35%)" stroke-width="0.00165"></path>
<path d="M0.404 0.147 Q0.541 0.536 1.331 0.555" stroke="hsl(0.0,100%,35%)" stroke-width="0.00165"></path>
<path d="M0.404 0.147 Q0.225 0.184 0.259 0.280" stroke="hsl(0.0,100%,35%)" stroke-width="0.01654"></path>
<path d="M0.404 0.147 Q0.167 0.444 0.695 0.624" stroke="hsl(0.0,100%,35%)" stroke-width="0.00165"></path>
<path d="M0.404 0.147 Q0.294 0.526 1.011 0.663" stroke="hsl(0.0,100%,35%)" stroke-width="0.00248"></path>
<path d="M0.404 0.147 Q0.062 0.211 0.113 0.392" stroke="hsl(0.0,100%,35%)" stroke-width="0.00083"></path>
<path d="M0.404 0.147 Q0.658 0.211 0.839 0.101" stroke="hsl(0.0,100%,35%)" stroke-width="0.00083"></path>
<path d="M0.695 0.624 Q0.753 0.365 0.259 0.280" stroke="hsl(0.0,100%,35%)" stroke-width="0.00827"></path>
<path d="M0.695 0.624 Q0.822 0.707 1.011 0.663" stroke="hsl(0.0,100%,35%)" stroke-width="0.01819"></path>
<path d="M0.695 0.624 Q0.539 0.696 0.644 0.788" stroke="hsl(0.0,100%,35%)" stroke-width="0.00413"></path>
<path d="M0.695 0.624 Q0.945 0.771 1.287 0.682" stroke="hsl(0.0,100%,35%)" stroke-width="0.00083"></path>
<path d="M0.695 0.624 Q0.812 0.906 1.388 0.911" stroke="hsl(0.0,100%,35%)" stroke-width="0.00248"></path>
<path d="M0.695 0.624 Q1.298 0.741 1.658 0.472" stroke="hsl(0.0,100%,35%)" stroke-width="0.00083"></path>
<path d="M0.695 0.624 Q0.775 0.464 0.481 0.390" stroke="hsl(0.0,100%,35%)" stroke-width="0.00083"></path>
<path d="M0.695 0.624 Q1.069 0.717 1.331 0.555" stroke="hsl(0.0,100%,35%)" stroke-width="0.00083"></path>
<path d="M0.695 0.624 Q0.681 0.766 0.953 0.804" stroke="hsl(0.0,100%,35%)" stroke-width="0.00165"></path>
<path d="M0.695 0.624 Q0.918 0.390 0.510 0.230" stroke="hsl(0.0,100%,35%)" stroke-width="0.00083"></path>
<path d="M0.644 0.788 Q0.858 0.457 0.259 0.280" stroke="hsl(0.0,100%,35%)" stroke-width="0.00661"></path>
<path d="M0.644 0.788 Q0.917 0.998 1.388 0.911" stroke="hsl(0.0,100%,35%)" stroke-width="0.00165"></path>
<path d="M0.644 0.788 Q0.696 0.484 0.113 0.392" stroke="hsl(0.0,100%,35%)" stroke-width="0.00083"></path>
<path d="M0.644 0.788 Q1.023 0.482 0.510 0.230" stroke="hsl(0.0,100%,35%)" stroke-width="0.00165"></path>
<path d="M0.644 0.788 Q0.757 0.766 0.740 0.706" stroke="hsl(0.0,100%,35%)" stroke-width="0.00083"></path>
<path d="M0.644 0.788 Q0.801 0.716 0.695 0.624" stroke="hsl(0.0,100%,35%)" stroke-width="0.00083"></path>
<path d="M0.644 0.788 Q1.051 0.863 1.287 0.682" stroke="hsl(0.0,100%,35%)" stroke-width="0.00083"></path>
<path d="M1.658 0.472 Q1.181 0.438 1.011 0.663" stroke="hsl(180.0,100%,35%)" stroke-width="0.00083"></path>
<path d="M1.658 0.472 Q1.429 0.448 1.331 0.555" stroke="hsl(180.0,100%,35%)" stroke-width="0.01736"></path>
<path d="M1.658 0.472 Q1.923 0.375 1.791 0.224" stroke="hsl(180.0,100%,35%)" stroke-width="0.02067"></path>
<path d="M1.658 0.472 Q1.112 0.096 0.259 0.280" stroke="hsl(180.0,100%,35%)" stroke-width="0.00083"></path>
<path d="M1.658 0.472 Q1.291 0.059 0.404 0.147" stroke="hsl(180.0,100%,35%)" stroke-width="0.00083"></path>
<path d="M1.658 0.472 Q1.720 0.359 1.514 0.304" stroke="hsl(180.0,100%,35%)" stroke-width="0.00165"></path>
<path d="M1.658 0.472 Q1.135 0.196 0.481 0.390" stroke="hsl(180.0,100%,35%)" stroke-width="0.00083"></path>
<path d="M1.791 0.224 Q1.526 0.321 1.658 0.472" stroke="hsl(180.0,100%,35%)" stroke-width="0.00992"></path>
<path d="M1.791 0.224 Q1.039 0.487 1.388 0.911" stroke="hsl(180.0,100%,35%)" stroke-width="0.00413"></path>
<path d="M1.791 0.224 Q1.296 0.297 1.331 0.555" stroke="hsl(180.0,100%,35%)" stroke-width="0.02398"></path>
<path d="M1.791 0.224 Q1.002 0.045 0.481 0.390" stroke="hsl(180.0,100%,35%)" stroke-width="0.00579"></path>
<path d="M1.791 0.224 Q1.397 0.176 1.217 0.357" stroke="hsl(180.0,100%,35%)" stroke-width="0.00661"></path>
<path d="M1.791 0.224 Q1.588 0.209 1.514 0.304" stroke="hsl(180.0,100%,35%)" stroke-width="0.00827"></path>
<path d="M1.791 0.224 Q1.049 0.288 1.011 0.663" stroke="hsl(180.0,100%,35%)" stroke-width="0.00744"></path>
<path d="M1.791 0.224 Q0.980 -0.055 0.259 0.280" stroke="hsl(180.0,100%,35%)" stroke-width="0.00083"></path>
<path d="M1.791 0.224 Q1.145 -0.029 0.510 0.230" stroke="hsl(180.0,100%,35%)" stroke-width="0.00083"></path>
<path d="M1.217 0.357 Q0.822 0.227 0.481 0.390" stroke="hsl(180.0,100%,35%)" stroke-width="0.00413"></path>
<path d="M1.217 0.357 Q1.006 0.213 0.679 0.285" stroke="hsl(180.0,100%,35%)" stroke-width="0.00083"></path>
<path d="M1.217 0.357 Q0.941 0.515 1.187 0.684" stroke="hsl(180.0,100%,35%)" stroke-width="0.00083"></path>
<path d="M1.217 0.357 Q1.116 0.479 1.331 0.555" stroke="hsl(180.0,100%,35%)" stroke-width="0.00165"></path>
<path d="M1.217 0.357 Q1.611 0.405 1.791 0.224" stroke="hsl(180.0,100%,35%)" stroke-width="0.00165"></path>
<path d="M1.217 0.357 Q1.345 0.503 1.658 0.472" stroke="hsl(180.0,100%,35%)" stroke-width="0.00248"></path>
<path d="M1.217 0.357 Q1.093 0.309 0.972 0.358" stroke="hsl(180.0,100%,35%)" stroke-width="0.00083"></path>
<path d="M1.388 0.911 Q1.398 0.712 1.011 0.663" stroke="hsl(0.0,100%,35%)" stroke-width="0.01571"></path>
<path d="M1.388 0.911 Q2.139 0.648 1.791 0.224" stroke="hsl(0.0,100%,35%)" stroke-width="0.00413"></path>
<path d="M1.388 0.911 Q1.329 0.370 0.259 0.280" stroke="hsl(0.0,100%,35%)" stroke-width="0.00661"></path>
<path d="M1.388 0.911 Q1.535 0.456 0.679 0.285" stroke="hsl(0.0,100%,35%)" stroke-width="0.00083"></path>
<path d="M1.388 0.911 Q1.645 0.722 1.331 0.555" stroke="hsl(0.0,100%,35%)" stroke-width="0.00909"></path>
<path d="M1.388 0.911 Q1.874 0.746 1.658 0.472" stroke="hsl(0.0,100%,35%)" stroke-width="0.00248"></path>
<path d="M1.388 0.911 Q1.115 0.701 0.644 0.788" stroke="hsl(0.0,100%,35%)" stroke-width="0.00083"></path>
<path d="M1.388 0.911 Q1.087 0.829 0.861 0.958" stroke="hsl(0.0,100%,35%)" stroke-width="0.01406"></path>
<path d="M1.388 0.911 Q1.271 0.629 0.695 0.624" stroke="hsl(0.0,100%,35%)" stroke-width="0.00165"></path>
<path d="M1.388 0.911 Q1.351 0.470 0.481 0.390" stroke="hsl(0.0,100%,35%)" stroke-width="0.00248"></path>
<path d="M1.388 0.911 Q1.937 0.633 1.514 0.304" stroke="hsl(0.0,100%,35%)" stroke-width="0.00165"></path>
<path d="M0.953 0.804 Q0.968 0.663 0.695 0.624" stroke="hsl(0.0,100%,35%)" stroke-width="0.00496"></path>
<path d="M0.953 0.804 Q1.094 0.745 1.011 0.663" stroke="hsl(0.0,100%,35%)" stroke-width="0.00331"></path>
<path d="M0.953 0.804 Q0.811 0.734 0.644 0.788" stroke="hsl(0.0,100%,35%)" stroke-width="0.00083"></path>
<path d="M1.061 0.485 Q0.824 0.222 0.259 0.280" stroke="hsl(0.0,100%,35%)" stroke-width="0.00083"></path>
<path d="M1.061 0.485 Q0.893 0.564 1.011 0.663" stroke="hsl(0.0,100%,35%)" stroke-width="0.00165"></path>
<path d="M1.061 0.485 Q1.241 0.452 1.217 0.357" stroke="hsl(0.0,100%,35%)" stroke-width="0.00248"></path>
<path d="M1.061 0.485 Q0.610 0.553 0.644 0.788" stroke="hsl(0.0,100%,35%)" stroke-width="0.00248"></path>
<path d="M1.061 0.485 Q0.964 0.609 1.187 0.684" stroke="hsl(0.0,100%,35%)" stroke-width="0.00083"></path>
<path d="M0.481 0.390 Q0.875 0.521 1.217 0.357" stroke="hsl(0.0,100%,35%)" stroke-width="0.00248"></path>
<path d="M0.481 0.390 Q0.527 0.633 1.011 0.663" stroke="hsl(0.0,100%,35%)" stroke-width="0.00083"></path>
<path d="M0.481 0.390 Q0.458 0.291 0.259 0.280" stroke="hsl(0.0,100%,35%)" stroke-width="0.00165"></path>
<path d="M0.481 0.390 Q1.269 0.569 1.791 0.224" stroke="hsl(0.0,100%,35%)" stroke-width="0.00165"></path>
<path d="M0.481 0.390 Q0.775 0.643 1.331 0.555" stroke="hsl(0.0,100%,35%)" stroke-width="0.00083"></path>
<path d="M0.481 0.390 Q1.066 0.554 1.514 0.304" stroke="hsl(0.0,100%,35%)" stroke-width="0.00083"></path>
<path d="M0.510 0.230 Q0.182 0.232 0.113 0.392" stroke="hsl(0.0,100%,35%)" stroke-width="0.00083"></path>
<path d="M0.510 0.230 Q0.131 0.536 0.644 0.788" stroke="hsl(0.0,100%,35%)" stroke-width="0.00165"></path>
<path d="M0.510 0.230 Q0.287 0.464 0.695 0.624" stroke="hsl(0.0,100%,35%)" stroke-width="0.00165"></path>
<path d="M0.510 0.230 Q0.345 0.205 0.259 0.280" stroke="hsl(0.0,100%,35%)" stroke-width="0.00083"></path>
<path d="M0.510 0.230 Q0.414 0.547 1.011 0.663" stroke="hsl(0.0,100%,35%)" stroke-width="0.00083"></path>
<path d="M1.669 0.689 Q1.360 0.544 1.011 0.663" stroke="hsl(0.0,100%,35%)" stroke-width="0.00331"></path>
<path d="M1.669 0.689 Q1.432 0.590 1.187 0.684" stroke="hsl(0.0,100%,35%)" stroke-width="0.00083"></path>
<path d="M1.669 0.689 Q1.607 0.554 1.331 0.555" stroke="hsl(0.0,100%,35%)" stroke-width="0.00083"></path>
<path d="M1.669 0.689 Q1.350 0.744 1.388 0.911" stroke="hsl(0.0,100%,35%)" stroke-width="0.00165"></path>
<path d="M1.187 0.684 Q1.211 0.322 0.510 0.230" stroke="hsl(0.0,100%,35%)" stroke-width="0.00083"></path>
<path d="M1.187 0.684 Q1.252 0.383 0.679 0.285" stroke="hsl(0.0,100%,35%)" stroke-width="0.00165"></path>
<path d="M1.187 0.684 Q1.115 0.638 1.011 0.663" stroke="hsl(0.0,100%,35%)" stroke-width="0.00083"></path>
<path d="M1.187 0.684 Q1.239 0.703 1.287 0.682" stroke="hsl(0.0,100%,35%)" stroke-width="0.00083"></path>
<path d="M0.283 0.635 Q0.555 0.452 0.259 0.280" stroke="hsl(0.0,100%,35%)" stroke-width="0.00248"></path>
<path d="M0.283 0.635 Q0.497 0.712 0.695 0.624" stroke="hsl(0.0,100%,35%)" stroke-width="0.00909"></path>
<path d="M0.283 0.635 Q0.482 0.853 0.953 0.804" stroke="hsl(0.0,100%,35%)" stroke-width="0.00165"></path>
<path d="M0.679 0.285 Q0.889 0.429 1.217 0.357" stroke="hsl(0.0,100%,35%)" stroke-width="0.00083"></path>
<path d="M0.679 0.285 Q0.613 0.586 1.187 0.684" stroke="hsl(0.0,100%,35%)" stroke-width="0.00165"></path>
<path d="M0.679 0.285 Q0.542 0.540 1.011 0.663" stroke="hsl(0.0,100%,35%)" stroke-width="0.00165"></path>
<path d="M0.679 0.285 Q1.283 0.477 1.791 0.224" stroke="hsl(0.0,100%,35%)" stroke-width="0.00083"></path>
<path d="M0.679 0.285 Q0.495 0.298 0.481 0.390" stroke="hsl(0.0,100%,35%)" stroke-width="0.00083"></path>
<path d="M0.679 0.285 Q0.473 0.198 0.259 0.280" stroke="hsl(0.0,100%,35%)" stroke-width="0.00165"></path>
<path d="M1.514 0.304 Q1.071 0.066 0.510 0.230" stroke="hsl(180.0,100%,35%)" stroke-width="0.00083"></path>
<path d="M1.514 0.304 Q1.047 0.429 1.187 0.684" stroke="hsl(180.0,100%,35%)" stroke-width="0.00083"></path>
<path d="M1.514 0.304 Q1.222 0.393 1.331 0.555" stroke="hsl(180.0,100%,35%)" stroke-width="0.00165"></path>
<path d="M1.514 0.304 Q1.717 0.319 1.791 0.224" stroke="hsl(180.0,100%,35%)" stroke-width="0.00496"></path>
<path d="M1.514 0.304 Q1.323 0.271 1.217 0.357" stroke="hsl(180.0,100%,35%)" stroke-width="0.00083"></path>
<path d="M1.514 0.304 Q0.975 0.383 1.011 0.663" stroke="hsl(180.0,100%,35%)" stroke-width="0.00331"></path>
<path d="M1.514 0.304 Q1.085 0.003 0.404 0.147" stroke="hsl(180.0,100%,35%)" stroke-width="0.00083"></path>
<path d="M0.861 0.958 Q1.711 0.762 1.514 0.304" stroke="hsl(0.0,100%,35%)" stroke-width="0.00413"></path>
<path d="M0.861 0.958 Q1.913 0.777 1.791 0.224" stroke="hsl(0.0,100%,35%)" stroke-width="0.00827"></path>
<path d="M0.861 0.958 Q1.419 0.850 1.331 0.555" stroke="hsl(0.0,100%,35%)" stroke-width="0.00083"></path>
<path d="M0.861 0.958 Q1.125 0.598 0.481 0.390" stroke="hsl(0.0,100%,35%)" stroke-width="0.00165"></path>
<path d="M0.861 0.958 Q1.162 1.040 1.388 0.911" stroke="hsl(0.0,100%,35%)" stroke-width="0.00827"></path>
<path d="M0.861 0.958 Q1.103 0.498 0.259 0.280" stroke="hsl(0.0,100%,35%)" stroke-width="0.00083"></path>
<path d="M0.933 0.502 Q0.843 0.598 1.011 0.663" stroke="hsl(0.0,100%,35%)" stroke-width="0.01158"></path>
<path d="M0.933 0.502 Q0.914 0.644 1.187 0.684" stroke="hsl(0.0,100%,35%)" stroke-width="0.00248"></path>
<path d="M0.933 0.502 Q0.774 0.256 0.259 0.280" stroke="hsl(0.0,100%,35%)" stroke-width="0.00331"></path>
<path d="M0.933 0.502 Q1.011 0.519 1.061 0.485" stroke="hsl(0.0,100%,35%)" stroke-width="0.00331"></path>
</g>
<text x="0.767" y="0.462" font-size="0.011180" fill="hsl(0.0,100%,20%)">arthursonzogni</text>
<text x="1.011" y="0.631" font-size="0.064469" fill="hsl(0.0,100%,20%)">brianosman</text>
<text x="0.259" y="0.244" font-size="0.070931" fill="hsl(0.0,100%,20%)">kjlubick</text>
<text x="1.331" y="0.523" font-size="0.063738" fill="hsl(180.0,100%,20%)">robertphillips</text>
<text x="0.404" y="0.129" font-size="0.035355" fill="hsl(0.0,100%,20%)">borenet</text>
<text x="0.695" y="0.597" font-size="0.054199" fill="hsl(0.0,100%,20%)">bungeman</text>
<text x="0.113" y="0.386" font-size="0.011180" fill="hsl(0.0,100%,20%)">bwils</text>
<text x="0.839" y="0.098" font-size="0.005590" fill="hsl(0.0,100%,20%)">rmistry</text>
<text x="0.644" y="0.771" font-size="0.033541" fill="hsl(0.0,100%,20%)">fmalita</text>
<text x="1.658" y="0.445" font-size="0.053619" fill="hsl(180.0,100%,20%)">jvanverth</text>
<text x="1.791" y="0.188" font-size="0.071151" fill="hsl(180.0,100%,20%)">michaelludwig</text>
<text x="1.217" y="0.335" font-size="0.045069" fill="hsl(180.0,100%,20%)">egdaniel</text>
<text x="1.388" y="0.883" font-size="0.056181" fill="hsl(0.0,100%,20%)">johnstiles</text>
<text x="0.953" y="0.792" font-size="0.023049" fill="hsl(0.0,100%,20%)">jlavrova</text>
<text x="1.061" y="0.474" font-size="0.021651" fill="hsl(0.0,100%,20%)">danieldilan</text>
<text x="1.287" y="0.677" font-size="0.009682" fill="hsl(0.0,100%,20%)">hcm</text>
<text x="0.481" y="0.372" font-size="0.035795" fill="hsl(0.0,100%,20%)">nicolettep</text>
<text x="0.510" y="0.219" font-size="0.022361" fill="hsl(0.0,100%,20%)">jmbetancourt</text>
<text x="1.669" y="0.681" font-size="0.015811" fill="hsl(0.0,100%,20%)">chengyangyang-hf</text>
<text x="1.187" y="0.673" font-size="0.020917" fill="hsl(0.0,100%,20%)">scroggo</text>
<text x="0.283" y="0.623" font-size="0.022361" fill="hsl(0.0,100%,20%)">drott</text>
<text x="0.679" y="0.273" font-size="0.023049" fill="hsl(0.0,100%,20%)">nscobie</text>
<text x="0.972" y="0.356" font-size="0.005590" fill="hsl(180.0,100%,20%)">jreck</text>
<text x="0.740" y="0.704" font-size="0.005590" fill="hsl(0.0,100%,20%)">sharaks</text>
<text x="1.514" y="0.287" font-size="0.033541" fill="hsl(180.0,100%,20%)">jamesgk</text>
<text x="0.861" y="0.939" font-size="0.037914" fill="hsl(0.0,100%,20%)">nathanasanchez</text>
<text x="0.550" y="0.455" font-size="0.005590" fill="hsl(0.0,100%,20%)">ashwinpv</text>
<text x="0.933" y="0.488" font-size="0.027951" fill="hsl(0.0,100%,20%)">lukasza</text>
</svg>
