<svg width="4000" height="2000" viewBox="-0.025 -0.025 2.05 1.05" xmlns="http://www.w3.org/2000/svg">
  <style>
    path {
      fill: none;
      stroke-linecap: round;
      stroke-opacity: 0.4;
    }

    text {
      text-anchor: middle;
      alignment-baseline: hanging;
    }
  </style>
  <g opacity="0.4">
<path d="M1.066 0.530 Q1.128 0.361 0.812 0.294" stroke="hsl(0.0,100%,35%)" stroke-width="0.00303"></path>
<path d="M1.066 0.530 Q0.910 0.233 0.297 0.244" stroke="hsl(0.0,100%,35%)" stroke-width="0.00605"></path>
<path d="M1.066 0.530 Q1.205 0.669 1.506 0.631" stroke="hsl(0.0,100%,35%)" stroke-width="0.00303"></path>
<path d="M0.812 0.294 Q0.594 0.166 0.297 0.244" stroke="hsl(0.0,100%,35%)" stroke-width="0.00605"></path>
<path d="M0.812 0.294 Q1.038 0.472 1.436 0.401" stroke="hsl(0.0,100%,35%)" stroke-width="0.00303"></path>
<path d="M0.812 0.294 Q0.907 0.119 0.587 0.034" stroke="hsl(0.0,100%,35%)" stroke-width="0.00303"></path>
<path d="M0.297 0.244 Q0.128 0.248 0.099 0.331" stroke="hsl(0.0,100%,35%)" stroke-width="0.00908"></path>
<path d="M0.297 0.244 Q0.075 0.598 0.717 0.784" stroke="hsl(0.0,100%,35%)" stroke-width="0.00303"></path>
<path d="M0.297 0.244 Q0.857 0.382 1.247 0.139" stroke="hsl(0.0,100%,35%)" stroke-width="0.00908"></path>
<path d="M0.297 0.244 Q0.741 0.551 1.436 0.401" stroke="hsl(0.0,100%,35%)" stroke-width="0.00605"></path>
<path d="M0.297 0.244 Q0.515 0.372 0.812 0.294" stroke="hsl(0.0,100%,35%)" stroke-width="0.00908"></path>
<path d="M0.297 0.244 Q0.416 0.334 0.617 0.295" stroke="hsl(0.0,100%,35%)" stroke-width="0.00303"></path>
<path d="M0.297 0.244 Q0.263 0.401 0.562 0.452" stroke="hsl(0.0,100%,35%)" stroke-width="0.01513"></path>
<path d="M0.297 0.244 Q0.822 0.644 1.717 0.475" stroke="hsl(0.0,100%,35%)" stroke-width="0.00303"></path>
<path d="M0.297 0.244 Q0.718 0.426 1.165 0.261" stroke="hsl(0.0,100%,35%)" stroke-width="0.00303"></path>
<path d="M1.506 0.631 Q1.655 0.502 1.436 0.401" stroke="hsl(180.0,100%,35%)" stroke-width="0.02723"></path>
<path d="M1.506 0.631 Q1.211 0.196 0.297 0.244" stroke="hsl(180.0,100%,35%)" stroke-width="0.00303"></path>
<path d="M1.506 0.631 Q1.866 0.539 1.765 0.344" stroke="hsl(180.0,100%,35%)" stroke-width="0.00303"></path>
<path d="M1.506 0.631 Q1.736 0.596 1.717 0.475" stroke="hsl(180.0,100%,35%)" stroke-width="0.01210"></path>
<path d="M0.562 0.452 Q0.595 0.295 0.297 0.244" stroke="hsl(0.0,100%,35%)" stroke-width="0.03026"></path>
<path d="M0.562 0.452 Q1.155 0.432 1.247 0.139" stroke="hsl(0.0,100%,35%)" stroke-width="0.00303"></path>
<path d="M0.562 0.452 Q0.715 0.385 0.617 0.295" stroke="hsl(0.0,100%,35%)" stroke-width="0.00303"></path>
<path d="M0.562 0.452 Q0.813 0.423 0.812 0.294" stroke="hsl(0.0,100%,35%)" stroke-width="0.00303"></path>
<path d="M0.562 0.452 Q0.367 0.395 0.213 0.477" stroke="hsl(0.0,100%,35%)" stroke-width="0.00303"></path>
<path d="M0.562 0.452 Q0.890 0.730 1.506 0.631" stroke="hsl(0.0,100%,35%)" stroke-width="0.00303"></path>
<path d="M1.247 0.139 Q0.906 0.129 0.812 0.294" stroke="hsl(0.0,100%,35%)" stroke-width="0.01513"></path>
<path d="M1.247 0.139 Q0.688 0.001 0.297 0.244" stroke="hsl(0.0,100%,35%)" stroke-width="0.02421"></path>
<path d="M1.247 0.139 Q0.466 0.355 0.717 0.784" stroke="hsl(0.0,100%,35%)" stroke-width="0.00303"></path>
<path d="M1.247 0.139 Q1.200 0.021 0.959 0.018" stroke="hsl(0.0,100%,35%)" stroke-width="0.01210"></path>
<path d="M1.247 0.139 Q0.983 0.437 1.506 0.631" stroke="hsl(0.0,100%,35%)" stroke-width="0.00303"></path>
<path d="M1.247 0.139 Q1.109 0.183 1.165 0.261" stroke="hsl(0.0,100%,35%)" stroke-width="0.00605"></path>
<path d="M1.247 0.139 Q1.079 0.105 0.975 0.179" stroke="hsl(0.0,100%,35%)" stroke-width="0.00303"></path>
<path d="M0.717 0.784 Q0.939 0.430 0.297 0.244" stroke="hsl(180.0,100%,35%)" stroke-width="0.00605"></path>
<path d="M0.717 0.784 Q1.593 0.774 1.765 0.344" stroke="hsl(180.0,100%,35%)" stroke-width="0.00605"></path>
<path d="M0.717 0.784 Q1.234 0.866 1.506 0.631" stroke="hsl(180.0,100%,35%)" stroke-width="0.00303"></path>
<path d="M0.717 0.784 Q1.383 0.737 1.436 0.401" stroke="hsl(180.0,100%,35%)" stroke-width="0.00303"></path>
<path d="M0.717 0.784 Q0.792 0.959 1.150 0.960" stroke="hsl(180.0,100%,35%)" stroke-width="0.00303"></path>
<path d="M0.959 0.018 Q0.447 -0.001 0.297 0.244" stroke="hsl(0.0,100%,35%)" stroke-width="0.00605"></path>
<path d="M0.959 0.018 Q0.839 0.102 0.975 0.179" stroke="hsl(0.0,100%,35%)" stroke-width="0.00303"></path>
<path d="M0.959 0.018 Q1.007 0.136 1.247 0.139" stroke="hsl(0.0,100%,35%)" stroke-width="0.00303"></path>
<path d="M0.959 0.018 Q0.858 -0.030 0.742 0.009" stroke="hsl(0.0,100%,35%)" stroke-width="0.00303"></path>
<path d="M1.165 0.261 Q0.962 0.206 0.812 0.294" stroke="hsl(0.0,100%,35%)" stroke-width="0.00605"></path>
<path d="M1.165 0.261 Q1.304 0.216 1.247 0.139" stroke="hsl(0.0,100%,35%)" stroke-width="0.00908"></path>
<path d="M1.165 0.261 Q1.256 0.098 0.959 0.018" stroke="hsl(0.0,100%,35%)" stroke-width="0.00303"></path>
<path d="M0.975 0.179 Q1.144 0.213 1.247 0.139" stroke="hsl(0.0,100%,35%)" stroke-width="0.00303"></path>
<path d="M0.975 0.179 Q0.584 0.076 0.297 0.244" stroke="hsl(0.0,100%,35%)" stroke-width="0.00303"></path>
<path d="M0.975 0.179 Q0.802 0.204 0.812 0.294" stroke="hsl(0.0,100%,35%)" stroke-width="0.00303"></path>
<path d="M1.432 0.215 Q1.401 0.140 1.247 0.139" stroke="hsl(0.0,100%,35%)" stroke-width="0.02723"></path>
<path d="M1.432 0.215 Q0.841 0.003 0.297 0.244" stroke="hsl(0.0,100%,35%)" stroke-width="0.00605"></path>
<path d="M1.432 0.215 Q1.262 0.185 1.165 0.261" stroke="hsl(0.0,100%,35%)" stroke-width="0.00303"></path>
<path d="M1.150 0.960 Q1.514 0.559 0.812 0.294" stroke="hsl(180.0,100%,35%)" stroke-width="0.00303"></path>
<path d="M1.150 0.960 Q1.951 0.775 1.765 0.344" stroke="hsl(180.0,100%,35%)" stroke-width="0.00605"></path>
<path d="M1.150 0.960 Q1.263 0.588 0.562 0.452" stroke="hsl(180.0,100%,35%)" stroke-width="0.00303"></path>
<path d="M1.765 0.344 Q0.964 0.529 1.150 0.960" stroke="hsl(180.0,100%,35%)" stroke-width="0.02421"></path>
<path d="M1.765 0.344 Q0.889 0.354 0.717 0.784" stroke="hsl(180.0,100%,35%)" stroke-width="0.01513"></path>
<path d="M1.765 0.344 Q1.406 0.436 1.506 0.631" stroke="hsl(180.0,100%,35%)" stroke-width="0.03026"></path>
<path d="M1.765 0.344 Q1.636 0.400 1.717 0.475" stroke="hsl(180.0,100%,35%)" stroke-width="0.00908"></path>
<path d="M1.765 0.344 Q1.555 0.307 1.436 0.401" stroke="hsl(180.0,100%,35%)" stroke-width="0.00303"></path>
<path d="M1.765 0.344 Q1.328 0.128 0.812 0.294" stroke="hsl(180.0,100%,35%)" stroke-width="0.00303"></path>
<path d="M1.765 0.344 Q1.502 0.103 0.975 0.179" stroke="hsl(180.0,100%,35%)" stroke-width="0.00303"></path>
<path d="M0.602 0.159 Q0.600 0.268 0.812 0.294" stroke="hsl(0.0,100%,35%)" stroke-width="0.00908"></path>
<path d="M0.602 0.159 Q0.382 0.141 0.297 0.244" stroke="hsl(0.0,100%,35%)" stroke-width="0.00303"></path>
<path d="M0.602 0.159 Q0.508 0.186 0.540 0.238" stroke="hsl(0.0,100%,35%)" stroke-width="0.00303"></path>
<path d="M0.602 0.159 Q0.694 0.093 0.587 0.034" stroke="hsl(0.0,100%,35%)" stroke-width="0.01210"></path>
</g>
<text x="1.066" y="0.519" font-size="0.022718" fill="hsl(0.0,100%,20%)">arthursonzogni</text>
<text x="0.812" y="0.267" font-size="0.053280" fill="hsl(0.0,100%,20%)">brianosman</text>
<text x="0.297" y="0.204" font-size="0.081121" fill="hsl(0.0,100%,20%)">kjlubick</text>
<text x="1.506" y="0.601" font-size="0.061171" fill="hsl(180.0,100%,20%)">robertphillips</text>
<text x="0.562" y="0.426" font-size="0.052055" fill="hsl(0.0,100%,20%)">borenet</text>
<text x="1.247" y="0.103" font-size="0.071842" fill="hsl(0.0,100%,20%)">bungeman</text>
<text x="0.617" y="0.287" font-size="0.016064" fill="hsl(0.0,100%,20%)">bwils</text>
<text x="0.213" y="0.471" font-size="0.011359" fill="hsl(0.0,100%,20%)">rmistry</text>
<text x="1.436" y="0.380" font-size="0.042502" fill="hsl(180.0,100%,20%)">egdaniel</text>
<text x="0.587" y="0.021" font-size="0.025400" fill="hsl(0.0,100%,20%)">danieldilan</text>
<text x="0.717" y="0.763" font-size="0.042502" fill="hsl(180.0,100%,20%)">nicolettep</text>
<text x="0.959" y="0.000" font-size="0.035921" fill="hsl(0.0,100%,20%)">fmalita</text>
<text x="1.165" y="0.243" font-size="0.035921" fill="hsl(0.0,100%,20%)">jlavrova</text>
<text x="0.975" y="0.165" font-size="0.027824" fill="hsl(0.0,100%,20%)">jmbetancourt</text>
<text x="1.432" y="0.195" font-size="0.039350" fill="hsl(0.0,100%,20%)">drott</text>
<text x="0.742" y="0.004" font-size="0.011359" fill="hsl(0.0,100%,20%)">hcm</text>
<text x="1.150" y="0.940" font-size="0.040956" fill="hsl(180.0,100%,20%)">jamesgk</text>
<text x="1.765" y="0.310" font-size="0.066235" fill="hsl(180.0,100%,20%)">michaelludwig</text>
<text x="0.099" y="0.321" font-size="0.019675" fill="hsl(0.0,100%,20%)">nscobie</text>
<text x="1.717" y="0.459" font-size="0.032129" fill="hsl(180.0,100%,20%)">jvanverth</text>
<text x="0.602" y="0.142" font-size="0.034078" fill="hsl(0.0,100%,20%)">lukasza</text>
<text x="0.540" y="0.233" font-size="0.011359" fill="hsl(0.0,100%,20%)">scroggo</text>
</svg>
