<svg width="4000" height="2000" viewBox="-0.025 -0.025 2.05 1.05" xmlns="http://www.w3.org/2000/svg">
  <style>
    path {
      fill: none;
      stroke-linecap: round;
      stroke-opacity: 0.4;
    }

    text {
      text-anchor: middle;
      alignment-baseline: hanging;
    }
  </style>
  <g opacity="0.4">
<path d="M1.103 0.206 Q0.147 0.418 0.350 0.931" stroke="hsl(0.0,100%,35%)" stroke-width="0.00672"></path>
<path d="M1.103 0.206 Q1.215 0.566 1.943 0.590" stroke="hsl(0.0,100%,35%)" stroke-width="0.00895"></path>
<path d="M1.103 0.206 Q1.137 0.124 0.986 0.090" stroke="hsl(0.0,100%,35%)" stroke-width="0.00895"></path>
<path d="M1.103 0.206 Q1.420 0.240 1.555 0.093" stroke="hsl(0.0,100%,35%)" stroke-width="0.01343"></path>
<path d="M1.103 0.206 Q1.086 0.394 1.450 0.444" stroke="hsl(0.0,100%,35%)" stroke-width="0.00224"></path>
<path d="M1.103 0.206 Q0.704 0.220 0.643 0.417" stroke="hsl(0.0,100%,35%)" stroke-width="0.00224"></path>
<path d="M1.943 0.590 Q1.831 0.230 1.103 0.206" stroke="hsl(180.0,100%,35%)" stroke-width="0.00448"></path>
<path d="M1.943 0.590 Q2.058 0.483 1.874 0.404" stroke="hsl(180.0,100%,35%)" stroke-width="0.00448"></path>
<path d="M1.943 0.590 Q1.432 0.244 0.643 0.417" stroke="hsl(180.0,100%,35%)" stroke-width="0.00224"></path>
<path d="M1.943 0.590 Q1.247 0.269 0.467 0.538" stroke="hsl(180.0,100%,35%)" stroke-width="0.00224"></path>
<path d="M0.643 0.417 Q0.459 0.442 0.467 0.538" stroke="hsl(180.0,100%,35%)" stroke-width="0.05597"></path>
<path d="M0.643 0.417 Q1.155 0.764 1.943 0.590" stroke="hsl(180.0,100%,35%)" stroke-width="0.02015"></path>
<path d="M0.643 0.417 Q0.956 0.467 1.122 0.325" stroke="hsl(180.0,100%,35%)" stroke-width="0.00672"></path>
<path d="M0.643 0.417 Q1.042 0.403 1.103 0.206" stroke="hsl(180.0,100%,35%)" stroke-width="0.01343"></path>
<path d="M0.643 0.417 Q0.086 0.615 0.350 0.931" stroke="hsl(180.0,100%,35%)" stroke-width="0.00224"></path>
<path d="M0.643 0.417 Q1.359 0.437 1.555 0.093" stroke="hsl(180.0,100%,35%)" stroke-width="0.00672"></path>
<path d="M1.068 0.675 Q1.062 0.461 0.643 0.417" stroke="hsl(180.0,100%,35%)" stroke-width="0.07388"></path>
<path d="M1.068 0.675 Q1.069 0.805 1.322 0.833" stroke="hsl(180.0,100%,35%)" stroke-width="0.00224"></path>
<path d="M1.068 0.675 Q0.878 0.486 0.467 0.538" stroke="hsl(180.0,100%,35%)" stroke-width="0.00224"></path>
<path d="M1.068 0.675 Q1.573 0.808 1.943 0.590" stroke="hsl(180.0,100%,35%)" stroke-width="0.00224"></path>
<path d="M0.810 0.226 Q0.235 0.460 0.567 0.792" stroke="hsl(0.0,100%,35%)" stroke-width="0.00224"></path>
<path d="M0.810 0.226 Q0.972 0.274 1.103 0.206" stroke="hsl(0.0,100%,35%)" stroke-width="0.03806"></path>
<path d="M0.810 0.226 Q0.016 0.486 0.350 0.931" stroke="hsl(0.0,100%,35%)" stroke-width="0.00672"></path>
<path d="M0.567 0.792 Q0.347 0.818 0.350 0.931" stroke="hsl(0.0,100%,35%)" stroke-width="0.01791"></path>
<path d="M0.567 0.792 Q1.531 0.859 1.874 0.404" stroke="hsl(0.0,100%,35%)" stroke-width="0.00224"></path>
<path d="M0.567 0.792 Q1.141 0.557 0.810 0.226" stroke="hsl(0.0,100%,35%)" stroke-width="0.00448"></path>
<path d="M0.567 0.792 Q0.720 0.645 0.467 0.538" stroke="hsl(0.0,100%,35%)" stroke-width="0.00224"></path>
<path d="M1.079 0.487 Q1.316 0.351 1.103 0.206" stroke="hsl(180.0,100%,35%)" stroke-width="0.00224"></path>
<path d="M1.079 0.487 Q0.918 0.365 0.643 0.417" stroke="hsl(180.0,100%,35%)" stroke-width="0.04701"></path>
<path d="M1.079 0.487 Q0.733 0.390 0.467 0.538" stroke="hsl(180.0,100%,35%)" stroke-width="0.02239"></path>
</g>
<text x="1.103" y="0.170" font-size="0.072127" fill="hsl(0.0,100%,20%)">bclayton</text>
<text x="0.350" y="0.910" font-size="0.041643" fill="hsl(0.0,100%,20%)">geofflang</text>
<text x="1.943" y="0.566" font-size="0.048085" fill="hsl(180.0,100%,20%)">syoussefi</text>
<text x="0.986" y="0.079" font-size="0.021504" fill="hsl(0.0,100%,20%)">cwallez</text>
<text x="1.555" y="0.076" font-size="0.032256" fill="hsl(0.0,100%,20%)">amaiorano</text>
<text x="1.450" y="0.439" font-size="0.010752" fill="hsl(0.0,100%,20%)">dneto</text>
<text x="0.643" y="0.363" font-size="0.109122" fill="hsl(180.0,100%,20%)">sugoi</text>
<text x="1.068" y="0.643" font-size="0.064512" fill="hsl(180.0,100%,20%)">capn</text>
<text x="1.322" y="0.827" font-size="0.010752" fill="hsl(180.0,100%,20%)">jmadill</text>
<text x="0.467" y="0.504" font-size="0.066280" fill="hsl(180.0,100%,20%)">nicolascapens</text>
<text x="0.810" y="0.200" font-size="0.051565" fill="hsl(0.0,100%,20%)">jif</text>
<text x="0.567" y="0.773" font-size="0.038767" fill="hsl(0.0,100%,20%)">natsu</text>
<text x="1.874" y="0.394" font-size="0.018623" fill="hsl(180.0,100%,20%)">chrisforbes</text>
<text x="1.122" y="0.316" font-size="0.018623" fill="hsl(180.0,100%,20%)">jonahr</text>
<text x="1.079" y="0.457" font-size="0.060823" fill="hsl(180.0,100%,20%)">swiftshader.regress</text>
</svg>
