<svg width="4000" height="2000" viewBox="-0.025 -0.025 2.05 1.05" xmlns="http://www.w3.org/2000/svg">
  <style>
    path {
      fill: none;
      stroke-linecap: round;
      stroke-opacity: 0.4;
    }

    text {
      text-anchor: middle;
      alignment-baseline: hanging;
    }
  </style>
  <g opacity="0.4">
<path d="M1.722 0.591 Q1.839 0.527 1.740 0.456" stroke="hsl(0.0,100%,35%)" stroke-width="0.00926"></path>
<path d="M1.722 0.591 Q1.934 0.462 1.728 0.330" stroke="hsl(0.0,100%,35%)" stroke-width="0.00926"></path>
<path d="M1.722 0.591 Q1.640 0.497 1.439 0.517" stroke="hsl(0.0,100%,35%)" stroke-width="0.00926"></path>
<path d="M1.728 0.330 Q1.141 0.302 0.960 0.582" stroke="hsl(0.0,100%,35%)" stroke-width="0.01852"></path>
<path d="M1.728 0.330 Q1.728 0.243 1.560 0.224" stroke="hsl(0.0,100%,35%)" stroke-width="0.02778"></path>
<path d="M1.728 0.330 Q1.338 0.444 1.476 0.659" stroke="hsl(0.0,100%,35%)" stroke-width="0.00926"></path>
<path d="M1.439 0.517 Q1.052 0.215 0.377 0.337" stroke="hsl(0.0,100%,35%)" stroke-width="0.00926"></path>
<path d="M1.439 0.517 Q1.160 0.733 1.519 0.916" stroke="hsl(0.0,100%,35%)" stroke-width="0.00926"></path>
<path d="M1.439 0.517 Q1.344 0.596 1.476 0.659" stroke="hsl(0.0,100%,35%)" stroke-width="0.00926"></path>
<path d="M1.519 0.916 Q1.703 0.779 1.476 0.659" stroke="hsl(0.0,100%,35%)" stroke-width="0.01852"></path>
<path d="M1.519 0.916 Q1.644 0.309 0.488 0.115" stroke="hsl(0.0,100%,35%)" stroke-width="0.00926"></path>
<path d="M1.519 0.916 Q1.798 0.700 1.439 0.517" stroke="hsl(0.0,100%,35%)" stroke-width="0.00926"></path>
<path d="M1.519 0.916 Q1.593 0.751 1.287 0.679" stroke="hsl(0.0,100%,35%)" stroke-width="0.01852"></path>
<path d="M1.519 0.916 Q1.506 0.637 0.960 0.582" stroke="hsl(0.0,100%,35%)" stroke-width="0.00926"></path>
<path d="M0.960 0.582 Q0.910 0.710 1.148 0.762" stroke="hsl(0.0,100%,35%)" stroke-width="0.00926"></path>
<path d="M0.960 0.582 Q1.124 0.535 1.068 0.444" stroke="hsl(0.0,100%,35%)" stroke-width="0.00926"></path>
<path d="M0.960 0.582 Q0.716 0.571 0.639 0.687" stroke="hsl(0.0,100%,35%)" stroke-width="0.00926"></path>
<path d="M0.377 0.337 Q0.326 0.235 0.116 0.238" stroke="hsl(180.0,100%,35%)" stroke-width="0.08333"></path>
<path d="M0.377 0.337 Q0.086 0.751 0.830 0.984" stroke="hsl(180.0,100%,35%)" stroke-width="0.01852"></path>
<path d="M0.377 0.337 Q0.546 0.352 0.612 0.273" stroke="hsl(180.0,100%,35%)" stroke-width="0.00926"></path>
<path d="M0.377 0.337 Q0.059 0.495 0.296 0.685" stroke="hsl(180.0,100%,35%)" stroke-width="0.00926"></path>
<path d="M0.377 0.337 Q0.669 0.718 1.476 0.659" stroke="hsl(180.0,100%,35%)" stroke-width="0.00926"></path>
<path d="M0.830 0.984 Q0.747 0.905 0.574 0.929" stroke="hsl(180.0,100%,35%)" stroke-width="0.01852"></path>
<path d="M0.830 0.984 Q1.229 1.088 1.519 0.916" stroke="hsl(180.0,100%,35%)" stroke-width="0.00926"></path>
<path d="M0.830 0.984 Q0.974 0.859 0.759 0.761" stroke="hsl(180.0,100%,35%)" stroke-width="0.00926"></path>
<path d="M0.830 0.984 Q1.070 0.468 0.116 0.238" stroke="hsl(180.0,100%,35%)" stroke-width="0.00926"></path>
<path d="M0.830 0.984 Q1.508 0.872 1.439 0.517" stroke="hsl(180.0,100%,35%)" stroke-width="0.01852"></path>
<path d="M0.830 0.984 Q0.671 0.884 0.440 0.939" stroke="hsl(180.0,100%,35%)" stroke-width="0.00926"></path>
<path d="M0.830 0.984 Q1.087 0.779 0.742 0.609" stroke="hsl(180.0,100%,35%)" stroke-width="0.00926"></path>
<path d="M0.830 0.984 Q0.803 0.728 0.296 0.685" stroke="hsl(180.0,100%,35%)" stroke-width="0.01852"></path>
<path d="M0.137 0.086 Q0.090 0.140 0.185 0.175" stroke="hsl(0.0,100%,35%)" stroke-width="0.00926"></path>
<path d="M0.137 0.086 Q0.164 0.778 1.519 0.916" stroke="hsl(0.0,100%,35%)" stroke-width="0.00926"></path>
<path d="M0.137 0.086 Q0.289 0.171 0.488 0.115" stroke="hsl(0.0,100%,35%)" stroke-width="0.00926"></path>
<path d="M0.189 0.805 Q1.126 1.004 1.722 0.591" stroke="hsl(0.0,100%,35%)" stroke-width="0.00926"></path>
<path d="M0.189 0.805 Q0.366 1.023 0.830 0.984" stroke="hsl(0.0,100%,35%)" stroke-width="0.00926"></path>
<path d="M0.189 0.805 Q0.949 0.989 1.476 0.659" stroke="hsl(0.0,100%,35%)" stroke-width="0.00926"></path>
<path d="M0.189 0.805 Q1.044 0.911 1.439 0.517" stroke="hsl(0.0,100%,35%)" stroke-width="0.00926"></path>
</g>
<text x="1.722" y="0.572" font-size="0.038490" fill="hsl(0.0,100%,20%)">ahaas</text>
<text x="1.740" y="0.447" font-size="0.019245" fill="hsl(0.0,100%,20%)">victorgomes</text>
<text x="1.728" y="0.304" font-size="0.050918" fill="hsl(0.0,100%,20%)">machenbach</text>
<text x="1.439" y="0.490" font-size="0.054433" fill="hsl(0.0,100%,20%)">nicohartmann</text>
<text x="1.519" y="0.886" font-size="0.060858" fill="hsl(0.0,100%,20%)">clemensb</text>
<text x="1.476" y="0.636" font-size="0.047140" fill="hsl(0.0,100%,20%)">jkummerow</text>
<text x="0.488" y="0.102" font-size="0.027217" fill="hsl(0.0,100%,20%)">omerkatz</text>
<text x="1.287" y="0.666" font-size="0.027217" fill="hsl(0.0,100%,20%)">evih</text>
<text x="0.960" y="0.559" font-size="0.047140" fill="hsl(0.0,100%,20%)">mliedtke</text>
<text x="0.377" y="0.300" font-size="0.074536" fill="hsl(180.0,100%,20%)">dinfuehr</text>
<text x="0.116" y="0.207" font-size="0.060858" fill="hsl(180.0,100%,20%)">mlippautz</text>
<text x="0.830" y="0.948" font-size="0.072008" fill="hsl(180.0,100%,20%)">ishell</text>
<text x="0.612" y="0.263" font-size="0.019245" fill="hsl(180.0,100%,20%)">syg</text>
<text x="0.296" y="0.668" font-size="0.033333" fill="hsl(180.0,100%,20%)">pthier</text>
<text x="0.574" y="0.915" font-size="0.027217" fill="hsl(180.0,100%,20%)">saelo</text>
<text x="0.759" y="0.751" font-size="0.019245" fill="hsl(180.0,100%,20%)">leszeks</text>
<text x="0.440" y="0.930" font-size="0.019245" fill="hsl(180.0,100%,20%)">olivf</text>
<text x="0.742" y="0.599" font-size="0.019245" fill="hsl(180.0,100%,20%)">verwaest</text>
<text x="1.560" y="0.208" font-size="0.033333" fill="hsl(0.0,100%,20%)">alexschulze</text>
<text x="0.137" y="0.069" font-size="0.033333" fill="hsl(0.0,100%,20%)">mfarazma</text>
<text x="0.185" y="0.165" font-size="0.019245" fill="hsl(0.0,100%,20%)">junyan</text>
<text x="1.148" y="0.753" font-size="0.019245" fill="hsl(0.0,100%,20%)">cbruni</text>
<text x="1.068" y="0.435" font-size="0.019245" fill="hsl(0.0,100%,20%)">dlehmann</text>
<text x="0.639" y="0.677" font-size="0.019245" fill="hsl(0.0,100%,20%)">jgruber</text>
<text x="0.189" y="0.785" font-size="0.038490" fill="hsl(0.0,100%,20%)">sroettger</text>
</svg>
