<svg width="4000" height="2000" viewBox="-0.025 -0.025 2.05 1.05" xmlns="http://www.w3.org/2000/svg">
  <style>
    path {
      fill: none;
      stroke-linecap: round;
      stroke-opacity: 0.4;
    }

    text {
      text-anchor: middle;
      alignment-baseline: hanging;
    }
  </style>
  <g opacity="0.4">
<path d="M1.661 0.860 Q2.098 0.531 1.553 0.246" stroke="hsl(0.0,100%,35%)" stroke-width="0.00352"></path>
<path d="M1.661 0.860 Q1.886 0.377 0.994 0.162" stroke="hsl(0.0,100%,35%)" stroke-width="0.00528"></path>
<path d="M1.661 0.860 Q1.759 0.597 1.267 0.491" stroke="hsl(0.0,100%,35%)" stroke-width="0.00176"></path>
<path d="M1.661 0.860 Q1.799 0.879 1.867 0.816" stroke="hsl(0.0,100%,35%)" stroke-width="0.00528"></path>
<path d="M1.661 0.860 Q1.064 0.638 0.500 0.881" stroke="hsl(0.0,100%,35%)" stroke-width="0.00176"></path>
<path d="M1.661 0.860 Q1.286 0.443 0.389 0.534" stroke="hsl(0.0,100%,35%)" stroke-width="0.00352"></path>
<path d="M1.661 0.860 Q1.474 0.612 0.949 0.649" stroke="hsl(0.0,100%,35%)" stroke-width="0.00176"></path>
<path d="M1.553 0.246 Q1.679 0.259 1.733 0.201" stroke="hsl(120.0,100%,35%)" stroke-width="0.01055"></path>
<path d="M1.553 0.246 Q1.064 0.355 1.169 0.618" stroke="hsl(120.0,100%,35%)" stroke-width="0.00176"></path>
<path d="M1.553 0.246 Q1.235 0.507 1.674 0.720" stroke="hsl(120.0,100%,35%)" stroke-width="0.00176"></path>
<path d="M0.994 0.162 Q0.868 0.381 1.267 0.491" stroke="hsl(0.0,100%,35%)" stroke-width="0.00176"></path>
<path d="M0.994 0.162 Q0.475 0.113 0.266 0.355" stroke="hsl(0.0,100%,35%)" stroke-width="0.00879"></path>
<path d="M0.994 0.162 Q1.206 0.316 1.553 0.246" stroke="hsl(0.0,100%,35%)" stroke-width="0.00176"></path>
<path d="M0.994 0.162 Q0.729 0.527 1.384 0.737" stroke="hsl(0.0,100%,35%)" stroke-width="0.00176"></path>
<path d="M0.994 0.162 Q0.298 0.153 0.128 0.490" stroke="hsl(0.0,100%,35%)" stroke-width="0.00176"></path>
<path d="M0.994 0.162 Q0.309 0.457 0.735 0.856" stroke="hsl(0.0,100%,35%)" stroke-width="0.00176"></path>
<path d="M0.994 0.162 Q0.611 0.131 0.466 0.311" stroke="hsl(0.0,100%,35%)" stroke-width="0.00176"></path>
<path d="M1.267 0.491 Q1.288 0.687 1.674 0.720" stroke="hsl(120.0,100%,35%)" stroke-width="0.00352"></path>
<path d="M1.267 0.491 Q1.732 0.439 1.733 0.201" stroke="hsl(120.0,100%,35%)" stroke-width="0.01055"></path>
<path d="M1.267 0.491 Q1.811 0.366 1.686 0.073" stroke="hsl(120.0,100%,35%)" stroke-width="0.00176"></path>
<path d="M1.267 0.491 Q0.709 0.567 0.735 0.856" stroke="hsl(120.0,100%,35%)" stroke-width="0.00352"></path>
<path d="M1.267 0.491 Q1.132 0.480 1.082 0.544" stroke="hsl(120.0,100%,35%)" stroke-width="0.00528"></path>
<path d="M1.267 0.491 Q0.838 0.483 0.729 0.691" stroke="hsl(120.0,100%,35%)" stroke-width="0.00176"></path>
<path d="M1.267 0.491 Q1.207 0.416 1.047 0.429" stroke="hsl(120.0,100%,35%)" stroke-width="0.00176"></path>
<path d="M1.267 0.491 Q0.530 0.373 0.137 0.707" stroke="hsl(120.0,100%,35%)" stroke-width="0.00352"></path>
<path d="M1.267 0.491 Q0.794 0.337 0.389 0.534" stroke="hsl(120.0,100%,35%)" stroke-width="0.00176"></path>
<path d="M1.267 0.491 Q1.394 0.272 0.994 0.162" stroke="hsl(120.0,100%,35%)" stroke-width="0.00352"></path>
<path d="M1.267 0.491 Q1.117 0.535 1.169 0.618" stroke="hsl(120.0,100%,35%)" stroke-width="0.00176"></path>
<path d="M1.867 0.816 Q1.354 0.380 0.389 0.534" stroke="hsl(0.0,100%,35%)" stroke-width="0.00176"></path>
<path d="M1.867 0.816 Q1.955 0.315 0.994 0.162" stroke="hsl(0.0,100%,35%)" stroke-width="0.00176"></path>
<path d="M1.867 0.816 Q1.542 0.549 0.949 0.649" stroke="hsl(0.0,100%,35%)" stroke-width="0.00176"></path>
<path d="M0.500 0.881 Q0.804 0.571 0.266 0.355" stroke="hsl(0.0,100%,35%)" stroke-width="0.00879"></path>
<path d="M0.500 0.881 Q1.740 0.714 1.686 0.073" stroke="hsl(0.0,100%,35%)" stroke-width="0.00176"></path>
<path d="M0.500 0.881 Q0.940 0.589 0.466 0.311" stroke="hsl(0.0,100%,35%)" stroke-width="0.00176"></path>
<path d="M0.500 0.881 Q0.637 0.916 0.735 0.856" stroke="hsl(0.0,100%,35%)" stroke-width="0.00176"></path>
<path d="M0.500 0.881 Q0.753 1.000 1.041 0.903" stroke="hsl(0.0,100%,35%)" stroke-width="0.00176"></path>
<path d="M0.389 0.534 Q1.327 0.636 1.733 0.201" stroke="hsl(120.0,100%,35%)" stroke-width="0.00176"></path>
<path d="M0.389 0.534 Q0.207 0.507 0.113 0.589" stroke="hsl(120.0,100%,35%)" stroke-width="0.01583"></path>
<path d="M0.389 0.534 Q0.883 0.884 1.674 0.720" stroke="hsl(120.0,100%,35%)" stroke-width="0.00176"></path>
<path d="M0.389 0.534 Q0.301 0.662 0.531 0.733" stroke="hsl(120.0,100%,35%)" stroke-width="0.00528"></path>
<path d="M0.389 0.534 Q0.863 0.688 1.267 0.491" stroke="hsl(120.0,100%,35%)" stroke-width="0.00176"></path>
<path d="M0.389 0.534 Q0.294 0.460 0.128 0.490" stroke="hsl(120.0,100%,35%)" stroke-width="0.00176"></path>
<path d="M0.949 0.649 Q1.255 0.830 1.674 0.720" stroke="hsl(0.0,100%,35%)" stroke-width="0.00176"></path>
<path d="M0.949 0.649 Q0.497 0.516 0.137 0.707" stroke="hsl(0.0,100%,35%)" stroke-width="0.00176"></path>
<path d="M0.949 0.649 Q0.843 0.365 0.266 0.355" stroke="hsl(0.0,100%,35%)" stroke-width="0.00704"></path>
<path d="M0.949 0.649 Q1.362 0.415 0.994 0.162" stroke="hsl(0.0,100%,35%)" stroke-width="0.00176"></path>
<path d="M0.949 0.649 Q0.997 0.595 0.901 0.559" stroke="hsl(0.0,100%,35%)" stroke-width="0.00879"></path>
<path d="M0.949 0.649 Q0.979 0.383 0.466 0.311" stroke="hsl(0.0,100%,35%)" stroke-width="0.00352"></path>
<path d="M0.949 0.649 Q1.097 0.780 1.384 0.737" stroke="hsl(0.0,100%,35%)" stroke-width="0.00176"></path>
<path d="M0.837 0.994 Q0.981 0.674 0.389 0.534" stroke="hsl(120.0,100%,35%)" stroke-width="0.00176"></path>
<path d="M0.837 0.994 Q0.802 0.964 0.736 0.974" stroke="hsl(120.0,100%,35%)" stroke-width="0.00528"></path>
<path d="M0.837 0.994 Q1.475 1.024 1.674 0.720" stroke="hsl(120.0,100%,35%)" stroke-width="0.00176"></path>
<path d="M1.674 0.720 Q2.197 0.399 1.686 0.073" stroke="hsl(120.0,100%,35%)" stroke-width="0.00528"></path>
<path d="M1.674 0.720 Q2.118 0.472 1.733 0.201" stroke="hsl(120.0,100%,35%)" stroke-width="0.00528"></path>
<path d="M1.674 0.720 Q1.809 0.737 1.872 0.674" stroke="hsl(120.0,100%,35%)" stroke-width="0.00176"></path>
<path d="M1.674 0.720 Q0.998 0.342 0.113 0.589" stroke="hsl(120.0,100%,35%)" stroke-width="0.00176"></path>
<path d="M1.674 0.720 Q1.781 0.305 0.994 0.162" stroke="hsl(120.0,100%,35%)" stroke-width="0.00352"></path>
<path d="M1.674 0.720 Q1.693 0.807 1.867 0.816" stroke="hsl(120.0,100%,35%)" stroke-width="0.00176"></path>
<path d="M1.674 0.720 Q1.518 0.513 1.082 0.544" stroke="hsl(120.0,100%,35%)" stroke-width="0.00176"></path>
<path d="M0.735 0.856 Q0.556 0.662 0.137 0.707" stroke="hsl(0.0,100%,35%)" stroke-width="0.00176"></path>
<path d="M0.735 0.856 Q1.037 0.530 0.466 0.311" stroke="hsl(0.0,100%,35%)" stroke-width="0.01055"></path>
<path d="M0.735 0.856 Q0.905 0.864 0.957 0.783" stroke="hsl(0.0,100%,35%)" stroke-width="0.01055"></path>
<path d="M0.735 0.856 Q0.598 0.822 0.500 0.881" stroke="hsl(0.0,100%,35%)" stroke-width="0.01055"></path>
<path d="M0.735 0.856 Q1.195 1.043 1.661 0.860" stroke="hsl(0.0,100%,35%)" stroke-width="0.00176"></path>
<path d="M0.735 0.856 Q0.864 0.773 0.729 0.691" stroke="hsl(0.0,100%,35%)" stroke-width="0.00352"></path>
<path d="M0.735 0.856 Q1.093 0.993 1.439 0.848" stroke="hsl(0.0,100%,35%)" stroke-width="0.00176"></path>
<path d="M0.735 0.856 Q0.850 0.941 1.041 0.903" stroke="hsl(0.0,100%,35%)" stroke-width="0.00352"></path>
<path d="M0.735 0.856 Q0.820 0.626 0.389 0.534" stroke="hsl(0.0,100%,35%)" stroke-width="0.00528"></path>
<path d="M0.735 0.856 Q0.572 0.747 0.323 0.803" stroke="hsl(0.0,100%,35%)" stroke-width="0.00176"></path>
<path d="M0.735 0.856 Q0.901 0.512 0.266 0.355" stroke="hsl(0.0,100%,35%)" stroke-width="0.00528"></path>
<path d="M0.735 0.856 Q1.420 0.561 0.994 0.162" stroke="hsl(0.0,100%,35%)" stroke-width="0.00352"></path>
<path d="M0.735 0.856 Q0.732 0.754 0.531 0.733" stroke="hsl(0.0,100%,35%)" stroke-width="0.00176"></path>
<path d="M0.137 0.707 Q0.401 0.671 0.389 0.534" stroke="hsl(120.0,100%,35%)" stroke-width="0.01231"></path>
<path d="M0.137 0.707 Q0.219 0.643 0.113 0.589" stroke="hsl(120.0,100%,35%)" stroke-width="0.00176"></path>
<path d="M0.137 0.707 Q0.875 0.825 1.267 0.491" stroke="hsl(120.0,100%,35%)" stroke-width="0.00879"></path>
<path d="M0.137 0.707 Q0.153 0.792 0.323 0.803" stroke="hsl(120.0,100%,35%)" stroke-width="0.00176"></path>
<path d="M0.137 0.707 Q0.814 0.750 1.047 0.429" stroke="hsl(120.0,100%,35%)" stroke-width="0.00176"></path>
<path d="M0.137 0.707 Q0.483 0.557 0.266 0.355" stroke="hsl(120.0,100%,35%)" stroke-width="0.00528"></path>
<path d="M0.137 0.707 Q0.895 1.021 1.674 0.720" stroke="hsl(120.0,100%,35%)" stroke-width="0.00528"></path>
<path d="M0.137 0.707 Q0.316 0.901 0.735 0.856" stroke="hsl(120.0,100%,35%)" stroke-width="0.00176"></path>
<path d="M0.466 0.311 Q0.639 0.355 0.763 0.280" stroke="hsl(0.0,100%,35%)" stroke-width="0.00176"></path>
<path d="M0.466 0.311 Q0.330 0.293 0.266 0.355" stroke="hsl(0.0,100%,35%)" stroke-width="0.01407"></path>
<path d="M0.466 0.311 Q0.164 0.637 0.735 0.856" stroke="hsl(0.0,100%,35%)" stroke-width="0.00352"></path>
<path d="M1.041 0.903 Q0.925 0.819 0.735 0.856" stroke="hsl(0.0,100%,35%)" stroke-width="0.00879"></path>
<path d="M1.041 0.903 Q1.484 0.742 1.267 0.491" stroke="hsl(0.0,100%,35%)" stroke-width="0.00176"></path>
<path d="M1.041 0.903 Q1.092 0.474 0.266 0.355" stroke="hsl(0.0,100%,35%)" stroke-width="0.00176"></path>
<path d="M1.041 0.903 Q0.788 0.784 0.500 0.881" stroke="hsl(0.0,100%,35%)" stroke-width="0.00176"></path>
<path d="M1.041 0.903 Q1.327 0.429 0.464 0.185" stroke="hsl(0.0,100%,35%)" stroke-width="0.00176"></path>
<path d="M1.041 0.903 Q1.228 0.492 0.466 0.311" stroke="hsl(0.0,100%,35%)" stroke-width="0.00704"></path>
<path d="M0.323 0.803 Q0.486 0.912 0.735 0.856" stroke="hsl(0.0,100%,35%)" stroke-width="0.00528"></path>
<path d="M0.323 0.803 Q0.759 0.851 0.949 0.649" stroke="hsl(0.0,100%,35%)" stroke-width="0.00176"></path>
<path d="M0.323 0.803 Q0.571 0.682 0.389 0.534" stroke="hsl(0.0,100%,35%)" stroke-width="0.00176"></path>
<path d="M0.323 0.803 Q1.045 0.836 1.267 0.491" stroke="hsl(0.0,100%,35%)" stroke-width="0.00352"></path>
<path d="M0.323 0.803 Q0.349 0.878 0.500 0.881" stroke="hsl(0.0,100%,35%)" stroke-width="0.00352"></path>
<path d="M0.323 0.803 Q0.789 0.585 0.466 0.311" stroke="hsl(0.0,100%,35%)" stroke-width="0.00352"></path>
<path d="M0.323 0.803 Q1.172 0.617 0.994 0.162" stroke="hsl(0.0,100%,35%)" stroke-width="0.00352"></path>
<path d="M0.323 0.803 Q0.947 1.099 1.661 0.860" stroke="hsl(0.0,100%,35%)" stroke-width="0.00176"></path>
<path d="M0.266 0.355 Q0.501 0.310 0.464 0.185" stroke="hsl(0.0,100%,35%)" stroke-width="0.00879"></path>
<path d="M0.266 0.355 Q0.269 0.707 0.957 0.783" stroke="hsl(0.0,100%,35%)" stroke-width="0.00352"></path>
<path d="M0.266 0.355 Q0.560 0.887 1.661 0.860" stroke="hsl(0.0,100%,35%)" stroke-width="0.00352"></path>
<path d="M0.266 0.355 Q0.099 0.700 0.735 0.856" stroke="hsl(0.0,100%,35%)" stroke-width="0.00176"></path>
<path d="M0.266 0.355 Q-0.038 0.665 0.500 0.881" stroke="hsl(0.0,100%,35%)" stroke-width="0.00528"></path>
<path d="M0.266 0.355 Q0.401 0.373 0.466 0.311" stroke="hsl(0.0,100%,35%)" stroke-width="0.00352"></path>
<path d="M0.266 0.355 Q0.575 0.417 0.763 0.280" stroke="hsl(0.0,100%,35%)" stroke-width="0.00176"></path>
<path d="M0.266 0.355 Q0.876 0.479 1.252 0.208" stroke="hsl(0.0,100%,35%)" stroke-width="0.00176"></path>
<path d="M0.266 0.355 Q0.215 0.784 1.041 0.903" stroke="hsl(0.0,100%,35%)" stroke-width="0.00176"></path>
<path d="M0.266 0.355 Q0.597 0.548 1.047 0.429" stroke="hsl(0.0,100%,35%)" stroke-width="0.00176"></path>
<path d="M0.266 0.355 Q1.201 0.498 1.686 0.073" stroke="hsl(0.0,100%,35%)" stroke-width="0.00176"></path>
<path d="M0.531 0.733 Q0.619 0.605 0.389 0.534" stroke="hsl(120.0,100%,35%)" stroke-width="0.01935"></path>
<path d="M0.531 0.733 Q0.355 0.641 0.137 0.707" stroke="hsl(120.0,100%,35%)" stroke-width="0.00176"></path>
<path d="M0.531 0.733 Q0.437 0.577 0.113 0.589" stroke="hsl(120.0,100%,35%)" stroke-width="0.00176"></path>
<path d="M0.128 0.490 Q0.223 0.564 0.389 0.534" stroke="hsl(120.0,100%,35%)" stroke-width="0.02111"></path>
<path d="M0.128 0.490 Q0.697 0.718 1.267 0.491" stroke="hsl(120.0,100%,35%)" stroke-width="0.00352"></path>
<path d="M0.128 0.490 Q0.852 0.931 1.872 0.674" stroke="hsl(120.0,100%,35%)" stroke-width="0.00176"></path>
<path d="M0.128 0.490 Q1.161 0.666 1.733 0.201" stroke="hsl(120.0,100%,35%)" stroke-width="0.00176"></path>
<path d="M0.128 0.490 Q0.440 0.468 0.466 0.311" stroke="hsl(120.0,100%,35%)" stroke-width="0.00176"></path>
<path d="M1.872 0.674 Q1.737 0.658 1.674 0.720" stroke="hsl(120.0,100%,35%)" stroke-width="0.00528"></path>
<path d="M1.872 0.674 Q1.686 0.566 1.434 0.633" stroke="hsl(120.0,100%,35%)" stroke-width="0.00176"></path>
<path d="M1.872 0.674 Q1.516 0.675 1.439 0.848" stroke="hsl(120.0,100%,35%)" stroke-width="0.00352"></path>
<path d="M1.733 0.201 Q0.612 0.071 0.113 0.589" stroke="hsl(120.0,100%,35%)" stroke-width="0.00352"></path>
<path d="M1.733 0.201 Q1.207 0.178 1.047 0.429" stroke="hsl(120.0,100%,35%)" stroke-width="0.00176"></path>
<path d="M1.733 0.201 Q1.607 0.188 1.553 0.246" stroke="hsl(120.0,100%,35%)" stroke-width="0.00352"></path>
<path d="M1.733 0.201 Q1.812 0.128 1.686 0.073" stroke="hsl(120.0,100%,35%)" stroke-width="0.00176"></path>
<path d="M1.733 0.201 Q1.395 0.034 0.994 0.162" stroke="hsl(120.0,100%,35%)" stroke-width="0.00176"></path>
<path d="M1.733 0.201 Q0.794 0.099 0.389 0.534" stroke="hsl(120.0,100%,35%)" stroke-width="0.00176"></path>
<path d="M1.686 0.073 Q0.669 0.044 0.389 0.534" stroke="hsl(120.0,100%,35%)" stroke-width="0.00176"></path>
<path d="M1.686 0.073 Q1.607 0.146 1.733 0.201" stroke="hsl(120.0,100%,35%)" stroke-width="0.00704"></path>
<path d="M1.686 0.073 Q1.163 0.394 1.674 0.720" stroke="hsl(120.0,100%,35%)" stroke-width="0.00352"></path>
<path d="M1.686 0.073 Q1.142 0.198 1.267 0.491" stroke="hsl(120.0,100%,35%)" stroke-width="0.00352"></path>
<path d="M1.686 0.073 Q1.269 -0.021 0.994 0.162" stroke="hsl(120.0,100%,35%)" stroke-width="0.00176"></path>
<path d="M1.686 0.073 Q1.007 0.188 1.082 0.544" stroke="hsl(120.0,100%,35%)" stroke-width="0.00176"></path>
<path d="M1.538 0.916 Q2.286 0.524 1.686 0.073" stroke="hsl(120.0,100%,35%)" stroke-width="0.00176"></path>
<path d="M1.538 0.916 Q1.565 0.838 1.419 0.808" stroke="hsl(120.0,100%,35%)" stroke-width="0.00176"></path>
<path d="M1.538 0.916 Q1.184 0.726 0.735 0.856" stroke="hsl(120.0,100%,35%)" stroke-width="0.00176"></path>
<path d="M1.538 0.916 Q1.457 0.665 0.949 0.649" stroke="hsl(120.0,100%,35%)" stroke-width="0.00176"></path>
<path d="M1.538 0.916 Q2.081 0.584 1.553 0.246" stroke="hsl(120.0,100%,35%)" stroke-width="0.00176"></path>
<path d="M0.517 0.630 Q0.530 0.556 0.389 0.534" stroke="hsl(120.0,100%,35%)" stroke-width="0.01759"></path>
<path d="M0.517 0.630 Q0.943 0.635 1.047 0.429" stroke="hsl(120.0,100%,35%)" stroke-width="0.00176"></path>
<path d="M0.517 0.630 Q0.434 0.482 0.128 0.490" stroke="hsl(120.0,100%,35%)" stroke-width="0.00176"></path>
<path d="M1.287 0.848 Q1.089 0.511 0.389 0.534" stroke="hsl(0.0,100%,35%)" stroke-width="0.00176"></path>
<path d="M1.287 0.848 Q1.265 0.773 1.113 0.767" stroke="hsl(0.0,100%,35%)" stroke-width="0.00176"></path>
<path d="M1.287 0.848 Q1.120 0.826 1.041 0.903" stroke="hsl(0.0,100%,35%)" stroke-width="0.00176"></path>
<path d="M1.113 0.767 Q0.968 0.821 1.041 0.903" stroke="hsl(0.0,100%,35%)" stroke-width="0.01055"></path>
<path d="M1.113 0.767 Q1.304 0.741 1.296 0.643" stroke="hsl(0.0,100%,35%)" stroke-width="0.00352"></path>
<path d="M1.113 0.767 Q1.155 0.409 0.466 0.311" stroke="hsl(0.0,100%,35%)" stroke-width="0.00176"></path>
<path d="M1.113 0.767 Q1.566 0.872 1.872 0.674" stroke="hsl(0.0,100%,35%)" stroke-width="0.00176"></path>
<path d="M1.082 0.544 Q1.217 0.555 1.267 0.491" stroke="hsl(120.0,100%,35%)" stroke-width="0.00352"></path>
<path d="M1.082 0.544 Q1.344 0.335 0.994 0.162" stroke="hsl(120.0,100%,35%)" stroke-width="0.00176"></path>
<path d="M1.082 0.544 Q1.237 0.750 1.674 0.720" stroke="hsl(120.0,100%,35%)" stroke-width="0.00352"></path>
<path d="M1.271 0.318 Q1.151 0.600 1.674 0.720" stroke="hsl(0.0,100%,35%)" stroke-width="0.00176"></path>
<path d="M1.271 0.318 Q1.349 0.259 1.252 0.208" stroke="hsl(0.0,100%,35%)" stroke-width="0.00352"></path>
<path d="M1.271 0.318 Q1.177 0.265 1.053 0.299" stroke="hsl(0.0,100%,35%)" stroke-width="0.00879"></path>
<path d="M1.271 0.318 Q1.470 0.339 1.553 0.246" stroke="hsl(0.0,100%,35%)" stroke-width="0.00176"></path>
<path d="M1.252 0.208 Q1.160 0.134 0.994 0.162" stroke="hsl(0.0,100%,35%)" stroke-width="0.00176"></path>
<path d="M1.252 0.208 Q0.590 0.514 1.041 0.903" stroke="hsl(0.0,100%,35%)" stroke-width="0.00176"></path>
<path d="M1.252 0.208 Q1.173 0.267 1.271 0.318" stroke="hsl(0.0,100%,35%)" stroke-width="0.00879"></path>
<path d="M1.252 0.208 Q1.054 0.548 1.674 0.720" stroke="hsl(0.0,100%,35%)" stroke-width="0.00879"></path>
<path d="M1.252 0.208 Q1.498 0.301 1.733 0.201" stroke="hsl(0.0,100%,35%)" stroke-width="0.00176"></path>
<path d="M1.252 0.208 Q0.777 0.102 0.466 0.311" stroke="hsl(0.0,100%,35%)" stroke-width="0.00352"></path>
<path d="M1.252 0.208 Q0.475 0.429 0.735 0.856" stroke="hsl(0.0,100%,35%)" stroke-width="0.00176"></path>
<path d="M1.252 0.208 Q0.472 0.326 0.531 0.733" stroke="hsl(0.0,100%,35%)" stroke-width="0.00176"></path>
<path d="M0.353 0.664 Q0.293 0.579 0.113 0.589" stroke="hsl(120.0,100%,35%)" stroke-width="0.00176"></path>
<path d="M0.353 0.664 Q0.475 0.606 0.389 0.534" stroke="hsl(120.0,100%,35%)" stroke-width="0.00352"></path>
<path d="M0.353 0.664 Q0.387 0.734 0.531 0.733" stroke="hsl(120.0,100%,35%)" stroke-width="0.00176"></path>
<path d="M1.511 0.391 Q1.211 0.656 1.661 0.860" stroke="hsl(0.0,100%,35%)" stroke-width="0.00528"></path>
<path d="M1.511 0.391 Q1.249 0.317 1.047 0.429" stroke="hsl(0.0,100%,35%)" stroke-width="0.00352"></path>
<path d="M1.511 0.391 Q0.751 0.469 0.735 0.856" stroke="hsl(0.0,100%,35%)" stroke-width="0.00176"></path>
<path d="M1.511 0.391 Q1.648 0.327 1.553 0.246" stroke="hsl(0.0,100%,35%)" stroke-width="0.00176"></path>
<path d="M1.511 0.391 Q1.620 0.246 1.360 0.162" stroke="hsl(0.0,100%,35%)" stroke-width="0.00352"></path>
<path d="M1.511 0.391 Q0.748 0.366 0.531 0.733" stroke="hsl(0.0,100%,35%)" stroke-width="0.00352"></path>
<path d="M1.511 0.391 Q0.836 0.238 0.389 0.534" stroke="hsl(0.0,100%,35%)" stroke-width="0.00352"></path>
<path d="M1.511 0.391 Q1.853 0.267 1.686 0.073" stroke="hsl(0.0,100%,35%)" stroke-width="0.00176"></path>
<path d="M1.511 0.391 Q0.867 0.553 1.041 0.903" stroke="hsl(0.0,100%,35%)" stroke-width="0.00176"></path>
<path d="M1.511 0.391 Q1.153 0.079 0.464 0.185" stroke="hsl(0.0,100%,35%)" stroke-width="0.00352"></path>
<path d="M1.511 0.391 Q0.614 0.434 0.500 0.881" stroke="hsl(0.0,100%,35%)" stroke-width="0.00176"></path>
<path d="M1.511 0.391 Q1.330 0.588 1.674 0.720" stroke="hsl(0.0,100%,35%)" stroke-width="0.00176"></path>
<path d="M1.511 0.391 Q0.917 0.124 0.266 0.355" stroke="hsl(0.0,100%,35%)" stroke-width="0.00176"></path>
<path d="M1.511 0.391 Q1.436 0.173 0.994 0.162" stroke="hsl(0.0,100%,35%)" stroke-width="0.00352"></path>
<path d="M1.087 0.093 Q1.402 0.202 1.686 0.073" stroke="hsl(0.0,100%,35%)" stroke-width="0.00176"></path>
<path d="M1.087 0.093 Q0.466 0.059 0.266 0.355" stroke="hsl(0.0,100%,35%)" stroke-width="0.00528"></path>
<path d="M1.087 0.093 Q0.985 0.109 0.994 0.162" stroke="hsl(0.0,100%,35%)" stroke-width="0.00352"></path>
<path d="M0.946 0.806 Q0.800 0.789 0.735 0.856" stroke="hsl(0.0,100%,35%)" stroke-width="0.00352"></path>
<path d="M0.946 0.806 Q1.486 0.494 0.994 0.162" stroke="hsl(0.0,100%,35%)" stroke-width="0.00176"></path>
<path d="M0.946 0.806 Q0.967 0.445 0.266 0.355" stroke="hsl(0.0,100%,35%)" stroke-width="0.00176"></path>
<path d="M1.943 0.707 Q1.778 0.464 1.267 0.491" stroke="hsl(120.0,100%,35%)" stroke-width="0.00176"></path>
<path d="M1.943 0.707 Q1.933 0.676 1.872 0.674" stroke="hsl(120.0,100%,35%)" stroke-width="0.00176"></path>
<path d="M1.943 0.707 Q1.695 0.257 0.763 0.280" stroke="hsl(120.0,100%,35%)" stroke-width="0.00176"></path>
<path d="M1.943 0.707 Q1.573 0.730 1.538 0.916" stroke="hsl(120.0,100%,35%)" stroke-width="0.00176"></path>
<path d="M1.842 0.477 Q1.718 0.519 1.774 0.589" stroke="hsl(240.0,100%,35%)" stroke-width="0.03166"></path>
<path d="M1.842 0.477 Q1.445 0.632 1.661 0.860" stroke="hsl(240.0,100%,35%)" stroke-width="0.00176"></path>
<path d="M1.842 0.477 Q1.287 0.119 0.466 0.311" stroke="hsl(240.0,100%,35%)" stroke-width="0.00176"></path>
<path d="M1.842 0.477 Q1.882 0.304 1.553 0.246" stroke="hsl(240.0,100%,35%)" stroke-width="0.00176"></path>
</g>
<text x="1.661" y="0.844" font-size="0.032163" fill="hsl(0.0,100%,20%)">ahaas</text>
<text x="1.553" y="0.232" font-size="0.028939" fill="hsl(120.0,100%,20%)">victorgomes</text>
<text x="0.994" y="0.142" font-size="0.040319" fill="hsl(0.0,100%,20%)">nicohartmann</text>
<text x="1.267" y="0.469" font-size="0.044390" fill="hsl(120.0,100%,20%)">ishell</text>
<text x="1.867" y="0.807" font-size="0.018570" fill="hsl(0.0,100%,20%)">marja</text>
<text x="0.500" y="0.864" font-size="0.033660" fill="hsl(0.0,100%,20%)">dlehmann</text>
<text x="0.389" y="0.504" font-size="0.059555" fill="hsl(120.0,100%,20%)">mlippautz</text>
<text x="0.949" y="0.634" font-size="0.030593" fill="hsl(0.0,100%,20%)">machenbach</text>
<text x="0.837" y="0.986" font-size="0.015694" fill="hsl(120.0,100%,20%)">bmeurer</text>
<text x="0.736" y="0.968" font-size="0.012157" fill="hsl(240.0,100%,20%)">szuend</text>
<text x="1.674" y="0.699" font-size="0.041523" fill="hsl(120.0,100%,20%)">leszeks</text>
<text x="0.735" y="0.830" font-size="0.052523" fill="hsl(0.0,100%,20%)">clemensb</text>
<text x="0.137" y="0.689" font-size="0.036470" fill="hsl(120.0,100%,20%)">saelo</text>
<text x="0.466" y="0.290" font-size="0.040925" fill="hsl(0.0,100%,20%)">jkummerow</text>
<text x="0.957" y="0.773" font-size="0.019852" fill="hsl(0.0,100%,20%)">evih</text>
<text x="0.729" y="0.685" font-size="0.012157" fill="hsl(0.0,100%,20%)">nikolaos</text>
<text x="1.439" y="0.842" font-size="0.012157" fill="hsl(120.0,100%,20%)">rezvan</text>
<text x="1.041" y="0.885" font-size="0.035788" fill="hsl(0.0,100%,20%)">thibaudm</text>
<text x="0.323" y="0.789" font-size="0.028074" fill="hsl(0.0,100%,20%)">sroettger</text>
<text x="0.266" y="0.329" font-size="0.051576" fill="hsl(0.0,100%,20%)">mliedtke</text>
<text x="0.531" y="0.716" font-size="0.032163" fill="hsl(120.0,100%,20%)">omerkatz</text>
<text x="0.128" y="0.474" font-size="0.031388" fill="hsl(120.0,100%,20%)">dinfuehr</text>
<text x="1.872" y="0.663" font-size="0.022195" fill="hsl(120.0,100%,20%)">syg</text>
<text x="1.733" y="0.182" font-size="0.038443" fill="hsl(120.0,100%,20%)">pthier</text>
<text x="1.686" y="0.057" font-size="0.032163" fill="hsl(120.0,100%,20%)">jgruber</text>
<text x="1.538" y="0.908" font-size="0.017192" fill="hsl(120.0,100%,20%)">erikcorry</text>
<text x="1.419" y="0.804" font-size="0.007019" fill="hsl(120.0,100%,20%)">wingo</text>
<text x="0.517" y="0.618" font-size="0.024313" fill="hsl(120.0,100%,20%)">etiennep</text>
<text x="1.047" y="0.420" font-size="0.018570" fill="hsl(120.0,100%,20%)">cbruni</text>
<text x="1.287" y="0.842" font-size="0.012157" fill="hsl(0.0,100%,20%)">fgm</text>
<text x="1.113" y="0.755" font-size="0.023278" fill="hsl(0.0,100%,20%)">irezvov</text>
<text x="1.296" y="0.638" font-size="0.009926" fill="hsl(0.0,100%,20%)">gdeepti</text>
<text x="1.082" y="0.533" font-size="0.022195" fill="hsl(120.0,100%,20%)">verwaest</text>
<text x="1.169" y="0.613" font-size="0.009926" fill="hsl(120.0,100%,20%)">olivf</text>
<text x="0.763" y="0.274" font-size="0.012157" fill="hsl(0.0,100%,20%)">adamk</text>
<text x="1.271" y="0.305" font-size="0.026261" fill="hsl(0.0,100%,20%)">junyan</text>
<text x="1.252" y="0.193" font-size="0.031388" fill="hsl(0.0,100%,20%)">mfarazma</text>
<text x="1.053" y="0.291" font-size="0.015694" fill="hsl(0.0,100%,20%)">midawson</text>
<text x="0.113" y="0.576" font-size="0.027183" fill="hsl(120.0,100%,20%)">bikineev</text>
<text x="0.353" y="0.657" font-size="0.014037" fill="hsl(120.0,100%,20%)">lizeb</text>
<text x="0.901" y="0.551" font-size="0.015694" fill="hsl(0.0,100%,20%)">alexschulze</text>
<text x="1.384" y="0.732" font-size="0.009926" fill="hsl(0.0,100%,20%)">cffsmith</text>
<text x="0.464" y="0.175" font-size="0.019852" fill="hsl(0.0,100%,20%)">manoskouk</text>
<text x="1.511" y="0.375" font-size="0.032920" fill="hsl(0.0,100%,20%)">pkasting</text>
<text x="1.360" y="0.157" font-size="0.009926" fill="hsl(0.0,100%,20%)">hpayer</text>
<text x="1.087" y="0.084" font-size="0.017192" fill="hsl(0.0,100%,20%)">sam.parker</text>
<text x="1.434" y="0.630" font-size="0.007019" fill="hsl(120.0,100%,20%)">lpardosixtos</text>
<text x="0.946" y="0.799" font-size="0.014037" fill="hsl(0.0,100%,20%)">tannal2409</text>
<text x="1.943" y="0.700" font-size="0.014037" fill="hsl(120.0,100%,20%)">yagiz</text>
<text x="1.842" y="0.461" font-size="0.032163" fill="hsl(240.0,100%,20%)">yahan</text>
<text x="1.774" y="0.574" font-size="0.029778" fill="hsl(240.0,100%,20%)">qiuji</text>
</svg>
