<svg width="4000" height="2000" viewBox="-0.025 -0.025 2.05 1.05" xmlns="http://www.w3.org/2000/svg">
  <style>
    path {
      fill: none;
      stroke-linecap: round;
      stroke-opacity: 0.4;
    }

    text {
      text-anchor: middle;
      alignment-baseline: hanging;
    }
  </style>
  <g opacity="0.4">
<path d="M1.724 0.470 Q1.451 0.094 0.658 0.145" stroke="hsl(0.0,100%,35%)" stroke-width="0.00145"></path>
<path d="M1.724 0.470 Q1.166 0.525 1.152 0.810" stroke="hsl(0.0,100%,35%)" stroke-width="0.00145"></path>
<path d="M1.724 0.470 Q1.686 0.501 1.739 0.526" stroke="hsl(0.0,100%,35%)" stroke-width="0.00289"></path>
<path d="M0.658 0.145 Q0.051 0.371 0.359 0.717" stroke="hsl(0.0,100%,35%)" stroke-width="0.00867"></path>
<path d="M0.658 0.145 Q0.488 0.242 0.641 0.347" stroke="hsl(0.0,100%,35%)" stroke-width="0.02024"></path>
<path d="M0.658 0.145 Q0.331 0.467 0.888 0.697" stroke="hsl(0.0,100%,35%)" stroke-width="0.00145"></path>
<path d="M0.658 0.145 Q0.206 0.408 0.620 0.686" stroke="hsl(0.0,100%,35%)" stroke-width="0.00434"></path>
<path d="M0.658 0.145 Q1.011 0.580 1.939 0.504" stroke="hsl(0.0,100%,35%)" stroke-width="0.00145"></path>
<path d="M0.658 0.145 Q0.581 0.053 0.386 0.070" stroke="hsl(0.0,100%,35%)" stroke-width="0.00145"></path>
<path d="M0.658 0.145 Q0.494 0.514 1.178 0.675" stroke="hsl(0.0,100%,35%)" stroke-width="0.00145"></path>
<path d="M1.152 0.810 Q0.940 0.846 0.963 0.957" stroke="hsl(0.0,100%,35%)" stroke-width="0.00145"></path>
<path d="M1.152 0.810 Q0.830 0.605 0.359 0.717" stroke="hsl(0.0,100%,35%)" stroke-width="0.00145"></path>
<path d="M1.152 0.810 Q1.672 0.785 1.739 0.526" stroke="hsl(0.0,100%,35%)" stroke-width="0.00145"></path>
<path d="M0.270 0.302 Q0.229 0.254 0.125 0.263" stroke="hsl(0.0,100%,35%)" stroke-width="0.00145"></path>
<path d="M0.270 0.302 Q0.263 0.623 0.888 0.697" stroke="hsl(0.0,100%,35%)" stroke-width="0.00145"></path>
<path d="M0.270 0.302 Q0.825 0.708 1.739 0.526" stroke="hsl(0.0,100%,35%)" stroke-width="0.00145"></path>
<path d="M0.888 0.697 Q0.763 0.638 0.620 0.686" stroke="hsl(240.0,100%,35%)" stroke-width="0.00578"></path>
<path d="M0.888 0.697 Q1.333 0.597 1.235 0.357" stroke="hsl(240.0,100%,35%)" stroke-width="0.00145"></path>
<path d="M0.888 0.697 Q1.215 0.375 0.658 0.145" stroke="hsl(240.0,100%,35%)" stroke-width="0.00578"></path>
<path d="M0.888 0.697 Q0.591 0.508 0.157 0.611" stroke="hsl(240.0,100%,35%)" stroke-width="0.00145"></path>
<path d="M0.888 0.697 Q0.679 0.690 0.619 0.791" stroke="hsl(240.0,100%,35%)" stroke-width="0.00289"></path>
<path d="M0.491 0.224 Q0.474 0.587 1.178 0.675" stroke="hsl(0.0,100%,35%)" stroke-width="0.00145"></path>
<path d="M0.491 0.224 Q0.638 0.218 0.658 0.145" stroke="hsl(0.0,100%,35%)" stroke-width="0.00145"></path>
<path d="M0.491 0.224 Q0.468 0.315 0.641 0.347" stroke="hsl(0.0,100%,35%)" stroke-width="0.00145"></path>
<path d="M1.178 0.675 Q1.695 0.741 1.939 0.504" stroke="hsl(120.0,100%,35%)" stroke-width="0.00145"></path>
<path d="M1.178 0.675 Q1.812 0.666 1.934 0.355" stroke="hsl(120.0,100%,35%)" stroke-width="0.00145"></path>
<path d="M1.178 0.675 Q1.340 0.598 1.225 0.502" stroke="hsl(120.0,100%,35%)" stroke-width="0.00289"></path>
<path d="M1.178 0.675 Q1.172 0.403 0.641 0.347" stroke="hsl(120.0,100%,35%)" stroke-width="0.00289"></path>
<path d="M1.178 0.675 Q1.401 0.635 1.373 0.517" stroke="hsl(120.0,100%,35%)" stroke-width="0.00145"></path>
<path d="M1.178 0.675 Q1.206 0.584 1.034 0.550" stroke="hsl(120.0,100%,35%)" stroke-width="0.00434"></path>
<path d="M1.178 0.675 Q0.710 0.675 0.607 0.903" stroke="hsl(120.0,100%,35%)" stroke-width="0.00145"></path>
<path d="M1.178 0.675 Q1.253 0.487 0.903 0.409" stroke="hsl(120.0,100%,35%)" stroke-width="0.00145"></path>
<path d="M1.178 0.675 Q1.176 0.756 1.334 0.774" stroke="hsl(120.0,100%,35%)" stroke-width="0.03758"></path>
<path d="M1.178 0.675 Q0.806 0.621 0.619 0.791" stroke="hsl(120.0,100%,35%)" stroke-width="0.00145"></path>
<path d="M1.178 0.675 Q0.735 0.532 0.359 0.717" stroke="hsl(120.0,100%,35%)" stroke-width="0.01446"></path>
<path d="M1.178 0.675 Q1.368 0.684 1.429 0.594" stroke="hsl(120.0,100%,35%)" stroke-width="0.02168"></path>
<path d="M1.178 0.675 Q1.057 0.737 1.152 0.810" stroke="hsl(120.0,100%,35%)" stroke-width="0.00434"></path>
<path d="M1.178 0.675 Q1.460 0.528 1.235 0.357" stroke="hsl(120.0,100%,35%)" stroke-width="0.00145"></path>
<path d="M1.178 0.675 Q0.708 0.622 0.501 0.839" stroke="hsl(120.0,100%,35%)" stroke-width="0.00145"></path>
<path d="M1.178 0.675 Q1.342 0.306 0.658 0.145" stroke="hsl(120.0,100%,35%)" stroke-width="0.00434"></path>
<path d="M1.178 0.675 Q1.349 0.569 1.181 0.462" stroke="hsl(120.0,100%,35%)" stroke-width="0.00145"></path>
<path d="M1.178 0.675 Q1.302 0.546 1.078 0.457" stroke="hsl(120.0,100%,35%)" stroke-width="0.00145"></path>
<path d="M1.178 0.675 Q1.663 0.573 1.571 0.314" stroke="hsl(120.0,100%,35%)" stroke-width="0.00289"></path>
<path d="M0.641 0.347 Q0.811 0.249 0.658 0.145" stroke="hsl(0.0,100%,35%)" stroke-width="0.01446"></path>
<path d="M0.641 0.347 Q0.204 0.475 0.359 0.717" stroke="hsl(0.0,100%,35%)" stroke-width="0.00434"></path>
<path d="M0.641 0.347 Q1.164 0.685 1.939 0.504" stroke="hsl(0.0,100%,35%)" stroke-width="0.00145"></path>
<path d="M0.641 0.347 Q0.647 0.618 1.178 0.675" stroke="hsl(0.0,100%,35%)" stroke-width="0.00145"></path>
<path d="M0.264 0.403 Q0.188 0.353 0.073 0.379" stroke="hsl(120.0,100%,35%)" stroke-width="0.00145"></path>
<path d="M0.264 0.403 Q0.667 0.353 0.658 0.145" stroke="hsl(120.0,100%,35%)" stroke-width="0.00145"></path>
<path d="M0.264 0.403 Q0.383 0.784 1.152 0.810" stroke="hsl(120.0,100%,35%)" stroke-width="0.00145"></path>
<path d="M1.939 0.504 Q2.056 0.428 1.934 0.355" stroke="hsl(0.0,100%,35%)" stroke-width="0.00434"></path>
<path d="M1.939 0.504 Q0.979 0.294 0.359 0.717" stroke="hsl(0.0,100%,35%)" stroke-width="0.00145"></path>
<path d="M1.939 0.504 Q1.828 0.529 1.854 0.589" stroke="hsl(0.0,100%,35%)" stroke-width="0.00289"></path>
<path d="M0.607 0.903 Q0.705 0.979 0.876 0.948" stroke="hsl(240.0,100%,35%)" stroke-width="0.00145"></path>
<path d="M0.607 0.903 Q1.560 0.801 1.571 0.314" stroke="hsl(240.0,100%,35%)" stroke-width="0.01301"></path>
<path d="M0.607 0.903 Q0.980 0.744 0.753 0.528" stroke="hsl(240.0,100%,35%)" stroke-width="0.00145"></path>
<path d="M0.607 0.903 Q0.702 0.849 0.619 0.791" stroke="hsl(240.0,100%,35%)" stroke-width="0.01301"></path>
<path d="M0.607 0.903 Q0.632 0.760 0.359 0.717" stroke="hsl(240.0,100%,35%)" stroke-width="0.00578"></path>
<path d="M0.607 0.903 Q1.075 0.903 1.178 0.675" stroke="hsl(240.0,100%,35%)" stroke-width="0.01012"></path>
<path d="M0.607 0.903 Q0.866 0.843 0.807 0.704" stroke="hsl(240.0,100%,35%)" stroke-width="0.00289"></path>
<path d="M0.607 0.903 Q0.785 0.898 0.814 0.810" stroke="hsl(240.0,100%,35%)" stroke-width="0.00145"></path>
<path d="M0.607 0.903 Q1.199 0.774 1.078 0.457" stroke="hsl(240.0,100%,35%)" stroke-width="0.00145"></path>
<path d="M0.903 0.409 Q0.989 0.520 1.225 0.502" stroke="hsl(0.0,100%,35%)" stroke-width="0.00434"></path>
<path d="M0.903 0.409 Q0.733 0.438 0.753 0.528" stroke="hsl(0.0,100%,35%)" stroke-width="0.01012"></path>
<path d="M0.903 0.409 Q0.385 0.454 0.359 0.717" stroke="hsl(0.0,100%,35%)" stroke-width="0.01301"></path>
<path d="M0.903 0.409 Q1.227 0.635 1.739 0.526" stroke="hsl(0.0,100%,35%)" stroke-width="0.00145"></path>
<path d="M0.903 0.409 Q0.360 0.596 0.607 0.903" stroke="hsl(0.0,100%,35%)" stroke-width="0.00145"></path>
<path d="M0.903 0.409 Q0.357 0.544 0.501 0.839" stroke="hsl(0.0,100%,35%)" stroke-width="0.00434"></path>
<path d="M0.903 0.409 Q0.991 0.228 0.658 0.145" stroke="hsl(0.0,100%,35%)" stroke-width="0.00578"></path>
<path d="M0.903 0.409 Q0.821 0.325 0.641 0.347" stroke="hsl(0.0,100%,35%)" stroke-width="0.00145"></path>
<path d="M1.334 0.774 Q1.631 0.758 1.664 0.609" stroke="hsl(120.0,100%,35%)" stroke-width="0.00723"></path>
<path d="M1.334 0.774 Q1.336 0.693 1.178 0.675" stroke="hsl(120.0,100%,35%)" stroke-width="0.00434"></path>
<path d="M1.334 0.774 Q1.241 0.535 0.753 0.528" stroke="hsl(120.0,100%,35%)" stroke-width="0.00145"></path>
<path d="M1.334 0.774 Q1.450 0.835 1.595 0.792" stroke="hsl(120.0,100%,35%)" stroke-width="0.00434"></path>
<path d="M1.334 0.774 Q0.893 0.550 0.359 0.717" stroke="hsl(120.0,100%,35%)" stroke-width="0.00145"></path>
<path d="M1.334 0.774 Q1.526 0.703 1.429 0.594" stroke="hsl(120.0,100%,35%)" stroke-width="0.00145"></path>
<path d="M0.619 0.791 Q0.991 0.845 1.178 0.675" stroke="hsl(240.0,100%,35%)" stroke-width="0.00145"></path>
<path d="M0.619 0.791 Q0.549 0.702 0.359 0.717" stroke="hsl(240.0,100%,35%)" stroke-width="0.00145"></path>
<path d="M0.619 0.791 Q1.477 0.743 1.571 0.314" stroke="hsl(240.0,100%,35%)" stroke-width="0.00289"></path>
<path d="M0.619 0.791 Q0.524 0.844 0.607 0.903" stroke="hsl(240.0,100%,35%)" stroke-width="0.00434"></path>
<path d="M0.359 0.717 Q0.877 0.671 0.903 0.409" stroke="hsl(0.0,100%,35%)" stroke-width="0.00434"></path>
<path d="M0.359 0.717 Q0.342 0.624 0.157 0.611" stroke="hsl(0.0,100%,35%)" stroke-width="0.00723"></path>
<path d="M0.359 0.717 Q0.964 0.782 1.225 0.502" stroke="hsl(0.0,100%,35%)" stroke-width="0.00145"></path>
<path d="M0.359 0.717 Q0.966 0.490 0.658 0.145" stroke="hsl(0.0,100%,35%)" stroke-width="0.01301"></path>
<path d="M0.359 0.717 Q0.571 0.617 0.424 0.492" stroke="hsl(0.0,100%,35%)" stroke-width="0.00289"></path>
<path d="M0.359 0.717 Q0.796 0.588 0.641 0.347" stroke="hsl(0.0,100%,35%)" stroke-width="0.00145"></path>
<path d="M0.359 0.717 Q0.332 0.806 0.501 0.839" stroke="hsl(0.0,100%,35%)" stroke-width="0.01012"></path>
<path d="M0.359 0.717 Q0.430 0.806 0.619 0.791" stroke="hsl(0.0,100%,35%)" stroke-width="0.00145"></path>
<path d="M0.359 0.717 Q0.514 0.754 0.620 0.686" stroke="hsl(0.0,100%,35%)" stroke-width="0.00145"></path>
<path d="M0.359 0.717 Q1.287 0.757 1.571 0.314" stroke="hsl(0.0,100%,35%)" stroke-width="0.00145"></path>
<path d="M0.359 0.717 Q0.707 0.701 0.753 0.528" stroke="hsl(0.0,100%,35%)" stroke-width="0.00145"></path>
<path d="M0.359 0.717 Q0.926 0.731 1.078 0.457" stroke="hsl(0.0,100%,35%)" stroke-width="0.00145"></path>
<path d="M0.359 0.717 Q0.335 0.859 0.607 0.903" stroke="hsl(0.0,100%,35%)" stroke-width="0.00145"></path>
<path d="M0.359 0.717 Q0.917 1.001 1.595 0.792" stroke="hsl(0.0,100%,35%)" stroke-width="0.00145"></path>
<path d="M1.235 0.357 Q0.981 0.414 1.034 0.550" stroke="hsl(0.0,100%,35%)" stroke-width="0.00145"></path>
<path d="M1.235 0.357 Q1.282 0.353 1.283 0.329" stroke="hsl(0.0,100%,35%)" stroke-width="0.00867"></path>
<path d="M1.235 0.357 Q1.117 0.136 0.658 0.145" stroke="hsl(0.0,100%,35%)" stroke-width="0.00289"></path>
<path d="M1.235 0.357 Q0.790 0.458 0.888 0.697" stroke="hsl(0.0,100%,35%)" stroke-width="0.00434"></path>
<path d="M1.235 0.357 Q0.946 0.233 0.641 0.347" stroke="hsl(0.0,100%,35%)" stroke-width="0.00145"></path>
<path d="M1.235 0.357 Q1.438 0.403 1.571 0.314" stroke="hsl(0.0,100%,35%)" stroke-width="0.00145"></path>
<path d="M1.571 0.314 Q0.618 0.415 0.607 0.903" stroke="hsl(240.0,100%,35%)" stroke-width="0.00145"></path>
<path d="M1.571 0.314 Q1.114 0.324 1.034 0.550" stroke="hsl(240.0,100%,35%)" stroke-width="0.00289"></path>
<path d="M1.571 0.314 Q1.751 0.287 1.739 0.194" stroke="hsl(240.0,100%,35%)" stroke-width="0.00289"></path>
<path d="M0.751 0.281 Q0.814 0.194 0.658 0.145" stroke="hsl(0.0,100%,35%)" stroke-width="0.02024"></path>
<path d="M0.751 0.281 Q0.207 0.421 0.359 0.717" stroke="hsl(0.0,100%,35%)" stroke-width="0.01590"></path>
<path d="M0.751 0.281 Q0.725 0.375 0.903 0.409" stroke="hsl(0.0,100%,35%)" stroke-width="0.00145"></path>
<path d="M0.751 0.281 Q0.529 0.626 1.152 0.810" stroke="hsl(0.0,100%,35%)" stroke-width="0.00145"></path>
<path d="M0.896 0.849 Q1.176 0.818 1.178 0.675" stroke="hsl(240.0,100%,35%)" stroke-width="0.00145"></path>
<path d="M0.896 0.849 Q1.393 0.528 0.877 0.215" stroke="hsl(240.0,100%,35%)" stroke-width="0.00145"></path>
<path d="M0.896 0.849 Q0.709 0.818 0.607 0.903" stroke="hsl(240.0,100%,35%)" stroke-width="0.00145"></path>
<path d="M0.877 0.215 Q0.824 0.136 0.658 0.145" stroke="hsl(0.0,100%,35%)" stroke-width="0.04048"></path>
<path d="M0.877 0.215 Q0.217 0.362 0.359 0.717" stroke="hsl(0.0,100%,35%)" stroke-width="0.01156"></path>
<path d="M0.877 0.215 Q0.565 0.347 0.753 0.528" stroke="hsl(0.0,100%,35%)" stroke-width="0.00145"></path>
<path d="M0.877 0.215 Q0.248 0.198 0.077 0.501" stroke="hsl(0.0,100%,35%)" stroke-width="0.00289"></path>
<path d="M0.877 0.215 Q0.287 0.451 0.619 0.791" stroke="hsl(0.0,100%,35%)" stroke-width="0.00289"></path>
<path d="M0.877 0.215 Q0.660 0.505 1.178 0.675" stroke="hsl(0.0,100%,35%)" stroke-width="0.01012"></path>
<path d="M0.877 0.215 Q0.192 0.505 0.607 0.903" stroke="hsl(0.0,100%,35%)" stroke-width="0.00434"></path>
<path d="M0.877 0.215 Q0.654 0.234 0.641 0.347" stroke="hsl(0.0,100%,35%)" stroke-width="0.00867"></path>
<path d="M0.877 0.215 Q0.371 0.399 0.620 0.686" stroke="hsl(0.0,100%,35%)" stroke-width="0.01012"></path>
<path d="M0.877 0.215 Q1.145 0.403 1.571 0.314" stroke="hsl(0.0,100%,35%)" stroke-width="0.00145"></path>
<path d="M0.877 0.215 Q1.112 0.248 1.228 0.141" stroke="hsl(0.0,100%,35%)" stroke-width="0.00723"></path>
<path d="M0.877 0.215 Q0.497 0.458 0.888 0.697" stroke="hsl(0.0,100%,35%)" stroke-width="0.00145"></path>
<path d="M0.516 0.573 Q0.841 0.568 0.903 0.409" stroke="hsl(0.0,100%,35%)" stroke-width="0.00289"></path>
<path d="M0.516 0.573 Q0.323 0.613 0.359 0.717" stroke="hsl(0.0,100%,35%)" stroke-width="0.00578"></path>
<path d="M0.516 0.573 Q0.295 0.703 0.501 0.839" stroke="hsl(0.0,100%,35%)" stroke-width="0.00145"></path>
<path d="M0.516 0.573 Q0.432 0.854 0.963 0.957" stroke="hsl(0.0,100%,35%)" stroke-width="0.00145"></path>
<path d="M1.419 0.974 Q1.166 0.723 0.619 0.791" stroke="hsl(240.0,100%,35%)" stroke-width="0.00867"></path>
<path d="M1.419 0.974 Q1.534 1.026 1.660 0.981" stroke="hsl(240.0,100%,35%)" stroke-width="0.00145"></path>
<path d="M1.419 0.974 Q1.340 0.920 1.216 0.946" stroke="hsl(240.0,100%,35%)" stroke-width="0.00578"></path>
<path d="M0.077 0.501 Q0.489 0.808 1.178 0.675" stroke="hsl(0.0,100%,35%)" stroke-width="0.00145"></path>
<path d="M0.077 0.501 Q0.117 0.754 0.619 0.791" stroke="hsl(0.0,100%,35%)" stroke-width="0.00145"></path>
<path d="M0.077 0.501 Q0.046 0.665 0.359 0.717" stroke="hsl(0.0,100%,35%)" stroke-width="0.00578"></path>
<path d="M0.077 0.501 Q0.394 0.650 0.753 0.528" stroke="hsl(0.0,100%,35%)" stroke-width="0.00145"></path>
<path d="M0.077 0.501 Q0.326 0.761 0.888 0.697" stroke="hsl(0.0,100%,35%)" stroke-width="0.00145"></path>
<path d="M0.077 0.501 Q1.006 0.875 1.939 0.504" stroke="hsl(0.0,100%,35%)" stroke-width="0.00145"></path>
<path d="M0.753 0.528 Q0.842 0.415 0.641 0.347" stroke="hsl(0.0,100%,35%)" stroke-width="0.00289"></path>
<path d="M0.753 0.528 Q0.405 0.543 0.359 0.717" stroke="hsl(0.0,100%,35%)" stroke-width="0.00434"></path>
<path d="M0.753 0.528 Q1.038 0.696 1.429 0.594" stroke="hsl(0.0,100%,35%)" stroke-width="0.00145"></path>
<path d="M0.753 0.528 Q1.130 0.539 1.235 0.357" stroke="hsl(0.0,100%,35%)" stroke-width="0.00289"></path>
<path d="M0.753 0.528 Q0.923 0.498 0.903 0.409" stroke="hsl(0.0,100%,35%)" stroke-width="0.00289"></path>
<path d="M0.753 0.528 Q0.727 0.749 1.152 0.810" stroke="hsl(0.0,100%,35%)" stroke-width="0.00289"></path>
<path d="M0.753 0.528 Q1.333 0.584 1.571 0.314" stroke="hsl(0.0,100%,35%)" stroke-width="0.00145"></path>
<path d="M0.753 0.528 Q0.972 0.557 1.078 0.457" stroke="hsl(0.0,100%,35%)" stroke-width="0.00145"></path>
<path d="M0.753 0.528 Q0.380 0.686 0.607 0.903" stroke="hsl(0.0,100%,35%)" stroke-width="0.00145"></path>
<path d="M0.753 0.528 Q0.388 0.450 0.157 0.611" stroke="hsl(0.0,100%,35%)" stroke-width="0.00145"></path>
<path d="M0.753 0.528 Q0.378 0.633 0.501 0.839" stroke="hsl(0.0,100%,35%)" stroke-width="0.00145"></path>
<path d="M0.620 0.686 Q0.536 0.738 0.619 0.791" stroke="hsl(240.0,100%,35%)" stroke-width="0.01590"></path>
<path d="M0.620 0.686 Q0.441 0.792 0.607 0.903" stroke="hsl(240.0,100%,35%)" stroke-width="0.00289"></path>
<path d="M0.620 0.686 Q0.465 0.649 0.359 0.717" stroke="hsl(240.0,100%,35%)" stroke-width="0.00145"></path>
<path d="M0.620 0.686 Q0.575 0.890 0.963 0.957" stroke="hsl(240.0,100%,35%)" stroke-width="0.00289"></path>
<path d="M0.620 0.686 Q0.746 0.745 0.888 0.697" stroke="hsl(240.0,100%,35%)" stroke-width="0.00145"></path>
<path d="M0.499 0.218 Q0.031 0.440 0.359 0.717" stroke="hsl(0.0,100%,35%)" stroke-width="0.00289"></path>
<path d="M0.499 0.218 Q0.637 0.213 0.658 0.145" stroke="hsl(0.0,100%,35%)" stroke-width="0.00434"></path>
<path d="M0.499 0.218 Q0.473 0.582 1.178 0.675" stroke="hsl(0.0,100%,35%)" stroke-width="0.00289"></path>
<path d="M0.282 0.258 Q0.561 0.277 0.658 0.145" stroke="hsl(0.0,100%,35%)" stroke-width="0.00578"></path>
<path d="M0.282 0.258 Q0.425 0.555 1.034 0.550" stroke="hsl(0.0,100%,35%)" stroke-width="0.00145"></path>
<path d="M0.282 0.258 Q0.882 0.544 1.571 0.314" stroke="hsl(0.0,100%,35%)" stroke-width="0.00145"></path>
<path d="M0.282 0.258 Q-0.071 0.646 0.607 0.903" stroke="hsl(0.0,100%,35%)" stroke-width="0.00145"></path>
<path d="M1.659 0.678 Q1.536 0.722 1.595 0.792" stroke="hsl(120.0,100%,35%)" stroke-width="0.00145"></path>
<path d="M1.659 0.678 Q1.420 0.661 1.334 0.774" stroke="hsl(120.0,100%,35%)" stroke-width="0.00145"></path>
<path d="M1.659 0.678 Q0.954 0.580 0.607 0.903" stroke="hsl(120.0,100%,35%)" stroke-width="0.00145"></path>
<path d="M1.096 0.819 Q1.253 0.764 1.178 0.675" stroke="hsl(120.0,100%,35%)" stroke-width="0.00434"></path>
<path d="M1.096 0.819 Q1.246 0.492 0.641 0.347" stroke="hsl(120.0,100%,35%)" stroke-width="0.00145"></path>
<path d="M1.096 0.819 Q1.443 0.773 1.429 0.594" stroke="hsl(120.0,100%,35%)" stroke-width="0.00289"></path>
<path d="M0.814 0.810 Q0.732 0.761 0.619 0.791" stroke="hsl(240.0,100%,35%)" stroke-width="0.00434"></path>
<path d="M0.814 0.810 Q0.693 0.508 0.077 0.501" stroke="hsl(240.0,100%,35%)" stroke-width="0.00145"></path>
<path d="M0.814 0.810 Q1.268 0.446 0.658 0.145" stroke="hsl(240.0,100%,35%)" stroke-width="0.00145"></path>
<path d="M0.814 0.810 Q0.637 0.815 0.607 0.903" stroke="hsl(240.0,100%,35%)" stroke-width="0.00145"></path>
<path d="M1.739 0.194 Q1.559 0.220 1.571 0.314" stroke="hsl(240.0,100%,35%)" stroke-width="0.03325"></path>
<path d="M1.739 0.194 Q1.073 0.322 1.178 0.675" stroke="hsl(240.0,100%,35%)" stroke-width="0.00145"></path>
<path d="M1.739 0.194 Q1.237 -0.047 0.658 0.145" stroke="hsl(240.0,100%,35%)" stroke-width="0.00289"></path>
<path d="M1.647 0.814 Q1.688 0.904 1.874 0.904" stroke="hsl(120.0,100%,35%)" stroke-width="0.00145"></path>
<path d="M1.647 0.814 Q1.688 0.282 0.658 0.145" stroke="hsl(120.0,100%,35%)" stroke-width="0.00145"></path>
<path d="M1.647 0.814 Q1.522 0.732 1.334 0.774" stroke="hsl(120.0,100%,35%)" stroke-width="0.00434"></path>
<path d="M1.647 0.814 Q1.790 0.771 1.737 0.691" stroke="hsl(120.0,100%,35%)" stroke-width="0.00145"></path>
<path d="M1.647 0.814 Q1.639 0.792 1.595 0.792" stroke="hsl(120.0,100%,35%)" stroke-width="0.00145"></path>
<path d="M0.250 0.807 Q0.350 0.873 0.501 0.839" stroke="hsl(0.0,100%,35%)" stroke-width="0.00145"></path>
<path d="M0.250 0.807 Q0.895 0.739 0.903 0.409" stroke="hsl(0.0,100%,35%)" stroke-width="0.00145"></path>
<path d="M0.250 0.807 Q0.377 0.784 0.359 0.717" stroke="hsl(0.0,100%,35%)" stroke-width="0.00145"></path>
<path d="M1.959 0.681 Q1.874 0.681 1.854 0.722" stroke="hsl(0.0,100%,35%)" stroke-width="0.00289"></path>
<path d="M1.959 0.681 Q1.113 0.286 0.157 0.611" stroke="hsl(0.0,100%,35%)" stroke-width="0.00289"></path>
<path d="M1.959 0.681 Q1.745 0.416 1.181 0.462" stroke="hsl(0.0,100%,35%)" stroke-width="0.00145"></path>
<path d="M0.909 0.796 Q1.140 0.789 1.178 0.675" stroke="hsl(240.0,100%,35%)" stroke-width="0.00289"></path>
<path d="M0.909 0.796 Q0.673 0.789 0.607 0.903" stroke="hsl(240.0,100%,35%)" stroke-width="0.00289"></path>
<path d="M0.909 0.796 Q1.304 0.420 0.658 0.145" stroke="hsl(240.0,100%,35%)" stroke-width="0.00145"></path>
<path d="M0.909 0.796 Q0.768 0.736 0.619 0.791" stroke="hsl(240.0,100%,35%)" stroke-width="0.00145"></path>
<path d="M0.909 0.796 Q1.626 0.687 1.571 0.314" stroke="hsl(240.0,100%,35%)" stroke-width="0.00145"></path>
<path d="M1.894 0.376 Q1.931 0.373 1.934 0.355" stroke="hsl(0.0,100%,35%)" stroke-width="0.00145"></path>
<path d="M1.894 0.376 Q0.964 0.480 0.963 0.957" stroke="hsl(0.0,100%,35%)" stroke-width="0.00145"></path>
<path d="M1.894 0.376 Q1.520 0.342 1.373 0.517" stroke="hsl(0.0,100%,35%)" stroke-width="0.00145"></path>
<path d="M1.894 0.376 Q1.704 0.474 1.854 0.589" stroke="hsl(0.0,100%,35%)" stroke-width="0.00145"></path>
<path d="M0.680 0.229 Q0.572 0.551 1.178 0.675" stroke="hsl(120.0,100%,35%)" stroke-width="0.00145"></path>
<path d="M0.680 0.229 Q0.736 0.182 0.658 0.145" stroke="hsl(120.0,100%,35%)" stroke-width="0.00145"></path>
<path d="M0.680 0.229 Q0.566 0.280 0.641 0.347" stroke="hsl(120.0,100%,35%)" stroke-width="0.00145"></path>
<path d="M1.512 0.462 Q0.803 0.448 0.619 0.791" stroke="hsl(240.0,100%,35%)" stroke-width="0.00145"></path>
<path d="M1.512 0.462 Q0.732 0.359 0.359 0.717" stroke="hsl(240.0,100%,35%)" stroke-width="0.00289"></path>
<path d="M1.512 0.462 Q1.337 0.425 1.225 0.502" stroke="hsl(240.0,100%,35%)" stroke-width="0.00145"></path>
<path d="M1.512 0.462 Q1.660 0.400 1.571 0.314" stroke="hsl(240.0,100%,35%)" stroke-width="0.01301"></path>
<path d="M1.512 0.462 Q0.887 0.396 0.620 0.686" stroke="hsl(240.0,100%,35%)" stroke-width="0.00145"></path>
<path d="M1.512 0.462 Q1.840 0.373 1.739 0.194" stroke="hsl(240.0,100%,35%)" stroke-width="0.00434"></path>
<path d="M1.512 0.462 Q1.366 0.511 1.429 0.594" stroke="hsl(240.0,100%,35%)" stroke-width="0.00145"></path>
<path d="M1.512 0.462 Q1.339 0.133 0.658 0.145" stroke="hsl(240.0,100%,35%)" stroke-width="0.00289"></path>
<path d="M0.646 0.972 Q1.150 0.930 1.178 0.675" stroke="hsl(240.0,100%,35%)" stroke-width="0.00145"></path>
<path d="M0.646 0.972 Q0.682 0.930 0.607 0.903" stroke="hsl(240.0,100%,35%)" stroke-width="0.00289"></path>
<path d="M0.646 0.972 Q1.635 0.828 1.571 0.314" stroke="hsl(240.0,100%,35%)" stroke-width="0.00145"></path>
</g>
<text x="1.724" y="0.464" font-size="0.011931" fill="hsl(0.0,100%,20%)">abbyyeh</text>
<text x="0.658" y="0.112" font-size="0.065076" fill="hsl(0.0,100%,20%)">hta</text>
<text x="1.152" y="0.800" font-size="0.019785" fill="hsl(0.0,100%,20%)">kthelgason</text>
<text x="1.739" y="0.520" font-size="0.013339" fill="hsl(120.0,100%,20%)">peterhanspers</text>
<text x="0.270" y="0.297" font-size="0.010333" fill="hsl(0.0,100%,20%)">andytamilo</text>
<text x="0.125" y="0.260" font-size="0.005965" fill="hsl(0.0,100%,20%)">deadbeef</text>
<text x="0.888" y="0.684" font-size="0.026679" fill="hsl(240.0,100%,20%)">jonaso</text>
<text x="0.491" y="0.219" font-size="0.010333" fill="hsl(0.0,100%,20%)">ayp</text>
<text x="1.178" y="0.644" font-size="0.062282" fill="hsl(120.0,100%,20%)">danilchap</text>
<text x="0.641" y="0.327" font-size="0.040018" fill="hsl(0.0,100%,20%)">orphis</text>
<text x="0.264" y="0.398" font-size="0.010333" fill="hsl(120.0,100%,20%)">bwwilliams</text>
<text x="0.073" y="0.376" font-size="0.005965" fill="hsl(120.0,100%,20%)">haysc</text>
<text x="1.939" y="0.494" font-size="0.018865" fill="hsl(0.0,100%,20%)">tommi</text>
<text x="1.934" y="0.348" font-size="0.013339" fill="hsl(240.0,100%,20%)">gustaf</text>
<text x="1.225" y="0.494" font-size="0.015783" fill="hsl(0.0,100%,20%)">titovartem</text>
<text x="1.373" y="0.513" font-size="0.008436" fill="hsl(240.0,100%,20%)">peah</text>
<text x="1.034" y="0.542" font-size="0.015783" fill="hsl(120.0,100%,20%)">philipel</text>
<text x="0.607" y="0.880" font-size="0.044642" fill="hsl(240.0,100%,20%)">ssilkin</text>
<text x="0.903" y="0.390" font-size="0.037255" fill="hsl(0.0,100%,20%)">jleconte</text>
<text x="1.334" y="0.755" font-size="0.039571" fill="hsl(120.0,100%,20%)">jakobi</text>
<text x="0.619" y="0.771" font-size="0.040018" fill="hsl(240.0,100%,20%)">ilnik</text>
<text x="0.359" y="0.686" font-size="0.061708" fill="hsl(0.0,100%,20%)">mbonadei</text>
<text x="1.429" y="0.580" font-size="0.026679" fill="hsl(120.0,100%,20%)">asapersson</text>
<text x="1.235" y="0.345" font-size="0.025309" fill="hsl(0.0,100%,20%)">perkj</text>
<text x="0.501" y="0.828" font-size="0.022321" fill="hsl(0.0,100%,20%)">jansson</text>
<text x="1.181" y="0.458" font-size="0.008436" fill="hsl(0.0,100%,20%)">magjed</text>
<text x="1.078" y="0.451" font-size="0.011931" fill="hsl(0.0,100%,20%)">brandtr</text>
<text x="1.571" y="0.291" font-size="0.045039" fill="hsl(240.0,100%,20%)">sprang</text>
<text x="0.751" y="0.266" font-size="0.030998" fill="hsl(0.0,100%,20%)">dorhen</text>
<text x="0.896" y="0.843" font-size="0.010333" fill="hsl(240.0,100%,20%)">gaochun.dev</text>
<text x="0.877" y="0.190" font-size="0.050619" fill="hsl(0.0,100%,20%)">phancke</text>
<text x="0.516" y="0.565" font-size="0.016873" fill="hsl(0.0,100%,20%)">gavinmak</text>
<text x="0.963" y="0.950" font-size="0.013339" fill="hsl(240.0,100%,20%)">henrika</text>
<text x="1.419" y="0.964" font-size="0.019785" fill="hsl(240.0,100%,20%)">grulja</text>
<text x="1.660" y="0.978" font-size="0.005965" fill="hsl(240.0,100%,20%)">alcooper</text>
<text x="1.216" y="0.940" font-size="0.011931" fill="hsl(240.0,100%,20%)">apehrson</text>
<text x="0.077" y="0.491" font-size="0.020665" fill="hsl(0.0,100%,20%)">handellm</text>
<text x="0.753" y="0.512" font-size="0.032125" fill="hsl(0.0,100%,20%)">terelius</text>
<text x="0.620" y="0.669" font-size="0.034269" fill="hsl(240.0,100%,20%)">hbos</text>
<text x="0.499" y="0.211" font-size="0.015783" fill="hsl(0.0,100%,20%)">hocheung</text>
<text x="0.386" y="0.067" font-size="0.005965" fill="hsl(0.0,100%,20%)">lndmrk</text>
<text x="1.664" y="0.603" font-size="0.013339" fill="hsl(120.0,100%,20%)">tomasl</text>
<text x="1.595" y="0.785" font-size="0.014612" fill="hsl(120.0,100%,20%)">henrik.lundin</text>
<text x="0.282" y="0.251" font-size="0.015783" fill="hsl(0.0,100%,20%)">jianlin.qiu</text>
<text x="0.157" y="0.603" font-size="0.017896" fill="hsl(0.0,100%,20%)">xalep</text>
<text x="1.659" y="0.673" font-size="0.010333" fill="hsl(120.0,100%,20%)">karllen.zheng</text>
<text x="1.096" y="0.812" font-size="0.014612" fill="hsl(120.0,100%,20%)">kinu</text>
<text x="0.814" y="0.802" font-size="0.015783" fill="hsl(240.0,100%,20%)">kron</text>
<text x="1.739" y="0.177" font-size="0.033214" fill="hsl(240.0,100%,20%)">linderborg</text>
<text x="1.647" y="0.806" font-size="0.015783" fill="hsl(120.0,100%,20%)">lionelk</text>
<text x="1.874" y="0.901" font-size="0.005965" fill="hsl(0.0,100%,20%)">herre</text>
<text x="1.737" y="0.688" font-size="0.005965" fill="hsl(120.0,100%,20%)">devicentepena</text>
<text x="0.424" y="0.488" font-size="0.008436" fill="hsl(0.0,100%,20%)">mheikal</text>
<text x="0.250" y="0.802" font-size="0.010333" fill="hsl(0.0,100%,20%)">pareynolds</text>
<text x="1.283" y="0.322" font-size="0.014612" fill="hsl(0.0,100%,20%)">diepbp</text>
<text x="1.228" y="0.134" font-size="0.013339" fill="hsl(0.0,100%,20%)">davidben</text>
<text x="1.959" y="0.674" font-size="0.013339" fill="hsl(0.0,100%,20%)">ranvr</text>
<text x="1.854" y="0.718" font-size="0.008436" fill="hsl(120.0,100%,20%)">fabianbergmark</text>
<text x="0.909" y="0.788" font-size="0.015783" fill="hsl(240.0,100%,20%)">sergio.garcia.murillo</text>
<text x="1.894" y="0.370" font-size="0.011931" fill="hsl(0.0,100%,20%)">silen</text>
<text x="1.854" y="0.584" font-size="0.010333" fill="hsl(0.0,100%,20%)">saza</text>
<text x="0.876" y="0.945" font-size="0.005965" fill="hsl(240.0,100%,20%)">dwtan</text>
<text x="0.807" y="0.700" font-size="0.008436" fill="hsl(240.0,100%,20%)">marpan</text>
<text x="0.680" y="0.224" font-size="0.010333" fill="hsl(120.0,100%,20%)">sushin</text>
<text x="1.512" y="0.449" font-size="0.026679" fill="hsl(240.0,100%,20%)">vardar</text>
<text x="0.646" y="0.966" font-size="0.011931" fill="hsl(240.0,100%,20%)">yingying.ma</text>
</svg>
