<svg width="4000" height="2000" viewBox="-0.025 -0.025 2.05 1.05" xmlns="http://www.w3.org/2000/svg">
  <style>
    path {
      fill: none;
      stroke-linecap: round;
      stroke-opacity: 0.4;
    }

    text {
      text-anchor: middle;
      alignment-baseline: hanging;
    }
  </style>
  <g opacity="0.4">
<path d="M0.495 0.423 Q0.894 0.857 1.829 0.758" stroke="hsl(0.0,100%,35%)" stroke-width="0.00339"></path>
<path d="M0.495 0.423 Q0.167 0.501 0.248 0.679" stroke="hsl(0.0,100%,35%)" stroke-width="0.00339"></path>
<path d="M0.495 0.423 Q0.226 0.442 0.203 0.577" stroke="hsl(0.0,100%,35%)" stroke-width="0.00339"></path>
<path d="M1.829 0.758 Q1.407 0.776 1.350 0.985" stroke="hsl(120.0,100%,35%)" stroke-width="0.03733"></path>
<path d="M1.829 0.758 Q1.102 0.402 0.248 0.679" stroke="hsl(120.0,100%,35%)" stroke-width="0.01018"></path>
<path d="M1.829 0.758 Q2.104 0.432 1.528 0.226" stroke="hsl(120.0,100%,35%)" stroke-width="0.01697"></path>
<path d="M1.829 0.758 Q1.348 0.179 0.112 0.286" stroke="hsl(120.0,100%,35%)" stroke-width="0.00339"></path>
<path d="M1.829 0.758 Q1.751 0.685 1.592 0.708" stroke="hsl(120.0,100%,35%)" stroke-width="0.01018"></path>
<path d="M1.829 0.758 Q1.697 0.182 0.545 0.120" stroke="hsl(120.0,100%,35%)" stroke-width="0.00339"></path>
<path d="M1.829 0.758 Q1.589 0.745 1.511 0.858" stroke="hsl(120.0,100%,35%)" stroke-width="0.00339"></path>
<path d="M1.829 0.758 Q2.046 0.554 1.695 0.403" stroke="hsl(120.0,100%,35%)" stroke-width="0.00339"></path>
<path d="M1.829 0.758 Q1.003 0.490 0.300 0.834" stroke="hsl(120.0,100%,35%)" stroke-width="0.00679"></path>
<path d="M0.248 0.679 Q0.307 0.619 0.203 0.577" stroke="hsl(0.0,100%,35%)" stroke-width="0.02036"></path>
<path d="M0.248 0.679 Q1.250 0.708 1.528 0.226" stroke="hsl(0.0,100%,35%)" stroke-width="0.01018"></path>
<path d="M0.248 0.679 Q0.983 0.702 1.191 0.349" stroke="hsl(0.0,100%,35%)" stroke-width="0.01018"></path>
<path d="M0.248 0.679 Q1.127 0.918 1.787 0.542" stroke="hsl(0.0,100%,35%)" stroke-width="0.00339"></path>
<path d="M0.248 0.679 Q0.369 0.559 0.161 0.473" stroke="hsl(0.0,100%,35%)" stroke-width="0.00339"></path>
<path d="M0.248 0.679 Q0.975 1.034 1.829 0.758" stroke="hsl(0.0,100%,35%)" stroke-width="0.00339"></path>
<path d="M1.528 0.226 Q0.526 0.197 0.248 0.679" stroke="hsl(0.0,100%,35%)" stroke-width="0.01697"></path>
<path d="M1.528 0.226 Q0.782 0.054 0.281 0.380" stroke="hsl(0.0,100%,35%)" stroke-width="0.00339"></path>
<path d="M1.528 0.226 Q1.261 0.220 1.191 0.349" stroke="hsl(0.0,100%,35%)" stroke-width="0.00339"></path>
<path d="M1.528 0.226 Q0.427 0.285 0.300 0.834" stroke="hsl(0.0,100%,35%)" stroke-width="0.00339"></path>
<path d="M1.528 0.226 Q1.194 0.120 0.912 0.259" stroke="hsl(0.0,100%,35%)" stroke-width="0.00339"></path>
<path d="M1.528 0.226 Q1.470 0.348 1.695 0.403" stroke="hsl(0.0,100%,35%)" stroke-width="0.00339"></path>
<path d="M1.528 0.226 Q0.788 0.259 0.690 0.627" stroke="hsl(0.0,100%,35%)" stroke-width="0.00339"></path>
<path d="M1.528 0.226 Q1.123 0.403 1.379 0.640" stroke="hsl(0.0,100%,35%)" stroke-width="0.00339"></path>
<path d="M1.592 0.708 Q1.540 0.631 1.379 0.640" stroke="hsl(120.0,100%,35%)" stroke-width="0.01018"></path>
<path d="M1.592 0.708 Q1.945 0.454 1.528 0.226" stroke="hsl(120.0,100%,35%)" stroke-width="0.00339"></path>
<path d="M1.592 0.708 Q1.670 0.780 1.829 0.758" stroke="hsl(120.0,100%,35%)" stroke-width="0.00679"></path>
<path d="M1.592 0.708 Q1.249 0.798 1.350 0.985" stroke="hsl(120.0,100%,35%)" stroke-width="0.00339"></path>
<path d="M0.545 0.120 Q0.640 0.434 1.273 0.456" stroke="hsl(0.0,100%,35%)" stroke-width="0.00339"></path>
<path d="M0.545 0.120 Q0.951 0.370 1.528 0.226" stroke="hsl(0.0,100%,35%)" stroke-width="0.00339"></path>
<path d="M0.545 0.120 Q0.489 0.222 0.676 0.272" stroke="hsl(0.0,100%,35%)" stroke-width="0.00339"></path>
<path d="M0.188 0.440 Q0.028 0.572 0.248 0.679" stroke="hsl(0.0,100%,35%)" stroke-width="0.01358"></path>
<path d="M0.188 0.440 Q1.029 0.601 1.528 0.226" stroke="hsl(0.0,100%,35%)" stroke-width="0.00679"></path>
<path d="M0.188 0.440 Q0.283 0.429 0.281 0.380" stroke="hsl(0.0,100%,35%)" stroke-width="0.00339"></path>
<path d="M0.188 0.440 Q0.623 0.352 0.545 0.120" stroke="hsl(0.0,100%,35%)" stroke-width="0.00339"></path>
<path d="M0.281 0.380 Q0.026 0.523 0.248 0.679" stroke="hsl(0.0,100%,35%)" stroke-width="0.01358"></path>
<path d="M0.281 0.380 Q0.693 0.446 0.912 0.259" stroke="hsl(0.0,100%,35%)" stroke-width="0.00339"></path>
<path d="M0.281 0.380 Q0.272 0.299 0.112 0.286" stroke="hsl(0.0,100%,35%)" stroke-width="0.00339"></path>
<path d="M0.281 0.380 Q0.084 0.463 0.203 0.577" stroke="hsl(0.0,100%,35%)" stroke-width="0.00339"></path>
<path d="M0.875 0.560 Q1.193 0.850 1.829 0.758" stroke="hsl(120.0,100%,35%)" stroke-width="0.00339"></path>
<path d="M0.875 0.560 Q0.697 0.458 0.459 0.522" stroke="hsl(120.0,100%,35%)" stroke-width="0.00339"></path>
<path d="M0.875 0.560 Q0.728 0.557 0.690 0.627" stroke="hsl(120.0,100%,35%)" stroke-width="0.00339"></path>
<path d="M0.459 0.522 Q0.228 0.558 0.248 0.679" stroke="hsl(0.0,100%,35%)" stroke-width="0.03733"></path>
<path d="M0.459 0.522 Q0.287 0.498 0.203 0.577" stroke="hsl(0.0,100%,35%)" stroke-width="0.01018"></path>
<path d="M0.459 0.522 Q1.230 0.588 1.528 0.226" stroke="hsl(0.0,100%,35%)" stroke-width="0.00679"></path>
<path d="M0.459 0.522 Q0.340 0.613 0.492 0.692" stroke="hsl(0.0,100%,35%)" stroke-width="0.01358"></path>
<path d="M0.459 0.522 Q0.963 0.582 1.191 0.349" stroke="hsl(0.0,100%,35%)" stroke-width="0.01697"></path>
<path d="M0.459 0.522 Q0.490 0.621 0.690 0.627" stroke="hsl(0.0,100%,35%)" stroke-width="0.00679"></path>
<path d="M0.459 0.522 Q0.955 0.914 1.829 0.758" stroke="hsl(0.0,100%,35%)" stroke-width="0.00339"></path>
<path d="M0.690 0.627 Q0.577 0.662 0.621 0.725" stroke="hsl(240.0,100%,35%)" stroke-width="0.00679"></path>
<path d="M0.690 0.627 Q1.252 0.653 1.425 0.385" stroke="hsl(240.0,100%,35%)" stroke-width="0.00339"></path>
<path d="M0.690 0.627 Q0.765 0.701 0.926 0.681" stroke="hsl(240.0,100%,35%)" stroke-width="0.00339"></path>
<path d="M0.690 0.627 Q1.372 0.716 1.695 0.403" stroke="hsl(240.0,100%,35%)" stroke-width="0.00339"></path>
<path d="M1.457 0.488 Q1.702 0.371 1.528 0.226" stroke="hsl(0.0,100%,35%)" stroke-width="0.01358"></path>
<path d="M1.457 0.488 Q1.368 0.265 0.912 0.259" stroke="hsl(0.0,100%,35%)" stroke-width="0.00339"></path>
<path d="M1.457 0.488 Q1.258 0.448 1.136 0.537" stroke="hsl(0.0,100%,35%)" stroke-width="0.00339"></path>
<path d="M1.457 0.488 Q1.579 0.581 1.787 0.542" stroke="hsl(0.0,100%,35%)" stroke-width="0.00339"></path>
<path d="M0.912 0.259 Q1.089 0.175 0.964 0.070" stroke="hsl(0.0,100%,35%)" stroke-width="0.00679"></path>
<path d="M0.912 0.259 Q0.500 0.193 0.281 0.380" stroke="hsl(0.0,100%,35%)" stroke-width="0.00679"></path>
<path d="M0.912 0.259 Q1.246 0.366 1.528 0.226" stroke="hsl(0.0,100%,35%)" stroke-width="0.00679"></path>
<path d="M0.912 0.259 Q0.840 0.116 0.545 0.120" stroke="hsl(0.0,100%,35%)" stroke-width="0.00679"></path>
<path d="M0.912 0.259 Q0.146 0.424 0.300 0.834" stroke="hsl(0.0,100%,35%)" stroke-width="0.00339"></path>
<path d="M0.912 0.259 Q1.188 0.488 1.695 0.403" stroke="hsl(0.0,100%,35%)" stroke-width="0.00339"></path>
<path d="M0.912 0.259 Q0.506 0.399 0.690 0.627" stroke="hsl(0.0,100%,35%)" stroke-width="0.00339"></path>
<path d="M0.912 0.259 Q1.071 0.294 1.174 0.224" stroke="hsl(0.0,100%,35%)" stroke-width="0.00339"></path>
<path d="M0.912 0.259 Q0.679 0.214 0.539 0.317" stroke="hsl(0.0,100%,35%)" stroke-width="0.00339"></path>
<path d="M1.136 0.537 Q0.578 0.430 0.248 0.679" stroke="hsl(240.0,100%,35%)" stroke-width="0.00679"></path>
<path d="M1.136 0.537 Q1.405 0.388 1.174 0.224" stroke="hsl(240.0,100%,35%)" stroke-width="0.00339"></path>
<path d="M1.136 0.537 Q1.313 0.454 1.191 0.349" stroke="hsl(240.0,100%,35%)" stroke-width="0.00679"></path>
<path d="M1.136 0.537 Q1.402 0.519 1.425 0.385" stroke="hsl(240.0,100%,35%)" stroke-width="0.00679"></path>
<path d="M1.191 0.349 Q1.279 0.414 1.425 0.385" stroke="hsl(240.0,100%,35%)" stroke-width="0.03055"></path>
<path d="M1.191 0.349 Q0.718 0.388 0.690 0.627" stroke="hsl(240.0,100%,35%)" stroke-width="0.00679"></path>
<path d="M1.191 0.349 Q1.458 0.355 1.528 0.226" stroke="hsl(240.0,100%,35%)" stroke-width="0.00339"></path>
<path d="M1.191 0.349 Q1.146 0.419 1.273 0.456" stroke="hsl(240.0,100%,35%)" stroke-width="0.00679"></path>
<path d="M1.191 0.349 Q1.013 0.432 1.136 0.537" stroke="hsl(240.0,100%,35%)" stroke-width="0.00339"></path>
<path d="M0.684 0.544 Q0.358 0.524 0.248 0.679" stroke="hsl(0.0,100%,35%)" stroke-width="0.00679"></path>
<path d="M0.684 0.544 Q0.259 0.612 0.300 0.834" stroke="hsl(0.0,100%,35%)" stroke-width="0.00339"></path>
<path d="M0.684 0.544 Q0.620 0.587 0.690 0.627" stroke="hsl(0.0,100%,35%)" stroke-width="0.00339"></path>
<path d="M1.152 0.716 Q1.326 0.723 1.379 0.640" stroke="hsl(120.0,100%,35%)" stroke-width="0.00339"></path>
<path d="M1.152 0.716 Q1.379 0.800 1.592 0.708" stroke="hsl(120.0,100%,35%)" stroke-width="0.00339"></path>
<path d="M1.152 0.716 Q0.992 0.579 0.690 0.627" stroke="hsl(120.0,100%,35%)" stroke-width="0.00339"></path>
<path d="M0.911 0.471 Q0.978 0.436 0.926 0.396" stroke="hsl(120.0,100%,35%)" stroke-width="0.00339"></path>
<path d="M0.911 0.471 Q1.062 0.726 1.592 0.708" stroke="hsl(120.0,100%,35%)" stroke-width="0.00679"></path>
<path d="M0.911 0.471 Q1.010 0.649 1.379 0.640" stroke="hsl(120.0,100%,35%)" stroke-width="0.00339"></path>
<path d="M0.578 0.860 Q1.293 0.727 1.191 0.349" stroke="hsl(0.0,100%,35%)" stroke-width="0.00339"></path>
<path d="M0.578 0.860 Q0.460 0.792 0.300 0.834" stroke="hsl(0.0,100%,35%)" stroke-width="0.01697"></path>
<path d="M0.578 0.860 Q0.764 0.885 0.853 0.800" stroke="hsl(0.0,100%,35%)" stroke-width="0.01018"></path>
<path d="M0.578 0.860 Q0.864 1.077 1.350 0.985" stroke="hsl(0.0,100%,35%)" stroke-width="0.00339"></path>
<path d="M0.578 0.860 Q0.559 0.704 0.248 0.679" stroke="hsl(0.0,100%,35%)" stroke-width="0.00679"></path>
</g>
<text x="0.495" y="0.414" font-size="0.018058" fill="hsl(0.0,100%,20%)">ayp</text>
<text x="1.829" y="0.727" font-size="0.060792" fill="hsl(120.0,100%,20%)">danilchap</text>
<text x="0.248" y="0.642" font-size="0.072980" fill="hsl(0.0,100%,20%)">hta</text>
<text x="0.203" y="0.560" font-size="0.034578" fill="hsl(0.0,100%,20%)">orphis</text>
<text x="1.350" y="0.966" font-size="0.037590" fill="hsl(120.0,100%,20%)">asapersson</text>
<text x="1.528" y="0.196" font-size="0.059891" fill="hsl(0.0,100%,20%)">mbonadei</text>
<text x="0.112" y="0.279" font-size="0.014744" fill="hsl(120.0,100%,20%)">titovartem</text>
<text x="1.592" y="0.689" font-size="0.037590" fill="hsl(120.0,100%,20%)">jakobi</text>
<text x="0.545" y="0.106" font-size="0.027584" fill="hsl(0.0,100%,20%)">kthelgason</text>
<text x="1.511" y="0.853" font-size="0.010426" fill="hsl(120.0,100%,20%)">magjed</text>
<text x="1.695" y="0.393" font-size="0.020851" fill="hsl(240.0,100%,20%)">brandtr</text>
<text x="0.300" y="0.818" font-size="0.032969" fill="hsl(0.0,100%,20%)">sprang</text>
<text x="0.188" y="0.426" font-size="0.029488" fill="hsl(0.0,100%,20%)">dorhen</text>
<text x="0.281" y="0.363" font-size="0.034578" fill="hsl(0.0,100%,20%)">jleconte</text>
<text x="0.875" y="0.551" font-size="0.018058" fill="hsl(120.0,100%,20%)">gaochun.dev</text>
<text x="0.459" y="0.494" font-size="0.056144" fill="hsl(0.0,100%,20%)">phancke</text>
<text x="0.690" y="0.608" font-size="0.039009" fill="hsl(240.0,100%,20%)">ssilkin</text>
<text x="1.457" y="0.475" font-size="0.027584" fill="hsl(0.0,100%,20%)">handellm</text>
<text x="0.912" y="0.238" font-size="0.041703" fill="hsl(0.0,100%,20%)">terelius</text>
<text x="1.136" y="0.521" font-size="0.031277" fill="hsl(240.0,100%,20%)">jonaso</text>
<text x="1.787" y="0.535" font-size="0.014744" fill="hsl(0.0,100%,20%)">tommi</text>
<text x="1.191" y="0.322" font-size="0.054174" fill="hsl(240.0,100%,20%)">hbos</text>
<text x="1.425" y="0.367" font-size="0.036116" fill="hsl(240.0,100%,20%)">ilnik</text>
<text x="1.273" y="0.447" font-size="0.018058" fill="hsl(240.0,100%,20%)">henrika</text>
<text x="0.161" y="0.468" font-size="0.010426" fill="hsl(0.0,100%,20%)">lndmrk</text>
<text x="1.379" y="0.627" font-size="0.025538" fill="hsl(120.0,100%,20%)">henrik.lundin</text>
<text x="0.684" y="0.534" font-size="0.020851" fill="hsl(0.0,100%,20%)">jianlin.qiu</text>
<text x="1.174" y="0.216" font-size="0.014744" fill="hsl(0.0,100%,20%)">xalep</text>
<text x="1.152" y="0.707" font-size="0.018058" fill="hsl(120.0,100%,20%)">karllen.zheng</text>
<text x="0.676" y="0.266" font-size="0.010426" fill="hsl(0.0,100%,20%)">peterhanspers</text>
<text x="0.911" y="0.461" font-size="0.020851" fill="hsl(120.0,100%,20%)">lionelk</text>
<text x="0.926" y="0.391" font-size="0.010426" fill="hsl(120.0,100%,20%)">devicentepena</text>
<text x="0.492" y="0.681" font-size="0.020851" fill="hsl(0.0,100%,20%)">davidben</text>
<text x="0.621" y="0.718" font-size="0.014744" fill="hsl(240.0,100%,20%)">marpan</text>
<text x="0.926" y="0.676" font-size="0.010426" fill="hsl(240.0,100%,20%)">kron</text>
<text x="0.964" y="0.063" font-size="0.014744" fill="hsl(0.0,100%,20%)">perkj</text>
<text x="0.539" y="0.312" font-size="0.010426" fill="hsl(0.0,100%,20%)">jansson</text>
<text x="0.578" y="0.842" font-size="0.036116" fill="hsl(0.0,100%,20%)">vardar</text>
<text x="0.853" y="0.791" font-size="0.018058" fill="hsl(0.0,100%,20%)">linderborg</text>
</svg>
