<svg width="4000" height="2000" viewBox="-0.025 -0.025 2.05 1.05" xmlns="http://www.w3.org/2000/svg">
  <style>
    path {
      fill: none;
      stroke-linecap: round;
      stroke-opacity: 0.4;
    }

    text {
      text-anchor: middle;
      alignment-baseline: hanging;
    }
  </style>
  <g opacity="0.4">
<path d="M1.559 0.911 Q1.612 0.818 1.443 0.772" stroke="hsl(0.0,100%,35%)" stroke-width="0.02236"></path>
<path d="M1.559 0.911 Q1.290 0.834 1.080 0.948" stroke="hsl(0.0,100%,35%)" stroke-width="0.02236"></path>
<path d="M1.559 0.911 Q1.435 0.831 1.253 0.874" stroke="hsl(0.0,100%,35%)" stroke-width="0.02236"></path>
<path d="M1.068 0.377 Q1.217 0.469 1.430 0.417" stroke="hsl(72.0,100%,35%)" stroke-width="0.04472"></path>
<path d="M1.068 0.377 Q1.091 0.220 0.789 0.175" stroke="hsl(72.0,100%,35%)" stroke-width="0.04472"></path>
<path d="M1.068 0.377 Q1.217 0.287 1.073 0.194" stroke="hsl(72.0,100%,35%)" stroke-width="0.04472"></path>
<path d="M0.962 0.697 Q0.876 0.612 0.692 0.636" stroke="hsl(144.0,100%,35%)" stroke-width="0.02236"></path>
<path d="M0.962 0.697 Q1.118 0.652 1.065 0.567" stroke="hsl(144.0,100%,35%)" stroke-width="0.02236"></path>
<path d="M0.962 0.697 Q1.186 0.734 1.308 0.633" stroke="hsl(144.0,100%,35%)" stroke-width="0.02236"></path>
<path d="M0.181 0.852 Q0.281 0.769 0.142 0.703" stroke="hsl(216.0,100%,35%)" stroke-width="0.02236"></path>
<path d="M0.181 0.852 Q0.171 0.930 0.321 0.952" stroke="hsl(216.0,100%,35%)" stroke-width="0.04472"></path>
<path d="M0.181 0.852 Q0.448 0.915 0.630 0.799" stroke="hsl(216.0,100%,35%)" stroke-width="0.02236"></path>
<path d="M1.924 0.331 Q2.009 0.212 1.797 0.145" stroke="hsl(288.0,100%,35%)" stroke-width="0.04472"></path>
<path d="M1.924 0.331 Q1.646 0.419 1.759 0.574" stroke="hsl(288.0,100%,35%)" stroke-width="0.02236"></path>
<path d="M1.924 0.331 Q1.786 0.235 1.569 0.281" stroke="hsl(288.0,100%,35%)" stroke-width="0.02236"></path>
</g>
<text x="1.559" y="0.883" font-size="0.054772" fill="hsl(0.0,100%,20%)">jonathanjlee</text>
<text x="1.443" y="0.756" font-size="0.031623" fill="hsl(0.0,100%,20%)">nrosenthal</text>
<text x="1.080" y="0.932" font-size="0.031623" fill="hsl(0.0,100%,20%)">finnur</text>
<text x="1.253" y="0.858" font-size="0.031623" fill="hsl(0.0,100%,20%)">mstensho</text>
<text x="1.068" y="0.338" font-size="0.077460" fill="hsl(72.0,100%,20%)">suzukikeita</text>
<text x="1.430" y="0.394" font-size="0.044721" fill="hsl(72.0,100%,20%)">sisidovski</text>
<text x="0.789" y="0.152" font-size="0.044721" fill="hsl(72.0,100%,20%)">toyoshim</text>
<text x="1.073" y="0.172" font-size="0.044721" fill="hsl(72.0,100%,20%)">yyanagisawa</text>
<text x="0.962" y="0.669" font-size="0.054772" fill="hsl(144.0,100%,20%)">xiaobincui</text>
<text x="0.692" y="0.620" font-size="0.031623" fill="hsl(144.0,100%,20%)">avi</text>
<text x="1.065" y="0.551" font-size="0.031623" fill="hsl(144.0,100%,20%)">dtapuska</text>
<text x="1.308" y="0.617" font-size="0.031623" fill="hsl(144.0,100%,20%)">jkim</text>
<text x="0.181" y="0.820" font-size="0.063246" fill="hsl(216.0,100%,20%)">ybourouphael</text>
<text x="0.142" y="0.687" font-size="0.031623" fill="hsl(216.0,100%,20%)">mmenke</text>
<text x="0.321" y="0.930" font-size="0.044721" fill="hsl(216.0,100%,20%)">orrb</text>
<text x="0.630" y="0.783" font-size="0.031623" fill="hsl(216.0,100%,20%)">dcheng</text>
<text x="1.924" y="0.299" font-size="0.063246" fill="hsl(288.0,100%,20%)">zhoupeng.1996</text>
<text x="1.797" y="0.123" font-size="0.044721" fill="hsl(288.0,100%,20%)">masonf</text>
<text x="1.759" y="0.559" font-size="0.031623" fill="hsl(288.0,100%,20%)">tcaptan</text>
<text x="1.569" y="0.265" font-size="0.031623" fill="hsl(288.0,100%,20%)">jarhar</text>
</svg>
