<svg width="4000" height="2000" viewBox="-0.025 -0.025 2.05 1.05" xmlns="http://www.w3.org/2000/svg">
  <style>
    path {
      fill: none;
      stroke-linecap: round;
      stroke-opacity: 0.4;
    }

    text {
      text-anchor: middle;
      alignment-baseline: hanging;
    }
  </style>
  <g opacity="0.4">
<path d="M0.384 0.908 Q0.347 0.851 0.228 0.856" stroke="hsl(0.0,100%,35%)" stroke-width="0.02151"></path>
<path d="M0.384 0.908 Q1.542 0.762 1.509 0.164" stroke="hsl(0.0,100%,35%)" stroke-width="0.00358"></path>
<path d="M0.384 0.908 Q1.600 0.698 1.456 0.058" stroke="hsl(0.0,100%,35%)" stroke-width="0.00358"></path>
<path d="M0.228 0.856 Q0.297 0.895 0.388 0.870" stroke="hsl(0.0,100%,35%)" stroke-width="0.02688"></path>
<path d="M0.228 0.856 Q1.480 0.703 1.456 0.058" stroke="hsl(0.0,100%,35%)" stroke-width="0.00179"></path>
<path d="M0.228 0.856 Q0.375 0.868 0.431 0.799" stroke="hsl(0.0,100%,35%)" stroke-width="0.01613"></path>
<path d="M0.228 0.856 Q0.952 0.979 1.350 0.652" stroke="hsl(0.0,100%,35%)" stroke-width="0.00358"></path>
<path d="M0.228 0.856 Q0.403 0.790 0.313 0.690" stroke="hsl(0.0,100%,35%)" stroke-width="0.00358"></path>
<path d="M1.509 0.164 Q0.315 0.254 0.228 0.856" stroke="hsl(0.0,100%,35%)" stroke-width="0.00179"></path>
<path d="M1.509 0.164 Q1.567 0.101 1.456 0.058" stroke="hsl(0.0,100%,35%)" stroke-width="0.01434"></path>
<path d="M1.509 0.164 Q0.780 0.193 0.676 0.556" stroke="hsl(0.0,100%,35%)" stroke-width="0.00179"></path>
<path d="M1.456 0.058 Q1.398 0.122 1.509 0.164" stroke="hsl(0.0,100%,35%)" stroke-width="0.01075"></path>
<path d="M1.456 0.058 Q0.297 0.064 0.054 0.631" stroke="hsl(0.0,100%,35%)" stroke-width="0.00179"></path>
<path d="M1.456 0.058 Q1.563 0.080 1.629 0.033" stroke="hsl(0.0,100%,35%)" stroke-width="0.00538"></path>
<path d="M1.456 0.058 Q0.204 0.212 0.228 0.856" stroke="hsl(0.0,100%,35%)" stroke-width="0.00179"></path>
<path d="M0.602 0.981 Q0.716 0.946 0.674 0.883" stroke="hsl(60.0,100%,35%)" stroke-width="0.00896"></path>
<path d="M0.602 0.981 Q0.558 0.950 0.489 0.964" stroke="hsl(60.0,100%,35%)" stroke-width="0.00538"></path>
<path d="M0.602 0.981 Q0.513 0.952 0.438 0.990" stroke="hsl(60.0,100%,35%)" stroke-width="0.00358"></path>
<path d="M0.390 0.068 Q0.930 0.276 1.456 0.058" stroke="hsl(0.0,100%,35%)" stroke-width="0.00358"></path>
<path d="M0.390 0.068 Q0.443 0.143 0.602 0.134" stroke="hsl(0.0,100%,35%)" stroke-width="0.00538"></path>
<path d="M0.390 0.068 Q0.510 0.092 0.584 0.039" stroke="hsl(0.0,100%,35%)" stroke-width="0.00179"></path>
<path d="M0.602 0.134 Q0.578 0.202 0.705 0.229" stroke="hsl(0.0,100%,35%)" stroke-width="0.00179"></path>
<path d="M0.602 0.134 Q0.669 0.083 0.584 0.039" stroke="hsl(0.0,100%,35%)" stroke-width="0.00179"></path>
<path d="M0.602 0.134 Q0.549 0.058 0.390 0.068" stroke="hsl(0.0,100%,35%)" stroke-width="0.02330"></path>
<path d="M0.054 0.631 Q0.182 0.664 0.274 0.609" stroke="hsl(120.0,100%,35%)" stroke-width="0.00896"></path>
<path d="M0.054 0.631 Q0.057 0.701 0.195 0.715" stroke="hsl(120.0,100%,35%)" stroke-width="0.00179"></path>
<path d="M0.054 0.631 Q-0.007 0.675 0.064 0.714" stroke="hsl(120.0,100%,35%)" stroke-width="0.01613"></path>
<path d="M0.054 0.631 Q0.009 0.696 0.126 0.732" stroke="hsl(120.0,100%,35%)" stroke-width="0.00179"></path>
<path d="M0.274 0.609 Q0.146 0.576 0.054 0.631" stroke="hsl(120.0,100%,35%)" stroke-width="0.01613"></path>
<path d="M0.274 0.609 Q0.392 0.554 0.311 0.485" stroke="hsl(120.0,100%,35%)" stroke-width="0.00179"></path>
<path d="M0.274 0.609 Q0.053 0.723 0.228 0.856" stroke="hsl(120.0,100%,35%)" stroke-width="0.00179"></path>
<path d="M0.274 0.609 Q1.013 0.769 1.488 0.444" stroke="hsl(120.0,100%,35%)" stroke-width="0.00179"></path>
<path d="M0.274 0.609 Q0.382 0.559 0.309 0.496" stroke="hsl(120.0,100%,35%)" stroke-width="0.00358"></path>
<path d="M0.274 0.609 Q1.247 0.634 1.509 0.164" stroke="hsl(120.0,100%,35%)" stroke-width="0.00179"></path>
<path d="M0.274 0.609 Q0.085 0.619 0.064 0.714" stroke="hsl(120.0,100%,35%)" stroke-width="0.00358"></path>
<path d="M0.274 0.609 Q0.820 0.646 1.013 0.388" stroke="hsl(120.0,100%,35%)" stroke-width="0.00179"></path>
<path d="M0.274 0.609 Q0.855 0.589 0.943 0.302" stroke="hsl(120.0,100%,35%)" stroke-width="0.00179"></path>
<path d="M0.064 0.714 Q0.091 0.747 0.162 0.742" stroke="hsl(120.0,100%,35%)" stroke-width="0.00179"></path>
<path d="M0.064 0.714 Q0.253 0.703 0.274 0.609" stroke="hsl(120.0,100%,35%)" stroke-width="0.00538"></path>
<path d="M0.064 0.714 Q0.125 0.671 0.054 0.631" stroke="hsl(120.0,100%,35%)" stroke-width="0.01075"></path>
<path d="M1.004 0.044 Q0.855 -0.034 0.671 0.022" stroke="hsl(180.0,100%,35%)" stroke-width="0.00179"></path>
<path d="M1.004 0.044 Q0.936 0.050 0.935 0.085" stroke="hsl(180.0,100%,35%)" stroke-width="0.00358"></path>
<path d="M1.004 0.044 Q0.855 0.605 1.918 0.801" stroke="hsl(180.0,100%,35%)" stroke-width="0.00179"></path>
<path d="M1.384 0.536 Q1.446 0.462 1.316 0.416" stroke="hsl(120.0,100%,35%)" stroke-width="0.00358"></path>
<path d="M1.384 0.536 Q1.522 0.546 1.572 0.482" stroke="hsl(120.0,100%,35%)" stroke-width="0.00179"></path>
<path d="M1.384 0.536 Q1.510 0.511 1.488 0.444" stroke="hsl(120.0,100%,35%)" stroke-width="0.00896"></path>
<path d="M1.384 0.536 Q1.230 0.313 0.762 0.339" stroke="hsl(120.0,100%,35%)" stroke-width="0.00179"></path>
<path d="M1.384 0.536 Q1.251 0.513 1.176 0.573" stroke="hsl(120.0,100%,35%)" stroke-width="0.00179"></path>
<path d="M1.384 0.536 Q1.546 0.545 1.599 0.468" stroke="hsl(120.0,100%,35%)" stroke-width="0.01434"></path>
<path d="M1.384 0.536 Q1.008 0.101 0.076 0.188" stroke="hsl(120.0,100%,35%)" stroke-width="0.00179"></path>
<path d="M1.384 0.536 Q1.304 0.514 1.242 0.548" stroke="hsl(120.0,100%,35%)" stroke-width="0.00179"></path>
<path d="M1.384 0.536 Q1.238 0.376 0.894 0.412" stroke="hsl(120.0,100%,35%)" stroke-width="0.00179"></path>
<path d="M1.384 0.536 Q1.504 0.547 1.552 0.491" stroke="hsl(120.0,100%,35%)" stroke-width="0.00179"></path>
<path d="M1.384 0.536 Q0.844 0.692 1.030 0.990" stroke="hsl(120.0,100%,35%)" stroke-width="0.00179"></path>
<path d="M1.384 0.536 Q1.424 0.465 1.294 0.430" stroke="hsl(120.0,100%,35%)" stroke-width="0.00538"></path>
<path d="M1.384 0.536 Q1.658 0.665 1.969 0.559" stroke="hsl(120.0,100%,35%)" stroke-width="0.00358"></path>
<path d="M1.384 0.536 Q1.512 0.565 1.597 0.509" stroke="hsl(120.0,100%,35%)" stroke-width="0.00538"></path>
<path d="M1.384 0.536 Q1.448 0.453 1.300 0.404" stroke="hsl(120.0,100%,35%)" stroke-width="0.00179"></path>
<path d="M1.030 0.990 Q1.252 0.817 0.964 0.671" stroke="hsl(240.0,100%,35%)" stroke-width="0.00179"></path>
<path d="M1.030 0.990 Q1.930 0.673 1.509 0.164" stroke="hsl(240.0,100%,35%)" stroke-width="0.00179"></path>
<path d="M1.030 0.990 Q1.187 0.957 1.157 0.873" stroke="hsl(240.0,100%,35%)" stroke-width="0.00179"></path>
<path d="M1.030 0.990 Q0.922 0.944 0.808 0.986" stroke="hsl(240.0,100%,35%)" stroke-width="0.00179"></path>
<path d="M1.157 0.873 Q1.668 0.903 1.839 0.661" stroke="hsl(240.0,100%,35%)" stroke-width="0.00538"></path>
<path d="M1.157 0.873 Q1.000 0.906 1.030 0.990" stroke="hsl(240.0,100%,35%)" stroke-width="0.00896"></path>
<path d="M1.157 0.873 Q1.071 0.807 0.922 0.835" stroke="hsl(240.0,100%,35%)" stroke-width="0.00717"></path>
<path d="M1.157 0.873 Q1.207 0.799 1.072 0.758" stroke="hsl(240.0,100%,35%)" stroke-width="0.00358"></path>
<path d="M1.157 0.873 Q1.958 0.526 1.456 0.058" stroke="hsl(240.0,100%,35%)" stroke-width="0.00179"></path>
<path d="M1.157 0.873 Q1.223 0.733 0.964 0.671" stroke="hsl(240.0,100%,35%)" stroke-width="0.00358"></path>
<path d="M1.157 0.873 Q1.085 0.908 1.137 0.952" stroke="hsl(240.0,100%,35%)" stroke-width="0.00179"></path>
<path d="M0.922 0.835 Q0.852 0.934 1.030 0.990" stroke="hsl(240.0,100%,35%)" stroke-width="0.00717"></path>
<path d="M0.922 0.835 Q1.520 0.931 1.839 0.661" stroke="hsl(240.0,100%,35%)" stroke-width="0.00358"></path>
<path d="M0.922 0.835 Q0.705 0.719 0.431 0.799" stroke="hsl(240.0,100%,35%)" stroke-width="0.00179"></path>
<path d="M0.922 0.835 Q1.009 0.901 1.157 0.873" stroke="hsl(240.0,100%,35%)" stroke-width="0.00179"></path>
<path d="M0.922 0.835 Q1.239 0.555 0.762 0.339" stroke="hsl(240.0,100%,35%)" stroke-width="0.00179"></path>
<path d="M0.922 0.835 Q1.074 0.761 0.964 0.671" stroke="hsl(240.0,100%,35%)" stroke-width="0.00179"></path>
<path d="M0.964 0.671 Q1.409 0.841 1.839 0.661" stroke="hsl(240.0,100%,35%)" stroke-width="0.00358"></path>
<path d="M0.964 0.671 Q0.741 0.844 1.030 0.990" stroke="hsl(240.0,100%,35%)" stroke-width="0.00179"></path>
<path d="M0.964 0.671 Q0.948 0.736 1.072 0.758" stroke="hsl(240.0,100%,35%)" stroke-width="0.00358"></path>
<path d="M0.964 0.671 Q1.564 0.699 1.750 0.412" stroke="hsl(240.0,100%,35%)" stroke-width="0.00179"></path>
<path d="M1.781 0.881 Q1.854 0.840 1.790 0.795" stroke="hsl(120.0,100%,35%)" stroke-width="0.00717"></path>
<path d="M1.781 0.881 Q1.913 0.869 1.918 0.801" stroke="hsl(120.0,100%,35%)" stroke-width="0.00179"></path>
<path d="M1.781 0.881 Q1.619 0.851 1.524 0.923" stroke="hsl(120.0,100%,35%)" stroke-width="0.00179"></path>
<path d="M1.781 0.881 Q1.705 0.884 1.695 0.921" stroke="hsl(120.0,100%,35%)" stroke-width="0.00179"></path>
<path d="M1.790 0.795 Q1.717 0.836 1.781 0.881" stroke="hsl(120.0,100%,35%)" stroke-width="0.00717"></path>
<path d="M1.790 0.795 Q1.849 0.824 1.918 0.801" stroke="hsl(120.0,100%,35%)" stroke-width="0.00179"></path>
<path d="M1.790 0.795 Q0.960 0.513 0.228 0.856" stroke="hsl(120.0,100%,35%)" stroke-width="0.00179"></path>
<path d="M1.790 0.795 Q1.834 0.513 1.294 0.430" stroke="hsl(120.0,100%,35%)" stroke-width="0.00179"></path>
<path d="M0.346 0.415 Q0.823 0.922 1.918 0.801" stroke="hsl(0.0,100%,35%)" stroke-width="0.00179"></path>
<path d="M0.346 0.415 Q0.353 0.431 0.386 0.432" stroke="hsl(0.0,100%,35%)" stroke-width="0.00179"></path>
<path d="M0.346 0.415 Q0.322 0.444 0.373 0.462" stroke="hsl(0.0,100%,35%)" stroke-width="0.00179"></path>
<path d="M1.869 0.177 Q1.155 0.335 1.307 0.718" stroke="hsl(120.0,100%,35%)" stroke-width="0.00179"></path>
<path d="M1.869 0.177 Q1.772 0.147 1.694 0.188" stroke="hsl(120.0,100%,35%)" stroke-width="0.00179"></path>
<path d="M1.869 0.177 Q1.879 0.126 1.783 0.111" stroke="hsl(120.0,100%,35%)" stroke-width="0.00179"></path>
<path d="M1.307 0.718 Q1.348 0.817 1.550 0.819" stroke="hsl(180.0,100%,35%)" stroke-width="0.00717"></path>
<path d="M1.307 0.718 Q1.382 0.694 1.350 0.652" stroke="hsl(180.0,100%,35%)" stroke-width="0.01075"></path>
<path d="M1.307 0.718 Q1.131 0.352 0.378 0.358" stroke="hsl(180.0,100%,35%)" stroke-width="0.00179"></path>
<path d="M1.307 0.718 Q1.235 0.326 0.453 0.275" stroke="hsl(180.0,100%,35%)" stroke-width="0.00179"></path>
<path d="M1.307 0.718 Q1.209 0.228 0.231 0.169" stroke="hsl(180.0,100%,35%)" stroke-width="0.00358"></path>
<path d="M1.783 0.111 Q1.774 0.161 1.869 0.177" stroke="hsl(120.0,100%,35%)" stroke-width="0.01613"></path>
<path d="M1.783 0.111 Q1.517 0.372 1.969 0.559" stroke="hsl(120.0,100%,35%)" stroke-width="0.00179"></path>
<path d="M1.783 0.111 Q0.910 0.292 1.072 0.758" stroke="hsl(120.0,100%,35%)" stroke-width="0.00179"></path>
<path d="M0.737 0.719 Q1.335 0.910 1.839 0.661" stroke="hsl(240.0,100%,35%)" stroke-width="0.01075"></path>
<path d="M0.737 0.719 Q0.889 0.740 0.964 0.671" stroke="hsl(240.0,100%,35%)" stroke-width="0.01792"></path>
<path d="M0.737 0.719 Q0.737 0.814 0.922 0.835" stroke="hsl(240.0,100%,35%)" stroke-width="0.00538"></path>
<path d="M0.737 0.719 Q0.666 0.644 0.504 0.662" stroke="hsl(240.0,100%,35%)" stroke-width="0.00179"></path>
<path d="M0.737 0.719 Q0.824 0.880 1.157 0.873" stroke="hsl(240.0,100%,35%)" stroke-width="0.00717"></path>
<path d="M0.737 0.719 Q0.873 0.805 1.072 0.758" stroke="hsl(240.0,100%,35%)" stroke-width="0.00717"></path>
<path d="M0.737 0.719 Q1.489 0.768 1.750 0.412" stroke="hsl(240.0,100%,35%)" stroke-width="0.00358"></path>
<path d="M0.737 0.719 Q0.666 0.913 1.030 0.990" stroke="hsl(240.0,100%,35%)" stroke-width="0.00179"></path>
<path d="M1.214 0.910 Q1.726 0.911 1.839 0.661" stroke="hsl(240.0,100%,35%)" stroke-width="0.00717"></path>
<path d="M1.214 0.910 Q1.215 0.881 1.157 0.873" stroke="hsl(240.0,100%,35%)" stroke-width="0.01075"></path>
<path d="M1.214 0.910 Q1.058 0.914 1.030 0.990" stroke="hsl(240.0,100%,35%)" stroke-width="0.00358"></path>
<path d="M1.214 0.910 Q1.280 0.741 0.964 0.671" stroke="hsl(240.0,100%,35%)" stroke-width="0.00358"></path>
<path d="M1.214 0.910 Q1.880 0.769 1.750 0.412" stroke="hsl(240.0,100%,35%)" stroke-width="0.00179"></path>
<path d="M1.214 0.910 Q0.911 0.698 0.431 0.799" stroke="hsl(240.0,100%,35%)" stroke-width="0.00179"></path>
<path d="M0.431 0.799 Q0.283 0.787 0.228 0.856" stroke="hsl(180.0,100%,35%)" stroke-width="0.00896"></path>
<path d="M0.431 0.799 Q0.974 1.033 1.550 0.819" stroke="hsl(180.0,100%,35%)" stroke-width="0.00358"></path>
<path d="M0.431 0.799 Q0.964 0.635 0.762 0.339" stroke="hsl(180.0,100%,35%)" stroke-width="0.00358"></path>
<path d="M0.431 0.799 Q0.458 0.601 0.079 0.544" stroke="hsl(180.0,100%,35%)" stroke-width="0.00717"></path>
<path d="M0.431 0.799 Q0.954 0.855 1.178 0.612" stroke="hsl(180.0,100%,35%)" stroke-width="0.00538"></path>
<path d="M0.431 0.799 Q0.376 0.640 0.054 0.631" stroke="hsl(180.0,100%,35%)" stroke-width="0.00179"></path>
<path d="M0.431 0.799 Q0.505 0.673 0.274 0.609" stroke="hsl(180.0,100%,35%)" stroke-width="0.01075"></path>
<path d="M0.431 0.799 Q0.933 0.934 1.307 0.718" stroke="hsl(180.0,100%,35%)" stroke-width="0.00179"></path>
<path d="M0.431 0.799 Q0.509 0.881 0.686 0.860" stroke="hsl(180.0,100%,35%)" stroke-width="0.00179"></path>
<path d="M0.431 0.799 Q1.243 0.833 1.488 0.444" stroke="hsl(180.0,100%,35%)" stroke-width="0.00179"></path>
<path d="M1.227 0.079 Q1.210 0.023 1.097 0.018" stroke="hsl(120.0,100%,35%)" stroke-width="0.00538"></path>
<path d="M1.227 0.079 Q0.790 0.051 0.640 0.259" stroke="hsl(120.0,100%,35%)" stroke-width="0.00179"></path>
<path d="M1.227 0.079 Q1.154 0.043 1.067 0.070" stroke="hsl(120.0,100%,35%)" stroke-width="0.00179"></path>
<path d="M1.227 0.079 Q1.140 0.057 1.078 0.095" stroke="hsl(120.0,100%,35%)" stroke-width="0.00179"></path>
<path d="M1.227 0.079 Q1.214 0.468 1.969 0.559" stroke="hsl(120.0,100%,35%)" stroke-width="0.00179"></path>
<path d="M0.143 0.456 Q0.205 0.412 0.134 0.372" stroke="hsl(120.0,100%,35%)" stroke-width="0.00179"></path>
<path d="M0.143 0.456 Q0.261 0.433 0.242 0.370" stroke="hsl(120.0,100%,35%)" stroke-width="0.00538"></path>
<path d="M0.143 0.456 Q0.546 0.521 0.762 0.339" stroke="hsl(120.0,100%,35%)" stroke-width="0.00179"></path>
<path d="M0.143 0.456 Q0.126 0.424 0.059 0.425" stroke="hsl(120.0,100%,35%)" stroke-width="0.01075"></path>
<path d="M1.945 0.590 Q0.874 0.380 0.228 0.856" stroke="hsl(0.0,100%,35%)" stroke-width="0.00179"></path>
<path d="M1.945 0.590 Q1.332 0.015 0.076 0.188" stroke="hsl(0.0,100%,35%)" stroke-width="0.00179"></path>
<path d="M1.945 0.590 Q1.982 0.580 1.969 0.559" stroke="hsl(0.0,100%,35%)" stroke-width="0.00358"></path>
<path d="M1.132 0.486 Q1.108 0.613 1.350 0.652" stroke="hsl(180.0,100%,35%)" stroke-width="0.00358"></path>
<path d="M1.132 0.486 Q1.159 0.492 1.176 0.480" stroke="hsl(180.0,100%,35%)" stroke-width="0.00179"></path>
<path d="M1.132 0.486 Q1.074 0.736 1.550 0.819" stroke="hsl(180.0,100%,35%)" stroke-width="0.00179"></path>
<path d="M1.350 0.652 Q1.296 0.597 1.178 0.612" stroke="hsl(180.0,100%,35%)" stroke-width="0.00358"></path>
<path d="M1.350 0.652 Q0.847 0.415 0.274 0.609" stroke="hsl(180.0,100%,35%)" stroke-width="0.00358"></path>
<path d="M1.350 0.652 Q1.463 0.636 1.457 0.578" stroke="hsl(180.0,100%,35%)" stroke-width="0.00179"></path>
<path d="M1.350 0.652 Q1.316 0.775 1.550 0.819" stroke="hsl(180.0,100%,35%)" stroke-width="0.01075"></path>
<path d="M1.350 0.652 Q0.773 0.542 0.431 0.799" stroke="hsl(180.0,100%,35%)" stroke-width="0.00538"></path>
<path d="M1.350 0.652 Q1.734 0.729 1.969 0.559" stroke="hsl(180.0,100%,35%)" stroke-width="0.00179"></path>
<path d="M1.550 0.819 Q1.530 0.641 1.178 0.612" stroke="hsl(180.0,100%,35%)" stroke-width="0.00896"></path>
<path d="M1.550 0.819 Q1.006 0.585 0.431 0.799" stroke="hsl(180.0,100%,35%)" stroke-width="0.01434"></path>
<path d="M1.550 0.819 Q1.583 0.696 1.350 0.652" stroke="hsl(180.0,100%,35%)" stroke-width="0.00538"></path>
<path d="M1.550 0.819 Q1.415 0.817 1.381 0.882" stroke="hsl(180.0,100%,35%)" stroke-width="0.01613"></path>
<path d="M1.550 0.819 Q1.080 0.459 0.274 0.609" stroke="hsl(180.0,100%,35%)" stroke-width="0.00179"></path>
<path d="M1.550 0.819 Q1.634 0.575 1.176 0.480" stroke="hsl(180.0,100%,35%)" stroke-width="0.00179"></path>
<path d="M1.550 0.819 Q1.536 0.760 1.417 0.753" stroke="hsl(180.0,100%,35%)" stroke-width="0.00179"></path>
<path d="M0.079 0.544 Q-0.003 0.583 0.054 0.631" stroke="hsl(120.0,100%,35%)" stroke-width="0.01792"></path>
<path d="M0.079 0.544 Q0.362 0.366 0.076 0.188" stroke="hsl(120.0,100%,35%)" stroke-width="0.00179"></path>
<path d="M0.079 0.544 Q0.829 0.419 0.750 0.026" stroke="hsl(120.0,100%,35%)" stroke-width="0.00179"></path>
<path d="M1.178 0.612 Q1.702 0.454 1.509 0.164" stroke="hsl(180.0,100%,35%)" stroke-width="0.00179"></path>
<path d="M1.178 0.612 Q1.283 0.545 1.176 0.480" stroke="hsl(180.0,100%,35%)" stroke-width="0.00179"></path>
<path d="M1.178 0.612 Q1.198 0.790 1.550 0.819" stroke="hsl(180.0,100%,35%)" stroke-width="0.00179"></path>
<path d="M1.178 0.612 Q1.232 0.666 1.350 0.652" stroke="hsl(180.0,100%,35%)" stroke-width="0.01075"></path>
<path d="M1.178 0.612 Q1.381 0.349 0.913 0.192" stroke="hsl(180.0,100%,35%)" stroke-width="0.00717"></path>
<path d="M1.178 0.612 Q1.231 0.584 1.189 0.552" stroke="hsl(180.0,100%,35%)" stroke-width="0.00179"></path>
<path d="M0.378 0.358 Q0.482 0.332 0.453 0.275" stroke="hsl(120.0,100%,35%)" stroke-width="0.00179"></path>
<path d="M0.378 0.358 Q0.443 0.341 0.425 0.306" stroke="hsl(120.0,100%,35%)" stroke-width="0.00179"></path>
<path d="M0.378 0.358 Q0.504 0.373 0.561 0.315" stroke="hsl(120.0,100%,35%)" stroke-width="0.00179"></path>
<path d="M0.453 0.275 Q0.349 0.302 0.378 0.358" stroke="hsl(120.0,100%,35%)" stroke-width="0.00358"></path>
<path d="M0.453 0.275 Q0.169 0.748 1.030 0.990" stroke="hsl(120.0,100%,35%)" stroke-width="0.00179"></path>
<path d="M0.453 0.275 Q0.560 0.304 0.640 0.259" stroke="hsl(120.0,100%,35%)" stroke-width="0.00358"></path>
<path d="M0.453 0.275 Q1.249 0.459 1.783 0.111" stroke="hsl(120.0,100%,35%)" stroke-width="0.00179"></path>
<path d="M0.231 0.169 Q0.285 0.118 0.197 0.081" stroke="hsl(180.0,100%,35%)" stroke-width="0.00179"></path>
<path d="M0.231 0.169 Q0.329 0.659 1.307 0.718" stroke="hsl(180.0,100%,35%)" stroke-width="0.00717"></path>
<path d="M0.231 0.169 Q0.160 0.207 0.219 0.250" stroke="hsl(180.0,100%,35%)" stroke-width="0.01971"></path>
<path d="M0.231 0.169 Q0.650 0.267 0.935 0.085" stroke="hsl(180.0,100%,35%)" stroke-width="0.00179"></path>
<path d="M0.231 0.169 Q0.605 0.201 0.750 0.026" stroke="hsl(180.0,100%,35%)" stroke-width="0.00179"></path>
<path d="M0.231 0.169 Q0.751 0.722 1.945 0.590" stroke="hsl(180.0,100%,35%)" stroke-width="0.00179"></path>
<path d="M0.231 0.169 Q-0.099 0.397 0.274 0.609" stroke="hsl(180.0,100%,35%)" stroke-width="0.00358"></path>
<path d="M0.231 0.169 Q0.555 0.187 0.662 0.033" stroke="hsl(180.0,100%,35%)" stroke-width="0.00179"></path>
<path d="M0.231 0.169 Q0.370 0.758 1.550 0.819" stroke="hsl(180.0,100%,35%)" stroke-width="0.00179"></path>
<path d="M0.231 0.169 Q0.138 0.147 0.076 0.188" stroke="hsl(180.0,100%,35%)" stroke-width="0.00358"></path>
<path d="M0.231 0.169 Q0.568 0.822 1.918 0.801" stroke="hsl(180.0,100%,35%)" stroke-width="0.00179"></path>
<path d="M0.231 0.169 Q0.254 0.114 0.152 0.091" stroke="hsl(180.0,100%,35%)" stroke-width="0.00179"></path>
<path d="M0.871 0.926 Q1.056 0.957 1.157 0.873" stroke="hsl(240.0,100%,35%)" stroke-width="0.00717"></path>
<path d="M0.871 0.926 Q0.752 0.774 0.431 0.799" stroke="hsl(240.0,100%,35%)" stroke-width="0.00538"></path>
<path d="M0.871 0.926 Q1.121 0.817 0.964 0.671" stroke="hsl(240.0,100%,35%)" stroke-width="0.00179"></path>
<path d="M0.871 0.926 Q0.899 0.990 1.030 0.990" stroke="hsl(240.0,100%,35%)" stroke-width="0.00179"></path>
<path d="M1.795 0.519 Q1.482 0.156 0.705 0.229" stroke="hsl(0.0,100%,35%)" stroke-width="0.00179"></path>
<path d="M1.795 0.519 Q1.850 0.574 1.969 0.559" stroke="hsl(0.0,100%,35%)" stroke-width="0.00358"></path>
<path d="M1.795 0.519 Q0.963 0.259 0.274 0.609" stroke="hsl(0.0,100%,35%)" stroke-width="0.00179"></path>
<path d="M0.943 0.302 Q0.909 0.359 1.013 0.388" stroke="hsl(120.0,100%,35%)" stroke-width="0.00358"></path>
<path d="M0.943 0.302 Q0.823 0.284 0.762 0.339" stroke="hsl(120.0,100%,35%)" stroke-width="0.00538"></path>
<path d="M0.943 0.302 Q0.289 0.448 0.431 0.799" stroke="hsl(120.0,100%,35%)" stroke-width="0.00179"></path>
<path d="M1.695 0.964 Q1.609 0.945 1.552 0.983" stroke="hsl(300.0,100%,35%)" stroke-width="0.00717"></path>
<path d="M1.695 0.964 Q1.684 0.917 1.590 0.912" stroke="hsl(300.0,100%,35%)" stroke-width="0.00538"></path>
<path d="M1.695 0.964 Q1.669 0.916 1.570 0.918" stroke="hsl(300.0,100%,35%)" stroke-width="0.00358"></path>
<path d="M1.695 0.964 Q1.639 0.945 1.590 0.968" stroke="hsl(300.0,100%,35%)" stroke-width="0.00179"></path>
<path d="M0.843 0.037 Q0.805 0.013 0.750 0.026" stroke="hsl(120.0,100%,35%)" stroke-width="0.00179"></path>
<path d="M0.843 0.037 Q0.803 0.054 0.827 0.077" stroke="hsl(120.0,100%,35%)" stroke-width="0.00179"></path>
<path d="M0.843 0.037 Q0.418 0.088 0.425 0.306" stroke="hsl(120.0,100%,35%)" stroke-width="0.00179"></path>
<path d="M0.843 0.037 Q0.560 0.172 0.762 0.339" stroke="hsl(120.0,100%,35%)" stroke-width="0.00179"></path>
<path d="M0.843 0.037 Q0.755 -0.001 0.662 0.033" stroke="hsl(120.0,100%,35%)" stroke-width="0.00179"></path>
<path d="M0.313 0.690 Q0.180 0.667 0.106 0.727" stroke="hsl(0.0,100%,35%)" stroke-width="0.00358"></path>
<path d="M0.313 0.690 Q0.689 0.413 0.231 0.169" stroke="hsl(0.0,100%,35%)" stroke-width="0.00179"></path>
<path d="M0.313 0.690 Q0.138 0.756 0.228 0.856" stroke="hsl(0.0,100%,35%)" stroke-width="0.03764"></path>
<path d="M0.313 0.690 Q0.535 0.486 0.184 0.332" stroke="hsl(0.0,100%,35%)" stroke-width="0.00179"></path>
<path d="M0.313 0.690 Q1.191 0.901 1.795 0.519" stroke="hsl(0.0,100%,35%)" stroke-width="0.00358"></path>
<path d="M0.313 0.690 Q0.313 0.570 0.079 0.544" stroke="hsl(0.0,100%,35%)" stroke-width="0.00179"></path>
<path d="M1.805 0.299 Q1.794 0.258 1.712 0.254" stroke="hsl(0.0,100%,35%)" stroke-width="0.01075"></path>
<path d="M1.805 0.299 Q1.871 0.335 1.955 0.310" stroke="hsl(0.0,100%,35%)" stroke-width="0.00896"></path>
<path d="M1.805 0.299 Q1.765 0.173 1.509 0.164" stroke="hsl(0.0,100%,35%)" stroke-width="0.00179"></path>
<path d="M0.571 0.409 Q0.757 0.490 0.958 0.417" stroke="hsl(0.0,100%,35%)" stroke-width="0.00179"></path>
<path d="M0.571 0.409 Q1.150 0.764 1.969 0.559" stroke="hsl(0.0,100%,35%)" stroke-width="0.00179"></path>
<path d="M0.571 0.409 Q0.217 0.498 0.313 0.690" stroke="hsl(0.0,100%,35%)" stroke-width="0.00358"></path>
<path d="M0.571 0.409 Q0.454 0.367 0.346 0.415" stroke="hsl(0.0,100%,35%)" stroke-width="0.00179"></path>
<path d="M0.571 0.409 Q0.875 0.635 1.384 0.536" stroke="hsl(0.0,100%,35%)" stroke-width="0.00179"></path>
<path d="M0.571 0.409 Q0.625 0.394 0.609 0.365" stroke="hsl(0.0,100%,35%)" stroke-width="0.00179"></path>
<path d="M0.571 0.409 Q0.593 0.221 0.231 0.169" stroke="hsl(0.0,100%,35%)" stroke-width="0.00179"></path>
<path d="M0.571 0.409 Q0.632 0.449 0.725 0.429" stroke="hsl(0.0,100%,35%)" stroke-width="0.00179"></path>
<path d="M0.865 0.931 Q1.123 0.821 0.964 0.671" stroke="hsl(240.0,100%,35%)" stroke-width="0.00179"></path>
<path d="M0.865 0.931 Q0.971 0.895 0.922 0.835" stroke="hsl(240.0,100%,35%)" stroke-width="0.00358"></path>
<path d="M0.865 0.931 Q0.900 0.994 1.030 0.990" stroke="hsl(240.0,100%,35%)" stroke-width="0.00179"></path>
<path d="M0.507 0.505 Q1.140 0.769 1.795 0.519" stroke="hsl(120.0,100%,35%)" stroke-width="0.00179"></path>
<path d="M0.507 0.505 Q1.046 0.671 1.488 0.444" stroke="hsl(120.0,100%,35%)" stroke-width="0.00179"></path>
<path d="M0.507 0.505 Q0.308 0.510 0.274 0.609" stroke="hsl(120.0,100%,35%)" stroke-width="0.00358"></path>
<path d="M0.507 0.505 Q0.234 0.636 0.431 0.799" stroke="hsl(120.0,100%,35%)" stroke-width="0.00358"></path>
<path d="M0.507 0.505 Q0.483 0.514 0.496 0.527" stroke="hsl(120.0,100%,35%)" stroke-width="0.00179"></path>
<path d="M0.835 0.571 Q0.820 0.647 0.964 0.671" stroke="hsl(240.0,100%,35%)" stroke-width="0.01075"></path>
<path d="M0.835 0.571 Q0.668 0.721 0.922 0.835" stroke="hsl(240.0,100%,35%)" stroke-width="0.00358"></path>
<path d="M0.835 0.571 Q0.755 0.787 1.157 0.873" stroke="hsl(240.0,100%,35%)" stroke-width="0.00358"></path>
<path d="M0.835 0.571 Q0.804 0.712 1.072 0.758" stroke="hsl(240.0,100%,35%)" stroke-width="0.00358"></path>
<path d="M1.947 0.396 Q1.860 0.435 1.917 0.486" stroke="hsl(120.0,100%,35%)" stroke-width="0.01255"></path>
<path d="M1.947 0.396 Q1.877 0.404 1.878 0.440" stroke="hsl(120.0,100%,35%)" stroke-width="0.01075"></path>
<path d="M1.947 0.396 Q1.313 0.575 1.524 0.923" stroke="hsl(120.0,100%,35%)" stroke-width="0.00179"></path>
<path d="M1.607 0.366 Q1.487 0.560 1.839 0.661" stroke="hsl(240.0,100%,35%)" stroke-width="0.00358"></path>
<path d="M1.607 0.366 Q1.041 0.390 0.964 0.671" stroke="hsl(240.0,100%,35%)" stroke-width="0.01075"></path>
<path d="M1.607 0.366 Q0.819 0.563 1.030 0.990" stroke="hsl(240.0,100%,35%)" stroke-width="0.00538"></path>
<path d="M1.607 0.366 Q1.641 0.418 1.750 0.412" stroke="hsl(240.0,100%,35%)" stroke-width="0.00717"></path>
<path d="M1.607 0.366 Q1.026 0.455 1.072 0.758" stroke="hsl(240.0,100%,35%)" stroke-width="0.00358"></path>
<path d="M0.970 0.456 Q1.241 0.608 1.597 0.509" stroke="hsl(120.0,100%,35%)" stroke-width="0.00179"></path>
<path d="M0.970 0.456 Q0.744 0.447 0.676 0.556" stroke="hsl(120.0,100%,35%)" stroke-width="0.00179"></path>
<path d="M0.970 0.456 Q0.995 0.434 0.958 0.417" stroke="hsl(120.0,100%,35%)" stroke-width="0.00179"></path>
<path d="M0.603 0.584 Q0.399 0.748 0.674 0.883" stroke="hsl(60.0,100%,35%)" stroke-width="0.00358"></path>
<path d="M0.603 0.584 Q0.547 0.566 0.499 0.590" stroke="hsl(60.0,100%,35%)" stroke-width="0.00179"></path>
<path d="M0.603 0.584 Q0.537 0.582 0.518 0.614" stroke="hsl(60.0,100%,35%)" stroke-width="0.00179"></path>
<path d="M1.304 0.281 Q0.987 0.202 0.762 0.339" stroke="hsl(120.0,100%,35%)" stroke-width="0.00179"></path>
<path d="M1.304 0.281 Q1.269 0.067 0.843 0.037" stroke="hsl(120.0,100%,35%)" stroke-width="0.00179"></path>
<path d="M1.304 0.281 Q1.296 0.310 1.350 0.320" stroke="hsl(120.0,100%,35%)" stroke-width="0.00179"></path>
<path d="M1.304 0.281 Q1.340 0.305 1.394 0.293" stroke="hsl(120.0,100%,35%)" stroke-width="0.00358"></path>
<path d="M1.304 0.281 Q1.219 0.252 1.143 0.287" stroke="hsl(120.0,100%,35%)" stroke-width="0.00179"></path>
<path d="M1.304 0.281 Q0.584 0.136 0.143 0.456" stroke="hsl(120.0,100%,35%)" stroke-width="0.00179"></path>
<path d="M1.964 0.721 Q1.997 0.694 1.953 0.672" stroke="hsl(0.0,100%,35%)" stroke-width="0.00538"></path>
<path d="M1.964 0.721 Q1.861 0.246 0.913 0.192" stroke="hsl(0.0,100%,35%)" stroke-width="0.00358"></path>
<path d="M1.964 0.721 Q2.182 0.352 1.509 0.164" stroke="hsl(0.0,100%,35%)" stroke-width="0.00358"></path>
<path d="M0.067 0.346 Q0.137 0.363 0.184 0.332" stroke="hsl(0.0,100%,35%)" stroke-width="0.00538"></path>
<path d="M0.067 0.346 Q0.092 0.323 0.052 0.306" stroke="hsl(0.0,100%,35%)" stroke-width="0.00538"></path>
<path d="M0.067 0.346 Q-0.261 0.633 0.228 0.856" stroke="hsl(0.0,100%,35%)" stroke-width="0.00538"></path>
<path d="M1.195 0.384 Q1.167 0.498 1.384 0.536" stroke="hsl(120.0,100%,35%)" stroke-width="0.00538"></path>
<path d="M1.195 0.384 Q1.293 0.472 1.488 0.444" stroke="hsl(120.0,100%,35%)" stroke-width="0.00358"></path>
<path d="M1.195 0.384 Q1.091 0.390 1.081 0.443" stroke="hsl(120.0,100%,35%)" stroke-width="0.00358"></path>
<path d="M1.195 0.384 Q1.195 0.347 1.123 0.339" stroke="hsl(120.0,100%,35%)" stroke-width="0.00179"></path>
<path d="M0.912 0.918 Q1.071 0.945 1.157 0.873" stroke="hsl(240.0,100%,35%)" stroke-width="0.00358"></path>
<path d="M0.912 0.918 Q1.136 0.805 0.964 0.671" stroke="hsl(240.0,100%,35%)" stroke-width="0.00358"></path>
<path d="M0.912 0.918 Q0.767 0.762 0.431 0.799" stroke="hsl(240.0,100%,35%)" stroke-width="0.00179"></path>
<path d="M1.608 0.672 Q1.733 0.713 1.839 0.661" stroke="hsl(240.0,100%,35%)" stroke-width="0.01075"></path>
<path d="M1.608 0.672 Q1.135 0.616 0.922 0.835" stroke="hsl(240.0,100%,35%)" stroke-width="0.01075"></path>
<path d="M1.608 0.672 Q1.287 0.542 0.964 0.671" stroke="hsl(240.0,100%,35%)" stroke-width="0.01255"></path>
<path d="M1.608 0.672 Q1.222 0.682 1.157 0.873" stroke="hsl(240.0,100%,35%)" stroke-width="0.00179"></path>
<path d="M1.608 0.672 Q1.271 0.608 1.072 0.758" stroke="hsl(240.0,100%,35%)" stroke-width="0.00538"></path>
<path d="M1.608 0.672 Q1.887 0.571 1.750 0.412" stroke="hsl(240.0,100%,35%)" stroke-width="0.00179"></path>
<path d="M1.608 0.672 Q2.023 0.335 1.456 0.058" stroke="hsl(240.0,100%,35%)" stroke-width="0.00179"></path>
<path d="M1.296 0.066 Q1.382 0.094 1.456 0.058" stroke="hsl(0.0,100%,35%)" stroke-width="0.00179"></path>
<path d="M1.296 0.066 Q1.003 0.052 0.913 0.192" stroke="hsl(0.0,100%,35%)" stroke-width="0.00179"></path>
<path d="M1.296 0.066 Q1.324 0.158 1.509 0.164" stroke="hsl(0.0,100%,35%)" stroke-width="0.00179"></path>
<path d="M0.717 0.476 Q0.761 0.498 0.812 0.481" stroke="hsl(0.0,100%,35%)" stroke-width="0.00358"></path>
<path d="M0.717 0.476 Q0.633 0.508 0.676 0.556" stroke="hsl(0.0,100%,35%)" stroke-width="0.00358"></path>
<path d="M0.717 0.476 Q0.652 0.484 0.653 0.518" stroke="hsl(0.0,100%,35%)" stroke-width="0.00358"></path>
<path d="M1.127 0.181 Q1.011 0.144 0.913 0.192" stroke="hsl(0.0,100%,35%)" stroke-width="0.00358"></path>
<path d="M1.127 0.181 Q1.332 0.249 1.509 0.164" stroke="hsl(0.0,100%,35%)" stroke-width="0.00358"></path>
<path d="M1.127 0.181 Q1.063 0.175 1.036 0.205" stroke="hsl(0.0,100%,35%)" stroke-width="0.00179"></path>
<path d="M1.480 0.231 Q1.364 0.546 1.953 0.672" stroke="hsl(0.0,100%,35%)" stroke-width="0.00179"></path>
<path d="M1.480 0.231 Q1.548 0.204 1.509 0.164" stroke="hsl(0.0,100%,35%)" stroke-width="0.00538"></path>
<path d="M1.480 0.231 Q1.227 0.098 0.913 0.192" stroke="hsl(0.0,100%,35%)" stroke-width="0.00358"></path>
<path d="M1.266 0.151 Q1.251 0.154 1.253 0.163" stroke="hsl(180.0,100%,35%)" stroke-width="0.00179"></path>
<path d="M1.266 0.151 Q1.242 0.146 1.226 0.156" stroke="hsl(180.0,100%,35%)" stroke-width="0.00179"></path>
<path d="M1.266 0.151 Q0.833 0.443 1.307 0.718" stroke="hsl(180.0,100%,35%)" stroke-width="0.00179"></path>
<path d="M0.846 0.426 Q0.841 0.486 0.958 0.502" stroke="hsl(120.0,100%,35%)" stroke-width="0.00179"></path>
<path d="M0.846 0.426 Q0.881 0.428 0.894 0.412" stroke="hsl(120.0,100%,35%)" stroke-width="0.00179"></path>
<path d="M0.846 0.426 Q0.823 0.422 0.812 0.433" stroke="hsl(120.0,100%,35%)" stroke-width="0.00179"></path>
<path d="M1.086 0.256 Q1.173 0.276 1.232 0.238" stroke="hsl(120.0,100%,35%)" stroke-width="0.00179"></path>
<path d="M1.086 0.256 Q1.135 0.251 1.137 0.227" stroke="hsl(120.0,100%,35%)" stroke-width="0.00358"></path>
<path d="M1.086 0.256 Q1.137 0.430 1.488 0.444" stroke="hsl(120.0,100%,35%)" stroke-width="0.00179"></path>
<path d="M1.207 0.690 Q0.585 0.577 0.228 0.856" stroke="hsl(180.0,100%,35%)" stroke-width="0.00179"></path>
<path d="M1.207 0.690 Q1.275 0.823 1.550 0.819" stroke="hsl(180.0,100%,35%)" stroke-width="0.00358"></path>
<path d="M1.207 0.690 Q1.458 0.383 0.913 0.192" stroke="hsl(180.0,100%,35%)" stroke-width="0.00179"></path>
<path d="M1.207 0.690 Q1.779 0.488 1.509 0.164" stroke="hsl(180.0,100%,35%)" stroke-width="0.00179"></path>
<path d="M1.207 0.690 Q1.309 0.700 1.350 0.652" stroke="hsl(180.0,100%,35%)" stroke-width="0.00358"></path>
<path d="M1.207 0.690 Q1.141 0.821 1.381 0.882" stroke="hsl(180.0,100%,35%)" stroke-width="0.00179"></path>
</g>
<text x="0.384" y="0.898" font-size="0.021260" fill="hsl(0.0,100%,20%)">abotella</text>
<text x="0.228" y="0.833" font-size="0.046335" fill="hsl(0.0,100%,20%)">ikilpatrick</text>
<text x="1.509" y="0.150" font-size="0.029592" fill="hsl(0.0,100%,20%)">tkent</text>
<text x="1.456" y="0.045" font-size="0.027617" fill="hsl(0.0,100%,20%)">kojii</text>
<text x="0.602" y="0.972" font-size="0.016807" fill="hsl(60.0,100%,20%)">alonsomozol</text>
<text x="0.674" y="0.876" font-size="0.014062" fill="hsl(60.0,100%,20%)">guidou</text>
<text x="0.489" y="0.960" font-size="0.009206" fill="hsl(60.0,100%,20%)">toprice</text>
<text x="0.438" y="0.986" font-size="0.007516" fill="hsl(60.0,100%,20%)">orphis</text>
<text x="0.390" y="0.056" font-size="0.023167" fill="hsl(0.0,100%,20%)">andresrperez</text>
<text x="0.602" y="0.123" font-size="0.022549" fill="hsl(0.0,100%,20%)">jpgravel</text>
<text x="0.584" y="0.036" font-size="0.007516" fill="hsl(0.0,100%,20%)">yiyix</text>
<text x="0.054" y="0.614" font-size="0.034852" fill="hsl(120.0,100%,20%)">andruud</text>
<text x="0.274" y="0.592" font-size="0.034032" fill="hsl(120.0,100%,20%)">futhark</text>
<text x="0.195" y="0.713" font-size="0.005315" fill="hsl(120.0,100%,20%)">pfaffe</text>
<text x="0.064" y="0.702" font-size="0.024356" fill="hsl(120.0,100%,20%)">sesse</text>
<text x="0.126" y="0.729" font-size="0.005315" fill="hsl(120.0,100%,20%)">moonira</text>
<text x="1.004" y="0.038" font-size="0.010630" fill="hsl(180.0,100%,20%)">antoniosartori</text>
<text x="0.671" y="0.019" font-size="0.005315" fill="hsl(180.0,100%,20%)">phao</text>
<text x="0.935" y="0.080" font-size="0.009206" fill="hsl(180.0,100%,20%)">mkwst</text>
<text x="1.918" y="0.795" font-size="0.011885" fill="hsl(180.0,100%,20%)">arthursonzogni</text>
<text x="1.384" y="0.520" font-size="0.031890" fill="hsl(120.0,100%,20%)">arichiv</text>
<text x="1.316" y="0.412" font-size="0.007516" fill="hsl(120.0,100%,20%)">dylancutler</text>
<text x="1.572" y="0.479" font-size="0.005315" fill="hsl(120.0,100%,20%)">altimin</text>
<text x="1.488" y="0.435" font-size="0.017628" fill="hsl(120.0,100%,20%)">dcheng</text>
<text x="0.762" y="0.331" font-size="0.016807" fill="hsl(180.0,100%,20%)">flackr</text>
<text x="1.176" y="0.570" font-size="0.005315" fill="hsl(120.0,100%,20%)">yrsun</text>
<text x="1.599" y="0.460" font-size="0.015033" fill="hsl(120.0,100%,20%)">bingler</text>
<text x="0.076" y="0.182" font-size="0.011885" fill="hsl(180.0,100%,20%)">vmpstr</text>
<text x="1.242" y="0.545" font-size="0.005315" fill="hsl(120.0,100%,20%)">alexmos</text>
<text x="0.894" y="0.409" font-size="0.007516" fill="hsl(120.0,100%,20%)">dtapuska</text>
<text x="1.552" y="0.488" font-size="0.005315" fill="hsl(120.0,100%,20%)">rbpotter</text>
<text x="1.030" y="0.977" font-size="0.026038" fill="hsl(240.0,100%,20%)">reillyg</text>
<text x="1.294" y="0.425" font-size="0.010630" fill="hsl(120.0,100%,20%)">nasko</text>
<text x="1.969" y="0.551" font-size="0.016807" fill="hsl(0.0,100%,20%)">pdr</text>
<text x="1.597" y="0.504" font-size="0.010630" fill="hsl(120.0,100%,20%)">rakina</text>
<text x="1.300" y="0.401" font-size="0.005315" fill="hsl(120.0,100%,20%)">dfried</text>
<text x="1.157" y="0.857" font-size="0.033192" fill="hsl(240.0,100%,20%)">asully</text>
<text x="1.839" y="0.648" font-size="0.026575" fill="hsl(240.0,100%,20%)">ajgo</text>
<text x="0.922" y="0.821" font-size="0.027617" fill="hsl(240.0,100%,20%)">phillis</text>
<text x="1.072" y="0.747" font-size="0.021260" fill="hsl(240.0,100%,20%)">weizhong</text>
<text x="0.964" y="0.653" font-size="0.035654" fill="hsl(240.0,100%,20%)">ningxin.hu</text>
<text x="1.137" y="0.949" font-size="0.005315" fill="hsl(240.0,100%,20%)">btriebw</text>
<text x="1.781" y="0.872" font-size="0.017628" fill="hsl(120.0,100%,20%)">averge</text>
<text x="1.790" y="0.786" font-size="0.017628" fill="hsl(120.0,100%,20%)">lbrady</text>
<text x="1.524" y="0.919" font-size="0.007516" fill="hsl(120.0,100%,20%)">danakj</text>
<text x="1.695" y="0.919" font-size="0.005315" fill="hsl(120.0,100%,20%)">mustaq</text>
<text x="0.346" y="0.410" font-size="0.010630" fill="hsl(0.0,100%,20%)">beaufort.francois</text>
<text x="0.386" y="0.429" font-size="0.005315" fill="hsl(120.0,100%,20%)">mattreynolds</text>
<text x="0.373" y="0.459" font-size="0.005315" fill="hsl(120.0,100%,20%)">yoavweiss</text>
<text x="1.869" y="0.167" font-size="0.018411" fill="hsl(120.0,100%,20%)">behamilton</text>
<text x="1.307" y="0.706" font-size="0.024356" fill="hsl(180.0,100%,20%)">dom</text>
<text x="1.694" y="0.186" font-size="0.005315" fill="hsl(120.0,100%,20%)">fmalita</text>
<text x="1.783" y="0.101" font-size="0.019163" fill="hsl(120.0,100%,20%)">morlovich</text>
<text x="0.737" y="0.704" font-size="0.029592" fill="hsl(240.0,100%,20%)">bin.miao</text>
<text x="0.504" y="0.660" font-size="0.005315" fill="hsl(240.0,100%,20%)">ellyjones</text>
<text x="1.750" y="0.404" font-size="0.015945" fill="hsl(240.0,100%,20%)">rafael.cintron</text>
<text x="1.214" y="0.900" font-size="0.021260" fill="hsl(240.0,100%,20%)">bryan.bernhart</text>
<text x="0.431" y="0.779" font-size="0.039417" fill="hsl(180.0,100%,20%)">dbaron</text>
<text x="1.227" y="0.072" font-size="0.014062" fill="hsl(120.0,100%,20%)">cammie</text>
<text x="1.097" y="0.014" font-size="0.009206" fill="hsl(120.0,100%,20%)">yaoxia</text>
<text x="0.640" y="0.254" font-size="0.009206" fill="hsl(120.0,100%,20%)">caseq</text>
<text x="1.067" y="0.067" font-size="0.005315" fill="hsl(120.0,100%,20%)">horo</text>
<text x="1.078" y="0.092" font-size="0.005315" fill="hsl(120.0,100%,20%)">tiszka</text>
<text x="0.143" y="0.446" font-size="0.018411" fill="hsl(120.0,100%,20%)">cbiesinger</text>
<text x="0.134" y="0.370" font-size="0.005315" fill="hsl(120.0,100%,20%)">creis</text>
<text x="0.242" y="0.365" font-size="0.009206" fill="hsl(120.0,100%,20%)">yigu</text>
<text x="0.059" y="0.419" font-size="0.013019" fill="hsl(120.0,100%,20%)">npm</text>
<text x="1.945" y="0.584" font-size="0.011885" fill="hsl(0.0,100%,20%)">chrishtr</text>
<text x="1.132" y="0.481" font-size="0.010630" fill="hsl(180.0,100%,20%)">daniec</text>
<text x="1.350" y="0.636" font-size="0.031890" fill="hsl(180.0,100%,20%)">masonf</text>
<text x="1.176" y="0.475" font-size="0.009206" fill="hsl(180.0,100%,20%)">aleventhal</text>
<text x="1.550" y="0.801" font-size="0.035654" fill="hsl(180.0,100%,20%)">jarhar</text>
<text x="0.079" y="0.533" font-size="0.021914" fill="hsl(120.0,100%,20%)">sakhapov</text>
<text x="1.178" y="0.599" font-size="0.026038" fill="hsl(180.0,100%,20%)">dizhangg</text>
<text x="0.686" y="0.858" font-size="0.005315" fill="hsl(180.0,100%,20%)">obrufau</text>
<text x="0.913" y="0.183" font-size="0.018411" fill="hsl(0.0,100%,20%)">siliu</text>
<text x="1.189" y="0.550" font-size="0.005315" fill="hsl(180.0,100%,20%)">mschillaci</text>
<text x="0.378" y="0.352" font-size="0.013019" fill="hsl(120.0,100%,20%)">domenic</text>
<text x="0.453" y="0.268" font-size="0.015033" fill="hsl(120.0,100%,20%)">japhet</text>
<text x="0.231" y="0.154" font-size="0.029592" fill="hsl(180.0,100%,20%)">nrosenthal</text>
<text x="0.425" y="0.302" font-size="0.007516" fill="hsl(120.0,100%,20%)">jbroman</text>
<text x="0.561" y="0.312" font-size="0.005315" fill="hsl(120.0,100%,20%)">liviutinta</text>
<text x="0.871" y="0.918" font-size="0.015945" fill="hsl(240.0,100%,20%)">feng.dai</text>
<text x="1.795" y="0.512" font-size="0.014062" fill="hsl(0.0,100%,20%)">fs</text>
<text x="0.705" y="0.225" font-size="0.007516" fill="hsl(0.0,100%,20%)">schenney</text>
<text x="0.311" y="0.482" font-size="0.005315" fill="hsl(120.0,100%,20%)">foolip</text>
<text x="0.309" y="0.493" font-size="0.007516" fill="hsl(120.0,100%,20%)">szager</text>
<text x="1.013" y="0.383" font-size="0.009206" fill="hsl(180.0,100%,20%)">awogbemila</text>
<text x="0.943" y="0.295" font-size="0.014062" fill="hsl(120.0,100%,20%)">kevers</text>
<text x="1.695" y="0.956" font-size="0.016807" fill="hsl(300.0,100%,20%)">garimachadha</text>
<text x="1.552" y="0.977" font-size="0.010630" fill="hsl(300.0,100%,20%)">estade</text>
<text x="1.590" y="0.907" font-size="0.009206" fill="hsl(300.0,100%,20%)">rahsin</text>
<text x="1.570" y="0.914" font-size="0.007516" fill="hsl(300.0,100%,20%)">stevebe</text>
<text x="1.590" y="0.965" font-size="0.005315" fill="hsl(300.0,100%,20%)">abhishek.shanthkumar</text>
<text x="0.843" y="0.030" font-size="0.013019" fill="hsl(120.0,100%,20%)">iclelland</text>
<text x="0.750" y="0.021" font-size="0.009206" fill="hsl(120.0,100%,20%)">bokan</text>
<text x="0.827" y="0.074" font-size="0.005315" fill="hsl(120.0,100%,20%)">haoliuk</text>
<text x="0.662" y="0.029" font-size="0.007516" fill="hsl(120.0,100%,20%)">mmocny</text>
<text x="0.388" y="0.860" font-size="0.020585" fill="hsl(0.0,100%,20%)">dgrogan</text>
<text x="0.313" y="0.675" font-size="0.030066" fill="hsl(0.0,100%,20%)">mstensho</text>
<text x="1.805" y="0.290" font-size="0.018411" fill="hsl(0.0,100%,20%)">janiceliu</text>
<text x="1.712" y="0.248" font-size="0.013019" fill="hsl(0.0,100%,20%)">awillia</text>
<text x="1.955" y="0.304" font-size="0.011885" fill="hsl(0.0,100%,20%)">kyraseevers</text>
<text x="1.381" y="0.874" font-size="0.016807" fill="hsl(180.0,100%,20%)">tcaptan</text>
<text x="1.417" y="0.750" font-size="0.005315" fill="hsl(180.0,100%,20%)">chromium</text>
<text x="0.571" y="0.401" font-size="0.015945" fill="hsl(0.0,100%,20%)">jonathanjlee</text>
<text x="0.958" y="0.414" font-size="0.007516" fill="hsl(0.0,100%,20%)">ricea</text>
<text x="0.609" y="0.362" font-size="0.005315" fill="hsl(0.0,100%,20%)">chengweih</text>
<text x="0.725" y="0.426" font-size="0.005315" fill="hsl(0.0,100%,20%)">finnur</text>
<text x="0.865" y="0.926" font-size="0.010630" fill="hsl(240.0,100%,20%)">jsbell</text>
<text x="0.507" y="0.498" font-size="0.014062" fill="hsl(120.0,100%,20%)">kbabbitt</text>
<text x="0.496" y="0.525" font-size="0.005315" fill="hsl(120.0,100%,20%)">aaronhk</text>
<text x="1.629" y="0.028" font-size="0.009206" fill="hsl(0.0,100%,20%)">lingqi</text>
<text x="0.835" y="0.562" font-size="0.018411" fill="hsl(240.0,100%,20%)">lisha.guo</text>
<text x="1.457" y="0.575" font-size="0.005315" fill="hsl(180.0,100%,20%)">miketaylr</text>
<text x="1.947" y="0.386" font-size="0.019887" fill="hsl(120.0,100%,20%)">memmott</text>
<text x="1.917" y="0.479" font-size="0.014062" fill="hsl(120.0,100%,20%)">dslee</text>
<text x="1.878" y="0.434" font-size="0.013019" fill="hsl(120.0,100%,20%)">christinesm</text>
<text x="1.607" y="0.355" font-size="0.021914" fill="hsl(240.0,100%,20%)">mingming1.xu</text>
<text x="0.106" y="0.723" font-size="0.007516" fill="hsl(0.0,100%,20%)">wangxianzhu</text>
<text x="0.184" y="0.327" font-size="0.010630" fill="hsl(0.0,100%,20%)">almaher</text>
<text x="0.970" y="0.451" font-size="0.009206" fill="hsl(120.0,100%,20%)">nidhijaju</text>
<text x="0.676" y="0.550" font-size="0.010630" fill="hsl(0.0,100%,20%)">toyoshim</text>
<text x="0.197" y="0.078" font-size="0.005315" fill="hsl(180.0,100%,20%)">shaseley</text>
<text x="0.219" y="0.241" font-size="0.017628" fill="hsl(180.0,100%,20%)">khushalsagar</text>
<text x="0.152" y="0.088" font-size="0.005315" fill="hsl(180.0,100%,20%)">haraken</text>
<text x="0.603" y="0.579" font-size="0.010630" fill="hsl(60.0,100%,20%)">philipp.hancke</text>
<text x="0.499" y="0.587" font-size="0.005315" fill="hsl(60.0,100%,20%)">hta</text>
<text x="0.518" y="0.611" font-size="0.005315" fill="hsl(60.0,100%,20%)">hbos</text>
<text x="1.304" y="0.274" font-size="0.014062" fill="hsl(120.0,100%,20%)">pkotwicz</text>
<text x="1.350" y="0.317" font-size="0.005315" fill="hsl(120.0,100%,20%)">alexrudenko</text>
<text x="1.394" y="0.289" font-size="0.007516" fill="hsl(120.0,100%,20%)">kenrb</text>
<text x="1.143" y="0.285" font-size="0.005315" fill="hsl(120.0,100%,20%)">nsatragno</text>
<text x="1.964" y="0.713" font-size="0.014062" fill="hsl(0.0,100%,20%)">pranavmodi</text>
<text x="1.953" y="0.667" font-size="0.010630" fill="hsl(0.0,100%,20%)">sajos</text>
<text x="0.808" y="0.983" font-size="0.005315" fill="hsl(240.0,100%,20%)">jyasskin</text>
<text x="0.067" y="0.338" font-size="0.015945" fill="hsl(0.0,100%,20%)">samomekarajr</text>
<text x="0.052" y="0.301" font-size="0.009206" fill="hsl(0.0,100%,20%)">ethavar</text>
<text x="1.195" y="0.376" font-size="0.015033" fill="hsl(120.0,100%,20%)">sandormajor</text>
<text x="1.081" y="0.439" font-size="0.007516" fill="hsl(120.0,100%,20%)">rkaplow</text>
<text x="1.123" y="0.336" font-size="0.005315" fill="hsl(120.0,100%,20%)">selya</text>
<text x="0.162" y="0.739" font-size="0.005315" fill="hsl(120.0,100%,20%)">vogelheim</text>
<text x="0.912" y="0.913" font-size="0.011885" fill="hsl(240.0,100%,20%)">shanxing.mei</text>
<text x="1.608" y="0.659" font-size="0.026575" fill="hsl(240.0,100%,20%)">shiyi.zou</text>
<text x="1.296" y="0.061" font-size="0.009206" fill="hsl(0.0,100%,20%)">shwetabindal</text>
<text x="0.717" y="0.470" font-size="0.013019" fill="hsl(0.0,100%,20%)">suzukikeita</text>
<text x="0.812" y="0.478" font-size="0.007516" fill="hsl(0.0,100%,20%)">sisidovski</text>
<text x="0.653" y="0.514" font-size="0.007516" fill="hsl(0.0,100%,20%)">yyanagisawa</text>
<text x="1.127" y="0.175" font-size="0.011885" fill="hsl(0.0,100%,20%)">tanujain</text>
<text x="1.036" y="0.202" font-size="0.005315" fill="hsl(0.0,100%,20%)">akihiroota</text>
<text x="1.480" y="0.225" font-size="0.013019" fill="hsl(0.0,100%,20%)">utpathak</text>
<text x="1.266" y="0.147" font-size="0.009206" fill="hsl(180.0,100%,20%)">wjmaclean</text>
<text x="1.253" y="0.160" font-size="0.005315" fill="hsl(180.0,100%,20%)">greengrape</text>
<text x="1.226" y="0.154" font-size="0.005315" fill="hsl(180.0,100%,20%)">cfredric</text>
<text x="0.846" y="0.421" font-size="0.009206" fill="hsl(120.0,100%,20%)">xiaobincui</text>
<text x="0.958" y="0.499" font-size="0.005315" fill="hsl(120.0,100%,20%)">avi</text>
<text x="0.812" y="0.430" font-size="0.005315" fill="hsl(120.0,100%,20%)">jkim</text>
<text x="1.086" y="0.250" font-size="0.010630" fill="hsl(120.0,100%,20%)">ybourouphael</text>
<text x="1.232" y="0.235" font-size="0.005315" fill="hsl(120.0,100%,20%)">mmenke</text>
<text x="1.137" y="0.223" font-size="0.007516" fill="hsl(120.0,100%,20%)">orrb</text>
<text x="1.207" y="0.683" font-size="0.015033" fill="hsl(180.0,100%,20%)">zhoupeng.1996</text>
</svg>
