<svg width="4000" height="2000" viewBox="-0.025 -0.025 2.05 1.05" xmlns="http://www.w3.org/2000/svg">
  <style>
    path {
      fill: none;
      stroke-linecap: round;
      stroke-opacity: 0.4;
    }

    text {
      text-anchor: middle;
      alignment-baseline: hanging;
    }
  </style>
  <g opacity="0.4">
<path d="M0.152 0.468 Q0.212 0.886 1.039 0.948" stroke="hsl(0.0,100%,35%)" stroke-width="0.00088"></path>
<path d="M0.152 0.468 Q-0.012 0.541 0.093 0.637" stroke="hsl(0.0,100%,35%)" stroke-width="0.00088"></path>
<path d="M0.152 0.468 Q-0.160 0.790 0.399 1.013" stroke="hsl(0.0,100%,35%)" stroke-width="0.00044"></path>
<path d="M1.039 0.948 Q0.911 0.773 0.542 0.797" stroke="hsl(0.0,100%,35%)" stroke-width="0.01372"></path>
<path d="M1.039 0.948 Q0.895 0.758 0.492 0.786" stroke="hsl(0.0,100%,35%)" stroke-width="0.00221"></path>
<path d="M1.039 0.948 Q1.171 1.071 1.441 1.034" stroke="hsl(0.0,100%,35%)" stroke-width="0.03517"></path>
<path d="M1.039 0.948 Q1.040 0.812 0.775 0.782" stroke="hsl(0.0,100%,35%)" stroke-width="0.03495"></path>
<path d="M1.039 0.948 Q1.228 0.955 1.283 0.865" stroke="hsl(0.0,100%,35%)" stroke-width="0.00310"></path>
<path d="M1.039 0.948 Q1.181 0.885 1.089 0.802" stroke="hsl(0.0,100%,35%)" stroke-width="0.00531"></path>
<path d="M1.039 0.948 Q0.880 0.995 0.938 1.083" stroke="hsl(0.0,100%,35%)" stroke-width="0.02699"></path>
<path d="M1.039 0.948 Q0.894 0.932 0.831 1.000" stroke="hsl(0.0,100%,35%)" stroke-width="0.02279"></path>
<path d="M1.039 0.948 Q0.898 0.803 0.585 0.841" stroke="hsl(0.0,100%,35%)" stroke-width="0.00111"></path>
<path d="M1.039 0.948 Q0.667 0.852 0.399 1.013" stroke="hsl(0.0,100%,35%)" stroke-width="0.00642"></path>
<path d="M1.039 0.948 Q1.165 0.897 1.094 0.825" stroke="hsl(0.0,100%,35%)" stroke-width="0.00111"></path>
<path d="M1.039 0.948 Q1.323 0.917 1.325 0.772" stroke="hsl(0.0,100%,35%)" stroke-width="0.00133"></path>
<path d="M1.039 0.948 Q1.084 0.870 0.943 0.832" stroke="hsl(0.0,100%,35%)" stroke-width="0.00044"></path>
<path d="M1.039 0.948 Q1.897 0.799 1.795 0.348" stroke="hsl(0.0,100%,35%)" stroke-width="0.00022"></path>
<path d="M1.039 0.948 Q1.289 0.906 1.263 0.776" stroke="hsl(0.0,100%,35%)" stroke-width="0.00022"></path>
<path d="M1.039 0.948 Q1.156 0.429 0.170 0.258" stroke="hsl(0.0,100%,35%)" stroke-width="0.00022"></path>
<path d="M1.039 0.948 Q0.564 0.990 0.543 1.232" stroke="hsl(0.0,100%,35%)" stroke-width="0.00022"></path>
<path d="M1.039 0.948 Q1.237 0.643 0.687 0.480" stroke="hsl(0.0,100%,35%)" stroke-width="0.00022"></path>
<path d="M1.039 0.948 Q1.369 0.999 1.542 0.850" stroke="hsl(0.0,100%,35%)" stroke-width="0.00022"></path>
<path d="M1.039 0.948 Q-0.004 1.731 1.296 2.413" stroke="hsl(0.0,100%,35%)" stroke-width="0.00022"></path>
<path d="M1.039 0.948 Q1.317 0.890 1.265 0.742" stroke="hsl(0.0,100%,35%)" stroke-width="0.00022"></path>
<path d="M1.039 0.948 Q1.241 0.851 1.096 0.731" stroke="hsl(0.0,100%,35%)" stroke-width="0.00022"></path>
<path d="M0.399 1.013 Q0.772 1.108 1.039 0.948" stroke="hsl(0.0,100%,35%)" stroke-width="0.00730"></path>
<path d="M0.399 1.013 Q0.626 1.093 0.831 1.000" stroke="hsl(0.0,100%,35%)" stroke-width="0.00155"></path>
<path d="M0.399 1.013 Q0.439 0.904 0.236 0.861" stroke="hsl(0.0,100%,35%)" stroke-width="0.00177"></path>
<path d="M0.399 1.013 Q-0.125 1.459 0.630 1.812" stroke="hsl(0.0,100%,35%)" stroke-width="0.00022"></path>
<path d="M0.399 1.013 Q0.913 1.046 1.089 0.802" stroke="hsl(0.0,100%,35%)" stroke-width="0.00332"></path>
<path d="M0.399 1.013 Q0.717 1.207 1.164 1.094" stroke="hsl(0.0,100%,35%)" stroke-width="0.00022"></path>
<path d="M0.399 1.013 Q0.613 1.156 0.938 1.083" stroke="hsl(0.0,100%,35%)" stroke-width="0.00066"></path>
<path d="M0.399 1.013 Q0.889 0.590 0.170 0.258" stroke="hsl(0.0,100%,35%)" stroke-width="0.00133"></path>
<path d="M0.399 1.013 Q0.630 0.964 0.585 0.841" stroke="hsl(0.0,100%,35%)" stroke-width="0.00044"></path>
<path d="M0.399 1.013 Q0.772 0.973 0.775 0.782" stroke="hsl(0.0,100%,35%)" stroke-width="0.00111"></path>
<path d="M0.399 1.013 Q0.643 0.934 0.542 0.797" stroke="hsl(0.0,100%,35%)" stroke-width="0.00022"></path>
<path d="M0.399 1.013 Q0.903 1.232 1.441 1.034" stroke="hsl(0.0,100%,35%)" stroke-width="0.00022"></path>
<path d="M1.723 0.492 Q1.017 0.583 1.039 0.948" stroke="hsl(0.0,100%,35%)" stroke-width="0.00022"></path>
<path d="M1.723 0.492 Q1.874 0.434 1.795 0.348" stroke="hsl(0.0,100%,35%)" stroke-width="0.00022"></path>
<path d="M1.723 0.492 Q0.858 0.630 0.938 1.083" stroke="hsl(0.0,100%,35%)" stroke-width="0.00022"></path>
<path d="M0.938 1.083 Q1.097 1.035 1.039 0.948" stroke="hsl(0.0,100%,35%)" stroke-width="0.01128"></path>
<path d="M0.938 1.083 Q1.285 1.043 1.283 0.865" stroke="hsl(0.0,100%,35%)" stroke-width="0.00088"></path>
<path d="M0.938 1.083 Q0.951 1.020 0.831 1.000" stroke="hsl(0.0,100%,35%)" stroke-width="0.00111"></path>
<path d="M0.938 1.083 Q1.238 0.973 1.089 0.802" stroke="hsl(0.0,100%,35%)" stroke-width="0.00066"></path>
<path d="M0.938 1.083 Q1.685 0.817 1.330 0.394" stroke="hsl(0.0,100%,35%)" stroke-width="0.00022"></path>
<path d="M0.938 1.083 Q1.325 0.980 1.210 0.768" stroke="hsl(0.0,100%,35%)" stroke-width="0.00022"></path>
<path d="M1.069 0.597 Q0.773 0.766 1.039 0.948" stroke="hsl(0.0,100%,35%)" stroke-width="0.00177"></path>
<path d="M1.069 0.597 Q0.628 0.751 0.831 1.000" stroke="hsl(0.0,100%,35%)" stroke-width="0.00133"></path>
<path d="M1.069 0.597 Q0.774 0.631 0.775 0.782" stroke="hsl(0.0,100%,35%)" stroke-width="0.00022"></path>
<path d="M1.069 0.597 Q0.401 0.671 0.399 1.013" stroke="hsl(0.0,100%,35%)" stroke-width="0.00044"></path>
<path d="M1.069 0.597 Q0.962 0.774 1.283 0.865" stroke="hsl(0.0,100%,35%)" stroke-width="0.00022"></path>
<path d="M0.831 1.000 Q1.165 1.022 1.283 0.865" stroke="hsl(0.0,100%,35%)" stroke-width="0.00531"></path>
<path d="M0.831 1.000 Q0.977 1.015 1.039 0.948" stroke="hsl(0.0,100%,35%)" stroke-width="0.07455"></path>
<path d="M0.831 1.000 Q0.977 0.880 0.775 0.782" stroke="hsl(0.0,100%,35%)" stroke-width="0.04845"></path>
<path d="M0.831 1.000 Q0.835 0.871 0.585 0.841" stroke="hsl(0.0,100%,35%)" stroke-width="0.01416"></path>
<path d="M0.831 1.000 Q0.080 1.366 0.630 1.812" stroke="hsl(0.0,100%,35%)" stroke-width="0.00044"></path>
<path d="M0.831 1.000 Q1.094 0.496 0.170 0.258" stroke="hsl(0.0,100%,35%)" stroke-width="0.00133"></path>
<path d="M0.831 1.000 Q0.818 1.062 0.938 1.083" stroke="hsl(0.0,100%,35%)" stroke-width="0.00597"></path>
<path d="M0.831 1.000 Q1.150 0.899 1.024 0.721" stroke="hsl(0.0,100%,35%)" stroke-width="0.00022"></path>
<path d="M0.831 1.000 Q1.118 0.952 1.089 0.802" stroke="hsl(0.0,100%,35%)" stroke-width="0.00376"></path>
<path d="M0.831 1.000 Q0.605 0.920 0.399 1.013" stroke="hsl(0.0,100%,35%)" stroke-width="0.00133"></path>
<path d="M0.831 1.000 Q1.108 1.139 1.441 1.034" stroke="hsl(0.0,100%,35%)" stroke-width="0.00066"></path>
<path d="M0.831 1.000 Q0.832 0.825 0.492 0.786" stroke="hsl(0.0,100%,35%)" stroke-width="0.00243"></path>
<path d="M0.831 1.000 Q0.642 1.072 0.742 1.181" stroke="hsl(0.0,100%,35%)" stroke-width="0.00044"></path>
<path d="M0.831 1.000 Q1.047 0.806 0.716 0.658" stroke="hsl(0.0,100%,35%)" stroke-width="0.00022"></path>
<path d="M0.831 1.000 Q1.255 0.958 1.265 0.742" stroke="hsl(0.0,100%,35%)" stroke-width="0.00022"></path>
<path d="M0.831 1.000 Q1.374 0.564 0.643 0.204" stroke="hsl(0.0,100%,35%)" stroke-width="0.00022"></path>
<path d="M0.831 1.000 Q0.895 0.871 0.659 0.812" stroke="hsl(0.0,100%,35%)" stroke-width="0.00022"></path>
<path d="M0.831 1.000 Q0.849 0.841 0.542 0.797" stroke="hsl(0.0,100%,35%)" stroke-width="0.00133"></path>
<path d="M0.775 0.782 Q0.633 0.774 0.585 0.841" stroke="hsl(0.0,100%,35%)" stroke-width="0.00398"></path>
<path d="M0.775 0.782 Q0.629 0.902 0.831 1.000" stroke="hsl(0.0,100%,35%)" stroke-width="0.00708"></path>
<path d="M0.775 0.782 Q0.775 0.918 1.039 0.948" stroke="hsl(0.0,100%,35%)" stroke-width="0.01925"></path>
<path d="M0.775 0.782 Q0.402 0.822 0.399 1.013" stroke="hsl(0.0,100%,35%)" stroke-width="0.00332"></path>
<path d="M0.775 0.782 Q0.906 1.041 1.441 1.034" stroke="hsl(0.0,100%,35%)" stroke-width="0.00863"></path>
<path d="M0.775 0.782 Q0.963 0.925 1.283 0.865" stroke="hsl(0.0,100%,35%)" stroke-width="0.00066"></path>
<path d="M0.775 0.782 Q0.616 0.965 0.938 1.083" stroke="hsl(0.0,100%,35%)" stroke-width="0.00088"></path>
<path d="M0.775 0.782 Q0.243 1.006 0.562 1.314" stroke="hsl(0.0,100%,35%)" stroke-width="0.00022"></path>
<path d="M0.775 0.782 Q1.104 0.969 1.542 0.850" stroke="hsl(0.0,100%,35%)" stroke-width="0.00022"></path>
<path d="M0.775 0.782 Q0.646 0.743 0.542 0.797" stroke="hsl(0.0,100%,35%)" stroke-width="0.00044"></path>
<path d="M0.775 0.782 Q0.976 0.821 1.096 0.731" stroke="hsl(0.0,100%,35%)" stroke-width="0.00022"></path>
<path d="M1.283 0.865 Q0.936 0.905 0.938 1.083" stroke="hsl(0.0,100%,35%)" stroke-width="0.00221"></path>
<path d="M1.283 0.865 Q1.095 0.857 1.039 0.948" stroke="hsl(0.0,100%,35%)" stroke-width="0.00509"></path>
<path d="M1.283 0.865 Q0.949 0.842 0.831 1.000" stroke="hsl(0.0,100%,35%)" stroke-width="0.00465"></path>
<path d="M1.283 0.865 Q1.226 0.981 1.441 1.034" stroke="hsl(0.0,100%,35%)" stroke-width="0.00332"></path>
<path d="M1.283 0.865 Q0.722 0.762 0.399 1.013" stroke="hsl(0.0,100%,35%)" stroke-width="0.00088"></path>
<path d="M1.283 0.865 Q1.095 0.722 0.775 0.782" stroke="hsl(0.0,100%,35%)" stroke-width="0.00354"></path>
<path d="M1.283 0.865 Q1.513 0.805 1.448 0.680" stroke="hsl(0.0,100%,35%)" stroke-width="0.00066"></path>
<path d="M1.283 0.865 Q0.648 0.875 0.529 1.187" stroke="hsl(0.0,100%,35%)" stroke-width="0.00022"></path>
<path d="M1.283 0.865 Q1.212 0.339 0.170 0.258" stroke="hsl(0.0,100%,35%)" stroke-width="0.00022"></path>
<path d="M1.283 0.865 Q0.953 0.713 0.585 0.841" stroke="hsl(0.0,100%,35%)" stroke-width="0.00044"></path>
<path d="M1.283 0.865 Q0.966 0.683 0.542 0.797" stroke="hsl(0.0,100%,35%)" stroke-width="0.00177"></path>
<path d="M0.659 0.812 Q0.741 0.956 1.039 0.948" stroke="hsl(0.0,100%,35%)" stroke-width="0.00398"></path>
<path d="M0.659 0.812 Q0.595 0.940 0.831 1.000" stroke="hsl(0.0,100%,35%)" stroke-width="0.00376"></path>
<path d="M0.659 0.812 Q0.741 0.820 0.775 0.782" stroke="hsl(0.0,100%,35%)" stroke-width="0.00133"></path>
<path d="M0.898 0.836 Q0.507 0.825 0.399 1.013" stroke="hsl(0.0,100%,35%)" stroke-width="0.00022"></path>
<path d="M0.898 0.836 Q0.879 0.920 1.039 0.948" stroke="hsl(0.0,100%,35%)" stroke-width="0.00022"></path>
<path d="M0.898 0.836 Q0.734 0.904 0.831 1.000" stroke="hsl(0.0,100%,35%)" stroke-width="0.00022"></path>
<path d="M0.585 0.841 Q0.727 0.985 1.039 0.948" stroke="hsl(0.0,100%,35%)" stroke-width="0.01615"></path>
<path d="M0.585 0.841 Q0.581 0.969 0.831 1.000" stroke="hsl(0.0,100%,35%)" stroke-width="0.00995"></path>
<path d="M0.585 0.841 Q0.727 0.849 0.775 0.782" stroke="hsl(0.0,100%,35%)" stroke-width="0.00973"></path>
<path d="M0.585 0.841 Q0.355 0.890 0.399 1.013" stroke="hsl(0.0,100%,35%)" stroke-width="0.00066"></path>
<path d="M0.585 0.841 Q0.915 0.992 1.283 0.865" stroke="hsl(0.0,100%,35%)" stroke-width="0.00686"></path>
<path d="M0.585 0.841 Q0.858 1.109 1.441 1.034" stroke="hsl(0.0,100%,35%)" stroke-width="0.00133"></path>
<path d="M0.585 0.841 Q0.599 0.811 0.542 0.797" stroke="hsl(0.0,100%,35%)" stroke-width="0.00022"></path>
<path d="M1.441 1.034 Q1.310 0.911 1.039 0.948" stroke="hsl(0.0,100%,35%)" stroke-width="0.02279"></path>
<path d="M1.441 1.034 Q1.310 0.775 0.775 0.782" stroke="hsl(0.0,100%,35%)" stroke-width="0.01460"></path>
<path d="M1.441 1.034 Q1.164 0.895 0.831 1.000" stroke="hsl(0.0,100%,35%)" stroke-width="0.00199"></path>
<path d="M1.441 1.034 Q1.720 0.898 1.515 0.731" stroke="hsl(0.0,100%,35%)" stroke-width="0.00022"></path>
<path d="M1.441 1.034 Q1.165 0.721 0.492 0.786" stroke="hsl(0.0,100%,35%)" stroke-width="0.00044"></path>
<path d="M1.441 1.034 Q1.168 0.766 0.585 0.841" stroke="hsl(0.0,100%,35%)" stroke-width="0.00066"></path>
<path d="M1.441 1.034 Q1.151 0.958 0.938 1.083" stroke="hsl(0.0,100%,35%)" stroke-width="0.00022"></path>
<path d="M1.441 1.034 Q0.266 1.694 1.296 2.413" stroke="hsl(0.0,100%,35%)" stroke-width="0.00022"></path>
<path d="M1.441 1.034 Q1.181 0.736 0.542 0.797" stroke="hsl(0.0,100%,35%)" stroke-width="0.00465"></path>
<path d="M0.542 0.797 Q0.671 0.972 1.039 0.948" stroke="hsl(0.0,100%,35%)" stroke-width="0.00310"></path>
<path d="M0.542 0.797 Q0.525 0.956 0.831 1.000" stroke="hsl(0.0,100%,35%)" stroke-width="0.00088"></path>
<path d="M0.542 0.797 Q0.671 0.836 0.775 0.782" stroke="hsl(0.0,100%,35%)" stroke-width="0.00221"></path>
<path d="M0.542 0.797 Q0.512 1.019 0.938 1.083" stroke="hsl(0.0,100%,35%)" stroke-width="0.00022"></path>
<path d="M0.542 0.797 Q0.802 1.096 1.441 1.034" stroke="hsl(0.0,100%,35%)" stroke-width="0.00088"></path>
<path d="M0.542 0.797 Q0.859 0.979 1.283 0.865" stroke="hsl(0.0,100%,35%)" stroke-width="0.00022"></path>
<path d="M0.675 0.363 Q-0.507 1.079 0.630 1.812" stroke="hsl(0.0,100%,35%)" stroke-width="0.00022"></path>
<path d="M0.675 0.363 Q0.244 0.713 0.831 1.000" stroke="hsl(0.0,100%,35%)" stroke-width="0.00066"></path>
<path d="M0.675 0.363 Q0.390 0.593 0.775 0.782" stroke="hsl(0.0,100%,35%)" stroke-width="0.00022"></path>
<path d="M0.675 0.363 Q0.390 0.728 1.039 0.948" stroke="hsl(0.0,100%,35%)" stroke-width="0.00044"></path>
<path d="M0.492 0.786 Q0.637 0.976 1.039 0.948" stroke="hsl(0.0,100%,35%)" stroke-width="0.02345"></path>
<path d="M0.492 0.786 Q0.491 0.961 0.831 1.000" stroke="hsl(0.0,100%,35%)" stroke-width="0.02345"></path>
<path d="M0.492 0.786 Q0.637 0.841 0.775 0.782" stroke="hsl(0.0,100%,35%)" stroke-width="0.00199"></path>
<path d="M0.492 0.786 Q0.264 0.881 0.399 1.013" stroke="hsl(0.0,100%,35%)" stroke-width="0.00044"></path>
<path d="M0.492 0.786 Q0.768 1.100 1.441 1.034" stroke="hsl(0.0,100%,35%)" stroke-width="0.00044"></path>
<path d="M0.687 0.480 Q0.489 0.784 1.039 0.948" stroke="hsl(0.0,100%,35%)" stroke-width="0.00044"></path>
<path d="M0.687 0.480 Q0.344 0.769 0.831 1.000" stroke="hsl(0.0,100%,35%)" stroke-width="0.00044"></path>
<path d="M0.687 0.480 Q0.331 0.832 0.938 1.083" stroke="hsl(0.0,100%,35%)" stroke-width="0.00022"></path>
<path d="M0.236 0.861 Q0.196 0.970 0.399 1.013" stroke="hsl(0.0,100%,35%)" stroke-width="0.00487"></path>
<path d="M0.236 0.861 Q0.710 1.002 1.089 0.802" stroke="hsl(0.0,100%,35%)" stroke-width="0.00199"></path>
<path d="M0.236 0.861 Q0.423 1.049 0.831 1.000" stroke="hsl(0.0,100%,35%)" stroke-width="0.00155"></path>
<path d="M0.236 0.861 Q0.685 0.546 0.170 0.258" stroke="hsl(0.0,100%,35%)" stroke-width="0.00022"></path>
<path d="M0.236 0.861 Q0.568 1.065 1.039 0.948" stroke="hsl(0.0,100%,35%)" stroke-width="0.00221"></path>
<path d="M1.089 0.802 Q0.948 0.865 1.039 0.948" stroke="hsl(0.0,100%,35%)" stroke-width="0.00597"></path>
<path d="M1.089 0.802 Q0.789 0.912 0.938 1.083" stroke="hsl(0.0,100%,35%)" stroke-width="0.00088"></path>
<path d="M1.089 0.802 Q1.079 0.988 1.441 1.034" stroke="hsl(0.0,100%,35%)" stroke-width="0.00044"></path>
<path d="M1.089 0.802 Q0.576 0.770 0.399 1.013" stroke="hsl(0.0,100%,35%)" stroke-width="0.00310"></path>
<path d="M1.089 0.802 Q0.802 0.849 0.831 1.000" stroke="hsl(0.0,100%,35%)" stroke-width="0.00288"></path>
<path d="M1.089 0.802 Q1.065 0.346 0.170 0.258" stroke="hsl(0.0,100%,35%)" stroke-width="0.00044"></path>
<path d="M1.164 1.094 Q1.219 0.996 1.039 0.948" stroke="hsl(0.0,100%,35%)" stroke-width="0.00752"></path>
<path d="M1.164 1.094 Q1.074 0.980 0.831 1.000" stroke="hsl(0.0,100%,35%)" stroke-width="0.00155"></path>
<path d="M1.164 1.094 Q1.336 0.477 0.170 0.258" stroke="hsl(0.0,100%,35%)" stroke-width="0.00221"></path>
<path d="M1.164 1.094 Q0.847 0.901 0.399 1.013" stroke="hsl(0.0,100%,35%)" stroke-width="0.00265"></path>
<path d="M1.164 1.094 Q1.497 0.938 1.265 0.742" stroke="hsl(0.0,100%,35%)" stroke-width="0.00155"></path>
<path d="M1.164 1.094 Q1.361 0.933 1.089 0.802" stroke="hsl(0.0,100%,35%)" stroke-width="0.00044"></path>
<path d="M0.170 0.258 Q0.194 0.714 1.089 0.802" stroke="hsl(0.0,100%,35%)" stroke-width="0.00111"></path>
<path d="M0.170 0.258 Q0.053 0.777 1.039 0.948" stroke="hsl(0.0,100%,35%)" stroke-width="0.00177"></path>
<path d="M0.170 0.258 Q-0.106 0.824 0.938 1.083" stroke="hsl(0.0,100%,35%)" stroke-width="0.00088"></path>
<path d="M0.170 0.258 Q-0.093 0.761 0.831 1.000" stroke="hsl(0.0,100%,35%)" stroke-width="0.00221"></path>
<path d="M0.170 0.258 Q0.329 0.230 0.310 0.146" stroke="hsl(0.0,100%,35%)" stroke-width="0.00022"></path>
<path d="M0.170 0.258 Q0.184 0.900 1.441 1.034" stroke="hsl(0.0,100%,35%)" stroke-width="0.00044"></path>
<path d="M0.170 0.258 Q-0.320 0.681 0.399 1.013" stroke="hsl(0.0,100%,35%)" stroke-width="0.00088"></path>
<path d="M0.170 0.258 Q0.450 0.326 0.643 0.204" stroke="hsl(0.0,100%,35%)" stroke-width="0.00022"></path>
<path d="M1.325 0.772 Q1.042 0.803 1.039 0.948" stroke="hsl(0.0,100%,35%)" stroke-width="0.02367"></path>
<path d="M1.325 0.772 Q1.174 0.926 1.441 1.034" stroke="hsl(0.0,100%,35%)" stroke-width="0.01571"></path>
<path d="M1.325 0.772 Q1.042 0.667 0.775 0.782" stroke="hsl(0.0,100%,35%)" stroke-width="0.00066"></path>
<path d="M1.325 0.772 Q1.183 0.740 1.089 0.802" stroke="hsl(0.0,100%,35%)" stroke-width="0.00022"></path>
<path d="M1.325 0.772 Q0.896 0.787 0.831 1.000" stroke="hsl(0.0,100%,35%)" stroke-width="0.00022"></path>
<path d="M1.325 0.772 Q0.670 0.707 0.399 1.013" stroke="hsl(0.0,100%,35%)" stroke-width="0.00044"></path>
<path d="M0.397 0.304 Q0.320 0.235 0.170 0.258" stroke="hsl(0.0,100%,35%)" stroke-width="0.00420"></path>
<path d="M0.397 0.304 Q0.058 0.739 0.831 1.000" stroke="hsl(0.0,100%,35%)" stroke-width="0.00265"></path>
<path d="M0.397 0.304 Q0.418 0.166 0.154 0.125" stroke="hsl(0.0,100%,35%)" stroke-width="0.00022"></path>
<path d="M0.397 0.304 Q0.203 0.754 1.039 0.948" stroke="hsl(0.0,100%,35%)" stroke-width="0.00177"></path>
<path d="M0.154 0.125 Q0.056 0.195 0.170 0.258" stroke="hsl(0.0,100%,35%)" stroke-width="0.00111"></path>
<path d="M0.154 0.125 Q-0.207 0.698 0.831 1.000" stroke="hsl(0.0,100%,35%)" stroke-width="0.00022"></path>
<path d="M0.154 0.125 Q0.133 0.263 0.397 0.304" stroke="hsl(0.0,100%,35%)" stroke-width="0.00044"></path>
<path d="M0.154 0.125 Q0.217 0.656 1.265 0.742" stroke="hsl(0.0,100%,35%)" stroke-width="0.00022"></path>
<path d="M0.154 0.125 Q0.081 0.651 1.089 0.802" stroke="hsl(0.0,100%,35%)" stroke-width="0.00088"></path>
<path d="M0.650 0.724 Q0.524 0.769 0.585 0.841" stroke="hsl(0.0,100%,35%)" stroke-width="0.00022"></path>
<path d="M0.650 0.724 Q0.520 0.898 0.831 1.000" stroke="hsl(0.0,100%,35%)" stroke-width="0.00022"></path>
<path d="M0.650 0.724 Q0.797 1.037 1.441 1.034" stroke="hsl(0.0,100%,35%)" stroke-width="0.00022"></path>
<path d="M1.448 0.680 Q1.218 0.739 1.283 0.865" stroke="hsl(0.0,100%,35%)" stroke-width="0.00088"></path>
<path d="M1.448 0.680 Q1.565 0.684 1.599 0.627" stroke="hsl(0.0,100%,35%)" stroke-width="0.00022"></path>
<path d="M1.448 0.680 Q1.030 0.732 1.039 0.948" stroke="hsl(0.0,100%,35%)" stroke-width="0.00022"></path>
<path d="M1.448 0.680 Q1.161 0.856 1.441 1.034" stroke="hsl(0.0,100%,35%)" stroke-width="0.00044"></path>
<path d="M0.529 1.187 Q0.976 1.169 1.039 0.948" stroke="hsl(0.0,100%,35%)" stroke-width="0.00088"></path>
<path d="M0.529 1.187 Q0.830 1.154 0.831 1.000" stroke="hsl(0.0,100%,35%)" stroke-width="0.00022"></path>
<path d="M0.529 1.187 Q0.603 1.074 0.399 1.013" stroke="hsl(0.0,100%,35%)" stroke-width="0.00066"></path>
<path d="M0.629 0.800 Q0.904 0.963 1.283 0.865" stroke="hsl(0.0,100%,35%)" stroke-width="0.00022"></path>
<path d="M0.629 0.800 Q0.716 0.956 1.039 0.948" stroke="hsl(0.0,100%,35%)" stroke-width="0.00177"></path>
<path d="M0.629 0.800 Q0.344 0.861 0.399 1.013" stroke="hsl(0.0,100%,35%)" stroke-width="0.00066"></path>
<path d="M0.629 0.800 Q0.571 0.940 0.831 1.000" stroke="hsl(0.0,100%,35%)" stroke-width="0.00155"></path>
<path d="M0.643 0.204 Q0.246 0.655 1.039 0.948" stroke="hsl(0.0,100%,35%)" stroke-width="0.00088"></path>
<path d="M0.643 0.204 Q0.363 0.136 0.170 0.258" stroke="hsl(0.0,100%,35%)" stroke-width="0.00398"></path>
<path d="M0.643 0.204 Q0.101 0.639 0.831 1.000" stroke="hsl(0.0,100%,35%)" stroke-width="0.00133"></path>
<path d="M0.643 0.204 Q0.388 0.592 1.089 0.802" stroke="hsl(0.0,100%,35%)" stroke-width="0.00177"></path>
<path d="M0.643 0.204 Q-0.126 0.560 0.399 1.013" stroke="hsl(0.0,100%,35%)" stroke-width="0.00066"></path>
<path d="M1.024 0.721 Q0.851 0.837 1.039 0.948" stroke="hsl(0.0,100%,35%)" stroke-width="0.00088"></path>
<path d="M1.024 0.721 Q0.705 0.822 0.831 1.000" stroke="hsl(0.0,100%,35%)" stroke-width="0.00022"></path>
<path d="M1.024 0.721 Q0.478 0.742 0.399 1.013" stroke="hsl(0.0,100%,35%)" stroke-width="0.00044"></path>
<path d="M1.277 0.103 Q0.110 0.383 0.399 1.013" stroke="hsl(0.0,100%,35%)" stroke-width="0.00088"></path>
<path d="M1.277 0.103 Q0.483 0.478 1.039 0.948" stroke="hsl(0.0,100%,35%)" stroke-width="0.00111"></path>
<path d="M1.277 0.103 Q0.337 0.462 0.831 1.000" stroke="hsl(0.0,100%,35%)" stroke-width="0.00022"></path>
<path d="M1.542 0.850 Q0.840 0.703 0.399 1.013" stroke="hsl(0.0,100%,35%)" stroke-width="0.00155"></path>
<path d="M1.542 0.850 Q1.213 0.798 1.039 0.948" stroke="hsl(0.0,100%,35%)" stroke-width="0.00288"></path>
<path d="M1.542 0.850 Q1.354 0.735 1.089 0.802" stroke="hsl(0.0,100%,35%)" stroke-width="0.00022"></path>
<path d="M1.542 0.850 Q1.329 0.279 0.170 0.258" stroke="hsl(0.0,100%,35%)" stroke-width="0.00022"></path>
<path d="M1.542 0.850 Q1.067 0.783 0.831 1.000" stroke="hsl(0.0,100%,35%)" stroke-width="0.00066"></path>
<path d="M1.542 0.850 Q1.344 0.922 1.441 1.034" stroke="hsl(0.0,100%,35%)" stroke-width="0.00022"></path>
<path d="M1.677 0.864 Q1.423 0.902 1.441 1.034" stroke="hsl(0.0,100%,35%)" stroke-width="0.00907"></path>
<path d="M1.677 0.864 Q1.291 0.778 1.039 0.948" stroke="hsl(0.0,100%,35%)" stroke-width="0.01040"></path>
<path d="M1.677 0.864 Q0.919 0.683 0.399 1.013" stroke="hsl(0.0,100%,35%)" stroke-width="0.00022"></path>
<path d="M0.313 0.700 Q0.106 0.874 0.399 1.013" stroke="hsl(0.0,100%,35%)" stroke-width="0.00044"></path>
<path d="M0.313 0.700 Q0.478 0.969 1.039 0.948" stroke="hsl(0.0,100%,35%)" stroke-width="0.00044"></path>
<path d="M0.313 0.700 Q0.333 0.954 0.831 1.000" stroke="hsl(0.0,100%,35%)" stroke-width="0.00022"></path>
<path d="M0.313 0.700 Q0.479 0.834 0.775 0.782" stroke="hsl(0.0,100%,35%)" stroke-width="0.00022"></path>
<path d="M1.267 1.154 Q1.318 1.005 1.039 0.948" stroke="hsl(0.0,100%,35%)" stroke-width="0.00619"></path>
<path d="M1.267 1.154 Q1.460 0.943 1.089 0.802" stroke="hsl(0.0,100%,35%)" stroke-width="0.00199"></path>
<path d="M1.267 1.154 Q1.435 0.487 0.170 0.258" stroke="hsl(0.0,100%,35%)" stroke-width="0.00088"></path>
<path d="M1.267 1.154 Q1.173 0.990 0.831 1.000" stroke="hsl(0.0,100%,35%)" stroke-width="0.00111"></path>
<path d="M1.267 1.154 Q0.946 0.910 0.399 1.013" stroke="hsl(0.0,100%,35%)" stroke-width="0.00022"></path>
<path d="M1.389 0.820 Q1.244 0.937 1.441 1.034" stroke="hsl(0.0,100%,35%)" stroke-width="0.01217"></path>
<path d="M1.389 0.820 Q1.112 0.814 1.039 0.948" stroke="hsl(0.0,100%,35%)" stroke-width="0.01283"></path>
<path d="M1.389 0.820 Q0.966 0.798 0.831 1.000" stroke="hsl(0.0,100%,35%)" stroke-width="0.00066"></path>
<path d="M1.389 0.820 Q0.967 0.624 0.492 0.786" stroke="hsl(0.0,100%,35%)" stroke-width="0.00022"></path>
<path d="M1.389 0.820 Q0.740 0.718 0.399 1.013" stroke="hsl(0.0,100%,35%)" stroke-width="0.00022"></path>
<path d="M1.475 0.845 Q1.033 0.665 0.585 0.841" stroke="hsl(0.0,100%,35%)" stroke-width="0.00022"></path>
<path d="M1.475 0.845 Q1.306 0.933 1.441 1.034" stroke="hsl(0.0,100%,35%)" stroke-width="0.00022"></path>
<path d="M1.475 0.845 Q1.016 0.857 0.938 1.083" stroke="hsl(0.0,100%,35%)" stroke-width="0.00022"></path>
<path d="M1.475 0.845 Q1.175 0.809 1.039 0.948" stroke="hsl(0.0,100%,35%)" stroke-width="0.00022"></path>
<path d="M1.475 0.845 Q1.029 0.794 0.831 1.000" stroke="hsl(0.0,100%,35%)" stroke-width="0.00022"></path>
<path d="M0.562 1.314 Q0.722 1.131 0.399 1.013" stroke="hsl(0.0,100%,35%)" stroke-width="0.00088"></path>
<path d="M0.562 1.314 Q1.094 1.226 1.039 0.948" stroke="hsl(0.0,100%,35%)" stroke-width="0.00066"></path>
<path d="M0.562 1.314 Q0.949 1.211 0.831 1.000" stroke="hsl(0.0,100%,35%)" stroke-width="0.00044"></path>
<path d="M0.562 1.314 Q1.094 1.091 0.775 0.782" stroke="hsl(0.0,100%,35%)" stroke-width="0.00111"></path>
<path d="M0.562 1.314 Q1.952 1.077 1.795 0.348" stroke="hsl(0.0,100%,35%)" stroke-width="0.00022"></path>
<path d="M0.562 1.314 Q1.226 1.350 1.441 1.034" stroke="hsl(0.0,100%,35%)" stroke-width="0.00022"></path>
<path d="M0.562 1.314 Q1.282 1.234 1.283 0.865" stroke="hsl(0.0,100%,35%)" stroke-width="0.00022"></path>
<path d="M1.284 0.528 Q0.680 0.673 0.831 1.000" stroke="hsl(0.0,100%,35%)" stroke-width="0.00199"></path>
<path d="M1.284 0.528 Q0.826 0.689 1.039 0.948" stroke="hsl(0.0,100%,35%)" stroke-width="0.00066"></path>
<path d="M1.284 0.528 Q1.414 0.470 1.330 0.394" stroke="hsl(0.0,100%,35%)" stroke-width="0.00022"></path>
<path d="M1.284 0.528 Q0.454 0.593 0.399 1.013" stroke="hsl(0.0,100%,35%)" stroke-width="0.00022"></path>
<path d="M1.210 0.768 Q0.609 0.729 0.399 1.013" stroke="hsl(0.0,100%,35%)" stroke-width="0.00066"></path>
<path d="M1.210 0.768 Q1.775 0.449 1.277 0.103" stroke="hsl(0.0,100%,35%)" stroke-width="0.00022"></path>
<path d="M1.210 0.768 Q0.981 0.824 1.039 0.948" stroke="hsl(0.0,100%,35%)" stroke-width="0.00155"></path>
<path d="M1.210 0.768 Q0.836 0.808 0.831 1.000" stroke="hsl(0.0,100%,35%)" stroke-width="0.00022"></path>
<path d="M0.918 0.690 Q0.772 0.843 1.039 0.948" stroke="hsl(0.0,100%,35%)" stroke-width="0.00044"></path>
<path d="M0.918 0.690 Q0.627 0.827 0.831 1.000" stroke="hsl(0.0,100%,35%)" stroke-width="0.00066"></path>
<path d="M0.918 0.690 Q0.773 0.707 0.775 0.782" stroke="hsl(0.0,100%,35%)" stroke-width="0.00022"></path>
<path d="M0.613 1.095 Q0.944 1.106 1.039 0.948" stroke="hsl(0.0,100%,35%)" stroke-width="0.00243"></path>
<path d="M0.613 1.095 Q0.798 1.091 0.831 1.000" stroke="hsl(0.0,100%,35%)" stroke-width="0.00221"></path>
<path d="M0.613 1.095 Q0.799 0.916 0.492 0.786" stroke="hsl(0.0,100%,35%)" stroke-width="0.00022"></path>
<path d="M1.433 0.237 Q0.295 0.418 0.399 1.013" stroke="hsl(0.0,100%,35%)" stroke-width="0.00044"></path>
<path d="M1.433 0.237 Q1.461 0.139 1.277 0.103" stroke="hsl(0.0,100%,35%)" stroke-width="0.00133"></path>
<path d="M1.433 0.237 Q0.667 0.513 1.039 0.948" stroke="hsl(0.0,100%,35%)" stroke-width="0.00133"></path>
<path d="M1.433 0.237 Q0.522 0.498 0.831 1.000" stroke="hsl(0.0,100%,35%)" stroke-width="0.00022"></path>
<path d="M1.168 0.738 Q0.563 0.722 0.399 1.013" stroke="hsl(0.0,100%,35%)" stroke-width="0.00022"></path>
<path d="M1.168 0.738 Q0.936 0.817 1.039 0.948" stroke="hsl(0.0,100%,35%)" stroke-width="0.00022"></path>
<path d="M1.168 0.738 Q0.790 0.801 0.831 1.000" stroke="hsl(0.0,100%,35%)" stroke-width="0.00022"></path>
<path d="M1.230 0.835 Q1.176 0.977 1.441 1.034" stroke="hsl(0.0,100%,35%)" stroke-width="0.00022"></path>
<path d="M1.230 0.835 Q1.045 0.853 1.039 0.948" stroke="hsl(0.0,100%,35%)" stroke-width="0.00066"></path>
<path d="M1.230 0.835 Q1.045 0.718 0.775 0.782" stroke="hsl(0.0,100%,35%)" stroke-width="0.00022"></path>
<path d="M1.230 0.835 Q1.233 0.861 1.283 0.865" stroke="hsl(0.0,100%,35%)" stroke-width="0.00022"></path>
<path d="M1.230 0.835 Q0.899 0.838 0.831 1.000" stroke="hsl(0.0,100%,35%)" stroke-width="0.00022"></path>
</g>
<text x="0.152" y="0.465" font-size="0.007466" fill="hsl(0.0,100%,20%)">adkushwa</text>
<text x="1.039" y="0.895" font-size="0.105003" fill="hsl(0.0,100%,20%)">jmadill</text>
<text x="0.093" y="0.634" font-size="0.004722" fill="hsl(0.0,100%,20%)">rafael.cintron</text>
<text x="0.399" y="0.995" font-size="0.036500" fill="hsl(0.0,100%,20%)">geofflang</text>
<text x="1.723" y="0.490" font-size="0.004089" fill="hsl(0.0,100%,20%)">amaiorano</text>
<text x="1.795" y="0.346" font-size="0.004089" fill="hsl(0.0,100%,20%)">nicolascapens</text>
<text x="0.938" y="1.064" font-size="0.036879" fill="hsl(0.0,100%,20%)">ynovikov</text>
<text x="1.069" y="0.592" font-size="0.010017" fill="hsl(0.0,100%,20%)">amy.liu</text>
<text x="0.831" y="0.959" font-size="0.081786" fill="hsl(0.0,100%,20%)">syoussefi</text>
<text x="0.775" y="0.750" font-size="0.064614" fill="hsl(0.0,100%,20%)">timvp</text>
<text x="1.283" y="0.848" font-size="0.032458" fill="hsl(0.0,100%,20%)">ianelliott</text>
<text x="0.659" y="0.805" font-size="0.015301" fill="hsl(0.0,100%,20%)">b.schade</text>
<text x="0.898" y="0.834" font-size="0.004089" fill="hsl(0.0,100%,20%)">capn</text>
<text x="0.585" y="0.821" font-size="0.040825" fill="hsl(0.0,100%,20%)">cclao</text>
<text x="1.441" y="1.005" font-size="0.058502" fill="hsl(0.0,100%,20%)">cnorthrop</text>
<text x="0.542" y="0.784" font-size="0.027432" fill="hsl(0.0,100%,20%)">courtneygo</text>
<text x="0.675" y="0.360" font-size="0.006247" fill="hsl(0.0,100%,20%)">cheryl.wei</text>
<text x="0.630" y="1.810" font-size="0.004722" fill="hsl(0.0,100%,20%)">sunny.sun</text>
<text x="1.515" y="0.730" font-size="0.002361" fill="hsl(0.0,100%,20%)">bajones</text>
<text x="0.492" y="0.768" font-size="0.037330" fill="hsl(0.0,100%,20%)">m.maiya</text>
<text x="1.296" y="2.411" font-size="0.003339" fill="hsl(0.0,100%,20%)">paulthomson</text>
<text x="0.687" y="0.477" font-size="0.005783" fill="hsl(0.0,100%,20%)">cwallez</text>
<text x="0.236" y="0.852" font-size="0.017825" fill="hsl(0.0,100%,20%)">penghuang</text>
<text x="1.089" y="0.787" font-size="0.029864" fill="hsl(0.0,100%,20%)">jonahr</text>
<text x="1.164" y="1.084" font-size="0.020172" fill="hsl(0.0,100%,20%)">lexa.knyazev</text>
<text x="0.170" y="0.246" font-size="0.024649" fill="hsl(0.0,100%,20%)">kbr</text>
<text x="1.325" y="0.756" font-size="0.032629" fill="hsl(0.0,100%,20%)">gert.wollny</text>
<text x="0.397" y="0.296" font-size="0.015301" fill="hsl(0.0,100%,20%)">gman</text>
<text x="0.154" y="0.121" font-size="0.008834" fill="hsl(0.0,100%,20%)">kpiddington</text>
<text x="0.650" y="0.722" font-size="0.004089" fill="hsl(0.0,100%,20%)">hailinzhang</text>
<text x="1.448" y="0.676" font-size="0.007830" fill="hsl(0.0,100%,20%)">mark</text>
<text x="0.529" y="1.183" font-size="0.007083" fill="hsl(0.0,100%,20%)">vantablack</text>
<text x="0.629" y="0.795" font-size="0.010291" fill="hsl(0.0,100%,20%)">j.vigil</text>
<text x="0.643" y="0.196" font-size="0.015118" fill="hsl(0.0,100%,20%)">jdarpinian</text>
<text x="1.024" y="0.718" font-size="0.006678" fill="hsl(0.0,100%,20%)">jgilbert</text>
<text x="1.277" y="0.098" font-size="0.009734" fill="hsl(0.0,100%,20%)">jiajia.qin</text>
<text x="1.094" y="0.822" font-size="0.005279" fill="hsl(0.0,100%,20%)">bsheedy</text>
<text x="1.224" y="10.767" font-size="0.003339" fill="hsl(0.0,100%,20%)">tandrii</text>
<text x="0.943" y="0.830" font-size="0.003339" fill="hsl(0.0,100%,20%)">dpranke</text>
<text x="1.263" y="0.775" font-size="0.002361" fill="hsl(0.0,100%,20%)">doughorn</text>
<text x="0.543" y="1.230" font-size="0.002361" fill="hsl(0.0,100%,20%)">lfy</text>
<text x="1.542" y="0.844" font-size="0.012493" fill="hsl(0.0,100%,20%)">sugoi</text>
<text x="1.265" y="0.738" font-size="0.007466" fill="hsl(0.0,100%,20%)">le.hoang.q</text>
<text x="1.096" y="0.730" font-size="0.003339" fill="hsl(0.0,100%,20%)">kainino</text>
<text x="1.677" y="0.853" font-size="0.022273" fill="hsl(0.0,100%,20%)">jplate</text>
<text x="0.310" y="0.145" font-size="0.002361" fill="hsl(0.0,100%,20%)">ccameron</text>
<text x="0.313" y="0.698" font-size="0.005783" fill="hsl(0.0,100%,20%)">kyle.griffiths</text>
<text x="1.267" y="1.146" font-size="0.016186" fill="hsl(0.0,100%,20%)">lehoangq</text>
<text x="1.389" y="0.807" font-size="0.025647" fill="hsl(0.0,100%,20%)">lubosz.sarnecki</text>
<text x="1.475" y="0.842" font-size="0.005279" fill="hsl(0.0,100%,20%)">lunpujun</text>
<text x="1.599" y="0.626" font-size="0.002361" fill="hsl(0.0,100%,20%)">mikes</text>
<text x="0.562" y="1.309" font-size="0.010017" fill="hsl(0.0,100%,20%)">natsu</text>
<text x="1.284" y="0.523" font-size="0.008834" fill="hsl(0.0,100%,20%)">pkasting</text>
<text x="1.330" y="0.393" font-size="0.003339" fill="hsl(0.0,100%,20%)">thakis</text>
<text x="1.210" y="0.764" font-size="0.008513" fill="hsl(0.0,100%,20%)">senorblanco</text>
<text x="0.918" y="0.687" font-size="0.005783" fill="hsl(0.0,100%,20%)">sergeyu</text>
<text x="0.742" y="1.179" font-size="0.003339" fill="hsl(0.0,100%,20%)">reveman</text>
<text x="0.716" y="0.657" font-size="0.002361" fill="hsl(0.0,100%,20%)">jie.a.chen</text>
<text x="0.481" y="-4.137" font-size="0.002361" fill="hsl(0.0,100%,20%)">spang</text>
<text x="0.613" y="1.089" font-size="0.011074" fill="hsl(0.0,100%,20%)">xiaoxuan.liu</text>
<text x="1.433" y="0.232" font-size="0.009144" fill="hsl(0.0,100%,20%)">xinghua.cao</text>
<text x="1.168" y="0.736" font-size="0.004089" fill="hsl(0.0,100%,20%)">yang.gu</text>
<text x="1.230" y="0.832" font-size="0.006247" fill="hsl(0.0,100%,20%)">yuxinhu</text>
</svg>
