<svg width="4000" height="2000" viewBox="-0.025 -0.025 2.05 1.05" xmlns="http://www.w3.org/2000/svg">
  <style>
    path {
      fill: none;
      stroke-linecap: round;
      stroke-opacity: 0.4;
    }

    text {
      text-anchor: middle;
      alignment-baseline: hanging;
    }
  </style>
  <g opacity="0.4">
<path d="M1.351 0.649 Q1.612 0.729 1.825 0.619" stroke="hsl(0.0,100%,35%)" stroke-width="0.00075"></path>
<path d="M1.351 0.649 Q1.601 0.540 1.443 0.394" stroke="hsl(0.0,100%,35%)" stroke-width="0.00225"></path>
<path d="M1.351 0.649 Q1.424 0.753 1.642 0.740" stroke="hsl(0.0,100%,35%)" stroke-width="0.00050"></path>
<path d="M1.825 0.619 Q1.572 0.403 1.095 0.479" stroke="hsl(0.0,100%,35%)" stroke-width="0.00852"></path>
<path d="M1.825 0.619 Q1.604 0.563 1.448 0.659" stroke="hsl(0.0,100%,35%)" stroke-width="0.03758"></path>
<path d="M1.825 0.619 Q1.664 0.673 1.734 0.763" stroke="hsl(0.0,100%,35%)" stroke-width="0.03206"></path>
<path d="M1.825 0.619 Q1.637 0.643 1.642 0.740" stroke="hsl(0.0,100%,35%)" stroke-width="0.04183"></path>
<path d="M1.825 0.619 Q1.431 0.639 1.385 0.836" stroke="hsl(0.0,100%,35%)" stroke-width="0.02305"></path>
<path d="M1.825 0.619 Q1.491 0.256 0.709 0.339" stroke="hsl(0.0,100%,35%)" stroke-width="0.00025"></path>
<path d="M1.825 0.619 Q1.544 0.512 1.275 0.626" stroke="hsl(0.0,100%,35%)" stroke-width="0.00075"></path>
<path d="M1.825 0.619 Q1.813 0.430 1.443 0.394" stroke="hsl(0.0,100%,35%)" stroke-width="0.00351"></path>
<path d="M1.825 0.619 Q1.829 0.519 1.636 0.495" stroke="hsl(0.0,100%,35%)" stroke-width="0.01678"></path>
<path d="M1.825 0.619 Q1.173 0.170 0.155 0.390" stroke="hsl(0.0,100%,35%)" stroke-width="0.00100"></path>
<path d="M1.825 0.619 Q1.323 0.247 0.488 0.410" stroke="hsl(0.0,100%,35%)" stroke-width="0.00025"></path>
<path d="M1.825 0.619 Q1.777 0.658 1.842 0.689" stroke="hsl(0.0,100%,35%)" stroke-width="0.00175"></path>
<path d="M1.825 0.619 Q0.885 1.075 1.569 1.633" stroke="hsl(0.0,100%,35%)" stroke-width="0.00025"></path>
<path d="M1.443 0.394 Q1.201 0.367 1.095 0.479" stroke="hsl(180.0,100%,35%)" stroke-width="0.00225"></path>
<path d="M1.443 0.394 Q1.233 0.528 1.448 0.659" stroke="hsl(180.0,100%,35%)" stroke-width="0.00075"></path>
<path d="M1.443 0.394 Q0.802 0.134 0.155 0.390" stroke="hsl(180.0,100%,35%)" stroke-width="0.00050"></path>
<path d="M1.443 0.394 Q1.454 0.583 1.825 0.619" stroke="hsl(180.0,100%,35%)" stroke-width="0.00576"></path>
<path d="M1.443 0.394 Q1.293 0.637 1.734 0.763" stroke="hsl(180.0,100%,35%)" stroke-width="0.00100"></path>
<path d="M1.443 0.394 Q1.120 0.220 0.709 0.339" stroke="hsl(180.0,100%,35%)" stroke-width="0.00025"></path>
<path d="M1.443 0.394 Q1.266 0.607 1.642 0.740" stroke="hsl(180.0,100%,35%)" stroke-width="0.00075"></path>
<path d="M1.443 0.394 Q1.459 0.484 1.636 0.495" stroke="hsl(180.0,100%,35%)" stroke-width="0.00075"></path>
<path d="M1.443 0.394 Q1.061 0.603 1.385 0.836" stroke="hsl(180.0,100%,35%)" stroke-width="0.00050"></path>
<path d="M1.443 0.394 Q1.193 0.503 1.351 0.649" stroke="hsl(180.0,100%,35%)" stroke-width="0.00050"></path>
<path d="M1.642 0.740 Q1.178 0.267 0.155 0.390" stroke="hsl(0.0,100%,35%)" stroke-width="0.00025"></path>
<path d="M1.642 0.740 Q1.830 0.716 1.825 0.619" stroke="hsl(0.0,100%,35%)" stroke-width="0.02906"></path>
<path d="M1.642 0.740 Q1.792 0.532 1.421 0.413" stroke="hsl(0.0,100%,35%)" stroke-width="0.00025"></path>
<path d="M1.642 0.740 Q1.609 0.660 1.448 0.659" stroke="hsl(0.0,100%,35%)" stroke-width="0.00376"></path>
<path d="M1.642 0.740 Q1.835 0.616 1.636 0.495" stroke="hsl(0.0,100%,35%)" stroke-width="0.00551"></path>
<path d="M1.642 0.740 Q1.819 0.527 1.443 0.394" stroke="hsl(0.0,100%,35%)" stroke-width="0.00050"></path>
<path d="M1.642 0.740 Q1.577 0.500 1.095 0.479" stroke="hsl(0.0,100%,35%)" stroke-width="0.00075"></path>
<path d="M1.642 0.740 Q1.437 0.736 1.385 0.836" stroke="hsl(0.0,100%,35%)" stroke-width="0.00175"></path>
<path d="M1.642 0.740 Q1.669 0.770 1.734 0.763" stroke="hsl(0.0,100%,35%)" stroke-width="0.00075"></path>
<path d="M0.155 0.390 Q0.554 0.622 1.095 0.479" stroke="hsl(180.0,100%,35%)" stroke-width="0.00877"></path>
<path d="M0.155 0.390 Q0.305 0.466 0.488 0.410" stroke="hsl(180.0,100%,35%)" stroke-width="0.00401"></path>
<path d="M0.155 0.390 Q0.413 0.859 1.385 0.836" stroke="hsl(180.0,100%,35%)" stroke-width="0.00576"></path>
<path d="M0.155 0.390 Q0.472 0.475 0.709 0.339" stroke="hsl(180.0,100%,35%)" stroke-width="0.00100"></path>
<path d="M0.155 0.390 Q0.611 0.516 0.957 0.321" stroke="hsl(180.0,100%,35%)" stroke-width="0.00025"></path>
<path d="M0.155 0.390 Q0.806 0.838 1.825 0.619" stroke="hsl(180.0,100%,35%)" stroke-width="0.00050"></path>
<path d="M0.155 0.390 Q0.811 0.739 1.636 0.495" stroke="hsl(180.0,100%,35%)" stroke-width="0.00025"></path>
<path d="M0.155 0.390 Q0.411 0.583 0.843 0.500" stroke="hsl(180.0,100%,35%)" stroke-width="0.00025"></path>
<path d="M1.448 0.659 Q1.668 0.714 1.825 0.619" stroke="hsl(0.0,100%,35%)" stroke-width="0.03682"></path>
<path d="M1.448 0.659 Q1.480 0.738 1.642 0.740" stroke="hsl(0.0,100%,35%)" stroke-width="0.00276"></path>
<path d="M1.448 0.659 Q1.657 0.526 1.443 0.394" stroke="hsl(0.0,100%,35%)" stroke-width="0.00150"></path>
<path d="M1.448 0.659 Q1.275 0.735 1.385 0.836" stroke="hsl(0.0,100%,35%)" stroke-width="0.01428"></path>
<path d="M1.448 0.659 Q1.416 0.498 1.095 0.479" stroke="hsl(0.0,100%,35%)" stroke-width="0.00200"></path>
<path d="M1.448 0.659 Q1.507 0.768 1.734 0.763" stroke="hsl(0.0,100%,35%)" stroke-width="0.00025"></path>
<path d="M1.448 0.659 Q1.017 0.266 0.155 0.390" stroke="hsl(0.0,100%,35%)" stroke-width="0.00050"></path>
<path d="M1.448 0.659 Q1.621 0.753 1.842 0.689" stroke="hsl(0.0,100%,35%)" stroke-width="0.00025"></path>
<path d="M1.636 0.495 Q1.632 0.595 1.825 0.619" stroke="hsl(0.0,100%,35%)" stroke-width="0.01227"></path>
<path d="M1.636 0.495 Q1.471 0.649 1.734 0.763" stroke="hsl(0.0,100%,35%)" stroke-width="0.00175"></path>
<path d="M1.636 0.495 Q1.130 0.223 0.488 0.410" stroke="hsl(0.0,100%,35%)" stroke-width="0.00100"></path>
<path d="M1.636 0.495 Q1.379 0.379 1.095 0.479" stroke="hsl(0.0,100%,35%)" stroke-width="0.00075"></path>
<path d="M1.636 0.495 Q1.444 0.619 1.642 0.740" stroke="hsl(0.0,100%,35%)" stroke-width="0.00125"></path>
<path d="M1.636 0.495 Q1.144 0.474 0.993 0.709" stroke="hsl(0.0,100%,35%)" stroke-width="0.00025"></path>
<path d="M1.636 0.495 Q1.411 0.539 1.448 0.659" stroke="hsl(0.0,100%,35%)" stroke-width="0.00025"></path>
<path d="M1.636 0.495 Q1.238 0.615 1.385 0.836" stroke="hsl(0.0,100%,35%)" stroke-width="0.00050"></path>
<path d="M1.095 0.479 Q0.952 0.439 0.843 0.500" stroke="hsl(180.0,100%,35%)" stroke-width="0.01829"></path>
<path d="M1.095 0.479 Q1.348 0.695 1.825 0.619" stroke="hsl(180.0,100%,35%)" stroke-width="0.00526"></path>
<path d="M1.095 0.479 Q1.014 0.331 0.709 0.339" stroke="hsl(180.0,100%,35%)" stroke-width="0.00401"></path>
<path d="M1.095 0.479 Q0.954 0.715 1.385 0.836" stroke="hsl(180.0,100%,35%)" stroke-width="0.01453"></path>
<path d="M1.095 0.479 Q0.696 0.246 0.155 0.390" stroke="hsl(180.0,100%,35%)" stroke-width="0.00426"></path>
<path d="M1.095 0.479 Q0.847 0.323 0.488 0.410" stroke="hsl(180.0,100%,35%)" stroke-width="0.00326"></path>
<path d="M1.095 0.479 Q1.021 0.370 0.792 0.382" stroke="hsl(180.0,100%,35%)" stroke-width="0.00025"></path>
<path d="M1.095 0.479 Q2.626 -0.511 1.030 -1.476" stroke="hsl(180.0,100%,35%)" stroke-width="0.00025"></path>
<path d="M1.095 0.479 Q1.305 0.367 1.133 0.240" stroke="hsl(180.0,100%,35%)" stroke-width="0.00100"></path>
<path d="M1.095 0.479 Q1.127 0.639 1.448 0.659" stroke="hsl(180.0,100%,35%)" stroke-width="0.00025"></path>
<path d="M1.095 0.479 Q1.255 0.435 1.206 0.348" stroke="hsl(180.0,100%,35%)" stroke-width="0.00025"></path>
<path d="M1.095 0.479 Q1.160 0.719 1.642 0.740" stroke="hsl(180.0,100%,35%)" stroke-width="0.00025"></path>
<path d="M1.095 0.479 Q1.336 0.506 1.443 0.394" stroke="hsl(180.0,100%,35%)" stroke-width="0.00025"></path>
<path d="M1.095 0.479 Q1.352 0.595 1.636 0.495" stroke="hsl(180.0,100%,35%)" stroke-width="0.00025"></path>
<path d="M1.095 0.479 Q1.620 0.463 1.705 0.204" stroke="hsl(180.0,100%,35%)" stroke-width="0.00050"></path>
<path d="M1.385 0.836 Q1.277 0.443 0.488 0.410" stroke="hsl(180.0,100%,35%)" stroke-width="0.00200"></path>
<path d="M1.385 0.836 Q1.525 0.599 1.095 0.479" stroke="hsl(180.0,100%,35%)" stroke-width="0.02756"></path>
<path d="M1.385 0.836 Q1.778 0.815 1.825 0.619" stroke="hsl(180.0,100%,35%)" stroke-width="0.01603"></path>
<path d="M1.385 0.836 Q1.382 0.560 0.843 0.500" stroke="hsl(180.0,100%,35%)" stroke-width="0.01303"></path>
<path d="M1.385 0.836 Q1.558 0.760 1.448 0.659" stroke="hsl(180.0,100%,35%)" stroke-width="0.00301"></path>
<path d="M1.385 0.836 Q1.444 0.452 0.709 0.339" stroke="hsl(180.0,100%,35%)" stroke-width="0.00075"></path>
<path d="M1.385 0.836 Q1.378 0.904 1.510 0.922" stroke="hsl(180.0,100%,35%)" stroke-width="0.00025"></path>
<path d="M1.385 0.836 Q1.127 0.367 0.155 0.390" stroke="hsl(180.0,100%,35%)" stroke-width="0.00476"></path>
<path d="M1.385 0.836 Q1.590 0.839 1.642 0.740" stroke="hsl(180.0,100%,35%)" stroke-width="0.00025"></path>
<path d="M1.385 0.836 Q1.783 0.716 1.636 0.495" stroke="hsl(180.0,100%,35%)" stroke-width="0.00100"></path>
<path d="M1.385 0.836 Q1.767 0.626 1.443 0.394" stroke="hsl(180.0,100%,35%)" stroke-width="0.00075"></path>
<path d="M1.385 0.836 Q1.686 0.556 1.206 0.348" stroke="hsl(180.0,100%,35%)" stroke-width="0.00025"></path>
<path d="M1.385 0.836 Q1.369 0.749 1.195 0.737" stroke="hsl(180.0,100%,35%)" stroke-width="0.00025"></path>
<path d="M1.385 0.836 Q1.206 0.818 1.132 0.901" stroke="hsl(180.0,100%,35%)" stroke-width="0.00025"></path>
<path d="M1.734 0.763 Q1.707 0.733 1.642 0.740" stroke="hsl(0.0,100%,35%)" stroke-width="0.00200"></path>
<path d="M1.734 0.763 Q1.895 0.709 1.825 0.619" stroke="hsl(0.0,100%,35%)" stroke-width="0.00476"></path>
<path d="M1.734 0.763 Q1.642 0.493 1.095 0.479" stroke="hsl(0.0,100%,35%)" stroke-width="0.00050"></path>
<path d="M1.734 0.763 Q1.674 0.654 1.448 0.659" stroke="hsl(0.0,100%,35%)" stroke-width="0.00025"></path>
<path d="M1.734 0.763 Q1.900 0.610 1.636 0.495" stroke="hsl(0.0,100%,35%)" stroke-width="0.00200"></path>
<path d="M0.488 0.410 Q0.593 0.526 0.843 0.500" stroke="hsl(180.0,100%,35%)" stroke-width="0.00050"></path>
<path d="M0.488 0.410 Q0.737 0.566 1.095 0.479" stroke="hsl(180.0,100%,35%)" stroke-width="0.00125"></path>
<path d="M0.488 0.410 Q0.769 0.726 1.448 0.659" stroke="hsl(180.0,100%,35%)" stroke-width="0.00075"></path>
<path d="M0.488 0.410 Q0.596 0.802 1.385 0.836" stroke="hsl(180.0,100%,35%)" stroke-width="0.00025"></path>
<path d="M0.709 0.339 Q0.649 0.722 1.385 0.836" stroke="hsl(180.0,100%,35%)" stroke-width="0.00251"></path>
<path d="M0.709 0.339 Q0.790 0.486 1.095 0.479" stroke="hsl(180.0,100%,35%)" stroke-width="0.00626"></path>
<path d="M0.709 0.339 Q0.647 0.446 0.843 0.500" stroke="hsl(180.0,100%,35%)" stroke-width="0.00125"></path>
<path d="M0.709 0.339 Q0.541 0.330 0.488 0.410" stroke="hsl(180.0,100%,35%)" stroke-width="0.00050"></path>
<path d="M0.709 0.339 Q0.391 0.253 0.155 0.390" stroke="hsl(180.0,100%,35%)" stroke-width="0.00025"></path>
<path d="M0.709 0.339 Q1.043 0.702 1.825 0.619" stroke="hsl(180.0,100%,35%)" stroke-width="0.00050"></path>
<path d="M0.709 0.339 Q1.047 0.603 1.636 0.495" stroke="hsl(180.0,100%,35%)" stroke-width="0.00025"></path>
<path d="M0.709 0.339 Q1.031 0.513 1.443 0.394" stroke="hsl(180.0,100%,35%)" stroke-width="0.00025"></path>
<path d="M0.957 0.321 Q0.900 0.428 1.095 0.479" stroke="hsl(180.0,100%,35%)" stroke-width="0.00501"></path>
<path d="M0.957 0.321 Q0.759 0.664 1.385 0.836" stroke="hsl(180.0,100%,35%)" stroke-width="0.00376"></path>
<path d="M0.957 0.321 Q0.651 0.272 0.488 0.410" stroke="hsl(180.0,100%,35%)" stroke-width="0.00075"></path>
<path d="M0.957 0.321 Q1.110 0.316 1.133 0.240" stroke="hsl(180.0,100%,35%)" stroke-width="0.00025"></path>
<path d="M0.957 0.321 Q1.236 0.421 1.492 0.307" stroke="hsl(180.0,100%,35%)" stroke-width="0.00025"></path>
<path d="M0.843 0.500 Q0.986 0.540 1.095 0.479" stroke="hsl(180.0,100%,35%)" stroke-width="0.01553"></path>
<path d="M0.843 0.500 Q0.738 0.384 0.488 0.410" stroke="hsl(180.0,100%,35%)" stroke-width="0.00100"></path>
<path d="M0.843 0.500 Q1.239 0.756 1.825 0.619" stroke="hsl(180.0,100%,35%)" stroke-width="0.00075"></path>
<path d="M0.843 0.500 Q0.846 0.776 1.385 0.836" stroke="hsl(180.0,100%,35%)" stroke-width="0.00401"></path>
<path d="M0.843 0.500 Q0.905 0.393 0.709 0.339" stroke="hsl(180.0,100%,35%)" stroke-width="0.00150"></path>
<path d="M1.275 0.626 Q1.162 0.753 1.385 0.836" stroke="hsl(0.0,100%,35%)" stroke-width="0.00276"></path>
<path d="M1.275 0.626 Q1.303 0.516 1.095 0.479" stroke="hsl(0.0,100%,35%)" stroke-width="0.00200"></path>
<path d="M1.275 0.626 Q1.555 0.732 1.825 0.619" stroke="hsl(0.0,100%,35%)" stroke-width="0.00827"></path>
<path d="M1.275 0.626 Q1.394 0.786 1.734 0.763" stroke="hsl(0.0,100%,35%)" stroke-width="0.00050"></path>
<path d="M1.275 0.626 Q1.367 0.756 1.642 0.740" stroke="hsl(0.0,100%,35%)" stroke-width="0.00075"></path>
<path d="M1.275 0.626 Q1.335 0.677 1.448 0.659" stroke="hsl(0.0,100%,35%)" stroke-width="0.00075"></path>
<path d="M1.275 0.626 Q1.544 0.544 1.443 0.394" stroke="hsl(0.0,100%,35%)" stroke-width="0.00050"></path>
<path d="M1.275 0.626 Q1.054 0.361 0.488 0.410" stroke="hsl(0.0,100%,35%)" stroke-width="0.00150"></path>
<path d="M1.275 0.626 Q0.977 0.618 0.897 0.762" stroke="hsl(0.0,100%,35%)" stroke-width="0.00025"></path>
<path d="M1.842 0.689 Q1.890 0.650 1.825 0.619" stroke="hsl(0.0,100%,35%)" stroke-width="0.01879"></path>
<path d="M1.842 0.689 Q1.637 0.435 1.095 0.479" stroke="hsl(0.0,100%,35%)" stroke-width="0.00676"></path>
<path d="M1.842 0.689 Q1.497 0.671 1.385 0.836" stroke="hsl(0.0,100%,35%)" stroke-width="0.00326"></path>
<path d="M1.842 0.689 Q1.494 0.395 0.843 0.500" stroke="hsl(0.0,100%,35%)" stroke-width="0.00050"></path>
<path d="M1.842 0.689 Q1.702 0.674 1.642 0.740" stroke="hsl(0.0,100%,35%)" stroke-width="0.00025"></path>
<path d="M1.842 0.689 Q1.729 0.705 1.734 0.763" stroke="hsl(0.0,100%,35%)" stroke-width="0.00075"></path>
<path d="M1.842 0.689 Q1.895 0.551 1.636 0.495" stroke="hsl(0.0,100%,35%)" stroke-width="0.00075"></path>
<path d="M1.314 0.296 Q1.058 0.344 1.095 0.479" stroke="hsl(180.0,100%,35%)" stroke-width="0.00301"></path>
<path d="M1.314 0.296 Q0.810 0.188 0.488 0.410" stroke="hsl(180.0,100%,35%)" stroke-width="0.00100"></path>
<path d="M1.314 0.296 Q1.311 0.559 1.825 0.619" stroke="hsl(180.0,100%,35%)" stroke-width="0.00175"></path>
<path d="M1.314 0.296 Q0.918 0.580 1.385 0.836" stroke="hsl(180.0,100%,35%)" stroke-width="0.00100"></path>
<path d="M1.314 0.296 Q1.123 0.583 1.642 0.740" stroke="hsl(180.0,100%,35%)" stroke-width="0.00025"></path>
<path d="M1.314 0.296 Q0.915 0.304 0.843 0.500" stroke="hsl(180.0,100%,35%)" stroke-width="0.00025"></path>
<path d="M1.510 0.922 Q1.516 0.854 1.385 0.836" stroke="hsl(180.0,100%,35%)" stroke-width="0.00150"></path>
<path d="M1.510 0.922 Q1.657 0.617 1.095 0.479" stroke="hsl(180.0,100%,35%)" stroke-width="0.00075"></path>
<path d="M1.510 0.922 Q1.408 0.462 0.488 0.410" stroke="hsl(180.0,100%,35%)" stroke-width="0.00025"></path>
<path d="M1.510 0.922 Q1.910 0.833 1.825 0.619" stroke="hsl(180.0,100%,35%)" stroke-width="0.00025"></path>
<path d="M1.206 0.348 Q0.905 0.627 1.385 0.836" stroke="hsl(180.0,100%,35%)" stroke-width="0.00225"></path>
<path d="M1.206 0.348 Q2.577 -0.599 1.030 -1.476" stroke="hsl(180.0,100%,35%)" stroke-width="0.00025"></path>
<path d="M1.206 0.348 Q1.046 0.391 1.095 0.479" stroke="hsl(180.0,100%,35%)" stroke-width="0.00225"></path>
<path d="M1.206 0.348 Q0.797 0.235 0.488 0.410" stroke="hsl(180.0,100%,35%)" stroke-width="0.00025"></path>
<path d="M1.206 0.348 Q0.965 0.244 0.709 0.339" stroke="hsl(180.0,100%,35%)" stroke-width="0.00025"></path>
<path d="M1.206 0.348 Q0.647 0.158 0.155 0.390" stroke="hsl(180.0,100%,35%)" stroke-width="0.00025"></path>
<path d="M1.133 0.240 Q0.782 0.588 1.385 0.836" stroke="hsl(180.0,100%,35%)" stroke-width="0.01002"></path>
<path d="M1.133 0.240 Q0.923 0.352 1.095 0.479" stroke="hsl(180.0,100%,35%)" stroke-width="0.01428"></path>
<path d="M1.133 0.240 Q1.176 0.568 1.825 0.619" stroke="hsl(180.0,100%,35%)" stroke-width="0.00175"></path>
<path d="M1.133 0.240 Q0.675 0.196 0.488 0.410" stroke="hsl(180.0,100%,35%)" stroke-width="0.00025"></path>
<path d="M1.133 0.240 Q1.015 0.622 1.734 0.763" stroke="hsl(180.0,100%,35%)" stroke-width="0.00050"></path>
<path d="M1.133 0.240 Q0.780 0.312 0.843 0.500" stroke="hsl(180.0,100%,35%)" stroke-width="0.00050"></path>
<path d="M1.133 0.240 Q0.524 0.119 0.155 0.390" stroke="hsl(180.0,100%,35%)" stroke-width="0.00050"></path>
<path d="M1.133 0.240 Q1.008 0.237 0.974 0.297" stroke="hsl(180.0,100%,35%)" stroke-width="0.00025"></path>
<path d="M1.133 0.240 Q0.895 0.461 1.275 0.626" stroke="hsl(180.0,100%,35%)" stroke-width="0.00025"></path>
<path d="M1.133 0.240 Q1.128 0.607 1.842 0.689" stroke="hsl(180.0,100%,35%)" stroke-width="0.00025"></path>
<path d="M0.974 0.297 Q0.889 0.412 1.095 0.479" stroke="hsl(180.0,100%,35%)" stroke-width="0.00326"></path>
<path d="M0.974 0.297 Q0.748 0.648 1.385 0.836" stroke="hsl(180.0,100%,35%)" stroke-width="0.00276"></path>
<path d="M0.974 0.297 Q1.099 0.300 1.133 0.240" stroke="hsl(180.0,100%,35%)" stroke-width="0.00050"></path>
<path d="M0.974 0.297 Q0.641 0.256 0.488 0.410" stroke="hsl(180.0,100%,35%)" stroke-width="0.00050"></path>
<path d="M0.880 0.360 Q0.752 0.699 1.385 0.836" stroke="hsl(180.0,100%,35%)" stroke-width="0.00200"></path>
<path d="M0.880 0.360 Q0.892 0.462 1.095 0.479" stroke="hsl(180.0,100%,35%)" stroke-width="0.00200"></path>
<path d="M0.880 0.360 Q0.749 0.423 0.843 0.500" stroke="hsl(180.0,100%,35%)" stroke-width="0.00050"></path>
<path d="M0.868 0.658 Q0.984 0.850 1.385 0.836" stroke="hsl(180.0,100%,35%)" stroke-width="0.00301"></path>
<path d="M0.868 0.658 Q1.124 0.614 1.095 0.479" stroke="hsl(180.0,100%,35%)" stroke-width="0.00251"></path>
<path d="M0.868 0.658 Q0.698 0.582 0.512 0.648" stroke="hsl(180.0,100%,35%)" stroke-width="0.00025"></path>
<path d="M0.868 0.658 Q1.334 0.502 1.133 0.240" stroke="hsl(180.0,100%,35%)" stroke-width="0.00075"></path>
<path d="M1.296 0.972 Q1.590 0.685 1.095 0.479" stroke="hsl(180.0,100%,35%)" stroke-width="0.00025"></path>
<path d="M1.296 0.972 Q1.622 0.846 1.448 0.659" stroke="hsl(180.0,100%,35%)" stroke-width="0.00025"></path>
<path d="M1.296 0.972 Q1.831 0.712 1.443 0.394" stroke="hsl(180.0,100%,35%)" stroke-width="0.00025"></path>
<path d="M1.296 0.972 Q1.449 0.921 1.385 0.836" stroke="hsl(180.0,100%,35%)" stroke-width="0.00025"></path>
<path d="M0.966 0.245 Q0.844 0.388 1.095 0.479" stroke="hsl(180.0,100%,35%)" stroke-width="0.00200"></path>
<path d="M0.966 0.245 Q0.703 0.624 1.385 0.836" stroke="hsl(180.0,100%,35%)" stroke-width="0.00050"></path>
<path d="M0.966 0.245 Q0.701 0.348 0.843 0.500" stroke="hsl(180.0,100%,35%)" stroke-width="0.00050"></path>
<path d="M1.680 0.919 Q1.599 0.818 1.385 0.836" stroke="hsl(180.0,100%,35%)" stroke-width="0.00050"></path>
<path d="M1.680 0.919 Q1.993 0.798 1.825 0.619" stroke="hsl(180.0,100%,35%)" stroke-width="0.00025"></path>
<path d="M1.680 0.919 Q1.981 0.609 1.443 0.394" stroke="hsl(180.0,100%,35%)" stroke-width="0.00025"></path>
<path d="M1.164 0.014 Q0.999 0.260 1.443 0.394" stroke="hsl(180.0,100%,35%)" stroke-width="0.00050"></path>
<path d="M1.164 0.014 Q0.617 0.469 1.385 0.836" stroke="hsl(180.0,100%,35%)" stroke-width="0.00050"></path>
<path d="M1.164 0.014 Q1.010 0.448 1.825 0.619" stroke="hsl(180.0,100%,35%)" stroke-width="0.00025"></path>
<path d="M0.581 0.874 Q1.014 1.016 1.385 0.836" stroke="hsl(180.0,100%,35%)" stroke-width="0.00025"></path>
<path d="M0.581 0.874 Q1.155 0.779 1.095 0.479" stroke="hsl(180.0,100%,35%)" stroke-width="0.00025"></path>
<path d="M0.581 0.874 Q1.012 0.740 0.843 0.500" stroke="hsl(180.0,100%,35%)" stroke-width="0.00025"></path>
<path d="M1.492 0.307 Q1.156 0.313 1.095 0.479" stroke="hsl(180.0,100%,35%)" stroke-width="0.00025"></path>
<path d="M1.492 0.307 Q1.317 0.270 1.206 0.348" stroke="hsl(180.0,100%,35%)" stroke-width="0.00025"></path>
<path d="M1.492 0.307 Q1.366 0.202 1.133 0.240" stroke="hsl(180.0,100%,35%)" stroke-width="0.00025"></path>
<path d="M1.492 0.307 Q1.016 0.550 1.385 0.836" stroke="hsl(180.0,100%,35%)" stroke-width="0.00025"></path>
<path d="M0.897 0.762 Q1.223 0.660 1.095 0.479" stroke="hsl(180.0,100%,35%)" stroke-width="0.00175"></path>
<path d="M0.897 0.762 Q1.476 0.876 1.825 0.619" stroke="hsl(180.0,100%,35%)" stroke-width="0.00025"></path>
<path d="M0.897 0.762 Q0.974 0.504 0.488 0.410" stroke="hsl(180.0,100%,35%)" stroke-width="0.00025"></path>
</g>
<text x="1.351" y="0.643" font-size="0.011330" fill="hsl(0.0,100%,20%)">afdx</text>
<text x="1.825" y="0.569" font-size="0.099900" fill="hsl(0.0,100%,20%)">bclayton</text>
<text x="1.443" y="0.381" font-size="0.027461" fill="hsl(180.0,100%,20%)">rharrison</text>
<text x="1.642" y="0.712" font-size="0.054703" fill="hsl(0.0,100%,20%)">amaiorano</text>
<text x="0.155" y="0.373" font-size="0.032542" fill="hsl(180.0,100%,20%)">bajones</text>
<text x="1.421" y="0.412" font-size="0.002832" fill="hsl(0.0,100%,20%)">armansito</text>
<text x="1.448" y="0.630" font-size="0.058254" fill="hsl(0.0,100%,20%)">dsinclair</text>
<text x="1.636" y="0.476" font-size="0.038211" fill="hsl(0.0,100%,20%)">jrprice</text>
<text x="1.095" y="0.441" font-size="0.074509" fill="hsl(180.0,100%,20%)">enga</text>
<text x="1.385" y="0.799" font-size="0.074185" fill="hsl(180.0,100%,20%)">cwallez</text>
<text x="1.734" y="0.744" font-size="0.038836" fill="hsl(0.0,100%,20%)">dneto</text>
<text x="0.488" y="0.397" font-size="0.025015" fill="hsl(180.0,100%,20%)">kainino</text>
<text x="0.709" y="0.326" font-size="0.025175" fill="hsl(180.0,100%,20%)">shrekshao</text>
<text x="0.957" y="0.312" font-size="0.018136" fill="hsl(180.0,100%,20%)">yunchao.he</text>
<text x="0.843" y="0.479" font-size="0.043327" fill="hsl(180.0,100%,20%)">lokokung</text>
<text x="1.275" y="0.614" font-size="0.024200" fill="hsl(0.0,100%,20%)">zhaoming.jiang</text>
<text x="1.842" y="0.673" font-size="0.032665" fill="hsl(0.0,100%,20%)">senorblanco</text>
<text x="1.569" y="1.632" font-size="0.002832" fill="hsl(0.0,100%,20%)">sarahmashay</text>
<text x="1.314" y="0.288" font-size="0.015253" fill="hsl(180.0,100%,20%)">brandon1.jones</text>
<text x="1.510" y="0.917" font-size="0.009812" fill="hsl(180.0,100%,20%)">hogehoge</text>
<text x="1.206" y="0.341" font-size="0.014162" fill="hsl(180.0,100%,20%)">hao.x.li</text>
<text x="1.195" y="0.736" font-size="0.002832" fill="hsl(180.0,100%,20%)">beaufort.francois</text>
<text x="1.132" y="0.899" font-size="0.002832" fill="hsl(180.0,100%,20%)">fbeaufort</text>
<text x="0.792" y="0.381" font-size="0.002832" fill="hsl(180.0,100%,20%)">zmo</text>
<text x="1.030" y="-1.478" font-size="0.004006" fill="hsl(180.0,100%,20%)">bsheedy</text>
<text x="1.133" y="0.224" font-size="0.031667" fill="hsl(180.0,100%,20%)">jiawei.shao</text>
<text x="1.705" y="0.202" font-size="0.004006" fill="hsl(180.0,100%,20%)">rafael.cintron</text>
<text x="0.974" y="0.289" font-size="0.015253" fill="hsl(180.0,100%,20%)">shaobo.yan</text>
<text x="0.880" y="0.354" font-size="0.012017" fill="hsl(180.0,100%,20%)">jie.a.chen</text>
<text x="0.993" y="0.708" font-size="0.002832" fill="hsl(0.0,100%,20%)">alanbaker</text>
<text x="0.868" y="0.650" font-size="0.014442" fill="hsl(180.0,100%,20%)">junwei.fu</text>
<text x="0.512" y="0.646" font-size="0.002832" fill="hsl(180.0,100%,20%)">ningxin.hu</text>
<text x="1.296" y="0.969" font-size="0.005665" fill="hsl(180.0,100%,20%)">pkasting</text>
<text x="0.966" y="0.240" font-size="0.009812" fill="hsl(180.0,100%,20%)">sunnyps</text>
<text x="1.680" y="0.916" font-size="0.005665" fill="hsl(180.0,100%,20%)">ukai</text>
<text x="1.164" y="0.011" font-size="0.006333" fill="hsl(180.0,100%,20%)">vadimsh</text>
<text x="0.581" y="0.872" font-size="0.004906" fill="hsl(180.0,100%,20%)">wangqing-hf</text>
<text x="1.492" y="0.304" font-size="0.006333" fill="hsl(180.0,100%,20%)">yang.gu</text>
<text x="0.897" y="0.758" font-size="0.008957" fill="hsl(180.0,100%,20%)">ynovikov</text>
</svg>
