<svg width="4000" height="2000" viewBox="-0.025 -0.025 2.05 1.05" xmlns="http://www.w3.org/2000/svg">
  <style>
    path {
      fill: none;
      stroke-linecap: round;
      stroke-opacity: 0.4;
    }

    text {
      text-anchor: middle;
      alignment-baseline: hanging;
    }
  </style>
  <g opacity="0.4">
<path d="M0.755 0.928 Q1.037 1.098 1.430 0.998" stroke="hsl(0.0,100%,35%)" stroke-width="0.00027"></path>
<path d="M0.755 0.928 Q1.197 1.120 1.668 0.947" stroke="hsl(0.0,100%,35%)" stroke-width="0.00027"></path>
<path d="M0.755 0.928 Q1.142 0.871 1.114 0.670" stroke="hsl(0.0,100%,35%)" stroke-width="0.00027"></path>
<path d="M1.430 0.998 Q1.589 1.020 1.668 0.947" stroke="hsl(0.0,100%,35%)" stroke-width="0.05645"></path>
<path d="M1.430 0.998 Q1.498 0.633 0.802 0.520" stroke="hsl(0.0,100%,35%)" stroke-width="0.00486"></path>
<path d="M1.430 0.998 Q1.381 0.781 0.948 0.757" stroke="hsl(0.0,100%,35%)" stroke-width="0.01215"></path>
<path d="M1.430 0.998 Q1.148 0.828 0.755 0.928" stroke="hsl(0.0,100%,35%)" stroke-width="0.00027"></path>
<path d="M1.430 0.998 Q1.535 0.770 1.114 0.670" stroke="hsl(0.0,100%,35%)" stroke-width="0.02431"></path>
<path d="M1.430 0.998 Q1.680 0.842 1.431 0.686" stroke="hsl(0.0,100%,35%)" stroke-width="0.00108"></path>
<path d="M1.430 0.998 Q1.930 0.871 1.793 0.600" stroke="hsl(0.0,100%,35%)" stroke-width="0.00054"></path>
<path d="M1.430 0.998 Q1.517 0.877 1.301 0.808" stroke="hsl(0.0,100%,35%)" stroke-width="0.00027"></path>
<path d="M1.430 0.998 Q1.864 0.981 1.927 0.766" stroke="hsl(0.0,100%,35%)" stroke-width="0.00027"></path>
<path d="M1.430 0.998 Q1.242 0.928 1.064 1.004" stroke="hsl(0.0,100%,35%)" stroke-width="0.00054"></path>
<path d="M1.430 0.998 Q1.447 0.859 1.181 0.820" stroke="hsl(0.0,100%,35%)" stroke-width="0.00027"></path>
<path d="M1.430 0.998 Q1.200 0.722 0.611 0.774" stroke="hsl(0.0,100%,35%)" stroke-width="0.00027"></path>
<path d="M1.430 0.998 Q1.297 0.961 1.197 1.018" stroke="hsl(0.0,100%,35%)" stroke-width="0.00054"></path>
<path d="M1.430 0.998 Q1.370 0.878 1.124 0.881" stroke="hsl(0.0,100%,35%)" stroke-width="0.00216"></path>
<path d="M1.430 0.998 Q1.290 0.947 1.161 1.004" stroke="hsl(0.0,100%,35%)" stroke-width="0.00027"></path>
<path d="M1.430 0.998 Q1.554 0.877 1.346 0.790" stroke="hsl(0.0,100%,35%)" stroke-width="0.00054"></path>
<path d="M1.430 0.998 Q1.393 0.967 1.325 0.978" stroke="hsl(0.0,100%,35%)" stroke-width="0.00027"></path>
<path d="M1.668 0.947 Q1.613 0.698 1.114 0.670" stroke="hsl(0.0,100%,35%)" stroke-width="0.02134"></path>
<path d="M1.668 0.947 Q1.509 0.925 1.430 0.998" stroke="hsl(0.0,100%,35%)" stroke-width="0.02944"></path>
<path d="M1.668 0.947 Q1.460 0.708 0.948 0.757" stroke="hsl(0.0,100%,35%)" stroke-width="0.00648"></path>
<path d="M1.668 0.947 Q1.632 0.804 1.346 0.790" stroke="hsl(0.0,100%,35%)" stroke-width="0.00108"></path>
<path d="M1.668 0.947 Q1.497 0.791 1.154 0.840" stroke="hsl(0.0,100%,35%)" stroke-width="0.00054"></path>
<path d="M1.668 0.947 Q1.577 0.560 0.802 0.520" stroke="hsl(0.0,100%,35%)" stroke-width="0.00432"></path>
<path d="M1.668 0.947 Q1.730 0.856 1.566 0.806" stroke="hsl(0.0,100%,35%)" stroke-width="0.00027"></path>
<path d="M1.668 0.947 Q1.449 0.805 1.124 0.881" stroke="hsl(0.0,100%,35%)" stroke-width="0.00027"></path>
<path d="M1.114 0.670 Q1.010 0.897 1.430 0.998" stroke="hsl(0.0,100%,35%)" stroke-width="0.00486"></path>
<path d="M1.114 0.670 Q1.169 0.919 1.668 0.947" stroke="hsl(0.0,100%,35%)" stroke-width="0.00351"></path>
<path d="M1.114 0.670 Q1.260 0.741 1.431 0.686" stroke="hsl(0.0,100%,35%)" stroke-width="0.00054"></path>
<path d="M1.114 0.670 Q1.078 0.532 0.802 0.520" stroke="hsl(0.0,100%,35%)" stroke-width="0.00027"></path>
<path d="M1.927 0.766 Q1.653 0.805 1.668 0.947" stroke="hsl(0.0,100%,35%)" stroke-width="0.00567"></path>
<path d="M1.927 0.766 Q1.482 0.648 1.154 0.840" stroke="hsl(0.0,100%,35%)" stroke-width="0.00189"></path>
<path d="M1.927 0.766 Q1.598 0.555 1.114 0.670" stroke="hsl(0.0,100%,35%)" stroke-width="0.00027"></path>
<path d="M1.927 0.766 Q1.494 0.782 1.430 0.998" stroke="hsl(0.0,100%,35%)" stroke-width="0.00378"></path>
<path d="M1.927 0.766 Q1.836 0.820 1.920 0.877" stroke="hsl(0.0,100%,35%)" stroke-width="0.00027"></path>
<path d="M1.154 0.840 Q1.325 0.996 1.668 0.947" stroke="hsl(0.0,100%,35%)" stroke-width="0.00162"></path>
<path d="M1.154 0.840 Q1.166 0.974 1.430 0.998" stroke="hsl(0.0,100%,35%)" stroke-width="0.00270"></path>
<path d="M1.154 0.840 Q1.271 0.747 1.114 0.670" stroke="hsl(0.0,100%,35%)" stroke-width="0.00054"></path>
<path d="M1.920 0.877 Q1.738 0.861 1.668 0.947" stroke="hsl(0.0,100%,35%)" stroke-width="0.00486"></path>
<path d="M1.920 0.877 Q1.579 0.839 1.430 0.998" stroke="hsl(0.0,100%,35%)" stroke-width="0.00513"></path>
<path d="M1.920 0.877 Q1.567 0.705 1.154 0.840" stroke="hsl(0.0,100%,35%)" stroke-width="0.00189"></path>
<path d="M1.920 0.877 Q1.683 0.612 1.114 0.670" stroke="hsl(0.0,100%,35%)" stroke-width="0.00162"></path>
<path d="M1.346 0.790 Q1.222 0.911 1.430 0.998" stroke="hsl(0.0,100%,35%)" stroke-width="0.00972"></path>
<path d="M1.346 0.790 Q1.381 0.933 1.668 0.947" stroke="hsl(0.0,100%,35%)" stroke-width="0.00972"></path>
<path d="M1.346 0.790 Q1.210 0.777 1.154 0.840" stroke="hsl(0.0,100%,35%)" stroke-width="0.00108"></path>
<path d="M1.346 0.790 Q1.326 0.684 1.114 0.670" stroke="hsl(0.0,100%,35%)" stroke-width="0.00027"></path>
<path d="M0.802 0.520 Q0.893 0.907 1.668 0.947" stroke="hsl(0.0,100%,35%)" stroke-width="0.01161"></path>
<path d="M0.802 0.520 Q0.734 0.884 1.430 0.998" stroke="hsl(0.0,100%,35%)" stroke-width="0.01215"></path>
<path d="M0.802 0.520 Q0.857 0.764 1.346 0.790" stroke="hsl(0.0,100%,35%)" stroke-width="0.00054"></path>
<path d="M0.802 0.520 Q0.838 0.657 1.114 0.670" stroke="hsl(0.0,100%,35%)" stroke-width="0.00297"></path>
<path d="M0.802 0.520 Q0.984 0.729 1.431 0.686" stroke="hsl(0.0,100%,35%)" stroke-width="0.00027"></path>
<path d="M0.948 0.757 Q0.997 0.974 1.430 0.998" stroke="hsl(0.0,100%,35%)" stroke-width="0.00054"></path>
<path d="M0.948 0.757 Q1.156 0.996 1.668 0.947" stroke="hsl(0.0,100%,35%)" stroke-width="0.00081"></path>
<path d="M0.948 0.757 Q1.101 0.747 1.114 0.670" stroke="hsl(0.0,100%,35%)" stroke-width="0.00027"></path>
<path d="M1.431 0.686 Q1.182 0.842 1.430 0.998" stroke="hsl(180.0,100%,35%)" stroke-width="0.01188"></path>
<path d="M1.431 0.686 Q1.286 0.614 1.114 0.670" stroke="hsl(180.0,100%,35%)" stroke-width="0.00297"></path>
<path d="M1.431 0.686 Q1.341 0.864 1.668 0.947" stroke="hsl(180.0,100%,35%)" stroke-width="0.01323"></path>
<path d="M1.431 0.686 Q1.681 0.715 1.793 0.600" stroke="hsl(180.0,100%,35%)" stroke-width="0.00999"></path>
<path d="M1.431 0.686 Q1.471 0.746 1.597 0.740" stroke="hsl(180.0,100%,35%)" stroke-width="0.00216"></path>
<path d="M1.431 0.686 Q1.499 0.679 1.500 0.644" stroke="hsl(180.0,100%,35%)" stroke-width="0.00027"></path>
<path d="M1.431 0.686 Q1.250 0.477 0.802 0.520" stroke="hsl(180.0,100%,35%)" stroke-width="0.00027"></path>
<path d="M1.793 0.600 Q1.611 0.563 1.500 0.644" stroke="hsl(180.0,100%,35%)" stroke-width="0.01323"></path>
<path d="M1.793 0.600 Q1.543 0.571 1.431 0.686" stroke="hsl(180.0,100%,35%)" stroke-width="0.01674"></path>
<path d="M1.793 0.600 Q1.582 0.631 1.597 0.740" stroke="hsl(180.0,100%,35%)" stroke-width="0.07589"></path>
<path d="M1.793 0.600 Q1.293 0.726 1.430 0.998" stroke="hsl(180.0,100%,35%)" stroke-width="0.00081"></path>
<path d="M1.793 0.600 Q1.612 0.766 1.897 0.891" stroke="hsl(180.0,100%,35%)" stroke-width="0.00027"></path>
<path d="M1.301 0.808 Q1.714 0.802 1.793 0.600" stroke="hsl(0.0,100%,35%)" stroke-width="0.00324"></path>
<path d="M1.301 0.808 Q1.214 0.929 1.430 0.998" stroke="hsl(0.0,100%,35%)" stroke-width="0.00513"></path>
<path d="M1.301 0.808 Q1.503 0.833 1.597 0.740" stroke="hsl(0.0,100%,35%)" stroke-width="0.00135"></path>
<path d="M1.301 0.808 Q1.373 0.951 1.668 0.947" stroke="hsl(0.0,100%,35%)" stroke-width="0.00486"></path>
<path d="M1.301 0.808 Q1.282 0.564 0.802 0.520" stroke="hsl(0.0,100%,35%)" stroke-width="0.00081"></path>
<path d="M1.064 1.004 Q1.412 1.097 1.668 0.947" stroke="hsl(0.0,100%,35%)" stroke-width="0.01080"></path>
<path d="M1.064 1.004 Q1.357 0.847 1.114 0.670" stroke="hsl(0.0,100%,35%)" stroke-width="0.00162"></path>
<path d="M1.064 1.004 Q1.253 1.074 1.430 0.998" stroke="hsl(0.0,100%,35%)" stroke-width="0.00756"></path>
<path d="M0.611 0.774 Q0.842 1.050 1.430 0.998" stroke="hsl(0.0,100%,35%)" stroke-width="0.00054"></path>
<path d="M0.611 0.774 Q1.001 1.072 1.668 0.947" stroke="hsl(0.0,100%,35%)" stroke-width="0.00081"></path>
<path d="M0.611 0.774 Q0.946 0.823 1.114 0.670" stroke="hsl(0.0,100%,35%)" stroke-width="0.00027"></path>
<path d="M1.315 0.619 Q1.359 0.736 1.597 0.740" stroke="hsl(180.0,100%,35%)" stroke-width="0.01512"></path>
<path d="M1.315 0.619 Q1.320 0.676 1.431 0.686" stroke="hsl(180.0,100%,35%)" stroke-width="0.00270"></path>
<path d="M1.315 0.619 Q1.387 0.669 1.500 0.644" stroke="hsl(180.0,100%,35%)" stroke-width="0.00216"></path>
<path d="M1.597 0.740 Q1.626 0.673 1.500 0.644" stroke="hsl(180.0,100%,35%)" stroke-width="0.00162"></path>
<path d="M1.597 0.740 Q1.558 0.680 1.431 0.686" stroke="hsl(180.0,100%,35%)" stroke-width="0.00135"></path>
<path d="M1.597 0.740 Q1.807 0.709 1.793 0.600" stroke="hsl(180.0,100%,35%)" stroke-width="0.04591"></path>
<path d="M1.500 0.644 Q1.472 0.712 1.597 0.740" stroke="hsl(180.0,100%,35%)" stroke-width="0.00405"></path>
<path d="M1.500 0.644 Q1.682 0.681 1.793 0.600" stroke="hsl(180.0,100%,35%)" stroke-width="0.00729"></path>
<path d="M1.500 0.644 Q1.432 0.651 1.431 0.686" stroke="hsl(180.0,100%,35%)" stroke-width="0.00027"></path>
<path d="M1.897 0.891 Q1.737 0.873 1.668 0.947" stroke="hsl(180.0,100%,35%)" stroke-width="0.00135"></path>
<path d="M1.897 0.891 Q1.578 0.851 1.430 0.998" stroke="hsl(180.0,100%,35%)" stroke-width="0.00162"></path>
<path d="M1.897 0.891 Q2.078 0.724 1.793 0.600" stroke="hsl(180.0,100%,35%)" stroke-width="0.00135"></path>
<path d="M1.190 0.853 Q1.318 0.853 1.346 0.790" stroke="hsl(0.0,100%,35%)" stroke-width="0.00135"></path>
<path d="M1.190 0.853 Q1.354 0.996 1.668 0.947" stroke="hsl(0.0,100%,35%)" stroke-width="0.00108"></path>
<path d="M1.190 0.853 Q1.194 0.973 1.430 0.998" stroke="hsl(0.0,100%,35%)" stroke-width="0.00108"></path>
<path d="M1.190 0.853 Q1.182 0.839 1.154 0.840" stroke="hsl(0.0,100%,35%)" stroke-width="0.00054"></path>
<path d="M1.014 0.907 Q1.150 1.036 1.430 0.998" stroke="hsl(0.0,100%,35%)" stroke-width="0.00432"></path>
<path d="M1.014 0.907 Q1.309 1.058 1.668 0.947" stroke="hsl(0.0,100%,35%)" stroke-width="0.00243"></path>
<path d="M1.014 0.907 Q1.400 0.880 1.431 0.686" stroke="hsl(0.0,100%,35%)" stroke-width="0.00027"></path>
<path d="M1.014 0.907 Q1.218 0.671 0.802 0.520" stroke="hsl(0.0,100%,35%)" stroke-width="0.00027"></path>
<path d="M1.130 0.815 Q1.134 0.967 1.430 0.998" stroke="hsl(0.0,100%,35%)" stroke-width="0.00189"></path>
<path d="M1.130 0.815 Q1.294 0.989 1.668 0.947" stroke="hsl(0.0,100%,35%)" stroke-width="0.00108"></path>
<path d="M1.130 0.815 Q1.239 0.740 1.114 0.670" stroke="hsl(0.0,100%,35%)" stroke-width="0.00108"></path>
<path d="M0.526 0.398 Q0.498 0.878 1.430 0.998" stroke="hsl(0.0,100%,35%)" stroke-width="0.00162"></path>
<path d="M0.526 0.398 Q0.567 0.514 0.802 0.520" stroke="hsl(0.0,100%,35%)" stroke-width="0.00081"></path>
<path d="M0.526 0.398 Q0.658 0.901 1.668 0.947" stroke="hsl(0.0,100%,35%)" stroke-width="0.00054"></path>
<path d="M0.526 0.398 Q0.603 0.651 1.114 0.670" stroke="hsl(0.0,100%,35%)" stroke-width="0.00027"></path>
</g>
<text x="0.755" y="0.925" font-size="0.006281" fill="hsl(0.0,100%,20%)">bajones</text>
<text x="1.430" y="0.954" font-size="0.087593" fill="hsl(0.0,100%,20%)">cwallez</text>
<text x="1.668" y="0.905" font-size="0.084382" fill="hsl(0.0,100%,20%)">enga</text>
<text x="1.114" y="0.645" font-size="0.049554" fill="hsl(0.0,100%,20%)">kainino</text>
<text x="1.927" y="0.756" font-size="0.021066" fill="hsl(0.0,100%,20%)">brandon1.jones</text>
<text x="1.154" y="0.830" font-size="0.019861" fill="hsl(0.0,100%,20%)">rafael.cintron</text>
<text x="1.920" y="0.865" font-size="0.022427" fill="hsl(0.0,100%,20%)">natlee</text>
<text x="1.346" y="0.775" font-size="0.029792" fill="hsl(0.0,100%,20%)">bryan.bernhart</text>
<text x="0.802" y="0.501" font-size="0.037815" fill="hsl(0.0,100%,20%)">jiawei.shao</text>
<text x="0.948" y="0.744" font-size="0.027196" fill="hsl(0.0,100%,20%)">senorblanco</text>
<text x="1.431" y="0.662" font-size="0.048345" fill="hsl(180.0,100%,20%)">rharrison</text>
<text x="1.793" y="0.560" font-size="0.080002" fill="hsl(180.0,100%,20%)">dsinclair</text>
<text x="1.301" y="0.796" font-size="0.023916" fill="hsl(0.0,100%,20%)">tommek</text>
<text x="1.064" y="0.991" font-size="0.027377" fill="hsl(0.0,100%,20%)">yunchao.he</text>
<text x="1.181" y="0.818" font-size="0.003140" fill="hsl(0.0,100%,20%)">sque</text>
<text x="0.611" y="0.770" font-size="0.008309" fill="hsl(0.0,100%,20%)">zmo</text>
<text x="1.197" y="1.016" font-size="0.004441" fill="hsl(0.0,100%,20%)">thakis</text>
<text x="1.124" y="0.877" font-size="0.009421" fill="hsl(0.0,100%,20%)">digit</text>
<text x="1.161" y="1.002" font-size="0.003140" fill="hsl(0.0,100%,20%)">hob</text>
<text x="1.325" y="0.976" font-size="0.003140" fill="hsl(0.0,100%,20%)">beaufort.francois</text>
<text x="1.315" y="0.605" font-size="0.027014" fill="hsl(180.0,100%,20%)">dj2</text>
<text x="1.597" y="0.704" font-size="0.073380" fill="hsl(180.0,100%,20%)">dneto</text>
<text x="1.500" y="0.628" font-size="0.032484" fill="hsl(180.0,100%,20%)">sarahmashay</text>
<text x="1.897" y="0.884" font-size="0.012948" fill="hsl(180.0,100%,20%)">idanr</text>
<text x="1.566" y="0.805" font-size="0.003140" fill="hsl(0.0,100%,20%)">mtklein</text>
<text x="1.861" y="-4.943" font-size="0.004441" fill="hsl(0.0,100%,20%)">mehe</text>
<text x="1.190" y="0.847" font-size="0.012163" fill="hsl(0.0,100%,20%)">enrico.galli</text>
<text x="1.014" y="0.899" font-size="0.016318" fill="hsl(0.0,100%,20%)">hao.x.li</text>
<text x="1.130" y="0.809" font-size="0.012163" fill="hsl(0.0,100%,20%)">jiajie.hu</text>
<text x="0.526" y="0.392" font-size="0.010879" fill="hsl(0.0,100%,20%)">xinghua.cao</text>
</svg>
