<svg width="4000" height="2000" viewBox="-0.025 -0.025 2.05 1.05" xmlns="http://www.w3.org/2000/svg">
  <style>
    path {
      fill: none;
      stroke-linecap: round;
      stroke-opacity: 0.4;
    }

    text {
      text-anchor: middle;
      alignment-baseline: hanging;
    }
  </style>
  <g opacity="0.4">
<path d="M0.890 0.454 Q0.743 0.540 0.878 0.630" stroke="hsl(0.0,100%,35%)" stroke-width="0.00741"></path>
<path d="M0.890 0.454 Q1.063 0.376 0.950 0.274" stroke="hsl(0.0,100%,35%)" stroke-width="0.00719"></path>
<path d="M0.890 0.454 Q1.286 0.342 1.156 0.125" stroke="hsl(0.0,100%,35%)" stroke-width="0.00022"></path>
<path d="M0.890 0.454 Q1.010 0.761 1.637 0.770" stroke="hsl(0.0,100%,35%)" stroke-width="0.00196"></path>
<path d="M0.890 0.454 Q0.559 0.368 0.319 0.511" stroke="hsl(0.0,100%,35%)" stroke-width="0.00349"></path>
<path d="M0.890 0.454 Q0.638 0.447 0.570 0.568" stroke="hsl(0.0,100%,35%)" stroke-width="0.00719"></path>
<path d="M0.890 0.454 Q1.203 0.282 0.937 0.092" stroke="hsl(0.0,100%,35%)" stroke-width="0.00044"></path>
<path d="M0.890 0.454 Q0.448 0.494 0.431 0.719" stroke="hsl(0.0,100%,35%)" stroke-width="0.00131"></path>
<path d="M0.890 0.454 Q0.890 0.371 0.730 0.353" stroke="hsl(0.0,100%,35%)" stroke-width="0.00022"></path>
<path d="M0.890 0.454 Q0.596 0.256 0.146 0.356" stroke="hsl(0.0,100%,35%)" stroke-width="0.00065"></path>
<path d="M0.890 0.454 Q1.023 0.498 1.139 0.443" stroke="hsl(0.0,100%,35%)" stroke-width="0.00022"></path>
<path d="M0.890 0.454 Q0.971 0.581 1.237 0.569" stroke="hsl(0.0,100%,35%)" stroke-width="0.00022"></path>
<path d="M0.878 0.630 Q1.025 0.544 0.890 0.454" stroke="hsl(0.0,100%,35%)" stroke-width="0.01351"></path>
<path d="M0.878 0.630 Q0.694 0.459 0.319 0.511" stroke="hsl(0.0,100%,35%)" stroke-width="0.02354"></path>
<path d="M0.878 0.630 Q0.774 0.538 0.570 0.568" stroke="hsl(0.0,100%,35%)" stroke-width="0.03792"></path>
<path d="M0.878 0.630 Q1.145 0.852 1.637 0.770" stroke="hsl(0.0,100%,35%)" stroke-width="0.01133"></path>
<path d="M0.878 0.630 Q0.764 0.596 0.672 0.644" stroke="hsl(0.0,100%,35%)" stroke-width="0.00610"></path>
<path d="M0.878 0.630 Q1.026 0.462 0.730 0.353" stroke="hsl(0.0,100%,35%)" stroke-width="0.00022"></path>
<path d="M0.878 0.630 Q1.338 0.373 0.937 0.092" stroke="hsl(0.0,100%,35%)" stroke-width="0.00065"></path>
<path d="M0.878 0.630 Q1.199 0.467 0.950 0.274" stroke="hsl(0.0,100%,35%)" stroke-width="0.00719"></path>
<path d="M0.878 0.630 Q1.142 0.511 0.966 0.355" stroke="hsl(0.0,100%,35%)" stroke-width="0.00044"></path>
<path d="M0.878 0.630 Q1.281 0.651 1.410 0.459" stroke="hsl(0.0,100%,35%)" stroke-width="0.00022"></path>
<path d="M0.878 0.630 Q1.018 0.492 0.778 0.393" stroke="hsl(0.0,100%,35%)" stroke-width="0.00022"></path>
<path d="M0.878 0.630 Q0.584 0.585 0.431 0.719" stroke="hsl(0.0,100%,35%)" stroke-width="0.00719"></path>
<path d="M0.878 0.630 Q1.470 0.564 1.472 0.261" stroke="hsl(0.0,100%,35%)" stroke-width="0.00022"></path>
<path d="M0.950 0.274 Q1.172 0.241 1.156 0.125" stroke="hsl(180.0,100%,35%)" stroke-width="0.00022"></path>
<path d="M0.950 0.274 Q0.897 0.659 1.637 0.770" stroke="hsl(180.0,100%,35%)" stroke-width="0.00741"></path>
<path d="M0.950 0.274 Q1.060 0.445 1.417 0.428" stroke="hsl(180.0,100%,35%)" stroke-width="0.01787"></path>
<path d="M0.950 0.274 Q0.776 0.352 0.890 0.454" stroke="hsl(180.0,100%,35%)" stroke-width="0.00153"></path>
<path d="M0.950 0.274 Q1.124 0.289 1.191 0.207" stroke="hsl(180.0,100%,35%)" stroke-width="0.00022"></path>
<path d="M0.950 0.274 Q0.516 0.403 0.672 0.644" stroke="hsl(180.0,100%,35%)" stroke-width="0.00065"></path>
<path d="M0.950 0.274 Q1.089 0.181 0.937 0.092" stroke="hsl(180.0,100%,35%)" stroke-width="0.00785"></path>
<path d="M0.950 0.274 Q1.221 0.372 1.472 0.261" stroke="hsl(180.0,100%,35%)" stroke-width="0.00044"></path>
<path d="M0.950 0.274 Q0.445 0.266 0.319 0.511" stroke="hsl(180.0,100%,35%)" stroke-width="0.00044"></path>
<path d="M0.950 0.274 Q1.273 0.294 1.384 0.141" stroke="hsl(180.0,100%,35%)" stroke-width="0.00087"></path>
<path d="M0.950 0.274 Q0.893 0.318 0.966 0.355" stroke="hsl(180.0,100%,35%)" stroke-width="0.00131"></path>
<path d="M0.950 0.274 Q0.629 0.438 0.878 0.630" stroke="hsl(180.0,100%,35%)" stroke-width="0.00109"></path>
<path d="M0.950 0.274 Q0.791 0.525 1.245 0.658" stroke="hsl(180.0,100%,35%)" stroke-width="0.00044"></path>
<path d="M0.950 0.274 Q0.525 0.345 0.570 0.568" stroke="hsl(180.0,100%,35%)" stroke-width="0.00022"></path>
<path d="M0.950 0.274 Q0.955 0.354 1.111 0.368" stroke="hsl(180.0,100%,35%)" stroke-width="0.00022"></path>
<path d="M0.950 0.274 Q1.037 0.365 1.232 0.342" stroke="hsl(180.0,100%,35%)" stroke-width="0.00022"></path>
<path d="M0.950 0.274 Q0.777 0.270 0.730 0.353" stroke="hsl(180.0,100%,35%)" stroke-width="0.00044"></path>
<path d="M1.156 0.125 Q0.933 0.158 0.950 0.274" stroke="hsl(180.0,100%,35%)" stroke-width="0.00196"></path>
<path d="M1.156 0.125 Q0.612 0.322 0.878 0.630" stroke="hsl(180.0,100%,35%)" stroke-width="0.00022"></path>
<path d="M1.156 0.125 Q0.760 0.154 0.730 0.353" stroke="hsl(180.0,100%,35%)" stroke-width="0.00022"></path>
<path d="M1.156 0.125 Q0.880 0.543 1.637 0.770" stroke="hsl(180.0,100%,35%)" stroke-width="0.00065"></path>
<path d="M1.156 0.125 Q0.760 0.236 0.890 0.454" stroke="hsl(180.0,100%,35%)" stroke-width="0.00044"></path>
<path d="M1.156 0.125 Q1.072 0.065 0.937 0.092" stroke="hsl(180.0,100%,35%)" stroke-width="0.00022"></path>
<path d="M1.156 0.125 Q1.205 0.256 1.472 0.261" stroke="hsl(180.0,100%,35%)" stroke-width="0.00065"></path>
<path d="M1.156 0.125 Q1.257 0.178 1.384 0.141" stroke="hsl(180.0,100%,35%)" stroke-width="0.00022"></path>
<path d="M1.156 0.125 Q0.635 0.521 1.295 0.862" stroke="hsl(180.0,100%,35%)" stroke-width="0.00022"></path>
<path d="M1.156 0.125 Q0.508 0.229 0.570 0.568" stroke="hsl(180.0,100%,35%)" stroke-width="0.00022"></path>
<path d="M1.156 0.125 Q0.840 0.363 1.237 0.569" stroke="hsl(180.0,100%,35%)" stroke-width="0.00022"></path>
<path d="M1.156 0.125 Q0.428 0.150 0.319 0.511" stroke="hsl(180.0,100%,35%)" stroke-width="0.00022"></path>
<path d="M1.637 0.770 Q1.690 0.385 0.950 0.274" stroke="hsl(180.0,100%,35%)" stroke-width="0.02942"></path>
<path d="M1.637 0.770 Q1.369 0.548 0.878 0.630" stroke="hsl(180.0,100%,35%)" stroke-width="0.01199"></path>
<path d="M1.637 0.770 Q1.961 0.482 1.472 0.261" stroke="hsl(180.0,100%,35%)" stroke-width="0.00370"></path>
<path d="M1.637 0.770 Q1.864 0.399 1.191 0.207" stroke="hsl(180.0,100%,35%)" stroke-width="0.00022"></path>
<path d="M1.637 0.770 Q1.800 0.555 1.417 0.428" stroke="hsl(180.0,100%,35%)" stroke-width="0.01961"></path>
<path d="M1.637 0.770 Q1.829 0.291 0.937 0.092" stroke="hsl(180.0,100%,35%)" stroke-width="0.00676"></path>
<path d="M1.637 0.770 Q1.487 0.654 1.228 0.701" stroke="hsl(180.0,100%,35%)" stroke-width="0.00044"></path>
<path d="M1.637 0.770 Q1.075 0.503 0.431 0.719" stroke="hsl(180.0,100%,35%)" stroke-width="0.00022"></path>
<path d="M1.637 0.770 Q1.185 0.377 0.319 0.511" stroke="hsl(180.0,100%,35%)" stroke-width="0.00109"></path>
<path d="M1.637 0.770 Q1.595 0.662 1.375 0.658" stroke="hsl(180.0,100%,35%)" stroke-width="0.00022"></path>
<path d="M1.637 0.770 Q1.772 0.569 1.410 0.459" stroke="hsl(180.0,100%,35%)" stroke-width="0.00065"></path>
<path d="M1.637 0.770 Q1.633 0.429 0.966 0.355" stroke="hsl(180.0,100%,35%)" stroke-width="0.00174"></path>
<path d="M1.637 0.770 Q1.697 0.671 1.517 0.620" stroke="hsl(180.0,100%,35%)" stroke-width="0.00022"></path>
<path d="M1.637 0.770 Q1.705 0.590 1.369 0.517" stroke="hsl(180.0,100%,35%)" stroke-width="0.00044"></path>
<path d="M1.637 0.770 Q1.730 0.656 1.528 0.586" stroke="hsl(180.0,100%,35%)" stroke-width="0.00044"></path>
<path d="M1.637 0.770 Q1.265 0.456 0.570 0.568" stroke="hsl(180.0,100%,35%)" stroke-width="0.00044"></path>
<path d="M1.637 0.770 Q1.912 0.351 1.156 0.125" stroke="hsl(180.0,100%,35%)" stroke-width="0.00022"></path>
<path d="M1.637 0.770 Q1.531 0.636 1.245 0.658" stroke="hsl(180.0,100%,35%)" stroke-width="0.00022"></path>
<path d="M1.637 0.770 Q1.392 0.748 1.295 0.862" stroke="hsl(180.0,100%,35%)" stroke-width="0.00087"></path>
<path d="M1.637 0.770 Q1.848 0.633 1.629 0.500" stroke="hsl(180.0,100%,35%)" stroke-width="0.00196"></path>
<path d="M1.637 0.770 Q0.935 0.419 0.095 0.684" stroke="hsl(180.0,100%,35%)" stroke-width="0.00153"></path>
<path d="M1.637 0.770 Q1.256 0.514 0.672 0.644" stroke="hsl(180.0,100%,35%)" stroke-width="0.00022"></path>
<path d="M1.637 0.770 Q1.271 0.648 0.952 0.799" stroke="hsl(180.0,100%,35%)" stroke-width="0.00153"></path>
<path d="M1.637 0.770 Q1.649 0.652 1.421 0.620" stroke="hsl(180.0,100%,35%)" stroke-width="0.00022"></path>
<path d="M1.637 0.770 Q1.516 0.463 0.890 0.454" stroke="hsl(180.0,100%,35%)" stroke-width="0.00022"></path>
<path d="M0.319 0.511 Q0.398 0.590 0.570 0.568" stroke="hsl(0.0,100%,35%)" stroke-width="0.06494"></path>
<path d="M0.319 0.511 Q0.503 0.682 0.878 0.630" stroke="hsl(0.0,100%,35%)" stroke-width="0.01722"></path>
<path d="M0.319 0.511 Q0.650 0.597 0.890 0.454" stroke="hsl(0.0,100%,35%)" stroke-width="0.00414"></path>
<path d="M0.319 0.511 Q0.510 0.489 0.509 0.390" stroke="hsl(0.0,100%,35%)" stroke-width="0.00022"></path>
<path d="M0.319 0.511 Q0.770 0.904 1.637 0.770" stroke="hsl(0.0,100%,35%)" stroke-width="0.00458"></path>
<path d="M0.319 0.511 Q0.824 0.519 0.950 0.274" stroke="hsl(0.0,100%,35%)" stroke-width="0.00065"></path>
<path d="M0.319 0.511 Q0.208 0.637 0.431 0.719" stroke="hsl(0.0,100%,35%)" stroke-width="0.00087"></path>
<path d="M0.319 0.511 Q1.095 0.616 1.472 0.261" stroke="hsl(0.0,100%,35%)" stroke-width="0.00196"></path>
<path d="M0.319 0.511 Q1.147 0.539 1.384 0.141" stroke="hsl(0.0,100%,35%)" stroke-width="0.00022"></path>
<path d="M0.319 0.511 Q0.829 0.619 1.151 0.394" stroke="hsl(0.0,100%,35%)" stroke-width="0.00022"></path>
<path d="M0.319 0.511 Q0.356 0.399 0.146 0.356" stroke="hsl(0.0,100%,35%)" stroke-width="0.00022"></path>
<path d="M0.319 0.511 Q0.682 0.824 1.373 0.715" stroke="hsl(0.0,100%,35%)" stroke-width="0.00022"></path>
<path d="M0.319 0.511 Q0.557 0.468 0.525 0.342" stroke="hsl(0.0,100%,35%)" stroke-width="0.00022"></path>
<path d="M0.319 0.511 Q0.963 0.425 0.937 0.092" stroke="hsl(0.0,100%,35%)" stroke-width="0.00044"></path>
<path d="M0.319 0.511 Q0.783 0.641 1.139 0.443" stroke="hsl(0.0,100%,35%)" stroke-width="0.00022"></path>
<path d="M0.570 0.568 Q0.674 0.661 0.878 0.630" stroke="hsl(0.0,100%,35%)" stroke-width="0.01547"></path>
<path d="M0.570 0.568 Q0.490 0.489 0.319 0.511" stroke="hsl(0.0,100%,35%)" stroke-width="0.03727"></path>
<path d="M0.570 0.568 Q0.942 0.882 1.637 0.770" stroke="hsl(0.0,100%,35%)" stroke-width="0.00174"></path>
<path d="M0.570 0.568 Q0.561 0.626 0.672 0.644" stroke="hsl(0.0,100%,35%)" stroke-width="0.00458"></path>
<path d="M0.570 0.568 Q0.822 0.575 0.890 0.454" stroke="hsl(0.0,100%,35%)" stroke-width="0.00370"></path>
<path d="M0.570 0.568 Q0.938 0.541 0.966 0.355" stroke="hsl(0.0,100%,35%)" stroke-width="0.00065"></path>
<path d="M0.570 0.568 Q0.995 0.497 0.950 0.274" stroke="hsl(0.0,100%,35%)" stroke-width="0.00196"></path>
<path d="M0.570 0.568 Q0.380 0.616 0.431 0.719" stroke="hsl(0.0,100%,35%)" stroke-width="0.00174"></path>
<path d="M0.570 0.568 Q0.528 0.377 0.146 0.356" stroke="hsl(0.0,100%,35%)" stroke-width="0.00065"></path>
<path d="M0.570 0.568 Q1.000 0.597 1.151 0.394" stroke="hsl(0.0,100%,35%)" stroke-width="0.00022"></path>
<path d="M0.570 0.568 Q0.331 0.670 0.478 0.809" stroke="hsl(0.0,100%,35%)" stroke-width="0.00022"></path>
<path d="M0.570 0.568 Q1.105 0.668 1.417 0.428" stroke="hsl(0.0,100%,35%)" stroke-width="0.00022"></path>
<path d="M0.937 0.092 Q0.798 0.186 0.950 0.274" stroke="hsl(180.0,100%,35%)" stroke-width="0.00305"></path>
<path d="M0.937 0.092 Q0.745 0.571 1.637 0.770" stroke="hsl(180.0,100%,35%)" stroke-width="0.00305"></path>
<path d="M0.937 0.092 Q0.908 0.356 1.417 0.428" stroke="hsl(180.0,100%,35%)" stroke-width="0.00392"></path>
<path d="M0.937 0.092 Q0.477 0.350 0.878 0.630" stroke="hsl(180.0,100%,35%)" stroke-width="0.00044"></path>
<path d="M0.937 0.092 Q0.500 0.549 1.295 0.862" stroke="hsl(180.0,100%,35%)" stroke-width="0.00022"></path>
<path d="M0.937 0.092 Q1.121 0.206 1.384 0.141" stroke="hsl(180.0,100%,35%)" stroke-width="0.00022"></path>
<path d="M0.937 0.092 Q0.625 0.181 0.730 0.353" stroke="hsl(180.0,100%,35%)" stroke-width="0.00131"></path>
<path d="M0.937 0.092 Q0.720 0.454 1.378 0.639" stroke="hsl(180.0,100%,35%)" stroke-width="0.00022"></path>
<path d="M0.937 0.092 Q0.293 0.178 0.319 0.511" stroke="hsl(180.0,100%,35%)" stroke-width="0.00109"></path>
<path d="M0.431 0.719 Q0.541 0.592 0.319 0.511" stroke="hsl(0.0,100%,35%)" stroke-width="0.00697"></path>
<path d="M0.431 0.719 Q1.046 0.600 0.950 0.274" stroke="hsl(0.0,100%,35%)" stroke-width="0.00022"></path>
<path d="M0.431 0.719 Q0.621 0.671 0.570 0.568" stroke="hsl(0.0,100%,35%)" stroke-width="0.00915"></path>
<path d="M0.431 0.719 Q0.725 0.764 0.878 0.630" stroke="hsl(0.0,100%,35%)" stroke-width="0.00131"></path>
<path d="M0.431 0.719 Q0.873 0.596 0.730 0.353" stroke="hsl(0.0,100%,35%)" stroke-width="0.00022"></path>
<path d="M0.431 0.719 Q0.612 0.729 0.672 0.644" stroke="hsl(0.0,100%,35%)" stroke-width="0.00044"></path>
<path d="M0.431 0.719 Q0.315 0.720 0.292 0.777" stroke="hsl(0.0,100%,35%)" stroke-width="0.00022"></path>
<path d="M0.431 0.719 Q0.872 0.678 0.890 0.454" stroke="hsl(0.0,100%,35%)" stroke-width="0.00022"></path>
<path d="M0.730 0.353 Q0.903 0.358 0.950 0.274" stroke="hsl(180.0,100%,35%)" stroke-width="0.01199"></path>
<path d="M0.730 0.353 Q1.042 0.264 0.937 0.092" stroke="hsl(180.0,100%,35%)" stroke-width="0.00153"></path>
<path d="M0.730 0.353 Q0.398 0.350 0.319 0.511" stroke="hsl(180.0,100%,35%)" stroke-width="0.00240"></path>
<path d="M0.730 0.353 Q0.582 0.521 0.878 0.630" stroke="hsl(180.0,100%,35%)" stroke-width="0.00065"></path>
<path d="M0.730 0.353 Q1.126 0.324 1.156 0.125" stroke="hsl(180.0,100%,35%)" stroke-width="0.00022"></path>
<path d="M0.730 0.353 Q0.367 0.771 1.103 1.040" stroke="hsl(180.0,100%,35%)" stroke-width="0.00022"></path>
<path d="M0.730 0.353 Q0.469 0.487 0.672 0.644" stroke="hsl(180.0,100%,35%)" stroke-width="0.00044"></path>
<path d="M0.146 0.356 Q-0.002 0.594 0.431 0.719" stroke="hsl(0.0,100%,35%)" stroke-width="0.00065"></path>
<path d="M0.146 0.356 Q0.292 0.639 0.878 0.630" stroke="hsl(0.0,100%,35%)" stroke-width="0.00022"></path>
<path d="M0.146 0.356 Q0.440 0.554 0.890 0.454" stroke="hsl(0.0,100%,35%)" stroke-width="0.00109"></path>
<path d="M0.146 0.356 Q0.188 0.547 0.570 0.568" stroke="hsl(0.0,100%,35%)" stroke-width="0.00174"></path>
<path d="M0.146 0.356 Q0.108 0.468 0.319 0.511" stroke="hsl(0.0,100%,35%)" stroke-width="0.00458"></path>
<path d="M0.146 0.356 Q0.179 0.605 0.672 0.644" stroke="hsl(0.0,100%,35%)" stroke-width="0.00022"></path>
<path d="M0.146 0.356 Q0.560 0.861 1.637 0.770" stroke="hsl(0.0,100%,35%)" stroke-width="0.00022"></path>
<path d="M0.753 0.719 Q0.887 0.700 0.878 0.630" stroke="hsl(0.0,100%,35%)" stroke-width="0.00022"></path>
<path d="M0.753 0.719 Q0.703 0.528 0.319 0.511" stroke="hsl(0.0,100%,35%)" stroke-width="0.00022"></path>
<path d="M0.753 0.719 Q1.151 0.580 0.966 0.355" stroke="hsl(0.0,100%,35%)" stroke-width="0.00022"></path>
<path d="M0.753 0.719 Q1.154 0.921 1.637 0.770" stroke="hsl(0.0,100%,35%)" stroke-width="0.00022"></path>
<path d="M0.753 0.719 Q1.066 0.841 1.373 0.715" stroke="hsl(0.0,100%,35%)" stroke-width="0.00022"></path>
<path d="M0.966 0.355 Q1.162 0.218 0.937 0.092" stroke="hsl(180.0,100%,35%)" stroke-width="0.00174"></path>
<path d="M0.966 0.355 Q1.347 0.332 1.384 0.141" stroke="hsl(180.0,100%,35%)" stroke-width="0.00022"></path>
<path d="M0.966 0.355 Q0.970 0.697 1.637 0.770" stroke="hsl(180.0,100%,35%)" stroke-width="0.00044"></path>
<path d="M0.966 0.355 Q1.023 0.311 0.950 0.274" stroke="hsl(180.0,100%,35%)" stroke-width="0.00218"></path>
<path d="M0.966 0.355 Q1.134 0.482 1.417 0.428" stroke="hsl(180.0,100%,35%)" stroke-width="0.00065"></path>
<path d="M0.966 0.355 Q1.028 0.411 1.151 0.394" stroke="hsl(180.0,100%,35%)" stroke-width="0.00022"></path>
<path d="M1.373 0.715 Q1.461 0.795 1.637 0.770" stroke="hsl(180.0,100%,35%)" stroke-width="0.00741"></path>
<path d="M1.373 0.715 Q1.009 0.402 0.319 0.511" stroke="hsl(180.0,100%,35%)" stroke-width="0.00436"></path>
<path d="M1.373 0.715 Q1.673 0.659 1.629 0.500" stroke="hsl(180.0,100%,35%)" stroke-width="0.00087"></path>
<path d="M1.373 0.715 Q1.625 0.581 1.417 0.428" stroke="hsl(180.0,100%,35%)" stroke-width="0.00065"></path>
<path d="M1.373 0.715 Q0.991 0.279 0.056 0.369" stroke="hsl(180.0,100%,35%)" stroke-width="0.00022"></path>
<path d="M1.373 0.715 Q1.080 0.539 0.672 0.644" stroke="hsl(180.0,100%,35%)" stroke-width="0.00022"></path>
<path d="M1.373 0.715 Q1.838 0.430 1.384 0.141" stroke="hsl(180.0,100%,35%)" stroke-width="0.00022"></path>
<path d="M1.373 0.715 Q1.514 0.410 0.950 0.274" stroke="hsl(180.0,100%,35%)" stroke-width="0.00022"></path>
<path d="M1.410 0.459 Q1.274 0.660 1.637 0.770" stroke="hsl(180.0,100%,35%)" stroke-width="0.00654"></path>
<path d="M1.410 0.459 Q1.327 0.275 0.950 0.274" stroke="hsl(180.0,100%,35%)" stroke-width="0.00087"></path>
<path d="M1.410 0.459 Q1.184 0.532 1.276 0.658" stroke="hsl(180.0,100%,35%)" stroke-width="0.00022"></path>
<path d="M1.410 0.459 Q1.007 0.438 0.878 0.630" stroke="hsl(180.0,100%,35%)" stroke-width="0.00153"></path>
<path d="M0.738 0.056 Q0.616 0.592 1.637 0.770" stroke="hsl(180.0,100%,35%)" stroke-width="0.00065"></path>
<path d="M0.738 0.056 Q0.808 0.114 0.937 0.092" stroke="hsl(180.0,100%,35%)" stroke-width="0.00065"></path>
<path d="M0.738 0.056 Q0.780 0.378 1.417 0.428" stroke="hsl(180.0,100%,35%)" stroke-width="0.00022"></path>
<path d="M0.738 0.056 Q0.993 0.227 1.384 0.141" stroke="hsl(180.0,100%,35%)" stroke-width="0.00022"></path>
<path d="M0.738 0.056 Q0.348 0.371 0.878 0.630" stroke="hsl(180.0,100%,35%)" stroke-width="0.00022"></path>
<path d="M0.738 0.056 Q0.669 0.207 0.950 0.274" stroke="hsl(180.0,100%,35%)" stroke-width="0.00022"></path>
<path d="M1.417 0.428 Q1.307 0.258 0.950 0.274" stroke="hsl(180.0,100%,35%)" stroke-width="0.01787"></path>
<path d="M1.417 0.428 Q1.254 0.643 1.637 0.770" stroke="hsl(180.0,100%,35%)" stroke-width="0.00610"></path>
<path d="M1.417 0.428 Q1.630 0.278 1.384 0.141" stroke="hsl(180.0,100%,35%)" stroke-width="0.00283"></path>
<path d="M1.417 0.428 Q0.986 0.421 0.878 0.630" stroke="hsl(180.0,100%,35%)" stroke-width="0.00044"></path>
<path d="M1.417 0.428 Q1.446 0.164 0.937 0.092" stroke="hsl(180.0,100%,35%)" stroke-width="0.00763"></path>
<path d="M1.417 0.428 Q1.312 0.358 1.151 0.394" stroke="hsl(180.0,100%,35%)" stroke-width="0.00022"></path>
<path d="M1.417 0.428 Q1.133 0.336 0.890 0.454" stroke="hsl(180.0,100%,35%)" stroke-width="0.00022"></path>
<path d="M1.417 0.428 Q1.266 0.380 1.139 0.443" stroke="hsl(180.0,100%,35%)" stroke-width="0.00022"></path>
<path d="M1.417 0.428 Q0.882 0.329 0.570 0.568" stroke="hsl(180.0,100%,35%)" stroke-width="0.00022"></path>
<path d="M1.417 0.428 Q0.802 0.250 0.319 0.511" stroke="hsl(180.0,100%,35%)" stroke-width="0.00022"></path>
<path d="M1.417 0.428 Q1.250 0.302 0.966 0.355" stroke="hsl(180.0,100%,35%)" stroke-width="0.00022"></path>
<path d="M1.384 0.141 Q1.060 0.121 0.950 0.274" stroke="hsl(180.0,100%,35%)" stroke-width="0.00632"></path>
<path d="M1.384 0.141 Q1.007 0.506 1.637 0.770" stroke="hsl(180.0,100%,35%)" stroke-width="0.00044"></path>
<path d="M1.384 0.141 Q1.171 0.291 1.417 0.428" stroke="hsl(180.0,100%,35%)" stroke-width="0.00174"></path>
<path d="M1.384 0.141 Q1.199 0.027 0.937 0.092" stroke="hsl(180.0,100%,35%)" stroke-width="0.00044"></path>
<path d="M1.384 0.141 Q1.332 0.219 1.472 0.261" stroke="hsl(180.0,100%,35%)" stroke-width="0.00545"></path>
<path d="M1.384 0.141 Q0.739 0.284 0.878 0.630" stroke="hsl(180.0,100%,35%)" stroke-width="0.00065"></path>
<path d="M1.384 0.141 Q0.556 0.113 0.319 0.511" stroke="hsl(180.0,100%,35%)" stroke-width="0.00109"></path>
<path d="M1.384 0.141 Q0.635 0.192 0.570 0.568" stroke="hsl(180.0,100%,35%)" stroke-width="0.00065"></path>
<path d="M1.384 0.141 Q1.004 0.165 0.966 0.355" stroke="hsl(180.0,100%,35%)" stroke-width="0.00044"></path>
<path d="M1.384 0.141 Q1.065 0.221 1.151 0.394" stroke="hsl(180.0,100%,35%)" stroke-width="0.00044"></path>
<path d="M1.384 0.141 Q0.763 0.484 1.295 0.862" stroke="hsl(180.0,100%,35%)" stroke-width="0.00022"></path>
<path d="M1.384 0.141 Q0.887 0.116 0.730 0.353" stroke="hsl(180.0,100%,35%)" stroke-width="0.00022"></path>
<path d="M1.151 0.394 Q1.418 0.391 1.472 0.261" stroke="hsl(180.0,100%,35%)" stroke-width="0.00174"></path>
<path d="M1.151 0.394 Q1.146 0.294 0.950 0.274" stroke="hsl(180.0,100%,35%)" stroke-width="0.00240"></path>
<path d="M1.151 0.394 Q1.089 0.338 0.966 0.355" stroke="hsl(180.0,100%,35%)" stroke-width="0.00065"></path>
<path d="M1.151 0.394 Q0.825 0.457 0.878 0.630" stroke="hsl(180.0,100%,35%)" stroke-width="0.00131"></path>
<path d="M1.151 0.394 Q1.256 0.464 1.417 0.428" stroke="hsl(180.0,100%,35%)" stroke-width="0.00087"></path>
<path d="M1.151 0.394 Q1.093 0.679 1.637 0.770" stroke="hsl(180.0,100%,35%)" stroke-width="0.00065"></path>
<path d="M1.151 0.394 Q0.972 0.371 0.890 0.454" stroke="hsl(180.0,100%,35%)" stroke-width="0.00022"></path>
<path d="M1.151 0.394 Q0.721 0.365 0.570 0.568" stroke="hsl(180.0,100%,35%)" stroke-width="0.00109"></path>
<path d="M1.151 0.394 Q0.641 0.286 0.319 0.511" stroke="hsl(180.0,100%,35%)" stroke-width="0.00065"></path>
<path d="M1.151 0.394 Q0.712 0.423 0.672 0.644" stroke="hsl(180.0,100%,35%)" stroke-width="0.00022"></path>
<path d="M0.672 0.644 Q0.786 0.678 0.878 0.630" stroke="hsl(0.0,100%,35%)" stroke-width="0.00349"></path>
<path d="M0.672 0.644 Q0.602 0.506 0.319 0.511" stroke="hsl(0.0,100%,35%)" stroke-width="0.00305"></path>
<path d="M0.672 0.644 Q1.106 0.514 0.950 0.274" stroke="hsl(0.0,100%,35%)" stroke-width="0.00218"></path>
<path d="M0.672 0.644 Q0.681 0.585 0.570 0.568" stroke="hsl(0.0,100%,35%)" stroke-width="0.00501"></path>
<path d="M0.672 0.644 Q0.933 0.592 0.890 0.454" stroke="hsl(0.0,100%,35%)" stroke-width="0.00044"></path>
<path d="M0.672 0.644 Q0.376 0.634 0.292 0.777" stroke="hsl(0.0,100%,35%)" stroke-width="0.00087"></path>
<path d="M0.672 0.644 Q1.053 0.900 1.637 0.770" stroke="hsl(0.0,100%,35%)" stroke-width="0.00044"></path>
<path d="M0.672 0.644 Q0.491 0.633 0.431 0.719" stroke="hsl(0.0,100%,35%)" stroke-width="0.00022"></path>
<path d="M0.672 0.644 Q0.639 0.394 0.146 0.356" stroke="hsl(0.0,100%,35%)" stroke-width="0.00022"></path>
<path d="M1.472 0.261 Q1.200 0.163 0.950 0.274" stroke="hsl(180.0,100%,35%)" stroke-width="0.00676"></path>
<path d="M1.472 0.261 Q0.879 0.327 0.878 0.630" stroke="hsl(180.0,100%,35%)" stroke-width="0.00327"></path>
<path d="M1.472 0.261 Q0.695 0.155 0.319 0.511" stroke="hsl(180.0,100%,35%)" stroke-width="0.00262"></path>
<path d="M1.472 0.261 Q1.311 0.334 1.417 0.428" stroke="hsl(180.0,100%,35%)" stroke-width="0.00022"></path>
<path d="M1.472 0.261 Q1.144 0.207 0.966 0.355" stroke="hsl(180.0,100%,35%)" stroke-width="0.00022"></path>
<path d="M1.472 0.261 Q1.524 0.183 1.384 0.141" stroke="hsl(180.0,100%,35%)" stroke-width="0.00022"></path>
<path d="M1.472 0.261 Q1.205 0.263 1.151 0.394" stroke="hsl(180.0,100%,35%)" stroke-width="0.00065"></path>
<path d="M1.472 0.261 Q1.147 0.548 1.637 0.770" stroke="hsl(180.0,100%,35%)" stroke-width="0.00065"></path>
<path d="M1.472 0.261 Q0.775 0.234 0.570 0.568" stroke="hsl(180.0,100%,35%)" stroke-width="0.00087"></path>
<path d="M1.378 0.639 Q1.135 0.535 0.878 0.630" stroke="hsl(180.0,100%,35%)" stroke-width="0.00044"></path>
<path d="M1.378 0.639 Q1.595 0.277 0.937 0.092" stroke="hsl(180.0,100%,35%)" stroke-width="0.00218"></path>
<path d="M1.378 0.639 Q1.403 0.756 1.637 0.770" stroke="hsl(180.0,100%,35%)" stroke-width="0.00458"></path>
<path d="M1.378 0.639 Q1.456 0.371 0.950 0.274" stroke="hsl(180.0,100%,35%)" stroke-width="0.00174"></path>
<path d="M1.378 0.639 Q1.566 0.541 1.417 0.428" stroke="hsl(180.0,100%,35%)" stroke-width="0.00044"></path>
<path d="M0.056 0.369 Q-0.177 0.534 0.095 0.684" stroke="hsl(180.0,100%,35%)" stroke-width="0.00065"></path>
<path d="M0.056 0.369 Q0.737 0.749 1.629 0.500" stroke="hsl(180.0,100%,35%)" stroke-width="0.00131"></path>
<path d="M0.056 0.369 Q0.525 0.886 1.637 0.770" stroke="hsl(180.0,100%,35%)" stroke-width="0.00065"></path>
<path d="M0.056 0.369 Q0.074 0.493 0.319 0.511" stroke="hsl(180.0,100%,35%)" stroke-width="0.00022"></path>
<path d="M0.095 0.684 Q0.529 0.814 0.878 0.630" stroke="hsl(180.0,100%,35%)" stroke-width="0.00087"></path>
<path d="M0.095 0.684 Q0.797 1.035 1.637 0.770" stroke="hsl(180.0,100%,35%)" stroke-width="0.00022"></path>
<path d="M0.095 0.684 Q1.009 0.899 1.629 0.500" stroke="hsl(180.0,100%,35%)" stroke-width="0.00022"></path>
<path d="M1.629 0.500 Q1.417 0.637 1.637 0.770" stroke="hsl(180.0,100%,35%)" stroke-width="0.00785"></path>
<path d="M1.629 0.500 Q0.715 0.285 0.095 0.684" stroke="hsl(180.0,100%,35%)" stroke-width="0.00153"></path>
<path d="M1.629 0.500 Q1.149 0.415 0.878 0.630" stroke="hsl(180.0,100%,35%)" stroke-width="0.00022"></path>
<path d="M1.629 0.500 Q1.807 0.520 1.884 0.437" stroke="hsl(180.0,100%,35%)" stroke-width="0.00022"></path>
<path d="M1.629 0.500 Q1.700 0.598 1.907 0.584" stroke="hsl(180.0,100%,35%)" stroke-width="0.00022"></path>
<path d="M1.629 0.500 Q0.947 0.120 0.056 0.369" stroke="hsl(180.0,100%,35%)" stroke-width="0.00153"></path>
<path d="M1.629 0.500 Q1.470 0.251 0.950 0.274" stroke="hsl(180.0,100%,35%)" stroke-width="0.00044"></path>
<path d="M1.629 0.500 Q0.965 0.244 0.319 0.511" stroke="hsl(180.0,100%,35%)" stroke-width="0.00153"></path>
<path d="M1.629 0.500 Q1.581 0.422 1.417 0.428" stroke="hsl(180.0,100%,35%)" stroke-width="0.00022"></path>
<path d="M1.629 0.500 Q1.329 0.556 1.373 0.715" stroke="hsl(180.0,100%,35%)" stroke-width="0.00022"></path>
<path d="M1.228 0.701 Q1.377 0.817 1.637 0.770" stroke="hsl(180.0,100%,35%)" stroke-width="0.00654"></path>
<path d="M1.228 0.701 Q1.430 0.432 0.950 0.274" stroke="hsl(180.0,100%,35%)" stroke-width="0.00305"></path>
<path d="M1.228 0.701 Q1.251 0.842 1.531 0.862" stroke="hsl(180.0,100%,35%)" stroke-width="0.00065"></path>
<path d="M1.228 0.701 Q1.541 0.603 1.417 0.428" stroke="hsl(180.0,100%,35%)" stroke-width="0.00044"></path>
<path d="M0.484 0.292 Q0.731 0.376 0.950 0.274" stroke="hsl(180.0,100%,35%)" stroke-width="0.00109"></path>
<path d="M0.484 0.292 Q0.678 0.761 1.637 0.770" stroke="hsl(180.0,100%,35%)" stroke-width="0.00022"></path>
<path d="M0.484 0.292 Q0.297 0.505 0.672 0.644" stroke="hsl(180.0,100%,35%)" stroke-width="0.00022"></path>
<path d="M1.191 0.207 Q1.017 0.192 0.950 0.274" stroke="hsl(180.0,100%,35%)" stroke-width="0.00763"></path>
<path d="M1.191 0.207 Q0.964 0.578 1.637 0.770" stroke="hsl(180.0,100%,35%)" stroke-width="0.00349"></path>
<path d="M1.191 0.207 Q0.696 0.356 0.878 0.630" stroke="hsl(180.0,100%,35%)" stroke-width="0.00022"></path>
<path d="M1.191 0.207 Q1.127 0.363 1.417 0.428" stroke="hsl(180.0,100%,35%)" stroke-width="0.00109"></path>
<path d="M1.191 0.207 Q0.719 0.555 1.295 0.862" stroke="hsl(180.0,100%,35%)" stroke-width="0.00022"></path>
<path d="M1.191 0.207 Q0.402 0.311 0.431 0.719" stroke="hsl(180.0,100%,35%)" stroke-width="0.00022"></path>
<path d="M1.528 0.586 Q1.435 0.700 1.637 0.770" stroke="hsl(180.0,100%,35%)" stroke-width="0.00087"></path>
<path d="M1.528 0.586 Q1.488 0.314 0.950 0.274" stroke="hsl(180.0,100%,35%)" stroke-width="0.00065"></path>
<path d="M1.528 0.586 Q1.575 0.405 1.232 0.342" stroke="hsl(180.0,100%,35%)" stroke-width="0.00022"></path>
<path d="M1.528 0.586 Q1.190 0.677 1.295 0.862" stroke="hsl(180.0,100%,35%)" stroke-width="0.00044"></path>
<path d="M1.245 0.658 Q1.405 0.407 0.950 0.274" stroke="hsl(180.0,100%,35%)" stroke-width="0.00545"></path>
<path d="M1.245 0.658 Q1.351 0.792 1.637 0.770" stroke="hsl(180.0,100%,35%)" stroke-width="0.00523"></path>
<path d="M1.245 0.658 Q0.979 0.478 0.570 0.568" stroke="hsl(180.0,100%,35%)" stroke-width="0.00196"></path>
<path d="M1.245 0.658 Q1.084 0.571 0.878 0.630" stroke="hsl(180.0,100%,35%)" stroke-width="0.00022"></path>
<path d="M1.245 0.658 Q0.900 0.399 0.319 0.511" stroke="hsl(180.0,100%,35%)" stroke-width="0.00087"></path>
<path d="M1.245 0.658 Q1.728 0.427 1.384 0.141" stroke="hsl(180.0,100%,35%)" stroke-width="0.00044"></path>
<path d="M1.295 0.862 Q1.539 0.884 1.637 0.770" stroke="hsl(180.0,100%,35%)" stroke-width="0.02593"></path>
<path d="M1.295 0.862 Q1.592 0.499 0.950 0.274" stroke="hsl(180.0,100%,35%)" stroke-width="0.01852"></path>
<path d="M1.295 0.862 Q1.272 0.663 0.878 0.630" stroke="hsl(180.0,100%,35%)" stroke-width="0.00436"></path>
<path d="M1.295 0.862 Q1.703 0.670 1.417 0.428" stroke="hsl(180.0,100%,35%)" stroke-width="0.00240"></path>
<path d="M1.295 0.862 Q1.167 0.570 0.570 0.568" stroke="hsl(180.0,100%,35%)" stroke-width="0.00479"></path>
<path d="M1.295 0.862 Q1.536 0.543 0.966 0.355" stroke="hsl(180.0,100%,35%)" stroke-width="0.00044"></path>
<path d="M1.295 0.862 Q0.977 0.618 0.431 0.719" stroke="hsl(180.0,100%,35%)" stroke-width="0.00065"></path>
<path d="M1.295 0.862 Q1.158 0.628 0.672 0.644" stroke="hsl(180.0,100%,35%)" stroke-width="0.00109"></path>
<path d="M1.295 0.862 Q1.767 0.514 1.191 0.207" stroke="hsl(180.0,100%,35%)" stroke-width="0.00044"></path>
<path d="M1.295 0.862 Q1.530 0.822 1.503 0.698" stroke="hsl(180.0,100%,35%)" stroke-width="0.00022"></path>
<path d="M1.295 0.862 Q1.732 0.406 0.937 0.092" stroke="hsl(180.0,100%,35%)" stroke-width="0.00044"></path>
<path d="M1.295 0.862 Q1.088 0.491 0.319 0.511" stroke="hsl(180.0,100%,35%)" stroke-width="0.00087"></path>
<path d="M1.295 0.862 Q1.419 0.577 0.890 0.454" stroke="hsl(180.0,100%,35%)" stroke-width="0.00044"></path>
<path d="M1.295 0.862 Q1.598 0.599 1.151 0.394" stroke="hsl(180.0,100%,35%)" stroke-width="0.00044"></path>
<path d="M0.952 0.799 Q1.371 0.536 0.950 0.274" stroke="hsl(180.0,100%,35%)" stroke-width="0.00087"></path>
<path d="M0.952 0.799 Q1.318 0.922 1.637 0.770" stroke="hsl(180.0,100%,35%)" stroke-width="0.00109"></path>
<path d="M0.952 0.799 Q0.989 0.762 0.924 0.736" stroke="hsl(180.0,100%,35%)" stroke-width="0.00022"></path>
<path d="M0.952 0.799 Q1.482 0.707 1.417 0.428" stroke="hsl(180.0,100%,35%)" stroke-width="0.00044"></path>
<path d="M0.811 0.400 Q0.660 0.529 0.878 0.630" stroke="hsl(180.0,100%,35%)" stroke-width="0.00022"></path>
<path d="M0.811 0.400 Q0.981 0.365 0.950 0.274" stroke="hsl(180.0,100%,35%)" stroke-width="0.00022"></path>
<path d="M0.811 0.400 Q0.928 0.750 1.637 0.770" stroke="hsl(180.0,100%,35%)" stroke-width="0.00022"></path>
<path d="M1.879 0.782 Q1.767 0.727 1.637 0.770" stroke="hsl(180.0,100%,35%)" stroke-width="0.00109"></path>
<path d="M1.879 0.782 Q1.821 0.342 0.950 0.274" stroke="hsl(180.0,100%,35%)" stroke-width="0.00109"></path>
<path d="M1.879 0.782 Q1.960 0.249 0.937 0.092" stroke="hsl(180.0,100%,35%)" stroke-width="0.00022"></path>
<path d="M1.111 0.368 Q1.052 0.674 1.637 0.770" stroke="hsl(180.0,100%,35%)" stroke-width="0.00283"></path>
<path d="M1.111 0.368 Q1.106 0.289 0.950 0.274" stroke="hsl(180.0,100%,35%)" stroke-width="0.00262"></path>
<path d="M1.111 0.368 Q1.280 0.304 1.191 0.207" stroke="hsl(180.0,100%,35%)" stroke-width="0.00174"></path>
<path d="M1.111 0.368 Q0.946 0.540 1.245 0.658" stroke="hsl(180.0,100%,35%)" stroke-width="0.00044"></path>
<path d="M1.111 0.368 Q1.216 0.459 1.417 0.428" stroke="hsl(180.0,100%,35%)" stroke-width="0.00022"></path>
<path d="M1.232 0.342 Q1.145 0.252 0.950 0.274" stroke="hsl(180.0,100%,35%)" stroke-width="0.00349"></path>
<path d="M1.232 0.342 Q1.319 0.266 1.191 0.207" stroke="hsl(180.0,100%,35%)" stroke-width="0.00044"></path>
<path d="M1.232 0.342 Q1.092 0.637 1.637 0.770" stroke="hsl(180.0,100%,35%)" stroke-width="0.00044"></path>
<path d="M1.232 0.342 Q0.640 0.244 0.319 0.511" stroke="hsl(180.0,100%,35%)" stroke-width="0.00022"></path>
<path d="M1.232 0.342 Q1.256 0.422 1.417 0.428" stroke="hsl(180.0,100%,35%)" stroke-width="0.00044"></path>
<path d="M1.232 0.342 Q1.089 0.296 0.966 0.355" stroke="hsl(180.0,100%,35%)" stroke-width="0.00087"></path>
<path d="M1.232 0.342 Q0.847 0.615 1.295 0.862" stroke="hsl(180.0,100%,35%)" stroke-width="0.00022"></path>
<path d="M1.499 0.443 Q1.469 0.419 1.417 0.428" stroke="hsl(180.0,100%,35%)" stroke-width="0.00022"></path>
<path d="M1.499 0.443 Q1.186 0.326 0.890 0.454" stroke="hsl(180.0,100%,35%)" stroke-width="0.00022"></path>
<path d="M1.499 0.443 Q1.359 0.249 0.950 0.274" stroke="hsl(180.0,100%,35%)" stroke-width="0.00022"></path>
<path d="M1.499 0.443 Q1.306 0.634 1.637 0.770" stroke="hsl(180.0,100%,35%)" stroke-width="0.00022"></path>
<path d="M1.050 0.382 Q1.033 0.693 1.637 0.770" stroke="hsl(180.0,100%,35%)" stroke-width="0.00327"></path>
<path d="M1.050 0.382 Q1.225 0.215 0.937 0.092" stroke="hsl(180.0,100%,35%)" stroke-width="0.00044"></path>
<path d="M1.050 0.382 Q0.788 0.671 1.295 0.862" stroke="hsl(180.0,100%,35%)" stroke-width="0.00065"></path>
<path d="M1.050 0.382 Q1.086 0.308 0.950 0.274" stroke="hsl(180.0,100%,35%)" stroke-width="0.00262"></path>
<path d="M1.050 0.382 Q1.196 0.479 1.417 0.428" stroke="hsl(180.0,100%,35%)" stroke-width="0.00022"></path>
<path d="M0.862 0.105 Q0.771 0.207 0.950 0.274" stroke="hsl(180.0,100%,35%)" stroke-width="0.00436"></path>
<path d="M0.862 0.105 Q0.717 0.593 1.637 0.770" stroke="hsl(180.0,100%,35%)" stroke-width="0.00283"></path>
<path d="M0.862 0.105 Q0.858 0.298 1.232 0.342" stroke="hsl(180.0,100%,35%)" stroke-width="0.00022"></path>
<path d="M0.687 0.196 Q0.756 0.288 0.950 0.274" stroke="hsl(180.0,100%,35%)" stroke-width="0.00087"></path>
<path d="M0.687 0.196 Q0.895 0.194 0.937 0.092" stroke="hsl(180.0,100%,35%)" stroke-width="0.00044"></path>
<path d="M0.687 0.196 Q0.251 0.280 0.319 0.511" stroke="hsl(180.0,100%,35%)" stroke-width="0.00022"></path>
<path d="M0.687 0.196 Q0.458 0.651 1.295 0.862" stroke="hsl(180.0,100%,35%)" stroke-width="0.00022"></path>
<path d="M1.703 0.612 Q1.543 0.678 1.637 0.770" stroke="hsl(180.0,100%,35%)" stroke-width="0.00022"></path>
<path d="M1.703 0.612 Q1.597 0.293 0.950 0.274" stroke="hsl(180.0,100%,35%)" stroke-width="0.00022"></path>
<path d="M1.703 0.612 Q1.299 0.655 1.295 0.862" stroke="hsl(180.0,100%,35%)" stroke-width="0.00022"></path>
<path d="M1.503 0.698 Q1.565 0.375 0.950 0.274" stroke="hsl(180.0,100%,35%)" stroke-width="0.00196"></path>
<path d="M1.503 0.698 Q1.268 0.738 1.295 0.862" stroke="hsl(180.0,100%,35%)" stroke-width="0.00022"></path>
<path d="M1.503 0.698 Q1.512 0.760 1.637 0.770" stroke="hsl(180.0,100%,35%)" stroke-width="0.00240"></path>
<path d="M1.503 0.698 Q0.950 0.494 0.431 0.719" stroke="hsl(180.0,100%,35%)" stroke-width="0.00022"></path>
<path d="M1.503 0.698 Q0.835 0.495 0.292 0.777" stroke="hsl(180.0,100%,35%)" stroke-width="0.00087"></path>
<path d="M1.503 0.698 Q1.140 0.446 0.570 0.568" stroke="hsl(180.0,100%,35%)" stroke-width="0.00022"></path>
<path d="M1.503 0.698 Q1.131 0.504 0.672 0.644" stroke="hsl(180.0,100%,35%)" stroke-width="0.00022"></path>
<path d="M0.198 0.880 Q0.554 0.720 0.319 0.511" stroke="hsl(0.0,100%,35%)" stroke-width="0.00022"></path>
<path d="M0.198 0.880 Q0.270 0.941 0.404 0.920" stroke="hsl(0.0,100%,35%)" stroke-width="0.00022"></path>
<path d="M0.198 0.880 Q0.633 0.799 0.570 0.568" stroke="hsl(0.0,100%,35%)" stroke-width="0.00022"></path>
<path d="M1.185 0.300 Q1.035 0.626 1.637 0.770" stroke="hsl(180.0,100%,35%)" stroke-width="0.00044"></path>
<path d="M1.185 0.300 Q1.088 0.240 0.950 0.274" stroke="hsl(180.0,100%,35%)" stroke-width="0.00044"></path>
<path d="M1.185 0.300 Q1.032 0.284 0.966 0.355" stroke="hsl(180.0,100%,35%)" stroke-width="0.00044"></path>
<path d="M1.185 0.300 Q0.583 0.232 0.319 0.511" stroke="hsl(180.0,100%,35%)" stroke-width="0.00044"></path>
<path d="M1.199 0.146 Q0.972 0.161 0.950 0.274" stroke="hsl(180.0,100%,35%)" stroke-width="0.00087"></path>
<path d="M1.199 0.146 Q0.538 0.290 0.672 0.644" stroke="hsl(180.0,100%,35%)" stroke-width="0.00022"></path>
<path d="M1.199 0.146 Q0.919 0.546 1.637 0.770" stroke="hsl(180.0,100%,35%)" stroke-width="0.00044"></path>
<path d="M1.199 0.146 Q1.083 0.331 1.417 0.428" stroke="hsl(180.0,100%,35%)" stroke-width="0.00022"></path>
<path d="M1.199 0.146 Q1.111 0.067 0.937 0.092" stroke="hsl(180.0,100%,35%)" stroke-width="0.00022"></path>
<path d="M1.045 0.696 Q1.282 0.851 1.637 0.770" stroke="hsl(180.0,100%,35%)" stroke-width="0.00044"></path>
<path d="M1.045 0.696 Q1.335 0.466 0.950 0.274" stroke="hsl(180.0,100%,35%)" stroke-width="0.00022"></path>
<path d="M1.045 0.696 Q1.176 0.717 1.245 0.658" stroke="hsl(180.0,100%,35%)" stroke-width="0.00022"></path>
</g>
<text x="0.890" y="0.435" font-size="0.037709" fill="hsl(0.0,100%,20%)">amaiorano</text>
<text x="0.878" y="0.597" font-size="0.067528" fill="hsl(0.0,100%,20%)">bclayton</text>
<text x="0.950" y="0.239" font-size="0.071181" fill="hsl(180.0,100%,20%)">enga</text>
<text x="1.156" y="0.118" font-size="0.012570" fill="hsl(180.0,100%,20%)">ynovikov</text>
<text x="1.637" y="0.734" font-size="0.072546" fill="hsl(180.0,100%,20%)">cwallez</text>
<text x="0.319" y="0.476" font-size="0.069673" fill="hsl(0.0,100%,20%)">dsinclair</text>
<text x="0.570" y="0.532" font-size="0.071639" fill="hsl(0.0,100%,20%)">jrprice</text>
<text x="0.937" y="0.075" font-size="0.033825" fill="hsl(180.0,100%,20%)">kainino</text>
<text x="0.431" y="0.705" font-size="0.028300" fill="hsl(0.0,100%,20%)">rharrison</text>
<text x="0.730" y="0.342" font-size="0.022509" fill="hsl(180.0,100%,20%)">bsheedy</text>
<text x="0.146" y="0.348" font-size="0.016171" fill="hsl(0.0,100%,20%)">chouinard</text>
<text x="1.139" y="0.441" font-size="0.004043" fill="hsl(0.0,100%,20%)">kbr</text>
<text x="1.237" y="0.568" font-size="0.003301" fill="hsl(0.0,100%,20%)">petermcneeley</text>
<text x="0.753" y="0.717" font-size="0.005219" fill="hsl(0.0,100%,20%)">amir</text>
<text x="0.966" y="0.346" font-size="0.018080" fill="hsl(180.0,100%,20%)">bajones</text>
<text x="1.373" y="0.706" font-size="0.019248" fill="hsl(180.0,100%,20%)">jaswant.panchumarti</text>
<text x="1.410" y="0.451" font-size="0.015831" fill="hsl(180.0,100%,20%)">arthursonzogni</text>
<text x="1.276" y="0.656" font-size="0.002334" fill="hsl(180.0,100%,20%)">khaslett</text>
<text x="0.738" y="0.052" font-size="0.007381" fill="hsl(180.0,100%,20%)">austineng</text>
<text x="1.417" y="0.405" font-size="0.047031" fill="hsl(180.0,100%,20%)">lokokung</text>
<text x="1.384" y="0.129" font-size="0.024369" fill="hsl(180.0,100%,20%)">shrekshao</text>
<text x="1.151" y="0.385" font-size="0.017467" fill="hsl(180.0,100%,20%)">gman</text>
<text x="0.672" y="0.630" font-size="0.027716" fill="hsl(0.0,100%,20%)">dneto</text>
<text x="0.778" y="0.392" font-size="0.002334" fill="hsl(0.0,100%,20%)">brucedawson</text>
<text x="1.472" y="0.247" font-size="0.027220" fill="hsl(180.0,100%,20%)">senorblanco</text>
<text x="1.378" y="0.631" font-size="0.015483" fill="hsl(180.0,100%,20%)">beaufort.francois</text>
<text x="0.056" y="0.364" font-size="0.010696" fill="hsl(180.0,100%,20%)">bentonian</text>
<text x="0.095" y="0.678" font-size="0.011194" fill="hsl(180.0,100%,20%)">nexa</text>
<text x="1.629" y="0.489" font-size="0.021393" fill="hsl(180.0,100%,20%)">jimblackler</text>
<text x="1.228" y="0.693" font-size="0.016669" fill="hsl(180.0,100%,20%)">blundell</text>
<text x="1.531" y="0.860" font-size="0.004043" fill="hsl(180.0,100%,20%)">nicolettep</text>
<text x="1.103" y="1.039" font-size="0.002334" fill="hsl(180.0,100%,20%)">chanli</text>
<text x="0.484" y="0.289" font-size="0.006175" fill="hsl(180.0,100%,20%)">cduvall</text>
<text x="1.191" y="0.197" font-size="0.019943" fill="hsl(180.0,100%,20%)">penghuang</text>
<text x="1.375" y="0.657" font-size="0.002334" fill="hsl(180.0,100%,20%)">fhorschig</text>
<text x="1.517" y="0.618" font-size="0.002334" fill="hsl(180.0,100%,20%)">jamesgk</text>
<text x="1.369" y="0.515" font-size="0.003301" fill="hsl(180.0,100%,20%)">fbeaufort</text>
<text x="1.528" y="0.581" font-size="0.008086" fill="hsl(180.0,100%,20%)">shaobo.yan</text>
<text x="1.245" y="0.648" font-size="0.019668" fill="hsl(180.0,100%,20%)">lehoangquyen</text>
<text x="1.295" y="0.842" font-size="0.040225" fill="hsl(180.0,100%,20%)">jiawei.shao</text>
<text x="0.952" y="0.794" font-size="0.010174" fill="hsl(180.0,100%,20%)">geofflang</text>
<text x="1.421" y="0.619" font-size="0.002334" fill="hsl(180.0,100%,20%)">tiszka</text>
<text x="0.811" y="0.398" font-size="0.004043" fill="hsl(180.0,100%,20%)">danakj</text>
<text x="0.292" y="0.773" font-size="0.007002" fill="hsl(0.0,100%,20%)">alanbaker</text>
<text x="0.509" y="0.389" font-size="0.002334" fill="hsl(0.0,100%,20%)">yiwzhang</text>
<text x="0.525" y="0.341" font-size="0.002334" fill="hsl(0.0,100%,20%)">ddoman</text>
<text x="1.879" y="0.778" font-size="0.007741" fill="hsl(180.0,100%,20%)">elie.michel.fr</text>
<text x="1.111" y="0.361" font-size="0.014198" fill="hsl(180.0,100%,20%)">jie.a.chen</text>
<text x="1.232" y="0.335" font-size="0.012996" fill="hsl(180.0,100%,20%)">sunnyps</text>
<text x="0.924" y="0.735" font-size="0.002334" fill="hsl(180.0,100%,20%)">fmalita</text>
<text x="1.499" y="0.440" font-size="0.004668" fill="hsl(180.0,100%,20%)">hans</text>
<text x="1.050" y="0.375" font-size="0.013408" fill="hsl(180.0,100%,20%)">hao.x.li</text>
<text x="0.862" y="0.099" font-size="0.013610" fill="hsl(180.0,100%,20%)">hitawala</text>
<text x="0.687" y="0.193" font-size="0.006602" fill="hsl(180.0,100%,20%)">hocheung</text>
<text x="1.703" y="0.610" font-size="0.004043" fill="hsl(180.0,100%,20%)">jianlin.qiu</text>
<text x="1.503" y="0.691" font-size="0.012570" fill="hsl(180.0,100%,20%)">zhaoming.jiang</text>
<text x="1.884" y="0.436" font-size="0.002334" fill="hsl(180.0,100%,20%)">artyompp</text>
<text x="1.907" y="0.583" font-size="0.002334" fill="hsl(180.0,100%,20%)">vantablack</text>
<text x="0.198" y="0.878" font-size="0.004043" fill="hsl(0.0,100%,20%)">jojwang</text>
<text x="0.404" y="0.918" font-size="0.002334" fill="hsl(0.0,100%,20%)">gavinmak</text>
<text x="0.478" y="0.807" font-size="0.002334" fill="hsl(0.0,100%,20%)">johnstiles</text>
<text x="1.185" y="0.297" font-size="0.006602" fill="hsl(180.0,100%,20%)">rafael.cintron</text>
<text x="1.199" y="0.143" font-size="0.007002" fill="hsl(180.0,100%,20%)">srijan.dhungana6</text>
<text x="1.045" y="0.694" font-size="0.004668" fill="hsl(180.0,100%,20%)">vollick</text>
</svg>
