<svg width="4000" height="2000" viewBox="-0.025 -0.025 2.05 1.05" xmlns="http://www.w3.org/2000/svg">
  <style>
    path {
      fill: none;
      stroke-linecap: round;
      stroke-opacity: 0.4;
    }

    text {
      text-anchor: middle;
      alignment-baseline: hanging;
    }
  </style>
  <g opacity="0.4">
<path d="M1.557 -0.091 Q1.389 0.055 1.637 0.168" stroke="hsl(0.0,100%,35%)" stroke-width="0.00080"></path>
<path d="M1.557 -0.091 Q0.719 0.096 0.900 0.545" stroke="hsl(0.0,100%,35%)" stroke-width="0.00040"></path>
<path d="M1.557 -0.091 Q1.113 0.149 1.484 0.418" stroke="hsl(0.0,100%,35%)" stroke-width="0.00040"></path>
<path d="M1.557 -0.091 Q1.035 0.278 1.641 0.613" stroke="hsl(0.0,100%,35%)" stroke-width="0.00040"></path>
<path d="M1.637 0.168 Q0.859 0.237 0.822 0.632" stroke="hsl(0.0,100%,35%)" stroke-width="0.00040"></path>
<path d="M1.637 0.168 Q0.798 0.094 0.469 0.486" stroke="hsl(0.0,100%,35%)" stroke-width="0.00841"></path>
<path d="M1.637 0.168 Q1.361 0.263 1.484 0.418" stroke="hsl(0.0,100%,35%)" stroke-width="0.01663"></path>
<path d="M1.637 0.168 Q1.175 0.309 1.348 0.565" stroke="hsl(0.0,100%,35%)" stroke-width="0.00521"></path>
<path d="M1.637 0.168 Q1.404 0.427 1.859 0.597" stroke="hsl(0.0,100%,35%)" stroke-width="0.00040"></path>
<path d="M1.637 0.168 Q1.234 0.384 1.567 0.628" stroke="hsl(0.0,100%,35%)" stroke-width="0.00060"></path>
<path d="M1.637 0.168 Q1.573 0.067 1.362 0.076" stroke="hsl(0.0,100%,35%)" stroke-width="0.00020"></path>
<path d="M1.637 0.168 Q1.264 0.392 1.618 0.622" stroke="hsl(0.0,100%,35%)" stroke-width="0.00160"></path>
<path d="M1.637 0.168 Q1.140 0.504 1.687 0.820" stroke="hsl(0.0,100%,35%)" stroke-width="0.00020"></path>
<path d="M1.637 0.168 Q1.283 0.392 1.641 0.613" stroke="hsl(0.0,100%,35%)" stroke-width="0.00120"></path>
<path d="M1.637 0.168 Q1.530 0.284 1.732 0.361" stroke="hsl(0.0,100%,35%)" stroke-width="0.00020"></path>
<path d="M1.637 0.168 Q1.556 0.266 1.728 0.326" stroke="hsl(0.0,100%,35%)" stroke-width="0.00020"></path>
<path d="M1.637 0.168 Q1.517 0.347 1.839 0.444" stroke="hsl(0.0,100%,35%)" stroke-width="0.00040"></path>
<path d="M1.637 0.168 Q0.967 0.209 0.900 0.545" stroke="hsl(0.0,100%,35%)" stroke-width="0.00020"></path>
<path d="M0.900 0.545 Q0.574 0.563 0.537 0.726" stroke="hsl(180.0,100%,35%)" stroke-width="0.02124"></path>
<path d="M0.900 0.545 Q0.732 0.429 0.469 0.486" stroke="hsl(180.0,100%,35%)" stroke-width="0.07753"></path>
<path d="M0.900 0.545 Q1.074 0.840 1.687 0.820" stroke="hsl(180.0,100%,35%)" stroke-width="0.00020"></path>
<path d="M0.900 0.545 Q1.294 0.598 1.484 0.418" stroke="hsl(180.0,100%,35%)" stroke-width="0.00080"></path>
<path d="M0.900 0.545 Q0.792 0.573 0.822 0.632" stroke="hsl(180.0,100%,35%)" stroke-width="0.01002"></path>
<path d="M0.900 0.545 Q1.216 0.727 1.641 0.613" stroke="hsl(180.0,100%,35%)" stroke-width="0.00040"></path>
<path d="M0.900 0.545 Q0.917 0.440 0.716 0.409" stroke="hsl(180.0,100%,35%)" stroke-width="0.00220"></path>
<path d="M0.900 0.545 Q1.570 0.504 1.637 0.168" stroke="hsl(180.0,100%,35%)" stroke-width="0.00160"></path>
<path d="M0.900 0.545 Q0.803 0.518 0.729 0.560" stroke="hsl(180.0,100%,35%)" stroke-width="0.00080"></path>
<path d="M0.900 0.545 Q-0.601 1.167 0.283 2.036" stroke="hsl(180.0,100%,35%)" stroke-width="0.00020"></path>
<path d="M1.484 0.418 Q1.760 0.323 1.637 0.168" stroke="hsl(0.0,100%,35%)" stroke-width="0.00942"></path>
<path d="M1.484 0.418 Q1.299 0.464 1.348 0.565" stroke="hsl(0.0,100%,35%)" stroke-width="0.01462"></path>
<path d="M1.484 0.418 Q1.357 0.540 1.567 0.628" stroke="hsl(0.0,100%,35%)" stroke-width="0.00040"></path>
<path d="M1.484 0.418 Q1.528 0.582 1.859 0.597" stroke="hsl(0.0,100%,35%)" stroke-width="0.00060"></path>
<path d="M1.484 0.418 Q1.406 0.547 1.641 0.613" stroke="hsl(0.0,100%,35%)" stroke-width="0.00321"></path>
<path d="M1.484 0.418 Q1.465 0.294 1.219 0.276" stroke="hsl(0.0,100%,35%)" stroke-width="0.00080"></path>
<path d="M1.484 0.418 Q1.264 0.659 1.687 0.820" stroke="hsl(0.0,100%,35%)" stroke-width="0.00120"></path>
<path d="M1.484 0.418 Q1.568 0.301 1.358 0.234" stroke="hsl(0.0,100%,35%)" stroke-width="0.00020"></path>
<path d="M1.484 0.418 Q1.090 0.365 0.900 0.545" stroke="hsl(0.0,100%,35%)" stroke-width="0.00080"></path>
<path d="M1.484 0.418 Q0.922 0.249 0.469 0.486" stroke="hsl(0.0,100%,35%)" stroke-width="0.00401"></path>
<path d="M1.484 0.418 Q0.993 0.338 0.729 0.560" stroke="hsl(0.0,100%,35%)" stroke-width="0.00100"></path>
<path d="M1.484 0.418 Q0.764 0.382 0.537 0.726" stroke="hsl(0.0,100%,35%)" stroke-width="0.00060"></path>
<path d="M1.484 0.418 Q1.388 0.547 1.618 0.622" stroke="hsl(0.0,100%,35%)" stroke-width="0.00060"></path>
<path d="M1.484 0.418 Q1.264 0.219 0.828 0.282" stroke="hsl(0.0,100%,35%)" stroke-width="0.00040"></path>
<path d="M1.484 0.418 Q1.679 0.421 1.728 0.326" stroke="hsl(0.0,100%,35%)" stroke-width="0.00200"></path>
<path d="M1.484 0.418 Q0.982 0.392 0.822 0.632" stroke="hsl(0.0,100%,35%)" stroke-width="0.00060"></path>
<path d="M1.484 0.418 Q1.421 0.346 1.267 0.362" stroke="hsl(0.0,100%,35%)" stroke-width="0.00040"></path>
<path d="M1.484 0.418 Q1.618 0.361 1.537 0.283" stroke="hsl(0.0,100%,35%)" stroke-width="0.00020"></path>
<path d="M1.484 0.418 Q1.206 0.429 1.167 0.567" stroke="hsl(0.0,100%,35%)" stroke-width="0.00060"></path>
<path d="M1.484 0.418 Q1.633 0.240 1.320 0.129" stroke="hsl(0.0,100%,35%)" stroke-width="0.00020"></path>
<path d="M1.484 0.418 Q1.422 0.311 1.200 0.318" stroke="hsl(0.0,100%,35%)" stroke-width="0.00020"></path>
<path d="M1.484 0.418 Q1.536 0.601 1.905 0.616" stroke="hsl(0.0,100%,35%)" stroke-width="0.00020"></path>
<path d="M1.641 0.613 Q1.719 0.484 1.484 0.418" stroke="hsl(0.0,100%,35%)" stroke-width="0.00301"></path>
<path d="M1.641 0.613 Q1.533 0.531 1.348 0.565" stroke="hsl(0.0,100%,35%)" stroke-width="0.00100"></path>
<path d="M1.641 0.613 Q1.623 0.613 1.618 0.622" stroke="hsl(0.0,100%,35%)" stroke-width="0.00020"></path>
<path d="M1.641 0.613 Q1.228 0.404 0.729 0.560" stroke="hsl(0.0,100%,35%)" stroke-width="0.00020"></path>
<path d="M1.641 0.613 Q1.499 0.285 0.828 0.282" stroke="hsl(0.0,100%,35%)" stroke-width="0.00020"></path>
<path d="M1.641 0.613 Q1.995 0.390 1.637 0.168" stroke="hsl(0.0,100%,35%)" stroke-width="0.00040"></path>
<path d="M1.641 0.613 Q1.157 0.315 0.469 0.486" stroke="hsl(0.0,100%,35%)" stroke-width="0.00020"></path>
<path d="M0.822 0.632 Q1.600 0.563 1.637 0.168" stroke="hsl(180.0,100%,35%)" stroke-width="0.00120"></path>
<path d="M0.822 0.632 Q0.762 0.488 0.469 0.486" stroke="hsl(180.0,100%,35%)" stroke-width="0.01603"></path>
<path d="M0.822 0.632 Q0.604 0.622 0.537 0.726" stroke="hsl(180.0,100%,35%)" stroke-width="0.00200"></path>
<path d="M0.822 0.632 Q1.325 0.657 1.484 0.418" stroke="hsl(180.0,100%,35%)" stroke-width="0.00461"></path>
<path d="M0.822 0.632 Q0.931 0.604 0.900 0.545" stroke="hsl(180.0,100%,35%)" stroke-width="0.00441"></path>
<path d="M0.822 0.632 Q0.947 0.499 0.716 0.409" stroke="hsl(180.0,100%,35%)" stroke-width="0.00180"></path>
<path d="M0.822 0.632 Q0.833 0.577 0.729 0.560" stroke="hsl(180.0,100%,35%)" stroke-width="0.00020"></path>
<path d="M0.822 0.632 Q1.148 0.497 0.957 0.309" stroke="hsl(180.0,100%,35%)" stroke-width="0.00020"></path>
<path d="M0.822 0.632 Q1.228 0.786 1.618 0.622" stroke="hsl(180.0,100%,35%)" stroke-width="0.00040"></path>
<path d="M0.822 0.632 Q0.795 0.712 0.946 0.743" stroke="hsl(180.0,100%,35%)" stroke-width="0.00020"></path>
<path d="M0.469 0.486 Q0.529 0.630 0.822 0.632" stroke="hsl(180.0,100%,35%)" stroke-width="0.01983"></path>
<path d="M0.469 0.486 Q0.637 0.602 0.900 0.545" stroke="hsl(180.0,100%,35%)" stroke-width="0.06972"></path>
<path d="M0.469 0.486 Q0.654 0.497 0.716 0.409" stroke="hsl(180.0,100%,35%)" stroke-width="0.00361"></path>
<path d="M0.469 0.486 Q0.311 0.620 0.537 0.726" stroke="hsl(180.0,100%,35%)" stroke-width="0.04107"></path>
<path d="M0.469 0.486 Q1.307 0.561 1.637 0.168" stroke="hsl(180.0,100%,35%)" stroke-width="0.01222"></path>
<path d="M0.469 0.486 Q1.031 0.655 1.484 0.418" stroke="hsl(180.0,100%,35%)" stroke-width="0.00381"></path>
<path d="M0.469 0.486 Q0.540 0.575 0.729 0.560" stroke="hsl(180.0,100%,35%)" stroke-width="0.00060"></path>
<path d="M0.469 0.486 Q1.115 0.538 1.358 0.234" stroke="hsl(180.0,100%,35%)" stroke-width="0.00020"></path>
<path d="M0.469 0.486 Q0.811 0.897 1.687 0.820" stroke="hsl(180.0,100%,35%)" stroke-width="0.00080"></path>
<path d="M0.469 0.486 Q0.525 0.437 0.441 0.398" stroke="hsl(180.0,100%,35%)" stroke-width="0.00020"></path>
<path d="M0.537 0.726 Q0.694 0.592 0.469 0.486" stroke="hsl(180.0,100%,35%)" stroke-width="0.04948"></path>
<path d="M0.537 0.726 Q0.863 0.708 0.900 0.545" stroke="hsl(180.0,100%,35%)" stroke-width="0.02184"></path>
<path d="M0.537 0.726 Q0.880 0.603 0.716 0.409" stroke="hsl(180.0,100%,35%)" stroke-width="0.00421"></path>
<path d="M0.537 0.726 Q1.533 0.667 1.637 0.168" stroke="hsl(180.0,100%,35%)" stroke-width="0.00080"></path>
<path d="M0.537 0.726 Q1.257 0.761 1.484 0.418" stroke="hsl(180.0,100%,35%)" stroke-width="0.00140"></path>
<path d="M0.537 0.726 Q1.238 0.637 1.219 0.276" stroke="hsl(180.0,100%,35%)" stroke-width="0.00020"></path>
<path d="M0.537 0.726 Q1.081 0.601 0.957 0.309" stroke="hsl(180.0,100%,35%)" stroke-width="0.00020"></path>
<path d="M0.537 0.726 Q-0.638 1.330 0.283 2.036" stroke="hsl(180.0,100%,35%)" stroke-width="0.00020"></path>
<path d="M0.537 0.726 Q0.754 0.736 0.822 0.632" stroke="hsl(180.0,100%,35%)" stroke-width="0.00140"></path>
<path d="M0.716 0.409 Q0.373 0.531 0.537 0.726" stroke="hsl(180.0,100%,35%)" stroke-width="0.00140"></path>
<path d="M0.716 0.409 Q0.531 0.398 0.469 0.486" stroke="hsl(180.0,100%,35%)" stroke-width="0.00321"></path>
<path d="M0.716 0.409 Q0.699 0.514 0.900 0.545" stroke="hsl(180.0,100%,35%)" stroke-width="0.00321"></path>
<path d="M0.716 0.409 Q0.997 0.696 1.618 0.622" stroke="hsl(180.0,100%,35%)" stroke-width="0.00020"></path>
<path d="M0.716 0.409 Q1.369 0.473 1.637 0.168" stroke="hsl(180.0,100%,35%)" stroke-width="0.00040"></path>
<path d="M0.716 0.409 Q1.015 0.696 1.641 0.613" stroke="hsl(180.0,100%,35%)" stroke-width="0.00020"></path>
<path d="M0.716 0.409 Q0.917 0.407 0.957 0.309" stroke="hsl(180.0,100%,35%)" stroke-width="0.00040"></path>
<path d="M0.716 0.409 Q0.602 0.487 0.729 0.560" stroke="hsl(180.0,100%,35%)" stroke-width="0.00020"></path>
<path d="M0.729 0.560 Q0.657 0.471 0.469 0.486" stroke="hsl(0.0,100%,35%)" stroke-width="0.00060"></path>
<path d="M0.729 0.560 Q0.826 0.587 0.900 0.545" stroke="hsl(0.0,100%,35%)" stroke-width="0.00140"></path>
<path d="M0.729 0.560 Q0.500 0.604 0.537 0.726" stroke="hsl(0.0,100%,35%)" stroke-width="0.00040"></path>
<path d="M0.729 0.560 Q1.220 0.640 1.484 0.418" stroke="hsl(0.0,100%,35%)" stroke-width="0.00080"></path>
<path d="M0.729 0.560 Q0.718 0.614 0.822 0.632" stroke="hsl(0.0,100%,35%)" stroke-width="0.00040"></path>
<path d="M1.618 0.622 Q1.529 0.540 1.348 0.565" stroke="hsl(0.0,100%,35%)" stroke-width="0.00040"></path>
<path d="M1.618 0.622 Q1.212 0.468 0.822 0.632" stroke="hsl(0.0,100%,35%)" stroke-width="0.00020"></path>
<path d="M1.618 0.622 Q1.715 0.493 1.484 0.418" stroke="hsl(0.0,100%,35%)" stroke-width="0.00301"></path>
<path d="M1.618 0.622 Q1.338 0.335 0.716 0.409" stroke="hsl(0.0,100%,35%)" stroke-width="0.00020"></path>
<path d="M1.618 0.622 Q1.637 0.622 1.641 0.613" stroke="hsl(0.0,100%,35%)" stroke-width="0.00140"></path>
<path d="M1.618 0.622 Q1.990 0.399 1.637 0.168" stroke="hsl(0.0,100%,35%)" stroke-width="0.00100"></path>
<path d="M1.618 0.622 Q1.152 0.324 0.469 0.486" stroke="hsl(0.0,100%,35%)" stroke-width="0.00060"></path>
<path d="M1.618 0.622 Q1.321 0.440 0.900 0.545" stroke="hsl(0.0,100%,35%)" stroke-width="0.00040"></path>
<path d="M1.225 0.363 Q1.311 0.442 1.484 0.418" stroke="hsl(0.0,100%,35%)" stroke-width="0.00040"></path>
<path d="M1.225 0.363 Q1.214 0.571 1.618 0.622" stroke="hsl(0.0,100%,35%)" stroke-width="0.00020"></path>
<path d="M1.225 0.363 Q1.586 0.348 1.637 0.168" stroke="hsl(0.0,100%,35%)" stroke-width="0.00020"></path>
<path d="M1.348 0.565 Q1.810 0.424 1.637 0.168" stroke="hsl(0.0,100%,35%)" stroke-width="0.00361"></path>
<path d="M1.348 0.565 Q1.534 0.519 1.484 0.418" stroke="hsl(0.0,100%,35%)" stroke-width="0.01743"></path>
<path d="M1.348 0.565 Q1.438 0.648 1.618 0.622" stroke="hsl(0.0,100%,35%)" stroke-width="0.00120"></path>
<path d="M1.348 0.565 Q1.456 0.648 1.641 0.613" stroke="hsl(0.0,100%,35%)" stroke-width="0.00140"></path>
<path d="M1.348 0.565 Q1.729 0.522 1.728 0.326" stroke="hsl(0.0,100%,35%)" stroke-width="0.00160"></path>
<path d="M1.348 0.565 Q0.814 0.483 0.537 0.726" stroke="hsl(0.0,100%,35%)" stroke-width="0.00020"></path>
<path d="M1.348 0.565 Q0.972 0.350 0.469 0.486" stroke="hsl(0.0,100%,35%)" stroke-width="0.00040"></path>
<path d="M1.358 0.234 Q1.550 0.257 1.637 0.168" stroke="hsl(0.0,100%,35%)" stroke-width="0.01382"></path>
<path d="M1.358 0.234 Q1.274 0.351 1.484 0.418" stroke="hsl(0.0,100%,35%)" stroke-width="0.01442"></path>
<path d="M1.358 0.234 Q0.880 0.298 0.900 0.545" stroke="hsl(0.0,100%,35%)" stroke-width="0.00020"></path>
<path d="M1.358 0.234 Q1.318 0.516 1.859 0.597" stroke="hsl(0.0,100%,35%)" stroke-width="0.00040"></path>
<path d="M1.358 0.234 Q0.554 0.316 0.537 0.726" stroke="hsl(0.0,100%,35%)" stroke-width="0.00020"></path>
<path d="M1.358 0.234 Q1.510 0.324 1.718 0.269" stroke="hsl(0.0,100%,35%)" stroke-width="0.00040"></path>
<path d="M1.358 0.234 Q1.196 0.480 1.641 0.613" stroke="hsl(0.0,100%,35%)" stroke-width="0.00040"></path>
<path d="M1.358 0.234 Q0.712 0.182 0.469 0.486" stroke="hsl(0.0,100%,35%)" stroke-width="0.00100"></path>
<path d="M1.687 0.820 Q1.907 0.578 1.484 0.418" stroke="hsl(0.0,100%,35%)" stroke-width="0.00361"></path>
<path d="M1.687 0.820 Q2.183 0.484 1.637 0.168" stroke="hsl(0.0,100%,35%)" stroke-width="0.00100"></path>
<path d="M1.687 0.820 Q1.345 0.409 0.469 0.486" stroke="hsl(0.0,100%,35%)" stroke-width="0.00140"></path>
<path d="M1.687 0.820 Q1.829 0.708 1.641 0.613" stroke="hsl(0.0,100%,35%)" stroke-width="0.00020"></path>
<path d="M1.687 0.820 Q1.513 0.525 0.900 0.545" stroke="hsl(0.0,100%,35%)" stroke-width="0.00060"></path>
<path d="M1.687 0.820 Q1.722 0.625 1.348 0.565" stroke="hsl(0.0,100%,35%)" stroke-width="0.00020"></path>
<path d="M0.441 0.398 Q1.223 0.522 1.637 0.168" stroke="hsl(180.0,100%,35%)" stroke-width="0.00160"></path>
<path d="M0.441 0.398 Q0.947 0.617 1.484 0.418" stroke="hsl(180.0,100%,35%)" stroke-width="0.00120"></path>
<path d="M0.441 0.398 Q0.384 0.448 0.469 0.486" stroke="hsl(180.0,100%,35%)" stroke-width="0.00220"></path>
<path d="M0.441 0.398 Q0.227 0.581 0.537 0.726" stroke="hsl(180.0,100%,35%)" stroke-width="0.00020"></path>
<path d="M1.210 0.258 Q1.495 0.298 1.637 0.168" stroke="hsl(0.0,100%,35%)" stroke-width="0.00220"></path>
<path d="M1.210 0.258 Q1.033 0.439 1.348 0.565" stroke="hsl(0.0,100%,35%)" stroke-width="0.00020"></path>
<path d="M1.210 0.258 Q1.219 0.393 1.484 0.418" stroke="hsl(0.0,100%,35%)" stroke-width="0.00040"></path>
<path d="M1.859 0.597 Q2.091 0.338 1.637 0.168" stroke="hsl(0.0,100%,35%)" stroke-width="0.00681"></path>
<path d="M1.859 0.597 Q1.629 0.479 1.348 0.565" stroke="hsl(0.0,100%,35%)" stroke-width="0.00020"></path>
<path d="M1.859 0.597 Q1.815 0.433 1.484 0.418" stroke="hsl(0.0,100%,35%)" stroke-width="0.01583"></path>
<path d="M1.859 0.597 Q1.253 0.264 0.469 0.486" stroke="hsl(0.0,100%,35%)" stroke-width="0.00020"></path>
<path d="M1.567 0.628 Q1.694 0.507 1.484 0.418" stroke="hsl(0.0,100%,35%)" stroke-width="0.00501"></path>
<path d="M1.567 0.628 Q1.738 0.671 1.859 0.597" stroke="hsl(0.0,100%,35%)" stroke-width="0.00020"></path>
<path d="M1.567 0.628 Q1.970 0.412 1.637 0.168" stroke="hsl(0.0,100%,35%)" stroke-width="0.00180"></path>
<path d="M1.567 0.628 Q1.508 0.553 1.348 0.565" stroke="hsl(0.0,100%,35%)" stroke-width="0.00020"></path>
<path d="M1.732 0.361 Q1.838 0.245 1.637 0.168" stroke="hsl(0.0,100%,35%)" stroke-width="0.00080"></path>
<path d="M1.732 0.361 Q1.563 0.340 1.484 0.418" stroke="hsl(0.0,100%,35%)" stroke-width="0.00160"></path>
<path d="M1.732 0.361 Q1.485 0.469 1.641 0.613" stroke="hsl(0.0,100%,35%)" stroke-width="0.00020"></path>
<path d="M1.728 0.326 Q1.809 0.229 1.637 0.168" stroke="hsl(0.0,100%,35%)" stroke-width="0.00060"></path>
<path d="M1.728 0.326 Q1.533 0.323 1.484 0.418" stroke="hsl(0.0,100%,35%)" stroke-width="0.00561"></path>
<path d="M1.728 0.326 Q1.313 0.565 1.687 0.820" stroke="hsl(0.0,100%,35%)" stroke-width="0.00120"></path>
<path d="M1.728 0.326 Q0.971 0.154 0.469 0.486" stroke="hsl(0.0,100%,35%)" stroke-width="0.00080"></path>
<path d="M1.728 0.326 Q1.347 0.370 1.348 0.565" stroke="hsl(0.0,100%,35%)" stroke-width="0.00080"></path>
<path d="M1.728 0.326 Q1.455 0.453 1.641 0.613" stroke="hsl(0.0,100%,35%)" stroke-width="0.00040"></path>
<path d="M1.728 0.326 Q1.139 0.270 0.900 0.545" stroke="hsl(0.0,100%,35%)" stroke-width="0.00020"></path>
<path d="M1.839 0.444 Q1.121 0.191 0.469 0.486" stroke="hsl(0.0,100%,35%)" stroke-width="0.00020"></path>
<path d="M1.839 0.444 Q1.683 0.360 1.484 0.418" stroke="hsl(0.0,100%,35%)" stroke-width="0.00280"></path>
<path d="M1.839 0.444 Q1.605 0.489 1.641 0.613" stroke="hsl(0.0,100%,35%)" stroke-width="0.00040"></path>
<path d="M1.219 0.276 Q1.052 0.446 1.348 0.565" stroke="hsl(0.0,100%,35%)" stroke-width="0.00040"></path>
<path d="M1.219 0.276 Q1.514 0.306 1.637 0.168" stroke="hsl(0.0,100%,35%)" stroke-width="0.00020"></path>
<path d="M1.219 0.276 Q1.238 0.400 1.484 0.418" stroke="hsl(0.0,100%,35%)" stroke-width="0.00301"></path>
<path d="M1.219 0.276 Q0.736 0.374 0.822 0.632" stroke="hsl(0.0,100%,35%)" stroke-width="0.00020"></path>
<path d="M1.219 0.276 Q1.017 0.641 1.687 0.820" stroke="hsl(0.0,100%,35%)" stroke-width="0.00100"></path>
<path d="M1.219 0.276 Q1.141 0.529 1.618 0.622" stroke="hsl(0.0,100%,35%)" stroke-width="0.00040"></path>
<path d="M1.219 0.276 Q1.160 0.529 1.641 0.613" stroke="hsl(0.0,100%,35%)" stroke-width="0.00020"></path>
<path d="M1.267 0.362 Q1.331 0.433 1.484 0.418" stroke="hsl(0.0,100%,35%)" stroke-width="0.00821"></path>
<path d="M1.267 0.362 Q1.374 0.598 1.859 0.597" stroke="hsl(0.0,100%,35%)" stroke-width="0.00521"></path>
<path d="M1.267 0.362 Q1.606 0.339 1.637 0.168" stroke="hsl(0.0,100%,35%)" stroke-width="0.00641"></path>
<path d="M1.267 0.362 Q0.768 0.264 0.469 0.486" stroke="hsl(0.0,100%,35%)" stroke-width="0.00020"></path>
<path d="M1.320 0.129 Q1.171 0.306 1.484 0.418" stroke="hsl(0.0,100%,35%)" stroke-width="0.00240"></path>
<path d="M1.320 0.129 Q0.985 0.353 1.348 0.565" stroke="hsl(0.0,100%,35%)" stroke-width="0.00080"></path>
<path d="M1.320 0.129 Q0.608 0.137 0.469 0.486" stroke="hsl(0.0,100%,35%)" stroke-width="0.00060"></path>
<path d="M1.320 0.129 Q0.669 0.281 0.822 0.632" stroke="hsl(0.0,100%,35%)" stroke-width="0.00020"></path>
<path d="M1.320 0.129 Q1.447 0.212 1.637 0.168" stroke="hsl(0.0,100%,35%)" stroke-width="0.00220"></path>
<path d="M1.200 0.318 Q1.538 0.330 1.637 0.168" stroke="hsl(0.0,100%,35%)" stroke-width="0.00220"></path>
<path d="M1.200 0.318 Q1.076 0.471 1.348 0.565" stroke="hsl(0.0,100%,35%)" stroke-width="0.00020"></path>
<path d="M1.200 0.318 Q1.262 0.425 1.484 0.418" stroke="hsl(0.0,100%,35%)" stroke-width="0.00220"></path>
<path d="M1.200 0.318 Q0.542 0.389 0.537 0.726" stroke="hsl(0.0,100%,35%)" stroke-width="0.00020"></path>
<path d="M1.200 0.318 Q0.760 0.399 0.822 0.632" stroke="hsl(0.0,100%,35%)" stroke-width="0.00020"></path>
<path d="M1.200 0.318 Q0.699 0.256 0.469 0.486" stroke="hsl(0.0,100%,35%)" stroke-width="0.00220"></path>
<path d="M1.200 0.318 Q0.868 0.371 0.900 0.545" stroke="hsl(0.0,100%,35%)" stroke-width="0.00020"></path>
<path d="M1.953 0.390 Q1.972 0.216 1.637 0.168" stroke="hsl(0.0,100%,35%)" stroke-width="0.00301"></path>
<path d="M1.953 0.390 Q1.697 0.310 1.484 0.418" stroke="hsl(0.0,100%,35%)" stroke-width="0.00260"></path>
<path d="M1.953 0.390 Q1.134 0.141 0.469 0.486" stroke="hsl(0.0,100%,35%)" stroke-width="0.00020"></path>
<path d="M1.236 0.204 Q1.465 0.266 1.637 0.168" stroke="hsl(0.0,100%,35%)" stroke-width="0.00180"></path>
<path d="M1.236 0.204 Q1.190 0.361 1.484 0.418" stroke="hsl(0.0,100%,35%)" stroke-width="0.00160"></path>
<path d="M1.236 0.204 Q1.112 0.490 1.641 0.613" stroke="hsl(0.0,100%,35%)" stroke-width="0.00040"></path>
<path d="M0.474 0.390 Q0.394 0.437 0.469 0.486" stroke="hsl(180.0,100%,35%)" stroke-width="0.00220"></path>
<path d="M0.474 0.390 Q0.455 0.580 0.822 0.632" stroke="hsl(180.0,100%,35%)" stroke-width="0.00020"></path>
<path d="M0.474 0.390 Q0.237 0.570 0.537 0.726" stroke="hsl(180.0,100%,35%)" stroke-width="0.00020"></path>
<path d="M0.474 0.390 Q0.465 0.526 0.729 0.560" stroke="hsl(180.0,100%,35%)" stroke-width="0.00020"></path>
<path d="M0.474 0.390 Q0.957 0.606 1.484 0.418" stroke="hsl(180.0,100%,35%)" stroke-width="0.00040"></path>
<path d="M0.411 0.672 Q0.588 0.591 0.469 0.486" stroke="hsl(180.0,100%,35%)" stroke-width="0.00020"></path>
<path d="M0.411 0.672 Q1.151 0.759 1.484 0.418" stroke="hsl(180.0,100%,35%)" stroke-width="0.00060"></path>
<path d="M0.411 0.672 Q0.431 0.724 0.537 0.726" stroke="hsl(180.0,100%,35%)" stroke-width="0.00080"></path>
<path d="M0.183 0.237 Q0.187 0.562 0.822 0.632" stroke="hsl(180.0,100%,35%)" stroke-width="0.00020"></path>
<path d="M0.183 0.237 Q0.096 0.280 0.162 0.332" stroke="hsl(180.0,100%,35%)" stroke-width="0.00020"></path>
<path d="M0.183 0.237 Q0.127 0.419 0.469 0.486" stroke="hsl(180.0,100%,35%)" stroke-width="0.00020"></path>
<path d="M0.183 0.237 Q0.295 0.534 0.900 0.545" stroke="hsl(180.0,100%,35%)" stroke-width="0.00020"></path>
<path d="M0.183 0.237 Q0.689 0.588 1.484 0.418" stroke="hsl(180.0,100%,35%)" stroke-width="0.00020"></path>
<path d="M1.112 0.117 Q1.333 0.247 1.637 0.168" stroke="hsl(0.0,100%,35%)" stroke-width="0.00301"></path>
<path d="M1.112 0.117 Q1.057 0.342 1.484 0.418" stroke="hsl(0.0,100%,35%)" stroke-width="0.00301"></path>
<path d="M1.112 0.117 Q1.501 0.102 1.557 -0.091" stroke="hsl(0.0,100%,35%)" stroke-width="0.00020"></path>
<path d="M0.443 0.587 Q0.607 0.630 0.729 0.560" stroke="hsl(0.0,100%,35%)" stroke-width="0.00020"></path>
<path d="M0.443 0.587 Q0.705 0.657 0.900 0.545" stroke="hsl(0.0,100%,35%)" stroke-width="0.00020"></path>
<path d="M0.443 0.587 Q0.536 0.542 0.469 0.486" stroke="hsl(0.0,100%,35%)" stroke-width="0.00020"></path>
<path d="M0.443 0.587 Q1.374 0.616 1.637 0.168" stroke="hsl(0.0,100%,35%)" stroke-width="0.00020"></path>
</g>
<text x="1.557" y="-0.095" font-size="0.008151" fill="hsl(0.0,100%,20%)">albin.bernhardsson</text>
<text x="1.637" y="0.139" font-size="0.058934" fill="hsl(0.0,100%,20%)">cwallez</text>
<text x="0.900" y="0.504" font-size="0.081254" fill="hsl(180.0,100%,20%)">dsinclair</text>
<text x="1.484" y="0.382" font-size="0.071444" fill="hsl(0.0,100%,20%)">enga</text>
<text x="1.641" y="0.603" font-size="0.021706" fill="hsl(0.0,100%,20%)">kainino</text>
<text x="0.822" y="0.610" font-size="0.044239" fill="hsl(180.0,100%,20%)">amaiorano</text>
<text x="0.469" y="0.437" font-size="0.098922" fill="hsl(180.0,100%,20%)">bclayton</text>
<text x="0.537" y="0.692" font-size="0.066858" fill="hsl(180.0,100%,20%)">jrprice</text>
<text x="0.716" y="0.396" font-size="0.025304" fill="hsl(180.0,100%,20%)">dneto</text>
<text x="0.729" y="0.552" font-size="0.014540" fill="hsl(0.0,100%,20%)">rharrison</text>
<text x="0.957" y="0.306" font-size="0.004915" fill="hsl(180.0,100%,20%)">alanbaker</text>
<text x="1.618" y="0.613" font-size="0.019038" fill="hsl(0.0,100%,20%)">bajones</text>
<text x="0.946" y="0.742" font-size="0.002458" fill="hsl(180.0,100%,20%)">sugoi</text>
<text x="1.225" y="0.360" font-size="0.004915" fill="hsl(0.0,100%,20%)">avi</text>
<text x="1.348" y="0.546" font-size="0.038860" fill="hsl(0.0,100%,20%)">lokokung</text>
<text x="0.282" y="2.861" font-size="0.002458" fill="hsl(180.0,100%,20%)">kjlubick</text>
<text x="1.358" y="0.219" font-size="0.030697" fill="hsl(0.0,100%,20%)">jiawei.shao</text>
<text x="1.687" y="0.811" font-size="0.018718" fill="hsl(0.0,100%,20%)">senorblanco</text>
<text x="0.441" y="0.392" font-size="0.012771" fill="hsl(180.0,100%,20%)">brandon1.jones</text>
<text x="1.210" y="0.253" font-size="0.009196" fill="hsl(0.0,100%,20%)">beaufort.francois</text>
<text x="1.859" y="0.582" font-size="0.030001" fill="hsl(0.0,100%,20%)">penghuang</text>
<text x="1.567" y="0.621" font-size="0.015737" fill="hsl(0.0,100%,20%)">lehoangquyen</text>
<text x="1.362" y="0.075" font-size="0.002458" fill="hsl(0.0,100%,20%)">fbeaufort</text>
<text x="1.732" y="0.356" font-size="0.009196" fill="hsl(0.0,100%,20%)">yunchao.he</text>
<text x="1.728" y="0.316" font-size="0.020117" fill="hsl(0.0,100%,20%)">shrekshao</text>
<text x="1.839" y="0.439" font-size="0.010713" fill="hsl(0.0,100%,20%)">ynovikov</text>
<text x="0.283" y="2.034" font-size="0.003476" fill="hsl(180.0,100%,20%)">johnstiles</text>
<text x="1.219" y="0.269" font-size="0.013903" fill="hsl(0.0,100%,20%)">gman</text>
<text x="0.828" y="0.280" font-size="0.004257" fill="hsl(0.0,100%,20%)">bsheedy</text>
<text x="1.267" y="0.349" font-size="0.024822" fill="hsl(0.0,100%,20%)">jie.a.chen</text>
<text x="1.537" y="0.282" font-size="0.002458" fill="hsl(0.0,100%,20%)">brucedawson</text>
<text x="1.167" y="0.565" font-size="0.004257" fill="hsl(0.0,100%,20%)">toji</text>
<text x="1.320" y="0.122" font-size="0.013903" fill="hsl(0.0,100%,20%)">tiszka</text>
<text x="1.200" y="0.310" font-size="0.015151" fill="hsl(0.0,100%,20%)">zhaoming.jiang</text>
<text x="1.905" y="0.615" font-size="0.002458" fill="hsl(0.0,100%,20%)">sunnyps</text>
<text x="1.953" y="0.384" font-size="0.013235" fill="hsl(0.0,100%,20%)">hao.x.li</text>
<text x="1.236" y="0.199" font-size="0.010713" fill="hsl(0.0,100%,20%)">hogehoge</text>
<text x="0.474" y="0.385" font-size="0.009831" fill="hsl(180.0,100%,20%)">jason.erb</text>
<text x="1.718" y="0.268" font-size="0.003476" fill="hsl(0.0,100%,20%)">rafael.cintron</text>
<text x="0.411" y="0.668" font-size="0.006952" fill="hsl(180.0,100%,20%)">jojwang</text>
<text x="0.183" y="0.234" font-size="0.005496" fill="hsl(180.0,100%,20%)">jwata</text>
<text x="0.162" y="0.331" font-size="0.002458" fill="hsl(180.0,100%,20%)">ukai</text>
<text x="1.112" y="0.110" font-size="0.013684" fill="hsl(0.0,100%,20%)">shaobo.yan</text>
<text x="0.443" y="0.584" font-size="0.004915" fill="hsl(0.0,100%,20%)">stha09</text>
</svg>
