<svg width="4000" height="2000" viewBox="-0.025 -0.025 2.05 1.05" xmlns="http://www.w3.org/2000/svg">
  <style>
    path {
      fill: none;
      stroke-linecap: round;
      stroke-opacity: 0.4;
    }

    text {
      text-anchor: middle;
      alignment-baseline: hanging;
    }
  </style>
  <g opacity="0.4">
<path d="M0.344 0.801 Q0.300 0.882 0.448 0.921" stroke="hsl(0.0,100%,35%)" stroke-width="0.02127"></path>
<path d="M0.344 0.801 Q0.395 0.944 0.685 0.950" stroke="hsl(0.0,100%,35%)" stroke-width="0.00142"></path>
<path d="M0.344 0.801 Q0.359 0.678 0.124 0.644" stroke="hsl(0.0,100%,35%)" stroke-width="0.00071"></path>
<path d="M0.344 0.801 Q0.664 0.913 0.953 0.782" stroke="hsl(0.0,100%,35%)" stroke-width="0.00638"></path>
<path d="M0.344 0.801 Q0.534 0.603 0.190 0.467" stroke="hsl(0.0,100%,35%)" stroke-width="0.00142"></path>
<path d="M0.344 0.801 Q0.540 1.010 0.990 0.960" stroke="hsl(0.0,100%,35%)" stroke-width="0.00142"></path>
<path d="M0.344 0.801 Q0.736 0.606 0.441 0.372" stroke="hsl(0.0,100%,35%)" stroke-width="0.00071"></path>
<path d="M0.344 0.801 Q0.977 0.754 1.024 0.435" stroke="hsl(0.0,100%,35%)" stroke-width="0.00071"></path>
<path d="M0.448 0.921 Q0.812 0.952 0.953 0.782" stroke="hsl(0.0,100%,35%)" stroke-width="0.06524"></path>
<path d="M0.448 0.921 Q0.669 0.920 0.716 0.812" stroke="hsl(0.0,100%,35%)" stroke-width="0.00496"></path>
<path d="M0.448 0.921 Q0.492 0.840 0.344 0.801" stroke="hsl(0.0,100%,35%)" stroke-width="0.00709"></path>
<path d="M0.448 0.921 Q0.688 1.049 0.990 0.960" stroke="hsl(0.0,100%,35%)" stroke-width="0.00142"></path>
<path d="M0.448 0.921 Q0.543 0.983 0.685 0.950" stroke="hsl(0.0,100%,35%)" stroke-width="0.00213"></path>
<path d="M0.448 0.921 Q0.561 0.781 0.314 0.696" stroke="hsl(0.0,100%,35%)" stroke-width="0.00071"></path>
<path d="M0.448 0.921 Q0.682 0.642 0.190 0.467" stroke="hsl(0.0,100%,35%)" stroke-width="0.00284"></path>
<path d="M0.448 0.921 Q0.908 0.508 0.204 0.193" stroke="hsl(0.0,100%,35%)" stroke-width="0.00071"></path>
<path d="M0.685 0.950 Q0.954 0.919 0.953 0.782" stroke="hsl(0.0,100%,35%)" stroke-width="0.01631"></path>
<path d="M0.685 0.950 Q1.290 0.491 0.526 0.095" stroke="hsl(0.0,100%,35%)" stroke-width="0.00071"></path>
<path d="M0.685 0.950 Q0.590 0.888 0.448 0.921" stroke="hsl(0.0,100%,35%)" stroke-width="0.02127"></path>
<path d="M0.685 0.950 Q0.811 0.887 0.716 0.812" stroke="hsl(0.0,100%,35%)" stroke-width="0.00071"></path>
<path d="M0.685 0.950 Q0.634 0.807 0.344 0.801" stroke="hsl(0.0,100%,35%)" stroke-width="0.00071"></path>
<path d="M0.953 0.782 Q0.589 0.750 0.448 0.921" stroke="hsl(0.0,100%,35%)" stroke-width="0.13473"></path>
<path d="M0.953 0.782 Q0.823 0.472 0.190 0.467" stroke="hsl(0.0,100%,35%)" stroke-width="0.00709"></path>
<path d="M0.953 0.782 Q0.633 0.669 0.344 0.801" stroke="hsl(0.0,100%,35%)" stroke-width="0.00709"></path>
<path d="M0.953 0.782 Q0.684 0.812 0.685 0.950" stroke="hsl(0.0,100%,35%)" stroke-width="0.00142"></path>
<path d="M0.953 0.782 Q0.909 0.362 0.081 0.291" stroke="hsl(0.0,100%,35%)" stroke-width="0.00142"></path>
<path d="M0.953 0.782 Q0.649 0.547 0.124 0.644" stroke="hsl(0.0,100%,35%)" stroke-width="0.00071"></path>
<path d="M0.953 0.782 Q1.411 0.679 1.313 0.434" stroke="hsl(0.0,100%,35%)" stroke-width="0.00071"></path>
<path d="M0.190 0.467 Q0.392 0.470 0.441 0.372" stroke="hsl(180.0,100%,35%)" stroke-width="0.01702"></path>
<path d="M0.190 0.467 Q0.416 0.333 0.204 0.193" stroke="hsl(180.0,100%,35%)" stroke-width="0.02624"></path>
<path d="M0.190 0.467 Q0.276 0.357 0.081 0.291" stroke="hsl(180.0,100%,35%)" stroke-width="0.01064"></path>
<path d="M0.190 0.467 Q0.778 0.675 1.313 0.434" stroke="hsl(180.0,100%,35%)" stroke-width="0.00355"></path>
<path d="M0.190 0.467 Q0.688 0.506 0.873 0.272" stroke="hsl(180.0,100%,35%)" stroke-width="0.00284"></path>
<path d="M0.190 0.467 Q0.152 0.541 0.289 0.576" stroke="hsl(180.0,100%,35%)" stroke-width="0.00638"></path>
<path d="M0.190 0.467 Q0.502 0.612 0.853 0.491" stroke="hsl(180.0,100%,35%)" stroke-width="0.00496"></path>
<path d="M0.190 0.467 Q0.406 0.403 0.328 0.283" stroke="hsl(180.0,100%,35%)" stroke-width="0.00071"></path>
<path d="M0.190 0.467 Q0.177 0.745 0.716 0.812" stroke="hsl(180.0,100%,35%)" stroke-width="0.00071"></path>
<path d="M0.190 0.467 Q0.618 0.914 1.584 0.803" stroke="hsl(180.0,100%,35%)" stroke-width="0.00355"></path>
<path d="M0.190 0.467 Q0.141 0.446 0.088 0.465" stroke="hsl(180.0,100%,35%)" stroke-width="0.00071"></path>
<path d="M0.190 0.467 Q0.465 0.516 0.622 0.392" stroke="hsl(180.0,100%,35%)" stroke-width="0.00496"></path>
<path d="M0.190 0.467 Q0.126 0.547 0.268 0.596" stroke="hsl(180.0,100%,35%)" stroke-width="0.00071"></path>
<path d="M0.190 0.467 Q-0.044 0.746 0.448 0.921" stroke="hsl(180.0,100%,35%)" stroke-width="0.00071"></path>
<path d="M0.190 0.467 Q0.345 0.536 0.514 0.476" stroke="hsl(180.0,100%,35%)" stroke-width="0.00071"></path>
<path d="M0.190 0.467 Q-0.000 0.665 0.344 0.801" stroke="hsl(180.0,100%,35%)" stroke-width="0.00071"></path>
<path d="M0.990 0.960 Q1.114 0.863 0.953 0.782" stroke="hsl(0.0,100%,35%)" stroke-width="0.01418"></path>
<path d="M0.990 0.960 Q0.972 0.831 0.716 0.812" stroke="hsl(0.0,100%,35%)" stroke-width="0.00071"></path>
<path d="M0.990 0.960 Q0.794 0.751 0.344 0.801" stroke="hsl(0.0,100%,35%)" stroke-width="0.00284"></path>
<path d="M0.990 0.960 Q0.750 0.832 0.448 0.921" stroke="hsl(0.0,100%,35%)" stroke-width="0.00355"></path>
<path d="M0.990 0.960 Q0.984 0.553 0.190 0.467" stroke="hsl(0.0,100%,35%)" stroke-width="0.00071"></path>
<path d="M0.441 0.372 Q0.325 0.259 0.081 0.291" stroke="hsl(180.0,100%,35%)" stroke-width="0.00213"></path>
<path d="M0.441 0.372 Q0.466 0.235 0.204 0.193" stroke="hsl(180.0,100%,35%)" stroke-width="0.00355"></path>
<path d="M0.441 0.372 Q0.239 0.369 0.190 0.467" stroke="hsl(180.0,100%,35%)" stroke-width="0.00213"></path>
<path d="M0.531 0.472 Q0.792 0.848 1.584 0.803" stroke="hsl(180.0,100%,35%)" stroke-width="0.00071"></path>
<path d="M0.531 0.472 Q0.364 0.401 0.190 0.467" stroke="hsl(180.0,100%,35%)" stroke-width="0.00071"></path>
<path d="M0.531 0.472 Q0.404 0.589 0.605 0.677" stroke="hsl(180.0,100%,35%)" stroke-width="0.00071"></path>
<path d="M1.584 0.803 Q1.156 0.356 0.190 0.467" stroke="hsl(180.0,100%,35%)" stroke-width="0.00071"></path>
<path d="M1.584 0.803 Q1.358 0.359 0.441 0.372" stroke="hsl(180.0,100%,35%)" stroke-width="0.00071"></path>
<path d="M1.584 0.803 Q1.111 0.647 0.702 0.843" stroke="hsl(180.0,100%,35%)" stroke-width="0.00071"></path>
<path d="M1.584 0.803 Q1.382 0.222 0.204 0.193" stroke="hsl(180.0,100%,35%)" stroke-width="0.00071"></path>
<path d="M1.584 0.803 Q1.242 0.247 0.081 0.291" stroke="hsl(180.0,100%,35%)" stroke-width="0.00071"></path>
<path d="M0.605 0.677 Q0.768 0.492 0.441 0.372" stroke="hsl(180.0,100%,35%)" stroke-width="0.00071"></path>
<path d="M0.605 0.677 Q0.565 0.489 0.190 0.467" stroke="hsl(180.0,100%,35%)" stroke-width="0.00142"></path>
<path d="M0.605 0.677 Q0.696 0.799 0.953 0.782" stroke="hsl(180.0,100%,35%)" stroke-width="0.00213"></path>
<path d="M0.605 0.677 Q0.792 0.355 0.204 0.193" stroke="hsl(180.0,100%,35%)" stroke-width="0.00142"></path>
<path d="M0.702 0.843 Q0.513 0.831 0.448 0.921" stroke="hsl(180.0,100%,35%)" stroke-width="0.00213"></path>
<path d="M0.702 0.843 Q1.335 0.761 1.313 0.434" stroke="hsl(180.0,100%,35%)" stroke-width="0.00071"></path>
<path d="M0.702 0.843 Q0.735 0.830 0.716 0.812" stroke="hsl(180.0,100%,35%)" stroke-width="0.00071"></path>
<path d="M0.702 0.843 Q0.747 0.553 0.190 0.467" stroke="hsl(180.0,100%,35%)" stroke-width="0.00071"></path>
<path d="M0.702 0.843 Q0.949 0.555 0.441 0.372" stroke="hsl(180.0,100%,35%)" stroke-width="0.00071"></path>
<path d="M0.702 0.843 Q0.877 0.863 0.953 0.782" stroke="hsl(180.0,100%,35%)" stroke-width="0.00142"></path>
<path d="M0.204 0.193 Q0.064 0.218 0.081 0.291" stroke="hsl(180.0,100%,35%)" stroke-width="0.01205"></path>
<path d="M0.204 0.193 Q-0.022 0.327 0.190 0.467" stroke="hsl(180.0,100%,35%)" stroke-width="0.00567"></path>
<path d="M0.204 0.193 Q0.830 0.485 1.536 0.243" stroke="hsl(180.0,100%,35%)" stroke-width="0.00496"></path>
<path d="M0.204 0.193 Q0.180 0.330 0.441 0.372" stroke="hsl(180.0,100%,35%)" stroke-width="0.00709"></path>
<path d="M0.204 0.193 Q0.108 0.637 0.953 0.782" stroke="hsl(180.0,100%,35%)" stroke-width="0.00071"></path>
<path d="M0.204 0.193 Q0.406 0.774 1.584 0.803" stroke="hsl(180.0,100%,35%)" stroke-width="0.00071"></path>
<path d="M0.081 0.291 Q0.197 0.404 0.441 0.372" stroke="hsl(180.0,100%,35%)" stroke-width="0.00142"></path>
<path d="M0.081 0.291 Q0.031 0.832 1.076 0.975" stroke="hsl(180.0,100%,35%)" stroke-width="0.00142"></path>
<path d="M0.081 0.291 Q-0.006 0.401 0.190 0.467" stroke="hsl(180.0,100%,35%)" stroke-width="0.00213"></path>
<path d="M0.081 0.291 Q0.221 0.267 0.204 0.193" stroke="hsl(180.0,100%,35%)" stroke-width="0.00425"></path>
<path d="M0.081 0.291 Q0.125 0.711 0.953 0.782" stroke="hsl(180.0,100%,35%)" stroke-width="0.00071"></path>
<path d="M0.129 0.586 Q0.567 0.684 0.853 0.491" stroke="hsl(180.0,100%,35%)" stroke-width="0.00213"></path>
<path d="M0.129 0.586 Q0.217 0.613 0.289 0.576" stroke="hsl(180.0,100%,35%)" stroke-width="0.00425"></path>
<path d="M0.129 0.586 Q0.255 0.539 0.190 0.467" stroke="hsl(180.0,100%,35%)" stroke-width="0.00213"></path>
<path d="M0.129 0.586 Q0.385 0.849 0.953 0.782" stroke="hsl(180.0,100%,35%)" stroke-width="0.00071"></path>
<path d="M0.289 0.576 Q0.326 0.502 0.190 0.467" stroke="hsl(180.0,100%,35%)" stroke-width="0.00709"></path>
<path d="M0.289 0.576 Q0.200 0.549 0.129 0.586" stroke="hsl(180.0,100%,35%)" stroke-width="0.00213"></path>
<path d="M0.289 0.576 Q0.639 0.646 0.853 0.491" stroke="hsl(180.0,100%,35%)" stroke-width="0.00142"></path>
<path d="M0.289 0.576 Q0.457 0.811 0.953 0.782" stroke="hsl(180.0,100%,35%)" stroke-width="0.00071"></path>
<path d="M1.076 0.975 Q1.242 0.546 0.441 0.372" stroke="hsl(0.0,100%,35%)" stroke-width="0.00567"></path>
<path d="M1.076 0.975 Q1.125 0.434 0.081 0.291" stroke="hsl(0.0,100%,35%)" stroke-width="0.00284"></path>
<path d="M1.076 0.975 Q1.282 0.914 1.207 0.800" stroke="hsl(0.0,100%,35%)" stroke-width="0.00071"></path>
<path d="M1.076 0.975 Q1.170 0.854 0.953 0.782" stroke="hsl(0.0,100%,35%)" stroke-width="0.00638"></path>
<path d="M1.076 0.975 Q1.027 0.822 0.716 0.812" stroke="hsl(0.0,100%,35%)" stroke-width="0.00142"></path>
<path d="M0.716 0.812 Q0.495 0.813 0.448 0.921" stroke="hsl(0.0,100%,35%)" stroke-width="0.00922"></path>
<path d="M0.716 0.812 Q1.195 0.415 0.526 0.095" stroke="hsl(0.0,100%,35%)" stroke-width="0.00142"></path>
<path d="M0.716 0.812 Q0.859 0.844 0.953 0.782" stroke="hsl(0.0,100%,35%)" stroke-width="0.00638"></path>
<path d="M0.716 0.812 Q0.735 0.941 0.990 0.960" stroke="hsl(0.0,100%,35%)" stroke-width="0.00071"></path>
<path d="M0.716 0.812 Q0.931 0.537 0.441 0.372" stroke="hsl(0.0,100%,35%)" stroke-width="0.00071"></path>
<path d="M0.716 0.812 Q0.729 0.534 0.190 0.467" stroke="hsl(0.0,100%,35%)" stroke-width="0.00071"></path>
<path d="M0.716 0.812 Q0.539 0.732 0.344 0.801" stroke="hsl(0.0,100%,35%)" stroke-width="0.00071"></path>
<path d="M1.313 0.434 Q0.855 0.536 0.953 0.782" stroke="hsl(180.0,100%,35%)" stroke-width="0.00496"></path>
<path d="M1.313 0.434 Q0.927 0.228 0.441 0.372" stroke="hsl(180.0,100%,35%)" stroke-width="0.00142"></path>
<path d="M1.313 0.434 Q0.491 0.504 0.448 0.921" stroke="hsl(180.0,100%,35%)" stroke-width="0.00284"></path>
<path d="M1.313 0.434 Q0.680 0.516 0.702 0.843" stroke="hsl(180.0,100%,35%)" stroke-width="0.00071"></path>
<path d="M1.313 0.434 Q0.724 0.226 0.190 0.467" stroke="hsl(180.0,100%,35%)" stroke-width="0.00142"></path>
<path d="M0.873 0.272 Q0.375 0.233 0.190 0.467" stroke="hsl(180.0,100%,35%)" stroke-width="0.01064"></path>
<path d="M0.873 0.272 Q0.141 0.511 0.448 0.921" stroke="hsl(180.0,100%,35%)" stroke-width="0.00638"></path>
<path d="M0.873 0.272 Q0.577 0.235 0.441 0.372" stroke="hsl(180.0,100%,35%)" stroke-width="0.00355"></path>
<path d="M0.873 0.272 Q0.601 0.099 0.204 0.193" stroke="hsl(180.0,100%,35%)" stroke-width="0.00638"></path>
<path d="M0.873 0.272 Q0.505 0.543 0.953 0.782" stroke="hsl(180.0,100%,35%)" stroke-width="0.00071"></path>
<path d="M0.873 0.272 Q0.185 0.430 0.344 0.801" stroke="hsl(180.0,100%,35%)" stroke-width="0.00142"></path>
<path d="M0.873 0.272 Q0.330 0.523 0.702 0.843" stroke="hsl(180.0,100%,35%)" stroke-width="0.00142"></path>
<path d="M0.873 0.272 Q0.461 0.123 0.081 0.291" stroke="hsl(180.0,100%,35%)" stroke-width="0.00071"></path>
<path d="M0.791 0.353 Q0.529 0.600 0.953 0.782" stroke="hsl(180.0,100%,35%)" stroke-width="0.00071"></path>
<path d="M0.791 0.353 Q0.897 0.329 0.873 0.272" stroke="hsl(180.0,100%,35%)" stroke-width="0.00071"></path>
<path d="M0.791 0.353 Q0.485 0.180 0.081 0.291" stroke="hsl(180.0,100%,35%)" stroke-width="0.00071"></path>
<path d="M0.126 0.292 Q0.018 0.392 0.190 0.467" stroke="hsl(180.0,100%,35%)" stroke-width="0.00355"></path>
<path d="M0.126 0.292 Q0.390 0.366 0.592 0.253" stroke="hsl(180.0,100%,35%)" stroke-width="0.00142"></path>
<path d="M0.126 0.292 Q0.244 0.258 0.204 0.193" stroke="hsl(180.0,100%,35%)" stroke-width="0.00071"></path>
<path d="M0.592 0.253 Q0.220 0.280 0.190 0.467" stroke="hsl(180.0,100%,35%)" stroke-width="0.00142"></path>
<path d="M0.592 0.253 Q0.422 0.282 0.441 0.372" stroke="hsl(180.0,100%,35%)" stroke-width="0.00213"></path>
<path d="M0.592 0.253 Q1.072 0.437 1.536 0.243" stroke="hsl(180.0,100%,35%)" stroke-width="0.00142"></path>
<path d="M0.712 0.517 Q0.621 0.698 0.953 0.782" stroke="hsl(0.0,100%,35%)" stroke-width="0.00071"></path>
<path d="M0.712 0.517 Q0.584 0.528 0.579 0.593" stroke="hsl(0.0,100%,35%)" stroke-width="0.00071"></path>
<path d="M0.712 0.517 Q0.257 0.666 0.448 0.921" stroke="hsl(0.0,100%,35%)" stroke-width="0.00071"></path>
<path d="M1.536 0.243 Q1.112 0.533 1.584 0.803" stroke="hsl(180.0,100%,35%)" stroke-width="0.00071"></path>
<path d="M1.536 0.243 Q0.639 0.377 0.702 0.843" stroke="hsl(180.0,100%,35%)" stroke-width="0.00142"></path>
<path d="M1.536 0.243 Q1.272 0.294 1.313 0.434" stroke="hsl(180.0,100%,35%)" stroke-width="0.00496"></path>
<path d="M1.536 0.243 Q0.886 0.089 0.441 0.372" stroke="hsl(180.0,100%,35%)" stroke-width="0.00071"></path>
<path d="M1.536 0.243 Q0.450 0.364 0.448 0.921" stroke="hsl(180.0,100%,35%)" stroke-width="0.00142"></path>
<path d="M1.536 0.243 Q1.182 0.125 0.873 0.272" stroke="hsl(180.0,100%,35%)" stroke-width="0.00071"></path>
<path d="M1.536 0.243 Q0.721 0.517 1.076 0.975" stroke="hsl(180.0,100%,35%)" stroke-width="0.00071"></path>
<path d="M1.728 0.606 Q1.070 0.229 0.190 0.467" stroke="hsl(180.0,100%,35%)" stroke-width="0.00071"></path>
<path d="M1.728 0.606 Q1.498 0.676 1.584 0.803" stroke="hsl(180.0,100%,35%)" stroke-width="0.00142"></path>
<path d="M1.728 0.606 Q1.200 0.539 0.953 0.782" stroke="hsl(180.0,100%,35%)" stroke-width="0.00142"></path>
<path d="M0.669 0.174 Q0.194 0.225 0.190 0.467" stroke="hsl(180.0,100%,35%)" stroke-width="0.00142"></path>
<path d="M0.669 0.174 Q0.397 0.227 0.441 0.372" stroke="hsl(180.0,100%,35%)" stroke-width="0.00213"></path>
<path d="M0.669 0.174 Q0.421 0.090 0.204 0.193" stroke="hsl(180.0,100%,35%)" stroke-width="0.00071"></path>
<path d="M0.669 0.174 Q0.280 0.115 0.081 0.291" stroke="hsl(180.0,100%,35%)" stroke-width="0.00071"></path>
<path d="M1.338 0.800 Q1.257 0.270 0.204 0.193" stroke="hsl(180.0,100%,35%)" stroke-width="0.00142"></path>
<path d="M1.338 0.800 Q1.459 0.851 1.584 0.803" stroke="hsl(180.0,100%,35%)" stroke-width="0.00284"></path>
<path d="M1.338 0.800 Q1.528 0.443 0.873 0.272" stroke="hsl(180.0,100%,35%)" stroke-width="0.00071"></path>
<path d="M1.338 0.800 Q1.233 0.406 0.441 0.372" stroke="hsl(180.0,100%,35%)" stroke-width="0.00142"></path>
<path d="M1.128 0.543 Q0.922 0.320 0.441 0.372" stroke="hsl(180.0,100%,35%)" stroke-width="0.00071"></path>
<path d="M1.128 0.543 Q1.572 0.475 1.536 0.243" stroke="hsl(180.0,100%,35%)" stroke-width="0.00071"></path>
<path d="M1.128 0.543 Q1.218 0.357 0.873 0.272" stroke="hsl(180.0,100%,35%)" stroke-width="0.00071"></path>
<path d="M1.128 0.543 Q0.486 0.596 0.448 0.921" stroke="hsl(180.0,100%,35%)" stroke-width="0.00071"></path>
<path d="M1.128 0.543 Q1.163 0.469 1.024 0.435" stroke="hsl(180.0,100%,35%)" stroke-width="0.00071"></path>
<path d="M1.128 0.543 Q0.850 0.628 0.953 0.782" stroke="hsl(180.0,100%,35%)" stroke-width="0.00071"></path>
<path d="M1.128 0.543 Q1.308 0.525 1.313 0.434" stroke="hsl(180.0,100%,35%)" stroke-width="0.00071"></path>
<path d="M0.251 0.306 Q0.091 0.374 0.190 0.467" stroke="hsl(180.0,100%,35%)" stroke-width="0.00496"></path>
<path d="M0.251 0.306 Q0.557 0.255 0.526 0.095" stroke="hsl(180.0,100%,35%)" stroke-width="0.00213"></path>
<path d="M0.251 0.306 Q0.293 0.377 0.441 0.372" stroke="hsl(180.0,100%,35%)" stroke-width="0.00213"></path>
</g>
<text x="0.344" y="0.780" font-size="0.041297" fill="hsl(0.0,100%,20%)">amaiorano</text>
<text x="0.448" y="0.873" font-size="0.095177" fill="hsl(0.0,100%,20%)">jrprice</text>
<text x="0.685" y="0.931" font-size="0.037354" fill="hsl(0.0,100%,20%)">rharrison</text>
<text x="0.124" y="0.641" font-size="0.006656" fill="hsl(0.0,100%,20%)">kbr</text>
<text x="0.953" y="0.734" font-size="0.094124" fill="hsl(0.0,100%,20%)">dsinclair</text>
<text x="0.190" y="0.434" font-size="0.067218" fill="hsl(180.0,100%,20%)">cwallez</text>
<text x="0.990" y="0.946" font-size="0.028237" fill="hsl(0.0,100%,20%)">chouinard</text>
<text x="0.441" y="0.351" font-size="0.042094" fill="hsl(180.0,100%,20%)">enga</text>
<text x="1.024" y="0.432" font-size="0.006656" fill="hsl(180.0,100%,20%)">petermcneeley</text>
<text x="0.531" y="0.468" font-size="0.008151" fill="hsl(180.0,100%,20%)">amir</text>
<text x="1.584" y="0.793" font-size="0.020514" fill="hsl(180.0,100%,20%)">bajones</text>
<text x="0.605" y="0.670" font-size="0.014119" fill="hsl(180.0,100%,20%)">jaswant.panchumarti</text>
<text x="0.702" y="0.834" font-size="0.018227" fill="hsl(180.0,100%,20%)">gman</text>
<text x="0.204" y="0.169" font-size="0.049134" fill="hsl(180.0,100%,20%)">lokokung</text>
<text x="0.081" y="0.273" font-size="0.036149" fill="hsl(180.0,100%,20%)">kainino</text>
<text x="0.129" y="0.577" font-size="0.018825" fill="hsl(180.0,100%,20%)">bentonian</text>
<text x="0.853" y="0.483" font-size="0.016303" fill="hsl(180.0,100%,20%)">nexa</text>
<text x="0.289" y="0.563" font-size="0.026203" fill="hsl(180.0,100%,20%)">jimblackler</text>
<text x="1.076" y="0.963" font-size="0.024454" fill="hsl(0.0,100%,20%)">bsheedy</text>
<text x="1.207" y="0.798" font-size="0.004706" fill="hsl(0.0,100%,20%)">chanli</text>
<text x="0.716" y="0.797" font-size="0.030134" fill="hsl(0.0,100%,20%)">dneto</text>
<text x="1.313" y="0.420" font-size="0.026203" fill="hsl(180.0,100%,20%)">senorblanco</text>
<text x="0.873" y="0.255" font-size="0.033937" fill="hsl(180.0,100%,20%)">jiawei.shao</text>
<text x="0.328" y="0.280" font-size="0.004706" fill="hsl(180.0,100%,20%)">blundell</text>
<text x="0.088" y="0.463" font-size="0.004706" fill="hsl(180.0,100%,20%)">fbeaufort</text>
<text x="0.622" y="0.386" font-size="0.012451" fill="hsl(180.0,100%,20%)">geofflang</text>
<text x="0.268" y="0.594" font-size="0.004706" fill="hsl(180.0,100%,20%)">tiszka</text>
<text x="0.514" y="0.474" font-size="0.004706" fill="hsl(180.0,100%,20%)">arthursonzogni</text>
<text x="0.526" y="0.089" font-size="0.011528" fill="hsl(0.0,100%,20%)">alanbaker</text>
<text x="0.791" y="0.349" font-size="0.008151" fill="hsl(180.0,100%,20%)">hocheung</text>
<text x="0.126" y="0.285" font-size="0.013311" fill="hsl(180.0,100%,20%)">jie.a.chen</text>
<text x="0.592" y="0.246" font-size="0.014119" fill="hsl(180.0,100%,20%)">lehoangquyen</text>
<text x="0.712" y="0.513" font-size="0.008151" fill="hsl(0.0,100%,20%)">jojwang</text>
<text x="0.579" y="0.590" font-size="0.004706" fill="hsl(0.0,100%,20%)">gavinmak</text>
<text x="0.314" y="0.693" font-size="0.004706" fill="hsl(0.0,100%,20%)">johnstiles</text>
<text x="1.536" y="0.232" font-size="0.023531" fill="hsl(180.0,100%,20%)">shrekshao</text>
<text x="1.728" y="0.600" font-size="0.010523" fill="hsl(180.0,100%,20%)">rafael.cintron</text>
<text x="0.669" y="0.167" font-size="0.012451" fill="hsl(180.0,100%,20%)">srijan.dhungana6</text>
<text x="1.338" y="0.793" font-size="0.014119" fill="hsl(180.0,100%,20%)">sunnyps</text>
<text x="1.128" y="0.537" font-size="0.012451" fill="hsl(180.0,100%,20%)">ynovikov</text>
<text x="0.251" y="0.297" font-size="0.016968" fill="hsl(180.0,100%,20%)">zhaoming.jiang</text>
</svg>
