<svg width="4000" height="2000" viewBox="-0.025 -0.025 2.05 1.05" xmlns="http://www.w3.org/2000/svg">
  <style>
    path {
      fill: none;
      stroke-linecap: round;
      stroke-opacity: 0.4;
    }

    text {
      text-anchor: middle;
      alignment-baseline: hanging;
    }
  </style>
  <g opacity="0.4">
<path d="M0.604 0.477 Q0.750 0.601 1.024 0.557" stroke="hsl(0.0,100%,35%)" stroke-width="0.00104"></path>
<path d="M0.604 0.477 Q0.740 0.407 0.635 0.326" stroke="hsl(0.0,100%,35%)" stroke-width="0.00052"></path>
<path d="M0.604 0.477 Q0.243 0.721 0.639 0.950" stroke="hsl(0.0,100%,35%)" stroke-width="0.00052"></path>
<path d="M1.024 0.557 Q0.696 0.596 0.702 0.765" stroke="hsl(0.0,100%,35%)" stroke-width="0.01247"></path>
<path d="M1.024 0.557 Q1.009 0.722 1.328 0.765" stroke="hsl(0.0,100%,35%)" stroke-width="0.01247"></path>
<path d="M1.024 0.557 Q0.674 0.698 0.873 0.900" stroke="hsl(0.0,100%,35%)" stroke-width="0.00728"></path>
<path d="M1.024 0.557 Q1.229 0.658 1.471 0.580" stroke="hsl(0.0,100%,35%)" stroke-width="0.00052"></path>
<path d="M1.024 0.557 Q1.123 0.430 0.897 0.354" stroke="hsl(0.0,100%,35%)" stroke-width="0.00208"></path>
<path d="M1.024 0.557 Q1.090 0.631 1.249 0.615" stroke="hsl(0.0,100%,35%)" stroke-width="0.00052"></path>
<path d="M1.024 0.557 Q1.383 0.694 1.729 0.549" stroke="hsl(0.0,100%,35%)" stroke-width="0.00156"></path>
<path d="M1.024 0.557 Q0.793 0.773 1.164 0.934" stroke="hsl(0.0,100%,35%)" stroke-width="0.00572"></path>
<path d="M1.024 0.557 Q0.517 0.676 0.639 0.950" stroke="hsl(0.0,100%,35%)" stroke-width="0.00104"></path>
<path d="M1.024 0.557 Q0.617 0.757 0.919 1.000" stroke="hsl(0.0,100%,35%)" stroke-width="0.00052"></path>
<path d="M0.639 0.950 Q0.503 0.781 0.143 0.810" stroke="hsl(0.0,100%,35%)" stroke-width="0.00052"></path>
<path d="M0.639 0.950 Q1.147 0.830 1.024 0.557" stroke="hsl(0.0,100%,35%)" stroke-width="0.00364"></path>
<path d="M0.639 0.950 Q1.352 0.932 1.471 0.580" stroke="hsl(0.0,100%,35%)" stroke-width="0.00104"></path>
<path d="M0.639 0.950 Q0.796 0.972 0.873 0.900" stroke="hsl(0.0,100%,35%)" stroke-width="0.01871"></path>
<path d="M0.639 0.950 Q0.819 0.870 0.702 0.765" stroke="hsl(0.0,100%,35%)" stroke-width="0.00780"></path>
<path d="M0.639 0.950 Q1.213 0.904 1.249 0.615" stroke="hsl(0.0,100%,35%)" stroke-width="0.00208"></path>
<path d="M0.639 0.950 Q1.425 1.050 1.792 0.689" stroke="hsl(0.0,100%,35%)" stroke-width="0.00052"></path>
<path d="M0.639 0.950 Q1.013 0.871 0.941 0.672" stroke="hsl(0.0,100%,35%)" stroke-width="0.00052"></path>
<path d="M0.639 0.950 Q0.915 1.047 1.164 0.934" stroke="hsl(0.0,100%,35%)" stroke-width="0.00208"></path>
<path d="M1.622 0.777 Q0.855 0.497 0.143 0.810" stroke="hsl(180.0,100%,35%)" stroke-width="0.00624"></path>
<path d="M1.622 0.777 Q1.857 0.684 1.729 0.549" stroke="hsl(180.0,100%,35%)" stroke-width="0.00052"></path>
<path d="M1.622 0.777 Q1.473 0.885 1.653 0.982" stroke="hsl(180.0,100%,35%)" stroke-width="0.00312"></path>
<path d="M1.622 0.777 Q1.060 0.502 0.401 0.716" stroke="hsl(180.0,100%,35%)" stroke-width="0.00156"></path>
<path d="M1.622 0.777 Q1.589 0.830 1.686 0.858" stroke="hsl(180.0,100%,35%)" stroke-width="0.00624"></path>
<path d="M0.143 0.810 Q0.106 0.929 0.330 0.973" stroke="hsl(180.0,100%,35%)" stroke-width="0.01871"></path>
<path d="M0.143 0.810 Q0.555 1.076 1.164 0.934" stroke="hsl(180.0,100%,35%)" stroke-width="0.00260"></path>
<path d="M0.143 0.810 Q0.347 0.815 0.401 0.716" stroke="hsl(180.0,100%,35%)" stroke-width="0.01923"></path>
<path d="M0.143 0.810 Q0.761 1.198 1.653 0.982" stroke="hsl(180.0,100%,35%)" stroke-width="0.00416"></path>
<path d="M0.143 0.810 Q0.991 0.961 1.471 0.580" stroke="hsl(180.0,100%,35%)" stroke-width="0.00156"></path>
<path d="M0.143 0.810 Q0.877 1.143 1.686 0.858" stroke="hsl(180.0,100%,35%)" stroke-width="0.00364"></path>
<path d="M0.143 0.810 Q0.771 1.025 1.328 0.765" stroke="hsl(180.0,100%,35%)" stroke-width="0.00312"></path>
<path d="M0.143 0.810 Q0.266 0.744 0.163 0.669" stroke="hsl(180.0,100%,35%)" stroke-width="0.01247"></path>
<path d="M0.143 0.810 Q1.064 1.079 1.792 0.689" stroke="hsl(180.0,100%,35%)" stroke-width="0.00104"></path>
<path d="M0.143 0.810 Q0.786 0.860 1.024 0.557" stroke="hsl(180.0,100%,35%)" stroke-width="0.00104"></path>
<path d="M0.143 0.810 Q0.852 0.934 1.249 0.615" stroke="hsl(180.0,100%,35%)" stroke-width="0.00052"></path>
<path d="M0.143 0.810 Q0.436 1.001 0.873 0.900" stroke="hsl(180.0,100%,35%)" stroke-width="0.00052"></path>
<path d="M0.143 0.810 Q0.909 1.089 1.622 0.777" stroke="hsl(180.0,100%,35%)" stroke-width="0.00104"></path>
<path d="M0.143 0.810 Q0.670 1.137 1.424 0.952" stroke="hsl(180.0,100%,35%)" stroke-width="0.00052"></path>
<path d="M0.143 0.810 Q0.458 0.900 0.702 0.765" stroke="hsl(180.0,100%,35%)" stroke-width="0.00052"></path>
<path d="M0.143 0.810 Q0.279 0.980 0.639 0.950" stroke="hsl(180.0,100%,35%)" stroke-width="0.00052"></path>
<path d="M1.729 0.549 Q1.355 0.577 1.328 0.765" stroke="hsl(0.0,100%,35%)" stroke-width="0.00883"></path>
<path d="M1.729 0.549 Q1.437 0.486 1.249 0.615" stroke="hsl(0.0,100%,35%)" stroke-width="0.00208"></path>
<path d="M1.729 0.549 Q1.919 0.499 1.863 0.396" stroke="hsl(0.0,100%,35%)" stroke-width="0.00416"></path>
<path d="M1.729 0.549 Q1.020 0.554 0.873 0.900" stroke="hsl(0.0,100%,35%)" stroke-width="0.00208"></path>
<path d="M1.729 0.549 Q1.649 0.632 1.792 0.689" stroke="hsl(0.0,100%,35%)" stroke-width="0.00676"></path>
<path d="M1.729 0.549 Q1.576 0.513 1.471 0.580" stroke="hsl(0.0,100%,35%)" stroke-width="0.00780"></path>
<path d="M1.729 0.549 Q1.371 0.412 1.024 0.557" stroke="hsl(0.0,100%,35%)" stroke-width="0.00208"></path>
<path d="M1.729 0.549 Q1.139 0.628 1.164 0.934" stroke="hsl(0.0,100%,35%)" stroke-width="0.00208"></path>
<path d="M1.729 0.549 Q1.043 0.452 0.702 0.765" stroke="hsl(0.0,100%,35%)" stroke-width="0.00156"></path>
<path d="M1.729 0.549 Q1.470 0.285 0.897 0.354" stroke="hsl(0.0,100%,35%)" stroke-width="0.00208"></path>
<path d="M1.729 0.549 Q1.752 0.445 1.555 0.411" stroke="hsl(0.0,100%,35%)" stroke-width="0.00052"></path>
<path d="M1.729 0.549 Q0.981 0.236 0.204 0.532" stroke="hsl(0.0,100%,35%)" stroke-width="0.00052"></path>
<path d="M1.729 0.549 Q1.623 0.230 0.977 0.211" stroke="hsl(0.0,100%,35%)" stroke-width="0.00052"></path>
<path d="M1.729 0.549 Q1.345 0.750 1.653 0.982" stroke="hsl(0.0,100%,35%)" stroke-width="0.00052"></path>
<path d="M1.729 0.549 Q1.703 0.609 1.815 0.635" stroke="hsl(0.0,100%,35%)" stroke-width="0.00052"></path>
<path d="M1.653 0.982 Q1.035 0.594 0.143 0.810" stroke="hsl(180.0,100%,35%)" stroke-width="0.00676"></path>
<path d="M1.653 0.982 Q1.158 0.527 0.163 0.669" stroke="hsl(180.0,100%,35%)" stroke-width="0.00104"></path>
<path d="M1.653 0.982 Q1.802 0.873 1.622 0.777" stroke="hsl(180.0,100%,35%)" stroke-width="0.00104"></path>
<path d="M1.653 0.982 Q1.769 0.926 1.686 0.858" stroke="hsl(180.0,100%,35%)" stroke-width="0.00260"></path>
<path d="M1.653 0.982 Q1.562 0.921 1.424 0.952" stroke="hsl(180.0,100%,35%)" stroke-width="0.00208"></path>
<path d="M1.653 0.982 Q2.011 0.841 1.815 0.635" stroke="hsl(180.0,100%,35%)" stroke-width="0.00052"></path>
<path d="M1.653 0.982 Q1.663 0.808 1.328 0.765" stroke="hsl(180.0,100%,35%)" stroke-width="0.00052"></path>
<path d="M0.401 0.716 Q0.197 0.711 0.143 0.810" stroke="hsl(180.0,100%,35%)" stroke-width="0.02027"></path>
<path d="M0.401 0.716 Q0.160 0.830 0.330 0.973" stroke="hsl(180.0,100%,35%)" stroke-width="0.00104"></path>
<path d="M0.401 0.716 Q0.320 0.645 0.163 0.669" stroke="hsl(180.0,100%,35%)" stroke-width="0.00364"></path>
<path d="M1.686 0.858 Q1.570 0.913 1.653 0.982" stroke="hsl(180.0,100%,35%)" stroke-width="0.01455"></path>
<path d="M1.686 0.858 Q2.050 0.504 1.440 0.249" stroke="hsl(180.0,100%,35%)" stroke-width="0.00052"></path>
<path d="M1.686 0.858 Q0.952 0.525 0.143 0.810" stroke="hsl(180.0,100%,35%)" stroke-width="0.01039"></path>
<path d="M1.686 0.858 Q1.075 0.459 0.163 0.669" stroke="hsl(180.0,100%,35%)" stroke-width="0.00052"></path>
<path d="M1.686 0.858 Q0.915 0.644 0.330 0.973" stroke="hsl(180.0,100%,35%)" stroke-width="0.00156"></path>
<path d="M1.686 0.858 Q1.480 0.852 1.424 0.952" stroke="hsl(180.0,100%,35%)" stroke-width="0.00468"></path>
<path d="M1.686 0.858 Q1.954 0.712 1.729 0.549" stroke="hsl(180.0,100%,35%)" stroke-width="0.00052"></path>
<path d="M1.686 0.858 Q1.596 0.575 1.024 0.557" stroke="hsl(180.0,100%,35%)" stroke-width="0.00104"></path>
<path d="M1.686 0.858 Q1.801 0.676 1.471 0.580" stroke="hsl(180.0,100%,35%)" stroke-width="0.00052"></path>
<path d="M1.686 0.858 Q1.581 0.740 1.328 0.765" stroke="hsl(180.0,100%,35%)" stroke-width="0.00208"></path>
<path d="M1.686 0.858 Q1.719 0.804 1.622 0.777" stroke="hsl(180.0,100%,35%)" stroke-width="0.00364"></path>
<path d="M0.702 0.765 Q0.680 0.867 0.873 0.900" stroke="hsl(0.0,100%,35%)" stroke-width="0.03066"></path>
<path d="M0.702 0.765 Q1.030 0.726 1.024 0.557" stroke="hsl(0.0,100%,35%)" stroke-width="0.01403"></path>
<path d="M0.702 0.765 Q0.523 0.845 0.639 0.950" stroke="hsl(0.0,100%,35%)" stroke-width="0.00364"></path>
<path d="M0.702 0.765 Q0.798 0.942 1.164 0.934" stroke="hsl(0.0,100%,35%)" stroke-width="0.00052"></path>
<path d="M0.702 0.765 Q1.096 0.800 1.249 0.615" stroke="hsl(0.0,100%,35%)" stroke-width="0.00052"></path>
<path d="M0.702 0.765 Q1.388 0.863 1.729 0.549" stroke="hsl(0.0,100%,35%)" stroke-width="0.00052"></path>
<path d="M0.702 0.765 Q1.308 0.945 1.792 0.689" stroke="hsl(0.0,100%,35%)" stroke-width="0.00052"></path>
<path d="M0.702 0.765 Q0.386 0.676 0.143 0.810" stroke="hsl(0.0,100%,35%)" stroke-width="0.00052"></path>
<path d="M0.702 0.765 Q0.623 0.926 0.919 1.000" stroke="hsl(0.0,100%,35%)" stroke-width="0.00104"></path>
<path d="M1.328 0.765 Q1.111 0.817 1.164 0.934" stroke="hsl(0.0,100%,35%)" stroke-width="0.01923"></path>
<path d="M1.328 0.765 Q1.209 0.641 0.941 0.672" stroke="hsl(0.0,100%,35%)" stroke-width="0.00052"></path>
<path d="M1.328 0.765 Q1.343 0.600 1.024 0.557" stroke="hsl(0.0,100%,35%)" stroke-width="0.00676"></path>
<path d="M1.328 0.765 Q1.409 0.674 1.249 0.615" stroke="hsl(0.0,100%,35%)" stroke-width="0.00780"></path>
<path d="M1.328 0.765 Q1.701 0.738 1.729 0.549" stroke="hsl(0.0,100%,35%)" stroke-width="0.00312"></path>
<path d="M1.328 0.765 Q0.992 0.742 0.873 0.900" stroke="hsl(0.0,100%,35%)" stroke-width="0.00156"></path>
<path d="M1.328 0.765 Q1.891 0.688 1.863 0.396" stroke="hsl(0.0,100%,35%)" stroke-width="0.00052"></path>
<path d="M0.873 0.900 Q0.895 0.799 0.702 0.765" stroke="hsl(0.0,100%,35%)" stroke-width="0.01819"></path>
<path d="M0.873 0.900 Q1.428 0.860 1.471 0.580" stroke="hsl(0.0,100%,35%)" stroke-width="0.00052"></path>
<path d="M0.873 0.900 Q0.992 0.975 1.164 0.934" stroke="hsl(0.0,100%,35%)" stroke-width="0.00104"></path>
<path d="M0.873 0.900 Q1.224 0.759 1.024 0.557" stroke="hsl(0.0,100%,35%)" stroke-width="0.01195"></path>
<path d="M0.873 0.900 Q1.290 0.833 1.249 0.615" stroke="hsl(0.0,100%,35%)" stroke-width="0.00052"></path>
<path d="M0.873 0.900 Q1.208 0.924 1.328 0.765" stroke="hsl(0.0,100%,35%)" stroke-width="0.00156"></path>
<path d="M0.873 0.900 Q0.716 0.879 0.639 0.950" stroke="hsl(0.0,100%,35%)" stroke-width="0.00052"></path>
<path d="M0.873 0.900 Q1.582 0.896 1.729 0.549" stroke="hsl(0.0,100%,35%)" stroke-width="0.00052"></path>
<path d="M0.873 0.900 Q1.322 0.632 0.897 0.354" stroke="hsl(0.0,100%,35%)" stroke-width="0.00052"></path>
<path d="M0.873 0.900 Q1.501 0.978 1.792 0.689" stroke="hsl(0.0,100%,35%)" stroke-width="0.00156"></path>
<path d="M0.873 0.900 Q0.816 0.959 0.919 1.000" stroke="hsl(0.0,100%,35%)" stroke-width="0.00052"></path>
<path d="M1.471 0.580 Q1.251 0.644 1.328 0.765" stroke="hsl(0.0,100%,35%)" stroke-width="0.01247"></path>
<path d="M1.471 0.580 Q1.815 0.566 1.863 0.396" stroke="hsl(0.0,100%,35%)" stroke-width="0.00104"></path>
<path d="M1.471 0.580 Q1.494 0.402 1.151 0.352" stroke="hsl(0.0,100%,35%)" stroke-width="0.00052"></path>
<path d="M1.471 0.580 Q0.623 0.429 0.143 0.810" stroke="hsl(0.0,100%,35%)" stroke-width="0.00416"></path>
<path d="M1.471 0.580 Q0.759 0.599 0.639 0.950" stroke="hsl(0.0,100%,35%)" stroke-width="0.00156"></path>
<path d="M1.471 0.580 Q1.035 0.695 1.164 0.934" stroke="hsl(0.0,100%,35%)" stroke-width="0.00624"></path>
<path d="M1.471 0.580 Q1.545 0.699 1.792 0.689" stroke="hsl(0.0,100%,35%)" stroke-width="0.00104"></path>
<path d="M1.471 0.580 Q1.333 0.553 1.249 0.615" stroke="hsl(0.0,100%,35%)" stroke-width="0.00208"></path>
<path d="M1.471 0.580 Q0.916 0.620 0.873 0.900" stroke="hsl(0.0,100%,35%)" stroke-width="0.00052"></path>
<path d="M1.471 0.580 Q1.267 0.479 1.024 0.557" stroke="hsl(0.0,100%,35%)" stroke-width="0.00156"></path>
<path d="M1.471 0.580 Q0.586 0.548 0.330 0.973" stroke="hsl(0.0,100%,35%)" stroke-width="0.00052"></path>
<path d="M1.471 0.580 Q1.625 0.616 1.729 0.549" stroke="hsl(0.0,100%,35%)" stroke-width="0.00208"></path>
<path d="M0.897 0.354 Q0.799 0.481 1.024 0.557" stroke="hsl(0.0,100%,35%)" stroke-width="0.00052"></path>
<path d="M0.897 0.354 Q1.051 0.298 0.977 0.211" stroke="hsl(0.0,100%,35%)" stroke-width="0.00052"></path>
<path d="M0.897 0.354 Q1.347 0.568 1.863 0.396" stroke="hsl(0.0,100%,35%)" stroke-width="0.00052"></path>
<path d="M1.249 0.615 Q0.833 0.682 0.873 0.900" stroke="hsl(0.0,100%,35%)" stroke-width="0.00104"></path>
<path d="M1.249 0.615 Q1.461 0.760 1.792 0.689" stroke="hsl(0.0,100%,35%)" stroke-width="0.00416"></path>
<path d="M1.249 0.615 Q0.676 0.661 0.639 0.950" stroke="hsl(0.0,100%,35%)" stroke-width="0.00052"></path>
<path d="M1.249 0.615 Q1.183 0.541 1.024 0.557" stroke="hsl(0.0,100%,35%)" stroke-width="0.00052"></path>
<path d="M1.249 0.615 Q1.168 0.706 1.328 0.765" stroke="hsl(0.0,100%,35%)" stroke-width="0.00208"></path>
<path d="M1.249 0.615 Q0.540 0.491 0.143 0.810" stroke="hsl(0.0,100%,35%)" stroke-width="0.00052"></path>
<path d="M1.249 0.615 Q1.273 0.824 1.686 0.858" stroke="hsl(0.0,100%,35%)" stroke-width="0.00052"></path>
<path d="M1.249 0.615 Q1.388 0.642 1.471 0.580" stroke="hsl(0.0,100%,35%)" stroke-width="0.00052"></path>
<path d="M1.249 0.615 Q0.793 0.364 0.204 0.532" stroke="hsl(0.0,100%,35%)" stroke-width="0.00052"></path>
<path d="M1.249 0.615 Q1.410 0.463 1.151 0.352" stroke="hsl(0.0,100%,35%)" stroke-width="0.00104"></path>
<path d="M1.249 0.615 Q0.951 0.757 1.164 0.934" stroke="hsl(0.0,100%,35%)" stroke-width="0.00052"></path>
<path d="M1.164 0.934 Q1.380 0.882 1.328 0.765" stroke="hsl(0.0,100%,35%)" stroke-width="0.00676"></path>
<path d="M1.164 0.934 Q1.045 0.859 0.873 0.900" stroke="hsl(0.0,100%,35%)" stroke-width="0.00364"></path>
<path d="M1.164 0.934 Q1.850 0.646 1.440 0.249" stroke="hsl(0.0,100%,35%)" stroke-width="0.00052"></path>
<path d="M1.164 0.934 Q1.674 0.937 1.792 0.689" stroke="hsl(0.0,100%,35%)" stroke-width="0.00052"></path>
<path d="M1.164 0.934 Q1.601 0.818 1.471 0.580" stroke="hsl(0.0,100%,35%)" stroke-width="0.00104"></path>
<path d="M1.164 0.934 Q1.623 0.640 1.151 0.352" stroke="hsl(0.0,100%,35%)" stroke-width="0.00156"></path>
<path d="M1.164 0.934 Q1.396 0.717 1.024 0.557" stroke="hsl(0.0,100%,35%)" stroke-width="0.00052"></path>
<path d="M1.164 0.934 Q1.262 0.758 0.941 0.672" stroke="hsl(0.0,100%,35%)" stroke-width="0.00052"></path>
<path d="M0.919 1.000 Q1.326 0.799 1.024 0.557" stroke="hsl(0.0,100%,35%)" stroke-width="0.00156"></path>
<path d="M0.919 1.000 Q0.976 0.941 0.873 0.900" stroke="hsl(0.0,100%,35%)" stroke-width="0.01091"></path>
<path d="M0.919 1.000 Q1.392 0.873 1.249 0.615" stroke="hsl(0.0,100%,35%)" stroke-width="0.00052"></path>
<path d="M0.919 1.000 Q0.998 0.839 0.702 0.765" stroke="hsl(0.0,100%,35%)" stroke-width="0.00208"></path>
<path d="M0.919 1.000 Q0.819 0.919 0.639 0.950" stroke="hsl(0.0,100%,35%)" stroke-width="0.00052"></path>
<path d="M0.330 0.973 Q0.490 0.788 0.163 0.669" stroke="hsl(180.0,100%,35%)" stroke-width="0.00364"></path>
<path d="M0.330 0.973 Q0.367 0.854 0.143 0.810" stroke="hsl(180.0,100%,35%)" stroke-width="0.00728"></path>
<path d="M0.330 0.973 Q0.571 0.859 0.401 0.716" stroke="hsl(180.0,100%,35%)" stroke-width="0.00208"></path>
<path d="M0.330 0.973 Q0.894 1.181 1.424 0.952" stroke="hsl(180.0,100%,35%)" stroke-width="0.00052"></path>
<path d="M0.163 0.669 Q0.040 0.736 0.143 0.810" stroke="hsl(180.0,100%,35%)" stroke-width="0.00935"></path>
<path d="M0.163 0.669 Q0.003 0.855 0.330 0.973" stroke="hsl(180.0,100%,35%)" stroke-width="0.00104"></path>
<path d="M0.163 0.669 Q0.245 0.740 0.401 0.716" stroke="hsl(180.0,100%,35%)" stroke-width="0.00780"></path>
<path d="M1.424 0.952 Q1.515 1.013 1.653 0.982" stroke="hsl(180.0,100%,35%)" stroke-width="0.01871"></path>
<path d="M1.424 0.952 Q1.631 0.957 1.686 0.858" stroke="hsl(180.0,100%,35%)" stroke-width="0.00935"></path>
<path d="M1.424 0.952 Q0.860 0.744 0.330 0.973" stroke="hsl(180.0,100%,35%)" stroke-width="0.00104"></path>
<path d="M1.424 0.952 Q0.897 0.625 0.143 0.810" stroke="hsl(180.0,100%,35%)" stroke-width="0.00468"></path>
<path d="M1.424 0.952 Q1.525 0.839 1.328 0.765" stroke="hsl(180.0,100%,35%)" stroke-width="0.00104"></path>
<path d="M1.424 0.952 Q1.663 0.904 1.622 0.777" stroke="hsl(180.0,100%,35%)" stroke-width="0.00104"></path>
<path d="M1.424 0.952 Q1.899 0.812 1.729 0.549" stroke="hsl(180.0,100%,35%)" stroke-width="0.00052"></path>
<path d="M1.440 0.249 Q0.342 0.270 0.143 0.810" stroke="hsl(0.0,100%,35%)" stroke-width="0.00052"></path>
<path d="M1.440 0.249 Q0.754 0.536 1.164 0.934" stroke="hsl(0.0,100%,35%)" stroke-width="0.00052"></path>
<path d="M1.440 0.249 Q1.344 0.457 1.729 0.549" stroke="hsl(0.0,100%,35%)" stroke-width="0.00052"></path>
<path d="M1.440 0.249 Q1.583 0.290 1.696 0.230" stroke="hsl(0.0,100%,35%)" stroke-width="0.00104"></path>
<path d="M1.440 0.249 Q1.084 0.193 0.897 0.354" stroke="hsl(0.0,100%,35%)" stroke-width="0.00104"></path>
<path d="M1.863 0.396 Q1.520 0.410 1.471 0.580" stroke="hsl(0.0,100%,35%)" stroke-width="0.00104"></path>
<path d="M1.863 0.396 Q1.381 0.382 1.249 0.615" stroke="hsl(0.0,100%,35%)" stroke-width="0.00104"></path>
<path d="M1.863 0.396 Q1.647 0.506 1.815 0.635" stroke="hsl(0.0,100%,35%)" stroke-width="0.00052"></path>
<path d="M1.863 0.396 Q1.181 0.349 0.941 0.672" stroke="hsl(0.0,100%,35%)" stroke-width="0.00052"></path>
<path d="M1.863 0.396 Q1.593 0.528 1.792 0.689" stroke="hsl(0.0,100%,35%)" stroke-width="0.00052"></path>
<path d="M1.792 0.689 Q1.741 0.392 1.151 0.352" stroke="hsl(0.0,100%,35%)" stroke-width="0.00312"></path>
<path d="M1.792 0.689 Q1.580 0.543 1.249 0.615" stroke="hsl(0.0,100%,35%)" stroke-width="0.00364"></path>
<path d="M1.792 0.689 Q1.164 0.611 0.873 0.900" stroke="hsl(0.0,100%,35%)" stroke-width="0.00052"></path>
<path d="M1.792 0.689 Q1.872 0.607 1.729 0.549" stroke="hsl(0.0,100%,35%)" stroke-width="0.00676"></path>
<path d="M1.792 0.689 Q0.993 0.353 0.163 0.669" stroke="hsl(0.0,100%,35%)" stroke-width="0.00052"></path>
<path d="M1.792 0.689 Q1.007 0.589 0.639 0.950" stroke="hsl(0.0,100%,35%)" stroke-width="0.00052"></path>
<path d="M1.792 0.689 Q1.186 0.509 0.702 0.765" stroke="hsl(0.0,100%,35%)" stroke-width="0.00052"></path>
<path d="M1.792 0.689 Q1.846 0.667 1.815 0.635" stroke="hsl(0.0,100%,35%)" stroke-width="0.00104"></path>
<path d="M0.204 0.532 Q0.074 0.592 0.163 0.669" stroke="hsl(0.0,100%,35%)" stroke-width="0.00052"></path>
<path d="M0.204 0.532 Q0.661 0.782 1.249 0.615" stroke="hsl(0.0,100%,35%)" stroke-width="0.00104"></path>
<path d="M0.204 0.532 Q0.873 0.928 1.792 0.689" stroke="hsl(0.0,100%,35%)" stroke-width="0.00052"></path>
<path d="M0.281 0.188 Q0.197 0.225 0.251 0.274" stroke="hsl(0.0,100%,35%)" stroke-width="0.00052"></path>
<path d="M0.281 0.188 Q0.562 0.622 1.471 0.580" stroke="hsl(0.0,100%,35%)" stroke-width="0.00052"></path>
<path d="M0.281 0.188 Q0.358 0.521 1.024 0.557" stroke="hsl(0.0,100%,35%)" stroke-width="0.00052"></path>
<path d="M0.281 0.188 Q0.716 0.658 1.729 0.549" stroke="hsl(0.0,100%,35%)" stroke-width="0.00052"></path>
<path d="M0.281 0.188 Q-0.150 0.641 0.639 0.950" stroke="hsl(0.0,100%,35%)" stroke-width="0.00052"></path>
<path d="M1.151 0.352 Q0.924 0.429 1.024 0.557" stroke="hsl(0.0,100%,35%)" stroke-width="0.00052"></path>
<path d="M1.151 0.352 Q0.692 0.645 1.164 0.934" stroke="hsl(0.0,100%,35%)" stroke-width="0.00208"></path>
<path d="M1.151 0.352 Q1.305 0.462 1.555 0.411" stroke="hsl(0.0,100%,35%)" stroke-width="0.00052"></path>
<path d="M1.151 0.352 Q0.573 0.570 0.873 0.900" stroke="hsl(0.0,100%,35%)" stroke-width="0.00052"></path>
<path d="M1.151 0.352 Q0.908 0.594 1.328 0.765" stroke="hsl(0.0,100%,35%)" stroke-width="0.00052"></path>
<path d="M1.516 0.888 Q1.509 0.962 1.653 0.982" stroke="hsl(180.0,100%,35%)" stroke-width="0.00052"></path>
<path d="M1.516 0.888 Q1.419 0.902 1.424 0.952" stroke="hsl(180.0,100%,35%)" stroke-width="0.00052"></path>
<path d="M1.516 0.888 Q0.892 0.575 0.143 0.810" stroke="hsl(180.0,100%,35%)" stroke-width="0.00052"></path>
<path d="M1.069 0.727 Q0.833 0.774 0.873 0.900" stroke="hsl(0.0,100%,35%)" stroke-width="0.00312"></path>
<path d="M1.069 0.727 Q0.951 0.849 1.164 0.934" stroke="hsl(0.0,100%,35%)" stroke-width="0.00312"></path>
<path d="M1.069 0.727 Q1.050 0.674 0.941 0.672" stroke="hsl(0.0,100%,35%)" stroke-width="0.00104"></path>
<path d="M1.069 0.727 Q0.676 0.753 0.639 0.950" stroke="hsl(0.0,100%,35%)" stroke-width="0.00104"></path>
<path d="M0.941 0.672 Q1.433 0.768 1.729 0.549" stroke="hsl(0.0,100%,35%)" stroke-width="0.00052"></path>
<path d="M0.941 0.672 Q1.173 0.504 0.897 0.354" stroke="hsl(0.0,100%,35%)" stroke-width="0.00052"></path>
<path d="M0.941 0.672 Q0.567 0.751 0.639 0.950" stroke="hsl(0.0,100%,35%)" stroke-width="0.00052"></path>
<path d="M0.941 0.672 Q0.843 0.847 1.164 0.934" stroke="hsl(0.0,100%,35%)" stroke-width="0.00104"></path>
<path d="M0.941 0.672 Q1.059 0.796 1.328 0.765" stroke="hsl(0.0,100%,35%)" stroke-width="0.00052"></path>
<path d="M0.941 0.672 Q1.280 0.732 1.471 0.580" stroke="hsl(0.0,100%,35%)" stroke-width="0.00052"></path>
<path d="M0.941 0.672 Q0.431 0.581 0.143 0.810" stroke="hsl(0.0,100%,35%)" stroke-width="0.00052"></path>
<path d="M0.941 0.672 Q1.302 0.553 1.151 0.352" stroke="hsl(0.0,100%,35%)" stroke-width="0.00052"></path>
<path d="M1.504 0.875 Q0.875 0.570 0.143 0.810" stroke="hsl(180.0,100%,35%)" stroke-width="0.00052"></path>
<path d="M1.504 0.875 Q1.493 0.958 1.653 0.982" stroke="hsl(180.0,100%,35%)" stroke-width="0.00104"></path>
<path d="M1.504 0.875 Q1.403 0.897 1.424 0.952" stroke="hsl(180.0,100%,35%)" stroke-width="0.00104"></path>
<path d="M1.504 0.875 Q1.642 0.849 1.622 0.777" stroke="hsl(180.0,100%,35%)" stroke-width="0.00052"></path>
<path d="M0.176 0.882 Q0.217 0.839 0.143 0.810" stroke="hsl(0.0,100%,35%)" stroke-width="0.00156"></path>
<path d="M0.176 0.882 Q0.835 1.227 1.653 0.982" stroke="hsl(0.0,100%,35%)" stroke-width="0.00104"></path>
<path d="M0.176 0.882 Q1.219 1.026 1.729 0.549" stroke="hsl(0.0,100%,35%)" stroke-width="0.00052"></path>
<path d="M0.176 0.882 Q0.845 1.054 1.328 0.765" stroke="hsl(0.0,100%,35%)" stroke-width="0.00052"></path>
<path d="M0.176 0.882 Q1.138 1.109 1.792 0.689" stroke="hsl(0.0,100%,35%)" stroke-width="0.00104"></path>
<path d="M0.176 0.882 Q0.470 0.713 0.204 0.532" stroke="hsl(0.0,100%,35%)" stroke-width="0.00052"></path>
<path d="M0.401 0.077 Q0.562 0.129 0.700 0.062" stroke="hsl(0.0,100%,35%)" stroke-width="0.00260"></path>
<path d="M0.401 0.077 Q-0.179 0.561 0.639 0.950" stroke="hsl(0.0,100%,35%)" stroke-width="0.00156"></path>
<path d="M0.401 0.077 Q0.534 0.543 1.471 0.580" stroke="hsl(0.0,100%,35%)" stroke-width="0.00104"></path>
<path d="M0.401 0.077 Q0.687 0.579 1.729 0.549" stroke="hsl(0.0,100%,35%)" stroke-width="0.00052"></path>
<path d="M1.445 0.658 Q1.183 0.564 0.941 0.672" stroke="hsl(0.0,100%,35%)" stroke-width="0.00052"></path>
<path d="M1.445 0.658 Q1.301 0.688 1.328 0.765" stroke="hsl(0.0,100%,35%)" stroke-width="0.00104"></path>
<path d="M1.445 0.658 Q0.673 0.474 0.143 0.810" stroke="hsl(0.0,100%,35%)" stroke-width="0.00052"></path>
<path d="M1.445 0.658 Q1.675 0.661 1.729 0.549" stroke="hsl(0.0,100%,35%)" stroke-width="0.00052"></path>
</g>
<text x="0.604" y="0.473" font-size="0.008108" fill="hsl(0.0,100%,20%)">adithyas</text>
<text x="1.024" y="0.530" font-size="0.053781" fill="hsl(0.0,100%,20%)">alexrudenko</text>
<text x="0.635" y="0.324" font-size="0.004054" fill="hsl(0.0,100%,20%)">kenoss</text>
<text x="0.639" y="0.930" font-size="0.039720" fill="hsl(0.0,100%,20%)">wolfi</text>
<text x="1.622" y="0.762" font-size="0.028086" fill="hsl(180.0,100%,20%)">aixba</text>
<text x="0.143" y="0.776" font-size="0.067955" fill="hsl(180.0,100%,20%)">jacktfranklin</text>
<text x="1.729" y="0.527" font-size="0.044036" fill="hsl(0.0,100%,20%)">bmeurer</text>
<text x="1.653" y="0.960" font-size="0.042902" fill="hsl(180.0,100%,20%)">paulirish</text>
<text x="0.401" y="0.695" font-size="0.041934" fill="hsl(180.0,100%,20%)">alinavarkki</text>
<text x="1.686" y="0.835" font-size="0.044408" fill="hsl(180.0,100%,20%)">asraine</text>
<text x="0.702" y="0.738" font-size="0.054840" fill="hsl(0.0,100%,20%)">nvitkov</text>
<text x="1.328" y="0.738" font-size="0.054237" fill="hsl(0.0,100%,20%)">szuend</text>
<text x="0.873" y="0.870" font-size="0.061212" fill="hsl(0.0,100%,20%)">ergunsh</text>
<text x="1.471" y="0.560" font-size="0.039926" fill="hsl(0.0,100%,20%)">dsv</text>
<text x="0.897" y="0.346" font-size="0.015701" fill="hsl(0.0,100%,20%)">mathias</text>
<text x="1.249" y="0.598" font-size="0.032934" fill="hsl(0.0,100%,20%)">kimanh</text>
<text x="1.164" y="0.912" font-size="0.044222" fill="hsl(0.0,100%,20%)">pfaffe</text>
<text x="0.919" y="0.988" font-size="0.023638" fill="hsl(0.0,100%,20%)">samiyac</text>
<text x="0.330" y="0.956" font-size="0.034398" fill="hsl(180.0,100%,20%)">andoli</text>
<text x="0.163" y="0.651" font-size="0.035803" fill="hsl(180.0,100%,20%)">nancyly</text>
<text x="1.424" y="0.933" font-size="0.038029" fill="hsl(180.0,100%,20%)">cjamcl</text>
<text x="1.440" y="0.243" font-size="0.012162" fill="hsl(0.0,100%,20%)">liviurau</text>
<text x="1.863" y="0.387" font-size="0.017670" fill="hsl(0.0,100%,20%)">yangguo</text>
<text x="1.792" y="0.672" font-size="0.033182" fill="hsl(0.0,100%,20%)">kprokopenko</text>
<text x="1.555" y="0.408" font-size="0.005733" fill="hsl(0.0,100%,20%)">jec</text>
<text x="0.204" y="0.527" font-size="0.010726" fill="hsl(0.0,100%,20%)">petermueller</text>
<text x="0.977" y="0.208" font-size="0.005733" fill="hsl(0.0,100%,20%)">victorporof</text>
<text x="1.815" y="0.631" font-size="0.009065" fill="hsl(0.0,100%,20%)">semel</text>
<text x="0.281" y="0.183" font-size="0.009065" fill="hsl(0.0,100%,20%)">brunobraga</text>
<text x="0.251" y="0.272" font-size="0.004054" fill="hsl(0.0,100%,20%)">battre</text>
<text x="1.151" y="0.342" font-size="0.018577" fill="hsl(0.0,100%,20%)">changhaohan</text>
<text x="1.516" y="0.885" font-size="0.007022" fill="hsl(180.0,100%,20%)">gux</text>
<text x="1.069" y="0.719" font-size="0.016215" fill="hsl(0.0,100%,20%)">ionutvoicila</text>
<text x="0.941" y="0.664" font-size="0.016215" fill="hsl(0.0,100%,20%)">leese</text>
<text x="1.504" y="0.870" font-size="0.009930" fill="hsl(180.0,100%,20%)">jasmineyan</text>
<text x="0.176" y="0.876" font-size="0.012819" fill="hsl(0.0,100%,20%)">jaysonchen</text>
<text x="1.696" y="0.227" font-size="0.005733" fill="hsl(0.0,100%,20%)">machenbach</text>
<text x="0.401" y="0.070" font-size="0.013445" fill="hsl(0.0,100%,20%)">masnoble</text>
<text x="0.700" y="0.057" font-size="0.009065" fill="hsl(0.0,100%,20%)">shuuran</text>
<text x="1.445" y="0.654" font-size="0.009065" fill="hsl(0.0,100%,20%)">rop</text>
</svg>
