<svg width="4000" height="2000" viewBox="-0.025 -0.025 2.05 1.05" xmlns="http://www.w3.org/2000/svg">
  <style>
    path {
      fill: none;
      stroke-linecap: round;
      stroke-opacity: 0.4;
    }

    text {
      text-anchor: middle;
      alignment-baseline: hanging;
    }
  </style>
  <g opacity="0.4">
<path d="M1.186 0.986 Q1.272 0.909 1.140 0.850" stroke="hsl(0.0,100%,35%)" stroke-width="0.02455"></path>
<path d="M1.186 0.986 Q1.409 0.835 1.162 0.693" stroke="hsl(0.0,100%,35%)" stroke-width="0.00409"></path>
<path d="M1.186 0.986 Q1.158 0.828 0.842 0.807" stroke="hsl(0.0,100%,35%)" stroke-width="0.00818"></path>
<path d="M1.186 0.986 Q1.690 0.768 1.375 0.474" stroke="hsl(0.0,100%,35%)" stroke-width="0.00409"></path>
<path d="M1.186 0.986 Q1.310 0.766 0.906 0.657" stroke="hsl(0.0,100%,35%)" stroke-width="0.00409"></path>
<path d="M1.140 0.850 Q1.353 0.562 0.838 0.395" stroke="hsl(0.0,100%,35%)" stroke-width="0.01637"></path>
<path d="M1.140 0.850 Q1.054 0.927 1.186 0.986" stroke="hsl(0.0,100%,35%)" stroke-width="0.01227"></path>
<path d="M1.140 0.850 Q1.601 0.564 1.143 0.276" stroke="hsl(0.0,100%,35%)" stroke-width="0.00409"></path>
<path d="M1.162 0.693 Q0.939 0.844 1.186 0.986" stroke="hsl(0.0,100%,35%)" stroke-width="0.01637"></path>
<path d="M1.162 0.693 Q1.063 0.624 0.906 0.657" stroke="hsl(0.0,100%,35%)" stroke-width="0.03682"></path>
<path d="M1.162 0.693 Q0.768 0.375 0.061 0.497" stroke="hsl(0.0,100%,35%)" stroke-width="0.00409"></path>
<path d="M1.162 0.693 Q1.411 0.579 1.245 0.432" stroke="hsl(0.0,100%,35%)" stroke-width="0.00818"></path>
<path d="M1.162 0.693 Q1.443 0.626 1.375 0.474" stroke="hsl(0.0,100%,35%)" stroke-width="0.00818"></path>
<path d="M0.906 0.657 Q1.005 0.726 1.162 0.693" stroke="hsl(0.0,100%,35%)" stroke-width="0.01227"></path>
<path d="M0.906 0.657 Q0.783 0.878 1.186 0.986" stroke="hsl(0.0,100%,35%)" stroke-width="0.01227"></path>
<path d="M0.906 0.657 Q0.869 0.800 1.140 0.850" stroke="hsl(0.0,100%,35%)" stroke-width="0.00409"></path>
<path d="M0.906 0.657 Q1.386 0.401 0.992 0.111" stroke="hsl(0.0,100%,35%)" stroke-width="0.00409"></path>
<path d="M0.352 0.441 Q0.161 0.411 0.061 0.497" stroke="hsl(180.0,100%,35%)" stroke-width="0.00818"></path>
<path d="M0.352 0.441 Q0.353 0.347 0.170 0.326" stroke="hsl(180.0,100%,35%)" stroke-width="0.00409"></path>
<path d="M0.352 0.441 Q0.160 0.512 0.256 0.621" stroke="hsl(180.0,100%,35%)" stroke-width="0.00409"></path>
<path d="M0.061 0.497 Q-0.095 0.686 0.239 0.804" stroke="hsl(180.0,100%,35%)" stroke-width="0.00818"></path>
<path d="M0.061 0.497 Q0.401 0.567 0.613 0.416" stroke="hsl(180.0,100%,35%)" stroke-width="0.03273"></path>
<path d="M0.061 0.497 Q0.168 0.691 0.571 0.682" stroke="hsl(180.0,100%,35%)" stroke-width="0.00409"></path>
<path d="M0.061 0.497 Q0.253 0.433 0.170 0.326" stroke="hsl(180.0,100%,35%)" stroke-width="0.02046"></path>
<path d="M0.061 0.497 Q0.252 0.527 0.352 0.441" stroke="hsl(180.0,100%,35%)" stroke-width="0.00409"></path>
<path d="M0.256 0.621 Q0.101 0.709 0.239 0.804" stroke="hsl(180.0,100%,35%)" stroke-width="0.04910"></path>
<path d="M0.256 0.621 Q0.728 0.624 0.838 0.395" stroke="hsl(180.0,100%,35%)" stroke-width="0.00409"></path>
<path d="M0.256 0.621 Q0.237 0.731 0.447 0.764" stroke="hsl(180.0,100%,35%)" stroke-width="0.00818"></path>
<path d="M0.447 0.764 Q0.312 0.742 0.239 0.804" stroke="hsl(180.0,100%,35%)" stroke-width="0.01227"></path>
<path d="M0.447 0.764 Q0.468 0.553 0.061 0.497" stroke="hsl(180.0,100%,35%)" stroke-width="0.01227"></path>
<path d="M0.447 0.764 Q0.575 0.748 0.571 0.682" stroke="hsl(180.0,100%,35%)" stroke-width="0.00409"></path>
<path d="M0.239 0.804 Q0.375 0.826 0.447 0.764" stroke="hsl(180.0,100%,35%)" stroke-width="0.00818"></path>
<path d="M0.239 0.804 Q1.046 0.667 0.957 0.243" stroke="hsl(180.0,100%,35%)" stroke-width="0.00409"></path>
<path d="M0.239 0.804 Q0.395 0.615 0.061 0.497" stroke="hsl(180.0,100%,35%)" stroke-width="0.00818"></path>
<path d="M0.239 0.804 Q0.652 1.007 1.140 0.850" stroke="hsl(180.0,100%,35%)" stroke-width="0.00409"></path>
<path d="M0.838 0.395 Q1.141 0.284 0.992 0.111" stroke="hsl(0.0,100%,35%)" stroke-width="0.02046"></path>
<path d="M0.838 0.395 Q1.085 0.397 1.143 0.276" stroke="hsl(0.0,100%,35%)" stroke-width="0.00818"></path>
<path d="M0.838 0.395 Q0.539 0.760 1.186 0.986" stroke="hsl(0.0,100%,35%)" stroke-width="0.00409"></path>
<path d="M0.838 0.395 Q0.899 0.289 0.706 0.236" stroke="hsl(0.0,100%,35%)" stroke-width="0.00818"></path>
<path d="M0.838 0.395 Q0.211 0.479 0.239 0.804" stroke="hsl(0.0,100%,35%)" stroke-width="0.00409"></path>
<path d="M0.838 0.395 Q1.019 0.343 0.957 0.243" stroke="hsl(0.0,100%,35%)" stroke-width="0.00409"></path>
<path d="M0.992 0.111 Q1.096 0.162 1.218 0.123" stroke="hsl(0.0,100%,35%)" stroke-width="0.01637"></path>
<path d="M0.992 0.111 Q0.688 0.222 0.838 0.395" stroke="hsl(0.0,100%,35%)" stroke-width="0.00409"></path>
<path d="M0.992 0.111 Q0.869 0.170 0.957 0.243" stroke="hsl(0.0,100%,35%)" stroke-width="0.00409"></path>
</g>
<text x="1.186" y="0.955" font-size="0.062678" fill="hsl(0.0,100%,20%)">alexrudenko</text>
<text x="1.140" y="0.823" font-size="0.053452" fill="hsl(0.0,100%,20%)">szuend</text>
<text x="1.162" y="0.661" font-size="0.062678" fill="hsl(0.0,100%,20%)">nvitkov</text>
<text x="0.842" y="0.797" font-size="0.018898" fill="hsl(0.0,100%,20%)">pfaffe</text>
<text x="1.375" y="0.463" font-size="0.023146" fill="hsl(0.0,100%,20%)">samiyac</text>
<text x="0.906" y="0.629" font-size="0.056695" fill="hsl(0.0,100%,20%)">ergunsh</text>
<text x="0.352" y="0.426" font-size="0.029881" fill="hsl(180.0,100%,20%)">andoli</text>
<text x="0.061" y="0.464" font-size="0.066815" fill="hsl(180.0,100%,20%)">jacktfranklin</text>
<text x="0.170" y="0.309" font-size="0.032733" fill="hsl(180.0,100%,20%)">nancyly</text>
<text x="0.256" y="0.594" font-size="0.053452" fill="hsl(180.0,100%,20%)">cjamcl</text>
<text x="0.447" y="0.742" font-size="0.044320" fill="hsl(180.0,100%,20%)">asraine</text>
<text x="0.239" y="0.771" font-size="0.065465" fill="hsl(180.0,100%,20%)">paulirish</text>
<text x="0.571" y="0.672" font-size="0.018898" fill="hsl(180.0,100%,20%)">aixba</text>
<text x="0.838" y="0.366" font-size="0.056695" fill="hsl(0.0,100%,20%)">bmeurer</text>
<text x="0.992" y="0.088" font-size="0.046291" fill="hsl(0.0,100%,20%)">kprokopenko</text>
<text x="1.143" y="0.265" font-size="0.023146" fill="hsl(0.0,100%,20%)">yangguo</text>
<text x="0.706" y="0.226" font-size="0.018898" fill="hsl(0.0,100%,20%)">dsv</text>
<text x="0.957" y="0.232" font-size="0.023146" fill="hsl(0.0,100%,20%)">semel</text>
<text x="0.613" y="0.397" font-size="0.037796" fill="hsl(180.0,100%,20%)">alinavarkki</text>
<text x="1.218" y="0.109" font-size="0.026726" fill="hsl(0.0,100%,20%)">kimanh</text>
<text x="1.245" y="0.423" font-size="0.018898" fill="hsl(0.0,100%,20%)">wolfi</text>
</svg>
