<svg width="4000" height="2000" viewBox="-0.025 -0.025 2.05 1.05" xmlns="http://www.w3.org/2000/svg">
  <style>
    path {
      fill: none;
      stroke-linecap: round;
      stroke-opacity: 0.4;
    }

    text {
      text-anchor: middle;
      alignment-baseline: hanging;
    }
  </style>
  <g opacity="0.4">
<path d="M0.744 0.890 Q0.599 0.888 0.563 0.959" stroke="hsl(0.0,100%,35%)" stroke-width="0.03464"></path>
<path d="M0.744 0.890 Q0.831 0.958 0.983 0.931" stroke="hsl(0.0,100%,35%)" stroke-width="0.01155"></path>
<path d="M0.744 0.890 Q0.837 0.842 0.764 0.786" stroke="hsl(0.0,100%,35%)" stroke-width="0.01155"></path>
<path d="M0.977 0.568 Q0.877 0.469 0.660 0.496" stroke="hsl(90.0,100%,35%)" stroke-width="0.01155"></path>
<path d="M0.977 0.568 Q0.817 0.532 0.710 0.602" stroke="hsl(90.0,100%,35%)" stroke-width="0.01155"></path>
<path d="M0.977 0.568 Q1.114 0.589 1.184 0.527" stroke="hsl(90.0,100%,35%)" stroke-width="0.01155"></path>
<path d="M0.353 0.364 Q-0.015 0.492 0.153 0.700" stroke="hsl(0.0,100%,35%)" stroke-width="0.01155"></path>
<path d="M0.353 0.364 Q0.114 0.359 0.050 0.475" stroke="hsl(0.0,100%,35%)" stroke-width="0.01155"></path>
<path d="M0.353 0.364 Q0.276 0.304 0.142 0.328" stroke="hsl(0.0,100%,35%)" stroke-width="0.01155"></path>
<path d="M0.153 0.700 Q0.842 0.674 0.942 0.332" stroke="hsl(0.0,100%,35%)" stroke-width="0.01155"></path>
<path d="M0.153 0.700 Q0.316 0.711 0.374 0.634" stroke="hsl(0.0,100%,35%)" stroke-width="0.01155"></path>
<path d="M0.153 0.700 Q0.422 0.657 0.398 0.516" stroke="hsl(0.0,100%,35%)" stroke-width="0.02309"></path>
<path d="M0.329 0.188 Q0.227 0.165 0.159 0.209" stroke="hsl(180.0,100%,35%)" stroke-width="0.02309"></path>
<path d="M0.329 0.188 Q0.438 0.158 0.403 0.098" stroke="hsl(180.0,100%,35%)" stroke-width="0.01155"></path>
<path d="M0.329 0.188 Q0.359 0.289 0.563 0.297" stroke="hsl(180.0,100%,35%)" stroke-width="0.01155"></path>
<path d="M0.329 0.188 Q0.559 0.188 0.609 0.076" stroke="hsl(180.0,100%,35%)" stroke-width="0.01155"></path>
<path d="M0.942 0.332 Q0.897 0.405 1.029 0.443" stroke="hsl(0.0,100%,35%)" stroke-width="0.02309"></path>
<path d="M0.942 0.332 Q0.253 0.358 0.153 0.700" stroke="hsl(0.0,100%,35%)" stroke-width="0.02309"></path>
<path d="M0.942 0.332 Q0.819 0.355 0.837 0.420" stroke="hsl(0.0,100%,35%)" stroke-width="0.01155"></path>
<path d="M0.942 0.332 Q0.670 0.357 0.660 0.496" stroke="hsl(0.0,100%,35%)" stroke-width="0.01155"></path>
<path d="M0.942 0.332 Q0.934 0.241 0.756 0.225" stroke="hsl(0.0,100%,35%)" stroke-width="0.01155"></path>
<path d="M0.942 0.332 Q1.045 0.383 1.169 0.344" stroke="hsl(0.0,100%,35%)" stroke-width="0.01155"></path>
<path d="M1.849 0.791 Q1.955 0.712 1.824 0.643" stroke="hsl(90.0,100%,35%)" stroke-width="0.01155"></path>
<path d="M1.849 0.791 Q1.715 0.677 1.461 0.717" stroke="hsl(90.0,100%,35%)" stroke-width="0.02309"></path>
<path d="M1.849 0.791 Q2.037 0.716 1.932 0.608" stroke="hsl(90.0,100%,35%)" stroke-width="0.01155"></path>
<path d="M1.849 0.791 Q1.601 0.798 1.559 0.920" stroke="hsl(90.0,100%,35%)" stroke-width="0.01155"></path>
<path d="M1.849 0.791 Q1.591 0.505 0.977 0.568" stroke="hsl(90.0,100%,35%)" stroke-width="0.01155"></path>
<path d="M1.849 0.791 Q1.631 0.728 1.461 0.821" stroke="hsl(90.0,100%,35%)" stroke-width="0.01155"></path>
<path d="M1.122 0.756 Q1.051 0.689 0.904 0.709" stroke="hsl(180.0,100%,35%)" stroke-width="0.01155"></path>
<path d="M1.122 0.756 Q1.602 0.509 1.227 0.221" stroke="hsl(180.0,100%,35%)" stroke-width="0.01155"></path>
<path d="M1.122 0.756 Q1.654 0.559 1.386 0.256" stroke="hsl(180.0,100%,35%)" stroke-width="0.01155"></path>
<path d="M1.122 0.756 Q1.523 0.575 1.257 0.339" stroke="hsl(180.0,100%,35%)" stroke-width="0.01155"></path>
<path d="M1.227 0.221 Q0.675 0.400 0.904 0.709" stroke="hsl(180.0,100%,35%)" stroke-width="0.01155"></path>
<path d="M1.227 0.221 Q1.278 0.270 1.386 0.256" stroke="hsl(180.0,100%,35%)" stroke-width="0.01155"></path>
<path d="M1.227 0.221 Q1.147 0.286 1.257 0.339" stroke="hsl(180.0,100%,35%)" stroke-width="0.01155"></path>
<path d="M1.261 0.032 Q1.146 -0.005 1.047 0.042" stroke="hsl(270.0,100%,35%)" stroke-width="0.01155"></path>
<path d="M1.261 0.032 Q1.032 0.018 0.953 0.126" stroke="hsl(270.0,100%,35%)" stroke-width="0.01155"></path>
<path d="M1.261 0.032 Q1.222 0.067 1.281 0.093" stroke="hsl(270.0,100%,35%)" stroke-width="0.01155"></path>
<path d="M1.465 0.513 Q1.352 0.534 1.367 0.594" stroke="hsl(0.0,100%,35%)" stroke-width="0.01155"></path>
<path d="M1.465 0.513 Q1.619 0.512 1.650 0.437" stroke="hsl(0.0,100%,35%)" stroke-width="0.01155"></path>
<path d="M1.465 0.513 Q0.658 0.556 0.563 0.959" stroke="hsl(0.0,100%,35%)" stroke-width="0.01155"></path>
<path d="M1.744 0.240 Q1.803 0.128 1.599 0.075" stroke="hsl(180.0,100%,35%)" stroke-width="0.01155"></path>
<path d="M1.744 0.240 Q1.078 -0.069 0.329 0.188" stroke="hsl(180.0,100%,35%)" stroke-width="0.01155"></path>
<path d="M1.744 0.240 Q1.500 0.127 1.227 0.221" stroke="hsl(180.0,100%,35%)" stroke-width="0.01155"></path>
<path d="M1.257 0.429 Q1.408 0.319 1.227 0.221" stroke="hsl(180.0,100%,35%)" stroke-width="0.02309"></path>
<path d="M1.257 0.429 Q1.329 0.384 1.257 0.339" stroke="hsl(180.0,100%,35%)" stroke-width="0.01155"></path>
<path d="M1.257 0.429 Q0.857 0.498 0.904 0.709" stroke="hsl(180.0,100%,35%)" stroke-width="0.01155"></path>
<path d="M1.257 0.429 Q0.725 0.509 0.764 0.786" stroke="hsl(180.0,100%,35%)" stroke-width="0.01155"></path>
<path d="M0.380 0.824 Q0.563 0.801 0.558 0.706" stroke="hsl(0.0,100%,35%)" stroke-width="0.01155"></path>
<path d="M0.380 0.824 Q0.596 0.998 0.983 0.931" stroke="hsl(0.0,100%,35%)" stroke-width="0.01155"></path>
<path d="M0.380 0.824 Q0.238 0.851 0.259 0.927" stroke="hsl(0.0,100%,35%)" stroke-width="0.01155"></path>
<path d="M0.380 0.824 Q0.635 0.674 0.398 0.516" stroke="hsl(0.0,100%,35%)" stroke-width="0.01155"></path>
</g>
<text x="0.744" y="0.870" font-size="0.040825" fill="hsl(0.0,100%,20%)">abotella</text>
<text x="0.563" y="0.941" font-size="0.036515" fill="hsl(0.0,100%,20%)">ikilpatrick</text>
<text x="0.983" y="0.918" font-size="0.025820" fill="hsl(0.0,100%,20%)">tkent</text>
<text x="0.764" y="0.773" font-size="0.025820" fill="hsl(0.0,100%,20%)">kojii</text>
<text x="0.977" y="0.550" font-size="0.036515" fill="hsl(90.0,100%,20%)">beaufort.francois</text>
<text x="0.660" y="0.483" font-size="0.025820" fill="hsl(0.0,100%,20%)">arthursonzogni</text>
<text x="0.710" y="0.593" font-size="0.018257" fill="hsl(90.0,100%,20%)">mattreynolds</text>
<text x="1.184" y="0.517" font-size="0.018257" fill="hsl(90.0,100%,20%)">yoavweiss</text>
<text x="0.353" y="0.348" font-size="0.031623" fill="hsl(0.0,100%,20%)">behamilton</text>
<text x="0.153" y="0.675" font-size="0.048305" fill="hsl(0.0,100%,20%)">dom</text>
<text x="0.050" y="0.465" font-size="0.018257" fill="hsl(0.0,100%,20%)">fmalita</text>
<text x="0.142" y="0.319" font-size="0.018257" fill="hsl(0.0,100%,20%)">morlovich</text>
<text x="0.329" y="0.166" font-size="0.044721" fill="hsl(180.0,100%,20%)">dbaron</text>
<text x="0.159" y="0.196" font-size="0.025820" fill="hsl(180.0,100%,20%)">sakhapov</text>
<text x="0.403" y="0.089" font-size="0.018257" fill="hsl(180.0,100%,20%)">andruud</text>
<text x="0.563" y="0.288" font-size="0.018257" fill="hsl(180.0,100%,20%)">dcheng</text>
<text x="0.609" y="0.066" font-size="0.018257" fill="hsl(180.0,100%,20%)">futhark</text>
<text x="0.942" y="0.305" font-size="0.054772" fill="hsl(0.0,100%,20%)">nrosenthal</text>
<text x="0.374" y="0.625" font-size="0.018257" fill="hsl(0.0,100%,20%)">japhet</text>
<text x="0.398" y="0.501" font-size="0.031623" fill="hsl(0.0,100%,20%)">masonf</text>
<text x="1.849" y="0.767" font-size="0.048305" fill="hsl(90.0,100%,20%)">jonathanjlee</text>
<text x="1.824" y="0.634" font-size="0.018257" fill="hsl(90.0,100%,20%)">finnur</text>
<text x="1.461" y="0.704" font-size="0.025820" fill="hsl(90.0,100%,20%)">mstensho</text>
<text x="1.932" y="0.599" font-size="0.018257" fill="hsl(90.0,100%,20%)">arichiv</text>
<text x="1.559" y="0.911" font-size="0.018257" fill="hsl(90.0,100%,20%)">chengweih</text>
<text x="1.461" y="0.812" font-size="0.018257" fill="hsl(90.0,100%,20%)">pdr</text>
<text x="1.122" y="0.738" font-size="0.036515" fill="hsl(180.0,100%,20%)">mingming1.xu</text>
<text x="0.904" y="0.693" font-size="0.031623" fill="hsl(180.0,100%,20%)">ajgo</text>
<text x="1.227" y="0.197" font-size="0.048305" fill="hsl(180.0,100%,20%)">ningxin.hu</text>
<text x="1.386" y="0.243" font-size="0.025820" fill="hsl(180.0,100%,20%)">rafael.cintron</text>
<text x="1.257" y="0.323" font-size="0.031623" fill="hsl(180.0,100%,20%)">weizhong</text>
<text x="1.029" y="0.430" font-size="0.025820" fill="hsl(0.0,100%,20%)">khushalsagar</text>
<text x="0.837" y="0.411" font-size="0.018257" fill="hsl(0.0,100%,20%)">mmocny</text>
<text x="0.756" y="0.216" font-size="0.018257" fill="hsl(0.0,100%,20%)">haraken</text>
<text x="1.169" y="0.335" font-size="0.018257" fill="hsl(0.0,100%,20%)">vmpstr</text>
<text x="1.261" y="0.016" font-size="0.031623" fill="hsl(270.0,100%,20%)">pkotwicz</text>
<text x="1.047" y="0.033" font-size="0.018257" fill="hsl(270.0,100%,20%)">kenrb</text>
<text x="0.953" y="0.117" font-size="0.018257" fill="hsl(270.0,100%,20%)">nsatragno</text>
<text x="1.281" y="0.084" font-size="0.018257" fill="hsl(270.0,100%,20%)">cbiesinger</text>
<text x="1.465" y="0.498" font-size="0.031623" fill="hsl(0.0,100%,20%)">samomekarajr</text>
<text x="1.367" y="0.585" font-size="0.018257" fill="hsl(0.0,100%,20%)">almaher</text>
<text x="1.650" y="0.428" font-size="0.018257" fill="hsl(0.0,100%,20%)">ethavar</text>
<text x="1.744" y="0.224" font-size="0.031623" fill="hsl(180.0,100%,20%)">shanxing.mei</text>
<text x="1.599" y="0.066" font-size="0.018257" fill="hsl(180.0,100%,20%)">asully</text>
<text x="1.257" y="0.409" font-size="0.040825" fill="hsl(180.0,100%,20%)">shiyi.zou</text>
<text x="0.380" y="0.806" font-size="0.036515" fill="hsl(0.0,100%,20%)">zhoupeng.1996</text>
<text x="0.558" y="0.697" font-size="0.018257" fill="hsl(0.0,100%,20%)">siliu</text>
<text x="0.259" y="0.918" font-size="0.018257" fill="hsl(0.0,100%,20%)">jarhar</text>
</svg>
