<svg width="4000" height="2000" viewBox="-0.025 -0.025 2.05 1.05" xmlns="http://www.w3.org/2000/svg">
  <style>
    path {
      fill: none;
      stroke-linecap: round;
      stroke-opacity: 0.4;
    }

    text {
      text-anchor: middle;
      alignment-baseline: hanging;
    }
  </style>
  <g opacity="0.4">
<path d="M0.667 0.726 Q0.593 0.657 0.443 0.679" stroke="hsl(0.0,100%,35%)" stroke-width="0.00572"></path>
<path d="M0.667 0.726 Q0.322 0.722 0.239 0.890" stroke="hsl(0.0,100%,35%)" stroke-width="0.04006"></path>
<path d="M0.667 0.726 Q0.473 0.849 0.671 0.971" stroke="hsl(0.0,100%,35%)" stroke-width="0.02289"></path>
<path d="M0.667 0.726 Q0.880 0.700 0.876 0.590" stroke="hsl(0.0,100%,35%)" stroke-width="0.01717"></path>
<path d="M0.443 0.679 Q0.323 0.870 0.671 0.971" stroke="hsl(0.0,100%,35%)" stroke-width="0.01145"></path>
<path d="M0.443 0.679 Q0.517 0.747 0.667 0.726" stroke="hsl(0.0,100%,35%)" stroke-width="0.00572"></path>
<path d="M0.443 0.679 Q0.172 0.744 0.239 0.890" stroke="hsl(0.0,100%,35%)" stroke-width="0.00572"></path>
<path d="M1.073 0.378 Q1.230 0.460 1.425 0.402" stroke="hsl(180.0,100%,35%)" stroke-width="0.00572"></path>
<path d="M1.073 0.378 Q0.805 0.665 1.307 0.858" stroke="hsl(180.0,100%,35%)" stroke-width="0.02862"></path>
<path d="M1.073 0.378 Q1.071 0.699 1.698 0.771" stroke="hsl(180.0,100%,35%)" stroke-width="0.00572"></path>
<path d="M1.307 0.858 Q1.575 0.571 1.073 0.378" stroke="hsl(180.0,100%,35%)" stroke-width="0.04006"></path>
<path d="M1.307 0.858 Q0.899 0.788 0.671 0.971" stroke="hsl(180.0,100%,35%)" stroke-width="0.01145"></path>
<path d="M1.307 0.858 Q1.414 0.741 1.208 0.663" stroke="hsl(180.0,100%,35%)" stroke-width="0.01145"></path>
<path d="M1.307 0.858 Q1.573 0.893 1.698 0.771" stroke="hsl(180.0,100%,35%)" stroke-width="0.04006"></path>
<path d="M1.387 0.582 Q1.125 0.704 1.307 0.858" stroke="hsl(180.0,100%,35%)" stroke-width="0.02862"></path>
<path d="M1.387 0.582 Q1.125 0.484 0.876 0.590" stroke="hsl(180.0,100%,35%)" stroke-width="0.00572"></path>
<path d="M1.387 0.582 Q0.718 0.633 0.671 0.971" stroke="hsl(180.0,100%,35%)" stroke-width="0.00572"></path>
<path d="M1.387 0.582 Q1.393 0.417 1.073 0.378" stroke="hsl(180.0,100%,35%)" stroke-width="0.02289"></path>
<path d="M1.613 0.422 Q1.379 0.292 1.073 0.378" stroke="hsl(180.0,100%,35%)" stroke-width="0.00572"></path>
<path d="M1.613 0.422 Q1.535 0.374 1.425 0.402" stroke="hsl(180.0,100%,35%)" stroke-width="0.00572"></path>
<path d="M1.613 0.422 Q1.111 0.579 1.307 0.858" stroke="hsl(180.0,100%,35%)" stroke-width="0.00572"></path>
<path d="M1.182 0.243 Q1.020 0.289 1.073 0.378" stroke="hsl(0.0,100%,35%)" stroke-width="0.01145"></path>
<path d="M1.182 0.243 Q0.344 0.505 0.671 0.971" stroke="hsl(0.0,100%,35%)" stroke-width="0.01145"></path>
<path d="M1.182 0.243 Q0.752 0.576 1.307 0.858" stroke="hsl(0.0,100%,35%)" stroke-width="0.00572"></path>
</g>
<text x="0.667" y="0.690" font-size="0.071270" fill="hsl(0.0,100%,20%)">aaronwood</text>
<text x="0.443" y="0.659" font-size="0.039841" fill="hsl(0.0,100%,20%)">paulfaria</text>
<text x="0.239" y="0.865" font-size="0.050395" fill="hsl(0.0,100%,20%)">tmandry</text>
<text x="0.671" y="0.941" font-size="0.059094" fill="hsl(0.0,100%,20%)">phosek</text>
<text x="0.876" y="0.572" font-size="0.035635" fill="hsl(0.0,100%,20%)">bwb</text>
<text x="1.073" y="0.337" font-size="0.081650" fill="hsl(180.0,100%,20%)">brettw</text>
<text x="1.425" y="0.389" font-size="0.025198" fill="hsl(180.0,100%,20%)">sdefresne</text>
<text x="1.307" y="0.810" font-size="0.097590" fill="hsl(180.0,100%,20%)">scottmg</text>
<text x="1.698" y="0.746" font-size="0.050395" fill="hsl(180.0,100%,20%)">thakis</text>
<text x="1.387" y="0.552" font-size="0.059094" fill="hsl(180.0,100%,20%)">digit</text>
<text x="1.613" y="0.407" font-size="0.030861" fill="hsl(180.0,100%,20%)">rsesek</text>
<text x="1.208" y="0.650" font-size="0.025198" fill="hsl(180.0,100%,20%)">dpranke</text>
<text x="1.182" y="0.223" font-size="0.039841" fill="hsl(0.0,100%,20%)">shayba</text>
</svg>
