<svg width="4000" height="2000" viewBox="-0.025 -0.025 2.05 1.05" xmlns="http://www.w3.org/2000/svg">
  <style>
    path {
      fill: none;
      stroke-linecap: round;
      stroke-opacity: 0.4;
    }

    text {
      text-anchor: middle;
      alignment-baseline: hanging;
    }
  </style>
  <g opacity="0.4">
<path d="M0.627 0.810 Q0.442 0.788 0.358 0.873" stroke="hsl(0.0,100%,35%)" stroke-width="0.00267"></path>
<path d="M0.627 0.810 Q0.624 0.909 0.818 0.933" stroke="hsl(0.0,100%,35%)" stroke-width="0.00400"></path>
<path d="M0.627 0.810 Q1.104 1.007 1.593 0.817" stroke="hsl(0.0,100%,35%)" stroke-width="0.00133"></path>
<path d="M1.593 0.817 Q1.681 0.397 0.882 0.262" stroke="hsl(120.0,100%,35%)" stroke-width="0.01734"></path>
<path d="M1.593 0.817 Q1.777 0.840 1.863 0.755" stroke="hsl(120.0,100%,35%)" stroke-width="0.02935"></path>
<path d="M1.593 0.817 Q1.482 0.361 0.569 0.315" stroke="hsl(120.0,100%,35%)" stroke-width="0.00667"></path>
<path d="M1.593 0.817 Q1.861 0.545 1.390 0.355" stroke="hsl(120.0,100%,35%)" stroke-width="0.00133"></path>
<path d="M1.593 0.817 Q1.925 0.369 1.124 0.109" stroke="hsl(120.0,100%,35%)" stroke-width="0.00400"></path>
<path d="M1.593 0.817 Q1.708 0.711 1.528 0.632" stroke="hsl(120.0,100%,35%)" stroke-width="0.00267"></path>
<path d="M1.593 0.817 Q1.650 0.460 0.966 0.354" stroke="hsl(120.0,100%,35%)" stroke-width="0.00133"></path>
<path d="M1.593 0.817 Q1.382 0.278 0.284 0.262" stroke="hsl(120.0,100%,35%)" stroke-width="0.00133"></path>
<path d="M1.593 0.817 Q1.701 0.550 1.205 0.439" stroke="hsl(120.0,100%,35%)" stroke-width="0.00133"></path>
<path d="M1.593 0.817 Q1.453 0.654 1.105 0.687" stroke="hsl(120.0,100%,35%)" stroke-width="0.00133"></path>
<path d="M1.593 0.817 Q1.648 0.724 1.477 0.676" stroke="hsl(120.0,100%,35%)" stroke-width="0.00133"></path>
<path d="M1.815 0.931 Q2.272 0.703 1.927 0.430" stroke="hsl(0.0,100%,35%)" stroke-width="0.00400"></path>
<path d="M1.815 0.931 Q1.911 0.738 1.556 0.649" stroke="hsl(0.0,100%,35%)" stroke-width="0.00400"></path>
<path d="M1.815 0.931 Q1.875 0.926 1.878 0.895" stroke="hsl(0.0,100%,35%)" stroke-width="0.00133"></path>
<path d="M1.815 0.931 Q1.883 0.410 0.882 0.262" stroke="hsl(0.0,100%,35%)" stroke-width="0.00267"></path>
<path d="M1.815 0.931 Q1.775 0.896 1.697 0.908" stroke="hsl(0.0,100%,35%)" stroke-width="0.00133"></path>
<path d="M1.815 0.931 Q1.980 0.853 1.863 0.755" stroke="hsl(0.0,100%,35%)" stroke-width="0.00133"></path>
<path d="M1.556 0.649 Q1.772 0.293 1.124 0.109" stroke="hsl(0.0,100%,35%)" stroke-width="0.00133"></path>
<path d="M1.556 0.649 Q1.609 0.586 1.498 0.547" stroke="hsl(0.0,100%,35%)" stroke-width="0.00133"></path>
<path d="M1.556 0.649 Q1.230 0.201 0.284 0.262" stroke="hsl(0.0,100%,35%)" stroke-width="0.00267"></path>
<path d="M1.556 0.649 Q1.917 0.614 1.927 0.430" stroke="hsl(0.0,100%,35%)" stroke-width="0.00133"></path>
<path d="M1.556 0.649 Q1.520 0.836 1.878 0.895" stroke="hsl(0.0,100%,35%)" stroke-width="0.00133"></path>
<path d="M0.882 0.262 Q0.902 0.415 1.205 0.439" stroke="hsl(120.0,100%,35%)" stroke-width="0.00667"></path>
<path d="M0.882 0.262 Q0.690 0.348 0.814 0.460" stroke="hsl(120.0,100%,35%)" stroke-width="0.00667"></path>
<path d="M0.882 0.262 Q1.011 0.330 1.171 0.282" stroke="hsl(120.0,100%,35%)" stroke-width="0.00133"></path>
<path d="M0.882 0.262 Q1.125 0.234 1.124 0.109" stroke="hsl(120.0,100%,35%)" stroke-width="0.01734"></path>
<path d="M0.882 0.262 Q0.683 0.226 0.569 0.315" stroke="hsl(120.0,100%,35%)" stroke-width="0.05737"></path>
<path d="M0.882 0.262 Q0.978 0.705 1.863 0.755" stroke="hsl(120.0,100%,35%)" stroke-width="0.00667"></path>
<path d="M0.882 0.262 Q0.693 0.321 0.766 0.425" stroke="hsl(120.0,100%,35%)" stroke-width="0.01868"></path>
<path d="M0.882 0.262 Q0.794 0.682 1.593 0.817" stroke="hsl(120.0,100%,35%)" stroke-width="0.01468"></path>
<path d="M0.882 0.262 Q0.851 0.325 0.966 0.354" stroke="hsl(120.0,100%,35%)" stroke-width="0.02001"></path>
<path d="M0.882 0.262 Q0.722 0.279 0.719 0.360" stroke="hsl(120.0,100%,35%)" stroke-width="0.00133"></path>
<path d="M0.882 0.262 Q1.061 0.354 1.278 0.286" stroke="hsl(120.0,100%,35%)" stroke-width="0.00133"></path>
<path d="M0.882 0.262 Q0.939 0.365 1.151 0.360" stroke="hsl(120.0,100%,35%)" stroke-width="0.00267"></path>
<path d="M0.882 0.262 Q0.878 0.358 1.063 0.380" stroke="hsl(120.0,100%,35%)" stroke-width="0.00133"></path>
<path d="M0.882 0.262 Q1.182 0.228 1.181 0.074" stroke="hsl(120.0,100%,35%)" stroke-width="0.00267"></path>
<path d="M0.882 0.262 Q0.717 0.608 1.355 0.764" stroke="hsl(120.0,100%,35%)" stroke-width="0.00267"></path>
<path d="M0.882 0.262 Q1.062 0.410 1.390 0.355" stroke="hsl(120.0,100%,35%)" stroke-width="0.00801"></path>
<path d="M0.882 0.262 Q1.270 0.555 1.927 0.430" stroke="hsl(120.0,100%,35%)" stroke-width="0.00534"></path>
<path d="M0.882 0.262 Q1.054 0.626 1.800 0.621" stroke="hsl(120.0,100%,35%)" stroke-width="0.00133"></path>
<path d="M0.882 0.262 Q0.844 0.332 0.972 0.366" stroke="hsl(120.0,100%,35%)" stroke-width="0.01601"></path>
<path d="M0.882 0.262 Q0.313 0.585 0.818 0.933" stroke="hsl(120.0,100%,35%)" stroke-width="0.00133"></path>
<path d="M0.882 0.262 Q1.084 0.265 1.134 0.167" stroke="hsl(120.0,100%,35%)" stroke-width="0.00801"></path>
<path d="M0.882 0.262 Q0.654 0.519 1.105 0.687" stroke="hsl(120.0,100%,35%)" stroke-width="0.00667"></path>
<path d="M0.882 0.262 Q1.101 0.347 1.314 0.258" stroke="hsl(120.0,100%,35%)" stroke-width="0.00133"></path>
<path d="M0.882 0.262 Q0.989 0.333 1.150 0.296" stroke="hsl(120.0,100%,35%)" stroke-width="0.00400"></path>
<path d="M0.882 0.262 Q1.004 0.305 1.113 0.254" stroke="hsl(120.0,100%,35%)" stroke-width="0.00267"></path>
<path d="M0.882 0.262 Q1.074 0.267 1.126 0.175" stroke="hsl(120.0,100%,35%)" stroke-width="0.00400"></path>
<path d="M0.882 0.262 Q0.941 0.359 1.142 0.351" stroke="hsl(120.0,100%,35%)" stroke-width="0.00267"></path>
<path d="M1.863 0.755 Q1.766 0.312 0.882 0.262" stroke="hsl(120.0,100%,35%)" stroke-width="0.01734"></path>
<path d="M1.863 0.755 Q1.539 0.569 1.105 0.687" stroke="hsl(120.0,100%,35%)" stroke-width="0.00534"></path>
<path d="M1.863 0.755 Q1.784 0.800 1.854 0.849" stroke="hsl(120.0,100%,35%)" stroke-width="0.00133"></path>
<path d="M1.863 0.755 Q1.837 0.792 1.903 0.813" stroke="hsl(120.0,100%,35%)" stroke-width="0.00133"></path>
<path d="M1.863 0.755 Q1.921 0.645 1.720 0.593" stroke="hsl(120.0,100%,35%)" stroke-width="0.00133"></path>
<path d="M1.863 0.755 Q1.678 0.732 1.593 0.817" stroke="hsl(120.0,100%,35%)" stroke-width="0.04136"></path>
<path d="M1.863 0.755 Q2.010 0.284 1.124 0.109" stroke="hsl(120.0,100%,35%)" stroke-width="0.00667"></path>
<path d="M1.863 0.755 Q1.607 0.329 0.719 0.360" stroke="hsl(120.0,100%,35%)" stroke-width="0.00133"></path>
<path d="M1.863 0.755 Q1.736 0.375 0.966 0.354" stroke="hsl(120.0,100%,35%)" stroke-width="0.00133"></path>
<path d="M1.863 0.755 Q1.974 0.692 1.877 0.624" stroke="hsl(120.0,100%,35%)" stroke-width="0.00133"></path>
<path d="M1.863 0.755 Q2.155 0.605 1.927 0.430" stroke="hsl(120.0,100%,35%)" stroke-width="0.00133"></path>
<path d="M1.863 0.755 Q1.938 0.676 1.800 0.621" stroke="hsl(120.0,100%,35%)" stroke-width="0.00133"></path>
<path d="M1.863 0.755 Q1.798 0.810 1.892 0.854" stroke="hsl(120.0,100%,35%)" stroke-width="0.00133"></path>
<path d="M1.863 0.755 Q2.067 0.278 1.181 0.074" stroke="hsl(120.0,100%,35%)" stroke-width="0.00133"></path>
<path d="M1.863 0.755 Q1.568 0.276 0.569 0.315" stroke="hsl(120.0,100%,35%)" stroke-width="0.00133"></path>
<path d="M1.372 0.328 Q0.991 0.256 0.766 0.425" stroke="hsl(0.0,100%,35%)" stroke-width="0.00133"></path>
<path d="M1.372 0.328 Q1.179 0.197 0.882 0.262" stroke="hsl(0.0,100%,35%)" stroke-width="0.00133"></path>
<path d="M1.372 0.328 Q1.480 0.163 1.181 0.074" stroke="hsl(0.0,100%,35%)" stroke-width="0.00133"></path>
<path d="M1.372 0.328 Q0.611 0.519 0.818 0.933" stroke="hsl(0.0,100%,35%)" stroke-width="0.00133"></path>
<path d="M1.372 0.328 Q0.952 0.454 1.105 0.687" stroke="hsl(0.0,100%,35%)" stroke-width="0.00133"></path>
<path d="M1.372 0.328 Q1.141 0.267 0.972 0.366" stroke="hsl(0.0,100%,35%)" stroke-width="0.00133"></path>
<path d="M1.372 0.328 Q1.360 0.345 1.390 0.355" stroke="hsl(0.0,100%,35%)" stroke-width="0.00133"></path>
<path d="M1.372 0.328 Q1.211 0.695 1.892 0.854" stroke="hsl(0.0,100%,35%)" stroke-width="0.00133"></path>
<path d="M0.766 0.425 Q0.733 0.489 0.851 0.519" stroke="hsl(120.0,100%,35%)" stroke-width="0.00133"></path>
<path d="M0.766 0.425 Q0.954 0.367 0.882 0.262" stroke="hsl(120.0,100%,35%)" stroke-width="0.01601"></path>
<path d="M0.766 0.425 Q0.594 0.281 0.275 0.334" stroke="hsl(120.0,100%,35%)" stroke-width="0.00133"></path>
<path d="M0.766 0.425 Q1.198 0.339 1.124 0.109" stroke="hsl(120.0,100%,35%)" stroke-width="0.00133"></path>
<path d="M0.766 0.425 Q0.866 0.787 1.593 0.817" stroke="hsl(120.0,100%,35%)" stroke-width="0.00133"></path>
<path d="M0.766 0.425 Q0.875 0.503 1.050 0.467" stroke="hsl(120.0,100%,35%)" stroke-width="0.00133"></path>
<path d="M0.766 0.425 Q0.975 0.520 1.205 0.439" stroke="hsl(120.0,100%,35%)" stroke-width="0.00133"></path>
<path d="M1.105 0.687 Q1.244 0.849 1.593 0.817" stroke="hsl(120.0,100%,35%)" stroke-width="0.00267"></path>
<path d="M1.105 0.687 Q1.144 0.488 0.766 0.425" stroke="hsl(120.0,100%,35%)" stroke-width="0.00133"></path>
<path d="M1.105 0.687 Q1.159 0.615 1.031 0.573" stroke="hsl(120.0,100%,35%)" stroke-width="0.00133"></path>
<path d="M1.105 0.687 Q1.168 0.776 1.355 0.764" stroke="hsl(120.0,100%,35%)" stroke-width="0.00133"></path>
<path d="M0.972 0.366 Q1.010 0.296 0.882 0.262" stroke="hsl(120.0,100%,35%)" stroke-width="0.00934"></path>
<path d="M0.972 0.366 Q0.753 0.356 0.686 0.461" stroke="hsl(120.0,100%,35%)" stroke-width="0.00133"></path>
<path d="M0.972 0.366 Q0.845 0.642 1.355 0.764" stroke="hsl(120.0,100%,35%)" stroke-width="0.00133"></path>
<path d="M0.972 0.366 Q0.822 0.355 0.766 0.425" stroke="hsl(120.0,100%,35%)" stroke-width="0.00400"></path>
<path d="M0.972 0.366 Q1.254 0.268 1.124 0.109" stroke="hsl(120.0,100%,35%)" stroke-width="0.00133"></path>
<path d="M0.972 0.366 Q0.811 0.260 0.569 0.315" stroke="hsl(120.0,100%,35%)" stroke-width="0.00133"></path>
<path d="M1.205 0.439 Q1.184 0.286 0.882 0.262" stroke="hsl(120.0,100%,35%)" stroke-width="0.01468"></path>
<path d="M1.205 0.439 Q1.387 0.289 1.134 0.167" stroke="hsl(120.0,100%,35%)" stroke-width="0.00400"></path>
<path d="M1.205 0.439 Q1.097 0.706 1.593 0.817" stroke="hsl(120.0,100%,35%)" stroke-width="0.00267"></path>
<path d="M1.205 0.439 Q0.996 0.344 0.766 0.425" stroke="hsl(120.0,100%,35%)" stroke-width="0.00267"></path>
<path d="M1.205 0.439 Q1.242 0.476 1.322 0.466" stroke="hsl(120.0,100%,35%)" stroke-width="0.00133"></path>
<path d="M1.205 0.439 Q1.146 0.356 0.972 0.366" stroke="hsl(120.0,100%,35%)" stroke-width="0.00133"></path>
<path d="M1.134 0.167 Q0.952 0.317 1.205 0.439" stroke="hsl(120.0,100%,35%)" stroke-width="0.00267"></path>
<path d="M1.134 0.167 Q0.828 0.294 1.009 0.471" stroke="hsl(120.0,100%,35%)" stroke-width="0.00133"></path>
<path d="M1.134 0.167 Q0.743 0.222 0.766 0.425" stroke="hsl(120.0,100%,35%)" stroke-width="0.00133"></path>
<path d="M1.134 0.167 Q0.931 0.164 0.882 0.262" stroke="hsl(120.0,100%,35%)" stroke-width="0.00267"></path>
<path d="M1.322 0.466 Q1.468 0.279 1.134 0.167" stroke="hsl(120.0,100%,35%)" stroke-width="0.00267"></path>
<path d="M1.322 0.466 Q1.285 0.429 1.205 0.439" stroke="hsl(120.0,100%,35%)" stroke-width="0.00267"></path>
<path d="M1.322 0.466 Q1.265 0.276 0.882 0.262" stroke="hsl(120.0,100%,35%)" stroke-width="0.00267"></path>
<path d="M1.322 0.466 Q1.076 0.334 0.766 0.425" stroke="hsl(120.0,100%,35%)" stroke-width="0.00133"></path>
<path d="M1.701 0.455 Q1.258 0.253 0.766 0.425" stroke="hsl(0.0,100%,35%)" stroke-width="0.00133"></path>
<path d="M1.701 0.455 Q1.834 0.488 1.927 0.430" stroke="hsl(0.0,100%,35%)" stroke-width="0.02001"></path>
<path d="M1.701 0.455 Q1.725 0.364 1.552 0.333" stroke="hsl(0.0,100%,35%)" stroke-width="0.00267"></path>
<path d="M1.701 0.455 Q1.592 0.468 1.592 0.524" stroke="hsl(0.0,100%,35%)" stroke-width="0.00133"></path>
<path d="M1.701 0.455 Q1.086 0.109 0.275 0.334" stroke="hsl(0.0,100%,35%)" stroke-width="0.00133"></path>
<path d="M1.701 0.455 Q1.695 0.537 1.852 0.558" stroke="hsl(0.0,100%,35%)" stroke-width="0.00133"></path>
<path d="M1.701 0.455 Q1.579 0.428 1.498 0.481" stroke="hsl(0.0,100%,35%)" stroke-width="0.00133"></path>
<path d="M1.701 0.455 Q1.446 0.195 0.882 0.262" stroke="hsl(0.0,100%,35%)" stroke-width="0.00133"></path>
<path d="M1.701 0.455 Q1.626 0.343 1.390 0.355" stroke="hsl(0.0,100%,35%)" stroke-width="0.00133"></path>
<path d="M1.701 0.455 Q1.218 0.452 1.105 0.687" stroke="hsl(0.0,100%,35%)" stroke-width="0.00133"></path>
<path d="M0.814 0.460 Q0.778 0.631 1.105 0.687" stroke="hsl(120.0,100%,35%)" stroke-width="0.00801"></path>
<path d="M0.814 0.460 Q1.006 0.375 0.882 0.262" stroke="hsl(120.0,100%,35%)" stroke-width="0.02268"></path>
<path d="M0.814 0.460 Q0.807 0.339 0.569 0.315" stroke="hsl(120.0,100%,35%)" stroke-width="0.00534"></path>
<path d="M0.814 0.460 Q1.102 0.817 1.863 0.755" stroke="hsl(120.0,100%,35%)" stroke-width="0.00267"></path>
<path d="M0.814 0.460 Q1.209 0.377 1.134 0.167" stroke="hsl(120.0,100%,35%)" stroke-width="0.00667"></path>
<path d="M1.171 0.282 Q0.954 0.634 1.593 0.817" stroke="hsl(120.0,100%,35%)" stroke-width="0.00267"></path>
<path d="M1.171 0.282 Q1.042 0.214 0.882 0.262" stroke="hsl(120.0,100%,35%)" stroke-width="0.02001"></path>
<path d="M1.171 0.282 Q0.814 0.471 1.105 0.687" stroke="hsl(120.0,100%,35%)" stroke-width="0.00267"></path>
<path d="M1.171 0.282 Q1.038 0.310 1.063 0.380" stroke="hsl(120.0,100%,35%)" stroke-width="0.00400"></path>
<path d="M1.171 0.282 Q1.343 0.180 1.181 0.074" stroke="hsl(120.0,100%,35%)" stroke-width="0.00133"></path>
<path d="M1.171 0.282 Q0.920 0.392 1.080 0.539" stroke="hsl(120.0,100%,35%)" stroke-width="0.00133"></path>
<path d="M1.171 0.282 Q0.474 0.537 0.818 0.933" stroke="hsl(120.0,100%,35%)" stroke-width="0.00267"></path>
<path d="M1.171 0.282 Q1.118 0.286 1.116 0.313" stroke="hsl(120.0,100%,35%)" stroke-width="0.00133"></path>
<path d="M1.171 0.282 Q1.138 0.657 1.863 0.755" stroke="hsl(120.0,100%,35%)" stroke-width="0.00133"></path>
<path d="M1.171 0.282 Q0.854 0.273 0.766 0.425" stroke="hsl(120.0,100%,35%)" stroke-width="0.00534"></path>
<path d="M1.171 0.282 Q1.222 0.362 1.390 0.355" stroke="hsl(120.0,100%,35%)" stroke-width="0.00133"></path>
<path d="M1.124 0.109 Q0.692 0.196 0.766 0.425" stroke="hsl(120.0,100%,35%)" stroke-width="0.00267"></path>
<path d="M1.124 0.109 Q0.803 0.033 0.583 0.172" stroke="hsl(120.0,100%,35%)" stroke-width="0.00133"></path>
<path d="M1.124 0.109 Q0.880 0.137 0.882 0.262" stroke="hsl(120.0,100%,35%)" stroke-width="0.00667"></path>
<path d="M1.124 0.109 Q0.582 0.018 0.284 0.262" stroke="hsl(120.0,100%,35%)" stroke-width="0.00133"></path>
<path d="M1.124 0.109 Q0.977 0.580 1.863 0.755" stroke="hsl(120.0,100%,35%)" stroke-width="0.00133"></path>
<path d="M0.569 0.315 Q0.788 0.504 1.205 0.439" stroke="hsl(120.0,100%,35%)" stroke-width="0.00133"></path>
<path d="M0.569 0.315 Q0.579 0.410 0.766 0.425" stroke="hsl(120.0,100%,35%)" stroke-width="0.03602"></path>
<path d="M0.569 0.315 Q0.767 0.351 0.882 0.262" stroke="hsl(120.0,100%,35%)" stroke-width="0.04670"></path>
<path d="M0.569 0.315 Q0.540 0.608 1.105 0.687" stroke="hsl(120.0,100%,35%)" stroke-width="0.00133"></path>
<path d="M0.569 0.315 Q0.676 0.307 0.684 0.253" stroke="hsl(120.0,100%,35%)" stroke-width="0.00267"></path>
<path d="M0.569 0.315 Q0.679 0.771 1.593 0.817" stroke="hsl(120.0,100%,35%)" stroke-width="0.03869"></path>
<path d="M0.569 0.315 Q0.864 0.794 1.863 0.755" stroke="hsl(120.0,100%,35%)" stroke-width="0.01201"></path>
<path d="M0.569 0.315 Q0.608 0.368 0.719 0.360" stroke="hsl(120.0,100%,35%)" stroke-width="0.00133"></path>
<path d="M0.569 0.315 Q1.011 0.323 1.124 0.109" stroke="hsl(120.0,100%,35%)" stroke-width="0.00400"></path>
<path d="M0.569 0.315 Q0.690 0.247 0.583 0.172" stroke="hsl(120.0,100%,35%)" stroke-width="0.00133"></path>
<path d="M0.569 0.315 Q0.642 0.346 0.719 0.317" stroke="hsl(120.0,100%,35%)" stroke-width="0.00133"></path>
<path d="M0.569 0.315 Q0.688 0.487 1.050 0.467" stroke="hsl(120.0,100%,35%)" stroke-width="0.00133"></path>
<path d="M0.569 0.315 Q0.376 0.589 0.868 0.743" stroke="hsl(120.0,100%,35%)" stroke-width="0.00133"></path>
<path d="M0.569 0.315 Q0.411 0.317 0.378 0.394" stroke="hsl(120.0,100%,35%)" stroke-width="0.00133"></path>
<path d="M0.569 0.315 Q0.469 0.232 0.284 0.262" stroke="hsl(120.0,100%,35%)" stroke-width="0.00133"></path>
<path d="M0.569 0.315 Q0.970 0.354 1.134 0.167" stroke="hsl(120.0,100%,35%)" stroke-width="0.00267"></path>
<path d="M0.569 0.315 Q0.659 0.837 1.697 0.908" stroke="hsl(120.0,100%,35%)" stroke-width="0.00133"></path>
<path d="M0.569 0.315 Q1.046 0.521 1.552 0.333" stroke="hsl(120.0,100%,35%)" stroke-width="0.00133"></path>
<path d="M0.569 0.315 Q0.729 0.422 0.972 0.366" stroke="hsl(120.0,100%,35%)" stroke-width="0.00133"></path>
<path d="M0.569 0.315 Q0.585 0.350 0.655 0.349" stroke="hsl(120.0,100%,35%)" stroke-width="0.00133"></path>
<path d="M0.569 0.315 Q1.068 0.317 1.181 0.074" stroke="hsl(120.0,100%,35%)" stroke-width="0.00133"></path>
<path d="M1.355 0.764 Q1.321 0.383 0.569 0.315" stroke="hsl(120.0,100%,35%)" stroke-width="0.00534"></path>
<path d="M1.355 0.764 Q1.332 0.477 0.766 0.425" stroke="hsl(120.0,100%,35%)" stroke-width="0.00133"></path>
<path d="M1.355 0.764 Q1.432 0.838 1.593 0.817" stroke="hsl(120.0,100%,35%)" stroke-width="0.00400"></path>
<path d="M1.355 0.764 Q1.456 0.706 1.364 0.644" stroke="hsl(120.0,100%,35%)" stroke-width="0.00133"></path>
<path d="M1.355 0.764 Q1.520 0.419 0.882 0.262" stroke="hsl(120.0,100%,35%)" stroke-width="0.00133"></path>
<path d="M1.355 0.764 Q1.292 0.675 1.105 0.687" stroke="hsl(120.0,100%,35%)" stroke-width="0.00133"></path>
<path d="M1.314 0.258 Q1.115 0.327 1.205 0.439" stroke="hsl(120.0,100%,35%)" stroke-width="0.00133"></path>
<path d="M1.314 0.258 Q1.094 0.174 0.882 0.262" stroke="hsl(120.0,100%,35%)" stroke-width="0.00267"></path>
<path d="M1.314 0.258 Q0.867 0.430 1.105 0.687" stroke="hsl(120.0,100%,35%)" stroke-width="0.00133"></path>
<path d="M0.284 0.262 Q-0.167 0.582 0.358 0.873" stroke="hsl(120.0,100%,35%)" stroke-width="0.00133"></path>
<path d="M0.284 0.262 Q0.223 0.296 0.275 0.334" stroke="hsl(120.0,100%,35%)" stroke-width="0.00133"></path>
<path d="M0.284 0.262 Q0.418 0.728 1.355 0.764" stroke="hsl(120.0,100%,35%)" stroke-width="0.00133"></path>
<path d="M1.453 0.509 Q1.364 0.271 0.882 0.262" stroke="hsl(120.0,100%,35%)" stroke-width="0.00133"></path>
<path d="M1.453 0.509 Q1.545 0.419 1.390 0.355" stroke="hsl(120.0,100%,35%)" stroke-width="0.00267"></path>
<path d="M1.453 0.509 Q1.176 0.330 0.766 0.425" stroke="hsl(120.0,100%,35%)" stroke-width="0.00133"></path>
<path d="M1.453 0.509 Q1.385 0.424 1.205 0.439" stroke="hsl(120.0,100%,35%)" stroke-width="0.00133"></path>
<path d="M0.140 0.323 Q0.261 0.322 0.284 0.262" stroke="hsl(120.0,100%,35%)" stroke-width="0.00267"></path>
<path d="M0.140 0.323 Q0.250 0.254 0.138 0.185" stroke="hsl(120.0,100%,35%)" stroke-width="0.00133"></path>
<path d="M0.140 0.323 Q0.861 0.407 1.181 0.074" stroke="hsl(120.0,100%,35%)" stroke-width="0.00267"></path>
<path d="M0.592 0.102 Q0.608 0.240 0.882 0.262" stroke="hsl(240.0,100%,35%)" stroke-width="0.00133"></path>
<path d="M0.592 0.102 Q0.737 0.114 0.794 0.046" stroke="hsl(240.0,100%,35%)" stroke-width="0.00133"></path>
<path d="M0.592 0.102 Q0.606 0.063 0.533 0.048" stroke="hsl(240.0,100%,35%)" stroke-width="0.00133"></path>
<path d="M1.433 0.375 Q1.427 0.356 1.390 0.355" stroke="hsl(120.0,100%,35%)" stroke-width="0.00133"></path>
<path d="M1.433 0.375 Q1.059 0.267 0.766 0.425" stroke="hsl(120.0,100%,35%)" stroke-width="0.00133"></path>
<path d="M1.433 0.375 Q1.262 0.303 1.085 0.371" stroke="hsl(120.0,100%,35%)" stroke-width="0.00133"></path>
<path d="M1.085 0.371 Q1.070 0.276 0.882 0.262" stroke="hsl(120.0,100%,35%)" stroke-width="0.00400"></path>
<path d="M1.085 0.371 Q0.882 0.334 0.766 0.425" stroke="hsl(120.0,100%,35%)" stroke-width="0.00534"></path>
<path d="M1.085 0.371 Q1.032 0.346 0.972 0.366" stroke="hsl(120.0,100%,35%)" stroke-width="0.00133"></path>
<path d="M1.085 0.371 Q1.314 0.248 1.124 0.109" stroke="hsl(120.0,100%,35%)" stroke-width="0.00133"></path>
<path d="M1.270 0.337 Q1.048 0.641 1.593 0.817" stroke="hsl(120.0,100%,35%)" stroke-width="0.00133"></path>
<path d="M1.270 0.337 Q1.338 0.225 1.134 0.167" stroke="hsl(120.0,100%,35%)" stroke-width="0.00133"></path>
<path d="M1.270 0.337 Q0.971 0.568 1.355 0.764" stroke="hsl(120.0,100%,35%)" stroke-width="0.00133"></path>
<path d="M1.205 0.529 Q1.278 0.484 1.205 0.439" stroke="hsl(120.0,100%,35%)" stroke-width="0.00267"></path>
<path d="M1.205 0.529 Q1.257 0.331 0.882 0.262" stroke="hsl(120.0,100%,35%)" stroke-width="0.00133"></path>
<path d="M1.205 0.529 Q1.029 0.588 1.105 0.687" stroke="hsl(120.0,100%,35%)" stroke-width="0.00133"></path>
<path d="M0.832 0.625 Q1.116 0.516 0.966 0.354" stroke="hsl(120.0,100%,35%)" stroke-width="0.00133"></path>
<path d="M0.832 0.625 Q0.756 0.691 0.868 0.743" stroke="hsl(120.0,100%,35%)" stroke-width="0.00133"></path>
<path d="M0.832 0.625 Q1.327 0.601 1.390 0.355" stroke="hsl(120.0,100%,35%)" stroke-width="0.00267"></path>
<path d="M0.832 0.625 Q0.745 0.613 0.703 0.653" stroke="hsl(120.0,100%,35%)" stroke-width="0.00133"></path>
<path d="M0.257 0.077 Q0.282 0.133 0.397 0.134" stroke="hsl(0.0,100%,35%)" stroke-width="0.00133"></path>
<path d="M0.257 0.077 Q0.167 0.086 0.164 0.132" stroke="hsl(0.0,100%,35%)" stroke-width="0.00400"></path>
<path d="M0.257 0.077 Q0.788 0.312 1.364 0.105" stroke="hsl(0.0,100%,35%)" stroke-width="0.00133"></path>
<path d="M1.364 0.105 Q1.240 0.059 1.124 0.109" stroke="hsl(0.0,100%,35%)" stroke-width="0.00400"></path>
<path d="M1.364 0.105 Q1.526 0.145 1.641 0.074" stroke="hsl(0.0,100%,35%)" stroke-width="0.00133"></path>
<path d="M1.364 0.105 Q1.017 0.240 1.205 0.439" stroke="hsl(0.0,100%,35%)" stroke-width="0.00133"></path>
<path d="M1.364 0.105 Q1.408 0.178 1.560 0.172" stroke="hsl(0.0,100%,35%)" stroke-width="0.00133"></path>
<path d="M1.364 0.105 Q1.367 0.054 1.270 0.042" stroke="hsl(0.0,100%,35%)" stroke-width="0.00133"></path>
<path d="M0.903 0.344 Q0.957 0.299 0.882 0.262" stroke="hsl(120.0,100%,35%)" stroke-width="0.03469"></path>
<path d="M0.903 0.344 Q0.729 0.556 1.105 0.687" stroke="hsl(120.0,100%,35%)" stroke-width="0.00133"></path>
<path d="M0.903 0.344 Q0.866 0.255 0.684 0.253" stroke="hsl(120.0,100%,35%)" stroke-width="0.00267"></path>
<path d="M0.903 0.344 Q1.201 0.271 1.124 0.109" stroke="hsl(120.0,100%,35%)" stroke-width="0.00133"></path>
<path d="M0.903 0.344 Q1.014 0.401 1.151 0.360" stroke="hsl(120.0,100%,35%)" stroke-width="0.00133"></path>
<path d="M0.903 0.344 Q1.138 0.447 1.390 0.355" stroke="hsl(120.0,100%,35%)" stroke-width="0.00133"></path>
<path d="M0.225 0.519 Q0.008 0.722 0.358 0.873" stroke="hsl(120.0,100%,35%)" stroke-width="0.00133"></path>
<path d="M0.225 0.519 Q0.338 0.499 0.324 0.439" stroke="hsl(120.0,100%,35%)" stroke-width="0.00133"></path>
<path d="M0.225 0.519 Q1.002 0.494 1.124 0.109" stroke="hsl(120.0,100%,35%)" stroke-width="0.00133"></path>
<path d="M1.551 0.340 Q1.459 0.315 1.390 0.355" stroke="hsl(120.0,100%,35%)" stroke-width="0.00133"></path>
<path d="M1.551 0.340 Q1.408 0.235 1.171 0.282" stroke="hsl(120.0,100%,35%)" stroke-width="0.00133"></path>
<path d="M1.551 0.340 Q1.667 0.460 1.927 0.430" stroke="hsl(120.0,100%,35%)" stroke-width="0.00133"></path>
<path d="M1.913 0.294 Q1.861 0.207 1.678 0.213" stroke="hsl(0.0,100%,35%)" stroke-width="0.00133"></path>
<path d="M1.913 0.294 Q1.626 0.075 1.134 0.167" stroke="hsl(0.0,100%,35%)" stroke-width="0.00133"></path>
<path d="M1.913 0.294 Q1.838 0.253 1.740 0.280" stroke="hsl(0.0,100%,35%)" stroke-width="0.00133"></path>
<path d="M1.913 0.294 Q1.701 0.241 1.552 0.333" stroke="hsl(0.0,100%,35%)" stroke-width="0.00133"></path>
</g>
<text x="0.627" y="0.803" font-size="0.012955" fill="hsl(0.0,100%,20%)">ajgo</text>
<text x="0.358" y="0.868" font-size="0.010578" fill="hsl(0.0,100%,20%)">brucedawson</text>
<text x="0.818" y="0.926" font-size="0.013993" fill="hsl(0.0,100%,20%)">wfh</text>
<text x="1.593" y="0.786" font-size="0.061223" fill="hsl(120.0,100%,20%)">tasak</text>
<text x="1.815" y="0.922" font-size="0.017541" fill="hsl(0.0,100%,20%)">ajuma</text>
<text x="1.927" y="0.417" font-size="0.026444" fill="hsl(0.0,100%,20%)">mark</text>
<text x="1.556" y="0.641" font-size="0.015867" fill="hsl(0.0,100%,20%)">vollick</text>
<text x="1.878" y="0.892" font-size="0.007480" fill="hsl(0.0,100%,20%)">anthonyvd</text>
<text x="0.882" y="0.214" font-size="0.097234" fill="hsl(120.0,100%,20%)">bartekn</text>
<text x="1.697" y="0.904" font-size="0.007480" fill="hsl(0.0,100%,20%)">gab</text>
<text x="1.863" y="0.728" font-size="0.054195" fill="hsl(120.0,100%,20%)">yukishiino</text>
<text x="1.372" y="0.321" font-size="0.014959" fill="hsl(0.0,100%,20%)">andre.kempe</text>
<text x="0.766" y="0.401" font-size="0.047893" fill="hsl(120.0,100%,20%)">keishi</text>
<text x="1.181" y="0.066" font-size="0.014959" fill="hsl(0.0,100%,20%)">mpdenton</text>
<text x="1.105" y="0.672" font-size="0.028968" fill="hsl(120.0,100%,20%)">dcheng</text>
<text x="0.972" y="0.352" font-size="0.028968" fill="hsl(120.0,100%,20%)">glazunov</text>
<text x="1.390" y="0.344" font-size="0.021807" fill="hsl(120.0,100%,20%)">haraken</text>
<text x="1.892" y="0.850" font-size="0.007480" fill="hsl(0.0,100%,20%)">joenotcharles</text>
<text x="1.205" y="0.423" font-size="0.032171" fill="hsl(120.0,100%,20%)">arthursonzogni</text>
<text x="1.134" y="0.153" font-size="0.026968" fill="hsl(120.0,100%,20%)">danakj</text>
<text x="1.322" y="0.458" font-size="0.014959" fill="hsl(120.0,100%,20%)">pmeuleman</text>
<text x="1.701" y="0.442" font-size="0.026444" fill="hsl(0.0,100%,20%)">avi</text>
<text x="1.552" y="0.328" font-size="0.010578" fill="hsl(0.0,100%,20%)">sdefresne</text>
<text x="1.592" y="0.521" font-size="0.005289" fill="hsl(0.0,100%,20%)">robertogden</text>
<text x="0.275" y="0.329" font-size="0.009161" fill="hsl(120.0,100%,20%)">rsesek</text>
<text x="1.852" y="0.555" font-size="0.005289" fill="hsl(0.0,100%,20%)">senorblanco</text>
<text x="1.498" y="0.479" font-size="0.005289" fill="hsl(0.0,100%,20%)">zmo</text>
<text x="0.814" y="0.443" font-size="0.033029" fill="hsl(120.0,100%,20%)">tsepez</text>
<text x="1.171" y="0.266" font-size="0.031289" fill="hsl(120.0,100%,20%)">mikt</text>
<text x="1.124" y="0.092" font-size="0.034681" fill="hsl(120.0,100%,20%)">lizeb</text>
<text x="0.569" y="0.280" font-size="0.070760" fill="hsl(120.0,100%,20%)">kdlee</text>
<text x="0.966" y="0.342" font-size="0.022439" fill="hsl(120.0,100%,20%)">bikineev</text>
<text x="0.719" y="0.355" font-size="0.009161" fill="hsl(120.0,100%,20%)">thiabaud</text>
<text x="1.278" y="0.283" font-size="0.005289" fill="hsl(120.0,100%,20%)">junov</text>
<text x="1.151" y="0.355" font-size="0.009161" fill="hsl(120.0,100%,20%)">ssid</text>
<text x="1.063" y="0.375" font-size="0.010578" fill="hsl(120.0,100%,20%)">mlippautz</text>
<text x="1.355" y="0.753" font-size="0.021807" fill="hsl(120.0,100%,20%)">thestig</text>
<text x="1.800" y="0.618" font-size="0.007480" fill="hsl(120.0,100%,20%)">erikchen</text>
<text x="1.314" y="0.252" font-size="0.011826" fill="hsl(120.0,100%,20%)">paulsemel</text>
<text x="1.150" y="0.291" font-size="0.009161" fill="hsl(120.0,100%,20%)">altimin</text>
<text x="1.113" y="0.251" font-size="0.007480" fill="hsl(120.0,100%,20%)">bgeffon</text>
<text x="1.126" y="0.170" font-size="0.009161" fill="hsl(120.0,100%,20%)">gbeaty</text>
<text x="1.142" y="0.347" font-size="0.007480" fill="hsl(120.0,100%,20%)">jochen</text>
<text x="1.009" y="0.468" font-size="0.005289" fill="hsl(120.0,100%,20%)">janagrill</text>
<text x="1.031" y="0.570" font-size="0.005289" fill="hsl(120.0,100%,20%)">dtseng</text>
<text x="0.284" y="0.254" font-size="0.016725" fill="hsl(120.0,100%,20%)">fdoray</text>
<text x="0.686" y="0.458" font-size="0.005289" fill="hsl(120.0,100%,20%)">hashimoto</text>
<text x="1.453" y="0.503" font-size="0.011826" fill="hsl(120.0,100%,20%)">jdapena</text>
<text x="0.140" y="0.317" font-size="0.011826" fill="hsl(120.0,100%,20%)">jkoshy</text>
<text x="0.138" y="0.182" font-size="0.005289" fill="hsl(0.0,100%,20%)">anasalazar</text>
<text x="0.684" y="0.248" font-size="0.010578" fill="hsl(120.0,100%,20%)">leszeks</text>
<text x="0.583" y="0.169" font-size="0.007480" fill="hsl(0.0,100%,20%)">pasko</text>
<text x="0.719" y="0.315" font-size="0.005289" fill="hsl(120.0,100%,20%)">rogerm</text>
<text x="1.050" y="0.463" font-size="0.007480" fill="hsl(120.0,100%,20%)">tkent</text>
<text x="0.868" y="0.739" font-size="0.007480" fill="hsl(120.0,100%,20%)">kylechar</text>
<text x="0.378" y="0.391" font-size="0.005289" fill="hsl(120.0,100%,20%)">danilchap</text>
<text x="0.655" y="0.347" font-size="0.005289" fill="hsl(120.0,100%,20%)">hans</text>
<text x="0.851" y="0.517" font-size="0.005289" fill="hsl(120.0,100%,20%)">elkurin</text>
<text x="0.592" y="0.097" font-size="0.009161" fill="hsl(240.0,100%,20%)">leimy</text>
<text x="0.794" y="0.044" font-size="0.005289" fill="hsl(240.0,100%,20%)">chikamune</text>
<text x="0.533" y="0.045" font-size="0.005289" fill="hsl(240.0,100%,20%)">kouhei</text>
<text x="1.080" y="0.536" font-size="0.005289" fill="hsl(120.0,100%,20%)">caitkp</text>
<text x="1.116" y="0.310" font-size="0.005289" fill="hsl(120.0,100%,20%)">yoavweiss</text>
<text x="1.433" y="0.370" font-size="0.009161" fill="hsl(120.0,100%,20%)">nathan.teodosio</text>
<text x="1.085" y="0.362" font-size="0.016725" fill="hsl(120.0,100%,20%)">richard.townsend</text>
<text x="1.270" y="0.332" font-size="0.009161" fill="hsl(120.0,100%,20%)">pbos</text>
<text x="1.205" y="0.524" font-size="0.010578" fill="hsl(120.0,100%,20%)">piotr.tworek</text>
<text x="0.832" y="0.619" font-size="0.011826" fill="hsl(120.0,100%,20%)">pkasting</text>
<text x="0.703" y="0.650" font-size="0.005289" fill="hsl(120.0,100%,20%)">agrieve</text>
<text x="0.257" y="0.071" font-size="0.011826" fill="hsl(0.0,100%,20%)">prashanthsw</text>
<text x="0.397" y="0.131" font-size="0.005289" fill="hsl(0.0,100%,20%)">ntfschr</text>
<text x="0.164" y="0.127" font-size="0.009161" fill="hsl(0.0,100%,20%)">thakis</text>
<text x="1.364" y="0.097" font-size="0.014959" fill="hsl(0.0,100%,20%)">wez</text>
<text x="0.903" y="0.329" font-size="0.029918" fill="hsl(120.0,100%,20%)">sroettger</text>
<text x="1.528" y="0.628" font-size="0.007480" fill="hsl(120.0,100%,20%)">boliu</text>
<text x="1.477" y="0.674" font-size="0.005289" fill="hsl(120.0,100%,20%)">etienneb</text>
<text x="1.364" y="0.641" font-size="0.005289" fill="hsl(120.0,100%,20%)">olivierli</text>
<text x="0.225" y="0.514" font-size="0.009161" fill="hsl(120.0,100%,20%)">titouan</text>
<text x="0.324" y="0.437" font-size="0.005289" fill="hsl(0.0,100%,20%)">isaboori</text>
<text x="1.551" y="0.336" font-size="0.009161" fill="hsl(120.0,100%,20%)">uioptt24</text>
<text x="1.498" y="0.545" font-size="0.005289" fill="hsl(0.0,100%,20%)">dtapuska</text>
<text x="1.641" y="0.072" font-size="0.005289" fill="hsl(0.0,100%,20%)">iclelland</text>
<text x="1.560" y="0.169" font-size="0.005289" fill="hsl(0.0,100%,20%)">cbruni</text>
<text x="1.270" y="0.039" font-size="0.005289" fill="hsl(0.0,100%,20%)">ddorwin</text>
<text x="1.854" y="0.846" font-size="0.005289" fill="hsl(120.0,100%,20%)">dfried</text>
<text x="1.903" y="0.811" font-size="0.005289" fill="hsl(120.0,100%,20%)">msw</text>
<text x="1.720" y="0.590" font-size="0.005289" fill="hsl(120.0,100%,20%)">nektar</text>
<text x="1.877" y="0.622" font-size="0.005289" fill="hsl(120.0,100%,20%)">khokhlov</text>
<text x="1.913" y="0.289" font-size="0.010578" fill="hsl(0.0,100%,20%)">zhaojiazhong-hf</text>
<text x="1.678" y="0.210" font-size="0.005289" fill="hsl(0.0,100%,20%)">cwallez</text>
<text x="1.740" y="0.277" font-size="0.005289" fill="hsl(120.0,100%,20%)">kbr</text>
</svg>
