<svg width="4000" height="2000" viewBox="-0.025 -0.025 2.05 1.05" xmlns="http://www.w3.org/2000/svg">
  <style>
    path {
      fill: none;
      stroke-linecap: round;
      stroke-opacity: 0.4;
    }

    text {
      text-anchor: middle;
      alignment-baseline: hanging;
    }
  </style>
  <g opacity="0.4">
<path d="M1.912 0.622 Q1.748 0.588 1.646 0.661" stroke="hsl(0.0,100%,35%)" stroke-width="0.04330"></path>
<path d="M1.912 0.622 Q1.601 0.573 1.437 0.715" stroke="hsl(0.0,100%,35%)" stroke-width="0.08660"></path>
<path d="M1.912 0.622 Q2.092 0.493 1.879 0.376" stroke="hsl(0.0,100%,35%)" stroke-width="0.02887"></path>
<path d="M1.912 0.622 Q1.744 0.493 1.454 0.546" stroke="hsl(0.0,100%,35%)" stroke-width="0.02887"></path>
<path d="M1.151 0.351 Q1.034 0.432 1.166 0.507" stroke="hsl(180.0,100%,35%)" stroke-width="0.01443"></path>
<path d="M1.151 0.351 Q1.104 0.239 0.876 0.238" stroke="hsl(180.0,100%,35%)" stroke-width="0.02887"></path>
<path d="M1.151 0.351 Q1.003 0.590 1.437 0.715" stroke="hsl(180.0,100%,35%)" stroke-width="0.02887"></path>
<path d="M1.637 0.287 Q1.687 0.380 1.879 0.376" stroke="hsl(180.0,100%,35%)" stroke-width="0.01443"></path>
<path d="M1.637 0.287 Q1.343 0.222 1.151 0.351" stroke="hsl(180.0,100%,35%)" stroke-width="0.01443"></path>
<path d="M1.637 0.287 Q1.343 0.476 1.646 0.661" stroke="hsl(180.0,100%,35%)" stroke-width="0.01443"></path>
<path d="M1.654 0.839 Q1.754 0.898 1.891 0.862" stroke="hsl(0.0,100%,35%)" stroke-width="0.01443"></path>
<path d="M1.654 0.839 Q1.228 0.754 0.969 0.943" stroke="hsl(0.0,100%,35%)" stroke-width="0.01443"></path>
<path d="M1.654 0.839 Q1.792 0.748 1.646 0.661" stroke="hsl(0.0,100%,35%)" stroke-width="0.01443"></path>
</g>
<text x="1.912" y="0.570" font-size="0.104083" fill="hsl(0.0,100%,20%)">arthursonzogni</text>
<text x="1.646" y="0.629" font-size="0.064550" fill="hsl(0.0,100%,20%)">tasak</text>
<text x="1.437" y="0.674" font-size="0.081650" fill="hsl(0.0,100%,20%)">danakj</text>
<text x="1.879" y="0.351" font-size="0.050000" fill="hsl(0.0,100%,20%)">keishi</text>
<text x="1.454" y="0.526" font-size="0.040825" fill="hsl(0.0,100%,20%)">wez</text>
<text x="1.151" y="0.316" font-size="0.070711" fill="hsl(180.0,100%,20%)">pkasting</text>
<text x="1.166" y="0.492" font-size="0.028868" fill="hsl(180.0,100%,20%)">jbroman</text>
<text x="0.876" y="0.217" font-size="0.040825" fill="hsl(180.0,100%,20%)">dcheng</text>
<text x="1.637" y="0.262" font-size="0.050000" fill="hsl(180.0,100%,20%)">rsworktech</text>
<text x="1.654" y="0.814" font-size="0.050000" fill="hsl(0.0,100%,20%)">sroettger</text>
<text x="1.891" y="0.847" font-size="0.028868" fill="hsl(0.0,100%,20%)">mlippautz</text>
<text x="0.969" y="0.928" font-size="0.028868" fill="hsl(0.0,100%,20%)">mpdenton</text>
</svg>
