<svg width="4000" height="2000" viewBox="-0.025 -0.025 2.05 1.05" xmlns="http://www.w3.org/2000/svg">
  <style>
    path {
      fill: none;
      stroke-linecap: round;
      stroke-opacity: 0.4;
    }

    text {
      text-anchor: middle;
      alignment-baseline: hanging;
    }
  </style>
  <g opacity="0.4">
<path d="M0.054 0.694 Q0.283 0.687 0.320 0.573" stroke="hsl(0.0,100%,35%)" stroke-width="0.00117"></path>
<path d="M0.054 0.694 Q0.019 0.748 0.117 0.777" stroke="hsl(0.0,100%,35%)" stroke-width="0.00117"></path>
<path d="M0.054 0.694 Q1.144 0.898 1.781 0.411" stroke="hsl(0.0,100%,35%)" stroke-width="0.00117"></path>
<path d="M1.781 0.411 Q0.936 0.448 0.824 0.868" stroke="hsl(0.0,100%,35%)" stroke-width="0.00117"></path>
<path d="M1.781 0.411 Q1.666 0.415 1.650 0.473" stroke="hsl(0.0,100%,35%)" stroke-width="0.00233"></path>
<path d="M1.781 0.411 Q0.586 0.359 0.222 0.930" stroke="hsl(0.0,100%,35%)" stroke-width="0.00117"></path>
<path d="M1.483 0.586 Q1.388 0.519 1.238 0.551" stroke="hsl(0.0,100%,35%)" stroke-width="0.00932"></path>
<path d="M1.483 0.586 Q1.503 0.452 1.248 0.413" stroke="hsl(0.0,100%,35%)" stroke-width="0.00117"></path>
<path d="M1.483 0.586 Q1.330 0.621 1.364 0.703" stroke="hsl(0.0,100%,35%)" stroke-width="0.00233"></path>
<path d="M1.483 0.586 Q1.291 0.397 0.881 0.449" stroke="hsl(0.0,100%,35%)" stroke-width="0.00350"></path>
<path d="M1.483 0.586 Q1.557 0.529 1.462 0.480" stroke="hsl(0.0,100%,35%)" stroke-width="0.00233"></path>
<path d="M1.238 0.551 Q1.706 0.349 1.413 0.076" stroke="hsl(180.0,100%,35%)" stroke-width="0.01631"></path>
<path d="M1.238 0.551 Q1.180 0.652 1.364 0.703" stroke="hsl(180.0,100%,35%)" stroke-width="0.05010"></path>
<path d="M1.238 0.551 Q1.207 0.357 0.821 0.329" stroke="hsl(180.0,100%,35%)" stroke-width="0.00699"></path>
<path d="M1.238 0.551 Q1.333 0.617 1.483 0.586" stroke="hsl(180.0,100%,35%)" stroke-width="0.00233"></path>
<path d="M1.238 0.551 Q1.141 0.429 0.881 0.449" stroke="hsl(180.0,100%,35%)" stroke-width="0.01282"></path>
<path d="M1.238 0.551 Q1.325 0.448 1.144 0.383" stroke="hsl(180.0,100%,35%)" stroke-width="0.00466"></path>
<path d="M1.238 0.551 Q1.353 0.484 1.248 0.413" stroke="hsl(180.0,100%,35%)" stroke-width="0.00816"></path>
<path d="M1.238 0.551 Q0.427 0.538 0.222 0.930" stroke="hsl(180.0,100%,35%)" stroke-width="0.00117"></path>
<path d="M1.238 0.551 Q1.024 0.363 0.608 0.426" stroke="hsl(180.0,100%,35%)" stroke-width="0.00816"></path>
<path d="M1.238 0.551 Q1.291 0.587 1.372 0.568" stroke="hsl(180.0,100%,35%)" stroke-width="0.00233"></path>
<path d="M1.238 0.551 Q0.888 0.451 0.617 0.600" stroke="hsl(180.0,100%,35%)" stroke-width="0.00583"></path>
<path d="M1.238 0.551 Q1.507 0.594 1.650 0.473" stroke="hsl(180.0,100%,35%)" stroke-width="0.00117"></path>
<path d="M1.238 0.551 Q1.028 0.556 0.991 0.660" stroke="hsl(180.0,100%,35%)" stroke-width="0.00932"></path>
<path d="M1.238 0.551 Q1.373 0.442 1.189 0.352" stroke="hsl(180.0,100%,35%)" stroke-width="0.00117"></path>
<path d="M1.238 0.551 Q1.407 0.561 1.462 0.480" stroke="hsl(180.0,100%,35%)" stroke-width="0.00699"></path>
<path d="M1.238 0.551 Q1.232 0.414 0.963 0.387" stroke="hsl(180.0,100%,35%)" stroke-width="0.00117"></path>
<path d="M1.238 0.551 Q1.720 0.516 1.758 0.273" stroke="hsl(180.0,100%,35%)" stroke-width="0.00117"></path>
<path d="M1.238 0.551 Q0.645 0.426 0.271 0.688" stroke="hsl(180.0,100%,35%)" stroke-width="0.00117"></path>
<path d="M1.238 0.551 Q1.319 0.404 1.049 0.332" stroke="hsl(180.0,100%,35%)" stroke-width="0.00117"></path>
<path d="M1.238 0.551 Q1.457 0.486 1.378 0.365" stroke="hsl(180.0,100%,35%)" stroke-width="0.00117"></path>
<path d="M1.238 0.551 Q0.811 0.538 0.692 0.743" stroke="hsl(180.0,100%,35%)" stroke-width="0.00117"></path>
<path d="M1.238 0.551 Q1.655 0.418 1.487 0.185" stroke="hsl(180.0,100%,35%)" stroke-width="0.00117"></path>
<path d="M1.238 0.551 Q1.286 0.395 0.991 0.338" stroke="hsl(180.0,100%,35%)" stroke-width="0.00117"></path>
<path d="M1.238 0.551 Q1.345 0.285 0.848 0.174" stroke="hsl(180.0,100%,35%)" stroke-width="0.00233"></path>
<path d="M1.238 0.551 Q0.762 0.261 0.091 0.430" stroke="hsl(180.0,100%,35%)" stroke-width="0.00117"></path>
<path d="M1.238 0.551 Q1.291 0.615 1.427 0.604" stroke="hsl(180.0,100%,35%)" stroke-width="0.00117"></path>
<path d="M1.248 0.413 Q1.132 0.480 1.238 0.551" stroke="hsl(180.0,100%,35%)" stroke-width="0.00816"></path>
<path d="M1.248 0.413 Q1.036 0.358 0.881 0.449" stroke="hsl(180.0,100%,35%)" stroke-width="0.00233"></path>
<path d="M1.248 0.413 Q1.181 0.309 0.963 0.319" stroke="hsl(180.0,100%,35%)" stroke-width="0.00117"></path>
<path d="M1.248 0.413 Q1.402 0.523 1.650 0.473" stroke="hsl(180.0,100%,35%)" stroke-width="0.00117"></path>
<path d="M1.248 0.413 Q1.244 0.357 1.135 0.347" stroke="hsl(180.0,100%,35%)" stroke-width="0.00117"></path>
<path d="M1.248 0.413 Q1.104 0.394 1.034 0.460" stroke="hsl(180.0,100%,35%)" stroke-width="0.00117"></path>
<path d="M1.248 0.413 Q1.101 0.286 0.821 0.329" stroke="hsl(180.0,100%,35%)" stroke-width="0.00117"></path>
<path d="M1.248 0.413 Q1.074 0.581 1.364 0.703" stroke="hsl(180.0,100%,35%)" stroke-width="0.00350"></path>
<path d="M1.248 0.413 Q1.352 0.415 1.378 0.365" stroke="hsl(180.0,100%,35%)" stroke-width="0.00350"></path>
<path d="M1.248 0.413 Q0.783 0.380 0.617 0.600" stroke="hsl(180.0,100%,35%)" stroke-width="0.00117"></path>
<path d="M1.248 0.413 Q1.213 0.333 1.049 0.332" stroke="hsl(180.0,100%,35%)" stroke-width="0.00117"></path>
<path d="M1.364 0.703 Q1.422 0.602 1.238 0.551" stroke="hsl(180.0,100%,35%)" stroke-width="0.04078"></path>
<path d="M1.364 0.703 Q1.591 0.611 1.462 0.480" stroke="hsl(180.0,100%,35%)" stroke-width="0.00117"></path>
<path d="M1.364 0.703 Q1.536 0.653 1.475 0.558" stroke="hsl(180.0,100%,35%)" stroke-width="0.01049"></path>
<path d="M1.364 0.703 Q1.502 0.671 1.469 0.596" stroke="hsl(180.0,100%,35%)" stroke-width="0.00233"></path>
<path d="M1.364 0.703 Q1.326 0.479 0.881 0.449" stroke="hsl(180.0,100%,35%)" stroke-width="0.01981"></path>
<path d="M1.364 0.703 Q1.212 0.607 0.991 0.660" stroke="hsl(180.0,100%,35%)" stroke-width="0.02330"></path>
<path d="M1.364 0.703 Q1.460 0.302 0.699 0.168" stroke="hsl(180.0,100%,35%)" stroke-width="0.00117"></path>
<path d="M1.364 0.703 Q1.357 0.615 1.184 0.599" stroke="hsl(180.0,100%,35%)" stroke-width="0.00233"></path>
<path d="M1.364 0.703 Q1.208 0.413 0.608 0.426" stroke="hsl(180.0,100%,35%)" stroke-width="0.00117"></path>
<path d="M1.364 0.703 Q1.298 0.745 1.366 0.787" stroke="hsl(180.0,100%,35%)" stroke-width="0.00117"></path>
<path d="M1.364 0.703 Q1.208 0.706 1.180 0.784" stroke="hsl(180.0,100%,35%)" stroke-width="0.00117"></path>
<path d="M1.364 0.703 Q1.073 0.502 0.617 0.600" stroke="hsl(180.0,100%,35%)" stroke-width="0.00117"></path>
<path d="M1.364 0.703 Q1.890 0.399 1.413 0.076" stroke="hsl(180.0,100%,35%)" stroke-width="0.00233"></path>
<path d="M1.364 0.703 Q1.538 0.535 1.248 0.413" stroke="hsl(180.0,100%,35%)" stroke-width="0.00117"></path>
<path d="M1.364 0.703 Q1.226 0.646 1.084 0.701" stroke="hsl(180.0,100%,35%)" stroke-width="0.00117"></path>
<path d="M1.364 0.703 Q1.475 0.666 1.427 0.604" stroke="hsl(180.0,100%,35%)" stroke-width="0.00117"></path>
<path d="M1.462 0.480 Q1.293 0.471 1.238 0.551" stroke="hsl(0.0,100%,35%)" stroke-width="0.00233"></path>
<path d="M1.462 0.480 Q1.374 0.324 1.049 0.332" stroke="hsl(0.0,100%,35%)" stroke-width="0.00117"></path>
<path d="M1.462 0.480 Q1.235 0.572 1.364 0.703" stroke="hsl(0.0,100%,35%)" stroke-width="0.00117"></path>
<path d="M0.271 0.688 Q1.133 0.856 1.650 0.473" stroke="hsl(0.0,100%,35%)" stroke-width="0.00233"></path>
<path d="M0.271 0.688 Q0.805 0.914 1.364 0.703" stroke="hsl(0.0,100%,35%)" stroke-width="0.00117"></path>
<path d="M0.271 0.688 Q0.540 0.866 0.946 0.773" stroke="hsl(0.0,100%,35%)" stroke-width="0.00350"></path>
<path d="M0.271 0.688 Q0.380 0.736 0.497 0.693" stroke="hsl(0.0,100%,35%)" stroke-width="0.00117"></path>
<path d="M0.271 0.688 Q0.426 0.619 0.325 0.528" stroke="hsl(0.0,100%,35%)" stroke-width="0.00117"></path>
<path d="M0.271 0.688 Q0.262 0.752 0.386 0.771" stroke="hsl(0.0,100%,35%)" stroke-width="0.00117"></path>
<path d="M0.271 0.688 Q0.430 0.671 0.432 0.590" stroke="hsl(0.0,100%,35%)" stroke-width="0.00117"></path>
<path d="M0.271 0.688 Q0.943 0.882 1.469 0.596" stroke="hsl(0.0,100%,35%)" stroke-width="0.00117"></path>
<path d="M0.271 0.688 Q0.130 0.728 0.178 0.806" stroke="hsl(0.0,100%,35%)" stroke-width="0.00117"></path>
<path d="M0.271 0.688 Q0.286 0.603 0.124 0.577" stroke="hsl(0.0,100%,35%)" stroke-width="0.00117"></path>
<path d="M0.271 0.688 Q0.387 0.640 0.320 0.573" stroke="hsl(0.0,100%,35%)" stroke-width="0.00117"></path>
<path d="M0.946 0.773 Q0.920 0.621 0.617 0.600" stroke="hsl(0.0,100%,35%)" stroke-width="0.00117"></path>
<path d="M0.946 0.773 Q0.809 0.796 0.824 0.868" stroke="hsl(0.0,100%,35%)" stroke-width="0.00117"></path>
<path d="M0.946 0.773 Q0.843 0.707 0.692 0.743" stroke="hsl(0.0,100%,35%)" stroke-width="0.00117"></path>
<path d="M1.413 0.076 Q0.946 0.279 1.238 0.551" stroke="hsl(180.0,100%,35%)" stroke-width="0.01515"></path>
<path d="M1.413 0.076 Q1.363 0.145 1.487 0.185" stroke="hsl(180.0,100%,35%)" stroke-width="0.01631"></path>
<path d="M1.413 0.076 Q0.849 0.156 0.881 0.449" stroke="hsl(180.0,100%,35%)" stroke-width="0.00233"></path>
<path d="M1.413 0.076 Q0.596 0.179 0.617 0.600" stroke="hsl(180.0,100%,35%)" stroke-width="0.00117"></path>
<path d="M1.413 0.076 Q0.887 0.380 1.364 0.703" stroke="hsl(180.0,100%,35%)" stroke-width="0.00233"></path>
<path d="M0.821 0.329 Q0.852 0.524 1.238 0.551" stroke="hsl(180.0,100%,35%)" stroke-width="0.07574"></path>
<path d="M0.821 0.329 Q0.637 0.335 0.608 0.426" stroke="hsl(180.0,100%,35%)" stroke-width="0.03496"></path>
<path d="M0.821 0.329 Q0.502 0.424 0.617 0.600" stroke="hsl(180.0,100%,35%)" stroke-width="0.00466"></path>
<path d="M0.821 0.329 Q0.794 0.625 1.364 0.703" stroke="hsl(180.0,100%,35%)" stroke-width="0.00350"></path>
<path d="M0.821 0.329 Q0.641 0.529 0.991 0.660" stroke="hsl(180.0,100%,35%)" stroke-width="0.03962"></path>
<path d="M0.821 0.329 Q0.889 0.224 0.699 0.168" stroke="hsl(180.0,100%,35%)" stroke-width="0.00117"></path>
<path d="M0.821 0.329 Q0.911 0.205 0.689 0.134" stroke="hsl(180.0,100%,35%)" stroke-width="0.00233"></path>
<path d="M0.821 0.329 Q1.269 0.390 1.487 0.185" stroke="hsl(180.0,100%,35%)" stroke-width="0.00466"></path>
<path d="M0.821 0.329 Q0.932 0.376 1.049 0.332" stroke="hsl(180.0,100%,35%)" stroke-width="0.00233"></path>
<path d="M0.821 0.329 Q0.903 0.305 0.873 0.260" stroke="hsl(180.0,100%,35%)" stroke-width="0.00233"></path>
<path d="M0.821 0.329 Q1.319 0.321 1.413 0.076" stroke="hsl(180.0,100%,35%)" stroke-width="0.00233"></path>
<path d="M0.821 0.329 Q0.899 0.368 0.991 0.338" stroke="hsl(180.0,100%,35%)" stroke-width="0.00117"></path>
<path d="M0.821 0.329 Q0.755 0.401 0.881 0.449" stroke="hsl(180.0,100%,35%)" stroke-width="0.02330"></path>
<path d="M0.821 0.329 Q0.890 0.247 0.746 0.195" stroke="hsl(180.0,100%,35%)" stroke-width="0.00117"></path>
<path d="M0.821 0.329 Q0.958 0.257 0.848 0.174" stroke="hsl(180.0,100%,35%)" stroke-width="0.00466"></path>
<path d="M0.821 0.329 Q0.965 0.348 1.033 0.282" stroke="hsl(180.0,100%,35%)" stroke-width="0.00117"></path>
<path d="M0.821 0.329 Q0.959 0.280 0.892 0.201" stroke="hsl(180.0,100%,35%)" stroke-width="0.00233"></path>
<path d="M0.821 0.329 Q0.895 0.387 1.024 0.363" stroke="hsl(180.0,100%,35%)" stroke-width="0.00117"></path>
<path d="M0.821 0.329 Q0.761 0.262 0.617 0.277" stroke="hsl(180.0,100%,35%)" stroke-width="0.00117"></path>
<path d="M0.821 0.329 Q0.528 0.577 0.946 0.773" stroke="hsl(180.0,100%,35%)" stroke-width="0.00117"></path>
<path d="M0.821 0.329 Q0.784 0.244 0.608 0.243" stroke="hsl(180.0,100%,35%)" stroke-width="0.00117"></path>
<path d="M0.821 0.329 Q0.980 0.268 0.895 0.177" stroke="hsl(180.0,100%,35%)" stroke-width="0.00117"></path>
<path d="M0.821 0.329 Q0.040 0.510 0.222 0.930" stroke="hsl(180.0,100%,35%)" stroke-width="0.00233"></path>
<path d="M0.821 0.329 Q1.334 0.489 1.758 0.273" stroke="hsl(180.0,100%,35%)" stroke-width="0.00117"></path>
<path d="M0.821 0.329 Q0.967 0.457 1.248 0.413" stroke="hsl(180.0,100%,35%)" stroke-width="0.00350"></path>
<path d="M1.144 0.383 Q1.057 0.486 1.238 0.551" stroke="hsl(180.0,100%,35%)" stroke-width="0.00583"></path>
<path d="M1.144 0.383 Q0.960 0.364 0.881 0.449" stroke="hsl(180.0,100%,35%)" stroke-width="0.00466"></path>
<path d="M1.144 0.383 Q1.524 0.284 1.413 0.076" stroke="hsl(180.0,100%,35%)" stroke-width="0.00117"></path>
<path d="M1.144 0.383 Q0.998 0.587 1.364 0.703" stroke="hsl(180.0,100%,35%)" stroke-width="0.00117"></path>
<path d="M1.144 0.383 Q0.707 0.386 0.617 0.600" stroke="hsl(180.0,100%,35%)" stroke-width="0.00117"></path>
<path d="M0.608 0.426 Q0.823 0.614 1.238 0.551" stroke="hsl(180.0,100%,35%)" stroke-width="0.03146"></path>
<path d="M0.608 0.426 Q0.726 0.492 0.881 0.449" stroke="hsl(180.0,100%,35%)" stroke-width="0.01981"></path>
<path d="M0.608 0.426 Q0.792 0.420 0.821 0.329" stroke="hsl(180.0,100%,35%)" stroke-width="0.00583"></path>
<path d="M0.608 0.426 Q0.629 0.386 0.557 0.367" stroke="hsl(180.0,100%,35%)" stroke-width="0.00117"></path>
<path d="M0.608 0.426 Q0.612 0.619 0.991 0.660" stroke="hsl(180.0,100%,35%)" stroke-width="0.02330"></path>
<path d="M0.608 0.426 Q1.290 0.412 1.413 0.076" stroke="hsl(180.0,100%,35%)" stroke-width="0.00233"></path>
<path d="M0.608 0.426 Q0.765 0.716 1.364 0.703" stroke="hsl(180.0,100%,35%)" stroke-width="0.00699"></path>
<path d="M0.608 0.426 Q0.473 0.514 0.617 0.600" stroke="hsl(180.0,100%,35%)" stroke-width="0.00117"></path>
<path d="M0.608 0.426 Q0.512 0.402 0.444 0.444" stroke="hsl(180.0,100%,35%)" stroke-width="0.00117"></path>
<path d="M0.608 0.426 Q0.938 0.547 1.248 0.413" stroke="hsl(180.0,100%,35%)" stroke-width="0.00117"></path>
<path d="M0.608 0.426 Q1.240 0.481 1.487 0.185" stroke="hsl(180.0,100%,35%)" stroke-width="0.00233"></path>
<path d="M0.991 0.660 Q0.987 0.466 0.608 0.426" stroke="hsl(180.0,100%,35%)" stroke-width="0.02797"></path>
<path d="M0.991 0.660 Q1.104 0.533 0.881 0.449" stroke="hsl(180.0,100%,35%)" stroke-width="0.01398"></path>
<path d="M0.991 0.660 Q0.851 0.555 0.617 0.600" stroke="hsl(180.0,100%,35%)" stroke-width="0.00233"></path>
<path d="M0.991 0.660 Q1.170 0.461 0.821 0.329" stroke="hsl(180.0,100%,35%)" stroke-width="0.01049"></path>
<path d="M0.991 0.660 Q0.946 0.580 0.780 0.584" stroke="hsl(180.0,100%,35%)" stroke-width="0.00117"></path>
<path d="M0.991 0.660 Q0.767 0.513 0.432 0.590" stroke="hsl(180.0,100%,35%)" stroke-width="0.00117"></path>
<path d="M0.991 0.660 Q1.004 0.699 1.084 0.701" stroke="hsl(180.0,100%,35%)" stroke-width="0.00117"></path>
<path d="M0.991 0.660 Q0.940 0.549 0.713 0.550" stroke="hsl(180.0,100%,35%)" stroke-width="0.00117"></path>
<path d="M0.991 0.660 Q0.979 0.571 0.805 0.558" stroke="hsl(180.0,100%,35%)" stroke-width="0.00117"></path>
<path d="M0.991 0.660 Q1.201 0.655 1.238 0.551" stroke="hsl(180.0,100%,35%)" stroke-width="0.04078"></path>
<path d="M0.991 0.660 Q0.888 0.730 1.003 0.796" stroke="hsl(180.0,100%,35%)" stroke-width="0.00117"></path>
<path d="M0.991 0.660 Q1.143 0.756 1.364 0.703" stroke="hsl(180.0,100%,35%)" stroke-width="0.03030"></path>
<path d="M0.991 0.660 Q1.282 0.508 1.049 0.332" stroke="hsl(180.0,100%,35%)" stroke-width="0.00117"></path>
<path d="M0.991 0.660 Q1.618 0.522 1.487 0.185" stroke="hsl(180.0,100%,35%)" stroke-width="0.00117"></path>
<path d="M0.991 0.660 Q1.669 0.453 1.413 0.076" stroke="hsl(180.0,100%,35%)" stroke-width="0.00117"></path>
<path d="M0.091 0.430 Q0.509 0.821 1.364 0.703" stroke="hsl(0.0,100%,35%)" stroke-width="0.00117"></path>
<path d="M0.091 0.430 Q0.008 0.460 0.049 0.507" stroke="hsl(0.0,100%,35%)" stroke-width="0.00117"></path>
<path d="M0.091 0.430 Q0.243 0.773 0.946 0.773" stroke="hsl(0.0,100%,35%)" stroke-width="0.00117"></path>
<path d="M0.824 0.868 Q0.961 0.845 0.946 0.773" stroke="hsl(0.0,100%,35%)" stroke-width="0.01165"></path>
<path d="M0.824 0.868 Q0.688 0.876 0.673 0.944" stroke="hsl(0.0,100%,35%)" stroke-width="0.00117"></path>
<path d="M0.824 0.868 Q1.226 0.894 1.364 0.703" stroke="hsl(0.0,100%,35%)" stroke-width="0.00117"></path>
<path d="M0.824 0.868 Q1.285 0.793 1.238 0.551" stroke="hsl(0.0,100%,35%)" stroke-width="0.00117"></path>
<path d="M0.824 0.868 Q0.775 0.782 0.595 0.786" stroke="hsl(0.0,100%,35%)" stroke-width="0.00233"></path>
<path d="M0.824 0.868 Q0.935 0.693 0.617 0.600" stroke="hsl(0.0,100%,35%)" stroke-width="0.00233"></path>
<path d="M0.824 0.868 Q0.722 0.811 0.587 0.848" stroke="hsl(0.0,100%,35%)" stroke-width="0.00233"></path>
<path d="M0.824 0.868 Q1.365 0.645 1.049 0.332" stroke="hsl(0.0,100%,35%)" stroke-width="0.00117"></path>
<path d="M0.824 0.868 Q1.767 0.758 1.758 0.273" stroke="hsl(0.0,100%,35%)" stroke-width="0.00117"></path>
<path d="M0.824 0.868 Q0.711 0.903 0.754 0.966" stroke="hsl(0.0,100%,35%)" stroke-width="0.00117"></path>
<path d="M1.624 0.740 Q1.482 0.799 1.564 0.881" stroke="hsl(0.0,100%,35%)" stroke-width="0.00233"></path>
<path d="M1.624 0.740 Q1.485 0.446 0.881 0.449" stroke="hsl(0.0,100%,35%)" stroke-width="0.00233"></path>
<path d="M1.624 0.740 Q1.524 0.670 1.364 0.703" stroke="hsl(0.0,100%,35%)" stroke-width="0.00117"></path>
<path d="M1.624 0.740 Q1.751 0.775 1.847 0.721" stroke="hsl(0.0,100%,35%)" stroke-width="0.00117"></path>
<path d="M1.624 0.740 Q1.783 0.723 1.784 0.641" stroke="hsl(0.0,100%,35%)" stroke-width="0.00117"></path>
<path d="M1.624 0.740 Q1.797 0.692 1.740 0.597" stroke="hsl(0.0,100%,35%)" stroke-width="0.00117"></path>
<path d="M1.624 0.740 Q1.649 0.789 1.748 0.787" stroke="hsl(0.0,100%,35%)" stroke-width="0.00117"></path>
<path d="M1.624 0.740 Q1.821 0.778 1.937 0.690" stroke="hsl(0.0,100%,35%)" stroke-width="0.00117"></path>
<path d="M1.624 0.740 Q1.664 0.779 1.749 0.768" stroke="hsl(0.0,100%,35%)" stroke-width="0.00117"></path>
<path d="M1.624 0.740 Q1.746 0.806 1.901 0.761" stroke="hsl(0.0,100%,35%)" stroke-width="0.00117"></path>
<path d="M1.624 0.740 Q1.576 0.823 1.727 0.864" stroke="hsl(0.0,100%,35%)" stroke-width="0.00117"></path>
<path d="M1.624 0.740 Q1.652 0.844 1.860 0.854" stroke="hsl(0.0,100%,35%)" stroke-width="0.00117"></path>
<path d="M1.624 0.740 Q1.743 0.676 1.643 0.604" stroke="hsl(0.0,100%,35%)" stroke-width="0.00117"></path>
<path d="M1.624 0.740 Q1.966 0.607 1.781 0.411" stroke="hsl(0.0,100%,35%)" stroke-width="0.00117"></path>
<path d="M1.564 0.881 Q1.664 0.651 1.238 0.551" stroke="hsl(0.0,100%,35%)" stroke-width="0.00117"></path>
<path d="M1.564 0.881 Q2.048 0.689 1.781 0.411" stroke="hsl(0.0,100%,35%)" stroke-width="0.00117"></path>
<path d="M1.564 0.881 Q1.072 0.526 0.271 0.688" stroke="hsl(0.0,100%,35%)" stroke-width="0.00117"></path>
<path d="M1.564 0.881 Q1.477 0.901 1.498 0.949" stroke="hsl(0.0,100%,35%)" stroke-width="0.00117"></path>
<path d="M1.564 0.881 Q1.204 0.726 0.824 0.868" stroke="hsl(0.0,100%,35%)" stroke-width="0.00117"></path>
<path d="M1.387 0.588 Q1.342 0.540 1.238 0.551" stroke="hsl(0.0,100%,35%)" stroke-width="0.00117"></path>
<path d="M1.387 0.588 Q1.284 0.641 1.364 0.703" stroke="hsl(0.0,100%,35%)" stroke-width="0.00117"></path>
<path d="M1.387 0.588 Q0.531 0.526 0.222 0.930" stroke="hsl(0.0,100%,35%)" stroke-width="0.00117"></path>
<path d="M0.301 0.233 Q0.236 0.276 0.305 0.317" stroke="hsl(0.0,100%,35%)" stroke-width="0.00117"></path>
<path d="M0.301 0.233 Q0.418 0.457 0.881 0.449" stroke="hsl(0.0,100%,35%)" stroke-width="0.00117"></path>
<path d="M0.301 0.233 Q0.731 0.423 1.195 0.255" stroke="hsl(0.0,100%,35%)" stroke-width="0.00117"></path>
<path d="M0.301 0.233 Q0.594 0.648 1.469 0.596" stroke="hsl(0.0,100%,35%)" stroke-width="0.00117"></path>
<path d="M0.301 0.233 Q0.403 0.187 0.335 0.127" stroke="hsl(0.0,100%,35%)" stroke-width="0.00117"></path>
<path d="M1.612 0.370 Q1.748 0.183 1.413 0.076" stroke="hsl(0.0,100%,35%)" stroke-width="0.00117"></path>
<path d="M1.612 0.370 Q1.697 0.253 1.487 0.185" stroke="hsl(0.0,100%,35%)" stroke-width="0.00117"></path>
<path d="M1.612 0.370 Q1.664 0.424 1.781 0.411" stroke="hsl(0.0,100%,35%)" stroke-width="0.00233"></path>
<path d="M1.156 0.284 Q0.887 0.312 0.881 0.449" stroke="hsl(0.0,100%,35%)" stroke-width="0.00117"></path>
<path d="M1.156 0.284 Q1.199 0.278 1.195 0.255" stroke="hsl(0.0,100%,35%)" stroke-width="0.00117"></path>
<path d="M1.156 0.284 Q1.097 0.485 1.475 0.558" stroke="hsl(0.0,100%,35%)" stroke-width="0.00117"></path>
<path d="M1.475 0.558 Q1.304 0.608 1.364 0.703" stroke="hsl(180.0,100%,35%)" stroke-width="0.01864"></path>
<path d="M1.475 0.558 Q1.265 0.385 0.881 0.449" stroke="hsl(180.0,100%,35%)" stroke-width="0.00350"></path>
<path d="M1.475 0.558 Q1.660 0.525 1.636 0.428" stroke="hsl(180.0,100%,35%)" stroke-width="0.00117"></path>
<path d="M1.475 0.558 Q1.601 0.716 1.937 0.690" stroke="hsl(180.0,100%,35%)" stroke-width="0.00117"></path>
<path d="M1.475 0.558 Q1.746 0.546 1.781 0.411" stroke="hsl(180.0,100%,35%)" stroke-width="0.00117"></path>
<path d="M0.725 0.464 Q0.911 0.610 1.238 0.551" stroke="hsl(180.0,100%,35%)" stroke-width="0.00699"></path>
<path d="M0.725 0.464 Q0.697 0.421 0.608 0.426" stroke="hsl(180.0,100%,35%)" stroke-width="0.01748"></path>
<path d="M0.725 0.464 Q0.880 0.416 0.821 0.329" stroke="hsl(180.0,100%,35%)" stroke-width="0.01049"></path>
<path d="M0.325 0.428 Q0.683 0.673 1.238 0.551" stroke="hsl(0.0,100%,35%)" stroke-width="0.00233"></path>
<path d="M0.325 0.428 Q0.297 0.455 0.343 0.474" stroke="hsl(0.0,100%,35%)" stroke-width="0.00117"></path>
<path d="M0.325 0.428 Q0.222 0.748 0.824 0.868" stroke="hsl(0.0,100%,35%)" stroke-width="0.00117"></path>
<path d="M1.899 0.620 Q1.623 0.453 1.238 0.551" stroke="hsl(180.0,100%,35%)" stroke-width="0.00117"></path>
<path d="M1.899 0.620 Q1.526 0.331 0.881 0.449" stroke="hsl(180.0,100%,35%)" stroke-width="0.00117"></path>
<path d="M1.899 0.620 Q1.565 0.554 1.364 0.703" stroke="hsl(180.0,100%,35%)" stroke-width="0.00117"></path>
<path d="M1.899 0.620 Q1.857 0.552 1.715 0.557" stroke="hsl(180.0,100%,35%)" stroke-width="0.00117"></path>
<path d="M0.957 0.474 Q1.131 0.635 1.483 0.586" stroke="hsl(0.0,100%,35%)" stroke-width="0.00233"></path>
<path d="M0.957 0.474 Q0.712 0.622 0.946 0.773" stroke="hsl(0.0,100%,35%)" stroke-width="0.00233"></path>
<path d="M0.957 0.474 Q0.687 0.469 0.617 0.600" stroke="hsl(0.0,100%,35%)" stroke-width="0.00233"></path>
<path d="M0.957 0.474 Q0.939 0.447 0.881 0.449" stroke="hsl(0.0,100%,35%)" stroke-width="0.00233"></path>
<path d="M0.957 0.474 Q1.205 0.578 1.462 0.480" stroke="hsl(0.0,100%,35%)" stroke-width="0.00117"></path>
<path d="M1.172 0.310 Q0.915 0.321 0.881 0.449" stroke="hsl(180.0,100%,35%)" stroke-width="0.00233"></path>
<path d="M1.172 0.310 Q0.954 0.545 1.364 0.703" stroke="hsl(180.0,100%,35%)" stroke-width="0.00117"></path>
<path d="M1.172 0.310 Q0.798 0.255 0.608 0.426" stroke="hsl(180.0,100%,35%)" stroke-width="0.00117"></path>
<path d="M1.923 0.211 Q1.983 0.141 1.860 0.096" stroke="hsl(0.0,100%,35%)" stroke-width="0.00117"></path>
<path d="M1.923 0.211 Q1.211 0.121 0.881 0.449" stroke="hsl(0.0,100%,35%)" stroke-width="0.00117"></path>
<path d="M1.923 0.211 Q1.886 0.153 1.765 0.158" stroke="hsl(0.0,100%,35%)" stroke-width="0.00117"></path>
<path d="M1.923 0.211 Q1.791 0.209 1.758 0.273" stroke="hsl(0.0,100%,35%)" stroke-width="0.00117"></path>
<path d="M0.377 0.944 Q0.342 0.870 0.190 0.871" stroke="hsl(0.0,100%,35%)" stroke-width="0.00350"></path>
<path d="M0.377 0.944 Q0.487 0.880 0.385 0.812" stroke="hsl(0.0,100%,35%)" stroke-width="0.00117"></path>
<path d="M0.377 0.944 Q1.181 0.602 0.689 0.134" stroke="hsl(0.0,100%,35%)" stroke-width="0.00117"></path>
<path d="M0.377 0.944 Q0.380 0.809 0.117 0.777" stroke="hsl(0.0,100%,35%)" stroke-width="0.00117"></path>
<path d="M0.377 0.944 Q0.447 0.926 0.428 0.888" stroke="hsl(0.0,100%,35%)" stroke-width="0.00233"></path>
<path d="M0.377 0.944 Q0.661 0.996 0.824 0.868" stroke="hsl(0.0,100%,35%)" stroke-width="0.00233"></path>
<path d="M0.377 0.944 Q0.310 0.906 0.222 0.930" stroke="hsl(0.0,100%,35%)" stroke-width="0.00233"></path>
<path d="M0.377 0.944 Q0.424 0.854 0.260 0.811" stroke="hsl(0.0,100%,35%)" stroke-width="0.00117"></path>
<path d="M0.741 0.704 Q1.112 0.727 1.238 0.551" stroke="hsl(0.0,100%,35%)" stroke-width="0.00466"></path>
<path d="M0.741 0.704 Q0.762 0.627 0.617 0.600" stroke="hsl(0.0,100%,35%)" stroke-width="0.00350"></path>
<path d="M0.741 0.704 Q1.280 0.736 1.462 0.480" stroke="hsl(0.0,100%,35%)" stroke-width="0.00117"></path>
<path d="M0.741 0.704 Q0.726 0.578 0.477 0.557" stroke="hsl(0.0,100%,35%)" stroke-width="0.00117"></path>
<path d="M0.741 0.704 Q1.053 0.828 1.364 0.703" stroke="hsl(0.0,100%,35%)" stroke-width="0.00117"></path>
<path d="M1.476 0.566 Q1.311 0.612 1.364 0.703" stroke="hsl(180.0,100%,35%)" stroke-width="0.00233"></path>
<path d="M1.476 0.566 Q1.369 0.511 1.238 0.551" stroke="hsl(180.0,100%,35%)" stroke-width="0.00233"></path>
<path d="M1.476 0.566 Q1.272 0.389 0.881 0.449" stroke="hsl(180.0,100%,35%)" stroke-width="0.00233"></path>
<path d="M0.990 0.563 Q1.123 0.607 1.238 0.551" stroke="hsl(0.0,100%,35%)" stroke-width="0.00117"></path>
<path d="M0.990 0.563 Q0.799 0.659 0.946 0.773" stroke="hsl(0.0,100%,35%)" stroke-width="0.00117"></path>
<path d="M0.990 0.563 Q1.026 0.484 0.881 0.449" stroke="hsl(0.0,100%,35%)" stroke-width="0.00117"></path>
<path d="M0.990 0.563 Q1.065 0.708 1.364 0.703" stroke="hsl(0.0,100%,35%)" stroke-width="0.00117"></path>
</g>
<text x="0.054" y="0.690" font-size="0.008183" fill="hsl(0.0,100%,20%)">andre.kempe</text>
<text x="0.320" y="0.570" font-size="0.006682" fill="hsl(0.0,100%,20%)">agrieve</text>
<text x="0.117" y="0.774" font-size="0.006682" fill="hsl(0.0,100%,20%)">mfoltz</text>
<text x="1.781" y="0.403" font-size="0.014940" fill="hsl(0.0,100%,20%)">thakis</text>
<text x="1.483" y="0.575" font-size="0.021129" fill="hsl(0.0,100%,20%)">arthursonzogni</text>
<text x="1.238" y="0.507" font-size="0.087882" fill="hsl(180.0,100%,20%)">bartekn</text>
<text x="1.248" y="0.399" font-size="0.027951" fill="hsl(180.0,100%,20%)">keishi</text>
<text x="1.364" y="0.669" font-size="0.068465" fill="hsl(180.0,100%,20%)">lizeb</text>
<text x="0.881" y="0.425" font-size="0.048181" fill="hsl(180.0,100%,20%)">haraken</text>
<text x="1.462" y="0.471" font-size="0.018298" fill="hsl(0.0,100%,20%)">glazunov</text>
<text x="0.271" y="0.678" font-size="0.018898" fill="hsl(0.0,100%,20%)">avi</text>
<text x="1.650" y="0.467" font-size="0.011573" fill="hsl(0.0,100%,20%)">mark</text>
<text x="0.946" y="0.763" font-size="0.021651" fill="hsl(0.0,100%,20%)">danakj</text>
<text x="0.497" y="0.691" font-size="0.004725" fill="hsl(0.0,100%,20%)">garykac</text>
<text x="0.325" y="0.526" font-size="0.004725" fill="hsl(0.0,100%,20%)">khorimoto</text>
<text x="0.386" y="0.769" font-size="0.004725" fill="hsl(0.0,100%,20%)">mbonadei</text>
<text x="0.432" y="0.587" font-size="0.006682" fill="hsl(0.0,100%,20%)">rohitrao</text>
<text x="1.469" y="0.592" font-size="0.009449" fill="hsl(0.0,100%,20%)">rsesek</text>
<text x="0.178" y="0.804" font-size="0.004725" fill="hsl(0.0,100%,20%)">tedchoc</text>
<text x="0.124" y="0.575" font-size="0.004725" fill="hsl(0.0,100%,20%)">vovoy</text>
<text x="1.413" y="0.059" font-size="0.035038" fill="hsl(180.0,100%,20%)">bikineev</text>
<text x="0.821" y="0.294" font-size="0.069917" fill="hsl(180.0,100%,20%)">kdlee</text>
<text x="1.144" y="0.374" font-size="0.018898" fill="hsl(180.0,100%,20%)">richard.townsend</text>
<text x="0.222" y="0.924" font-size="0.012500" fill="hsl(0.0,100%,20%)">wfh</text>
<text x="0.608" y="0.396" font-size="0.059948" fill="hsl(180.0,100%,20%)">tasak</text>
<text x="1.372" y="0.565" font-size="0.006682" fill="hsl(180.0,100%,20%)">ajuma</text>
<text x="0.617" y="0.588" font-size="0.023146" fill="hsl(0.0,100%,20%)">dcheng</text>
<text x="0.991" y="0.626" font-size="0.066648" fill="hsl(180.0,100%,20%)">yukishiino</text>
<text x="1.189" y="0.350" font-size="0.004725" fill="hsl(180.0,100%,20%)">asully</text>
<text x="0.963" y="0.385" font-size="0.004725" fill="hsl(180.0,100%,20%)">hypan</text>
<text x="1.758" y="0.269" font-size="0.009449" fill="hsl(0.0,100%,20%)">wez</text>
<text x="1.049" y="0.326" font-size="0.012500" fill="hsl(180.0,100%,20%)">mpdenton</text>
<text x="1.378" y="0.360" font-size="0.009449" fill="hsl(180.0,100%,20%)">ssid</text>
<text x="0.692" y="0.740" font-size="0.006682" fill="hsl(0.0,100%,20%)">lukasza</text>
<text x="1.487" y="0.174" font-size="0.022658" fill="hsl(180.0,100%,20%)">mlippautz</text>
<text x="0.991" y="0.334" font-size="0.006682" fill="hsl(180.0,100%,20%)">gab</text>
<text x="0.848" y="0.168" font-size="0.011573" fill="hsl(180.0,100%,20%)">bgeffon</text>
<text x="0.091" y="0.425" font-size="0.009449" fill="hsl(0.0,100%,20%)">brucedawson</text>
<text x="1.427" y="0.600" font-size="0.006682" fill="hsl(180.0,100%,20%)">ellyjones</text>
<text x="0.049" y="0.505" font-size="0.004725" fill="hsl(0.0,100%,20%)">cassew</text>
<text x="0.824" y="0.856" font-size="0.025000" fill="hsl(0.0,100%,20%)">pkasting</text>
<text x="1.624" y="0.731" font-size="0.018898" fill="hsl(0.0,100%,20%)">dsanders11</text>
<text x="1.564" y="0.874" font-size="0.012500" fill="hsl(0.0,100%,20%)">thestig</text>
<text x="1.847" y="0.718" font-size="0.004725" fill="hsl(0.0,100%,20%)">acourbot</text>
<text x="1.784" y="0.639" font-size="0.004725" fill="hsl(0.0,100%,20%)">aleventhal</text>
<text x="1.740" y="0.595" font-size="0.004725" fill="hsl(0.0,100%,20%)">austinct</text>
<text x="1.748" y="0.785" font-size="0.004725" fill="hsl(0.0,100%,20%)">eseckler</text>
<text x="1.937" y="0.686" font-size="0.006682" fill="hsl(0.0,100%,20%)">jamiewalch</text>
<text x="1.749" y="0.766" font-size="0.004725" fill="hsl(0.0,100%,20%)">michaeldo</text>
<text x="1.901" y="0.759" font-size="0.004725" fill="hsl(0.0,100%,20%)">mmoskvitin</text>
<text x="1.727" y="0.862" font-size="0.004725" fill="hsl(0.0,100%,20%)">olivierrobin</text>
<text x="1.860" y="0.851" font-size="0.004725" fill="hsl(0.0,100%,20%)">tbansal</text>
<text x="1.643" y="0.602" font-size="0.004725" fill="hsl(0.0,100%,20%)">tguilbert</text>
<text x="1.387" y="0.584" font-size="0.008183" fill="hsl(0.0,100%,20%)">floresa</text>
<text x="0.301" y="0.228" font-size="0.010564" fill="hsl(0.0,100%,20%)">guochengwei</text>
<text x="0.305" y="0.315" font-size="0.004725" fill="hsl(0.0,100%,20%)">dnicoara</text>
<text x="1.195" y="0.252" font-size="0.006682" fill="hsl(0.0,100%,20%)">kimstephanie</text>
<text x="0.335" y="0.124" font-size="0.004725" fill="hsl(0.0,100%,20%)">smaier</text>
<text x="1.612" y="0.365" font-size="0.009449" fill="hsl(0.0,100%,20%)">hans</text>
<text x="1.156" y="0.280" font-size="0.008183" fill="hsl(0.0,100%,20%)">hnakashima</text>
<text x="1.475" y="0.545" font-size="0.026726" fill="hsl(180.0,100%,20%)">thiabaud</text>
<text x="0.725" y="0.451" font-size="0.025877" fill="hsl(180.0,100%,20%)">honokaanada</text>
<text x="0.699" y="0.165" font-size="0.006682" fill="hsl(180.0,100%,20%)">fdoray</text>
<text x="0.689" y="0.130" font-size="0.008183" fill="hsl(0.0,100%,20%)">kylechar</text>
<text x="0.873" y="0.256" font-size="0.006682" fill="hsl(180.0,100%,20%)">tkent</text>
<text x="0.746" y="0.193" font-size="0.004725" fill="hsl(180.0,100%,20%)">jochen</text>
<text x="1.033" y="0.279" font-size="0.004725" fill="hsl(180.0,100%,20%)">etienneb</text>
<text x="0.892" y="0.198" font-size="0.006682" fill="hsl(180.0,100%,20%)">metzman</text>
<text x="1.024" y="0.361" font-size="0.004725" fill="hsl(180.0,100%,20%)">altimin</text>
<text x="0.617" y="0.274" font-size="0.004725" fill="hsl(180.0,100%,20%)">erikchen</text>
<text x="0.608" y="0.241" font-size="0.004725" fill="hsl(180.0,100%,20%)">ayui</text>
<text x="0.895" y="0.175" font-size="0.004725" fill="hsl(180.0,100%,20%)">primiano</text>
<text x="0.963" y="0.316" font-size="0.004725" fill="hsl(180.0,100%,20%)">ccameron</text>
<text x="1.135" y="0.345" font-size="0.004725" fill="hsl(180.0,100%,20%)">rakina</text>
<text x="1.034" y="0.457" font-size="0.004725" fill="hsl(180.0,100%,20%)">wrong</text>
<text x="1.184" y="0.596" font-size="0.006682" fill="hsl(180.0,100%,20%)">pasko</text>
<text x="1.366" y="0.784" font-size="0.004725" fill="hsl(180.0,100%,20%)">alexilin</text>
<text x="1.180" y="0.781" font-size="0.004725" fill="hsl(180.0,100%,20%)">msramek</text>
<text x="1.084" y="0.698" font-size="0.006682" fill="hsl(180.0,100%,20%)">mamir</text>
<text x="0.325" y="0.424" font-size="0.009449" fill="hsl(0.0,100%,20%)">marshall</text>
<text x="0.343" y="0.472" font-size="0.004725" fill="hsl(0.0,100%,20%)">perrier</text>
<text x="1.899" y="0.615" font-size="0.009449" fill="hsl(180.0,100%,20%)">palmer</text>
<text x="1.715" y="0.555" font-size="0.004725" fill="hsl(180.0,100%,20%)">tsepez</text>
<text x="0.957" y="0.467" font-size="0.014174" fill="hsl(0.0,100%,20%)">paulsemel</text>
<text x="0.673" y="0.942" font-size="0.004725" fill="hsl(0.0,100%,20%)">wittman</text>
<text x="0.595" y="0.783" font-size="0.006682" fill="hsl(0.0,100%,20%)">behdadb</text>
<text x="0.587" y="0.844" font-size="0.006682" fill="hsl(0.0,100%,20%)">nicolaso</text>
<text x="0.754" y="0.963" font-size="0.004725" fill="hsl(0.0,100%,20%)">pbos</text>
<text x="1.172" y="0.305" font-size="0.009449" fill="hsl(180.0,100%,20%)">qitiezheng</text>
<text x="1.923" y="0.206" font-size="0.009449" fill="hsl(0.0,100%,20%)">rohpavone</text>
<text x="1.860" y="0.094" font-size="0.004725" fill="hsl(0.0,100%,20%)">bsheedy</text>
<text x="1.765" y="0.156" font-size="0.004725" fill="hsl(0.0,100%,20%)">johnchen</text>
<text x="0.377" y="0.936" font-size="0.017035" fill="hsl(0.0,100%,20%)">rwkeane</text>
<text x="0.190" y="0.867" font-size="0.008183" fill="hsl(0.0,100%,20%)">ajgo</text>
<text x="0.385" y="0.810" font-size="0.004725" fill="hsl(0.0,100%,20%)">ddorwin</text>
<text x="0.428" y="0.885" font-size="0.006682" fill="hsl(0.0,100%,20%)">jshin</text>
<text x="0.260" y="0.809" font-size="0.004725" fill="hsl(0.0,100%,20%)">kmarshall</text>
<text x="0.741" y="0.696" font-size="0.014940" fill="hsl(0.0,100%,20%)">saelo</text>
<text x="0.477" y="0.555" font-size="0.004725" fill="hsl(0.0,100%,20%)">cbruni</text>
<text x="1.476" y="0.560" font-size="0.011573" fill="hsl(180.0,100%,20%)">stha09</text>
<text x="0.557" y="0.365" font-size="0.004725" fill="hsl(180.0,100%,20%)">tikuta</text>
<text x="0.444" y="0.441" font-size="0.004725" fill="hsl(180.0,100%,20%)">estaab</text>
<text x="1.498" y="0.946" font-size="0.004725" fill="hsl(0.0,100%,20%)">dpranke</text>
<text x="1.636" y="0.425" font-size="0.004725" fill="hsl(180.0,100%,20%)">dgozman</text>
<text x="0.990" y="0.558" font-size="0.009449" fill="hsl(0.0,100%,20%)">wangqing-hf</text>
<text x="0.780" y="0.581" font-size="0.004725" fill="hsl(180.0,100%,20%)">rockot</text>
<text x="0.713" y="0.547" font-size="0.004725" fill="hsl(180.0,100%,20%)">meacer</text>
<text x="0.805" y="0.555" font-size="0.004725" fill="hsl(180.0,100%,20%)">victortan</text>
<text x="1.003" y="0.794" font-size="0.004725" fill="hsl(180.0,100%,20%)">sdefresne</text>
</svg>
