<svg width="4000" height="2000" viewBox="-0.025 -0.025 2.05 1.05" xmlns="http://www.w3.org/2000/svg">
  <style>
    path {
      fill: none;
      stroke-linecap: round;
      stroke-opacity: 0.4;
    }

    text {
      text-anchor: middle;
      alignment-baseline: hanging;
    }
  </style>
  <g opacity="0.4">
<path d="M1.920 0.368 Q2.011 0.298 1.894 0.238" stroke="hsl(0.0,100%,35%)" stroke-width="0.00098"></path>
<path d="M1.920 0.368 Q0.787 0.287 0.381 0.822" stroke="hsl(0.0,100%,35%)" stroke-width="0.00098"></path>
<path d="M1.920 0.368 Q1.306 0.146 0.739 0.397" stroke="hsl(0.0,100%,35%)" stroke-width="0.00098"></path>
<path d="M1.920 0.368 Q1.872 0.311 1.750 0.321" stroke="hsl(0.0,100%,35%)" stroke-width="0.00098"></path>
<path d="M1.750 0.321 Q1.888 0.309 1.894 0.238" stroke="hsl(0.0,100%,35%)" stroke-width="0.00197"></path>
<path d="M1.750 0.321 Q1.848 0.330 1.886 0.284" stroke="hsl(0.0,100%,35%)" stroke-width="0.00197"></path>
<path d="M1.750 0.321 Q1.055 0.107 0.486 0.399" stroke="hsl(0.0,100%,35%)" stroke-width="0.00197"></path>
<path d="M0.592 0.115 Q0.310 0.091 0.202 0.223" stroke="hsl(0.0,100%,35%)" stroke-width="0.00197"></path>
<path d="M0.592 0.115 Q0.186 0.132 0.131 0.334" stroke="hsl(0.0,100%,35%)" stroke-width="0.00098"></path>
<path d="M0.592 0.115 Q0.229 0.474 0.851 0.730" stroke="hsl(0.0,100%,35%)" stroke-width="0.00098"></path>
<path d="M0.592 0.115 Q0.439 0.285 0.739 0.397" stroke="hsl(0.0,100%,35%)" stroke-width="0.00098"></path>
<path d="M0.131 0.334 Q0.011 0.385 0.086 0.455" stroke="hsl(120.0,100%,35%)" stroke-width="0.01278"></path>
<path d="M0.131 0.334 Q0.254 0.293 0.202 0.223" stroke="hsl(120.0,100%,35%)" stroke-width="0.09437"></path>
<path d="M0.131 0.334 Q0.132 0.768 0.980 0.863" stroke="hsl(120.0,100%,35%)" stroke-width="0.02163"></path>
<path d="M0.131 0.334 Q0.277 0.310 0.262 0.233" stroke="hsl(120.0,100%,35%)" stroke-width="0.02163"></path>
<path d="M0.131 0.334 Q0.423 0.242 0.308 0.079" stroke="hsl(120.0,100%,35%)" stroke-width="0.00098"></path>
<path d="M0.131 0.334 Q0.083 0.360 0.123 0.389" stroke="hsl(120.0,100%,35%)" stroke-width="0.00098"></path>
<path d="M0.131 0.334 Q0.273 0.828 1.269 0.867" stroke="hsl(120.0,100%,35%)" stroke-width="0.00492"></path>
<path d="M0.131 0.334 Q0.422 0.361 0.540 0.225" stroke="hsl(120.0,100%,35%)" stroke-width="0.00295"></path>
<path d="M0.131 0.334 Q0.256 0.437 0.486 0.399" stroke="hsl(120.0,100%,35%)" stroke-width="0.04227"></path>
<path d="M0.131 0.334 Q0.322 0.352 0.400 0.263" stroke="hsl(120.0,100%,35%)" stroke-width="0.00295"></path>
<path d="M0.131 0.334 Q0.456 0.267 0.397 0.094" stroke="hsl(120.0,100%,35%)" stroke-width="0.00197"></path>
<path d="M0.131 0.334 Q0.579 0.248 0.511 0.011" stroke="hsl(120.0,100%,35%)" stroke-width="0.00197"></path>
<path d="M0.131 0.334 Q0.128 0.443 0.341 0.468" stroke="hsl(120.0,100%,35%)" stroke-width="0.00492"></path>
<path d="M0.131 0.334 Q0.091 0.429 0.268 0.469" stroke="hsl(120.0,100%,35%)" stroke-width="0.00098"></path>
<path d="M0.131 0.334 Q0.491 0.758 1.397 0.675" stroke="hsl(120.0,100%,35%)" stroke-width="0.00197"></path>
<path d="M0.131 0.334 Q0.457 0.868 1.571 0.826" stroke="hsl(120.0,100%,35%)" stroke-width="0.00098"></path>
<path d="M0.131 0.334 Q0.081 0.780 0.940 0.902" stroke="hsl(120.0,100%,35%)" stroke-width="0.00098"></path>
<path d="M0.131 0.334 Q0.197 0.361 0.265 0.335" stroke="hsl(120.0,100%,35%)" stroke-width="0.00197"></path>
<path d="M0.131 0.334 Q-0.305 0.617 0.152 0.891" stroke="hsl(120.0,100%,35%)" stroke-width="0.00197"></path>
<path d="M0.131 0.334 Q0.080 0.395 0.188 0.432" stroke="hsl(120.0,100%,35%)" stroke-width="0.00393"></path>
<path d="M0.131 0.334 Q0.866 -0.015 0.347 -0.450" stroke="hsl(120.0,100%,35%)" stroke-width="0.00098"></path>
<path d="M0.131 0.334 Q0.174 0.676 0.851 0.730" stroke="hsl(120.0,100%,35%)" stroke-width="0.00492"></path>
<path d="M0.131 0.334 Q0.290 0.329 0.316 0.251" stroke="hsl(120.0,100%,35%)" stroke-width="0.00393"></path>
<path d="M0.131 0.334 Q0.372 0.271 0.303 0.139" stroke="hsl(120.0,100%,35%)" stroke-width="0.00098"></path>
<path d="M0.131 0.334 Q0.048 0.421 0.201 0.481" stroke="hsl(120.0,100%,35%)" stroke-width="0.00098"></path>
<path d="M0.131 0.334 Q0.216 0.547 0.650 0.552" stroke="hsl(120.0,100%,35%)" stroke-width="0.00098"></path>
<path d="M0.131 0.334 Q0.426 0.259 0.345 0.099" stroke="hsl(120.0,100%,35%)" stroke-width="0.00098"></path>
<path d="M0.131 0.334 Q0.375 0.268 0.301 0.135" stroke="hsl(120.0,100%,35%)" stroke-width="0.00098"></path>
<path d="M0.131 0.334 Q0.132 0.466 0.391 0.495" stroke="hsl(120.0,100%,35%)" stroke-width="0.00393"></path>
<path d="M0.131 0.334 Q0.106 0.393 0.216 0.418" stroke="hsl(120.0,100%,35%)" stroke-width="0.00393"></path>
<path d="M0.131 0.334 Q0.343 0.337 0.396 0.234" stroke="hsl(120.0,100%,35%)" stroke-width="0.00197"></path>
<path d="M0.131 0.334 Q0.068 0.330 0.047 0.360" stroke="hsl(120.0,100%,35%)" stroke-width="0.00098"></path>
<path d="M0.131 0.334 Q0.395 0.441 0.662 0.335" stroke="hsl(120.0,100%,35%)" stroke-width="0.00295"></path>
<path d="M0.131 0.334 Q0.280 0.721 1.068 0.733" stroke="hsl(120.0,100%,35%)" stroke-width="0.00098"></path>
<path d="M0.131 0.334 Q0.384 0.487 0.739 0.397" stroke="hsl(120.0,100%,35%)" stroke-width="0.00197"></path>
<path d="M0.131 0.334 Q1.029 0.553 1.655 0.163" stroke="hsl(120.0,100%,35%)" stroke-width="0.00098"></path>
<path d="M0.131 0.334 Q0.059 0.381 0.137 0.427" stroke="hsl(120.0,100%,35%)" stroke-width="0.00197"></path>
<path d="M0.131 0.334 Q0.295 0.744 1.132 0.754" stroke="hsl(120.0,100%,35%)" stroke-width="0.00098"></path>
<path d="M0.131 0.334 Q0.119 0.403 0.252 0.423" stroke="hsl(120.0,100%,35%)" stroke-width="0.00098"></path>
<path d="M0.851 0.730 Q0.809 0.823 0.980 0.863" stroke="hsl(120.0,100%,35%)" stroke-width="0.00786"></path>
<path d="M0.851 0.730 Q0.932 0.347 0.202 0.223" stroke="hsl(120.0,100%,35%)" stroke-width="0.00688"></path>
<path d="M0.851 0.730 Q0.973 0.798 1.132 0.754" stroke="hsl(120.0,100%,35%)" stroke-width="0.00197"></path>
<path d="M0.851 0.730 Q0.792 0.709 0.738 0.733" stroke="hsl(120.0,100%,35%)" stroke-width="0.00098"></path>
<path d="M0.851 0.730 Q0.933 0.492 0.486 0.399" stroke="hsl(120.0,100%,35%)" stroke-width="0.00098"></path>
<path d="M0.851 0.730 Q0.720 0.686 0.604 0.740" stroke="hsl(120.0,100%,35%)" stroke-width="0.00098"></path>
<path d="M0.851 0.730 Q0.808 0.388 0.131 0.334" stroke="hsl(120.0,100%,35%)" stroke-width="0.00688"></path>
<path d="M0.086 0.455 Q0.205 0.403 0.131 0.334" stroke="hsl(120.0,100%,35%)" stroke-width="0.01475"></path>
<path d="M0.086 0.455 Q0.330 0.507 0.486 0.399" stroke="hsl(120.0,100%,35%)" stroke-width="0.00786"></path>
<path d="M0.086 0.455 Q0.207 0.838 0.980 0.863" stroke="hsl(120.0,100%,35%)" stroke-width="0.00197"></path>
<path d="M0.086 0.455 Q0.329 0.362 0.202 0.223" stroke="hsl(120.0,100%,35%)" stroke-width="0.00786"></path>
<path d="M0.086 0.455 Q0.364 0.399 0.316 0.251" stroke="hsl(120.0,100%,35%)" stroke-width="0.00098"></path>
<path d="M0.086 0.455 Q0.397 0.422 0.400 0.263" stroke="hsl(120.0,100%,35%)" stroke-width="0.00098"></path>
<path d="M0.086 0.455 Q0.194 0.472 0.252 0.423" stroke="hsl(120.0,100%,35%)" stroke-width="0.00098"></path>
<path d="M0.086 0.455 Q0.214 0.562 0.449 0.523" stroke="hsl(120.0,100%,35%)" stroke-width="0.00098"></path>
<path d="M0.086 0.455 Q0.352 0.379 0.262 0.233" stroke="hsl(120.0,100%,35%)" stroke-width="0.00295"></path>
<path d="M0.086 0.455 Q0.203 0.513 0.341 0.468" stroke="hsl(120.0,100%,35%)" stroke-width="0.00197"></path>
<path d="M0.086 0.455 Q0.181 0.462 0.216 0.418" stroke="hsl(120.0,100%,35%)" stroke-width="0.00295"></path>
<path d="M0.980 0.863 Q0.979 0.428 0.131 0.334" stroke="hsl(120.0,100%,35%)" stroke-width="0.02654"></path>
<path d="M0.980 0.863 Q1.103 0.388 0.202 0.223" stroke="hsl(120.0,100%,35%)" stroke-width="0.07766"></path>
<path d="M0.980 0.863 Q1.022 0.771 0.851 0.730" stroke="hsl(120.0,100%,35%)" stroke-width="0.09241"></path>
<path d="M0.980 0.863 Q1.171 0.794 1.079 0.686" stroke="hsl(120.0,100%,35%)" stroke-width="0.00098"></path>
<path d="M0.980 0.863 Q1.143 0.846 1.146 0.763" stroke="hsl(120.0,100%,35%)" stroke-width="0.00098"></path>
<path d="M0.980 0.863 Q1.104 0.532 0.486 0.399" stroke="hsl(120.0,100%,35%)" stroke-width="0.00688"></path>
<path d="M0.980 0.863 Q1.095 0.851 1.096 0.793" stroke="hsl(120.0,100%,35%)" stroke-width="0.00197"></path>
<path d="M0.980 0.863 Q0.929 0.875 0.940 0.902" stroke="hsl(120.0,100%,35%)" stroke-width="0.00098"></path>
<path d="M0.980 0.863 Q1.122 0.923 1.269 0.867" stroke="hsl(120.0,100%,35%)" stroke-width="0.00492"></path>
<path d="M0.980 0.863 Q0.987 0.587 0.449 0.523" stroke="hsl(120.0,100%,35%)" stroke-width="0.00098"></path>
<path d="M0.980 0.863 Q0.977 0.538 0.341 0.468" stroke="hsl(120.0,100%,35%)" stroke-width="0.00098"></path>
<path d="M0.980 0.863 Q1.272 0.337 0.308 0.079" stroke="hsl(120.0,100%,35%)" stroke-width="0.00098"></path>
<path d="M0.980 0.863 Q1.128 0.816 1.068 0.733" stroke="hsl(120.0,100%,35%)" stroke-width="0.00098"></path>
<path d="M0.980 0.863 Q0.963 0.750 0.738 0.733" stroke="hsl(120.0,100%,35%)" stroke-width="0.00098"></path>
<path d="M0.980 0.863 Q1.144 0.839 1.132 0.754" stroke="hsl(120.0,100%,35%)" stroke-width="0.00098"></path>
<path d="M0.980 0.863 Q1.126 0.404 0.262 0.233" stroke="hsl(120.0,100%,35%)" stroke-width="0.00098"></path>
<path d="M0.262 0.233 Q0.241 0.361 0.486 0.399" stroke="hsl(120.0,100%,35%)" stroke-width="0.00197"></path>
<path d="M0.262 0.233 Q0.239 0.216 0.202 0.223" stroke="hsl(120.0,100%,35%)" stroke-width="0.01180"></path>
<path d="M0.262 0.233 Q0.116 0.257 0.131 0.334" stroke="hsl(120.0,100%,35%)" stroke-width="0.01180"></path>
<path d="M0.262 0.233 Q0.113 0.366 0.341 0.468" stroke="hsl(120.0,100%,35%)" stroke-width="0.00295"></path>
<path d="M0.486 0.399 Q0.361 0.295 0.131 0.334" stroke="hsl(120.0,100%,35%)" stroke-width="0.05210"></path>
<path d="M0.486 0.399 Q0.484 0.255 0.202 0.223" stroke="hsl(120.0,100%,35%)" stroke-width="0.07865"></path>
<path d="M0.486 0.399 Q0.362 0.730 0.980 0.863" stroke="hsl(120.0,100%,35%)" stroke-width="0.00197"></path>
<path d="M0.486 0.399 Q0.336 0.355 0.216 0.418" stroke="hsl(120.0,100%,35%)" stroke-width="0.02458"></path>
<path d="M0.486 0.399 Q0.525 0.456 0.644 0.449" stroke="hsl(120.0,100%,35%)" stroke-width="0.00098"></path>
<path d="M0.486 0.399 Q0.349 0.365 0.252 0.423" stroke="hsl(120.0,100%,35%)" stroke-width="0.00688"></path>
<path d="M0.486 0.399 Q0.547 0.457 0.673 0.439" stroke="hsl(120.0,100%,35%)" stroke-width="0.00590"></path>
<path d="M0.486 0.399 Q0.953 0.685 1.613 0.520" stroke="hsl(120.0,100%,35%)" stroke-width="0.00197"></path>
<path d="M0.486 0.399 Q0.057 0.447 0.056 0.667" stroke="hsl(120.0,100%,35%)" stroke-width="0.00197"></path>
<path d="M0.486 0.399 Q0.358 0.405 0.341 0.468" stroke="hsl(120.0,100%,35%)" stroke-width="0.00492"></path>
<path d="M0.486 0.399 Q0.302 0.402 0.268 0.492" stroke="hsl(120.0,100%,35%)" stroke-width="0.00098"></path>
<path d="M0.486 0.399 Q0.567 0.469 0.721 0.445" stroke="hsl(120.0,100%,35%)" stroke-width="0.00295"></path>
<path d="M0.486 0.399 Q0.241 0.347 0.086 0.455" stroke="hsl(120.0,100%,35%)" stroke-width="0.00197"></path>
<path d="M0.486 0.399 Q1.057 0.602 1.579 0.368" stroke="hsl(120.0,100%,35%)" stroke-width="0.00098"></path>
<path d="M0.486 0.399 Q0.571 0.474 0.735 0.448" stroke="hsl(120.0,100%,35%)" stroke-width="0.00098"></path>
<path d="M0.486 0.399 Q0.469 0.449 0.563 0.468" stroke="hsl(120.0,100%,35%)" stroke-width="0.00098"></path>
<path d="M0.486 0.399 Q-0.037 0.533 0.109 0.817" stroke="hsl(120.0,100%,35%)" stroke-width="0.00098"></path>
<path d="M0.486 0.399 Q0.362 0.428 0.391 0.495" stroke="hsl(120.0,100%,35%)" stroke-width="0.00983"></path>
<path d="M0.486 0.399 Q0.558 0.440 0.655 0.414" stroke="hsl(120.0,100%,35%)" stroke-width="0.00098"></path>
<path d="M0.486 0.399 Q0.369 0.454 0.449 0.523" stroke="hsl(120.0,100%,35%)" stroke-width="0.00098"></path>
<path d="M0.486 0.399 Q0.425 0.411 0.435 0.444" stroke="hsl(120.0,100%,35%)" stroke-width="0.00098"></path>
<path d="M0.486 0.399 Q0.359 0.452 0.435 0.526" stroke="hsl(120.0,100%,35%)" stroke-width="0.00098"></path>
<path d="M0.486 0.399 Q0.809 0.210 0.511 0.011" stroke="hsl(120.0,100%,35%)" stroke-width="0.00098"></path>
<path d="M0.486 0.399 Q0.614 0.449 0.739 0.397" stroke="hsl(120.0,100%,35%)" stroke-width="0.00098"></path>
<path d="M0.486 0.399 Q0.432 0.395 0.413 0.420" stroke="hsl(120.0,100%,35%)" stroke-width="0.00098"></path>
<path d="M0.486 0.399 Q0.862 0.504 1.149 0.344" stroke="hsl(120.0,100%,35%)" stroke-width="0.00098"></path>
<path d="M0.486 0.399 Q0.446 0.508 0.650 0.552" stroke="hsl(120.0,100%,35%)" stroke-width="0.00098"></path>
<path d="M0.486 0.399 Q1.259 0.515 1.655 0.163" stroke="hsl(120.0,100%,35%)" stroke-width="0.00098"></path>
<path d="M0.486 0.399 Q0.721 0.719 1.397 0.675" stroke="hsl(120.0,100%,35%)" stroke-width="0.00098"></path>
<path d="M0.486 0.399 Q0.507 0.271 0.262 0.233" stroke="hsl(120.0,100%,35%)" stroke-width="0.00197"></path>
<path d="M0.486 0.399 Q0.417 0.395 0.395 0.428" stroke="hsl(120.0,100%,35%)" stroke-width="0.00098"></path>
<path d="M0.486 0.399 Q0.503 0.790 1.269 0.867" stroke="hsl(120.0,100%,35%)" stroke-width="0.00098"></path>
<path d="M0.152 0.891 Q0.190 0.845 0.109 0.817" stroke="hsl(0.0,100%,35%)" stroke-width="0.00197"></path>
<path d="M0.152 0.891 Q1.180 0.998 1.613 0.520" stroke="hsl(0.0,100%,35%)" stroke-width="0.00098"></path>
<path d="M0.152 0.891 Q0.712 0.712 0.486 0.399" stroke="hsl(0.0,100%,35%)" stroke-width="0.00098"></path>
<path d="M0.391 0.495 Q0.390 0.362 0.131 0.334" stroke="hsl(120.0,100%,35%)" stroke-width="0.00197"></path>
<path d="M0.391 0.495 Q0.891 0.571 1.149 0.344" stroke="hsl(120.0,100%,35%)" stroke-width="0.00098"></path>
<path d="M0.391 0.495 Q0.514 0.321 0.202 0.223" stroke="hsl(120.0,100%,35%)" stroke-width="0.00688"></path>
<path d="M0.391 0.495 Q0.643 0.516 0.739 0.397" stroke="hsl(120.0,100%,35%)" stroke-width="0.00098"></path>
<path d="M0.391 0.495 Q0.515 0.466 0.486 0.399" stroke="hsl(120.0,100%,35%)" stroke-width="0.00197"></path>
<path d="M0.391 0.495 Q0.581 0.381 0.400 0.263" stroke="hsl(120.0,100%,35%)" stroke-width="0.00098"></path>
<path d="M0.391 0.495 Q0.124 0.657 0.381 0.822" stroke="hsl(120.0,100%,35%)" stroke-width="0.00098"></path>
<path d="M0.391 0.495 Q0.532 0.857 1.269 0.867" stroke="hsl(120.0,100%,35%)" stroke-width="0.00098"></path>
<path d="M0.216 0.418 Q0.241 0.359 0.131 0.334" stroke="hsl(120.0,100%,35%)" stroke-width="0.00590"></path>
<path d="M0.216 0.418 Q0.366 0.462 0.486 0.399" stroke="hsl(120.0,100%,35%)" stroke-width="0.00786"></path>
<path d="M0.216 0.418 Q0.238 0.468 0.341 0.468" stroke="hsl(120.0,100%,35%)" stroke-width="0.00098"></path>
<path d="M0.216 0.418 Q0.094 0.467 0.162 0.537" stroke="hsl(120.0,100%,35%)" stroke-width="0.00098"></path>
<path d="M0.216 0.418 Q0.364 0.318 0.202 0.223" stroke="hsl(120.0,100%,35%)" stroke-width="0.00393"></path>
<path d="M1.132 0.754 Q0.969 0.778 0.980 0.863" stroke="hsl(120.0,100%,35%)" stroke-width="0.00295"></path>
<path d="M1.132 0.754 Q1.091 0.303 0.202 0.223" stroke="hsl(120.0,100%,35%)" stroke-width="0.00197"></path>
<path d="M1.132 0.754 Q1.010 0.686 0.851 0.730" stroke="hsl(120.0,100%,35%)" stroke-width="0.00295"></path>
<path d="M1.149 0.344 Q0.649 0.268 0.391 0.495" stroke="hsl(120.0,100%,35%)" stroke-width="0.00295"></path>
<path d="M1.149 0.344 Q1.089 0.210 0.815 0.210" stroke="hsl(120.0,100%,35%)" stroke-width="0.00197"></path>
<path d="M1.149 0.344 Q0.901 0.289 0.739 0.397" stroke="hsl(120.0,100%,35%)" stroke-width="0.00098"></path>
<path d="M1.149 0.344 Q0.649 0.570 0.980 0.863" stroke="hsl(120.0,100%,35%)" stroke-width="0.00197"></path>
<path d="M1.149 0.344 Q0.772 0.094 0.202 0.223" stroke="hsl(120.0,100%,35%)" stroke-width="0.00098"></path>
<path d="M1.149 0.344 Q1.240 0.525 1.613 0.520" stroke="hsl(120.0,100%,35%)" stroke-width="0.00098"></path>
<path d="M1.149 0.344 Q0.648 0.135 0.131 0.334" stroke="hsl(120.0,100%,35%)" stroke-width="0.00098"></path>
<path d="M1.149 0.344 Q0.790 0.630 1.269 0.867" stroke="hsl(120.0,100%,35%)" stroke-width="0.00197"></path>
<path d="M0.426 0.918 Q0.871 0.671 0.486 0.399" stroke="hsl(0.0,100%,35%)" stroke-width="0.00197"></path>
<path d="M0.426 0.918 Q0.515 0.929 0.556 0.888" stroke="hsl(0.0,100%,35%)" stroke-width="0.00098"></path>
<path d="M0.426 0.918 Q0.747 0.700 0.391 0.495" stroke="hsl(0.0,100%,35%)" stroke-width="0.00098"></path>
<path d="M0.426 0.918 Q0.480 0.861 0.381 0.822" stroke="hsl(0.0,100%,35%)" stroke-width="0.00197"></path>
<path d="M0.426 0.918 Q0.746 0.567 0.131 0.334" stroke="hsl(0.0,100%,35%)" stroke-width="0.00098"></path>
<path d="M1.361 0.455 Q0.840 0.258 0.341 0.468" stroke="hsl(0.0,100%,35%)" stroke-width="0.00098"></path>
<path d="M1.361 0.455 Q0.968 0.252 0.486 0.399" stroke="hsl(0.0,100%,35%)" stroke-width="0.00098"></path>
<path d="M1.361 0.455 Q1.435 0.538 1.613 0.520" stroke="hsl(0.0,100%,35%)" stroke-width="0.00098"></path>
<path d="M0.460 0.446 Q0.385 0.324 0.131 0.334" stroke="hsl(120.0,100%,35%)" stroke-width="0.01180"></path>
<path d="M0.460 0.446 Q0.508 0.283 0.202 0.223" stroke="hsl(120.0,100%,35%)" stroke-width="0.00885"></path>
<path d="M0.460 0.446 Q0.510 0.428 0.486 0.399" stroke="hsl(120.0,100%,35%)" stroke-width="0.00492"></path>
<path d="M0.460 0.446 Q0.382 0.433 0.341 0.468" stroke="hsl(120.0,100%,35%)" stroke-width="0.00098"></path>
<path d="M0.460 0.446 Q0.527 0.818 1.269 0.867" stroke="hsl(120.0,100%,35%)" stroke-width="0.00098"></path>
<path d="M0.460 0.446 Q0.649 0.431 0.662 0.335" stroke="hsl(120.0,100%,35%)" stroke-width="0.00098"></path>
<path d="M1.303 0.572 Q0.907 0.218 0.131 0.334" stroke="hsl(0.0,100%,35%)" stroke-width="0.00098"></path>
<path d="M1.303 0.572 Q1.267 0.642 1.397 0.675" stroke="hsl(0.0,100%,35%)" stroke-width="0.00098"></path>
<path d="M1.303 0.572 Q0.905 0.328 0.341 0.468" stroke="hsl(0.0,100%,35%)" stroke-width="0.00098"></path>
<path d="M1.957 0.659 Q1.990 0.626 1.932 0.602" stroke="hsl(240.0,100%,35%)" stroke-width="0.00098"></path>
<path d="M1.957 0.659 Q1.428 0.090 0.202 0.223" stroke="hsl(240.0,100%,35%)" stroke-width="0.00098"></path>
<path d="M1.957 0.659 Q2.072 0.596 1.975 0.527" stroke="hsl(240.0,100%,35%)" stroke-width="0.00098"></path>
<path d="M0.056 0.667 Q0.484 0.474 0.202 0.223" stroke="hsl(120.0,100%,35%)" stroke-width="0.00295"></path>
<path d="M0.056 0.667 Q0.485 0.619 0.486 0.399" stroke="hsl(120.0,100%,35%)" stroke-width="0.00295"></path>
<path d="M0.056 0.667 Q0.108 0.633 0.052 0.600" stroke="hsl(120.0,100%,35%)" stroke-width="0.00197"></path>
<path d="M0.056 0.667 Q0.349 0.584 0.252 0.423" stroke="hsl(120.0,100%,35%)" stroke-width="0.00197"></path>
<path d="M0.056 0.667 Q0.132 0.686 0.185 0.653" stroke="hsl(120.0,100%,35%)" stroke-width="0.00098"></path>
<path d="M1.579 0.368 Q0.884 0.496 0.980 0.863" stroke="hsl(0.0,100%,35%)" stroke-width="0.00098"></path>
<path d="M1.579 0.368 Q0.485 0.298 0.109 0.817" stroke="hsl(0.0,100%,35%)" stroke-width="0.00098"></path>
<path d="M1.579 0.368 Q1.503 0.321 1.394 0.348" stroke="hsl(0.0,100%,35%)" stroke-width="0.00098"></path>
<path d="M1.579 0.368 Q1.006 0.020 0.202 0.223" stroke="hsl(0.0,100%,35%)" stroke-width="0.00098"></path>
<path d="M1.579 0.368 Q1.136 0.215 0.739 0.397" stroke="hsl(0.0,100%,35%)" stroke-width="0.00098"></path>
<path d="M1.579 0.368 Q1.609 0.291 1.466 0.260" stroke="hsl(0.0,100%,35%)" stroke-width="0.00098"></path>
<path d="M1.579 0.368 Q1.386 0.338 1.285 0.426" stroke="hsl(0.0,100%,35%)" stroke-width="0.00098"></path>
<path d="M1.579 0.368 Q1.475 0.451 1.613 0.520" stroke="hsl(0.0,100%,35%)" stroke-width="0.00197"></path>
<path d="M1.579 0.368 Q1.687 0.310 1.597 0.244" stroke="hsl(0.0,100%,35%)" stroke-width="0.00295"></path>
<path d="M1.579 0.368 Q0.617 0.356 0.381 0.822" stroke="hsl(0.0,100%,35%)" stroke-width="0.00098"></path>
<path d="M1.579 0.368 Q1.607 0.454 1.780 0.459" stroke="hsl(0.0,100%,35%)" stroke-width="0.00098"></path>
<path d="M1.579 0.368 Q1.402 0.582 1.781 0.716" stroke="hsl(0.0,100%,35%)" stroke-width="0.00098"></path>
<path d="M1.781 0.716 Q2.066 0.443 1.597 0.244" stroke="hsl(0.0,100%,35%)" stroke-width="0.00098"></path>
<path d="M1.781 0.716 Q1.554 0.103 0.308 0.079" stroke="hsl(0.0,100%,35%)" stroke-width="0.00098"></path>
<path d="M1.781 0.716 Q1.385 0.154 0.202 0.223" stroke="hsl(0.0,100%,35%)" stroke-width="0.00098"></path>
<path d="M1.781 0.716 Q1.588 0.729 1.571 0.826" stroke="hsl(0.0,100%,35%)" stroke-width="0.00098"></path>
<path d="M1.781 0.716 Q1.211 0.641 0.940 0.902" stroke="hsl(0.0,100%,35%)" stroke-width="0.00098"></path>
<path d="M1.781 0.716 Q1.622 0.619 1.397 0.675" stroke="hsl(0.0,100%,35%)" stroke-width="0.00197"></path>
<path d="M1.781 0.716 Q1.270 0.353 0.449 0.523" stroke="hsl(0.0,100%,35%)" stroke-width="0.00098"></path>
<path d="M1.781 0.716 Q1.668 0.707 1.626 0.761" stroke="hsl(0.0,100%,35%)" stroke-width="0.00098"></path>
<path d="M1.781 0.716 Q1.756 0.631 1.585 0.624" stroke="hsl(0.0,100%,35%)" stroke-width="0.00098"></path>
<path d="M1.781 0.716 Q1.846 0.655 1.742 0.611" stroke="hsl(0.0,100%,35%)" stroke-width="0.00098"></path>
<path d="M1.781 0.716 Q2.179 0.521 1.886 0.284" stroke="hsl(0.0,100%,35%)" stroke-width="0.00098"></path>
<path d="M1.781 0.716 Q1.825 0.770 1.940 0.760" stroke="hsl(0.0,100%,35%)" stroke-width="0.00098"></path>
<path d="M1.781 0.716 Q1.672 0.675 1.569 0.720" stroke="hsl(0.0,100%,35%)" stroke-width="0.00098"></path>
<path d="M1.781 0.716 Q1.655 0.795 1.782 0.874" stroke="hsl(0.0,100%,35%)" stroke-width="0.00098"></path>
<path d="M1.242 0.911 Q1.148 0.400 0.131 0.334" stroke="hsl(0.0,100%,35%)" stroke-width="0.00098"></path>
<path d="M1.242 0.911 Q1.149 0.835 0.980 0.863" stroke="hsl(0.0,100%,35%)" stroke-width="0.00098"></path>
<path d="M1.242 0.911 Q1.272 0.359 0.202 0.223" stroke="hsl(0.0,100%,35%)" stroke-width="0.00098"></path>
<path d="M1.242 0.911 Q0.882 0.694 0.381 0.822" stroke="hsl(0.0,100%,35%)" stroke-width="0.00098"></path>
<path d="M1.819 0.114 Q0.799 -0.114 0.131 0.334" stroke="hsl(120.0,100%,35%)" stroke-width="0.00098"></path>
<path d="M1.819 0.114 Q0.924 -0.010 0.486 0.399" stroke="hsl(120.0,100%,35%)" stroke-width="0.00098"></path>
<path d="M1.819 0.114 Q1.698 0.106 1.655 0.163" stroke="hsl(120.0,100%,35%)" stroke-width="0.00295"></path>
<path d="M1.819 0.114 Q0.923 -0.155 0.202 0.223" stroke="hsl(120.0,100%,35%)" stroke-width="0.00197"></path>
<path d="M0.432 0.165 Q0.146 0.189 0.131 0.334" stroke="hsl(120.0,100%,35%)" stroke-width="0.00295"></path>
<path d="M0.432 0.165 Q0.147 0.624 0.980 0.863" stroke="hsl(120.0,100%,35%)" stroke-width="0.00098"></path>
<path d="M0.432 0.165 Q0.438 0.217 0.540 0.225" stroke="hsl(120.0,100%,35%)" stroke-width="0.00098"></path>
<path d="M0.432 0.165 Q0.269 0.148 0.202 0.223" stroke="hsl(120.0,100%,35%)" stroke-width="0.00197"></path>
<path d="M0.432 0.165 Q0.337 0.207 0.400 0.263" stroke="hsl(120.0,100%,35%)" stroke-width="0.00098"></path>
<path d="M0.432 0.165 Q0.271 0.293 0.486 0.399" stroke="hsl(120.0,100%,35%)" stroke-width="0.00295"></path>
<path d="M0.432 0.165 Q0.189 0.531 0.851 0.730" stroke="hsl(120.0,100%,35%)" stroke-width="0.00098"></path>
<path d="M0.432 0.165 Q0.292 0.165 0.262 0.233" stroke="hsl(120.0,100%,35%)" stroke-width="0.00098"></path>
<path d="M1.432 0.933 Q1.258 0.482 0.341 0.468" stroke="hsl(0.0,100%,35%)" stroke-width="0.00098"></path>
<path d="M1.432 0.933 Q1.322 0.933 1.298 0.986" stroke="hsl(0.0,100%,35%)" stroke-width="0.00098"></path>
<path d="M1.432 0.933 Q0.825 0.656 0.152 0.891" stroke="hsl(0.0,100%,35%)" stroke-width="0.00098"></path>
<path d="M0.941 0.681 Q0.814 0.346 0.131 0.334" stroke="hsl(120.0,100%,35%)" stroke-width="0.00098"></path>
<path d="M0.941 0.681 Q0.815 0.780 0.980 0.863" stroke="hsl(120.0,100%,35%)" stroke-width="0.00295"></path>
<path d="M0.941 0.681 Q0.937 0.305 0.202 0.223" stroke="hsl(120.0,100%,35%)" stroke-width="0.00098"></path>
<path d="M0.941 0.681 Q0.857 0.688 0.851 0.730" stroke="hsl(120.0,100%,35%)" stroke-width="0.00197"></path>
</g>
<text x="1.920" y="0.364" font-size="0.008913" fill="hsl(0.0,100%,20%)">abarth</text>
<text x="1.894" y="0.234" font-size="0.007719" fill="hsl(0.0,100%,20%)">ddorwin</text>
<text x="0.381" y="0.817" font-size="0.010916" fill="hsl(0.0,100%,20%)">tsepez</text>
<text x="0.739" y="0.391" font-size="0.012605" fill="hsl(0.0,100%,20%)">wez</text>
<text x="1.750" y="0.315" font-size="0.011791" fill="hsl(0.0,100%,20%)">kmarshall</text>
<text x="0.592" y="0.110" font-size="0.009965" fill="hsl(0.0,100%,20%)">andre.kempe</text>
<text x="0.202" y="0.184" font-size="0.079597" fill="hsl(120.0,100%,20%)">haraken</text>
<text x="0.131" y="0.288" font-size="0.090458" fill="hsl(120.0,100%,20%)">bartekn</text>
<text x="0.851" y="0.705" font-size="0.051396" fill="hsl(120.0,100%,20%)">mlippautz</text>
<text x="0.086" y="0.438" font-size="0.034520" fill="hsl(120.0,100%,20%)">keishi</text>
<text x="0.980" y="0.827" font-size="0.073093" fill="hsl(120.0,100%,20%)">bikineev</text>
<text x="0.262" y="0.216" font-size="0.033940" fill="hsl(120.0,100%,20%)">tasak</text>
<text x="0.308" y="0.075" font-size="0.007719" fill="hsl(0.0,100%,20%)">gab</text>
<text x="0.123" y="0.386" font-size="0.004457" fill="hsl(120.0,100%,20%)">gbeaty</text>
<text x="1.269" y="0.858" font-size="0.017260" fill="hsl(120.0,100%,20%)">wfh</text>
<text x="0.540" y="0.221" font-size="0.008913" fill="hsl(120.0,100%,20%)">erikchen</text>
<text x="0.486" y="0.360" font-size="0.078085" fill="hsl(120.0,100%,20%)">lizeb</text>
<text x="0.400" y="0.258" font-size="0.010916" fill="hsl(120.0,100%,20%)">mpdenton</text>
<text x="0.397" y="0.091" font-size="0.006303" fill="hsl(120.0,100%,20%)">agl</text>
<text x="0.511" y="0.007" font-size="0.007719" fill="hsl(120.0,100%,20%)">agrieve</text>
<text x="0.341" y="0.458" font-size="0.020423" fill="hsl(120.0,100%,20%)">dcheng</text>
<text x="0.268" y="0.467" font-size="0.004457" fill="hsl(120.0,100%,20%)">yukiy</text>
<text x="1.397" y="0.670" font-size="0.010916" fill="hsl(0.0,100%,20%)">danakj</text>
<text x="1.571" y="0.823" font-size="0.006303" fill="hsl(0.0,100%,20%)">kinuko</text>
<text x="0.940" y="0.898" font-size="0.007719" fill="hsl(0.0,100%,20%)">lukasza</text>
<text x="0.265" y="0.332" font-size="0.006303" fill="hsl(120.0,100%,20%)">tikuta</text>
<text x="0.152" y="0.885" font-size="0.011791" fill="hsl(0.0,100%,20%)">mark</text>
<text x="0.188" y="0.428" font-size="0.008913" fill="hsl(120.0,100%,20%)">sebmarchand</text>
<text x="0.347" y="-0.452" font-size="0.004457" fill="hsl(120.0,100%,20%)">sweilun</text>
<text x="0.316" y="0.246" font-size="0.009965" fill="hsl(120.0,100%,20%)">isherman</text>
<text x="0.303" y="0.137" font-size="0.004457" fill="hsl(120.0,100%,20%)">jbroman</text>
<text x="0.201" y="0.478" font-size="0.004457" fill="hsl(120.0,100%,20%)">asvitkine</text>
<text x="0.650" y="0.549" font-size="0.006303" fill="hsl(120.0,100%,20%)">grt</text>
<text x="0.345" y="0.096" font-size="0.004457" fill="hsl(120.0,100%,20%)">robertshield</text>
<text x="0.301" y="0.133" font-size="0.004457" fill="hsl(120.0,100%,20%)">ydago</text>
<text x="0.391" y="0.482" font-size="0.025986" fill="hsl(120.0,100%,20%)">palmer</text>
<text x="0.216" y="0.402" font-size="0.032137" fill="hsl(120.0,100%,20%)">yukishiino</text>
<text x="0.396" y="0.231" font-size="0.006303" fill="hsl(120.0,100%,20%)">yutak</text>
<text x="0.047" y="0.357" font-size="0.004457" fill="hsl(120.0,100%,20%)">primiano</text>
<text x="0.662" y="0.331" font-size="0.008913" fill="hsl(120.0,100%,20%)">rockot</text>
<text x="1.068" y="0.730" font-size="0.006303" fill="hsl(120.0,100%,20%)">holte</text>
<text x="1.655" y="0.158" font-size="0.009965" fill="hsl(120.0,100%,20%)">ajwong</text>
<text x="0.137" y="0.424" font-size="0.006303" fill="hsl(120.0,100%,20%)">rmcilroy</text>
<text x="1.132" y="0.746" font-size="0.015438" fill="hsl(120.0,100%,20%)">hpayer</text>
<text x="0.252" y="0.416" font-size="0.014781" fill="hsl(120.0,100%,20%)">ssid</text>
<text x="1.079" y="0.684" font-size="0.004457" fill="hsl(120.0,100%,20%)">oysteine</text>
<text x="1.146" y="0.761" font-size="0.004457" fill="hsl(120.0,100%,20%)">altimin</text>
<text x="1.096" y="0.790" font-size="0.006303" fill="hsl(120.0,100%,20%)">creis</text>
<text x="0.449" y="0.518" font-size="0.008913" fill="hsl(0.0,100%,20%)">fdoray</text>
<text x="0.738" y="0.730" font-size="0.006303" fill="hsl(120.0,100%,20%)">ulan</text>
<text x="1.149" y="0.335" font-size="0.017260" fill="hsl(120.0,100%,20%)">brucedawson</text>
<text x="0.815" y="0.207" font-size="0.006303" fill="hsl(120.0,100%,20%)">avi</text>
<text x="1.613" y="0.514" font-size="0.011791" fill="hsl(0.0,100%,20%)">thakis</text>
<text x="0.426" y="0.912" font-size="0.011791" fill="hsl(0.0,100%,20%)">ellyjones</text>
<text x="0.556" y="0.886" font-size="0.004457" fill="hsl(0.0,100%,20%)">tkent</text>
<text x="1.361" y="0.451" font-size="0.007719" fill="hsl(0.0,100%,20%)">gabor.kertesz</text>
<text x="0.460" y="0.434" font-size="0.023999" fill="hsl(120.0,100%,20%)">glazunov</text>
<text x="1.303" y="0.568" font-size="0.007719" fill="hsl(0.0,100%,20%)">jannh</text>
<text x="1.957" y="0.655" font-size="0.007719" fill="hsl(240.0,100%,20%)">kbr</text>
<text x="1.932" y="0.600" font-size="0.004457" fill="hsl(240.0,100%,20%)">ccameron</text>
<text x="1.975" y="0.524" font-size="0.004457" fill="hsl(240.0,100%,20%)">martiniss</text>
<text x="1.886" y="0.280" font-size="0.007719" fill="hsl(0.0,100%,20%)">kylechar</text>
<text x="0.644" y="0.447" font-size="0.004457" fill="hsl(120.0,100%,20%)">amraboelkher</text>
<text x="0.673" y="0.434" font-size="0.010916" fill="hsl(120.0,100%,20%)">pasko</text>
<text x="0.056" y="0.659" font-size="0.016068" fill="hsl(120.0,100%,20%)">thiabaud</text>
<text x="0.268" y="0.490" font-size="0.004457" fill="hsl(120.0,100%,20%)">skyostil</text>
<text x="0.721" y="0.441" font-size="0.007719" fill="hsl(120.0,100%,20%)">arthursonzogni</text>
<text x="1.579" y="0.359" font-size="0.017826" fill="hsl(0.0,100%,20%)">thestig</text>
<text x="0.735" y="0.446" font-size="0.004457" fill="hsl(120.0,100%,20%)">asully</text>
<text x="0.563" y="0.466" font-size="0.004457" fill="hsl(120.0,100%,20%)">etiennep</text>
<text x="0.109" y="0.812" font-size="0.008913" fill="hsl(0.0,100%,20%)">rsesek</text>
<text x="0.655" y="0.412" font-size="0.004457" fill="hsl(120.0,100%,20%)">caitlinfischer</text>
<text x="0.435" y="0.442" font-size="0.004457" fill="hsl(120.0,100%,20%)">sinansahin</text>
<text x="0.435" y="0.524" font-size="0.004457" fill="hsl(120.0,100%,20%)">alexilin</text>
<text x="0.413" y="0.418" font-size="0.004457" fill="hsl(120.0,100%,20%)">hendrich</text>
<text x="0.395" y="0.426" font-size="0.004457" fill="hsl(120.0,100%,20%)">jwd</text>
<text x="0.604" y="0.738" font-size="0.004457" fill="hsl(120.0,100%,20%)">eseckler</text>
<text x="1.781" y="0.707" font-size="0.017826" fill="hsl(0.0,100%,20%)">pkasting</text>
<text x="1.597" y="0.240" font-size="0.008913" fill="hsl(0.0,100%,20%)">pbos</text>
<text x="1.626" y="0.758" font-size="0.004457" fill="hsl(0.0,100%,20%)">abigailbklein</text>
<text x="1.585" y="0.622" font-size="0.004457" fill="hsl(0.0,100%,20%)">bajones</text>
<text x="1.742" y="0.608" font-size="0.004457" fill="hsl(0.0,100%,20%)">droger</text>
<text x="1.940" y="0.758" font-size="0.004457" fill="hsl(0.0,100%,20%)">renjietang</text>
<text x="1.569" y="0.717" font-size="0.004457" fill="hsl(0.0,100%,20%)">sadrul</text>
<text x="1.782" y="0.872" font-size="0.004457" fill="hsl(0.0,100%,20%)">sandersd</text>
<text x="1.242" y="0.906" font-size="0.008913" fill="hsl(0.0,100%,20%)">ptworek</text>
<text x="1.819" y="0.108" font-size="0.011791" fill="hsl(120.0,100%,20%)">richard.townsend</text>
<text x="0.432" y="0.157" font-size="0.016068" fill="hsl(120.0,100%,20%)">saelo</text>
<text x="1.432" y="0.929" font-size="0.007719" fill="hsl(0.0,100%,20%)">ssyed</text>
<text x="1.298" y="0.984" font-size="0.004457" fill="hsl(0.0,100%,20%)">abhijeet</text>
<text x="0.941" y="0.675" font-size="0.011791" fill="hsl(120.0,100%,20%)">stha09</text>
<text x="1.394" y="0.346" font-size="0.004457" fill="hsl(0.0,100%,20%)">sunnyps</text>
<text x="1.466" y="0.258" font-size="0.004457" fill="hsl(0.0,100%,20%)">sammc</text>
<text x="1.285" y="0.424" font-size="0.004457" fill="hsl(0.0,100%,20%)">sdefresne</text>
<text x="1.780" y="0.457" font-size="0.004457" fill="hsl(0.0,100%,20%)">ajgo</text>
<text x="0.052" y="0.597" font-size="0.006303" fill="hsl(120.0,100%,20%)">rkaplow</text>
<text x="0.185" y="0.651" font-size="0.004457" fill="hsl(120.0,100%,20%)">chanli</text>
<text x="0.162" y="0.535" font-size="0.004457" fill="hsl(120.0,100%,20%)">dpranke</text>
</svg>
