<svg width="4000" height="2000" viewBox="-0.025 -0.025 2.05 1.05" xmlns="http://www.w3.org/2000/svg">
  <style>
    path {
      fill: none;
      stroke-linecap: round;
      stroke-opacity: 0.4;
    }

    text {
      text-anchor: middle;
      alignment-baseline: hanging;
    }
  </style>
  <g opacity="0.4">
<path d="M1.275 0.434 Q1.264 0.560 1.507 0.592" stroke="hsl(0.0,100%,35%)" stroke-width="0.02694"></path>
<path d="M1.275 0.434 Q0.520 0.433 0.353 0.801" stroke="hsl(0.0,100%,35%)" stroke-width="0.00539"></path>
<path d="M1.275 0.434 Q1.429 0.351 1.301 0.257" stroke="hsl(0.0,100%,35%)" stroke-width="0.05926"></path>
<path d="M1.275 0.434 Q1.215 0.336 1.010 0.343" stroke="hsl(0.0,100%,35%)" stroke-width="0.02155"></path>
<path d="M1.275 0.434 Q1.418 0.499 1.577 0.444" stroke="hsl(0.0,100%,35%)" stroke-width="0.02155"></path>
<path d="M1.275 0.434 Q1.032 0.671 1.441 0.841" stroke="hsl(0.0,100%,35%)" stroke-width="0.02694"></path>
<path d="M1.275 0.434 Q1.204 0.612 1.536 0.686" stroke="hsl(0.0,100%,35%)" stroke-width="0.00539"></path>
<path d="M1.275 0.434 Q0.930 0.730 1.432 0.963" stroke="hsl(0.0,100%,35%)" stroke-width="0.00539"></path>
<path d="M1.275 0.434 Q1.656 0.459 1.788 0.278" stroke="hsl(0.0,100%,35%)" stroke-width="0.01077"></path>
<path d="M1.507 0.592 Q1.275 0.704 1.441 0.841" stroke="hsl(0.0,100%,35%)" stroke-width="0.02694"></path>
<path d="M1.507 0.592 Q1.663 0.625 1.762 0.556" stroke="hsl(0.0,100%,35%)" stroke-width="0.00539"></path>
<path d="M1.507 0.592 Q1.446 0.645 1.536 0.686" stroke="hsl(0.0,100%,35%)" stroke-width="0.00539"></path>
<path d="M1.507 0.592 Q1.810 0.611 1.912 0.467" stroke="hsl(0.0,100%,35%)" stroke-width="0.00539"></path>
<path d="M0.353 0.801 Q0.737 0.798 0.817 0.611" stroke="hsl(0.0,100%,35%)" stroke-width="0.01077"></path>
<path d="M0.353 0.801 Q1.107 0.802 1.275 0.434" stroke="hsl(0.0,100%,35%)" stroke-width="0.00539"></path>
<path d="M0.353 0.801 Q0.472 0.926 0.743 0.896" stroke="hsl(0.0,100%,35%)" stroke-width="0.00539"></path>
<path d="M0.353 0.801 Q0.660 0.855 0.833 0.717" stroke="hsl(0.0,100%,35%)" stroke-width="0.00539"></path>
<path d="M0.353 0.801 Q1.096 0.927 1.507 0.592" stroke="hsl(0.0,100%,35%)" stroke-width="0.00539"></path>
<path d="M0.353 0.801 Q0.308 0.868 0.429 0.904" stroke="hsl(0.0,100%,35%)" stroke-width="0.00539"></path>
<path d="M0.353 0.801 Q0.836 0.421 0.200 0.102" stroke="hsl(0.0,100%,35%)" stroke-width="0.00539"></path>
<path d="M0.353 0.801 Q0.492 0.709 0.345 0.621" stroke="hsl(0.0,100%,35%)" stroke-width="0.00539"></path>
<path d="M0.353 0.801 Q0.864 1.039 1.441 0.841" stroke="hsl(0.0,100%,35%)" stroke-width="0.01616"></path>
<path d="M0.353 0.801 Q0.582 0.963 0.950 0.887" stroke="hsl(0.0,100%,35%)" stroke-width="0.01077"></path>
<path d="M1.441 0.841 Q1.673 0.730 1.507 0.592" stroke="hsl(0.0,100%,35%)" stroke-width="0.01616"></path>
<path d="M1.441 0.841 Q0.929 0.603 0.353 0.801" stroke="hsl(0.0,100%,35%)" stroke-width="0.01616"></path>
<path d="M1.441 0.841 Q1.159 0.766 0.950 0.887" stroke="hsl(0.0,100%,35%)" stroke-width="0.05926"></path>
<path d="M1.441 0.841 Q1.466 0.723 1.240 0.684" stroke="hsl(0.0,100%,35%)" stroke-width="0.00539"></path>
<path d="M1.441 0.841 Q1.521 0.916 1.685 0.894" stroke="hsl(0.0,100%,35%)" stroke-width="0.00539"></path>
<path d="M0.810 0.173 Q0.957 0.185 1.011 0.116" stroke="hsl(0.0,100%,35%)" stroke-width="0.00539"></path>
<path d="M0.810 0.173 Q0.823 0.522 1.507 0.592" stroke="hsl(0.0,100%,35%)" stroke-width="0.00539"></path>
<path d="M0.810 0.173 Q0.673 0.216 0.725 0.292" stroke="hsl(0.0,100%,35%)" stroke-width="0.00539"></path>
<path d="M0.950 0.887 Q1.129 1.021 1.432 0.963" stroke="hsl(0.0,100%,35%)" stroke-width="0.01077"></path>
<path d="M0.950 0.887 Q0.720 0.724 0.353 0.801" stroke="hsl(0.0,100%,35%)" stroke-width="0.01077"></path>
<path d="M0.950 0.887 Q1.232 0.962 1.441 0.841" stroke="hsl(0.0,100%,35%)" stroke-width="0.02694"></path>
<path d="M0.950 0.887 Q0.940 0.966 1.092 0.988" stroke="hsl(0.0,100%,35%)" stroke-width="0.00539"></path>
<path d="M0.059 0.478 Q0.845 0.764 1.577 0.444" stroke="hsl(180.0,100%,35%)" stroke-width="0.00539"></path>
<path d="M0.059 0.478 Q0.702 0.699 1.275 0.434" stroke="hsl(180.0,100%,35%)" stroke-width="0.00539"></path>
<path d="M0.059 0.478 Q0.193 0.539 0.341 0.486" stroke="hsl(180.0,100%,35%)" stroke-width="0.00539"></path>
<path d="M0.059 0.478 Q0.364 0.458 0.392 0.305" stroke="hsl(180.0,100%,35%)" stroke-width="0.01077"></path>
<path d="M0.059 0.478 Q0.311 0.490 0.390 0.370" stroke="hsl(180.0,100%,35%)" stroke-width="0.01077"></path>
<path d="M0.059 0.478 Q0.332 0.696 0.817 0.611" stroke="hsl(180.0,100%,35%)" stroke-width="0.01077"></path>
<path d="M0.059 0.478 Q0.857 0.616 1.301 0.257" stroke="hsl(180.0,100%,35%)" stroke-width="0.01077"></path>
<path d="M1.789 0.617 Q1.668 0.548 1.507 0.592" stroke="hsl(180.0,100%,35%)" stroke-width="0.00539"></path>
<path d="M1.789 0.617 Q1.036 0.202 0.059 0.478" stroke="hsl(180.0,100%,35%)" stroke-width="0.00539"></path>
<path d="M1.789 0.617 Q1.436 0.660 1.441 0.841" stroke="hsl(180.0,100%,35%)" stroke-width="0.00539"></path>
<path d="M0.124 0.285 Q0.309 0.208 0.200 0.102" stroke="hsl(0.0,100%,35%)" stroke-width="0.00539"></path>
<path d="M0.124 0.285 Q0.408 0.286 0.474 0.148" stroke="hsl(0.0,100%,35%)" stroke-width="0.00539"></path>
<path d="M0.124 0.285 Q0.337 0.826 1.441 0.841" stroke="hsl(0.0,100%,35%)" stroke-width="0.00539"></path>
</g>
<text x="1.275" y="0.393" font-size="0.082808" fill="hsl(0.0,100%,20%)">arthursonzogni</text>
<text x="1.507" y="0.562" font-size="0.060159" fill="hsl(0.0,100%,20%)">keishi</text>
<text x="0.353" y="0.770" font-size="0.061721" fill="hsl(0.0,100%,20%)">mikt</text>
<text x="1.301" y="0.232" font-size="0.049761" fill="hsl(0.0,100%,20%)">danakj</text>
<text x="1.010" y="0.329" font-size="0.027603" fill="hsl(0.0,100%,20%)">blundell</text>
<text x="1.577" y="0.428" font-size="0.030861" fill="hsl(180.0,100%,20%)">haraken</text>
<text x="1.441" y="0.798" font-size="0.086189" fill="hsl(0.0,100%,20%)">tasak</text>
<text x="1.536" y="0.676" font-size="0.019518" fill="hsl(0.0,100%,20%)">bartekn</text>
<text x="1.432" y="0.951" font-size="0.023905" fill="hsl(0.0,100%,20%)">glazunov</text>
<text x="1.788" y="0.268" font-size="0.019518" fill="hsl(0.0,100%,20%)">wez</text>
<text x="0.810" y="0.161" font-size="0.023905" fill="hsl(0.0,100%,20%)">bwwilliams</text>
<text x="1.011" y="0.109" font-size="0.013801" fill="hsl(0.0,100%,20%)">ajuma</text>
<text x="0.725" y="0.285" font-size="0.013801" fill="hsl(0.0,100%,20%)">noyau</text>
<text x="1.762" y="0.549" font-size="0.013801" fill="hsl(0.0,100%,20%)">wittman</text>
<text x="1.912" y="0.460" font-size="0.013801" fill="hsl(0.0,100%,20%)">qjw</text>
<text x="0.817" y="0.597" font-size="0.027603" fill="hsl(0.0,100%,20%)">dcheng</text>
<text x="0.743" y="0.889" font-size="0.013801" fill="hsl(0.0,100%,20%)">dpranke</text>
<text x="0.833" y="0.710" font-size="0.013801" fill="hsl(0.0,100%,20%)">jwata</text>
<text x="0.429" y="0.897" font-size="0.013801" fill="hsl(0.0,100%,20%)">kouhei</text>
<text x="0.200" y="0.092" font-size="0.019518" fill="hsl(0.0,100%,20%)">mlippautz</text>
<text x="0.345" y="0.614" font-size="0.013801" fill="hsl(0.0,100%,20%)">rogerm</text>
<text x="0.950" y="0.854" font-size="0.066189" fill="hsl(0.0,100%,20%)">yukishiino</text>
<text x="0.059" y="0.454" font-size="0.047809" fill="hsl(180.0,100%,20%)">pkasting</text>
<text x="0.341" y="0.480" font-size="0.013801" fill="hsl(180.0,100%,20%)">hans</text>
<text x="0.392" y="0.295" font-size="0.019518" fill="hsl(180.0,100%,20%)">jbroman</text>
<text x="0.390" y="0.360" font-size="0.019518" fill="hsl(180.0,100%,20%)">thestig</text>
<text x="1.789" y="0.606" font-size="0.023905" fill="hsl(180.0,100%,20%)">rsworktech</text>
<text x="0.124" y="0.273" font-size="0.023905" fill="hsl(0.0,100%,20%)">sroettger</text>
<text x="0.474" y="0.141" font-size="0.013801" fill="hsl(0.0,100%,20%)">mpdenton</text>
<text x="1.240" y="0.678" font-size="0.013801" fill="hsl(0.0,100%,20%)">thakis</text>
<text x="1.685" y="0.887" font-size="0.013801" fill="hsl(0.0,100%,20%)">ahijazi</text>
<text x="1.092" y="0.982" font-size="0.013801" fill="hsl(0.0,100%,20%)">mark</text>
</svg>
