<svg width="4000" height="2000" viewBox="-0.025 -0.025 2.05 1.05" xmlns="http://www.w3.org/2000/svg">
  <style>
    path {
      fill: none;
      stroke-linecap: round;
      stroke-opacity: 0.4;
    }

    text {
      text-anchor: middle;
      alignment-baseline: hanging;
    }
  </style>
  <g opacity="0.4">
<path d="M0.715 0.245 Q0.636 0.171 0.475 0.194" stroke="hsl(0.0,100%,35%)" stroke-width="0.01044"></path>
<path d="M0.715 0.245 Q0.651 0.679 1.485 0.806" stroke="hsl(0.0,100%,35%)" stroke-width="0.00495"></path>
<path d="M0.715 0.245 Q0.470 0.267 0.460 0.392" stroke="hsl(0.0,100%,35%)" stroke-width="0.00055"></path>
<path d="M1.485 0.806 Q1.470 0.298 0.475 0.194" stroke="hsl(0.0,100%,35%)" stroke-width="0.05275"></path>
<path d="M1.485 0.806 Q1.584 0.721 1.441 0.654" stroke="hsl(0.0,100%,35%)" stroke-width="0.07995"></path>
<path d="M1.485 0.806 Q1.273 0.819 1.251 0.925" stroke="hsl(0.0,100%,35%)" stroke-width="0.00495"></path>
<path d="M1.485 0.806 Q1.371 0.641 1.025 0.660" stroke="hsl(0.0,100%,35%)" stroke-width="0.00027"></path>
<path d="M1.485 0.806 Q1.643 0.604 1.283 0.483" stroke="hsl(0.0,100%,35%)" stroke-width="0.00027"></path>
<path d="M1.441 0.654 Q1.342 0.739 1.485 0.806" stroke="hsl(0.0,100%,35%)" stroke-width="0.14341"></path>
<path d="M1.441 0.654 Q1.684 0.550 1.534 0.409" stroke="hsl(0.0,100%,35%)" stroke-width="0.00027"></path>
<path d="M1.441 0.654 Q1.326 0.231 0.475 0.194" stroke="hsl(0.0,100%,35%)" stroke-width="0.00220"></path>
</g>
<text x="0.715" y="0.228" font-size="0.032593" fill="hsl(0.0,100%,20%)">kmoon</text>
<text x="0.475" y="0.161" font-size="0.066023" fill="hsl(0.0,100%,20%)">nigi</text>
<text x="1.485" y="0.737" font-size="0.138212" fill="hsl(0.0,100%,20%)">thestig</text>
<text x="0.460" y="0.389" font-size="0.006052" fill="hsl(0.0,100%,20%)">bungeman</text>
<text x="1.441" y="0.593" font-size="0.122699" fill="hsl(0.0,100%,20%)">tsepez</text>
<text x="1.251" y="0.916" font-size="0.018157" fill="hsl(0.0,100%,20%)">dhoss</text>
<text x="1.025" y="0.658" font-size="0.004280" fill="hsl(0.0,100%,20%)">thomasanderson</text>
<text x="1.283" y="0.480" font-size="0.004280" fill="hsl(0.0,100%,20%)">weili</text>
<text x="1.534" y="0.407" font-size="0.004280" fill="hsl(0.0,100%,20%)">dcheng</text>
</svg>
