<svg width="4000" height="2000" viewBox="-0.025 -0.025 2.05 1.05" xmlns="http://www.w3.org/2000/svg">
  <style>
    path {
      fill: none;
      stroke-linecap: round;
      stroke-opacity: 0.4;
    }

    text {
      text-anchor: middle;
      alignment-baseline: hanging;
    }
  </style>
  <g opacity="0.4">
<path d="M0.687 0.418 Q0.619 0.228 0.232 0.219" stroke="hsl(0.0,100%,35%)" stroke-width="0.00103"></path>
<path d="M0.687 0.418 Q1.034 0.754 1.765 0.658" stroke="hsl(0.0,100%,35%)" stroke-width="0.00069"></path>
<path d="M0.687 0.418 Q0.793 0.536 1.047 0.510" stroke="hsl(0.0,100%,35%)" stroke-width="0.00069"></path>
<path d="M0.232 0.219 Q0.406 0.527 1.047 0.510" stroke="hsl(0.0,100%,35%)" stroke-width="0.05653"></path>
<path d="M0.232 0.219 Q0.128 0.256 0.177 0.314" stroke="hsl(0.0,100%,35%)" stroke-width="0.06064"></path>
<path d="M0.232 0.219 Q0.647 0.745 1.765 0.658" stroke="hsl(0.0,100%,35%)" stroke-width="0.02261"></path>
<path d="M0.232 0.219 Q0.152 0.383 0.453 0.458" stroke="hsl(0.0,100%,35%)" stroke-width="0.00103"></path>
<path d="M0.232 0.219 Q-0.045 0.634 0.704 0.859" stroke="hsl(0.0,100%,35%)" stroke-width="0.00069"></path>
<path d="M0.232 0.219 Q0.004 0.445 0.394 0.606" stroke="hsl(0.0,100%,35%)" stroke-width="0.00034"></path>
<path d="M1.765 0.658 Q1.349 0.132 0.232 0.219" stroke="hsl(0.0,100%,35%)" stroke-width="0.02056"></path>
<path d="M1.765 0.658 Q1.246 0.169 0.177 0.314" stroke="hsl(0.0,100%,35%)" stroke-width="0.00445"></path>
<path d="M1.765 0.658 Q1.524 0.440 1.047 0.510" stroke="hsl(0.0,100%,35%)" stroke-width="0.03700"></path>
<path d="M1.765 0.658 Q1.838 0.461 1.470 0.382" stroke="hsl(0.0,100%,35%)" stroke-width="0.00034"></path>
<path d="M1.047 0.510 Q0.872 0.202 0.232 0.219" stroke="hsl(0.0,100%,35%)" stroke-width="0.02090"></path>
<path d="M1.047 0.510 Q1.288 0.728 1.765 0.658" stroke="hsl(0.0,100%,35%)" stroke-width="0.01371"></path>
<path d="M1.047 0.510 Q0.768 0.238 0.177 0.314" stroke="hsl(0.0,100%,35%)" stroke-width="0.00034"></path>
<path d="M1.047 0.510 Q1.361 0.531 1.470 0.382" stroke="hsl(0.0,100%,35%)" stroke-width="0.00034"></path>
<path d="M0.444 0.210 Q0.331 0.172 0.232 0.219" stroke="hsl(0.0,100%,35%)" stroke-width="0.00377"></path>
<path d="M0.444 0.210 Q0.227 0.209 0.177 0.314" stroke="hsl(0.0,100%,35%)" stroke-width="0.00034"></path>
<path d="M0.444 0.210 Q0.505 0.481 1.047 0.510" stroke="hsl(0.0,100%,35%)" stroke-width="0.00171"></path>
<path d="M0.444 0.210 Q0.820 0.501 1.470 0.382" stroke="hsl(0.0,100%,35%)" stroke-width="0.00069"></path>
<path d="M0.444 0.210 Q0.265 0.273 0.349 0.375" stroke="hsl(0.0,100%,35%)" stroke-width="0.00034"></path>
<path d="M0.177 0.314 Q0.281 0.278 0.232 0.219" stroke="hsl(0.0,100%,35%)" stroke-width="0.07983"></path>
<path d="M0.177 0.314 Q0.455 0.586 1.047 0.510" stroke="hsl(0.0,100%,35%)" stroke-width="0.00206"></path>
<path d="M0.177 0.314 Q0.697 0.804 1.765 0.658" stroke="hsl(0.0,100%,35%)" stroke-width="0.00103"></path>
</g>
<text x="0.687" y="0.412" font-size="0.012026" fill="hsl(0.0,100%,20%)">brianosman</text>
<text x="0.232" y="0.155" font-size="0.127110" fill="hsl(0.0,100%,20%)">thestig</text>
<text x="1.765" y="0.619" font-size="0.077806" fill="hsl(0.0,100%,20%)">kmoon</text>
<text x="1.047" y="0.465" font-size="0.089650" fill="hsl(0.0,100%,20%)">nigi</text>
<text x="0.444" y="0.200" font-size="0.020328" fill="hsl(0.0,100%,20%)">kjlubick</text>
<text x="0.177" y="0.267" font-size="0.094694" fill="hsl(0.0,100%,20%)">tsepez</text>
<text x="1.470" y="0.377" font-size="0.009091" fill="hsl(0.0,100%,20%)">bungeman</text>
<text x="0.349" y="0.373" font-size="0.004545" fill="hsl(0.0,100%,20%)">npm</text>
<text x="0.453" y="0.454" font-size="0.007873" fill="hsl(0.0,100%,20%)">drott</text>
<text x="0.704" y="0.856" font-size="0.006428" fill="hsl(0.0,100%,20%)">thomasanderson</text>
<text x="0.394" y="0.603" font-size="0.004545" fill="hsl(0.0,100%,20%)">thakis</text>
</svg>
