<svg width="4000" height="2000" viewBox="-0.025 -0.025 2.05 1.05" xmlns="http://www.w3.org/2000/svg">
  <style>
    path {
      fill: none;
      stroke-linecap: round;
      stroke-opacity: 0.4;
    }

    text {
      text-anchor: middle;
      alignment-baseline: hanging;
    }
  </style>
  <g opacity="0.4">
<path d="M1.584 0.923 Q1.951 0.778 1.749 0.567" stroke="hsl(0.0,100%,35%)" stroke-width="0.00450"></path>
<path d="M1.584 0.923 Q1.603 0.854 1.472 0.829" stroke="hsl(0.0,100%,35%)" stroke-width="0.01471"></path>
<path d="M1.584 0.923 Q1.887 0.717 1.551 0.523" stroke="hsl(0.0,100%,35%)" stroke-width="0.00045"></path>
<path d="M1.584 0.923 Q1.626 0.357 0.532 0.212" stroke="hsl(0.0,100%,35%)" stroke-width="0.00060"></path>
<path d="M1.584 0.923 Q1.467 0.437 0.493 0.388" stroke="hsl(0.0,100%,35%)" stroke-width="0.00060"></path>
<path d="M1.584 0.923 Q1.630 0.658 1.123 0.577" stroke="hsl(0.0,100%,35%)" stroke-width="0.00060"></path>
<path d="M1.584 0.923 Q1.717 0.815 1.536 0.727" stroke="hsl(0.0,100%,35%)" stroke-width="0.00060"></path>
<path d="M1.584 0.923 Q2.054 0.636 1.597 0.343" stroke="hsl(0.0,100%,35%)" stroke-width="0.00015"></path>
<path d="M1.584 0.923 Q1.453 0.658 0.906 0.664" stroke="hsl(0.0,100%,35%)" stroke-width="0.00015"></path>
<path d="M1.584 0.923 Q1.911 0.366 0.896 0.084" stroke="hsl(0.0,100%,35%)" stroke-width="0.00060"></path>
<path d="M1.584 0.923 Q1.650 0.597 1.028 0.492" stroke="hsl(0.0,100%,35%)" stroke-width="0.00030"></path>
<path d="M1.584 0.923 Q1.383 0.831 1.159 0.909" stroke="hsl(0.0,100%,35%)" stroke-width="0.00030"></path>
<path d="M1.584 0.923 Q1.783 0.736 1.462 0.597" stroke="hsl(0.0,100%,35%)" stroke-width="0.00045"></path>
<path d="M1.749 0.567 Q1.685 0.505 1.551 0.523" stroke="hsl(0.0,100%,35%)" stroke-width="0.00105"></path>
<path d="M1.749 0.567 Q1.514 0.604 1.536 0.727" stroke="hsl(0.0,100%,35%)" stroke-width="0.00495"></path>
<path d="M1.749 0.567 Q1.581 0.525 1.462 0.597" stroke="hsl(0.0,100%,35%)" stroke-width="0.01021"></path>
<path d="M1.749 0.567 Q1.301 0.573 1.215 0.793" stroke="hsl(0.0,100%,35%)" stroke-width="0.00810"></path>
<path d="M1.749 0.567 Q1.250 0.447 0.906 0.664" stroke="hsl(0.0,100%,35%)" stroke-width="0.00345"></path>
<path d="M1.749 0.567 Q1.056 0.413 0.604 0.717" stroke="hsl(0.0,100%,35%)" stroke-width="0.00105"></path>
<path d="M1.749 0.567 Q1.400 0.643 1.472 0.829" stroke="hsl(0.0,100%,35%)" stroke-width="0.01186"></path>
<path d="M1.749 0.567 Q1.280 0.372 0.797 0.557" stroke="hsl(0.0,100%,35%)" stroke-width="0.00045"></path>
<path d="M1.749 0.567 Q1.852 0.424 1.597 0.343" stroke="hsl(0.0,100%,35%)" stroke-width="0.00075"></path>
<path d="M1.749 0.567 Q1.381 0.712 1.584 0.923" stroke="hsl(0.0,100%,35%)" stroke-width="0.00165"></path>
<path d="M1.749 0.567 Q2.055 0.252 1.508 0.034" stroke="hsl(0.0,100%,35%)" stroke-width="0.00045"></path>
<path d="M1.749 0.567 Q0.931 0.257 0.147 0.588" stroke="hsl(0.0,100%,35%)" stroke-width="0.00030"></path>
<path d="M1.749 0.567 Q1.773 0.226 1.113 0.139" stroke="hsl(0.0,100%,35%)" stroke-width="0.00030"></path>
<path d="M1.749 0.567 Q1.428 0.447 1.123 0.577" stroke="hsl(0.0,100%,35%)" stroke-width="0.00045"></path>
<path d="M1.749 0.567 Q1.264 0.226 0.493 0.388" stroke="hsl(0.0,100%,35%)" stroke-width="0.00015"></path>
<path d="M1.749 0.567 Q1.448 0.385 1.028 0.492" stroke="hsl(0.0,100%,35%)" stroke-width="0.00015"></path>
<path d="M1.749 0.567 Q1.709 0.155 0.896 0.084" stroke="hsl(0.0,100%,35%)" stroke-width="0.00060"></path>
<path d="M1.749 0.567 Q0.758 0.315 0.050 0.743" stroke="hsl(0.0,100%,35%)" stroke-width="0.00015"></path>
<path d="M1.472 0.829 Q1.586 0.791 1.536 0.727" stroke="hsl(0.0,100%,35%)" stroke-width="0.00090"></path>
<path d="M1.472 0.829 Q1.653 0.711 1.462 0.597" stroke="hsl(0.0,100%,35%)" stroke-width="0.00480"></path>
<path d="M1.472 0.829 Q1.336 0.413 0.493 0.388" stroke="hsl(0.0,100%,35%)" stroke-width="0.00060"></path>
<path d="M1.472 0.829 Q1.821 0.753 1.749 0.567" stroke="hsl(0.0,100%,35%)" stroke-width="0.00630"></path>
<path d="M1.472 0.829 Q1.372 0.760 1.215 0.793" stroke="hsl(0.0,100%,35%)" stroke-width="0.01366"></path>
<path d="M1.472 0.829 Q2.101 0.626 1.842 0.274" stroke="hsl(0.0,100%,35%)" stroke-width="0.00060"></path>
<path d="M1.472 0.829 Q1.095 0.754 0.866 0.921" stroke="hsl(0.0,100%,35%)" stroke-width="0.00030"></path>
<path d="M1.472 0.829 Q1.757 0.692 1.551 0.523" stroke="hsl(0.0,100%,35%)" stroke-width="0.00135"></path>
<path d="M1.472 0.829 Q1.322 0.633 0.906 0.664" stroke="hsl(0.0,100%,35%)" stroke-width="0.00060"></path>
<path d="M1.472 0.829 Q1.252 0.806 1.159 0.909" stroke="hsl(0.0,100%,35%)" stroke-width="0.00030"></path>
<path d="M1.472 0.829 Q1.924 0.611 1.597 0.343" stroke="hsl(0.0,100%,35%)" stroke-width="0.00030"></path>
<path d="M1.472 0.829 Q1.453 0.898 1.584 0.923" stroke="hsl(0.0,100%,35%)" stroke-width="0.00675"></path>
<path d="M1.472 0.829 Q1.781 0.341 0.896 0.084" stroke="hsl(0.0,100%,35%)" stroke-width="0.00015"></path>
<path d="M1.472 0.829 Q1.219 0.290 0.111 0.296" stroke="hsl(0.0,100%,35%)" stroke-width="0.00015"></path>
<path d="M1.472 0.829 Q1.542 0.423 0.765 0.300" stroke="hsl(0.0,100%,35%)" stroke-width="0.00015"></path>
<path d="M1.551 0.523 Q1.167 0.591 1.215 0.793" stroke="hsl(0.0,100%,35%)" stroke-width="0.00855"></path>
<path d="M1.551 0.523 Q1.615 0.584 1.749 0.567" stroke="hsl(0.0,100%,35%)" stroke-width="0.01726"></path>
<path d="M1.551 0.523 Q1.447 0.543 1.462 0.597" stroke="hsl(0.0,100%,35%)" stroke-width="0.00690"></path>
<path d="M1.551 0.523 Q1.267 0.660 1.472 0.829" stroke="hsl(0.0,100%,35%)" stroke-width="0.00765"></path>
<path d="M1.551 0.523 Q0.797 0.274 0.147 0.588" stroke="hsl(0.0,100%,35%)" stroke-width="0.00015"></path>
<path d="M1.551 0.523 Q1.381 0.622 1.536 0.727" stroke="hsl(0.0,100%,35%)" stroke-width="0.00420"></path>
<path d="M1.551 0.523 Q1.116 0.464 0.906 0.664" stroke="hsl(0.0,100%,35%)" stroke-width="0.00405"></path>
<path d="M1.551 0.523 Q0.923 0.430 0.604 0.717" stroke="hsl(0.0,100%,35%)" stroke-width="0.00270"></path>
<path d="M1.551 0.523 Q1.047 0.637 1.159 0.909" stroke="hsl(0.0,100%,35%)" stroke-width="0.00015"></path>
<path d="M1.551 0.523 Q1.314 0.403 1.028 0.492" stroke="hsl(0.0,100%,35%)" stroke-width="0.00045"></path>
<path d="M1.551 0.523 Q1.600 0.457 1.481 0.419" stroke="hsl(0.0,100%,35%)" stroke-width="0.00030"></path>
<path d="M1.551 0.523 Q1.433 0.210 0.795 0.199" stroke="hsl(0.0,100%,35%)" stroke-width="0.00015"></path>
<path d="M1.551 0.523 Q1.575 0.173 0.896 0.084" stroke="hsl(0.0,100%,35%)" stroke-width="0.00135"></path>
<path d="M1.551 0.523 Q1.247 0.730 1.584 0.923" stroke="hsl(0.0,100%,35%)" stroke-width="0.00255"></path>
<path d="M1.551 0.523 Q1.718 0.442 1.597 0.343" stroke="hsl(0.0,100%,35%)" stroke-width="0.00105"></path>
<path d="M1.551 0.523 Q1.818 0.347 1.533 0.178" stroke="hsl(0.0,100%,35%)" stroke-width="0.00195"></path>
<path d="M1.551 0.523 Q0.625 0.333 0.050 0.743" stroke="hsl(0.0,100%,35%)" stroke-width="0.00015"></path>
<path d="M1.551 0.523 Q1.131 0.244 0.493 0.388" stroke="hsl(0.0,100%,35%)" stroke-width="0.00015"></path>
<path d="M1.551 0.523 Q1.294 0.464 1.123 0.577" stroke="hsl(0.0,100%,35%)" stroke-width="0.00030"></path>
<path d="M1.551 0.523 Q1.147 0.389 0.797 0.557" stroke="hsl(0.0,100%,35%)" stroke-width="0.00015"></path>
<path d="M0.532 0.212 Q0.372 0.292 0.493 0.388" stroke="hsl(120.0,100%,35%)" stroke-width="0.00210"></path>
<path d="M0.532 0.212 Q0.578 0.303 0.765 0.300" stroke="hsl(120.0,100%,35%)" stroke-width="0.00045"></path>
<path d="M0.532 0.212 Q0.674 0.258 0.795 0.199" stroke="hsl(120.0,100%,35%)" stroke-width="0.00150"></path>
<path d="M0.532 0.212 Q0.288 0.686 1.159 0.909" stroke="hsl(120.0,100%,35%)" stroke-width="0.00015"></path>
<path d="M0.532 0.212 Q0.793 0.572 1.551 0.523" stroke="hsl(120.0,100%,35%)" stroke-width="0.00060"></path>
<path d="M0.532 0.212 Q0.508 0.709 1.472 0.829" stroke="hsl(120.0,100%,35%)" stroke-width="0.00105"></path>
<path d="M0.532 0.212 Q0.817 0.221 0.896 0.084" stroke="hsl(120.0,100%,35%)" stroke-width="0.00045"></path>
<path d="M0.532 0.212 Q0.857 0.633 1.749 0.567" stroke="hsl(120.0,100%,35%)" stroke-width="0.00015"></path>
<path d="M0.532 0.212 Q0.039 0.323 0.147 0.588" stroke="hsl(120.0,100%,35%)" stroke-width="0.00015"></path>
<path d="M0.493 0.388 Q0.653 0.308 0.532 0.212" stroke="hsl(120.0,100%,35%)" stroke-width="0.00285"></path>
<path d="M0.493 0.388 Q0.285 0.574 0.604 0.717" stroke="hsl(120.0,100%,35%)" stroke-width="0.00030"></path>
<path d="M0.493 0.388 Q0.512 0.318 0.381 0.294" stroke="hsl(120.0,100%,35%)" stroke-width="0.00030"></path>
<path d="M0.493 0.388 Q0.530 0.735 1.215 0.793" stroke="hsl(120.0,100%,35%)" stroke-width="0.00015"></path>
<path d="M0.493 0.388 Q-0.013 0.477 0.050 0.743" stroke="hsl(120.0,100%,35%)" stroke-width="0.00015"></path>
<path d="M0.493 0.388 Q0.509 0.533 0.797 0.557" stroke="hsl(120.0,100%,35%)" stroke-width="0.00015"></path>
<path d="M0.493 0.388 Q0.978 0.728 1.749 0.567" stroke="hsl(120.0,100%,35%)" stroke-width="0.00015"></path>
<path d="M0.493 0.388 Q0.810 0.686 1.462 0.597" stroke="hsl(120.0,100%,35%)" stroke-width="0.00015"></path>
<path d="M0.493 0.388 Q0.795 0.353 0.795 0.199" stroke="hsl(120.0,100%,35%)" stroke-width="0.00030"></path>
<path d="M0.493 0.388 Q0.938 0.316 0.896 0.084" stroke="hsl(120.0,100%,35%)" stroke-width="0.00045"></path>
<path d="M0.493 0.388 Q0.376 0.265 0.111 0.296" stroke="hsl(120.0,100%,35%)" stroke-width="0.00135"></path>
<path d="M0.493 0.388 Q0.657 0.608 1.123 0.577" stroke="hsl(120.0,100%,35%)" stroke-width="0.00015"></path>
<path d="M1.123 0.577 Q0.945 0.577 0.906 0.664" stroke="hsl(120.0,100%,35%)" stroke-width="0.01006"></path>
<path d="M1.123 0.577 Q1.547 0.555 1.597 0.343" stroke="hsl(120.0,100%,35%)" stroke-width="0.00345"></path>
<path d="M1.123 0.577 Q1.444 0.697 1.749 0.567" stroke="hsl(120.0,100%,35%)" stroke-width="0.00060"></path>
<path d="M1.123 0.577 Q1.380 0.636 1.551 0.523" stroke="hsl(120.0,100%,35%)" stroke-width="0.00075"></path>
<path d="M1.123 0.577 Q0.959 0.356 0.493 0.388" stroke="hsl(120.0,100%,35%)" stroke-width="0.00345"></path>
<path d="M1.123 0.577 Q1.724 0.569 1.842 0.274" stroke="hsl(120.0,100%,35%)" stroke-width="0.00060"></path>
<path d="M1.123 0.577 Q0.842 0.234 0.111 0.296" stroke="hsl(120.0,100%,35%)" stroke-width="0.00030"></path>
<path d="M1.123 0.577 Q1.076 0.842 1.584 0.923" stroke="hsl(120.0,100%,35%)" stroke-width="0.00045"></path>
<path d="M1.123 0.577 Q1.209 0.734 1.536 0.727" stroke="hsl(120.0,100%,35%)" stroke-width="0.00030"></path>
<path d="M1.123 0.577 Q1.143 0.516 1.028 0.492" stroke="hsl(120.0,100%,35%)" stroke-width="0.00600"></path>
<path d="M1.123 0.577 Q0.751 0.543 0.604 0.717" stroke="hsl(120.0,100%,35%)" stroke-width="0.00135"></path>
<path d="M1.123 0.577 Q0.975 0.502 0.797 0.557" stroke="hsl(120.0,100%,35%)" stroke-width="0.00015"></path>
<path d="M1.123 0.577 Q0.996 0.703 1.215 0.793" stroke="hsl(120.0,100%,35%)" stroke-width="0.00030"></path>
<path d="M1.123 0.577 Q0.719 0.698 0.866 0.921" stroke="hsl(120.0,100%,35%)" stroke-width="0.00015"></path>
<path d="M1.123 0.577 Q0.453 0.446 0.050 0.743" stroke="hsl(120.0,100%,35%)" stroke-width="0.00015"></path>
<path d="M1.123 0.577 Q0.875 0.750 1.159 0.909" stroke="hsl(120.0,100%,35%)" stroke-width="0.00015"></path>
<path d="M1.123 0.577 Q1.276 0.655 1.462 0.597" stroke="hsl(120.0,100%,35%)" stroke-width="0.00015"></path>
<path d="M1.123 0.577 Q1.261 0.322 0.795 0.199" stroke="hsl(120.0,100%,35%)" stroke-width="0.00015"></path>
<path d="M1.123 0.577 Q1.277 0.525 1.209 0.438" stroke="hsl(120.0,100%,35%)" stroke-width="0.00015"></path>
<path d="M1.123 0.577 Q1.404 0.285 0.896 0.084" stroke="hsl(120.0,100%,35%)" stroke-width="0.00015"></path>
<path d="M1.536 0.727 Q1.272 0.569 0.906 0.664" stroke="hsl(0.0,100%,35%)" stroke-width="0.00315"></path>
<path d="M1.536 0.727 Q1.603 0.647 1.462 0.597" stroke="hsl(0.0,100%,35%)" stroke-width="0.00931"></path>
<path d="M1.536 0.727 Q1.422 0.765 1.472 0.829" stroke="hsl(0.0,100%,35%)" stroke-width="0.00120"></path>
<path d="M1.536 0.727 Q1.322 0.696 1.215 0.793" stroke="hsl(0.0,100%,35%)" stroke-width="0.00060"></path>
<path d="M1.536 0.727 Q1.302 0.494 0.797 0.557" stroke="hsl(0.0,100%,35%)" stroke-width="0.00030"></path>
<path d="M1.536 0.727 Q1.770 0.689 1.749 0.567" stroke="hsl(0.0,100%,35%)" stroke-width="0.00390"></path>
<path d="M1.536 0.727 Q1.305 0.279 0.381 0.294" stroke="hsl(0.0,100%,35%)" stroke-width="0.00015"></path>
<path d="M1.536 0.727 Q1.078 0.535 0.604 0.717" stroke="hsl(0.0,100%,35%)" stroke-width="0.00165"></path>
<path d="M1.536 0.727 Q1.202 0.742 1.159 0.909" stroke="hsl(0.0,100%,35%)" stroke-width="0.00015"></path>
<path d="M1.536 0.727 Q1.707 0.628 1.551 0.523" stroke="hsl(0.0,100%,35%)" stroke-width="0.00045"></path>
<path d="M1.536 0.727 Q1.403 0.834 1.584 0.923" stroke="hsl(0.0,100%,35%)" stroke-width="0.00105"></path>
<path d="M1.536 0.727 Q1.286 0.349 0.493 0.388" stroke="hsl(0.0,100%,35%)" stroke-width="0.00030"></path>
<path d="M1.536 0.727 Q1.873 0.547 1.597 0.343" stroke="hsl(0.0,100%,35%)" stroke-width="0.00015"></path>
<path d="M1.536 0.727 Q1.731 0.277 0.896 0.084" stroke="hsl(0.0,100%,35%)" stroke-width="0.00015"></path>
<path d="M1.536 0.727 Q1.168 0.226 0.111 0.296" stroke="hsl(0.0,100%,35%)" stroke-width="0.00015"></path>
<path d="M1.536 0.727 Q0.780 0.438 0.050 0.743" stroke="hsl(0.0,100%,35%)" stroke-width="0.00015"></path>
<path d="M1.536 0.727 Q1.757 0.472 1.309 0.309" stroke="hsl(0.0,100%,35%)" stroke-width="0.00015"></path>
<path d="M1.536 0.727 Q1.446 0.269 0.532 0.212" stroke="hsl(0.0,100%,35%)" stroke-width="0.00015"></path>
<path d="M1.536 0.727 Q2.115 0.266 1.343 -0.117" stroke="hsl(0.0,100%,35%)" stroke-width="0.00015"></path>
<path d="M1.536 0.727 Q1.469 0.508 1.028 0.492" stroke="hsl(0.0,100%,35%)" stroke-width="0.00030"></path>
<path d="M1.536 0.727 Q1.449 0.569 1.123 0.577" stroke="hsl(0.0,100%,35%)" stroke-width="0.00045"></path>
<path d="M1.597 0.343 Q1.215 0.155 0.765 0.300" stroke="hsl(120.0,100%,35%)" stroke-width="0.00015"></path>
<path d="M1.597 0.343 Q1.193 0.304 1.028 0.492" stroke="hsl(120.0,100%,35%)" stroke-width="0.00120"></path>
<path d="M1.597 0.343 Q1.774 0.358 1.842 0.274" stroke="hsl(120.0,100%,35%)" stroke-width="0.00825"></path>
<path d="M1.597 0.343 Q1.494 0.485 1.749 0.567" stroke="hsl(120.0,100%,35%)" stroke-width="0.00330"></path>
<path d="M1.597 0.343 Q1.707 0.203 1.459 0.119" stroke="hsl(120.0,100%,35%)" stroke-width="0.00015"></path>
<path d="M1.597 0.343 Q1.697 0.248 1.533 0.178" stroke="hsl(120.0,100%,35%)" stroke-width="0.00060"></path>
<path d="M1.597 0.343 Q0.995 0.365 0.906 0.664" stroke="hsl(120.0,100%,35%)" stroke-width="0.00225"></path>
<path d="M1.597 0.343 Q0.801 0.331 0.604 0.717" stroke="hsl(120.0,100%,35%)" stroke-width="0.00045"></path>
<path d="M1.597 0.343 Q1.045 0.492 1.215 0.793" stroke="hsl(120.0,100%,35%)" stroke-width="0.00120"></path>
<path d="M1.597 0.343 Q1.454 0.073 0.896 0.084" stroke="hsl(120.0,100%,35%)" stroke-width="0.00285"></path>
<path d="M1.597 0.343 Q0.925 0.538 1.159 0.909" stroke="hsl(120.0,100%,35%)" stroke-width="0.00090"></path>
<path d="M1.597 0.343 Q1.480 0.268 1.309 0.309" stroke="hsl(120.0,100%,35%)" stroke-width="0.00120"></path>
<path d="M1.597 0.343 Q1.561 0.220 1.313 0.210" stroke="hsl(120.0,100%,35%)" stroke-width="0.00015"></path>
<path d="M1.597 0.343 Q1.430 0.424 1.551 0.523" stroke="hsl(120.0,100%,35%)" stroke-width="0.00015"></path>
<path d="M1.597 0.343 Q0.768 0.486 0.866 0.921" stroke="hsl(120.0,100%,35%)" stroke-width="0.00180"></path>
<path d="M1.597 0.343 Q0.676 0.175 0.147 0.588" stroke="hsl(120.0,100%,35%)" stroke-width="0.00045"></path>
<path d="M1.597 0.343 Q1.172 0.365 1.123 0.577" stroke="hsl(120.0,100%,35%)" stroke-width="0.00225"></path>
<path d="M1.597 0.343 Q0.503 0.234 0.050 0.743" stroke="hsl(120.0,100%,35%)" stroke-width="0.00015"></path>
<path d="M1.597 0.343 Q1.145 0.561 1.472 0.829" stroke="hsl(120.0,100%,35%)" stroke-width="0.00015"></path>
<path d="M1.597 0.343 Q1.518 0.144 1.113 0.139" stroke="hsl(120.0,100%,35%)" stroke-width="0.00015"></path>
<path d="M1.597 0.343 Q1.712 0.408 1.864 0.366" stroke="hsl(120.0,100%,35%)" stroke-width="0.00015"></path>
<path d="M0.906 0.664 Q1.365 0.372 0.896 0.084" stroke="hsl(240.0,100%,35%)" stroke-width="0.00315"></path>
<path d="M0.906 0.664 Q1.080 0.363 0.532 0.212" stroke="hsl(240.0,100%,35%)" stroke-width="0.00030"></path>
<path d="M0.906 0.664 Q0.713 0.630 0.604 0.717" stroke="hsl(240.0,100%,35%)" stroke-width="0.03422"></path>
<path d="M0.906 0.664 Q1.405 0.784 1.749 0.567" stroke="hsl(240.0,100%,35%)" stroke-width="0.01126"></path>
<path d="M0.906 0.664 Q1.104 0.602 1.028 0.492" stroke="hsl(240.0,100%,35%)" stroke-width="0.00090"></path>
<path d="M0.906 0.664 Q0.957 0.790 1.215 0.793" stroke="hsl(240.0,100%,35%)" stroke-width="0.00435"></path>
<path d="M0.906 0.664 Q1.341 0.722 1.551 0.523" stroke="hsl(240.0,100%,35%)" stroke-width="0.00075"></path>
<path d="M0.906 0.664 Q1.171 0.821 1.536 0.727" stroke="hsl(240.0,100%,35%)" stroke-width="0.00075"></path>
<path d="M0.906 0.664 Q1.057 0.860 1.472 0.829" stroke="hsl(240.0,100%,35%)" stroke-width="0.00060"></path>
<path d="M0.906 0.664 Q0.921 0.443 0.493 0.388" stroke="hsl(240.0,100%,35%)" stroke-width="0.00135"></path>
<path d="M0.906 0.664 Q1.508 0.641 1.597 0.343" stroke="hsl(240.0,100%,35%)" stroke-width="0.00300"></path>
<path d="M0.906 0.664 Q1.686 0.656 1.842 0.274" stroke="hsl(240.0,100%,35%)" stroke-width="0.00075"></path>
<path d="M0.906 0.664 Q0.937 0.588 0.797 0.557" stroke="hsl(240.0,100%,35%)" stroke-width="0.00510"></path>
<path d="M0.906 0.664 Q1.223 0.409 0.795 0.199" stroke="hsl(240.0,100%,35%)" stroke-width="0.00060"></path>
<path d="M0.906 0.664 Q1.237 0.742 1.462 0.597" stroke="hsl(240.0,100%,35%)" stroke-width="0.00060"></path>
<path d="M0.906 0.664 Q0.836 0.837 1.159 0.909" stroke="hsl(240.0,100%,35%)" stroke-width="0.00015"></path>
<path d="M0.906 0.664 Q1.784 0.594 1.841 0.151" stroke="hsl(240.0,100%,35%)" stroke-width="0.00030"></path>
<path d="M0.906 0.664 Q1.084 0.664 1.123 0.577" stroke="hsl(240.0,100%,35%)" stroke-width="0.00840"></path>
<path d="M0.906 0.664 Q0.587 0.474 0.147 0.588" stroke="hsl(240.0,100%,35%)" stroke-width="0.00030"></path>
<path d="M0.906 0.664 Q0.415 0.532 0.050 0.743" stroke="hsl(240.0,100%,35%)" stroke-width="0.00015"></path>
<path d="M0.906 0.664 Q1.127 0.454 0.765 0.300" stroke="hsl(240.0,100%,35%)" stroke-width="0.00015"></path>
<path d="M0.896 0.084 Q0.438 0.376 0.906 0.664" stroke="hsl(120.0,100%,35%)" stroke-width="0.00135"></path>
<path d="M0.896 0.084 Q0.769 0.454 1.462 0.597" stroke="hsl(120.0,100%,35%)" stroke-width="0.00015"></path>
<path d="M0.896 0.084 Q0.754 0.121 0.795 0.199" stroke="hsl(120.0,100%,35%)" stroke-width="0.00165"></path>
<path d="M0.896 0.084 Q0.611 0.075 0.532 0.212" stroke="hsl(120.0,100%,35%)" stroke-width="0.00135"></path>
<path d="M0.896 0.084 Q0.452 0.155 0.493 0.388" stroke="hsl(120.0,100%,35%)" stroke-width="0.00285"></path>
<path d="M0.896 0.084 Q0.488 0.502 1.215 0.793" stroke="hsl(120.0,100%,35%)" stroke-width="0.00015"></path>
<path d="M0.896 0.084 Q0.244 0.342 0.604 0.717" stroke="hsl(120.0,100%,35%)" stroke-width="0.00075"></path>
<path d="M0.896 0.084 Q0.471 0.086 0.381 0.294" stroke="hsl(120.0,100%,35%)" stroke-width="0.00015"></path>
<path d="M0.896 0.084 Q0.936 0.496 1.749 0.567" stroke="hsl(120.0,100%,35%)" stroke-width="0.00030"></path>
<path d="M0.896 0.084 Q1.217 0.368 1.842 0.274" stroke="hsl(120.0,100%,35%)" stroke-width="0.00045"></path>
<path d="M0.896 0.084 Q0.368 0.549 1.159 0.909" stroke="hsl(120.0,100%,35%)" stroke-width="0.00105"></path>
<path d="M0.896 0.084 Q1.039 0.353 1.597 0.343" stroke="hsl(120.0,100%,35%)" stroke-width="0.00210"></path>
<path d="M0.896 0.084 Q0.872 0.434 1.551 0.523" stroke="hsl(120.0,100%,35%)" stroke-width="0.00090"></path>
<path d="M0.896 0.084 Q1.315 0.307 1.841 0.151" stroke="hsl(120.0,100%,35%)" stroke-width="0.00030"></path>
<path d="M0.896 0.084 Q0.796 0.003 0.617 0.035" stroke="hsl(120.0,100%,35%)" stroke-width="0.00150"></path>
<path d="M0.896 0.084 Q1.139 0.258 1.533 0.178" stroke="hsl(120.0,100%,35%)" stroke-width="0.00015"></path>
<path d="M0.896 0.084 Q0.961 0.155 1.113 0.139" stroke="hsl(120.0,100%,35%)" stroke-width="0.00480"></path>
<path d="M0.896 0.084 Q0.635 0.314 1.028 0.492" stroke="hsl(120.0,100%,35%)" stroke-width="0.00060"></path>
<path d="M0.896 0.084 Q0.119 0.186 0.147 0.588" stroke="hsl(120.0,100%,35%)" stroke-width="0.00015"></path>
<path d="M0.896 0.084 Q0.702 0.533 1.536 0.727" stroke="hsl(120.0,100%,35%)" stroke-width="0.00030"></path>
<path d="M0.896 0.084 Q0.211 0.497 0.866 0.921" stroke="hsl(120.0,100%,35%)" stroke-width="0.00045"></path>
<path d="M0.896 0.084 Q0.334 0.033 0.111 0.296" stroke="hsl(120.0,100%,35%)" stroke-width="0.00015"></path>
<path d="M0.896 0.084 Q-0.054 0.244 0.050 0.743" stroke="hsl(120.0,100%,35%)" stroke-width="0.00030"></path>
<path d="M0.896 0.084 Q0.923 0.279 1.309 0.309" stroke="hsl(120.0,100%,35%)" stroke-width="0.00075"></path>
<path d="M0.896 0.084 Q0.658 0.166 0.765 0.300" stroke="hsl(120.0,100%,35%)" stroke-width="0.00015"></path>
<path d="M0.896 0.084 Q0.615 0.376 1.123 0.577" stroke="hsl(120.0,100%,35%)" stroke-width="0.00015"></path>
<path d="M0.896 0.084 Q0.640 -0.009 0.402 0.096" stroke="hsl(120.0,100%,35%)" stroke-width="0.00015"></path>
<path d="M1.028 0.492 Q0.830 0.554 0.906 0.664" stroke="hsl(120.0,100%,35%)" stroke-width="0.00495"></path>
<path d="M1.028 0.492 Q0.636 0.520 0.604 0.717" stroke="hsl(120.0,100%,35%)" stroke-width="0.00060"></path>
<path d="M1.028 0.492 Q0.760 0.727 1.159 0.909" stroke="hsl(120.0,100%,35%)" stroke-width="0.00465"></path>
<path d="M1.028 0.492 Q0.980 0.750 1.472 0.829" stroke="hsl(120.0,100%,35%)" stroke-width="0.00810"></path>
<path d="M1.028 0.492 Q1.432 0.531 1.597 0.343" stroke="hsl(120.0,100%,35%)" stroke-width="0.00240"></path>
<path d="M1.028 0.492 Q1.265 0.612 1.551 0.523" stroke="hsl(120.0,100%,35%)" stroke-width="0.00075"></path>
<path d="M1.028 0.492 Q1.172 0.438 1.098 0.355" stroke="hsl(120.0,100%,35%)" stroke-width="0.00015"></path>
<path d="M1.028 0.492 Q1.289 0.262 0.896 0.084" stroke="hsl(120.0,100%,35%)" stroke-width="0.00015"></path>
<path d="M1.028 0.492 Q1.329 0.674 1.749 0.567" stroke="hsl(120.0,100%,35%)" stroke-width="0.00090"></path>
<path d="M1.028 0.492 Q0.961 0.819 1.584 0.923" stroke="hsl(120.0,100%,35%)" stroke-width="0.00030"></path>
<path d="M1.028 0.492 Q0.604 0.674 0.866 0.921" stroke="hsl(120.0,100%,35%)" stroke-width="0.00060"></path>
<path d="M1.028 0.492 Q0.881 0.680 1.215 0.793" stroke="hsl(120.0,100%,35%)" stroke-width="0.00210"></path>
<path d="M1.028 0.492 Q1.008 0.554 1.123 0.577" stroke="hsl(120.0,100%,35%)" stroke-width="0.00120"></path>
<path d="M1.159 0.909 Q1.426 0.674 1.028 0.492" stroke="hsl(120.0,100%,35%)" stroke-width="0.00540"></path>
<path d="M1.159 0.909 Q1.002 0.856 0.866 0.921" stroke="hsl(120.0,100%,35%)" stroke-width="0.00105"></path>
<path d="M1.159 0.909 Q1.229 0.736 0.906 0.664" stroke="hsl(120.0,100%,35%)" stroke-width="0.00090"></path>
<path d="M1.159 0.909 Q1.449 0.526 0.765 0.300" stroke="hsl(120.0,100%,35%)" stroke-width="0.00045"></path>
<path d="M1.159 0.909 Q1.035 0.702 0.604 0.717" stroke="hsl(120.0,100%,35%)" stroke-width="0.00045"></path>
<path d="M1.159 0.909 Q1.830 0.713 1.597 0.343" stroke="hsl(120.0,100%,35%)" stroke-width="0.00225"></path>
<path d="M1.159 0.909 Q1.379 0.932 1.472 0.829" stroke="hsl(120.0,100%,35%)" stroke-width="0.00045"></path>
<path d="M1.159 0.909 Q1.215 0.951 1.310 0.933" stroke="hsl(120.0,100%,35%)" stroke-width="0.00015"></path>
<path d="M1.159 0.909 Q2.008 0.728 1.842 0.274" stroke="hsl(120.0,100%,35%)" stroke-width="0.00105"></path>
<path d="M1.159 0.909 Q1.066 0.934 1.094 0.984" stroke="hsl(120.0,100%,35%)" stroke-width="0.00075"></path>
<path d="M1.159 0.909 Q1.560 0.814 1.462 0.597" stroke="hsl(120.0,100%,35%)" stroke-width="0.00030"></path>
<path d="M1.159 0.909 Q1.687 0.444 0.896 0.084" stroke="hsl(120.0,100%,35%)" stroke-width="0.00075"></path>
<path d="M1.159 0.909 Q1.406 0.736 1.123 0.577" stroke="hsl(120.0,100%,35%)" stroke-width="0.00180"></path>
<path d="M1.159 0.909 Q0.737 0.604 0.050 0.743" stroke="hsl(120.0,100%,35%)" stroke-width="0.00015"></path>
<path d="M1.159 0.909 Q1.493 0.893 1.536 0.727" stroke="hsl(120.0,100%,35%)" stroke-width="0.00015"></path>
<path d="M1.159 0.909 Q1.403 0.435 0.532 0.212" stroke="hsl(120.0,100%,35%)" stroke-width="0.00015"></path>
<path d="M1.462 0.597 Q1.396 0.677 1.536 0.727" stroke="hsl(0.0,100%,35%)" stroke-width="0.00720"></path>
<path d="M1.462 0.597 Q1.282 0.715 1.472 0.829" stroke="hsl(0.0,100%,35%)" stroke-width="0.00285"></path>
<path d="M1.462 0.597 Q1.630 0.639 1.749 0.567" stroke="hsl(0.0,100%,35%)" stroke-width="0.00871"></path>
<path d="M1.462 0.597 Q1.146 0.299 0.493 0.388" stroke="hsl(0.0,100%,35%)" stroke-width="0.00015"></path>
<path d="M1.462 0.597 Q1.182 0.646 1.215 0.793" stroke="hsl(0.0,100%,35%)" stroke-width="0.00060"></path>
<path d="M1.462 0.597 Q0.812 0.329 0.147 0.588" stroke="hsl(0.0,100%,35%)" stroke-width="0.00030"></path>
<path d="M1.462 0.597 Q1.566 0.578 1.551 0.523" stroke="hsl(0.0,100%,35%)" stroke-width="0.00195"></path>
<path d="M1.462 0.597 Q1.733 0.497 1.597 0.343" stroke="hsl(0.0,100%,35%)" stroke-width="0.00015"></path>
<path d="M1.462 0.597 Q0.640 0.388 0.050 0.743" stroke="hsl(0.0,100%,35%)" stroke-width="0.00015"></path>
<path d="M1.462 0.597 Q1.131 0.519 0.906 0.664" stroke="hsl(0.0,100%,35%)" stroke-width="0.00120"></path>
<path d="M1.462 0.597 Q1.590 0.227 0.896 0.084" stroke="hsl(0.0,100%,35%)" stroke-width="0.00015"></path>
<path d="M1.462 0.597 Q1.262 0.784 1.584 0.923" stroke="hsl(0.0,100%,35%)" stroke-width="0.00030"></path>
<path d="M1.462 0.597 Q0.938 0.485 0.604 0.717" stroke="hsl(0.0,100%,35%)" stroke-width="0.00030"></path>
<path d="M1.462 0.597 Q1.309 0.519 1.123 0.577" stroke="hsl(0.0,100%,35%)" stroke-width="0.00015"></path>
<path d="M1.462 0.597 Q1.489 0.659 1.615 0.660" stroke="hsl(0.0,100%,35%)" stroke-width="0.00015"></path>
<path d="M0.931 0.752 Q0.796 0.669 0.604 0.717" stroke="hsl(240.0,100%,35%)" stroke-width="0.00045"></path>
<path d="M0.931 0.752 Q0.989 0.703 0.906 0.664" stroke="hsl(240.0,100%,35%)" stroke-width="0.00015"></path>
<path d="M0.931 0.752 Q1.004 0.483 0.493 0.388" stroke="hsl(240.0,100%,35%)" stroke-width="0.00015"></path>
<path d="M0.604 0.717 Q1.296 0.871 1.749 0.567" stroke="hsl(240.0,100%,35%)" stroke-width="0.00465"></path>
<path d="M0.604 0.717 Q0.828 0.676 0.797 0.557" stroke="hsl(240.0,100%,35%)" stroke-width="0.04533"></path>
<path d="M0.604 0.717 Q1.256 0.459 0.896 0.084" stroke="hsl(240.0,100%,35%)" stroke-width="0.00075"></path>
<path d="M0.604 0.717 Q0.797 0.751 0.906 0.664" stroke="hsl(240.0,100%,35%)" stroke-width="0.11106"></path>
<path d="M0.604 0.717 Q0.995 0.689 1.028 0.492" stroke="hsl(240.0,100%,35%)" stroke-width="0.00075"></path>
<path d="M0.604 0.717 Q0.306 0.619 0.050 0.743" stroke="hsl(240.0,100%,35%)" stroke-width="0.00045"></path>
<path d="M0.604 0.717 Q0.571 0.871 0.866 0.921" stroke="hsl(240.0,100%,35%)" stroke-width="0.00045"></path>
<path d="M0.604 0.717 Q1.062 0.908 1.536 0.727" stroke="hsl(240.0,100%,35%)" stroke-width="0.00120"></path>
<path d="M0.604 0.717 Q0.971 0.450 0.532 0.212" stroke="hsl(240.0,100%,35%)" stroke-width="0.00045"></path>
<path d="M0.604 0.717 Q0.728 0.924 1.159 0.909" stroke="hsl(240.0,100%,35%)" stroke-width="0.00075"></path>
<path d="M0.604 0.717 Q1.128 0.829 1.462 0.597" stroke="hsl(240.0,100%,35%)" stroke-width="0.00150"></path>
<path d="M0.604 0.717 Q1.399 0.728 1.597 0.343" stroke="hsl(240.0,100%,35%)" stroke-width="0.00195"></path>
<path d="M0.604 0.717 Q0.948 0.947 1.472 0.829" stroke="hsl(240.0,100%,35%)" stroke-width="0.00135"></path>
<path d="M0.604 0.717 Q1.577 0.743 1.842 0.274" stroke="hsl(240.0,100%,35%)" stroke-width="0.00015"></path>
<path d="M0.604 0.717 Q1.499 0.633 1.533 0.178" stroke="hsl(240.0,100%,35%)" stroke-width="0.00015"></path>
<path d="M0.604 0.717 Q1.675 0.681 1.841 0.151" stroke="hsl(240.0,100%,35%)" stroke-width="0.00015"></path>
<path d="M0.604 0.717 Q0.478 0.561 0.147 0.588" stroke="hsl(240.0,100%,35%)" stroke-width="0.00045"></path>
<path d="M0.604 0.717 Q0.848 0.877 1.215 0.793" stroke="hsl(240.0,100%,35%)" stroke-width="0.00150"></path>
<path d="M0.604 0.717 Q1.114 0.496 0.795 0.199" stroke="hsl(240.0,100%,35%)" stroke-width="0.00015"></path>
<path d="M0.604 0.717 Q0.975 0.751 1.123 0.577" stroke="hsl(240.0,100%,35%)" stroke-width="0.00210"></path>
<path d="M0.604 0.717 Q1.232 0.809 1.551 0.523" stroke="hsl(240.0,100%,35%)" stroke-width="0.00045"></path>
<path d="M0.604 0.717 Q0.928 1.016 1.584 0.923" stroke="hsl(240.0,100%,35%)" stroke-width="0.00030"></path>
<path d="M1.215 0.793 Q1.314 0.863 1.472 0.829" stroke="hsl(0.0,100%,35%)" stroke-width="0.00720"></path>
<path d="M1.215 0.793 Q1.428 0.824 1.536 0.727" stroke="hsl(0.0,100%,35%)" stroke-width="0.00105"></path>
<path d="M1.215 0.793 Q1.663 0.787 1.749 0.567" stroke="hsl(0.0,100%,35%)" stroke-width="0.00540"></path>
<path d="M1.215 0.793 Q1.766 0.644 1.597 0.343" stroke="hsl(0.0,100%,35%)" stroke-width="0.00585"></path>
<path d="M1.215 0.793 Q1.495 0.745 1.462 0.597" stroke="hsl(0.0,100%,35%)" stroke-width="0.00045"></path>
<path d="M1.215 0.793 Q1.943 0.659 1.842 0.274" stroke="hsl(0.0,100%,35%)" stroke-width="0.00195"></path>
<path d="M1.215 0.793 Q1.164 0.667 0.906 0.664" stroke="hsl(0.0,100%,35%)" stroke-width="0.00105"></path>
<path d="M1.215 0.793 Q0.845 0.477 0.147 0.588" stroke="hsl(0.0,100%,35%)" stroke-width="0.00090"></path>
<path d="M1.215 0.793 Q1.599 0.725 1.551 0.523" stroke="hsl(0.0,100%,35%)" stroke-width="0.00150"></path>
<path d="M1.215 0.793 Q0.970 0.633 0.604 0.717" stroke="hsl(0.0,100%,35%)" stroke-width="0.00030"></path>
<path d="M1.215 0.793 Q1.362 0.605 1.028 0.492" stroke="hsl(0.0,100%,35%)" stroke-width="0.00075"></path>
<path d="M1.215 0.793 Q1.146 0.736 1.021 0.758" stroke="hsl(0.0,100%,35%)" stroke-width="0.00015"></path>
<path d="M1.215 0.793 Q1.866 0.549 1.533 0.178" stroke="hsl(0.0,100%,35%)" stroke-width="0.00015"></path>
<path d="M1.215 0.793 Q1.342 0.667 1.123 0.577" stroke="hsl(0.0,100%,35%)" stroke-width="0.00105"></path>
<path d="M1.215 0.793 Q1.623 0.375 0.896 0.084" stroke="hsl(0.0,100%,35%)" stroke-width="0.00015"></path>
<path d="M0.050 0.743 Q0.556 0.654 0.493 0.388" stroke="hsl(120.0,100%,35%)" stroke-width="0.00015"></path>
<path d="M0.050 0.743 Q0.223 0.685 0.147 0.588" stroke="hsl(120.0,100%,35%)" stroke-width="0.00300"></path>
<path d="M0.050 0.743 Q0.716 0.574 0.532 0.212" stroke="hsl(120.0,100%,35%)" stroke-width="0.00015"></path>
<path d="M0.050 0.743 Q0.035 0.834 0.209 0.862" stroke="hsl(120.0,100%,35%)" stroke-width="0.00045"></path>
<path d="M0.050 0.743 Q1.001 0.583 0.896 0.084" stroke="hsl(120.0,100%,35%)" stroke-width="0.00030"></path>
<path d="M0.050 0.743 Q0.858 0.620 0.795 0.199" stroke="hsl(120.0,100%,35%)" stroke-width="0.00015"></path>
<path d="M0.050 0.743 Q0.542 0.875 0.906 0.664" stroke="hsl(120.0,100%,35%)" stroke-width="0.00015"></path>
<path d="M0.050 0.743 Q1.144 0.852 1.597 0.343" stroke="hsl(120.0,100%,35%)" stroke-width="0.00015"></path>
<path d="M0.797 0.557 Q0.573 0.598 0.604 0.717" stroke="hsl(240.0,100%,35%)" stroke-width="0.03167"></path>
<path d="M0.797 0.557 Q0.766 0.632 0.906 0.664" stroke="hsl(240.0,100%,35%)" stroke-width="0.01141"></path>
<path d="M0.797 0.557 Q1.265 0.752 1.749 0.567" stroke="hsl(240.0,100%,35%)" stroke-width="0.00030"></path>
<path d="M0.797 0.557 Q0.944 0.632 1.123 0.577" stroke="hsl(240.0,100%,35%)" stroke-width="0.00015"></path>
<path d="M0.795 0.199 Q0.285 0.419 0.604 0.717" stroke="hsl(120.0,100%,35%)" stroke-width="0.00030"></path>
<path d="M0.795 0.199 Q0.652 0.153 0.532 0.212" stroke="hsl(120.0,100%,35%)" stroke-width="0.00045"></path>
<path d="M0.795 0.199 Q0.493 0.233 0.493 0.388" stroke="hsl(120.0,100%,35%)" stroke-width="0.00180"></path>
<path d="M0.795 0.199 Q0.977 0.573 1.749 0.567" stroke="hsl(120.0,100%,35%)" stroke-width="0.00030"></path>
<path d="M0.795 0.199 Q0.409 0.626 1.159 0.909" stroke="hsl(120.0,100%,35%)" stroke-width="0.00015"></path>
<path d="M0.795 0.199 Q0.656 0.453 1.123 0.577" stroke="hsl(120.0,100%,35%)" stroke-width="0.00030"></path>
<path d="M0.795 0.199 Q0.610 0.719 1.584 0.923" stroke="hsl(120.0,100%,35%)" stroke-width="0.00015"></path>
<path d="M0.795 0.199 Q0.913 0.512 1.551 0.523" stroke="hsl(120.0,100%,35%)" stroke-width="0.00015"></path>
<path d="M0.795 0.199 Q0.699 0.243 0.765 0.300" stroke="hsl(120.0,100%,35%)" stroke-width="0.00045"></path>
<path d="M0.795 0.199 Q0.937 0.162 0.896 0.084" stroke="hsl(120.0,100%,35%)" stroke-width="0.00015"></path>
<path d="M0.795 0.199 Q1.258 0.446 1.842 0.274" stroke="hsl(120.0,100%,35%)" stroke-width="0.00030"></path>
<path d="M0.111 0.296 Q0.673 0.347 0.896 0.084" stroke="hsl(120.0,100%,35%)" stroke-width="0.00075"></path>
<path d="M0.111 0.296 Q0.229 0.418 0.493 0.388" stroke="hsl(120.0,100%,35%)" stroke-width="0.00150"></path>
<path d="M0.111 0.296 Q0.573 0.266 0.617 0.035" stroke="hsl(120.0,100%,35%)" stroke-width="0.00015"></path>
<path d="M0.111 0.296 Q0.392 0.639 1.123 0.577" stroke="hsl(120.0,100%,35%)" stroke-width="0.00015"></path>
<path d="M0.111 0.296 Q0.365 0.835 1.472 0.829" stroke="hsl(120.0,100%,35%)" stroke-width="0.00015"></path>
<path d="M0.111 0.296 Q0.531 0.384 0.795 0.199" stroke="hsl(120.0,100%,35%)" stroke-width="0.00015"></path>
<path d="M0.111 0.296 Q0.916 0.521 1.533 0.178" stroke="hsl(120.0,100%,35%)" stroke-width="0.00015"></path>
<path d="M1.842 0.274 Q1.940 0.213 1.841 0.151" stroke="hsl(120.0,100%,35%)" stroke-width="0.00480"></path>
<path d="M1.842 0.274 Q1.063 0.282 0.906 0.664" stroke="hsl(120.0,100%,35%)" stroke-width="0.00120"></path>
<path d="M1.842 0.274 Q1.562 0.402 1.749 0.567" stroke="hsl(120.0,100%,35%)" stroke-width="0.00030"></path>
<path d="M1.842 0.274 Q0.993 0.455 1.159 0.909" stroke="hsl(120.0,100%,35%)" stroke-width="0.00180"></path>
<path d="M1.842 0.274 Q1.664 0.259 1.597 0.343" stroke="hsl(120.0,100%,35%)" stroke-width="0.00240"></path>
<path d="M1.842 0.274 Q0.869 0.248 0.604 0.717" stroke="hsl(120.0,100%,35%)" stroke-width="0.00015"></path>
<path d="M1.842 0.274 Q1.522 -0.010 0.896 0.084" stroke="hsl(120.0,100%,35%)" stroke-width="0.00045"></path>
<path d="M1.842 0.274 Q0.744 0.092 0.147 0.588" stroke="hsl(120.0,100%,35%)" stroke-width="0.00090"></path>
<path d="M1.842 0.274 Q1.765 0.164 1.533 0.178" stroke="hsl(120.0,100%,35%)" stroke-width="0.00630"></path>
<path d="M1.842 0.274 Q1.240 0.282 1.123 0.577" stroke="hsl(120.0,100%,35%)" stroke-width="0.00075"></path>
<path d="M1.842 0.274 Q1.379 0.027 0.795 0.199" stroke="hsl(120.0,100%,35%)" stroke-width="0.00015"></path>
<path d="M1.841 0.151 Q1.743 0.213 1.842 0.274" stroke="hsl(120.0,100%,35%)" stroke-width="0.00675"></path>
<path d="M1.841 0.151 Q1.566 0.198 1.597 0.343" stroke="hsl(120.0,100%,35%)" stroke-width="0.00015"></path>
<path d="M1.841 0.151 Q1.769 0.026 1.508 0.034" stroke="hsl(120.0,100%,35%)" stroke-width="0.00045"></path>
<path d="M1.841 0.151 Q1.423 -0.071 0.896 0.084" stroke="hsl(120.0,100%,35%)" stroke-width="0.00015"></path>
<path d="M1.841 0.151 Q1.626 0.049 1.379 0.132" stroke="hsl(120.0,100%,35%)" stroke-width="0.00030"></path>
<path d="M1.841 0.151 Q0.645 0.031 0.147 0.588" stroke="hsl(120.0,100%,35%)" stroke-width="0.00045"></path>
<path d="M1.841 0.151 Q0.994 0.145 0.797 0.557" stroke="hsl(120.0,100%,35%)" stroke-width="0.00015"></path>
<path d="M0.147 0.588 Q0.686 0.567 0.765 0.300" stroke="hsl(120.0,100%,35%)" stroke-width="0.00015"></path>
<path d="M0.147 0.588 Q0.964 0.897 1.749 0.567" stroke="hsl(120.0,100%,35%)" stroke-width="0.00015"></path>
<path d="M0.147 0.588 Q0.797 0.856 1.462 0.597" stroke="hsl(120.0,100%,35%)" stroke-width="0.00030"></path>
<path d="M0.147 0.588 Q0.466 0.777 0.906 0.664" stroke="hsl(120.0,100%,35%)" stroke-width="0.00015"></path>
<path d="M0.147 0.588 Q0.643 0.777 1.123 0.577" stroke="hsl(120.0,100%,35%)" stroke-width="0.00015"></path>
<path d="M1.113 0.139 Q1.089 0.480 1.749 0.567" stroke="hsl(120.0,100%,35%)" stroke-width="0.00045"></path>
<path d="M1.113 0.139 Q0.098 0.228 0.050 0.743" stroke="hsl(120.0,100%,35%)" stroke-width="0.00045"></path>
<path d="M1.113 0.139 Q1.049 0.068 0.896 0.084" stroke="hsl(120.0,100%,35%)" stroke-width="0.00225"></path>
<path d="M1.113 0.139 Q0.767 0.360 1.123 0.577" stroke="hsl(120.0,100%,35%)" stroke-width="0.00015"></path>
<path d="M1.113 0.139 Q1.025 0.419 1.551 0.523" stroke="hsl(120.0,100%,35%)" stroke-width="0.00030"></path>
<path d="M1.113 0.139 Q0.906 0.105 0.795 0.199" stroke="hsl(120.0,100%,35%)" stroke-width="0.00015"></path>
<path d="M1.113 0.139 Q1.188 0.079 1.087 0.029" stroke="hsl(120.0,100%,35%)" stroke-width="0.00015"></path>
<path d="M1.113 0.139 Q0.271 0.170 0.147 0.588" stroke="hsl(120.0,100%,35%)" stroke-width="0.00030"></path>
<path d="M1.113 0.139 Q0.949 -0.013 0.617 0.035" stroke="hsl(120.0,100%,35%)" stroke-width="0.00045"></path>
<path d="M1.113 0.139 Q1.369 0.352 1.842 0.274" stroke="hsl(120.0,100%,35%)" stroke-width="0.00015"></path>
<path d="M0.866 0.921 Q1.970 0.731 1.841 0.151" stroke="hsl(120.0,100%,35%)" stroke-width="0.00015"></path>
<path d="M0.866 0.921 Q1.694 0.778 1.597 0.343" stroke="hsl(120.0,100%,35%)" stroke-width="0.00105"></path>
<path d="M0.866 0.921 Q1.551 0.509 0.896 0.084" stroke="hsl(120.0,100%,35%)" stroke-width="0.00045"></path>
<path d="M0.866 0.921 Q0.899 0.766 0.604 0.717" stroke="hsl(120.0,100%,35%)" stroke-width="0.00045"></path>
<path d="M0.866 0.921 Q1.872 0.793 1.842 0.274" stroke="hsl(120.0,100%,35%)" stroke-width="0.00030"></path>
<path d="M0.866 0.921 Q1.092 0.801 0.906 0.664" stroke="hsl(120.0,100%,35%)" stroke-width="0.00015"></path>
<path d="M0.866 0.921 Q1.023 0.974 1.159 0.909" stroke="hsl(120.0,100%,35%)" stroke-width="0.00690"></path>
<path d="M0.866 0.921 Q1.290 0.739 1.028 0.492" stroke="hsl(120.0,100%,35%)" stroke-width="0.00015"></path>
<path d="M0.866 0.921 Q0.798 0.936 0.813 0.973" stroke="hsl(120.0,100%,35%)" stroke-width="0.00015"></path>
<path d="M1.533 0.178 Q1.433 0.273 1.597 0.343" stroke="hsl(120.0,100%,35%)" stroke-width="0.00060"></path>
<path d="M1.533 0.178 Q1.610 0.288 1.842 0.274" stroke="hsl(120.0,100%,35%)" stroke-width="0.00886"></path>
<path d="M1.533 0.178 Q1.266 0.354 1.551 0.523" stroke="hsl(120.0,100%,35%)" stroke-width="0.00105"></path>
<path d="M1.533 0.178 Q1.290 0.004 0.896 0.084" stroke="hsl(120.0,100%,35%)" stroke-width="0.00045"></path>
<path d="M1.533 0.178 Q1.009 0.295 1.123 0.577" stroke="hsl(120.0,100%,35%)" stroke-width="0.00015"></path>
<path d="M1.533 0.178 Q1.005 -0.005 0.532 0.212" stroke="hsl(120.0,100%,35%)" stroke-width="0.00015"></path>
<path d="M0.751 0.810 Q0.635 0.794 0.580 0.847" stroke="hsl(0.0,100%,35%)" stroke-width="0.00060"></path>
<path d="M0.751 0.810 Q0.946 0.768 0.906 0.664" stroke="hsl(0.0,100%,35%)" stroke-width="0.00030"></path>
<path d="M0.751 0.810 Q0.960 0.547 0.493 0.388" stroke="hsl(0.0,100%,35%)" stroke-width="0.00045"></path>
<path d="M0.580 0.847 Q1.221 0.899 1.462 0.597" stroke="hsl(0.0,100%,35%)" stroke-width="0.00090"></path>
<path d="M0.580 0.847 Q0.695 0.863 0.751 0.810" stroke="hsl(0.0,100%,35%)" stroke-width="0.00045"></path>
<path d="M0.580 0.847 Q1.067 0.821 1.123 0.577" stroke="hsl(0.0,100%,35%)" stroke-width="0.00015"></path>
<path d="M0.580 0.847 Q0.583 0.813 0.518 0.804" stroke="hsl(0.0,100%,35%)" stroke-width="0.00015"></path>
<path d="M0.555 0.977 Q1.158 0.890 1.123 0.577" stroke="hsl(120.0,100%,35%)" stroke-width="0.00015"></path>
<path d="M0.555 0.977 Q0.911 1.063 1.159 0.909" stroke="hsl(120.0,100%,35%)" stroke-width="0.00030"></path>
<path d="M0.555 0.977 Q0.435 0.916 0.292 0.961" stroke="hsl(120.0,100%,35%)" stroke-width="0.00015"></path>
<path d="M0.765 0.882 Q1.469 0.509 0.896 0.084" stroke="hsl(120.0,100%,35%)" stroke-width="0.00015"></path>
<path d="M0.765 0.882 Q0.941 0.974 1.159 0.909" stroke="hsl(120.0,100%,35%)" stroke-width="0.00015"></path>
<path d="M0.765 0.882 Q1.612 0.779 1.597 0.343" stroke="hsl(120.0,100%,35%)" stroke-width="0.00015"></path>
<path d="M0.405 0.510 Q0.214 0.497 0.147 0.588" stroke="hsl(120.0,100%,35%)" stroke-width="0.00045"></path>
<path d="M0.405 0.510 Q0.041 0.556 0.050 0.743" stroke="hsl(120.0,100%,35%)" stroke-width="0.00045"></path>
<path d="M0.405 0.510 Q0.166 0.598 0.285 0.733" stroke="hsl(120.0,100%,35%)" stroke-width="0.00015"></path>
</g>
<text x="1.584" y="0.907" font-size="0.031667" fill="hsl(0.0,100%,20%)">adlai</text>
<text x="1.749" y="0.539" font-size="0.055431" fill="hsl(0.0,100%,20%)">bsalomon</text>
<text x="1.472" y="0.804" font-size="0.050190" fill="hsl(0.0,100%,20%)">robertphillips</text>
<text x="1.551" y="0.501" font-size="0.044107" fill="hsl(0.0,100%,20%)">csmartdalton</text>
<text x="0.532" y="0.203" font-size="0.018788" fill="hsl(120.0,100%,20%)">rmistry</text>
<text x="0.493" y="0.375" font-size="0.024365" fill="hsl(120.0,100%,20%)">borenet</text>
<text x="1.123" y="0.559" font-size="0.036548" fill="hsl(120.0,100%,20%)">mtklein</text>
<text x="1.536" y="0.709" font-size="0.034920" fill="hsl(0.0,100%,20%)">jvanverth</text>
<text x="1.597" y="0.324" font-size="0.038681" fill="hsl(120.0,100%,20%)">reed</text>
<text x="0.906" y="0.624" font-size="0.079231" fill="hsl(240.0,100%,20%)">brianosman</text>
<text x="0.896" y="0.068" font-size="0.032726" fill="hsl(120.0,100%,20%)">kjlubick</text>
<text x="1.028" y="0.475" font-size="0.034224" fill="hsl(120.0,100%,20%)">herb</text>
<text x="1.159" y="0.894" font-size="0.030242" fill="hsl(120.0,100%,20%)">bungeman</text>
<text x="1.462" y="0.577" font-size="0.040206" fill="hsl(0.0,100%,20%)">egdaniel</text>
<text x="0.931" y="0.750" font-size="0.004478" fill="hsl(240.0,100%,20%)">bajones</text>
<text x="0.604" y="0.675" font-size="0.082261" fill="hsl(240.0,100%,20%)">johnstiles</text>
<text x="0.381" y="0.292" font-size="0.004006" fill="hsl(120.0,100%,20%)">erikrose</text>
<text x="1.215" y="0.772" font-size="0.043002" fill="hsl(0.0,100%,20%)">michaelludwig</text>
<text x="0.050" y="0.736" font-size="0.014162" fill="hsl(120.0,100%,20%)">scroggo</text>
<text x="0.797" y="0.532" font-size="0.050469" fill="hsl(240.0,100%,20%)">ethannicholas</text>
<text x="0.795" y="0.191" font-size="0.016022" fill="hsl(120.0,100%,20%)">jcgregorio</text>
<text x="0.111" y="0.290" font-size="0.011678" fill="hsl(120.0,100%,20%)">westont</text>
<text x="1.842" y="0.256" font-size="0.036328" fill="hsl(120.0,100%,20%)">fmalita</text>
<text x="1.841" y="0.142" font-size="0.019418" fill="hsl(120.0,100%,20%)">jmbetancourt</text>
<text x="0.147" y="0.580" font-size="0.015642" fill="hsl(120.0,100%,20%)">djsollen</text>
<text x="0.765" y="0.296" font-size="0.007494" fill="hsl(120.0,100%,20%)">hcm</text>
<text x="1.508" y="0.032" font-size="0.004906" fill="hsl(120.0,100%,20%)">stani</text>
<text x="1.113" y="0.131" font-size="0.016394" fill="hsl(120.0,100%,20%)">nifong</text>
<text x="0.866" y="0.911" font-size="0.019725" fill="hsl(120.0,100%,20%)">jlavrova</text>
<text x="1.310" y="0.932" font-size="0.002003" fill="hsl(120.0,100%,20%)">grieger</text>
<text x="1.094" y="0.982" font-size="0.004478" fill="hsl(120.0,100%,20%)">drott</text>
<text x="1.481" y="0.417" font-size="0.002832" fill="hsl(0.0,100%,20%)">junov</text>
<text x="1.533" y="0.166" font-size="0.023528" fill="hsl(120.0,100%,20%)">tdenniston</text>
<text x="0.751" y="0.806" font-size="0.006938" fill="hsl(0.0,100%,20%)">cwallez</text>
<text x="0.580" y="0.843" font-size="0.007757" fill="hsl(0.0,100%,20%)">senorblanco</text>
<text x="1.615" y="0.659" font-size="0.002003" fill="hsl(0.0,100%,20%)">sugoi</text>
<text x="1.098" y="0.354" font-size="0.002003" fill="hsl(120.0,100%,20%)">jiulongw</text>
<text x="0.555" y="0.975" font-size="0.004006" fill="hsl(120.0,100%,20%)">james</text>
<text x="0.292" y="0.960" font-size="0.002003" fill="hsl(120.0,100%,20%)">cbracken</text>
<text x="0.813" y="0.972" font-size="0.002003" fill="hsl(120.0,100%,20%)">jsimmons</text>
<text x="1.379" y="0.130" font-size="0.002832" fill="hsl(120.0,100%,20%)">fuego</text>
<text x="1.309" y="0.305" font-size="0.007494" fill="hsl(120.0,100%,20%)">yjbanov</text>
<text x="1.343" y="-0.118" font-size="0.002003" fill="hsl(0.0,100%,20%)">chinmaygarde</text>
<text x="0.617" y="0.031" font-size="0.007494" fill="hsl(120.0,100%,20%)">lovisolo</text>
<text x="0.402" y="0.095" font-size="0.002003" fill="hsl(120.0,100%,20%)">het</text>
<text x="1.021" y="0.757" font-size="0.002003" fill="hsl(0.0,100%,20%)">fs</text>
<text x="1.209" y="0.437" font-size="0.002003" fill="hsl(120.0,100%,20%)">pefoley</text>
<text x="1.087" y="0.028" font-size="0.002003" fill="hsl(120.0,100%,20%)">alecmouri</text>
<text x="0.765" y="0.880" font-size="0.003469" fill="hsl(120.0,100%,20%)">pkasting</text>
<text x="1.459" y="0.118" font-size="0.002003" fill="hsl(120.0,100%,20%)">whesse</text>
<text x="1.313" y="0.209" font-size="0.002003" fill="hsl(120.0,100%,20%)">mdebbar</text>
<text x="1.864" y="0.365" font-size="0.002003" fill="hsl(120.0,100%,20%)">thiabaud</text>
<text x="0.209" y="0.860" font-size="0.003469" fill="hsl(120.0,100%,20%)">nigeltao</text>
<text x="0.518" y="0.803" font-size="0.002003" fill="hsl(0.0,100%,20%)">enga</text>
<text x="0.405" y="0.507" font-size="0.005299" fill="hsl(120.0,100%,20%)">vigneshv</text>
<text x="0.285" y="0.732" font-size="0.002003" fill="hsl(120.0,100%,20%)">chz</text>
</svg>
