<svg width="4000" height="2000" viewBox="-0.025 -0.025 2.05 1.05" xmlns="http://www.w3.org/2000/svg">
  <style>
    path {
      fill: none;
      stroke-linecap: round;
      stroke-opacity: 0.4;
    }

    text {
      text-anchor: middle;
      alignment-baseline: hanging;
    }
  </style>
  <g opacity="0.4">
<path d="M1.483 0.710 Q1.248 0.559 0.902 0.641" stroke="hsl(0.0,100%,35%)" stroke-width="0.00094"></path>
<path d="M1.483 0.710 Q1.325 0.644 1.163 0.707" stroke="hsl(0.0,100%,35%)" stroke-width="0.00047"></path>
<path d="M1.483 0.710 Q1.468 0.473 1.004 0.429" stroke="hsl(0.0,100%,35%)" stroke-width="0.00047"></path>
<path d="M0.902 0.641 Q0.940 0.837 1.330 0.861" stroke="hsl(0.0,100%,35%)" stroke-width="0.01264"></path>
<path d="M0.902 0.641 Q0.705 0.614 0.609 0.704" stroke="hsl(0.0,100%,35%)" stroke-width="0.00047"></path>
<path d="M0.902 0.641 Q1.226 0.627 1.271 0.466" stroke="hsl(0.0,100%,35%)" stroke-width="0.00374"></path>
<path d="M0.902 0.641 Q1.123 0.555 1.004 0.429" stroke="hsl(0.0,100%,35%)" stroke-width="0.00374"></path>
<path d="M0.902 0.641 Q1.542 0.508 1.423 0.167" stroke="hsl(0.0,100%,35%)" stroke-width="0.00374"></path>
<path d="M0.902 0.641 Q0.980 0.726 1.163 0.707" stroke="hsl(0.0,100%,35%)" stroke-width="0.00421"></path>
<path d="M0.902 0.641 Q0.966 0.550 0.803 0.499" stroke="hsl(0.0,100%,35%)" stroke-width="0.00047"></path>
<path d="M0.902 0.641 Q0.596 0.537 0.326 0.664" stroke="hsl(0.0,100%,35%)" stroke-width="0.00281"></path>
<path d="M0.902 0.641 Q1.259 0.524 1.108 0.324" stroke="hsl(0.0,100%,35%)" stroke-width="0.00421"></path>
<path d="M0.902 0.641 Q0.368 0.571 0.115 0.816" stroke="hsl(0.0,100%,35%)" stroke-width="0.00187"></path>
<path d="M0.902 0.641 Q0.521 0.597 0.353 0.773" stroke="hsl(0.0,100%,35%)" stroke-width="0.00047"></path>
<path d="M0.902 0.641 Q0.817 0.544 0.610 0.564" stroke="hsl(0.0,100%,35%)" stroke-width="0.00047"></path>
<path d="M0.902 0.641 Q1.078 0.606 1.048 0.513" stroke="hsl(0.0,100%,35%)" stroke-width="0.00047"></path>
<path d="M0.902 0.641 Q0.449 0.644 0.355 0.866" stroke="hsl(0.0,100%,35%)" stroke-width="0.00047"></path>
<path d="M1.163 0.707 Q1.086 0.622 0.902 0.641" stroke="hsl(0.0,100%,35%)" stroke-width="0.02013"></path>
<path d="M1.163 0.707 Q1.725 0.489 1.423 0.167" stroke="hsl(0.0,100%,35%)" stroke-width="0.00234"></path>
<path d="M1.163 0.707 Q1.410 0.608 1.271 0.466" stroke="hsl(0.0,100%,35%)" stroke-width="0.00328"></path>
<path d="M1.163 0.707 Q0.875 0.461 0.331 0.547" stroke="hsl(0.0,100%,35%)" stroke-width="0.00374"></path>
<path d="M1.163 0.707 Q1.307 0.536 1.004 0.429" stroke="hsl(0.0,100%,35%)" stroke-width="0.00749"></path>
<path d="M1.163 0.707 Q1.149 0.531 0.803 0.499" stroke="hsl(0.0,100%,35%)" stroke-width="0.00234"></path>
<path d="M1.163 0.707 Q1.443 0.504 1.108 0.324" stroke="hsl(0.0,100%,35%)" stroke-width="0.00702"></path>
<path d="M1.163 0.707 Q1.002 0.731 1.012 0.815" stroke="hsl(0.0,100%,35%)" stroke-width="0.00047"></path>
<path d="M1.163 0.707 Q0.705 0.578 0.353 0.773" stroke="hsl(0.0,100%,35%)" stroke-width="0.00047"></path>
<path d="M1.163 0.707 Q1.124 0.818 1.330 0.861" stroke="hsl(0.0,100%,35%)" stroke-width="0.00234"></path>
<path d="M1.163 0.707 Q0.552 0.552 0.115 0.816" stroke="hsl(0.0,100%,35%)" stroke-width="0.00796"></path>
<path d="M1.163 0.707 Q1.527 0.552 1.303 0.340" stroke="hsl(0.0,100%,35%)" stroke-width="0.00047"></path>
<path d="M1.163 0.707 Q0.779 0.518 0.326 0.664" stroke="hsl(0.0,100%,35%)" stroke-width="0.00140"></path>
<path d="M1.163 0.707 Q0.831 0.715 0.772 0.878" stroke="hsl(0.0,100%,35%)" stroke-width="0.00047"></path>
<path d="M1.163 0.707 Q0.801 0.668 0.645 0.836" stroke="hsl(0.0,100%,35%)" stroke-width="0.00047"></path>
<path d="M1.163 0.707 Q1.151 0.404 0.557 0.343" stroke="hsl(0.0,100%,35%)" stroke-width="0.00796"></path>
<path d="M1.004 0.429 Q1.140 0.397 1.108 0.324" stroke="hsl(0.0,100%,35%)" stroke-width="0.02902"></path>
<path d="M1.004 0.429 Q1.107 0.501 1.271 0.466" stroke="hsl(0.0,100%,35%)" stroke-width="0.01592"></path>
<path d="M1.004 0.429 Q0.249 0.445 0.115 0.816" stroke="hsl(0.0,100%,35%)" stroke-width="0.00140"></path>
<path d="M1.004 0.429 Q0.847 0.424 0.803 0.499" stroke="hsl(0.0,100%,35%)" stroke-width="0.01358"></path>
<path d="M1.004 0.429 Q1.423 0.382 1.423 0.167" stroke="hsl(0.0,100%,35%)" stroke-width="0.01358"></path>
<path d="M1.004 0.429 Q1.224 0.444 1.303 0.340" stroke="hsl(0.0,100%,35%)" stroke-width="0.00234"></path>
<path d="M1.004 0.429 Q0.860 0.600 1.163 0.707" stroke="hsl(0.0,100%,35%)" stroke-width="0.00281"></path>
<path d="M1.004 0.429 Q0.783 0.514 0.902 0.641" stroke="hsl(0.0,100%,35%)" stroke-width="0.00562"></path>
<path d="M1.004 0.429 Q0.528 0.607 0.772 0.878" stroke="hsl(0.0,100%,35%)" stroke-width="0.00047"></path>
<path d="M1.004 0.429 Q0.572 0.353 0.331 0.547" stroke="hsl(0.0,100%,35%)" stroke-width="0.00421"></path>
<path d="M1.004 0.429 Q0.848 0.297 0.557 0.343" stroke="hsl(0.0,100%,35%)" stroke-width="0.00047"></path>
<path d="M1.004 0.429 Q0.698 0.418 0.610 0.564" stroke="hsl(0.0,100%,35%)" stroke-width="0.00047"></path>
<path d="M1.303 0.340 Q1.083 0.325 1.004 0.429" stroke="hsl(0.0,100%,35%)" stroke-width="0.00328"></path>
<path d="M1.303 0.340 Q0.925 0.320 0.803 0.499" stroke="hsl(0.0,100%,35%)" stroke-width="0.00094"></path>
<path d="M1.303 0.340 Q1.186 0.397 1.271 0.466" stroke="hsl(0.0,100%,35%)" stroke-width="0.00421"></path>
<path d="M1.303 0.340 Q0.651 0.249 0.331 0.547" stroke="hsl(0.0,100%,35%)" stroke-width="0.00047"></path>
<path d="M1.303 0.340 Q1.219 0.293 1.108 0.324" stroke="hsl(0.0,100%,35%)" stroke-width="0.00047"></path>
<path d="M1.303 0.340 Q1.501 0.278 1.423 0.167" stroke="hsl(0.0,100%,35%)" stroke-width="0.00047"></path>
<path d="M1.303 0.340 Q0.328 0.341 0.115 0.816" stroke="hsl(0.0,100%,35%)" stroke-width="0.00140"></path>
<path d="M1.303 0.340 Q0.754 0.465 0.878 0.760" stroke="hsl(0.0,100%,35%)" stroke-width="0.00047"></path>
<path d="M0.803 0.499 Q0.960 0.504 1.004 0.429" stroke="hsl(0.0,100%,35%)" stroke-width="0.00749"></path>
<path d="M0.803 0.499 Q1.096 0.473 1.108 0.324" stroke="hsl(0.0,100%,35%)" stroke-width="0.00140"></path>
<path d="M0.803 0.499 Q0.817 0.675 1.163 0.707" stroke="hsl(0.0,100%,35%)" stroke-width="0.00094"></path>
<path d="M0.803 0.499 Q0.529 0.429 0.331 0.547" stroke="hsl(0.0,100%,35%)" stroke-width="0.00047"></path>
<path d="M0.803 0.499 Q1.379 0.457 1.423 0.167" stroke="hsl(0.0,100%,35%)" stroke-width="0.00094"></path>
<path d="M0.803 0.499 Q0.655 0.493 0.610 0.564" stroke="hsl(0.0,100%,35%)" stroke-width="0.00047"></path>
<path d="M0.803 0.499 Q0.484 0.683 0.772 0.878" stroke="hsl(0.0,100%,35%)" stroke-width="0.00047"></path>
<path d="M0.803 0.499 Q0.739 0.590 0.902 0.641" stroke="hsl(0.0,100%,35%)" stroke-width="0.00187"></path>
<path d="M0.803 0.499 Q0.359 0.546 0.353 0.773" stroke="hsl(0.0,100%,35%)" stroke-width="0.00047"></path>
<path d="M1.271 0.466 Q1.168 0.394 1.004 0.429" stroke="hsl(0.0,100%,35%)" stroke-width="0.02013"></path>
<path d="M1.271 0.466 Q1.304 0.362 1.108 0.324" stroke="hsl(0.0,100%,35%)" stroke-width="0.01872"></path>
<path d="M1.271 0.466 Q1.388 0.410 1.303 0.340" stroke="hsl(0.0,100%,35%)" stroke-width="0.00234"></path>
<path d="M1.271 0.466 Q0.413 0.410 0.115 0.816" stroke="hsl(0.0,100%,35%)" stroke-width="0.00328"></path>
<path d="M1.271 0.466 Q1.024 0.565 1.163 0.707" stroke="hsl(0.0,100%,35%)" stroke-width="0.00094"></path>
<path d="M1.271 0.466 Q1.586 0.347 1.423 0.167" stroke="hsl(0.0,100%,35%)" stroke-width="0.00187"></path>
<path d="M1.271 0.466 Q0.947 0.480 0.902 0.641" stroke="hsl(0.0,100%,35%)" stroke-width="0.00609"></path>
<path d="M1.271 0.466 Q0.985 0.676 1.330 0.861" stroke="hsl(0.0,100%,35%)" stroke-width="0.00187"></path>
<path d="M1.271 0.466 Q0.566 0.436 0.353 0.773" stroke="hsl(0.0,100%,35%)" stroke-width="0.00047"></path>
<path d="M1.271 0.466 Q1.010 0.389 0.803 0.499" stroke="hsl(0.0,100%,35%)" stroke-width="0.00094"></path>
<path d="M1.271 0.466 Q0.736 0.319 0.331 0.547" stroke="hsl(0.0,100%,35%)" stroke-width="0.00047"></path>
<path d="M0.331 0.547 Q1.181 0.576 1.423 0.167" stroke="hsl(0.0,100%,35%)" stroke-width="0.00468"></path>
<path d="M0.331 0.547 Q0.762 0.622 1.004 0.429" stroke="hsl(0.0,100%,35%)" stroke-width="0.00234"></path>
<path d="M0.331 0.547 Q0.898 0.591 1.108 0.324" stroke="hsl(0.0,100%,35%)" stroke-width="0.00281"></path>
<path d="M0.331 0.547 Q0.257 0.754 0.645 0.836" stroke="hsl(0.0,100%,35%)" stroke-width="0.00047"></path>
<path d="M0.331 0.547 Q0.866 0.695 1.271 0.466" stroke="hsl(0.0,100%,35%)" stroke-width="0.00047"></path>
<path d="M0.331 0.547 Q0.007 0.638 0.115 0.816" stroke="hsl(0.0,100%,35%)" stroke-width="0.00140"></path>
<path d="M0.331 0.547 Q0.541 0.708 0.902 0.641" stroke="hsl(0.0,100%,35%)" stroke-width="0.00047"></path>
<path d="M0.331 0.547 Q0.605 0.618 0.803 0.499" stroke="hsl(0.0,100%,35%)" stroke-width="0.00047"></path>
<path d="M1.108 0.324 Q1.075 0.428 1.271 0.466" stroke="hsl(0.0,100%,35%)" stroke-width="0.02481"></path>
<path d="M1.108 0.324 Q1.391 0.308 1.423 0.167" stroke="hsl(0.0,100%,35%)" stroke-width="0.01311"></path>
<path d="M1.108 0.324 Q0.972 0.355 1.004 0.429" stroke="hsl(0.0,100%,35%)" stroke-width="0.01123"></path>
<path d="M1.108 0.324 Q0.217 0.371 0.115 0.816" stroke="hsl(0.0,100%,35%)" stroke-width="0.00187"></path>
<path d="M1.108 0.324 Q0.751 0.441 0.902 0.641" stroke="hsl(0.0,100%,35%)" stroke-width="0.00047"></path>
<path d="M1.108 0.324 Q0.496 0.534 0.772 0.878" stroke="hsl(0.0,100%,35%)" stroke-width="0.00047"></path>
<path d="M1.108 0.324 Q0.789 0.637 1.330 0.861" stroke="hsl(0.0,100%,35%)" stroke-width="0.00047"></path>
<path d="M1.108 0.324 Q0.817 0.223 0.557 0.343" stroke="hsl(0.0,100%,35%)" stroke-width="0.00047"></path>
<path d="M1.108 0.324 Q0.371 0.397 0.353 0.773" stroke="hsl(0.0,100%,35%)" stroke-width="0.00094"></path>
<path d="M1.423 0.167 Q0.822 0.496 1.330 0.861" stroke="hsl(0.0,100%,35%)" stroke-width="0.00094"></path>
<path d="M1.423 0.167 Q0.861 0.385 1.163 0.707" stroke="hsl(0.0,100%,35%)" stroke-width="0.00187"></path>
<path d="M1.423 0.167 Q1.004 0.214 1.004 0.429" stroke="hsl(0.0,100%,35%)" stroke-width="0.00468"></path>
<path d="M1.423 0.167 Q0.573 0.139 0.331 0.547" stroke="hsl(0.0,100%,35%)" stroke-width="0.00702"></path>
<path d="M1.423 0.167 Q1.225 0.230 1.303 0.340" stroke="hsl(0.0,100%,35%)" stroke-width="0.00094"></path>
<path d="M1.423 0.167 Q0.250 0.230 0.115 0.816" stroke="hsl(0.0,100%,35%)" stroke-width="0.00047"></path>
<path d="M1.423 0.167 Q0.847 0.209 0.803 0.499" stroke="hsl(0.0,100%,35%)" stroke-width="0.00047"></path>
<path d="M1.423 0.167 Q0.499 0.346 0.645 0.836" stroke="hsl(0.0,100%,35%)" stroke-width="0.00094"></path>
<path d="M1.423 0.167 Q0.529 0.393 0.772 0.878" stroke="hsl(0.0,100%,35%)" stroke-width="0.00047"></path>
<path d="M1.423 0.167 Q1.141 0.182 1.108 0.324" stroke="hsl(0.0,100%,35%)" stroke-width="0.00094"></path>
<path d="M1.423 0.167 Q1.108 0.286 1.271 0.466" stroke="hsl(0.0,100%,35%)" stroke-width="0.00140"></path>
<path d="M1.423 0.167 Q1.640 0.201 1.754 0.103" stroke="hsl(0.0,100%,35%)" stroke-width="0.00047"></path>
<path d="M0.115 0.816 Q0.342 0.782 0.326 0.664" stroke="hsl(0.0,100%,35%)" stroke-width="0.00468"></path>
<path d="M0.115 0.816 Q0.973 0.873 1.271 0.466" stroke="hsl(0.0,100%,35%)" stroke-width="0.00562"></path>
<path d="M0.115 0.816 Q0.726 0.971 1.163 0.707" stroke="hsl(0.0,100%,35%)" stroke-width="0.00609"></path>
<path d="M0.115 0.816 Q0.824 0.851 1.048 0.513" stroke="hsl(0.0,100%,35%)" stroke-width="0.00187"></path>
<path d="M0.115 0.816 Q0.438 0.725 0.331 0.547" stroke="hsl(0.0,100%,35%)" stroke-width="0.01170"></path>
<path d="M0.115 0.816 Q0.686 1.082 1.330 0.861" stroke="hsl(0.0,100%,35%)" stroke-width="0.01685"></path>
<path d="M0.115 0.816 Q0.564 0.789 0.610 0.564" stroke="hsl(0.0,100%,35%)" stroke-width="0.00234"></path>
<path d="M0.115 0.816 Q0.648 0.886 0.902 0.641" stroke="hsl(0.0,100%,35%)" stroke-width="0.00749"></path>
<path d="M0.115 0.816 Q0.869 0.800 1.004 0.429" stroke="hsl(0.0,100%,35%)" stroke-width="0.00749"></path>
<path d="M0.115 0.816 Q1.288 0.753 1.423 0.167" stroke="hsl(0.0,100%,35%)" stroke-width="0.00796"></path>
<path d="M0.115 0.816 Q0.525 0.788 0.560 0.581" stroke="hsl(0.0,100%,35%)" stroke-width="0.00187"></path>
<path d="M0.115 0.816 Q0.268 0.842 0.353 0.773" stroke="hsl(0.0,100%,35%)" stroke-width="0.00421"></path>
<path d="M0.115 0.816 Q0.088 0.871 0.188 0.895" stroke="hsl(0.0,100%,35%)" stroke-width="0.00047"></path>
<path d="M0.115 0.816 Q1.089 0.816 1.303 0.340" stroke="hsl(0.0,100%,35%)" stroke-width="0.00047"></path>
<path d="M0.115 0.816 Q0.714 0.668 0.557 0.343" stroke="hsl(0.0,100%,35%)" stroke-width="0.00047"></path>
<path d="M0.115 0.816 Q0.364 0.932 0.645 0.836" stroke="hsl(0.0,100%,35%)" stroke-width="0.00374"></path>
<path d="M0.115 0.816 Q0.451 0.859 0.609 0.704" stroke="hsl(0.0,100%,35%)" stroke-width="0.00047"></path>
<path d="M0.115 0.816 Q1.005 0.769 1.108 0.324" stroke="hsl(0.0,100%,35%)" stroke-width="0.00374"></path>
<path d="M0.115 0.816 Q0.283 0.697 0.086 0.588" stroke="hsl(0.0,100%,35%)" stroke-width="0.00047"></path>
<path d="M0.878 0.760 Q0.985 0.705 0.902 0.641" stroke="hsl(0.0,100%,35%)" stroke-width="0.00936"></path>
<path d="M0.878 0.760 Q1.023 0.901 1.330 0.861" stroke="hsl(0.0,100%,35%)" stroke-width="0.00047"></path>
<path d="M0.878 0.760 Q0.730 0.798 0.772 0.878" stroke="hsl(0.0,100%,35%)" stroke-width="0.00047"></path>
<path d="M0.068 0.682 Q0.518 0.828 0.902 0.641" stroke="hsl(0.0,100%,35%)" stroke-width="0.00047"></path>
<path d="M0.068 0.682 Q-0.016 0.758 0.115 0.816" stroke="hsl(0.0,100%,35%)" stroke-width="0.00094"></path>
<path d="M0.068 0.682 Q0.875 0.711 1.108 0.324" stroke="hsl(0.0,100%,35%)" stroke-width="0.00047"></path>
<path d="M1.264 0.030 Q1.233 0.130 1.423 0.167" stroke="hsl(0.0,100%,35%)" stroke-width="0.00094"></path>
<path d="M1.264 0.030 Q0.814 0.177 1.004 0.429" stroke="hsl(0.0,100%,35%)" stroke-width="0.00047"></path>
<path d="M1.264 0.030 Q0.951 0.145 1.108 0.324" stroke="hsl(0.0,100%,35%)" stroke-width="0.00047"></path>
<path d="M1.667 0.374 Q1.710 0.222 1.423 0.167" stroke="hsl(0.0,100%,35%)" stroke-width="0.00187"></path>
<path d="M1.667 0.374 Q1.291 0.268 1.004 0.429" stroke="hsl(0.0,100%,35%)" stroke-width="0.00094"></path>
<path d="M1.667 0.374 Q0.860 0.193 0.331 0.547" stroke="hsl(0.0,100%,35%)" stroke-width="0.00094"></path>
<path d="M0.353 0.773 Q0.536 0.790 0.609 0.704" stroke="hsl(0.0,100%,35%)" stroke-width="0.00234"></path>
<path d="M0.353 0.773 Q0.771 1.013 1.330 0.861" stroke="hsl(0.0,100%,35%)" stroke-width="0.00140"></path>
<path d="M0.353 0.773 Q0.811 0.902 1.163 0.707" stroke="hsl(0.0,100%,35%)" stroke-width="0.00047"></path>
<path d="M0.353 0.773 Q1.058 0.804 1.271 0.466" stroke="hsl(0.0,100%,35%)" stroke-width="0.00047"></path>
<path d="M0.353 0.773 Q1.373 0.684 1.423 0.167" stroke="hsl(0.0,100%,35%)" stroke-width="0.00047"></path>
<path d="M0.353 0.773 Q1.090 0.700 1.108 0.324" stroke="hsl(0.0,100%,35%)" stroke-width="0.00094"></path>
<path d="M0.353 0.773 Q0.199 0.747 0.115 0.816" stroke="hsl(0.0,100%,35%)" stroke-width="0.00936"></path>
<path d="M0.353 0.773 Q0.733 0.817 0.902 0.641" stroke="hsl(0.0,100%,35%)" stroke-width="0.00140"></path>
<path d="M0.353 0.773 Q0.610 0.719 0.560 0.581" stroke="hsl(0.0,100%,35%)" stroke-width="0.00047"></path>
<path d="M1.330 0.861 Q1.102 0.825 0.981 0.929" stroke="hsl(0.0,100%,35%)" stroke-width="0.00328"></path>
<path d="M1.330 0.861 Q1.292 0.665 0.902 0.641" stroke="hsl(0.0,100%,35%)" stroke-width="0.02668"></path>
<path d="M1.330 0.861 Q1.468 0.631 1.048 0.513" stroke="hsl(0.0,100%,35%)" stroke-width="0.00187"></path>
<path d="M1.330 0.861 Q0.759 0.595 0.115 0.816" stroke="hsl(0.0,100%,35%)" stroke-width="0.00843"></path>
<path d="M1.330 0.861 Q0.912 0.622 0.353 0.773" stroke="hsl(0.0,100%,35%)" stroke-width="0.00328"></path>
<path d="M1.330 0.861 Q1.649 0.548 1.108 0.324" stroke="hsl(0.0,100%,35%)" stroke-width="0.00140"></path>
<path d="M1.330 0.861 Q1.370 0.751 1.163 0.707" stroke="hsl(0.0,100%,35%)" stroke-width="0.00234"></path>
<path d="M1.330 0.861 Q1.513 0.579 1.004 0.429" stroke="hsl(0.0,100%,35%)" stroke-width="0.00094"></path>
<path d="M1.330 0.861 Q2.037 0.651 1.781 0.260" stroke="hsl(0.0,100%,35%)" stroke-width="0.00047"></path>
<path d="M1.330 0.861 Q0.986 0.562 0.326 0.664" stroke="hsl(0.0,100%,35%)" stroke-width="0.00515"></path>
<path d="M1.330 0.861 Q1.059 0.638 0.563 0.721" stroke="hsl(0.0,100%,35%)" stroke-width="0.00047"></path>
<path d="M1.330 0.861 Q1.617 0.652 1.271 0.466" stroke="hsl(0.0,100%,35%)" stroke-width="0.00047"></path>
<path d="M1.330 0.861 Q1.082 0.504 0.331 0.547" stroke="hsl(0.0,100%,35%)" stroke-width="0.00047"></path>
<path d="M1.330 0.861 Q1.208 0.569 0.610 0.564" stroke="hsl(0.0,100%,35%)" stroke-width="0.00047"></path>
<path d="M0.560 0.581 Q0.149 0.609 0.115 0.816" stroke="hsl(0.0,100%,35%)" stroke-width="0.00047"></path>
<path d="M0.560 0.581 Q0.376 0.576 0.326 0.664" stroke="hsl(0.0,100%,35%)" stroke-width="0.00094"></path>
<path d="M0.560 0.581 Q0.598 0.582 0.610 0.564" stroke="hsl(0.0,100%,35%)" stroke-width="0.00047"></path>
<path d="M0.326 0.664 Q0.671 0.963 1.330 0.861" stroke="hsl(0.0,100%,35%)" stroke-width="0.00234"></path>
<path d="M0.326 0.664 Q0.099 0.698 0.115 0.816" stroke="hsl(0.0,100%,35%)" stroke-width="0.00515"></path>
<path d="M0.326 0.664 Q0.510 0.669 0.560 0.581" stroke="hsl(0.0,100%,35%)" stroke-width="0.00187"></path>
<path d="M0.326 0.664 Q0.853 0.682 1.004 0.429" stroke="hsl(0.0,100%,35%)" stroke-width="0.00047"></path>
<path d="M0.326 0.664 Q0.445 0.765 0.667 0.729" stroke="hsl(0.0,100%,35%)" stroke-width="0.00094"></path>
<path d="M0.326 0.664 Q0.548 0.671 0.610 0.564" stroke="hsl(0.0,100%,35%)" stroke-width="0.00187"></path>
<path d="M0.326 0.664 Q0.710 0.853 1.163 0.707" stroke="hsl(0.0,100%,35%)" stroke-width="0.00094"></path>
<path d="M0.326 0.664 Q0.399 0.740 0.563 0.721" stroke="hsl(0.0,100%,35%)" stroke-width="0.00047"></path>
<path d="M0.610 0.564 Q0.484 0.500 0.331 0.547" stroke="hsl(0.0,100%,35%)" stroke-width="0.00047"></path>
<path d="M0.610 0.564 Q1.019 0.647 1.271 0.466" stroke="hsl(0.0,100%,35%)" stroke-width="0.00047"></path>
<path d="M0.610 0.564 Q0.572 0.562 0.560 0.581" stroke="hsl(0.0,100%,35%)" stroke-width="0.00094"></path>
<path d="M0.610 0.564 Q0.388 0.557 0.326 0.664" stroke="hsl(0.0,100%,35%)" stroke-width="0.00140"></path>
<path d="M0.610 0.564 Q0.733 0.857 1.330 0.861" stroke="hsl(0.0,100%,35%)" stroke-width="0.00094"></path>
<path d="M0.610 0.564 Q0.161 0.591 0.115 0.816" stroke="hsl(0.0,100%,35%)" stroke-width="0.00047"></path>
<path d="M0.610 0.564 Q0.694 0.661 0.902 0.641" stroke="hsl(0.0,100%,35%)" stroke-width="0.00047"></path>
<path d="M1.048 0.513 Q0.911 0.743 1.330 0.861" stroke="hsl(0.0,100%,35%)" stroke-width="0.00281"></path>
<path d="M1.048 0.513 Q0.872 0.548 0.902 0.641" stroke="hsl(0.0,100%,35%)" stroke-width="0.00187"></path>
<path d="M1.048 0.513 Q0.566 0.444 0.326 0.664" stroke="hsl(0.0,100%,35%)" stroke-width="0.00047"></path>
<path d="M0.355 0.866 Q0.274 0.793 0.115 0.816" stroke="hsl(0.0,100%,35%)" stroke-width="0.00047"></path>
<path d="M0.355 0.866 Q0.808 0.863 0.902 0.641" stroke="hsl(0.0,100%,35%)" stroke-width="0.00094"></path>
<path d="M0.355 0.866 Q1.448 0.730 1.423 0.167" stroke="hsl(0.0,100%,35%)" stroke-width="0.00140"></path>
<path d="M0.355 0.866 Q0.502 0.759 0.326 0.664" stroke="hsl(0.0,100%,35%)" stroke-width="0.00140"></path>
<path d="M0.355 0.866 Q0.553 0.955 0.772 0.878" stroke="hsl(0.0,100%,35%)" stroke-width="0.00047"></path>
<path d="M0.973 0.513 Q1.475 0.430 1.423 0.167" stroke="hsl(0.0,100%,35%)" stroke-width="0.00047"></path>
<path d="M0.973 0.513 Q1.056 0.477 1.004 0.429" stroke="hsl(0.0,100%,35%)" stroke-width="0.00094"></path>
<path d="M0.973 0.513 Q0.836 0.563 0.902 0.641" stroke="hsl(0.0,100%,35%)" stroke-width="0.00047"></path>
<path d="M0.981 0.929 Q1.210 0.965 1.330 0.861" stroke="hsl(0.0,100%,35%)" stroke-width="0.00889"></path>
<path d="M0.981 0.929 Q0.638 0.699 0.115 0.816" stroke="hsl(0.0,100%,35%)" stroke-width="0.00234"></path>
<path d="M0.981 0.929 Q1.347 0.734 1.048 0.513" stroke="hsl(0.0,100%,35%)" stroke-width="0.00094"></path>
<path d="M1.781 0.260 Q0.839 0.248 0.609 0.704" stroke="hsl(0.0,100%,35%)" stroke-width="0.00047"></path>
<path d="M1.781 0.260 Q1.036 0.275 0.902 0.641" stroke="hsl(0.0,100%,35%)" stroke-width="0.00047"></path>
<path d="M1.781 0.260 Q0.503 0.205 0.115 0.816" stroke="hsl(0.0,100%,35%)" stroke-width="0.00047"></path>
<path d="M1.781 0.260 Q1.075 0.470 1.330 0.861" stroke="hsl(0.0,100%,35%)" stroke-width="0.00047"></path>
<path d="M1.781 0.260 Q1.114 0.360 1.163 0.707" stroke="hsl(0.0,100%,35%)" stroke-width="0.00094"></path>
<path d="M1.781 0.260 Q1.676 0.142 1.423 0.167" stroke="hsl(0.0,100%,35%)" stroke-width="0.00140"></path>
<path d="M0.772 0.878 Q1.667 0.653 1.423 0.167" stroke="hsl(0.0,100%,35%)" stroke-width="0.00047"></path>
<path d="M0.772 0.878 Q1.248 0.700 1.004 0.429" stroke="hsl(0.0,100%,35%)" stroke-width="0.00047"></path>
<path d="M0.772 0.878 Q0.743 0.832 0.645 0.836" stroke="hsl(0.0,100%,35%)" stroke-width="0.00234"></path>
<path d="M0.772 0.878 Q1.351 0.772 1.271 0.466" stroke="hsl(0.0,100%,35%)" stroke-width="0.00047"></path>
<path d="M0.772 0.878 Q1.384 0.668 1.108 0.324" stroke="hsl(0.0,100%,35%)" stroke-width="0.00047"></path>
<path d="M0.772 0.878 Q1.027 0.786 0.902 0.641" stroke="hsl(0.0,100%,35%)" stroke-width="0.00094"></path>
<path d="M0.772 0.878 Q0.942 0.689 0.610 0.564" stroke="hsl(0.0,100%,35%)" stroke-width="0.00047"></path>
<path d="M0.772 0.878 Q0.793 0.758 0.563 0.721" stroke="hsl(0.0,100%,35%)" stroke-width="0.00047"></path>
<path d="M1.568 0.785 Q1.350 0.580 0.902 0.641" stroke="hsl(0.0,100%,35%)" stroke-width="0.00187"></path>
<path d="M1.568 0.785 Q1.095 0.672 0.772 0.878" stroke="hsl(0.0,100%,35%)" stroke-width="0.00047"></path>
<path d="M1.568 0.785 Q1.707 0.462 1.108 0.324" stroke="hsl(0.0,100%,35%)" stroke-width="0.00047"></path>
<path d="M1.568 0.785 Q1.428 0.665 1.163 0.707" stroke="hsl(0.0,100%,35%)" stroke-width="0.00094"></path>
<path d="M0.645 0.836 Q0.719 0.629 0.331 0.547" stroke="hsl(0.0,100%,35%)" stroke-width="0.00094"></path>
<path d="M0.645 0.836 Q1.253 0.776 1.271 0.466" stroke="hsl(0.0,100%,35%)" stroke-width="0.00047"></path>
<path d="M0.645 0.836 Q0.929 0.790 0.902 0.641" stroke="hsl(0.0,100%,35%)" stroke-width="0.00140"></path>
<path d="M0.645 0.836 Q0.674 0.882 0.772 0.878" stroke="hsl(0.0,100%,35%)" stroke-width="0.00187"></path>
<path d="M0.645 0.836 Q1.569 0.657 1.423 0.167" stroke="hsl(0.0,100%,35%)" stroke-width="0.00047"></path>
<path d="M0.645 0.836 Q1.150 0.704 1.004 0.429" stroke="hsl(0.0,100%,35%)" stroke-width="0.00047"></path>
<path d="M0.645 0.836 Q0.395 0.720 0.115 0.816" stroke="hsl(0.0,100%,35%)" stroke-width="0.00094"></path>
<path d="M0.640 0.538 Q1.328 0.509 1.423 0.167" stroke="hsl(0.0,100%,35%)" stroke-width="0.00047"></path>
<path d="M0.640 0.538 Q0.909 0.556 1.004 0.429" stroke="hsl(0.0,100%,35%)" stroke-width="0.00047"></path>
<path d="M0.640 0.538 Q0.688 0.642 0.902 0.641" stroke="hsl(0.0,100%,35%)" stroke-width="0.00094"></path>
<path d="M0.557 0.343 Q0.712 0.475 1.004 0.429" stroke="hsl(0.0,100%,35%)" stroke-width="0.01123"></path>
<path d="M0.557 0.343 Q-0.043 0.491 0.115 0.816" stroke="hsl(0.0,100%,35%)" stroke-width="0.00140"></path>
<path d="M0.557 0.343 Q0.555 0.471 0.803 0.499" stroke="hsl(0.0,100%,35%)" stroke-width="0.00702"></path>
<path d="M0.557 0.343 Q0.569 0.647 1.163 0.707" stroke="hsl(0.0,100%,35%)" stroke-width="0.00515"></path>
<path d="M0.557 0.343 Q0.932 0.491 1.303 0.340" stroke="hsl(0.0,100%,35%)" stroke-width="0.00047"></path>
<path d="M0.557 0.343 Q0.848 0.444 1.108 0.324" stroke="hsl(0.0,100%,35%)" stroke-width="0.00047"></path>
<path d="M0.557 0.343 Q0.281 0.400 0.331 0.547" stroke="hsl(0.0,100%,35%)" stroke-width="0.00094"></path>
<path d="M1.518 0.503 Q1.138 0.645 1.330 0.861" stroke="hsl(0.0,100%,35%)" stroke-width="0.00047"></path>
<path d="M1.518 0.503 Q1.275 0.414 1.048 0.513" stroke="hsl(0.0,100%,35%)" stroke-width="0.00047"></path>
<path d="M1.518 0.503 Q1.739 0.316 1.423 0.167" stroke="hsl(0.0,100%,35%)" stroke-width="0.00047"></path>
<path d="M0.245 0.428 Q0.403 0.666 0.902 0.641" stroke="hsl(0.0,100%,35%)" stroke-width="0.00047"></path>
<path d="M0.245 0.428 Q0.624 0.580 1.004 0.429" stroke="hsl(0.0,100%,35%)" stroke-width="0.00047"></path>
<path d="M0.245 0.428 Q0.193 0.505 0.331 0.547" stroke="hsl(0.0,100%,35%)" stroke-width="0.00047"></path>
<path d="M1.211 0.580 Q1.007 0.549 0.902 0.641" stroke="hsl(0.0,100%,35%)" stroke-width="0.00655"></path>
<path d="M1.211 0.580 Q0.753 0.641 0.772 0.878" stroke="hsl(0.0,100%,35%)" stroke-width="0.00140"></path>
<path d="M1.211 0.580 Q0.474 0.479 0.115 0.816" stroke="hsl(0.0,100%,35%)" stroke-width="0.00187"></path>
<path d="M1.211 0.580 Q0.554 0.551 0.355 0.866" stroke="hsl(0.0,100%,35%)" stroke-width="0.00187"></path>
<path d="M1.091 0.517 Q0.897 0.541 0.902 0.641" stroke="hsl(0.0,100%,35%)" stroke-width="0.00094"></path>
<path d="M1.091 0.517 Q0.591 0.437 0.326 0.664" stroke="hsl(0.0,100%,35%)" stroke-width="0.00047"></path>
<path d="M1.091 0.517 Q0.935 0.737 1.330 0.861" stroke="hsl(0.0,100%,35%)" stroke-width="0.00047"></path>
<path d="M0.684 0.212 Q1.090 0.337 1.423 0.167" stroke="hsl(0.0,100%,35%)" stroke-width="0.00234"></path>
<path d="M0.684 0.212 Q0.774 0.457 1.271 0.466" stroke="hsl(0.0,100%,35%)" stroke-width="0.00047"></path>
<path d="M0.684 0.212 Q0.671 0.384 1.004 0.429" stroke="hsl(0.0,100%,35%)" stroke-width="0.00187"></path>
<path d="M0.525 0.343 Q1.114 0.435 1.423 0.167" stroke="hsl(0.0,100%,35%)" stroke-width="0.00047"></path>
<path d="M0.525 0.343 Q0.696 0.481 1.004 0.429" stroke="hsl(0.0,100%,35%)" stroke-width="0.00047"></path>
<path d="M0.525 0.343 Q0.264 0.406 0.331 0.547" stroke="hsl(0.0,100%,35%)" stroke-width="0.00047"></path>
<path d="M0.525 0.343 Q0.832 0.450 1.108 0.324" stroke="hsl(0.0,100%,35%)" stroke-width="0.00047"></path>
<path d="M0.699 0.264 Q0.577 0.579 1.163 0.707" stroke="hsl(0.0,100%,35%)" stroke-width="0.00047"></path>
<path d="M0.699 0.264 Q0.720 0.407 1.004 0.429" stroke="hsl(0.0,100%,35%)" stroke-width="0.00094"></path>
<path d="M0.699 0.264 Q0.499 0.493 0.902 0.641" stroke="hsl(0.0,100%,35%)" stroke-width="0.00047"></path>
<path d="M0.699 0.264 Q0.824 0.480 1.271 0.466" stroke="hsl(0.0,100%,35%)" stroke-width="0.00047"></path>
<path d="M0.557 0.902 Q0.976 1.036 1.330 0.861" stroke="hsl(0.0,100%,35%)" stroke-width="0.00047"></path>
<path d="M0.557 0.902 Q1.159 0.755 1.004 0.429" stroke="hsl(0.0,100%,35%)" stroke-width="0.00094"></path>
<path d="M0.557 0.902 Q0.938 0.840 0.902 0.641" stroke="hsl(0.0,100%,35%)" stroke-width="0.00047"></path>
</g>
<text x="1.483" y="0.706" font-size="0.007472" fill="hsl(0.0,100%,20%)">aperez</text>
<text x="0.902" y="0.609" font-size="0.064383" fill="hsl(0.0,100%,20%)">brianosman</text>
<text x="1.163" y="0.680" font-size="0.053750" fill="hsl(0.0,100%,20%)">johnstiles</text>
<text x="1.004" y="0.392" font-size="0.073112" fill="hsl(0.0,100%,20%)">michaelludwig</text>
<text x="1.303" y="0.328" font-size="0.023628" fill="hsl(0.0,100%,20%)">armansito</text>
<text x="0.803" y="0.482" font-size="0.034846" fill="hsl(0.0,100%,20%)">jamesgk</text>
<text x="1.271" y="0.436" font-size="0.059774" fill="hsl(0.0,100%,20%)">jvanverth</text>
<text x="0.331" y="0.529" font-size="0.036983" fill="hsl(0.0,100%,20%)">nicolettep</text>
<text x="1.108" y="0.293" font-size="0.061614" fill="hsl(0.0,100%,20%)">robertphillips</text>
<text x="1.423" y="0.143" font-size="0.048995" fill="hsl(0.0,100%,20%)">egdaniel</text>
<text x="0.115" y="0.784" font-size="0.064599" fill="hsl(0.0,100%,20%)">kjlubick</text>
<text x="0.878" y="0.751" font-size="0.017917" fill="hsl(0.0,100%,20%)">ccameron</text>
<text x="0.068" y="0.678" font-size="0.007472" fill="hsl(0.0,100%,20%)">arthursonzogni</text>
<text x="1.264" y="0.026" font-size="0.007472" fill="hsl(0.0,100%,20%)">beaufort.francois</text>
<text x="1.667" y="0.368" font-size="0.010567" fill="hsl(0.0,100%,20%)">blundell</text>
<text x="0.353" y="0.759" font-size="0.028696" fill="hsl(0.0,100%,20%)">borenet</text>
<text x="0.609" y="0.699" font-size="0.010567" fill="hsl(0.0,100%,20%)">rmistry</text>
<text x="1.330" y="0.833" font-size="0.057148" fill="hsl(0.0,100%,20%)">bungeman</text>
<text x="0.560" y="0.574" font-size="0.014469" fill="hsl(0.0,100%,20%)">bwils</text>
<text x="0.326" y="0.648" font-size="0.031257" fill="hsl(0.0,100%,20%)">fmalita</text>
<text x="0.610" y="0.555" font-size="0.019049" fill="hsl(0.0,100%,20%)">jmbetancourt</text>
<text x="1.048" y="0.504" font-size="0.017917" fill="hsl(0.0,100%,20%)">jlavrova</text>
<text x="0.355" y="0.858" font-size="0.014469" fill="hsl(0.0,100%,20%)">danieldilan</text>
<text x="0.973" y="0.510" font-size="0.007472" fill="hsl(0.0,100%,20%)">briansalomon</text>
<text x="0.981" y="0.918" font-size="0.021461" fill="hsl(0.0,100%,20%)">drott</text>
<text x="1.781" y="0.254" font-size="0.011814" fill="hsl(0.0,100%,20%)">jcgregorio</text>
<text x="0.563" y="0.718" font-size="0.006471" fill="hsl(0.0,100%,20%)">hcm</text>
<text x="0.772" y="0.868" font-size="0.019768" fill="hsl(0.0,100%,20%)">scroggo</text>
<text x="1.568" y="0.779" font-size="0.010567" fill="hsl(0.0,100%,20%)">chengyangyang-hf</text>
<text x="0.645" y="0.825" font-size="0.020800" fill="hsl(0.0,100%,20%)">nscobie</text>
<text x="1.754" y="0.101" font-size="0.003736" fill="hsl(0.0,100%,20%)">jreck</text>
<text x="0.667" y="0.726" font-size="0.005283" fill="hsl(0.0,100%,20%)">sharaks</text>
<text x="0.640" y="0.534" font-size="0.007472" fill="hsl(0.0,100%,20%)">geofflang</text>
<text x="1.012" y="0.813" font-size="0.003736" fill="hsl(0.0,100%,20%)">lovisolo</text>
<text x="0.557" y="0.327" font-size="0.032782" fill="hsl(0.0,100%,20%)">nathanasanchez</text>
<text x="1.518" y="0.500" font-size="0.006471" fill="hsl(0.0,100%,20%)">jsimmons</text>
<text x="0.188" y="0.894" font-size="0.003736" fill="hsl(0.0,100%,20%)">mingkong</text>
<text x="0.086" y="0.586" font-size="0.003736" fill="hsl(0.0,100%,20%)">ashwinpv</text>
<text x="0.245" y="0.425" font-size="0.006471" fill="hsl(0.0,100%,20%)">lokokung</text>
<text x="1.211" y="0.570" font-size="0.018679" fill="hsl(0.0,100%,20%)">lukasza</text>
<text x="1.091" y="0.513" font-size="0.007472" fill="hsl(0.0,100%,20%)">mike</text>
<text x="0.684" y="0.206" font-size="0.011814" fill="hsl(0.0,100%,20%)">penghuang</text>
<text x="0.525" y="0.339" font-size="0.007472" fill="hsl(0.0,100%,20%)">petermcneeley</text>
<text x="0.699" y="0.260" font-size="0.008354" fill="hsl(0.0,100%,20%)">sky</text>
<text x="0.557" y="0.898" font-size="0.007472" fill="hsl(0.0,100%,20%)">tangm</text>
</svg>
