<svg width="4000" height="2000" viewBox="-0.025 -0.025 2.05 1.05" xmlns="http://www.w3.org/2000/svg">
  <style>
    path {
      fill: none;
      stroke-linecap: round;
      stroke-opacity: 0.4;
    }

    text {
      text-anchor: middle;
      alignment-baseline: hanging;
    }
  </style>
  <g opacity="0.4">
<path d="M1.698 0.417 Q1.498 0.649 1.906 0.797" stroke="hsl(0.0,100%,35%)" stroke-width="0.03708"></path>
<path d="M1.698 0.417 Q1.223 0.158 0.612 0.332" stroke="hsl(0.0,100%,35%)" stroke-width="0.00601"></path>
<path d="M1.698 0.417 Q1.717 0.537 1.954 0.554" stroke="hsl(0.0,100%,35%)" stroke-width="0.00100"></path>
<path d="M1.906 0.797 Q1.496 0.696 1.209 0.874" stroke="hsl(0.0,100%,35%)" stroke-width="0.00200"></path>
<path d="M1.906 0.797 Q1.738 0.756 1.621 0.828" stroke="hsl(0.0,100%,35%)" stroke-width="0.00100"></path>
<path d="M1.906 0.797 Q1.631 0.306 0.612 0.332" stroke="hsl(0.0,100%,35%)" stroke-width="0.00401"></path>
<path d="M1.906 0.797 Q2.106 0.566 1.698 0.417" stroke="hsl(0.0,100%,35%)" stroke-width="0.00200"></path>
<path d="M0.612 0.332 Q0.887 0.823 1.906 0.797" stroke="hsl(0.0,100%,35%)" stroke-width="0.02706"></path>
<path d="M0.612 0.332 Q1.087 0.592 1.698 0.417" stroke="hsl(0.0,100%,35%)" stroke-width="0.00200"></path>
<path d="M0.612 0.332 Q1.106 0.711 1.954 0.554" stroke="hsl(0.0,100%,35%)" stroke-width="0.00100"></path>
<path d="M1.954 0.554 Q1.735 0.666 1.906 0.797" stroke="hsl(0.0,100%,35%)" stroke-width="0.00802"></path>
<path d="M1.954 0.554 Q1.936 0.434 1.698 0.417" stroke="hsl(0.0,100%,35%)" stroke-width="0.00200"></path>
<path d="M1.954 0.554 Q1.795 0.315 1.294 0.340" stroke="hsl(0.0,100%,35%)" stroke-width="0.00100"></path>
<path d="M1.954 0.554 Q1.461 0.175 0.612 0.332" stroke="hsl(0.0,100%,35%)" stroke-width="0.00100"></path>
<path d="M0.876 0.281 Q0.703 0.254 0.612 0.332" stroke="hsl(0.0,100%,35%)" stroke-width="0.07916"></path>
<path d="M0.876 0.281 Q0.978 0.745 1.906 0.797" stroke="hsl(0.0,100%,35%)" stroke-width="0.01603"></path>
<path d="M0.876 0.281 Q0.568 0.644 1.209 0.874" stroke="hsl(0.0,100%,35%)" stroke-width="0.02104"></path>
<path d="M0.876 0.281 Q0.822 0.331 0.908 0.368" stroke="hsl(0.0,100%,35%)" stroke-width="0.00100"></path>
<path d="M0.876 0.281 Q0.901 0.145 0.642 0.103" stroke="hsl(0.0,100%,35%)" stroke-width="0.00100"></path>
<path d="M0.876 0.281 Q0.810 0.703 1.621 0.828" stroke="hsl(0.0,100%,35%)" stroke-width="0.01002"></path>
<path d="M0.876 0.281 Q1.150 0.251 1.154 0.111" stroke="hsl(0.0,100%,35%)" stroke-width="0.00200"></path>
<path d="M0.876 0.281 Q0.804 0.418 1.055 0.483" stroke="hsl(0.0,100%,35%)" stroke-width="0.00100"></path>
<path d="M0.876 0.281 Q1.037 0.394 1.294 0.340" stroke="hsl(0.0,100%,35%)" stroke-width="0.00301"></path>
<path d="M0.876 0.281 Q1.178 0.513 1.698 0.417" stroke="hsl(0.0,100%,35%)" stroke-width="0.04910"></path>
<path d="M0.876 0.281 Q1.197 0.633 1.954 0.554" stroke="hsl(0.0,100%,35%)" stroke-width="0.00200"></path>
<path d="M1.209 0.874 Q1.619 0.975 1.906 0.797" stroke="hsl(0.0,100%,35%)" stroke-width="0.04609"></path>
<path d="M1.209 0.874 Q1.344 0.484 0.612 0.332" stroke="hsl(0.0,100%,35%)" stroke-width="0.02305"></path>
<path d="M1.209 0.874 Q1.819 0.743 1.698 0.417" stroke="hsl(0.0,100%,35%)" stroke-width="0.00100"></path>
<path d="M1.621 0.828 Q1.788 0.870 1.906 0.797" stroke="hsl(0.0,100%,35%)" stroke-width="0.02004"></path>
<path d="M1.621 0.828 Q1.658 0.699 1.414 0.653" stroke="hsl(0.0,100%,35%)" stroke-width="0.00200"></path>
<path d="M1.621 0.828 Q2.007 0.758 1.954 0.554" stroke="hsl(0.0,100%,35%)" stroke-width="0.00100"></path>
<path d="M0.238 0.445 Q0.335 0.629 0.716 0.622" stroke="hsl(180.0,100%,35%)" stroke-width="0.00100"></path>
<path d="M0.238 0.445 Q0.790 0.955 1.906 0.797" stroke="hsl(180.0,100%,35%)" stroke-width="0.00100"></path>
<path d="M0.238 0.445 Q-0.003 0.557 0.162 0.699" stroke="hsl(180.0,100%,35%)" stroke-width="0.00100"></path>
<path d="M1.739 0.604 Q1.668 0.734 1.906 0.797" stroke="hsl(0.0,100%,35%)" stroke-width="0.01804"></path>
<path d="M1.739 0.604 Q1.394 0.243 0.612 0.332" stroke="hsl(0.0,100%,35%)" stroke-width="0.01202"></path>
<path d="M1.739 0.604 Q1.259 0.633 1.209 0.874" stroke="hsl(0.0,100%,35%)" stroke-width="0.00200"></path>
<path d="M1.945 0.866 Q1.981 0.824 1.906 0.797" stroke="hsl(0.0,100%,35%)" stroke-width="0.01303"></path>
<path d="M1.945 0.866 Q1.706 0.333 0.612 0.332" stroke="hsl(0.0,100%,35%)" stroke-width="0.00501"></path>
<path d="M1.593 0.951 Q1.872 0.936 1.906 0.797" stroke="hsl(0.0,100%,35%)" stroke-width="0.00401"></path>
<path d="M1.593 0.951 Q1.742 0.766 1.414 0.653" stroke="hsl(0.0,100%,35%)" stroke-width="0.00100"></path>
<path d="M1.593 0.951 Q1.705 0.895 1.621 0.828" stroke="hsl(0.0,100%,35%)" stroke-width="0.00100"></path>
<path d="M1.593 0.951 Q1.932 0.586 1.294 0.340" stroke="hsl(0.0,100%,35%)" stroke-width="0.00100"></path>
<path d="M1.593 0.951 Q1.698 0.609 1.055 0.483" stroke="hsl(0.0,100%,35%)" stroke-width="0.00200"></path>
</g>
<text x="1.698" y="0.383" font-size="0.067806" fill="hsl(0.0,100%,20%)">amaiorano</text>
<text x="1.906" y="0.749" font-size="0.095653" fill="hsl(0.0,100%,20%)">nicolascapens</text>
<text x="0.612" y="0.289" font-size="0.085769" fill="hsl(0.0,100%,20%)">sugoi</text>
<text x="1.954" y="0.540" font-size="0.027957" fill="hsl(0.0,100%,20%)">bclayton</text>
<text x="1.294" y="0.333" font-size="0.015162" fill="hsl(0.0,100%,20%)">chrisforbes</text>
<text x="0.876" y="0.234" font-size="0.092227" fill="hsl(0.0,100%,20%)">capn</text>
<text x="1.209" y="0.841" font-size="0.066089" fill="hsl(0.0,100%,20%)">srisser</text>
<text x="0.908" y="0.364" font-size="0.006781" fill="hsl(0.0,100%,20%)">liyl</text>
<text x="0.642" y="0.100" font-size="0.006781" fill="hsl(0.0,100%,20%)">rosasco</text>
<text x="1.621" y="0.808" font-size="0.040115" fill="hsl(0.0,100%,20%)">natsu</text>
<text x="1.154" y="0.106" font-size="0.009589" fill="hsl(0.0,100%,20%)">cwallez</text>
<text x="1.055" y="0.477" font-size="0.011744" fill="hsl(0.0,100%,20%)">digit</text>
<text x="0.238" y="0.439" font-size="0.011744" fill="hsl(180.0,100%,20%)">eholk</text>
<text x="0.716" y="0.618" font-size="0.006781" fill="hsl(180.0,100%,20%)">kschimpf</text>
<text x="0.162" y="0.695" font-size="0.006781" fill="hsl(180.0,100%,20%)">stichnot</text>
<text x="1.414" y="0.647" font-size="0.011744" fill="hsl(0.0,100%,20%)">vantablack</text>
<text x="1.739" y="0.585" font-size="0.038357" fill="hsl(0.0,100%,20%)">swiftshader.regress</text>
<text x="1.945" y="0.852" font-size="0.028768" fill="hsl(0.0,100%,20%)">thakis</text>
<text x="1.593" y="0.941" font-size="0.020342" fill="hsl(0.0,100%,20%)">zzyiwei</text>
</svg>
