<svg width="4000" height="2000" viewBox="-0.025 -0.025 2.05 1.05" xmlns="http://www.w3.org/2000/svg">
  <style>
    path {
      fill: none;
      stroke-linecap: round;
      stroke-opacity: 0.4;
    }

    text {
      text-anchor: middle;
      alignment-baseline: hanging;
    }
  </style>
  <g opacity="0.4">
<path d="M0.679 0.918 Q0.959 0.817 0.824 0.658" stroke="hsl(0.0,100%,35%)" stroke-width="0.04221"></path>
<path d="M0.679 0.918 Q0.803 0.796 0.593 0.709" stroke="hsl(0.0,100%,35%)" stroke-width="0.01652"></path>
<path d="M0.679 0.918 Q1.021 0.713 0.697 0.502" stroke="hsl(0.0,100%,35%)" stroke-width="0.00551"></path>
<path d="M0.593 0.709 Q0.470 0.831 0.679 0.918" stroke="hsl(0.0,100%,35%)" stroke-width="0.04038"></path>
<path d="M0.593 0.709 Q0.749 0.730 0.824 0.658" stroke="hsl(0.0,100%,35%)" stroke-width="0.05078"></path>
<path d="M0.593 0.709 Q0.811 0.626 0.697 0.502" stroke="hsl(0.0,100%,35%)" stroke-width="0.02202"></path>
<path d="M0.593 0.709 Q0.595 0.746 0.666 0.753" stroke="hsl(0.0,100%,35%)" stroke-width="0.00061"></path>
<path d="M0.593 0.709 Q1.170 0.544 0.975 0.227" stroke="hsl(0.0,100%,35%)" stroke-width="0.00673"></path>
<path d="M0.593 0.709 Q0.440 0.699 0.386 0.771" stroke="hsl(0.0,100%,35%)" stroke-width="0.00122"></path>
<path d="M0.593 0.709 Q1.082 0.692 1.155 0.450" stroke="hsl(0.0,100%,35%)" stroke-width="0.00061"></path>
<path d="M0.593 0.709 Q1.107 0.574 0.956 0.294" stroke="hsl(0.0,100%,35%)" stroke-width="0.00122"></path>
<path d="M0.697 0.502 Q0.635 0.605 0.824 0.658" stroke="hsl(0.0,100%,35%)" stroke-width="0.02937"></path>
<path d="M0.697 0.502 Q1.056 0.420 0.975 0.227" stroke="hsl(0.0,100%,35%)" stroke-width="0.01101"></path>
<path d="M0.697 0.502 Q0.779 0.341 0.484 0.266" stroke="hsl(0.0,100%,35%)" stroke-width="0.00061"></path>
<path d="M0.697 0.502 Q0.355 0.706 0.679 0.918" stroke="hsl(0.0,100%,35%)" stroke-width="0.01224"></path>
<path d="M0.697 0.502 Q0.479 0.585 0.593 0.709" stroke="hsl(0.0,100%,35%)" stroke-width="0.00122"></path>
<path d="M0.697 0.502 Q0.841 0.573 1.012 0.518" stroke="hsl(0.0,100%,35%)" stroke-width="0.00061"></path>
<path d="M0.111 0.728 Q0.944 0.650 0.975 0.227" stroke="hsl(0.0,100%,35%)" stroke-width="0.00061"></path>
<path d="M0.111 0.728 Q0.367 0.815 0.593 0.709" stroke="hsl(0.0,100%,35%)" stroke-width="0.00061"></path>
<path d="M0.111 0.728 Q0.585 0.732 0.697 0.502" stroke="hsl(0.0,100%,35%)" stroke-width="0.00061"></path>
<path d="M0.975 0.227 Q0.554 0.412 0.824 0.658" stroke="hsl(0.0,100%,35%)" stroke-width="0.00795"></path>
<path d="M0.975 0.227 Q0.398 0.392 0.593 0.709" stroke="hsl(0.0,100%,35%)" stroke-width="0.00612"></path>
<path d="M0.975 0.227 Q0.616 0.309 0.697 0.502" stroke="hsl(0.0,100%,35%)" stroke-width="0.00245"></path>
<path d="M1.155 0.450 Q0.823 0.488 0.824 0.658" stroke="hsl(0.0,100%,35%)" stroke-width="0.00428"></path>
<path d="M1.155 0.450 Q0.543 0.589 0.679 0.918" stroke="hsl(0.0,100%,35%)" stroke-width="0.00122"></path>
<path d="M1.155 0.450 Q0.666 0.467 0.593 0.709" stroke="hsl(0.0,100%,35%)" stroke-width="0.00795"></path>
<path d="M1.155 0.450 Q1.243 0.302 0.975 0.227" stroke="hsl(0.0,100%,35%)" stroke-width="0.00306"></path>
<path d="M1.155 0.450 Q0.884 0.384 0.697 0.502" stroke="hsl(0.0,100%,35%)" stroke-width="0.00061"></path>
<path d="M0.956 0.294 Q0.599 0.450 0.824 0.658" stroke="hsl(0.0,100%,35%)" stroke-width="0.00184"></path>
<path d="M0.956 0.294 Q0.660 0.346 0.697 0.502" stroke="hsl(0.0,100%,35%)" stroke-width="0.00184"></path>
<path d="M0.956 0.294 Q0.743 0.186 0.484 0.266" stroke="hsl(0.0,100%,35%)" stroke-width="0.00122"></path>
<path d="M0.924 0.811 Q0.716 0.816 0.679 0.918" stroke="hsl(0.0,100%,35%)" stroke-width="0.03732"></path>
<path d="M0.924 0.811 Q1.058 0.611 0.697 0.502" stroke="hsl(0.0,100%,35%)" stroke-width="0.03854"></path>
<path d="M0.924 0.811 Q1.202 0.682 1.012 0.518" stroke="hsl(0.0,100%,35%)" stroke-width="0.00306"></path>
<path d="M0.924 0.811 Q1.417 0.529 0.975 0.227" stroke="hsl(0.0,100%,35%)" stroke-width="0.00367"></path>
<path d="M0.924 0.811 Q0.996 0.715 0.824 0.658" stroke="hsl(0.0,100%,35%)" stroke-width="0.00428"></path>
<path d="M0.924 0.811 Q0.840 0.694 0.593 0.709" stroke="hsl(0.0,100%,35%)" stroke-width="0.02080"></path>
<path d="M0.924 0.811 Q1.139 0.923 1.405 0.843" stroke="hsl(0.0,100%,35%)" stroke-width="0.00061"></path>
<path d="M0.924 0.811 Q0.969 0.958 1.266 0.968" stroke="hsl(0.0,100%,35%)" stroke-width="0.00061"></path>
<path d="M0.924 0.811 Q1.152 0.862 1.302 0.762" stroke="hsl(0.0,100%,35%)" stroke-width="0.00061"></path>
<path d="M0.924 0.811 Q1.328 0.677 1.155 0.450" stroke="hsl(0.0,100%,35%)" stroke-width="0.00061"></path>
<path d="M1.012 0.518 Q0.806 0.551 0.824 0.658" stroke="hsl(0.0,100%,35%)" stroke-width="0.00612"></path>
<path d="M1.012 0.518 Q0.868 0.447 0.697 0.502" stroke="hsl(0.0,100%,35%)" stroke-width="0.00428"></path>
<path d="M1.012 0.518 Q0.650 0.530 0.593 0.709" stroke="hsl(0.0,100%,35%)" stroke-width="0.00061"></path>
<path d="M1.421 0.236 Q0.784 0.327 0.824 0.658" stroke="hsl(0.0,100%,35%)" stroke-width="0.00122"></path>
<path d="M1.421 0.236 Q1.205 0.142 0.975 0.227" stroke="hsl(0.0,100%,35%)" stroke-width="0.00122"></path>
<path d="M1.421 0.236 Q0.846 0.224 0.697 0.502" stroke="hsl(0.0,100%,35%)" stroke-width="0.00061"></path>
<path d="M1.421 0.236 Q0.628 0.307 0.593 0.709" stroke="hsl(0.0,100%,35%)" stroke-width="0.00061"></path>
<path d="M1.049 0.592 Q0.884 0.580 0.824 0.658" stroke="hsl(0.0,100%,35%)" stroke-width="0.00122"></path>
<path d="M1.049 0.592 Q1.304 0.395 0.975 0.227" stroke="hsl(0.0,100%,35%)" stroke-width="0.00061"></path>
<path d="M1.049 0.592 Q1.039 0.728 1.302 0.762" stroke="hsl(0.0,100%,35%)" stroke-width="0.00061"></path>
<path d="M0.919 0.430 Q0.751 0.421 0.697 0.502" stroke="hsl(0.0,100%,35%)" stroke-width="0.01101"></path>
<path d="M0.919 0.430 Q0.689 0.525 0.824 0.658" stroke="hsl(0.0,100%,35%)" stroke-width="0.00918"></path>
<path d="M0.919 0.430 Q0.895 0.493 1.012 0.518" stroke="hsl(0.0,100%,35%)" stroke-width="0.00184"></path>
<path d="M0.919 0.430 Q0.409 0.626 0.679 0.918" stroke="hsl(0.0,100%,35%)" stroke-width="0.00184"></path>
<path d="M0.919 0.430 Q0.532 0.504 0.593 0.709" stroke="hsl(0.0,100%,35%)" stroke-width="0.00428"></path>
<path d="M0.919 0.430 Q1.109 0.339 0.975 0.227" stroke="hsl(0.0,100%,35%)" stroke-width="0.00734"></path>
<path d="M0.919 0.430 Q1.242 0.566 1.579 0.439" stroke="hsl(0.0,100%,35%)" stroke-width="0.00122"></path>
</g>
<text x="0.679" y="0.876" font-size="0.083854" fill="hsl(0.0,100%,20%)">amaiorano</text>
<text x="0.824" y="0.616" font-size="0.084179" fill="hsl(0.0,100%,20%)">nicolascapens</text>
<text x="0.593" y="0.664" font-size="0.090295" fill="hsl(0.0,100%,20%)">bclayton</text>
<text x="0.697" y="0.462" font-size="0.079843" fill="hsl(0.0,100%,20%)">sugoi</text>
<text x="0.111" y="0.723" font-size="0.009060" fill="hsl(0.0,100%,20%)">awoloszyn</text>
<text x="0.975" y="0.203" font-size="0.047654" fill="hsl(0.0,100%,20%)">chrisforbes</text>
<text x="0.666" y="0.750" font-size="0.005231" fill="hsl(0.0,100%,20%)">jaebaek</text>
<text x="0.386" y="0.767" font-size="0.007397" fill="hsl(0.0,100%,20%)">paulthomson</text>
<text x="1.155" y="0.436" font-size="0.028649" fill="hsl(0.0,100%,20%)">digit</text>
<text x="0.956" y="0.286" font-size="0.016541" fill="hsl(0.0,100%,20%)">jmadill</text>
<text x="0.924" y="0.776" font-size="0.070177" fill="hsl(0.0,100%,20%)">capn</text>
<text x="1.012" y="0.505" font-size="0.027179" fill="hsl(0.0,100%,20%)">srisser</text>
<text x="1.405" y="0.840" font-size="0.005231" fill="hsl(0.0,100%,20%)">vantablack</text>
<text x="1.266" y="0.966" font-size="0.005231" fill="hsl(0.0,100%,20%)">madesroches</text>
<text x="1.302" y="0.759" font-size="0.007397" fill="hsl(0.0,100%,20%)">lfy</text>
<text x="0.484" y="0.261" font-size="0.009060" fill="hsl(0.0,100%,20%)">cwallez</text>
<text x="1.421" y="0.229" font-size="0.012812" fill="hsl(0.0,100%,20%)">natsu</text>
<text x="1.049" y="0.587" font-size="0.010461" fill="hsl(0.0,100%,20%)">pcc</text>
<text x="0.919" y="0.409" font-size="0.040517" fill="hsl(0.0,100%,20%)">swiftshader.regress</text>
<text x="1.579" y="0.435" font-size="0.007397" fill="hsl(0.0,100%,20%)">nicolas.capens</text>
</svg>
