<svg width="4000" height="2000" viewBox="-0.025 -0.025 2.05 1.05" xmlns="http://www.w3.org/2000/svg">
  <style>
    path {
      fill: none;
      stroke-linecap: round;
      stroke-opacity: 0.4;
    }

    text {
      text-anchor: middle;
      alignment-baseline: hanging;
    }
  </style>
  <g opacity="0.4">
<path d="M1.140 0.883 Q1.395 0.810 1.310 0.670" stroke="hsl(0.0,100%,35%)" stroke-width="0.00085"></path>
<path d="M1.140 0.883 Q2.012 0.718 1.881 0.257" stroke="hsl(0.0,100%,35%)" stroke-width="0.00085"></path>
<path d="M1.140 0.883 Q1.128 0.928 1.213 0.943" stroke="hsl(0.0,100%,35%)" stroke-width="0.00169"></path>
<path d="M1.310 0.670 Q0.994 0.525 0.642 0.647" stroke="hsl(180.0,100%,35%)" stroke-width="0.01100"></path>
<path d="M1.310 0.670 Q1.109 0.212 0.171 0.209" stroke="hsl(180.0,100%,35%)" stroke-width="0.00677"></path>
<path d="M1.310 0.670 Q1.463 0.530 1.224 0.425" stroke="hsl(180.0,100%,35%)" stroke-width="0.01522"></path>
<path d="M1.310 0.670 Q1.357 0.587 1.206 0.546" stroke="hsl(180.0,100%,35%)" stroke-width="0.00169"></path>
<path d="M1.310 0.670 Q1.516 0.326 0.890 0.151" stroke="hsl(180.0,100%,35%)" stroke-width="0.00085"></path>
<path d="M1.310 0.670 Q1.660 0.361 1.136 0.123" stroke="hsl(180.0,100%,35%)" stroke-width="0.00085"></path>
<path d="M1.310 0.670 Q0.739 0.582 0.444 0.842" stroke="hsl(180.0,100%,35%)" stroke-width="0.00254"></path>
<path d="M1.310 0.670 Q1.800 0.476 1.531 0.195" stroke="hsl(180.0,100%,35%)" stroke-width="0.00085"></path>
<path d="M1.310 0.670 Q1.272 0.487 0.907 0.465" stroke="hsl(180.0,100%,35%)" stroke-width="0.00085"></path>
<path d="M1.881 0.257 Q0.760 0.364 0.723 0.935" stroke="hsl(180.0,100%,35%)" stroke-width="0.00085"></path>
<path d="M1.881 0.257 Q0.949 0.204 0.642 0.647" stroke="hsl(180.0,100%,35%)" stroke-width="0.00085"></path>
<path d="M1.881 0.257 Q0.998 0.466 1.213 0.943" stroke="hsl(180.0,100%,35%)" stroke-width="0.00085"></path>
<path d="M0.148 0.610 Q0.139 0.598 0.113 0.600" stroke="hsl(0.0,100%,35%)" stroke-width="0.00085"></path>
<path d="M0.148 0.610 Q1.032 0.564 1.136 0.123" stroke="hsl(0.0,100%,35%)" stroke-width="0.00085"></path>
<path d="M0.148 0.610 Q0.414 0.989 1.213 0.943" stroke="hsl(0.0,100%,35%)" stroke-width="0.00085"></path>
<path d="M1.136 0.123 Q0.215 0.344 0.444 0.842" stroke="hsl(0.0,100%,35%)" stroke-width="0.00338"></path>
<path d="M1.136 0.123 Q0.991 0.088 0.890 0.151" stroke="hsl(0.0,100%,35%)" stroke-width="0.00085"></path>
<path d="M1.136 0.123 Q0.785 0.431 1.310 0.670" stroke="hsl(0.0,100%,35%)" stroke-width="0.00423"></path>
<path d="M1.136 0.123 Q0.469 0.286 0.642 0.647" stroke="hsl(0.0,100%,35%)" stroke-width="0.00085"></path>
<path d="M1.136 0.123 Q0.337 0.230 0.370 0.643" stroke="hsl(0.0,100%,35%)" stroke-width="0.00085"></path>
<path d="M1.136 0.123 Q0.084 0.270 0.141 0.816" stroke="hsl(0.0,100%,35%)" stroke-width="0.00169"></path>
<path d="M1.193 0.334 Q0.945 0.343 0.907 0.465" stroke="hsl(0.0,100%,35%)" stroke-width="0.00085"></path>
<path d="M1.193 0.334 Q0.983 0.525 1.310 0.670" stroke="hsl(0.0,100%,35%)" stroke-width="0.00085"></path>
<path d="M1.193 0.334 Q1.136 0.386 1.224 0.425" stroke="hsl(0.0,100%,35%)" stroke-width="0.00085"></path>
<path d="M0.907 0.465 Q0.629 0.503 0.642 0.647" stroke="hsl(0.0,100%,35%)" stroke-width="0.01438"></path>
<path d="M0.907 0.465 Q0.994 0.399 0.883 0.342" stroke="hsl(0.0,100%,35%)" stroke-width="0.02791"></path>
<path d="M0.907 0.465 Q0.945 0.648 1.310 0.670" stroke="hsl(0.0,100%,35%)" stroke-width="0.00846"></path>
<path d="M0.907 0.465 Q0.973 0.826 1.692 0.874" stroke="hsl(0.0,100%,35%)" stroke-width="0.01522"></path>
<path d="M0.907 0.465 Q0.827 0.546 0.967 0.602" stroke="hsl(0.0,100%,35%)" stroke-width="0.01776"></path>
<path d="M0.907 0.465 Q0.976 0.316 0.699 0.250" stroke="hsl(0.0,100%,35%)" stroke-width="0.01522"></path>
<path d="M0.907 0.465 Q1.151 0.305 0.890 0.151" stroke="hsl(0.0,100%,35%)" stroke-width="0.00338"></path>
<path d="M0.907 0.465 Q1.264 0.405 1.224 0.217" stroke="hsl(0.0,100%,35%)" stroke-width="0.00254"></path>
<path d="M0.907 0.465 Q1.006 0.506 1.106 0.467" stroke="hsl(0.0,100%,35%)" stroke-width="0.00085"></path>
<path d="M0.907 0.465 Q1.296 0.340 1.136 0.123" stroke="hsl(0.0,100%,35%)" stroke-width="0.00085"></path>
<path d="M0.907 0.465 Q1.112 0.764 1.740 0.730" stroke="hsl(0.0,100%,35%)" stroke-width="0.00169"></path>
<path d="M0.907 0.465 Q1.427 0.368 1.351 0.093" stroke="hsl(0.0,100%,35%)" stroke-width="0.00169"></path>
<path d="M0.907 0.465 Q0.744 0.190 0.171 0.209" stroke="hsl(0.0,100%,35%)" stroke-width="0.00169"></path>
<path d="M0.907 0.465 Q0.904 0.147 0.282 0.079" stroke="hsl(0.0,100%,35%)" stroke-width="0.00085"></path>
<path d="M0.907 0.465 Q1.166 0.437 1.166 0.304" stroke="hsl(0.0,100%,35%)" stroke-width="0.00169"></path>
<path d="M0.907 0.465 Q1.098 0.508 1.224 0.425" stroke="hsl(0.0,100%,35%)" stroke-width="0.00169"></path>
<path d="M0.907 0.465 Q0.847 0.294 0.499 0.286" stroke="hsl(0.0,100%,35%)" stroke-width="0.00085"></path>
<path d="M0.907 0.465 Q0.244 0.487 0.141 0.816" stroke="hsl(0.0,100%,35%)" stroke-width="0.00085"></path>
<path d="M0.907 0.465 Q1.561 0.556 1.881 0.257" stroke="hsl(0.0,100%,35%)" stroke-width="0.00254"></path>
<path d="M0.907 0.465 Q1.577 0.403 1.602 0.062" stroke="hsl(0.0,100%,35%)" stroke-width="0.00085"></path>
<path d="M0.907 0.465 Q0.870 0.504 0.938 0.531" stroke="hsl(0.0,100%,35%)" stroke-width="0.00085"></path>
<path d="M0.907 0.465 Q0.555 0.502 0.550 0.682" stroke="hsl(0.0,100%,35%)" stroke-width="0.00085"></path>
<path d="M1.224 0.425 Q0.755 0.419 0.642 0.647" stroke="hsl(180.0,100%,35%)" stroke-width="0.00507"></path>
<path d="M1.224 0.425 Q1.071 0.564 1.310 0.670" stroke="hsl(180.0,100%,35%)" stroke-width="0.01353"></path>
<path d="M1.224 0.425 Q0.566 0.580 0.723 0.935" stroke="hsl(180.0,100%,35%)" stroke-width="0.00085"></path>
<path d="M1.224 0.425 Q0.870 0.107 0.171 0.209" stroke="hsl(180.0,100%,35%)" stroke-width="0.00085"></path>
<path d="M1.224 0.425 Q1.033 0.382 0.907 0.465" stroke="hsl(180.0,100%,35%)" stroke-width="0.00085"></path>
<path d="M1.329 0.804 Q1.251 0.816 1.257 0.857" stroke="hsl(0.0,100%,35%)" stroke-width="0.00085"></path>
<path d="M1.329 0.804 Q1.427 0.733 1.310 0.670" stroke="hsl(0.0,100%,35%)" stroke-width="0.00085"></path>
<path d="M1.329 0.804 Q2.043 0.641 1.881 0.257" stroke="hsl(0.0,100%,35%)" stroke-width="0.00085"></path>
<path d="M0.603 0.649 Q0.492 0.599 0.370 0.643" stroke="hsl(180.0,100%,35%)" stroke-width="0.00085"></path>
<path d="M0.603 0.649 Q0.624 0.656 0.642 0.647" stroke="hsl(180.0,100%,35%)" stroke-width="0.00169"></path>
<path d="M0.603 0.649 Q0.940 0.801 1.310 0.670" stroke="hsl(180.0,100%,35%)" stroke-width="0.00169"></path>
<path d="M0.603 0.649 Q0.739 0.343 0.171 0.209" stroke="hsl(180.0,100%,35%)" stroke-width="0.00085"></path>
<path d="M0.603 0.649 Q1.556 0.708 1.881 0.257" stroke="hsl(180.0,100%,35%)" stroke-width="0.00085"></path>
<path d="M0.642 0.647 Q0.958 0.792 1.310 0.670" stroke="hsl(180.0,100%,35%)" stroke-width="0.01015"></path>
<path d="M0.642 0.647 Q1.590 0.547 1.602 0.062" stroke="hsl(180.0,100%,35%)" stroke-width="0.00677"></path>
<path d="M0.642 0.647 Q0.863 0.507 0.638 0.368" stroke="hsl(180.0,100%,35%)" stroke-width="0.00761"></path>
<path d="M0.642 0.647 Q0.757 0.334 0.171 0.209" stroke="hsl(180.0,100%,35%)" stroke-width="0.00169"></path>
<path d="M0.642 0.647 Q1.007 0.543 0.883 0.342" stroke="hsl(180.0,100%,35%)" stroke-width="0.00085"></path>
<path d="M0.642 0.647 Q1.439 0.512 1.351 0.093" stroke="hsl(180.0,100%,35%)" stroke-width="0.00761"></path>
<path d="M0.642 0.647 Q0.509 0.591 0.370 0.643" stroke="hsl(180.0,100%,35%)" stroke-width="0.00423"></path>
<path d="M0.642 0.647 Q1.178 0.581 1.166 0.304" stroke="hsl(180.0,100%,35%)" stroke-width="0.00085"></path>
<path d="M0.642 0.647 Q1.357 0.527 1.280 0.152" stroke="hsl(180.0,100%,35%)" stroke-width="0.00169"></path>
<path d="M0.642 0.647 Q1.111 0.652 1.224 0.425" stroke="hsl(180.0,100%,35%)" stroke-width="0.00085"></path>
<path d="M0.642 0.647 Q0.256 0.632 0.141 0.816" stroke="hsl(180.0,100%,35%)" stroke-width="0.00085"></path>
<path d="M0.642 0.647 Q0.387 0.705 0.444 0.842" stroke="hsl(180.0,100%,35%)" stroke-width="0.00085"></path>
<path d="M0.642 0.647 Q0.986 0.971 1.692 0.874" stroke="hsl(180.0,100%,35%)" stroke-width="0.00085"></path>
<path d="M0.642 0.647 Q1.277 0.549 1.224 0.217" stroke="hsl(180.0,100%,35%)" stroke-width="0.00085"></path>
<path d="M0.642 0.647 Q0.568 0.646 0.550 0.682" stroke="hsl(180.0,100%,35%)" stroke-width="0.00085"></path>
<path d="M0.642 0.647 Q1.125 0.908 1.740 0.730" stroke="hsl(180.0,100%,35%)" stroke-width="0.00085"></path>
<path d="M0.171 0.209 Q0.274 0.313 0.499 0.286" stroke="hsl(180.0,100%,35%)" stroke-width="0.01269"></path>
<path d="M0.171 0.209 Q0.307 0.242 0.400 0.182" stroke="hsl(180.0,100%,35%)" stroke-width="0.00085"></path>
<path d="M0.171 0.209 Q0.056 0.522 0.642 0.647" stroke="hsl(180.0,100%,35%)" stroke-width="0.00592"></path>
<path d="M0.171 0.209 Q0.372 0.667 1.310 0.670" stroke="hsl(180.0,100%,35%)" stroke-width="0.00338"></path>
<path d="M0.171 0.209 Q0.335 0.485 0.907 0.465" stroke="hsl(180.0,100%,35%)" stroke-width="0.00169"></path>
<path d="M0.171 0.209 Q0.658 0.263 0.869 0.037" stroke="hsl(180.0,100%,35%)" stroke-width="0.00254"></path>
<path d="M0.171 0.209 Q0.331 0.166 0.282 0.079" stroke="hsl(180.0,100%,35%)" stroke-width="0.00254"></path>
<path d="M0.883 0.342 Q0.831 0.255 0.651 0.262" stroke="hsl(0.0,100%,35%)" stroke-width="0.00507"></path>
<path d="M0.883 0.342 Q0.740 0.306 0.638 0.368" stroke="hsl(0.0,100%,35%)" stroke-width="0.00423"></path>
<path d="M0.883 0.342 Q0.797 0.408 0.907 0.465" stroke="hsl(0.0,100%,35%)" stroke-width="0.00338"></path>
<path d="M0.883 0.342 Q1.040 0.248 0.890 0.151" stroke="hsl(0.0,100%,35%)" stroke-width="0.00085"></path>
<path d="M0.883 0.342 Q1.153 0.348 1.224 0.217" stroke="hsl(0.0,100%,35%)" stroke-width="0.00085"></path>
<path d="M0.883 0.342 Q0.518 0.446 0.642 0.647" stroke="hsl(0.0,100%,35%)" stroke-width="0.00085"></path>
<path d="M0.883 0.342 Q0.717 0.489 0.967 0.602" stroke="hsl(0.0,100%,35%)" stroke-width="0.00085"></path>
<path d="M1.692 0.874 Q0.963 0.535 0.141 0.816" stroke="hsl(0.0,100%,35%)" stroke-width="0.00085"></path>
<path d="M1.692 0.874 Q1.695 0.363 0.699 0.250" stroke="hsl(0.0,100%,35%)" stroke-width="0.00254"></path>
<path d="M1.692 0.874 Q1.831 0.811 1.740 0.730" stroke="hsl(0.0,100%,35%)" stroke-width="0.00085"></path>
<path d="M1.692 0.874 Q1.629 0.781 1.434 0.791" stroke="hsl(0.0,100%,35%)" stroke-width="0.00169"></path>
<path d="M0.699 0.250 Q0.697 0.760 1.692 0.874" stroke="hsl(0.0,100%,35%)" stroke-width="0.00677"></path>
<path d="M0.699 0.250 Q0.835 0.698 1.740 0.730" stroke="hsl(0.0,100%,35%)" stroke-width="0.00169"></path>
<path d="M0.699 0.250 Q0.631 0.399 0.907 0.465" stroke="hsl(0.0,100%,35%)" stroke-width="0.00085"></path>
<path d="M0.699 0.250 Q0.352 0.437 0.642 0.647" stroke="hsl(0.0,100%,35%)" stroke-width="0.00254"></path>
<path d="M0.890 0.151 Q1.004 0.251 1.224 0.217" stroke="hsl(0.0,100%,35%)" stroke-width="0.01015"></path>
<path d="M0.890 0.151 Q0.369 0.349 0.642 0.647" stroke="hsl(0.0,100%,35%)" stroke-width="0.01100"></path>
<path d="M0.890 0.151 Q1.083 0.121 1.068 0.021" stroke="hsl(0.0,100%,35%)" stroke-width="0.01353"></path>
<path d="M0.890 0.151 Q0.647 0.311 0.907 0.465" stroke="hsl(0.0,100%,35%)" stroke-width="0.00846"></path>
<path d="M0.890 0.151 Q0.385 0.139 0.252 0.383" stroke="hsl(0.0,100%,35%)" stroke-width="0.00085"></path>
<path d="M0.890 0.151 Q1.167 0.214 1.351 0.093" stroke="hsl(0.0,100%,35%)" stroke-width="0.00085"></path>
<path d="M0.890 0.151 Q0.734 0.245 0.883 0.342" stroke="hsl(0.0,100%,35%)" stroke-width="0.00169"></path>
<path d="M0.890 0.151 Q0.713 0.672 1.692 0.874" stroke="hsl(0.0,100%,35%)" stroke-width="0.00761"></path>
<path d="M0.890 0.151 Q1.035 0.186 1.136 0.123" stroke="hsl(0.0,100%,35%)" stroke-width="0.00507"></path>
<path d="M0.890 0.151 Q0.685 0.494 1.310 0.670" stroke="hsl(0.0,100%,35%)" stroke-width="0.00423"></path>
<path d="M0.890 0.151 Q0.399 0.433 0.843 0.735" stroke="hsl(0.0,100%,35%)" stroke-width="0.00085"></path>
<path d="M0.890 0.151 Q0.716 0.162 0.699 0.250" stroke="hsl(0.0,100%,35%)" stroke-width="0.00085"></path>
<path d="M0.890 0.151 Q0.838 0.354 1.224 0.425" stroke="hsl(0.0,100%,35%)" stroke-width="0.00085"></path>
<path d="M1.224 0.217 Q0.905 0.461 1.310 0.670" stroke="hsl(0.0,100%,35%)" stroke-width="0.00338"></path>
<path d="M1.224 0.217 Q1.387 0.180 1.351 0.093" stroke="hsl(0.0,100%,35%)" stroke-width="0.00930"></path>
<path d="M1.224 0.217 Q1.111 0.117 0.890 0.151" stroke="hsl(0.0,100%,35%)" stroke-width="0.00423"></path>
<path d="M1.224 0.217 Q0.589 0.316 0.642 0.647" stroke="hsl(0.0,100%,35%)" stroke-width="0.00423"></path>
<path d="M1.224 0.217 Q0.704 0.003 0.171 0.209" stroke="hsl(0.0,100%,35%)" stroke-width="0.00169"></path>
<path d="M1.224 0.217 Q1.125 0.249 1.166 0.304" stroke="hsl(0.0,100%,35%)" stroke-width="0.00085"></path>
<path d="M1.224 0.217 Q1.058 0.321 1.224 0.425" stroke="hsl(0.0,100%,35%)" stroke-width="0.00169"></path>
<path d="M1.224 0.217 Q0.787 0.358 0.967 0.602" stroke="hsl(0.0,100%,35%)" stroke-width="0.00085"></path>
<path d="M1.224 0.217 Q1.521 0.368 1.881 0.257" stroke="hsl(0.0,100%,35%)" stroke-width="0.00169"></path>
<path d="M1.224 0.217 Q0.933 0.639 1.692 0.874" stroke="hsl(0.0,100%,35%)" stroke-width="0.00085"></path>
<path d="M1.224 0.217 Q0.515 0.315 0.550 0.682" stroke="hsl(0.0,100%,35%)" stroke-width="0.00085"></path>
<path d="M1.224 0.217 Q1.072 0.577 1.740 0.730" stroke="hsl(0.0,100%,35%)" stroke-width="0.00085"></path>
<path d="M1.224 0.217 Q0.457 0.259 0.370 0.643" stroke="hsl(0.0,100%,35%)" stroke-width="0.00085"></path>
<path d="M1.224 0.217 Q1.537 0.216 1.602 0.062" stroke="hsl(0.0,100%,35%)" stroke-width="0.00085"></path>
<path d="M1.740 0.730 Q1.982 0.691 1.960 0.565" stroke="hsl(0.0,100%,35%)" stroke-width="0.00254"></path>
<path d="M1.740 0.730 Q1.257 0.469 0.642 0.647" stroke="hsl(0.0,100%,35%)" stroke-width="0.00930"></path>
<path d="M1.740 0.730 Q1.455 0.512 0.967 0.602" stroke="hsl(0.0,100%,35%)" stroke-width="0.00507"></path>
<path d="M1.740 0.730 Q1.601 0.792 1.692 0.874" stroke="hsl(0.0,100%,35%)" stroke-width="0.01100"></path>
<path d="M1.740 0.730 Q0.872 0.453 0.141 0.816" stroke="hsl(0.0,100%,35%)" stroke-width="0.01100"></path>
<path d="M1.740 0.730 Q1.918 0.709 1.916 0.617" stroke="hsl(0.0,100%,35%)" stroke-width="0.00085"></path>
<path d="M1.740 0.730 Q1.892 0.370 1.224 0.217" stroke="hsl(0.0,100%,35%)" stroke-width="0.00085"></path>
<path d="M1.740 0.730 Q1.535 0.431 0.907 0.465" stroke="hsl(0.0,100%,35%)" stroke-width="0.00592"></path>
<path d="M1.740 0.730 Q0.947 0.415 0.159 0.733" stroke="hsl(0.0,100%,35%)" stroke-width="0.00085"></path>
<path d="M1.740 0.730 Q1.183 0.468 0.550 0.682" stroke="hsl(0.0,100%,35%)" stroke-width="0.00085"></path>
<path d="M1.351 0.093 Q1.074 0.030 0.890 0.151" stroke="hsl(180.0,100%,35%)" stroke-width="0.00085"></path>
<path d="M1.351 0.093 Q1.188 0.130 1.224 0.217" stroke="hsl(180.0,100%,35%)" stroke-width="0.01269"></path>
<path d="M1.351 0.093 Q0.831 0.190 0.907 0.465" stroke="hsl(180.0,100%,35%)" stroke-width="0.00169"></path>
<path d="M1.351 0.093 Q0.899 0.041 0.699 0.250" stroke="hsl(180.0,100%,35%)" stroke-width="0.00085"></path>
<path d="M1.351 0.093 Q0.553 0.228 0.642 0.647" stroke="hsl(180.0,100%,35%)" stroke-width="0.01184"></path>
<path d="M1.351 0.093 Q1.501 0.128 1.602 0.062" stroke="hsl(180.0,100%,35%)" stroke-width="0.00507"></path>
<path d="M1.351 0.093 Q1.359 0.180 1.531 0.195" stroke="hsl(180.0,100%,35%)" stroke-width="0.00085"></path>
<path d="M1.351 0.093 Q0.668 -0.085 0.171 0.209" stroke="hsl(180.0,100%,35%)" stroke-width="0.00085"></path>
<path d="M1.351 0.093 Q1.089 0.162 1.166 0.304" stroke="hsl(180.0,100%,35%)" stroke-width="0.00254"></path>
<path d="M1.351 0.093 Q0.602 0.491 1.213 0.943" stroke="hsl(180.0,100%,35%)" stroke-width="0.00085"></path>
<path d="M1.351 0.093 Q1.036 0.489 1.740 0.730" stroke="hsl(180.0,100%,35%)" stroke-width="0.00085"></path>
<path d="M1.351 0.093 Q0.869 0.373 1.310 0.670" stroke="hsl(180.0,100%,35%)" stroke-width="0.00338"></path>
<path d="M1.351 0.093 Q1.022 0.233 1.224 0.425" stroke="hsl(180.0,100%,35%)" stroke-width="0.00085"></path>
<path d="M0.141 0.816 Q0.873 0.644 0.699 0.250" stroke="hsl(0.0,100%,35%)" stroke-width="0.00169"></path>
<path d="M0.141 0.816 Q0.870 1.155 1.692 0.874" stroke="hsl(0.0,100%,35%)" stroke-width="0.00338"></path>
<path d="M0.141 0.816 Q1.009 1.093 1.740 0.730" stroke="hsl(0.0,100%,35%)" stroke-width="0.00338"></path>
<path d="M0.141 0.816 Q0.805 0.794 0.907 0.465" stroke="hsl(0.0,100%,35%)" stroke-width="0.00085"></path>
<path d="M0.141 0.816 Q0.526 0.832 0.642 0.647" stroke="hsl(0.0,100%,35%)" stroke-width="0.00085"></path>
<path d="M1.602 0.062 Q1.452 0.027 1.351 0.093" stroke="hsl(180.0,100%,35%)" stroke-width="0.01100"></path>
<path d="M1.602 0.062 Q0.654 0.163 0.642 0.647" stroke="hsl(180.0,100%,35%)" stroke-width="0.00507"></path>
<path d="M1.602 0.062 Q0.872 -0.047 0.499 0.286" stroke="hsl(180.0,100%,35%)" stroke-width="0.00085"></path>
<path d="M1.107 0.295 Q0.908 0.523 1.310 0.670" stroke="hsl(0.0,100%,35%)" stroke-width="0.00085"></path>
<path d="M1.107 0.295 Q0.957 0.274 0.883 0.342" stroke="hsl(0.0,100%,35%)" stroke-width="0.00169"></path>
<path d="M1.107 0.295 Q0.810 0.168 0.499 0.286" stroke="hsl(0.0,100%,35%)" stroke-width="0.00085"></path>
<path d="M1.107 0.295 Q0.871 0.340 0.907 0.465" stroke="hsl(0.0,100%,35%)" stroke-width="0.00085"></path>
<path d="M1.107 0.295 Q1.061 0.262 0.987 0.277" stroke="hsl(0.0,100%,35%)" stroke-width="0.00085"></path>
<path d="M0.987 0.277 Q0.883 0.289 0.883 0.342" stroke="hsl(0.0,100%,35%)" stroke-width="0.00846"></path>
<path d="M0.987 0.277 Q0.797 0.355 0.907 0.465" stroke="hsl(0.0,100%,35%)" stroke-width="0.00085"></path>
<path d="M0.987 0.277 Q0.881 0.455 1.206 0.546" stroke="hsl(0.0,100%,35%)" stroke-width="0.00085"></path>
<path d="M0.987 0.277 Q0.834 0.538 1.310 0.670" stroke="hsl(0.0,100%,35%)" stroke-width="0.00085"></path>
<path d="M0.987 0.277 Q1.033 0.310 1.107 0.295" stroke="hsl(0.0,100%,35%)" stroke-width="0.00085"></path>
<path d="M0.987 0.277 Q0.740 0.253 0.638 0.368" stroke="hsl(0.0,100%,35%)" stroke-width="0.00085"></path>
<path d="M0.466 0.514 Q0.763 0.761 1.310 0.670" stroke="hsl(180.0,100%,35%)" stroke-width="0.01269"></path>
<path d="M0.466 0.514 Q0.447 0.616 0.642 0.647" stroke="hsl(180.0,100%,35%)" stroke-width="0.00930"></path>
<path d="M0.466 0.514 Q1.245 0.480 1.351 0.093" stroke="hsl(180.0,100%,35%)" stroke-width="0.00085"></path>
<path d="M0.466 0.514 Q1.379 0.668 1.881 0.257" stroke="hsl(180.0,100%,35%)" stroke-width="0.00085"></path>
<path d="M0.843 0.735 Q0.813 0.651 0.642 0.647" stroke="hsl(180.0,100%,35%)" stroke-width="0.00507"></path>
<path d="M0.843 0.735 Q1.157 0.974 1.692 0.874" stroke="hsl(180.0,100%,35%)" stroke-width="0.00169"></path>
<path d="M0.843 0.735 Q0.867 0.731 0.864 0.719" stroke="hsl(180.0,100%,35%)" stroke-width="0.00254"></path>
<path d="M0.843 0.735 Q1.129 0.796 1.310 0.670" stroke="hsl(180.0,100%,35%)" stroke-width="0.00423"></path>
<path d="M0.843 0.735 Q0.928 0.338 0.171 0.209" stroke="hsl(180.0,100%,35%)" stroke-width="0.00085"></path>
<path d="M0.843 0.735 Q0.428 0.635 0.141 0.816" stroke="hsl(180.0,100%,35%)" stroke-width="0.00169"></path>
<path d="M0.843 0.735 Q1.012 0.693 0.967 0.602" stroke="hsl(180.0,100%,35%)" stroke-width="0.00085"></path>
<path d="M0.843 0.735 Q1.335 0.452 0.890 0.151" stroke="hsl(180.0,100%,35%)" stroke-width="0.00085"></path>
<path d="M1.730 0.570 Q1.402 0.353 0.907 0.465" stroke="hsl(0.0,100%,35%)" stroke-width="0.00085"></path>
<path d="M1.730 0.570 Q1.636 0.482 1.445 0.509" stroke="hsl(0.0,100%,35%)" stroke-width="0.00085"></path>
<path d="M1.730 0.570 Q1.607 0.652 1.740 0.730" stroke="hsl(0.0,100%,35%)" stroke-width="0.00085"></path>
<path d="M1.445 0.509 Q1.249 0.562 1.310 0.670" stroke="hsl(180.0,100%,35%)" stroke-width="0.04314"></path>
<path d="M1.445 0.509 Q1.402 0.423 1.224 0.425" stroke="hsl(180.0,100%,35%)" stroke-width="0.01015"></path>
<path d="M1.445 0.509 Q0.932 0.417 0.642 0.647" stroke="hsl(180.0,100%,35%)" stroke-width="0.01522"></path>
<path d="M1.445 0.509 Q1.047 0.105 0.171 0.209" stroke="hsl(180.0,100%,35%)" stroke-width="0.00423"></path>
<path d="M1.445 0.509 Q1.567 0.319 1.224 0.217" stroke="hsl(180.0,100%,35%)" stroke-width="0.00169"></path>
<path d="M1.445 0.509 Q1.298 0.313 0.883 0.342" stroke="hsl(180.0,100%,35%)" stroke-width="0.00169"></path>
<path d="M1.445 0.509 Q1.714 0.484 1.724 0.347" stroke="hsl(180.0,100%,35%)" stroke-width="0.00507"></path>
<path d="M1.445 0.509 Q1.211 0.380 0.907 0.465" stroke="hsl(180.0,100%,35%)" stroke-width="0.00761"></path>
<path d="M1.445 0.509 Q1.454 0.219 0.890 0.151" stroke="hsl(180.0,100%,35%)" stroke-width="0.00169"></path>
<path d="M1.445 0.509 Q1.739 0.369 1.531 0.195" stroke="hsl(180.0,100%,35%)" stroke-width="0.00085"></path>
<path d="M1.445 0.509 Q0.949 0.208 0.252 0.383" stroke="hsl(180.0,100%,35%)" stroke-width="0.00169"></path>
<path d="M1.445 0.509 Q0.547 0.402 0.141 0.816" stroke="hsl(180.0,100%,35%)" stroke-width="0.00169"></path>
<path d="M1.445 0.509 Q1.415 0.678 1.740 0.730" stroke="hsl(180.0,100%,35%)" stroke-width="0.00254"></path>
<path d="M1.445 0.509 Q0.678 0.475 0.444 0.842" stroke="hsl(180.0,100%,35%)" stroke-width="0.00592"></path>
<path d="M1.445 0.509 Q1.276 0.741 1.692 0.874" stroke="hsl(180.0,100%,35%)" stroke-width="0.00085"></path>
<path d="M1.445 0.509 Q1.599 0.254 1.136 0.123" stroke="hsl(180.0,100%,35%)" stroke-width="0.00085"></path>
<path d="M0.386 0.549 Q1.234 0.514 1.351 0.093" stroke="hsl(180.0,100%,35%)" stroke-width="0.00169"></path>
<path d="M0.386 0.549 Q0.436 0.649 0.642 0.647" stroke="hsl(180.0,100%,35%)" stroke-width="0.00338"></path>
<path d="M0.386 0.549 Q1.384 0.549 1.602 0.062" stroke="hsl(180.0,100%,35%)" stroke-width="0.00085"></path>
<path d="M0.386 0.549 Q0.247 0.809 0.723 0.935" stroke="hsl(180.0,100%,35%)" stroke-width="0.00085"></path>
<path d="M0.056 0.512 Q0.724 0.958 1.740 0.730" stroke="hsl(0.0,100%,35%)" stroke-width="0.00085"></path>
<path d="M0.056 0.512 Q0.356 0.384 0.171 0.209" stroke="hsl(0.0,100%,35%)" stroke-width="0.00085"></path>
<path d="M0.056 0.512 Q-0.145 0.681 0.141 0.816" stroke="hsl(0.0,100%,35%)" stroke-width="0.00846"></path>
<path d="M0.056 0.512 Q0.142 0.459 0.058 0.406" stroke="hsl(0.0,100%,35%)" stroke-width="0.00507"></path>
<path d="M0.056 0.512 Q0.100 0.574 0.230 0.566" stroke="hsl(0.0,100%,35%)" stroke-width="0.00423"></path>
<path d="M0.056 0.512 Q0.153 0.768 0.674 0.777" stroke="hsl(0.0,100%,35%)" stroke-width="0.00169"></path>
<path d="M0.252 0.383 Q0.186 0.345 0.097 0.369" stroke="hsl(0.0,100%,35%)" stroke-width="0.00169"></path>
<path d="M0.252 0.383 Q0.294 0.343 0.226 0.314" stroke="hsl(0.0,100%,35%)" stroke-width="0.00085"></path>
<path d="M0.252 0.383 Q-0.149 0.577 0.141 0.816" stroke="hsl(0.0,100%,35%)" stroke-width="0.00169"></path>
<path d="M0.252 0.383 Q0.514 0.555 0.907 0.465" stroke="hsl(0.0,100%,35%)" stroke-width="0.00085"></path>
<path d="M0.252 0.383 Q0.236 0.593 0.642 0.647" stroke="hsl(0.0,100%,35%)" stroke-width="0.00338"></path>
<path d="M0.252 0.383 Q0.871 0.494 1.224 0.217" stroke="hsl(0.0,100%,35%)" stroke-width="0.00085"></path>
<path d="M0.252 0.383 Q0.902 0.430 1.136 0.123" stroke="hsl(0.0,100%,35%)" stroke-width="0.00085"></path>
<path d="M0.252 0.383 Q0.351 0.280 0.171 0.209" stroke="hsl(0.0,100%,35%)" stroke-width="0.00085"></path>
<path d="M0.444 0.842 Q0.313 0.768 0.141 0.816" stroke="hsl(0.0,100%,35%)" stroke-width="0.00930"></path>
<path d="M0.444 0.842 Q1.181 1.045 1.740 0.730" stroke="hsl(0.0,100%,35%)" stroke-width="0.00169"></path>
<path d="M0.444 0.842 Q0.698 0.784 0.642 0.647" stroke="hsl(0.0,100%,35%)" stroke-width="0.00085"></path>
<path d="M0.444 0.842 Q0.509 0.944 0.723 0.935" stroke="hsl(0.0,100%,35%)" stroke-width="0.00169"></path>
<path d="M0.444 0.842 Q1.365 0.620 1.136 0.123" stroke="hsl(0.0,100%,35%)" stroke-width="0.00085"></path>
<path d="M1.206 0.546 Q1.159 0.629 1.310 0.670" stroke="hsl(180.0,100%,35%)" stroke-width="0.00338"></path>
<path d="M1.206 0.546 Q0.793 0.236 0.097 0.369" stroke="hsl(180.0,100%,35%)" stroke-width="0.00085"></path>
<path d="M1.206 0.546 Q1.121 0.446 0.907 0.465" stroke="hsl(180.0,100%,35%)" stroke-width="0.00169"></path>
<path d="M1.206 0.546 Q1.208 0.379 0.883 0.342" stroke="hsl(180.0,100%,35%)" stroke-width="0.00085"></path>
<path d="M1.206 0.546 Q0.958 0.171 0.171 0.209" stroke="hsl(180.0,100%,35%)" stroke-width="0.00085"></path>
<path d="M0.894 0.563 Q0.978 0.517 0.907 0.465" stroke="hsl(0.0,100%,35%)" stroke-width="0.00085"></path>
<path d="M0.894 0.563 Q1.065 0.450 0.883 0.342" stroke="hsl(0.0,100%,35%)" stroke-width="0.00085"></path>
<path d="M0.894 0.563 Q0.474 0.425 0.113 0.600" stroke="hsl(0.0,100%,35%)" stroke-width="0.00085"></path>
<path d="M0.894 0.563 Q1.016 0.700 1.310 0.670" stroke="hsl(0.0,100%,35%)" stroke-width="0.00085"></path>
<path d="M0.531 0.665 Q0.600 0.678 0.642 0.647" stroke="hsl(180.0,100%,35%)" stroke-width="0.00169"></path>
<path d="M0.531 0.665 Q0.916 0.823 1.310 0.670" stroke="hsl(180.0,100%,35%)" stroke-width="0.00254"></path>
<path d="M0.531 0.665 Q0.878 0.640 0.907 0.465" stroke="hsl(180.0,100%,35%)" stroke-width="0.00169"></path>
<path d="M1.531 0.195 Q0.724 0.243 0.642 0.647" stroke="hsl(0.0,100%,35%)" stroke-width="0.00169"></path>
<path d="M1.531 0.195 Q1.541 0.266 1.681 0.276" stroke="hsl(0.0,100%,35%)" stroke-width="0.00085"></path>
<path d="M1.531 0.195 Q1.089 0.139 0.883 0.342" stroke="hsl(0.0,100%,35%)" stroke-width="0.00338"></path>
<path d="M1.531 0.195 Q1.193 0.127 0.987 0.277" stroke="hsl(0.0,100%,35%)" stroke-width="0.00085"></path>
<path d="M1.531 0.195 Q1.522 0.108 1.351 0.093" stroke="hsl(0.0,100%,35%)" stroke-width="0.00338"></path>
<path d="M1.531 0.195 Q1.359 0.145 1.224 0.217" stroke="hsl(0.0,100%,35%)" stroke-width="0.00085"></path>
<path d="M1.531 0.195 Q1.239 0.160 1.107 0.295" stroke="hsl(0.0,100%,35%)" stroke-width="0.00169"></path>
<path d="M1.531 0.195 Q1.068 0.567 1.692 0.874" stroke="hsl(0.0,100%,35%)" stroke-width="0.00085"></path>
<path d="M1.265 0.764 Q1.363 0.726 1.310 0.670" stroke="hsl(180.0,100%,35%)" stroke-width="0.00423"></path>
<path d="M1.265 0.764 Q1.529 0.842 1.740 0.730" stroke="hsl(180.0,100%,35%)" stroke-width="0.00254"></path>
<path d="M1.265 0.764 Q1.393 0.394 0.699 0.250" stroke="hsl(180.0,100%,35%)" stroke-width="0.00169"></path>
<path d="M1.265 0.764 Q1.390 0.904 1.692 0.874" stroke="hsl(180.0,100%,35%)" stroke-width="0.00085"></path>
<path d="M0.941 0.572 Q1.010 0.512 0.907 0.465" stroke="hsl(0.0,100%,35%)" stroke-width="0.00169"></path>
<path d="M0.941 0.572 Q1.048 0.695 1.310 0.670" stroke="hsl(0.0,100%,35%)" stroke-width="0.00085"></path>
<path d="M0.941 0.572 Q0.930 0.592 0.967 0.602" stroke="hsl(0.0,100%,35%)" stroke-width="0.00085"></path>
<path d="M1.944 0.803 Q1.639 0.324 0.638 0.368" stroke="hsl(0.0,100%,35%)" stroke-width="0.00085"></path>
<path d="M1.944 0.803 Q1.783 0.361 0.883 0.342" stroke="hsl(0.0,100%,35%)" stroke-width="0.00085"></path>
<path d="M1.944 0.803 Q1.901 0.726 1.740 0.730" stroke="hsl(0.0,100%,35%)" stroke-width="0.00085"></path>
<path d="M1.092 0.265 Q0.839 0.328 0.907 0.465" stroke="hsl(0.0,100%,35%)" stroke-width="0.00254"></path>
<path d="M1.092 0.265 Q1.030 0.371 1.224 0.425" stroke="hsl(0.0,100%,35%)" stroke-width="0.00085"></path>
<path d="M1.092 0.265 Q0.760 0.409 0.967 0.602" stroke="hsl(0.0,100%,35%)" stroke-width="0.00169"></path>
<path d="M0.159 0.733 Q0.813 1.110 1.692 0.874" stroke="hsl(180.0,100%,35%)" stroke-width="0.00169"></path>
<path d="M0.159 0.733 Q0.084 0.771 0.141 0.816" stroke="hsl(180.0,100%,35%)" stroke-width="0.00592"></path>
<path d="M0.159 0.733 Q0.785 0.931 1.310 0.670" stroke="hsl(180.0,100%,35%)" stroke-width="0.00169"></path>
<path d="M0.159 0.733 Q0.486 0.577 0.252 0.383" stroke="hsl(180.0,100%,35%)" stroke-width="0.00254"></path>
<path d="M0.159 0.733 Q0.816 0.599 0.699 0.250" stroke="hsl(180.0,100%,35%)" stroke-width="0.00169"></path>
<path d="M0.159 0.733 Q0.952 1.047 1.740 0.730" stroke="hsl(180.0,100%,35%)" stroke-width="0.00085"></path>
<path d="M1.434 0.791 Q1.497 0.884 1.692 0.874" stroke="hsl(0.0,100%,35%)" stroke-width="0.01945"></path>
<path d="M1.434 0.791 Q1.431 0.523 0.907 0.465" stroke="hsl(0.0,100%,35%)" stroke-width="0.00085"></path>
<path d="M1.434 0.791 Q1.469 0.706 1.310 0.670" stroke="hsl(0.0,100%,35%)" stroke-width="0.00169"></path>
<path d="M0.835 0.217 Q0.509 0.080 0.171 0.209" stroke="hsl(180.0,100%,35%)" stroke-width="0.00085"></path>
<path d="M0.835 0.217 Q0.759 0.289 0.883 0.342" stroke="hsl(180.0,100%,35%)" stroke-width="0.00085"></path>
<path d="M0.835 0.217 Q0.862 0.277 0.987 0.277" stroke="hsl(180.0,100%,35%)" stroke-width="0.00085"></path>
<path d="M1.280 0.152 Q0.881 0.417 1.310 0.670" stroke="hsl(180.0,100%,35%)" stroke-width="0.00085"></path>
<path d="M1.280 0.152 Q1.363 0.137 1.351 0.093" stroke="hsl(180.0,100%,35%)" stroke-width="0.00169"></path>
<path d="M1.280 0.152 Q0.565 0.272 0.642 0.647" stroke="hsl(180.0,100%,35%)" stroke-width="0.00085"></path>
<path d="M0.785 0.797 Q0.745 0.764 0.674 0.777" stroke="hsl(0.0,100%,35%)" stroke-width="0.00085"></path>
<path d="M0.785 0.797 Q0.949 0.836 1.061 0.765" stroke="hsl(0.0,100%,35%)" stroke-width="0.00085"></path>
<path d="M0.785 0.797 Q0.692 0.570 0.230 0.566" stroke="hsl(0.0,100%,35%)" stroke-width="0.00085"></path>
<path d="M0.785 0.797 Q0.948 0.380 0.171 0.209" stroke="hsl(0.0,100%,35%)" stroke-width="0.00085"></path>
<path d="M1.457 0.180 Q1.623 0.150 1.602 0.062" stroke="hsl(180.0,100%,35%)" stroke-width="0.00085"></path>
<path d="M1.457 0.180 Q1.473 0.115 1.351 0.093" stroke="hsl(180.0,100%,35%)" stroke-width="0.00085"></path>
<path d="M1.457 0.180 Q0.675 0.250 0.642 0.647" stroke="hsl(180.0,100%,35%)" stroke-width="0.00085"></path>
<path d="M0.382 0.722 Q0.397 0.709 0.375 0.698" stroke="hsl(180.0,100%,35%)" stroke-width="0.00085"></path>
<path d="M0.382 0.722 Q0.439 0.680 0.370 0.643" stroke="hsl(180.0,100%,35%)" stroke-width="0.00254"></path>
<path d="M0.382 0.722 Q0.407 0.759 0.485 0.755" stroke="hsl(180.0,100%,35%)" stroke-width="0.00169"></path>
<path d="M0.382 0.722 Q0.813 0.738 0.938 0.531" stroke="hsl(180.0,100%,35%)" stroke-width="0.00085"></path>
<path d="M1.860 0.131 Q1.862 0.111 1.824 0.105" stroke="hsl(180.0,100%,35%)" stroke-width="0.00085"></path>
<path d="M1.860 0.131 Q0.837 0.145 0.642 0.647" stroke="hsl(180.0,100%,35%)" stroke-width="0.00085"></path>
<path d="M1.860 0.131 Q1.359 -0.053 0.890 0.151" stroke="hsl(180.0,100%,35%)" stroke-width="0.00085"></path>
<path d="M1.716 0.615 Q1.431 0.378 0.907 0.465" stroke="hsl(0.0,100%,35%)" stroke-width="0.00338"></path>
<path d="M1.716 0.615 Q1.636 0.677 1.740 0.730" stroke="hsl(0.0,100%,35%)" stroke-width="0.00423"></path>
<path d="M1.716 0.615 Q1.500 0.229 0.699 0.250" stroke="hsl(0.0,100%,35%)" stroke-width="0.00085"></path>
<path d="M1.716 0.615 Q1.351 0.459 0.967 0.602" stroke="hsl(0.0,100%,35%)" stroke-width="0.00085"></path>
<path d="M1.716 0.615 Q1.469 0.561 1.310 0.670" stroke="hsl(0.0,100%,35%)" stroke-width="0.00085"></path>
<path d="M1.716 0.615 Q0.768 0.400 0.141 0.816" stroke="hsl(0.0,100%,35%)" stroke-width="0.00085"></path>
<path d="M1.716 0.615 Q1.497 0.740 1.692 0.874" stroke="hsl(0.0,100%,35%)" stroke-width="0.00085"></path>
<path d="M0.912 0.048 Q0.899 0.034 0.869 0.037" stroke="hsl(180.0,100%,35%)" stroke-width="0.00338"></path>
<path d="M0.912 0.048 Q0.515 0.084 0.499 0.286" stroke="hsl(180.0,100%,35%)" stroke-width="0.00169"></path>
<path d="M0.912 0.048 Q0.573 -0.062 0.282 0.079" stroke="hsl(180.0,100%,35%)" stroke-width="0.00085"></path>
<path d="M0.912 0.048 Q0.108 0.454 0.723 0.935" stroke="hsl(180.0,100%,35%)" stroke-width="0.00085"></path>
<path d="M1.446 0.359 Q1.092 0.305 0.907 0.465" stroke="hsl(180.0,100%,35%)" stroke-width="0.00085"></path>
<path d="M1.446 0.359 Q1.129 0.487 1.310 0.670" stroke="hsl(180.0,100%,35%)" stroke-width="0.00085"></path>
<path d="M1.446 0.359 Q1.283 0.348 1.224 0.425" stroke="hsl(180.0,100%,35%)" stroke-width="0.00085"></path>
<path d="M1.502 0.900 Q0.889 0.586 0.141 0.816" stroke="hsl(0.0,100%,35%)" stroke-width="0.00085"></path>
<path d="M1.502 0.900 Q1.274 0.602 0.642 0.647" stroke="hsl(0.0,100%,35%)" stroke-width="0.00169"></path>
<path d="M1.502 0.900 Q1.811 0.535 1.166 0.304" stroke="hsl(0.0,100%,35%)" stroke-width="0.00085"></path>
<path d="M1.502 0.900 Q1.618 0.925 1.692 0.874" stroke="hsl(0.0,100%,35%)" stroke-width="0.00761"></path>
<path d="M1.502 0.900 Q1.020 0.659 0.444 0.842" stroke="hsl(0.0,100%,35%)" stroke-width="0.00085"></path>
<path d="M1.502 0.900 Q1.555 0.832 1.434 0.791" stroke="hsl(0.0,100%,35%)" stroke-width="0.00254"></path>
<path d="M1.502 0.900 Q1.472 0.644 0.967 0.602" stroke="hsl(0.0,100%,35%)" stroke-width="0.00085"></path>
<path d="M1.502 0.900 Q1.590 0.747 1.310 0.670" stroke="hsl(0.0,100%,35%)" stroke-width="0.00169"></path>
<path d="M1.563 0.736 Q0.788 0.492 0.141 0.816" stroke="hsl(0.0,100%,35%)" stroke-width="0.00254"></path>
<path d="M1.563 0.736 Q1.520 0.320 0.699 0.250" stroke="hsl(0.0,100%,35%)" stroke-width="0.00085"></path>
<path d="M1.563 0.736 Q1.657 0.768 1.740 0.730" stroke="hsl(0.0,100%,35%)" stroke-width="0.00338"></path>
<path d="M1.563 0.736 Q1.518 0.831 1.692 0.874" stroke="hsl(0.0,100%,35%)" stroke-width="0.00085"></path>
<path d="M1.506 0.741 Q1.428 0.484 0.907 0.465" stroke="hsl(0.0,100%,35%)" stroke-width="0.00085"></path>
<path d="M1.506 0.741 Q1.632 0.782 1.740 0.730" stroke="hsl(0.0,100%,35%)" stroke-width="0.00169"></path>
<path d="M1.506 0.741 Q1.493 0.845 1.692 0.874" stroke="hsl(0.0,100%,35%)" stroke-width="0.00085"></path>
<path d="M1.783 0.337 Q1.280 0.409 1.310 0.670" stroke="hsl(0.0,100%,35%)" stroke-width="0.00085"></path>
<path d="M1.783 0.337 Q1.896 0.316 1.881 0.257" stroke="hsl(0.0,100%,35%)" stroke-width="0.00085"></path>
<path d="M1.783 0.337 Q1.013 0.526 1.213 0.943" stroke="hsl(0.0,100%,35%)" stroke-width="0.00085"></path>
</g>
<text x="1.140" y="0.878" font-size="0.008567" fill="hsl(0.0,100%,20%)">abbyyeh</text>
<text x="1.310" y="0.639" font-size="0.062074" fill="hsl(180.0,100%,20%)">hta</text>
<text x="1.881" y="0.249" font-size="0.015444" fill="hsl(180.0,100%,20%)">kthelgason</text>
<text x="1.213" y="0.938" font-size="0.010492" fill="hsl(0.0,100%,20%)">peterhanspers</text>
<text x="0.148" y="0.606" font-size="0.007419" fill="hsl(0.0,100%,20%)">andytamilo</text>
<text x="0.113" y="0.597" font-size="0.006058" fill="hsl(0.0,100%,20%)">deadbeef</text>
<text x="1.136" y="0.112" font-size="0.021842" fill="hsl(0.0,100%,20%)">jonaso</text>
<text x="1.193" y="0.330" font-size="0.007419" fill="hsl(0.0,100%,20%)">ayp</text>
<text x="0.907" y="0.435" font-size="0.061331" fill="hsl(0.0,100%,20%)">danilchap</text>
<text x="1.224" y="0.407" font-size="0.034535" fill="hsl(180.0,100%,20%)">orphis</text>
<text x="1.329" y="0.800" font-size="0.007419" fill="hsl(0.0,100%,20%)">bwwilliams</text>
<text x="1.257" y="0.855" font-size="0.004284" fill="hsl(180.0,100%,20%)">haysc</text>
<text x="0.603" y="0.643" font-size="0.011333" fill="hsl(180.0,100%,20%)">daniel.l</text>
<text x="0.370" y="0.636" font-size="0.014207" fill="hsl(180.0,100%,20%)">xalep</text>
<text x="0.642" y="0.616" font-size="0.062074" fill="hsl(180.0,100%,20%)">mbonadei</text>
<text x="0.171" y="0.192" font-size="0.033999" fill="hsl(180.0,100%,20%)">tommi</text>
<text x="0.883" y="0.323" font-size="0.037588" fill="hsl(0.0,100%,20%)">jakobi</text>
<text x="1.692" y="0.852" font-size="0.043473" fill="hsl(0.0,100%,20%)">sprang</text>
<text x="0.967" y="0.590" font-size="0.025342" fill="hsl(0.0,100%,20%)">asapersson</text>
<text x="0.699" y="0.235" font-size="0.028735" fill="hsl(0.0,100%,20%)">philipel</text>
<text x="0.890" y="0.130" font-size="0.041751" fill="hsl(0.0,100%,20%)">perkj</text>
<text x="1.224" y="0.199" font-size="0.037096" fill="hsl(0.0,100%,20%)">terelius</text>
<text x="1.106" y="0.465" font-size="0.004284" fill="hsl(0.0,100%,20%)">yinwa</text>
<text x="1.740" y="0.709" font-size="0.041086" fill="hsl(0.0,100%,20%)">ssilkin</text>
<text x="1.351" y="0.072" font-size="0.042188" fill="hsl(180.0,100%,20%)">jleconte</text>
<text x="0.282" y="0.074" font-size="0.009578" fill="hsl(180.0,100%,20%)">gustaf</text>
<text x="1.166" y="0.298" font-size="0.012116" fill="hsl(0.0,100%,20%)">titovartem</text>
<text x="0.499" y="0.276" font-size="0.019157" fill="hsl(180.0,100%,20%)">peah</text>
<text x="0.141" y="0.798" font-size="0.035582" fill="hsl(0.0,100%,20%)">ilnik</text>
<text x="1.602" y="0.049" font-size="0.026405" fill="hsl(180.0,100%,20%)">jansson</text>
<text x="0.938" y="0.528" font-size="0.006058" fill="hsl(180.0,100%,20%)">magjed</text>
<text x="0.550" y="0.678" font-size="0.008567" fill="hsl(0.0,100%,20%)">brandtr</text>
<text x="1.107" y="0.288" font-size="0.012851" fill="hsl(0.0,100%,20%)">devicentepena</text>
<text x="0.987" y="0.268" font-size="0.018173" fill="hsl(0.0,100%,20%)">lionelk</text>
<text x="0.466" y="0.502" font-size="0.022666" fill="hsl(180.0,100%,20%)">dorhen</text>
<text x="0.843" y="0.725" font-size="0.020092" fill="hsl(180.0,100%,20%)">eshr</text>
<text x="0.864" y="0.715" font-size="0.007419" fill="hsl(180.0,100%,20%)">khokhlov</text>
<text x="1.730" y="0.566" font-size="0.007419" fill="hsl(0.0,100%,20%)">gaochun.dev</text>
<text x="1.445" y="0.485" font-size="0.047891" fill="hsl(180.0,100%,20%)">phancke</text>
<text x="0.386" y="0.543" font-size="0.012116" fill="hsl(180.0,100%,20%)">gavinmak</text>
<text x="0.723" y="0.929" font-size="0.010492" fill="hsl(0.0,100%,20%)">henrika</text>
<text x="0.056" y="0.501" font-size="0.021418" fill="hsl(0.0,100%,20%)">grulja</text>
<text x="0.058" y="0.400" font-size="0.010492" fill="hsl(0.0,100%,20%)">apehrson</text>
<text x="0.230" y="0.560" font-size="0.010492" fill="hsl(0.0,100%,20%)">alcooper</text>
<text x="0.674" y="0.773" font-size="0.007419" fill="hsl(0.0,100%,20%)">mfoltz</text>
<text x="0.252" y="0.374" font-size="0.018671" fill="hsl(0.0,100%,20%)">handellm</text>
<text x="0.097" y="0.366" font-size="0.007419" fill="hsl(0.0,100%,20%)">stefan</text>
<text x="0.226" y="0.312" font-size="0.004284" fill="hsl(180.0,100%,20%)">holmer</text>
<text x="0.444" y="0.829" font-size="0.024607" fill="hsl(0.0,100%,20%)">hbos</text>
<text x="1.206" y="0.539" font-size="0.014839" fill="hsl(180.0,100%,20%)">herre</text>
<text x="0.894" y="0.559" font-size="0.008567" fill="hsl(0.0,100%,20%)">hershi</text>
<text x="0.531" y="0.659" font-size="0.011333" fill="hsl(180.0,100%,20%)">hocheung</text>
<text x="1.531" y="0.186" font-size="0.018671" fill="hsl(0.0,100%,20%)">lndmrk</text>
<text x="0.651" y="0.257" font-size="0.010492" fill="hsl(0.0,100%,20%)">tomasl</text>
<text x="0.638" y="0.359" font-size="0.017134" fill="hsl(180.0,100%,20%)">henrik.lundin</text>
<text x="1.265" y="0.757" font-size="0.014207" fill="hsl(180.0,100%,20%)">jianlin.qiu</text>
<text x="0.941" y="0.568" font-size="0.008567" fill="hsl(0.0,100%,20%)">joachimr</text>
<text x="1.944" y="0.800" font-size="0.007419" fill="hsl(0.0,100%,20%)">karllen.zheng</text>
<text x="1.092" y="0.260" font-size="0.010492" fill="hsl(0.0,100%,20%)">kinu</text>
<text x="0.159" y="0.724" font-size="0.018173" fill="hsl(180.0,100%,20%)">kron</text>
<text x="1.434" y="0.779" font-size="0.023850" fill="hsl(0.0,100%,20%)">linderborg</text>
<text x="1.681" y="0.274" font-size="0.004284" fill="hsl(180.0,100%,20%)">eladalon</text>
<text x="0.835" y="0.213" font-size="0.007419" fill="hsl(180.0,100%,20%)">manashi</text>
<text x="1.280" y="0.147" font-size="0.010492" fill="hsl(180.0,100%,20%)">mheikal</text>
<text x="0.785" y="0.792" font-size="0.008567" fill="hsl(0.0,100%,20%)">meemetao</text>
<text x="1.061" y="0.763" font-size="0.004284" fill="hsl(0.0,100%,20%)">zijiehe</text>
<text x="1.457" y="0.176" font-size="0.007419" fill="hsl(180.0,100%,20%)">pareynolds</text>
<text x="1.068" y="0.012" font-size="0.017134" fill="hsl(0.0,100%,20%)">diepbp</text>
<text x="1.724" y="0.342" font-size="0.010492" fill="hsl(180.0,100%,20%)">davidben</text>
<text x="0.382" y="0.716" font-size="0.011333" fill="hsl(180.0,100%,20%)">ranvr</text>
<text x="0.375" y="0.696" font-size="0.004284" fill="hsl(180.0,100%,20%)">lnilsson</text>
<text x="0.485" y="0.752" font-size="0.006058" fill="hsl(180.0,100%,20%)">fabianbergmark</text>
<text x="1.860" y="0.127" font-size="0.007419" fill="hsl(180.0,100%,20%)">sergeysu</text>
<text x="1.824" y="0.103" font-size="0.004284" fill="hsl(180.0,100%,20%)">boivie</text>
<text x="1.716" y="0.607" font-size="0.016027" fill="hsl(0.0,100%,20%)">sergio.garcia.murillo</text>
<text x="0.912" y="0.042" font-size="0.012116" fill="hsl(180.0,100%,20%)">silen</text>
<text x="0.869" y="0.031" font-size="0.011333" fill="hsl(0.0,100%,20%)">saza</text>
<text x="1.960" y="0.561" font-size="0.007419" fill="hsl(0.0,100%,20%)">marpan</text>
<text x="1.916" y="0.615" font-size="0.004284" fill="hsl(0.0,100%,20%)">dwtan</text>
<text x="1.446" y="0.356" font-size="0.007419" fill="hsl(180.0,100%,20%)">sushin</text>
<text x="0.400" y="0.180" font-size="0.004284" fill="hsl(180.0,100%,20%)">olka</text>
<text x="1.502" y="0.891" font-size="0.019157" fill="hsl(0.0,100%,20%)">vardar</text>
<text x="1.563" y="0.730" font-size="0.012851" fill="hsl(0.0,100%,20%)">wtc</text>
<text x="1.506" y="0.737" font-size="0.008567" fill="hsl(0.0,100%,20%)">yingying.ma</text>
<text x="1.783" y="0.333" font-size="0.007419" fill="hsl(0.0,100%,20%)">yura.yaroshevich</text>
</svg>
