<svg width="4000" height="2000" viewBox="-0.025 -0.025 2.05 1.05" xmlns="http://www.w3.org/2000/svg">
  <style>
    path {
      fill: none;
      stroke-linecap: round;
      stroke-opacity: 0.4;
    }

    text {
      text-anchor: middle;
      alignment-baseline: hanging;
    }
  </style>
  <g opacity="0.4">
<path d="M1.847 0.575 Q1.647 0.419 1.298 0.482" stroke="hsl(0.0,100%,35%)" stroke-width="0.02887"></path>
<path d="M1.847 0.575 Q1.362 0.690 1.479 0.952" stroke="hsl(0.0,100%,35%)" stroke-width="0.02887"></path>
<path d="M1.847 0.575 Q1.887 0.406 1.566 0.350" stroke="hsl(0.0,100%,35%)" stroke-width="0.01443"></path>
<path d="M1.847 0.575 Q1.182 0.672 1.226 1.018" stroke="hsl(0.0,100%,35%)" stroke-width="0.01443"></path>
<path d="M1.479 0.952 Q1.560 0.874 1.426 0.818" stroke="hsl(0.0,100%,35%)" stroke-width="0.01443"></path>
<path d="M1.479 0.952 Q1.965 0.837 1.847 0.575" stroke="hsl(0.0,100%,35%)" stroke-width="0.01443"></path>
<path d="M1.479 0.952 Q1.300 0.934 1.226 1.018" stroke="hsl(0.0,100%,35%)" stroke-width="0.02887"></path>
<path d="M1.226 1.018 Q1.079 0.970 0.954 1.031" stroke="hsl(0.0,100%,35%)" stroke-width="0.01443"></path>
<path d="M1.226 1.018 Q1.376 0.563 0.520 0.389" stroke="hsl(0.0,100%,35%)" stroke-width="0.01443"></path>
<path d="M1.226 1.018 Q1.342 0.836 1.013 0.739" stroke="hsl(0.0,100%,35%)" stroke-width="0.01443"></path>
<path d="M1.226 1.018 Q1.405 1.036 1.479 0.952" stroke="hsl(0.0,100%,35%)" stroke-width="0.04330"></path>
<path d="M0.263 0.152 Q0.368 0.234 0.551 0.200" stroke="hsl(0.0,100%,35%)" stroke-width="0.01443"></path>
<path d="M0.263 0.152 Q0.231 0.795 1.479 0.952" stroke="hsl(0.0,100%,35%)" stroke-width="0.04330"></path>
<path d="M0.263 0.152 Q0.717 0.680 1.847 0.575" stroke="hsl(0.0,100%,35%)" stroke-width="0.01443"></path>
<path d="M0.263 0.152 Q0.202 0.322 0.520 0.389" stroke="hsl(0.0,100%,35%)" stroke-width="0.01443"></path>
<path d="M0.263 0.152 Q0.091 0.227 0.198 0.327" stroke="hsl(0.0,100%,35%)" stroke-width="0.02887"></path>
</g>
<text x="1.847" y="0.534" font-size="0.081650" fill="hsl(0.0,100%,20%)">danilchap</text>
<text x="1.298" y="0.462" font-size="0.040825" fill="hsl(0.0,100%,20%)">asapersson</text>
<text x="1.479" y="0.902" font-size="0.100000" fill="hsl(0.0,100%,20%)">hta</text>
<text x="1.566" y="0.335" font-size="0.028868" fill="hsl(0.0,100%,20%)">jakobi</text>
<text x="1.226" y="0.974" font-size="0.086603" fill="hsl(0.0,100%,20%)">mbonadei</text>
<text x="1.426" y="0.804" font-size="0.028868" fill="hsl(0.0,100%,20%)">orphis</text>
<text x="0.954" y="1.017" font-size="0.028868" fill="hsl(0.0,100%,20%)">brandtr</text>
<text x="0.520" y="0.369" font-size="0.040825" fill="hsl(0.0,100%,20%)">ssilkin</text>
<text x="1.013" y="0.725" font-size="0.028868" fill="hsl(0.0,100%,20%)">henrik.lundin</text>
<text x="0.263" y="0.111" font-size="0.081650" fill="hsl(0.0,100%,20%)">phancke</text>
<text x="0.551" y="0.186" font-size="0.028868" fill="hsl(0.0,100%,20%)">hbos</text>
<text x="0.198" y="0.307" font-size="0.040825" fill="hsl(0.0,100%,20%)">davidben</text>
</svg>
