<svg width="4000" height="2000" viewBox="-0.025 -0.025 2.05 1.05" xmlns="http://www.w3.org/2000/svg">
  <style>
    path {
      fill: none;
      stroke-linecap: round;
      stroke-opacity: 0.4;
    }

    text {
      text-anchor: middle;
      alignment-baseline: hanging;
    }
  </style>
  <g opacity="0.4">
<path d="M1.317 0.238 Q1.184 0.282 1.242 0.357" stroke="hsl(0.0,100%,35%)" stroke-width="0.03464"></path>
<path d="M1.317 0.238 Q1.431 0.303 1.582 0.261" stroke="hsl(0.0,100%,35%)" stroke-width="0.01980"></path>
<path d="M1.317 0.238 Q1.404 0.210 1.368 0.162" stroke="hsl(0.0,100%,35%)" stroke-width="0.00495"></path>
<path d="M1.582 0.261 Q1.726 0.182 1.603 0.094" stroke="hsl(0.0,100%,35%)" stroke-width="0.00495"></path>
<path d="M1.582 0.261 Q1.752 0.273 1.813 0.193" stroke="hsl(0.0,100%,35%)" stroke-width="0.00495"></path>
<path d="M1.582 0.261 Q1.448 0.282 1.459 0.352" stroke="hsl(0.0,100%,35%)" stroke-width="0.00495"></path>
<path d="M1.582 0.261 Q1.469 0.197 1.317 0.238" stroke="hsl(0.0,100%,35%)" stroke-width="0.01980"></path>
<path d="M0.795 0.672 Q0.976 0.660 0.991 0.569" stroke="hsl(60.0,100%,35%)" stroke-width="0.01485"></path>
<path d="M0.795 0.672 Q0.900 0.716 1.007 0.674" stroke="hsl(60.0,100%,35%)" stroke-width="0.00495"></path>
<path d="M0.795 0.672 Q0.919 0.616 0.836 0.543" stroke="hsl(60.0,100%,35%)" stroke-width="0.00990"></path>
<path d="M0.176 0.447 Q0.120 0.533 0.276 0.579" stroke="hsl(60.0,100%,35%)" stroke-width="0.00495"></path>
<path d="M0.176 0.447 Q0.389 0.447 0.436 0.343" stroke="hsl(60.0,100%,35%)" stroke-width="0.00495"></path>
<path d="M0.176 0.447 Q0.211 0.553 0.426 0.560" stroke="hsl(60.0,100%,35%)" stroke-width="0.00990"></path>
<path d="M0.176 0.447 Q0.567 0.433 0.625 0.239" stroke="hsl(60.0,100%,35%)" stroke-width="0.00495"></path>
<path d="M0.176 0.447 Q0.696 0.463 0.842 0.214" stroke="hsl(60.0,100%,35%)" stroke-width="0.00495"></path>
<path d="M0.625 0.239 Q0.447 0.253 0.436 0.343" stroke="hsl(60.0,100%,35%)" stroke-width="0.00990"></path>
<path d="M0.625 0.239 Q0.269 0.360 0.426 0.560" stroke="hsl(60.0,100%,35%)" stroke-width="0.00495"></path>
<path d="M0.625 0.239 Q0.754 0.270 0.842 0.214" stroke="hsl(60.0,100%,35%)" stroke-width="0.00990"></path>
<path d="M0.625 0.239 Q0.730 0.132 0.544 0.057" stroke="hsl(60.0,100%,35%)" stroke-width="0.00495"></path>
<path d="M1.873 0.782 Q1.030 0.450 0.198 0.789" stroke="hsl(0.0,100%,35%)" stroke-width="0.00495"></path>
<path d="M1.873 0.782 Q1.763 0.767 1.711 0.818" stroke="hsl(0.0,100%,35%)" stroke-width="0.00495"></path>
<path d="M1.873 0.782 Q1.812 0.713 1.665 0.727" stroke="hsl(0.0,100%,35%)" stroke-width="0.00495"></path>
<path d="M1.873 0.782 Q1.934 0.784 1.952 0.755" stroke="hsl(0.0,100%,35%)" stroke-width="0.00495"></path>
<path d="M0.312 0.972 Q0.401 0.858 0.198 0.789" stroke="hsl(60.0,100%,35%)" stroke-width="0.00495"></path>
<path d="M0.312 0.972 Q0.297 0.886 0.127 0.874" stroke="hsl(60.0,100%,35%)" stroke-width="0.00495"></path>
<path d="M0.312 0.972 Q0.307 0.902 0.169 0.888" stroke="hsl(60.0,100%,35%)" stroke-width="0.00495"></path>
<path d="M1.408 0.809 Q1.747 0.806 1.816 0.641" stroke="hsl(0.0,100%,35%)" stroke-width="0.00495"></path>
<path d="M1.408 0.809 Q1.546 0.842 1.641 0.782" stroke="hsl(0.0,100%,35%)" stroke-width="0.00495"></path>
<path d="M1.408 0.809 Q1.498 0.770 1.441 0.717" stroke="hsl(0.0,100%,35%)" stroke-width="0.00495"></path>
<path d="M1.816 0.641 Q1.694 0.538 1.466 0.575" stroke="hsl(0.0,100%,35%)" stroke-width="0.01485"></path>
<path d="M1.816 0.641 Q1.691 0.655 1.691 0.719" stroke="hsl(0.0,100%,35%)" stroke-width="0.00495"></path>
<path d="M1.816 0.641 Q0.963 0.472 0.446 0.851" stroke="hsl(0.0,100%,35%)" stroke-width="0.00990"></path>
<path d="M1.441 0.717 Q1.351 0.757 1.408 0.809" stroke="hsl(0.0,100%,35%)" stroke-width="0.04454"></path>
<path d="M1.441 0.717 Q1.755 0.648 1.689 0.480" stroke="hsl(0.0,100%,35%)" stroke-width="0.00495"></path>
<path d="M1.441 0.717 Q1.544 0.346 0.842 0.214" stroke="hsl(0.0,100%,35%)" stroke-width="0.00495"></path>
<path d="M0.837 0.406 Q0.686 0.294 0.436 0.343" stroke="hsl(60.0,100%,35%)" stroke-width="0.00990"></path>
<path d="M0.837 0.406 Q0.864 0.280 0.625 0.239" stroke="hsl(60.0,100%,35%)" stroke-width="0.01485"></path>
<path d="M0.837 0.406 Q0.984 0.381 0.967 0.304" stroke="hsl(60.0,100%,35%)" stroke-width="0.00495"></path>
<path d="M0.837 0.406 Q0.993 0.311 0.842 0.214" stroke="hsl(60.0,100%,35%)" stroke-width="0.00990"></path>
<path d="M0.513 0.461 Q0.356 0.386 0.176 0.447" stroke="hsl(60.0,100%,35%)" stroke-width="0.01485"></path>
<path d="M0.513 0.461 Q1.316 0.658 1.876 0.310" stroke="hsl(60.0,100%,35%)" stroke-width="0.00495"></path>
<path d="M0.513 0.461 Q0.390 0.493 0.426 0.560" stroke="hsl(60.0,100%,35%)" stroke-width="0.00495"></path>
<path d="M0.513 0.461 Q0.569 0.386 0.436 0.343" stroke="hsl(60.0,100%,35%)" stroke-width="0.00990"></path>
<path d="M1.876 0.310 Q1.768 0.227 1.582 0.261" stroke="hsl(0.0,100%,35%)" stroke-width="0.01485"></path>
<path d="M1.876 0.310 Q1.951 0.237 1.827 0.185" stroke="hsl(0.0,100%,35%)" stroke-width="0.00495"></path>
<path d="M1.876 0.310 Q1.170 0.218 0.836 0.543" stroke="hsl(0.0,100%,35%)" stroke-width="0.00495"></path>
<path d="M0.656 0.835 Q1.269 0.867 1.466 0.575" stroke="hsl(0.0,100%,35%)" stroke-width="0.00495"></path>
<path d="M0.656 0.835 Q0.514 0.862 0.535 0.937" stroke="hsl(0.0,100%,35%)" stroke-width="0.00495"></path>
<path d="M0.656 0.835 Q1.150 0.838 1.264 0.597" stroke="hsl(0.0,100%,35%)" stroke-width="0.00495"></path>
<path d="M1.466 0.575 Q1.347 0.546 1.264 0.597" stroke="hsl(0.0,100%,35%)" stroke-width="0.02475"></path>
<path d="M1.466 0.575 Q1.884 0.524 1.876 0.310" stroke="hsl(0.0,100%,35%)" stroke-width="0.00990"></path>
<path d="M1.466 0.575 Q1.653 0.572 1.689 0.480" stroke="hsl(0.0,100%,35%)" stroke-width="0.00495"></path>
<path d="M1.264 0.597 Q0.628 0.621 0.535 0.937" stroke="hsl(0.0,100%,35%)" stroke-width="0.00495"></path>
<path d="M1.264 0.597 Q1.801 0.576 1.876 0.310" stroke="hsl(0.0,100%,35%)" stroke-width="0.00990"></path>
<path d="M1.264 0.597 Q1.325 0.547 1.241 0.506" stroke="hsl(0.0,100%,35%)" stroke-width="0.00990"></path>
<path d="M1.264 0.597 Q1.226 0.527 1.081 0.530" stroke="hsl(0.0,100%,35%)" stroke-width="0.00495"></path>
<path d="M0.446 0.851 Q0.541 0.909 0.675 0.876" stroke="hsl(0.0,100%,35%)" stroke-width="0.00990"></path>
<path d="M0.446 0.851 Q0.372 0.770 0.198 0.789" stroke="hsl(0.0,100%,35%)" stroke-width="0.00495"></path>
<path d="M0.446 0.851 Q0.559 0.822 0.527 0.761" stroke="hsl(0.0,100%,35%)" stroke-width="0.00495"></path>
<path d="M0.446 0.851 Q0.374 0.925 0.502 0.976" stroke="hsl(0.0,100%,35%)" stroke-width="0.00495"></path>
<path d="M1.107 0.848 Q1.101 0.753 0.915 0.736" stroke="hsl(60.0,100%,35%)" stroke-width="0.00990"></path>
<path d="M1.107 0.848 Q1.505 0.783 1.466 0.575" stroke="hsl(60.0,100%,35%)" stroke-width="0.00495"></path>
<path d="M1.107 0.848 Q1.079 0.909 1.192 0.936" stroke="hsl(60.0,100%,35%)" stroke-width="0.00495"></path>
<path d="M1.192 0.936 Q1.221 0.875 1.107 0.848" stroke="hsl(0.0,100%,35%)" stroke-width="0.01980"></path>
<path d="M1.192 0.936 Q1.113 0.955 1.133 0.998" stroke="hsl(0.0,100%,35%)" stroke-width="0.00990"></path>
<path d="M1.192 0.936 Q1.112 0.940 1.101 0.980" stroke="hsl(0.0,100%,35%)" stroke-width="0.00495"></path>
<path d="M1.153 0.690 Q1.050 0.677 1.002 0.724" stroke="hsl(60.0,100%,35%)" stroke-width="0.00990"></path>
<path d="M1.153 0.690 Q1.169 0.653 1.100 0.637" stroke="hsl(60.0,100%,35%)" stroke-width="0.00495"></path>
<path d="M1.153 0.690 Q1.642 0.687 1.744 0.447" stroke="hsl(60.0,100%,35%)" stroke-width="0.00495"></path>
<path d="M1.434 0.964 Q1.620 0.940 1.613 0.844" stroke="hsl(0.0,100%,35%)" stroke-width="0.00495"></path>
<path d="M1.434 0.964 Q1.949 0.773 1.689 0.480" stroke="hsl(0.0,100%,35%)" stroke-width="0.00495"></path>
<path d="M1.434 0.964 Q1.335 0.902 1.192 0.936" stroke="hsl(0.0,100%,35%)" stroke-width="0.00990"></path>
<path d="M1.434 0.964 Q0.867 0.744 0.312 0.972" stroke="hsl(0.0,100%,35%)" stroke-width="0.00495"></path>
<path d="M1.434 0.964 Q1.348 0.691 0.795 0.672" stroke="hsl(0.0,100%,35%)" stroke-width="0.00495"></path>
<path d="M1.434 0.964 Q1.481 1.009 1.578 0.995" stroke="hsl(0.0,100%,35%)" stroke-width="0.00495"></path>
<path d="M1.434 0.964 Q1.030 0.710 0.446 0.851" stroke="hsl(0.0,100%,35%)" stroke-width="0.00495"></path>
<path d="M1.434 0.964 Q1.552 1.019 1.684 0.973" stroke="hsl(0.0,100%,35%)" stroke-width="0.00495"></path>
<path d="M1.631 0.375 Q0.884 0.587 1.133 0.998" stroke="hsl(0.0,100%,35%)" stroke-width="0.00495"></path>
<path d="M1.631 0.375 Q1.100 0.300 0.836 0.543" stroke="hsl(0.0,100%,35%)" stroke-width="0.00495"></path>
<path d="M1.631 0.375 Q1.698 0.308 1.582 0.261" stroke="hsl(0.0,100%,35%)" stroke-width="0.00990"></path>
<path d="M1.631 0.375 Q1.806 0.391 1.876 0.310" stroke="hsl(0.0,100%,35%)" stroke-width="0.00990"></path>
<path d="M1.631 0.375 Q1.507 0.351 1.432 0.406" stroke="hsl(0.0,100%,35%)" stroke-width="0.00495"></path>
<path d="M1.978 0.456 Q1.229 0.478 1.107 0.848" stroke="hsl(60.0,100%,35%)" stroke-width="0.00495"></path>
<path d="M1.978 0.456 Q1.867 0.405 1.744 0.447" stroke="hsl(60.0,100%,35%)" stroke-width="0.00495"></path>
<path d="M1.978 0.456 Q1.893 0.484 1.930 0.532" stroke="hsl(60.0,100%,35%)" stroke-width="0.00495"></path>
<path d="M0.767 0.102 Q0.408 0.156 0.436 0.343" stroke="hsl(60.0,100%,35%)" stroke-width="0.00495"></path>
<path d="M0.767 0.102 Q0.586 0.142 0.625 0.239" stroke="hsl(60.0,100%,35%)" stroke-width="0.01485"></path>
<path d="M0.767 0.102 Q0.691 0.035 0.544 0.057" stroke="hsl(60.0,100%,35%)" stroke-width="0.01485"></path>
<path d="M0.767 0.102 Q0.715 0.173 0.842 0.214" stroke="hsl(60.0,100%,35%)" stroke-width="0.00495"></path>
<path d="M1.367 0.050 Q1.224 0.010 1.116 0.071" stroke="hsl(120.0,100%,35%)" stroke-width="0.00990"></path>
<path d="M1.367 0.050 Q1.425 0.102 1.540 0.086" stroke="hsl(120.0,100%,35%)" stroke-width="0.00495"></path>
<path d="M1.367 0.050 Q1.400 0.084 1.473 0.075" stroke="hsl(120.0,100%,35%)" stroke-width="0.00495"></path>
<path d="M0.050 0.630 Q0.214 0.732 0.450 0.675" stroke="hsl(180.0,100%,35%)" stroke-width="0.00495"></path>
<path d="M0.050 0.630 Q0.120 0.607 0.090 0.568" stroke="hsl(180.0,100%,35%)" stroke-width="0.00495"></path>
<path d="M0.050 0.630 Q0.153 0.700 0.314 0.665" stroke="hsl(180.0,100%,35%)" stroke-width="0.00495"></path>
<path d="M1.882 0.125 Q1.888 0.135 1.910 0.135" stroke="hsl(60.0,100%,35%)" stroke-width="0.00495"></path>
<path d="M1.882 0.125 Q1.845 0.143 1.872 0.165" stroke="hsl(60.0,100%,35%)" stroke-width="0.00495"></path>
<path d="M1.882 0.125 Q0.916 0.331 1.107 0.848" stroke="hsl(60.0,100%,35%)" stroke-width="0.00495"></path>
<path d="M0.199 0.285 Q0.187 0.598 0.795 0.672" stroke="hsl(60.0,100%,35%)" stroke-width="0.01485"></path>
<path d="M0.199 0.285 Q0.311 0.541 0.836 0.543" stroke="hsl(60.0,100%,35%)" stroke-width="0.00990"></path>
<path d="M0.199 0.285 Q0.390 0.244 0.350 0.141" stroke="hsl(60.0,100%,35%)" stroke-width="0.00990"></path>
<path d="M0.199 0.285 Q0.359 0.283 0.389 0.204" stroke="hsl(60.0,100%,35%)" stroke-width="0.00495"></path>
<path d="M0.260 0.512 Q0.270 0.463 0.176 0.447" stroke="hsl(60.0,100%,35%)" stroke-width="0.00495"></path>
<path d="M0.260 0.512 Q1.230 0.734 1.876 0.310" stroke="hsl(60.0,100%,35%)" stroke-width="0.00495"></path>
<path d="M0.260 0.512 Q0.661 0.449 0.625 0.239" stroke="hsl(60.0,100%,35%)" stroke-width="0.00495"></path>
<path d="M0.691 0.325 Q0.727 0.269 0.625 0.239" stroke="hsl(60.0,100%,35%)" stroke-width="0.01485"></path>
<path d="M0.691 0.325 Q0.846 0.370 0.967 0.304" stroke="hsl(60.0,100%,35%)" stroke-width="0.00495"></path>
<path d="M0.691 0.325 Q0.856 0.300 0.842 0.214" stroke="hsl(60.0,100%,35%)" stroke-width="0.00495"></path>
<path d="M0.691 0.325 Q0.549 0.283 0.436 0.343" stroke="hsl(60.0,100%,35%)" stroke-width="0.00495"></path>
<path d="M0.691 0.325 Q1.230 0.648 1.978 0.456" stroke="hsl(60.0,100%,35%)" stroke-width="0.00495"></path>
<path d="M1.040 0.135 Q1.253 0.483 1.978 0.456" stroke="hsl(60.0,100%,35%)" stroke-width="0.00495"></path>
<path d="M1.040 0.135 Q0.954 0.206 1.074 0.264" stroke="hsl(60.0,100%,35%)" stroke-width="0.00495"></path>
<path d="M1.040 0.135 Q1.142 0.432 1.744 0.447" stroke="hsl(60.0,100%,35%)" stroke-width="0.00495"></path>
<path d="M0.866 0.825 Q0.725 0.874 0.789 0.954" stroke="hsl(240.0,100%,35%)" stroke-width="0.00990"></path>
<path d="M0.866 0.825 Q0.821 0.744 0.653 0.748" stroke="hsl(240.0,100%,35%)" stroke-width="0.00990"></path>
<path d="M0.866 0.825 Q0.829 0.866 0.901 0.893" stroke="hsl(240.0,100%,35%)" stroke-width="0.00990"></path>
<path d="M1.032 0.336 Q0.932 0.412 1.057 0.477" stroke="hsl(60.0,100%,35%)" stroke-width="0.00495"></path>
<path d="M1.032 0.336 Q1.111 0.308 1.074 0.264" stroke="hsl(60.0,100%,35%)" stroke-width="0.00495"></path>
<path d="M1.032 0.336 Q1.299 0.534 1.744 0.447" stroke="hsl(60.0,100%,35%)" stroke-width="0.00495"></path>
<path d="M0.110 0.162 Q0.224 0.153 0.232 0.096" stroke="hsl(300.0,100%,35%)" stroke-width="0.00495"></path>
<path d="M0.110 0.162 Q0.163 0.138 0.128 0.107" stroke="hsl(300.0,100%,35%)" stroke-width="0.00495"></path>
<path d="M0.110 0.162 Q0.196 0.135 0.163 0.088" stroke="hsl(300.0,100%,35%)" stroke-width="0.00495"></path>
<path d="M1.876 0.903 Q1.711 0.906 1.681 0.988" stroke="hsl(0.0,100%,35%)" stroke-width="0.00495"></path>
<path d="M1.876 0.903 Q1.923 0.889 1.907 0.863" stroke="hsl(0.0,100%,35%)" stroke-width="0.00990"></path>
<path d="M1.876 0.903 Q1.644 0.515 0.836 0.543" stroke="hsl(0.0,100%,35%)" stroke-width="0.00495"></path>
<path d="M1.721 0.583 Q1.600 0.528 1.466 0.575" stroke="hsl(0.0,100%,35%)" stroke-width="0.00990"></path>
<path d="M1.721 0.583 Q1.542 0.449 1.241 0.506" stroke="hsl(0.0,100%,35%)" stroke-width="0.00495"></path>
<path d="M1.721 0.583 Q1.481 0.499 1.264 0.597" stroke="hsl(0.0,100%,35%)" stroke-width="0.00495"></path>
</g>
<text x="1.317" y="0.218" font-size="0.040100" fill="hsl(0.0,100%,20%)">andruud</text>
<text x="1.242" y="0.344" font-size="0.026524" fill="hsl(0.0,100%,20%)">sesse</text>
<text x="1.582" y="0.241" font-size="0.040100" fill="hsl(0.0,100%,20%)">futhark</text>
<text x="1.368" y="0.157" font-size="0.010025" fill="hsl(0.0,100%,20%)">moonira</text>
<text x="0.795" y="0.656" font-size="0.031702" fill="hsl(60.0,100%,20%)">arichiv</text>
<text x="0.991" y="0.560" font-size="0.017364" fill="hsl(60.0,100%,20%)">rakina</text>
<text x="1.007" y="0.669" font-size="0.010025" fill="hsl(60.0,100%,20%)">dfried</text>
<text x="0.836" y="0.529" font-size="0.026524" fill="hsl(0.0,100%,20%)">dcheng</text>
<text x="0.176" y="0.431" font-size="0.031702" fill="hsl(60.0,100%,20%)">asully</text>
<text x="0.276" y="0.574" font-size="0.010025" fill="hsl(60.0,100%,20%)">btriebw</text>
<text x="0.436" y="0.328" font-size="0.030075" fill="hsl(60.0,100%,20%)">ajgo</text>
<text x="0.426" y="0.550" font-size="0.020050" fill="hsl(60.0,100%,20%)">reillyg</text>
<text x="0.625" y="0.219" font-size="0.041335" fill="hsl(60.0,100%,20%)">ningxin.hu</text>
<text x="0.842" y="0.200" font-size="0.028355" fill="hsl(60.0,100%,20%)">weizhong</text>
<text x="1.873" y="0.772" font-size="0.020050" fill="hsl(0.0,100%,20%)">averge</text>
<text x="0.198" y="0.780" font-size="0.017364" fill="hsl(0.0,100%,20%)">arthursonzogni</text>
<text x="1.711" y="0.813" font-size="0.010025" fill="hsl(0.0,100%,20%)">danakj</text>
<text x="1.665" y="0.722" font-size="0.010025" fill="hsl(0.0,100%,20%)">lbrady</text>
<text x="1.952" y="0.750" font-size="0.010025" fill="hsl(0.0,100%,20%)">mustaq</text>
<text x="0.312" y="0.962" font-size="0.020050" fill="hsl(60.0,100%,20%)">beaufort.francois</text>
<text x="0.127" y="0.869" font-size="0.010025" fill="hsl(0.0,100%,20%)">mattreynolds</text>
<text x="0.169" y="0.883" font-size="0.010025" fill="hsl(60.0,100%,20%)">yoavweiss</text>
<text x="1.408" y="0.792" font-size="0.034728" fill="hsl(0.0,100%,20%)">behamilton</text>
<text x="1.816" y="0.627" font-size="0.026524" fill="hsl(0.0,100%,20%)">dom</text>
<text x="1.641" y="0.777" font-size="0.010025" fill="hsl(0.0,100%,20%)">fmalita</text>
<text x="1.441" y="0.700" font-size="0.034728" fill="hsl(0.0,100%,20%)">morlovich</text>
<text x="0.837" y="0.391" font-size="0.028355" fill="hsl(60.0,100%,20%)">bin.miao</text>
<text x="0.967" y="0.297" font-size="0.014178" fill="hsl(60.0,100%,20%)">phillis</text>
<text x="0.513" y="0.447" font-size="0.026524" fill="hsl(60.0,100%,20%)">bryan.bernhart</text>
<text x="1.876" y="0.291" font-size="0.036146" fill="hsl(0.0,100%,20%)">dbaron</text>
<text x="0.656" y="0.826" font-size="0.017364" fill="hsl(0.0,100%,20%)">daniec</text>
<text x="1.466" y="0.555" font-size="0.038827" fill="hsl(0.0,100%,20%)">masonf</text>
<text x="0.535" y="0.929" font-size="0.014178" fill="hsl(0.0,100%,20%)">aleventhal</text>
<text x="1.264" y="0.579" font-size="0.036146" fill="hsl(0.0,100%,20%)">jarhar</text>
<text x="1.827" y="0.180" font-size="0.010025" fill="hsl(0.0,100%,20%)">obrufau</text>
<text x="1.691" y="0.714" font-size="0.010025" fill="hsl(0.0,100%,20%)">japhet</text>
<text x="0.446" y="0.837" font-size="0.028355" fill="hsl(0.0,100%,20%)">nrosenthal</text>
<text x="1.603" y="0.089" font-size="0.010025" fill="hsl(0.0,100%,20%)">szager</text>
<text x="1.813" y="0.188" font-size="0.010025" fill="hsl(0.0,100%,20%)">awogbemila</text>
<text x="1.459" y="0.347" font-size="0.010025" fill="hsl(0.0,100%,20%)">kevers</text>
<text x="1.107" y="0.832" font-size="0.031702" fill="hsl(60.0,100%,20%)">ikilpatrick</text>
<text x="0.915" y="0.729" font-size="0.014178" fill="hsl(60.0,100%,20%)">dgrogan</text>
<text x="1.192" y="0.921" font-size="0.031702" fill="hsl(0.0,100%,20%)">mstensho</text>
<text x="1.153" y="0.680" font-size="0.020050" fill="hsl(60.0,100%,20%)">janiceliu</text>
<text x="1.002" y="0.717" font-size="0.014178" fill="hsl(60.0,100%,20%)">awillia</text>
<text x="1.100" y="0.632" font-size="0.010025" fill="hsl(60.0,100%,20%)">kyraseevers</text>
<text x="1.744" y="0.437" font-size="0.020050" fill="hsl(60.0,100%,20%)">tkent</text>
<text x="1.241" y="0.498" font-size="0.017364" fill="hsl(0.0,100%,20%)">tcaptan</text>
<text x="1.081" y="0.525" font-size="0.010025" fill="hsl(0.0,100%,20%)">chromium</text>
<text x="1.434" y="0.949" font-size="0.030075" fill="hsl(0.0,100%,20%)">jonathanjlee</text>
<text x="1.613" y="0.839" font-size="0.010025" fill="hsl(60.0,100%,20%)">ricea</text>
<text x="1.689" y="0.471" font-size="0.017364" fill="hsl(0.0,100%,20%)">pdr</text>
<text x="1.578" y="0.990" font-size="0.010025" fill="hsl(60.0,100%,20%)">chengweih</text>
<text x="1.684" y="0.968" font-size="0.010025" fill="hsl(60.0,100%,20%)">finnur</text>
<text x="1.631" y="0.362" font-size="0.026524" fill="hsl(0.0,100%,20%)">kbabbitt</text>
<text x="1.133" y="0.990" font-size="0.017364" fill="hsl(0.0,100%,20%)">fs</text>
<text x="1.432" y="0.401" font-size="0.010025" fill="hsl(0.0,100%,20%)">aaronhk</text>
<text x="1.978" y="0.444" font-size="0.022417" fill="hsl(60.0,100%,20%)">kojii</text>
<text x="1.930" y="0.527" font-size="0.010025" fill="hsl(60.0,100%,20%)">lingqi</text>
<text x="0.767" y="0.087" font-size="0.028355" fill="hsl(60.0,100%,20%)">mingming1.xu</text>
<text x="0.544" y="0.047" font-size="0.020050" fill="hsl(60.0,100%,20%)">rafael.cintron</text>
<text x="1.101" y="0.975" font-size="0.010025" fill="hsl(60.0,100%,20%)">sakhapov</text>
<text x="0.675" y="0.869" font-size="0.014178" fill="hsl(0.0,100%,20%)">vmpstr</text>
<text x="0.527" y="0.756" font-size="0.010025" fill="hsl(0.0,100%,20%)">haraken</text>
<text x="0.502" y="0.971" font-size="0.010025" fill="hsl(0.0,100%,20%)">khushalsagar</text>
<text x="1.367" y="0.040" font-size="0.020050" fill="hsl(120.0,100%,20%)">philipp.hancke</text>
<text x="1.116" y="0.064" font-size="0.014178" fill="hsl(120.0,100%,20%)">guidou</text>
<text x="1.540" y="0.081" font-size="0.010025" fill="hsl(120.0,100%,20%)">hta</text>
<text x="1.473" y="0.070" font-size="0.010025" fill="hsl(120.0,100%,20%)">hbos</text>
<text x="0.050" y="0.621" font-size="0.017364" fill="hsl(180.0,100%,20%)">pkotwicz</text>
<text x="0.450" y="0.670" font-size="0.010025" fill="hsl(180.0,100%,20%)">kenrb</text>
<text x="0.090" y="0.563" font-size="0.010025" fill="hsl(180.0,100%,20%)">nsatragno</text>
<text x="0.314" y="0.660" font-size="0.010025" fill="hsl(180.0,100%,20%)">cbiesinger</text>
<text x="1.882" y="0.116" font-size="0.017364" fill="hsl(60.0,100%,20%)">samomekarajr</text>
<text x="1.910" y="0.130" font-size="0.010025" fill="hsl(60.0,100%,20%)">almaher</text>
<text x="1.872" y="0.160" font-size="0.010025" fill="hsl(60.0,100%,20%)">ethavar</text>
<text x="0.199" y="0.271" font-size="0.028355" fill="hsl(60.0,100%,20%)">sandormajor</text>
<text x="0.350" y="0.134" font-size="0.014178" fill="hsl(60.0,100%,20%)">rkaplow</text>
<text x="0.389" y="0.199" font-size="0.010025" fill="hsl(60.0,100%,20%)">selya</text>
<text x="0.260" y="0.503" font-size="0.017364" fill="hsl(60.0,100%,20%)">shanxing.mei</text>
<text x="0.691" y="0.312" font-size="0.026524" fill="hsl(60.0,100%,20%)">shiyi.zou</text>
<text x="1.040" y="0.127" font-size="0.017364" fill="hsl(60.0,100%,20%)">shwetabindal</text>
<text x="1.074" y="0.257" font-size="0.014178" fill="hsl(60.0,100%,20%)">siliu</text>
<text x="0.866" y="0.812" font-size="0.024556" fill="hsl(240.0,100%,20%)">suzukikeita</text>
<text x="0.789" y="0.946" font-size="0.014178" fill="hsl(240.0,100%,20%)">sisidovski</text>
<text x="0.653" y="0.741" font-size="0.014178" fill="hsl(240.0,100%,20%)">toyoshim</text>
<text x="0.901" y="0.886" font-size="0.014178" fill="hsl(240.0,100%,20%)">yyanagisawa</text>
<text x="1.032" y="0.327" font-size="0.017364" fill="hsl(60.0,100%,20%)">tanujain</text>
<text x="1.057" y="0.472" font-size="0.010025" fill="hsl(60.0,100%,20%)">akihiroota</text>
<text x="0.110" y="0.153" font-size="0.017364" fill="hsl(300.0,100%,20%)">xiaobincui</text>
<text x="0.232" y="0.091" font-size="0.010025" fill="hsl(300.0,100%,20%)">avi</text>
<text x="0.128" y="0.102" font-size="0.010025" fill="hsl(300.0,100%,20%)">dtapuska</text>
<text x="0.163" y="0.083" font-size="0.010025" fill="hsl(300.0,100%,20%)">jkim</text>
<text x="1.876" y="0.893" font-size="0.020050" fill="hsl(0.0,100%,20%)">ybourouphael</text>
<text x="1.681" y="0.983" font-size="0.010025" fill="hsl(60.0,100%,20%)">mmenke</text>
<text x="1.907" y="0.856" font-size="0.014178" fill="hsl(60.0,100%,20%)">orrb</text>
<text x="1.721" y="0.573" font-size="0.020050" fill="hsl(0.0,100%,20%)">zhoupeng.1996</text>
</svg>
